<svg width="349" height="321" viewBox="0 0 349 321" fill="none" xmlns="http://www.w3.org/2000/svg">
<path d="M251.487 129.51C252.986 158.085 255.565 247.324 256.555 281.821C256.794 290.433 256.937 295.636 256.937 295.636C256.937 295.636 268.885 298.746 278.338 295.636L278.405 282.18L278.638 234.566L278.915 179.928L279.013 158.317L279.17 126.302C278.12 107.044 251.487 105.62 251.487 129.51Z" fill="#93BEE5"/>
<path d="M278.636 234.566L278.913 179.928L279.011 158.317C277.264 157.867 275.128 158.264 272.534 159.719C265.091 163.864 265.338 183.743 270.488 190.835C275.323 197.528 262.355 221.186 278.636 234.566Z" fill="#83ADDF"/>
<path d="M276.577 293.761L277.326 311.347H241.346C241.346 311.347 240.701 307.959 246.023 305.702C251.345 303.446 262.724 293.919 262.964 293.761C263.204 293.604 276.577 293.761 276.577 293.761Z" fill="#683F1D"/>
<path d="M256.555 281.82C256.795 290.433 256.938 295.635 256.938 295.635C256.938 295.635 268.886 298.746 278.339 295.635L278.406 282.18C271.152 283.256 263.77 283.134 256.555 281.82Z" fill="#C3DCF8"/>
<path d="M306.805 125.125C308.132 123.19 309.36 121.188 310.485 119.129C316.205 108.762 321.812 94.0771 323.318 85.2394C323.849 82.2234 324.182 79.1761 324.315 76.1168C324.6 68.6883 323.206 62.2792 318.146 60.3752C315.095 59.2583 310.785 60.4952 306.078 66.8742C302.172 72.1664 297.982 81.0041 293.994 94.9616C281.626 138.123 298.102 137.674 306.805 125.125Z" fill="#28C079"/>
<path d="M306.063 66.8668C311.123 67.444 316.265 69.9401 321.1 73.5157C322.187 74.3253 323.266 75.1798 324.315 76.0868C324.6 68.6583 323.206 62.2493 318.146 60.3453C315.08 59.2509 310.77 60.4877 306.063 66.8668Z" fill="#2BDA88"/>
<path d="M258.168 154.127C257.029 154.704 254.607 152.628 253.146 148.347C253.146 148.347 259.36 145.289 259.495 145.289C259.63 145.289 261.136 151.99 258.168 154.127Z" fill="#145C3B"/>
<path d="M255.109 134.488C249.524 136.661 248.138 137.194 246.863 137.306C245.589 137.419 240.867 136.811 239.735 137.306C238.603 137.801 237.688 139.555 237.688 139.555C237.688 139.555 232.973 139.015 231.812 139.787C230.65 140.559 230.777 142.786 231.714 143.37C232.651 143.955 233.596 144.42 233.318 146.024C233.041 147.628 233.266 148.408 233.813 148.902C234.36 149.397 232.823 150.282 233.978 152.163C235.132 154.045 234.038 155.371 235.754 156.039C237.471 156.706 260.529 150.619 261.631 149.51C262.732 148.4 261.496 132.036 255.109 134.488Z" fill="#FEBD9D"/>
<path d="M243.476 137.171C241.909 137.089 240.312 137.044 239.728 137.306C238.618 137.808 237.681 139.555 237.681 139.555C237.681 139.555 232.966 139.015 231.804 139.787C230.642 140.559 230.77 142.786 231.707 143.37C232.644 143.955 233.588 144.42 233.311 146.024C233.034 147.628 233.259 148.408 233.806 148.902C234.353 149.397 232.816 150.282 233.971 152.163C235.125 154.044 234.031 155.371 235.747 156.038C236.175 156.203 237.929 155.948 240.335 155.454" stroke="#EF8A66" stroke-width="0.75" stroke-linecap="round" stroke-linejoin="round"/>
<path d="M237.688 139.533C239.463 139.57 241.239 139.488 243.003 139.285" stroke="#EF8A66" stroke-width="0.75" stroke-linecap="round" stroke-linejoin="round"/>
<path d="M304.687 111.392C299.042 104.121 291.194 108.064 277.207 116.737C268.205 122.395 259.611 128.677 251.488 135.537C251.488 135.537 259.096 144.914 258.167 154.127C258.167 154.127 296.157 135.994 301.756 130.402C306.171 125.994 308.982 116.924 304.687 111.392Z" fill="#2BDA88"/>
<path d="M299.613 107.839C294.419 106.565 287.477 110.388 277.208 116.737C268.206 122.395 259.612 128.677 251.489 135.537" stroke="#145C3B" stroke-width="0.75" stroke-linecap="round" stroke-linejoin="round"/>
<path d="M278.518 36.0876C283.72 37.8492 290.759 36.305 295.361 28.7716C298.195 24.3368 299.41 19.0596 298.802 13.8321C298.509 11.0511 296.238 4.6795 288.922 6.80835C282.371 8.69734 279.282 12.8051 277.288 18.2772C277.049 18.9218 276.824 19.589 276.614 20.2786C276.291 21.3505 275.977 22.4524 275.714 23.5544C274.38 29.0564 274.185 34.5884 278.518 36.0876Z" fill="#FEBD9D"/>
<path d="M286.937 22.4453C287.447 23.997 289.86 24.5892 292.311 23.7721C294.763 22.955 296.337 21.0361 295.82 19.4844C295.302 17.9327 292.896 17.3406 290.437 18.1576C287.979 18.9747 286.412 20.8936 286.937 22.4453Z" fill="#F4AF90"/>
<path d="M275.715 23.5174C276.098 23.6047 276.495 23.5999 276.876 23.5035C277.256 23.407 277.609 23.2217 277.904 22.9627C278.916 21.9432 278.653 19.9643 277.289 18.2402C277.049 18.8849 276.824 19.552 276.614 20.2417C276.292 21.3136 275.977 22.4155 275.715 23.5174Z" fill="#F4AF90"/>
<path d="M281.517 16.9059C281.518 17.0949 281.463 17.2799 281.359 17.4376C281.255 17.5953 281.107 17.7185 280.932 17.7915C280.758 17.8645 280.566 17.884 280.381 17.8475C280.195 17.811 280.025 17.7202 279.891 17.5866C279.758 17.453 279.667 17.2827 279.631 17.0973C279.594 16.9119 279.614 16.7199 279.687 16.5457C279.76 16.3714 279.883 16.2228 280.04 16.1188C280.198 16.0147 280.383 15.96 280.572 15.9615C280.823 15.9615 281.063 16.061 281.24 16.2381C281.417 16.4152 281.517 16.6555 281.517 16.9059V16.9059Z" fill="#683F1D"/>
<path d="M286.372 17.9552C286.374 18.1438 286.319 18.3286 286.215 18.4862C286.112 18.6437 285.963 18.7669 285.79 18.8401C285.616 18.9133 285.424 18.9332 285.239 18.8973C285.054 18.8614 284.883 18.7714 284.75 18.6385C284.616 18.5057 284.524 18.3361 284.487 18.1512C284.45 17.9664 284.468 17.7746 284.54 17.6002C284.612 17.4258 284.734 17.2767 284.89 17.1717C285.047 17.0668 285.231 17.0107 285.42 17.0107C285.671 17.0107 285.912 17.11 286.091 17.2869C286.269 17.4638 286.37 17.704 286.372 17.9552V17.9552Z" fill="#683F1D"/>
<path d="M278.84 9.18489C279.92 10.2943 281.344 9.18489 281.344 9.18489C281.172 10.8115 284.83 12.1833 287.461 12.4606C290.092 12.738 288.96 10.3018 290.991 9.39478C293.023 8.48777 295.819 10.6916 295.819 10.6916C295.819 10.6916 291.554 13.5775 291.321 17.438C291.16 19.6821 291.83 21.9072 293.203 23.6896L297.865 24.6791C299.543 23.8863 301.084 22.8311 302.43 21.5532C304.926 19.147 306.351 16.1337 305.669 13.1802C304.634 8.68266 300.144 7.93307 300.144 7.93307C300.055 6.55157 299.607 5.21722 298.844 4.06173C298.082 2.90623 297.031 1.96954 295.796 1.3441C292.266 -0.597353 288.555 -0.155092 287.191 0.909337C285.827 1.97376 285.422 2.23613 282.896 2.73836H282.783C282.446 2.76955 282.119 2.86886 281.821 3.03029C281.523 3.19171 281.261 3.41188 281.051 3.67747C280.841 3.94307 280.686 4.24857 280.598 4.57547C280.509 4.90238 280.487 5.24389 280.535 5.57933C280.535 5.57933 277.761 8.0605 278.84 9.18489Z" fill="#BF8228"/>
<path d="M278.841 9.18491C279.92 10.2943 281.344 9.18491 281.344 9.18491C281.172 10.8115 284.83 12.1833 287.461 12.4607C290.092 12.738 288.96 10.3018 290.992 9.3948C293.023 8.48779 295.819 10.6916 295.819 10.6916C295.819 10.6916 291.554 13.5776 291.322 17.438C291.16 19.6821 291.83 21.9072 293.203 23.6896L297.866 24.6791C299.544 23.8863 301.085 22.8311 302.431 21.5533C297.648 19.7093 299.335 15.4665 299.672 12.3557C300.144 7.96307 297.663 4.32752 292.176 6.35893C289.013 7.50581 285.43 5.21204 282.866 2.79834H282.754C282.416 2.82953 282.089 2.92885 281.791 3.09028C281.493 3.2517 281.231 3.47187 281.021 3.73746C280.811 4.00306 280.657 4.30856 280.568 4.63546C280.479 4.96236 280.458 5.30387 280.505 5.63931C280.505 5.63931 277.761 8.06052 278.841 9.18491Z" fill="#B57724"/>
<path d="M281.343 9.1772C281.882 7.52059 282.175 7.54308 284.004 7.34819C285.833 7.15329 288.097 6.89093 288.696 5.68408" stroke="#9B621F" stroke-width="0.75" stroke-linecap="round" stroke-linejoin="round"/>
<path d="M280.565 5.65442C282.057 5.01525 283.692 4.78498 285.303 4.98728" stroke="#9B621F" stroke-width="0.75" stroke-linecap="round" stroke-linejoin="round"/>
<path d="M289.651 16.179C289.891 17.101 284.502 15.8417 285.371 13.9302C286.241 12.0187 289.217 14.5374 289.651 16.179Z" fill="#BF8228"/>
<path d="M283.51 13.2774C283.675 14.4543 279.522 14.5742 279.514 13.5998C279.507 12.6253 283.27 11.5309 283.51 13.2774Z" fill="#BF8228"/>
<path d="M283.973 15.729C283.163 18.3751 281.409 18.8248 280.352 19.522C279.295 20.2191 279.513 22.3854 279.513 22.3854" stroke="#EF8A66" stroke-width="0.75" stroke-linecap="round" stroke-linejoin="round"/>
<path d="M285.533 22.9702C284.454 24.7543 282.865 25.7887 281.111 25.219" stroke="#EF8A66" stroke-width="0.75" stroke-linecap="round" stroke-linejoin="round"/>
<path d="M293.226 23.7045C294.134 20.0915 299.973 18.1725 300.782 23.2773C301.48 27.6924 297.327 28.0597 295.145 27.9098L293.226 23.7045Z" fill="#FEBD9D"/>
<path d="M298.951 23.0672C296.567 21.9129 294.903 23.9443 294.611 25.0237" stroke="#EF8A66" stroke-width="0.75" stroke-linecap="round" stroke-linejoin="round"/>
<path d="M294.918 24.3343C296.89 21.4334 299.416 25.871 296.035 26.2158" stroke="#EF8A66" stroke-width="0.75" stroke-linecap="round" stroke-linejoin="round"/>
<path d="M295.833 27.9323C295.216 27.9459 294.6 27.8572 294.011 27.6699" stroke="#EF8A66" stroke-width="0.75" stroke-linecap="round" stroke-linejoin="round"/>
<path d="M271.522 152.643C271.522 153.67 271.582 154.689 271.612 155.709C271.612 155.821 271.612 155.934 271.612 156.046C271.612 156.338 271.612 156.616 271.612 156.908C271.612 157.56 271.672 158.197 271.694 158.842C271.754 160.266 271.829 161.683 271.912 163.107C271.912 163.624 271.971 164.142 272.001 164.651C272.046 165.319 272.084 165.993 272.129 166.66C272.189 167.582 272.256 168.489 272.324 169.419C272.369 169.951 272.406 170.491 272.451 171.03C272.541 172.162 272.631 173.279 272.736 174.419C272.811 175.213 272.886 176.015 272.953 176.825C273.006 177.357 273.066 177.882 273.118 178.414C273.186 179.081 273.253 179.756 273.328 180.438C273.373 180.895 273.418 181.352 273.471 181.81C273.516 182.147 273.546 182.492 273.583 182.837L273.785 184.561C273.86 185.205 273.943 185.858 274.025 186.517C274.085 187.012 274.145 187.522 274.213 188.016C274.28 188.511 274.34 189.021 274.408 189.516C274.528 190.445 274.648 191.382 274.782 192.334C275.112 194.793 275.48 197.319 275.877 199.927C275.997 200.677 276.117 201.487 276.244 202.281C279.58 223.54 292.96 264.97 300.426 287.473C302.48 293.665 304.092 298.417 304.924 300.966C304.924 300.966 319.826 301.251 327.217 295.284C327.217 295.284 325.478 289.354 323.057 280.876C317.644 261.927 308.777 230.256 308.185 223.907C307.9 220.736 307.435 209.77 306.993 196.734C306.116 171.87 305.194 139.51 305.194 139.51C305.044 128.318 298.815 121.797 291.701 119.713C282.878 117.112 272.714 121.347 271.259 131.916C271.274 139.278 271.319 146.054 271.522 152.643Z" fill="#93BEE5"/>
<path d="M271.613 155.708C272.203 171.322 273.765 186.884 276.29 202.303" stroke="white" stroke-width="0.75" stroke-linecap="round" stroke-linejoin="round"/>
<path d="M293.5 154.412C300.329 156.661 303.515 162.83 299.572 171.143C296.244 178.137 297.81 189.561 307.03 196.704C306.153 171.84 305.231 139.48 305.231 139.48C305.081 128.288 298.852 121.767 291.738 119.683C288.268 121.362 285.284 125.485 284.183 132.936C282.863 141.984 285.659 151.863 293.5 154.412Z" fill="#83ADDF"/>
<path d="M272.521 153.287C270.52 151.93 269.725 151.743 269.523 151.038C269.321 150.334 269.148 141.668 269.148 141.668" stroke="white" stroke-width="0.75" stroke-linecap="round" stroke-linejoin="round"/>
<path d="M267.759 154.419C270.105 154.869 271.604 155.469 271.627 156.046" stroke="white" stroke-width="0.75" stroke-linecap="round" stroke-linejoin="round"/>
<path d="M273.893 144.195C273.788 147.298 273.893 150.941 273.893 150.941" stroke="white" stroke-width="0.75" stroke-linecap="round" stroke-linejoin="round"/>
<path d="M302.22 139.27C302.512 145.019 302.22 153.25 302.22 153.25C302.22 153.25 295.751 148.805 296.928 139.27" stroke="white" stroke-width="0.75" stroke-linecap="round" stroke-linejoin="round"/>
<path d="M322.72 292.488L329.204 308.852L295.225 320.718C295.225 320.718 293.501 317.719 297.781 313.844C302.061 309.968 309.647 297.218 309.842 296.985C310.037 296.753 322.72 292.488 322.72 292.488Z" fill="#683F1D"/>
<path d="M300.473 287.495C302.527 293.687 304.139 298.44 304.971 300.988C304.971 300.988 319.873 301.273 327.264 295.306C327.264 295.306 325.525 289.377 323.103 280.899C316.829 283.89 306.942 286.386 300.473 287.495Z" fill="#C3DCF8"/>
<path d="M225.145 103.672L225.895 103.102C233.099 97.3151 255.744 78.1778 255.744 78.1778C255.527 79.9544 254.709 86.8507 253.72 95.2612C251.726 112.09 249.028 134.99 249.028 134.99C263.337 138.296 274.222 139.975 282.407 140.702C300.18 142.306 305.27 139.502 305.27 139.502C305.27 139.502 307.159 132.359 309.655 122.554C309.932 121.445 310.232 120.305 310.525 119.121C312.526 111.228 314.805 102.068 316.791 93.6345C318.658 85.7188 320.262 78.4627 321.139 73.5229C321.54 71.6029 321.774 69.6515 321.836 67.691C321.607 64.8753 320.299 62.257 318.185 60.3824C316.27 58.6031 314.054 57.1768 311.641 56.1697C318.987 51.3348 313.8 37.1749 300.9 40.0908C298.808 40.5631 296.574 40.4131 293.314 39.8509C291.29 39.4911 288.861 38.9814 285.818 38.3517L283.569 37.887C280.945 37.3473 278.764 36.9575 276.958 36.7026C268.285 35.4808 268.112 37.2274 268.367 39.6186C268.367 39.6186 258.405 36.7251 251.996 43.9288C249.927 46.2525 247.926 48.5912 245.939 50.975C237.454 61.1695 229.283 72.0836 217.192 85.7413C202.23 102.57 218.894 108.649 225.145 103.672Z" fill="#28C079"/>
<path d="M265.525 131.422C267.714 133.116 274.678 137.186 282.369 140.679C300.142 142.284 305.232 139.48 305.232 139.48C305.232 139.48 307.121 132.336 309.617 122.532C309.894 121.422 310.194 120.283 310.486 119.099C312.488 111.205 314.766 102.045 316.753 93.6122C315.344 88.545 312.69 84.6171 308.305 82.7356C292.039 75.8318 285.72 85.734 286.911 93.4623C288.103 101.191 286.514 108.409 273.891 110.118C261.268 111.827 260.571 127.599 265.525 131.422Z" fill="#1F9B61"/>
<path d="M225.856 103.102C233.06 97.3149 255.705 78.1776 255.705 78.1776C255.705 78.1776 256.74 69.13 257.444 62.3911C251.725 63.7329 247.46 67.4509 248.712 72.8855C250.211 79.392 243.262 85.6286 236.935 84.984C231.081 84.3693 223.308 97.8096 225.856 103.102Z" fill="#1F9B61"/>
<path d="M245.886 50.9601C252.73 51.1176 258.719 55.1579 261.987 64.0331C264.386 70.5696 267.774 74.5275 271.86 76.2291C277.789 78.6953 285.188 76.4165 293.223 70.3672C295.028 68.9682 297.092 67.9388 299.295 67.3382C301.498 66.7375 303.798 66.5772 306.064 66.8666C311.124 67.4438 316.266 69.94 321.101 73.5155C321.502 71.5955 321.735 69.6442 321.798 67.6837C321.568 64.868 320.261 62.2497 318.147 60.3751C316.232 58.5958 314.016 57.1695 311.603 56.1624C318.949 51.3275 313.762 37.1676 300.862 40.0835C298.77 40.5557 296.536 40.4058 293.276 39.8436C291.252 39.4838 288.823 38.9741 285.78 38.3444L283.531 37.8797C280.907 37.34 278.726 36.9502 276.919 36.6953C268.247 35.4735 268.074 37.22 268.329 39.6112C268.329 39.6112 258.367 36.7178 251.958 43.9214C249.874 46.2377 247.873 48.5764 245.886 50.9601Z" fill="#2BDA88"/>
<path d="M255.678 78.1776C255.678 78.1776 256.713 69.1299 257.417 62.3911C257.56 61.0193 257.687 59.745 257.792 58.6431" stroke="#145C3B" stroke-width="0.75" stroke-linecap="round" stroke-linejoin="round"/>
<path d="M275.419 58.6582C271.828 65.472 269.092 104.609 268.86 109.631C268.628 114.653 265.644 113.919 265.524 118.911C265.51 120.408 265.809 121.892 266.405 123.266C267 124.64 267.877 125.873 268.98 126.887" stroke="#145C3B" stroke-width="0.75" stroke-linecap="round" stroke-linejoin="round"/>
<path d="M277.234 52.0394C281.872 49.2591 286.937 47.2633 292.226 46.1325C292.226 46.1325 294.137 34.8886 295.269 27.4601C297.345 13.8249 283.515 15.0617 280.562 25.8035C280.412 26.3732 280.195 27.0778 279.94 27.8798C278.725 31.6728 276.604 37.5721 275.442 40.7729C274.94 42.1522 274.61 43.0217 274.61 43.0217C278.163 46.4849 277.234 52.0394 277.234 52.0394Z" fill="#FEBD9D"/>
<path d="M275.421 40.773C282.325 43.2916 287.467 39.4087 287.467 32.25L282.107 28.2697L279.941 27.8799C278.726 31.6728 276.605 37.5872 275.421 40.773Z" fill="#F4A789"/>
<path d="M300.861 44.903C295.824 45.0079 287.998 46.1848 277.234 52.0391C277.234 52.0391 278.913 44.7755 271.567 40.5928" stroke="#145C3B" stroke-width="0.75" stroke-linecap="round" stroke-linejoin="round"/>
<path d="M296.627 100.726C298.894 109.047 303.397 116.589 309.647 122.532C314.639 102.975 322.075 72.8336 321.828 67.6839C321.461 59.9556 311.633 56.1626 311.633 56.1626C296.342 60.1804 291.874 83.6878 296.627 100.726Z" fill="#F9F9F9" stroke="#DDDDDD" stroke-linecap="round" stroke-linejoin="round"/>
<path d="M339.575 96.6554C341.074 88.5148 341.539 86.0486 339.972 82.9602C338.405 79.8719 333.975 76.6486 331.381 78.2153C328.788 79.7819 326.412 88.7097 326.412 88.7097L329.5 90.5012C329.5 90.5012 330.999 79.1223 334.11 80.2542C337.221 81.3861 339.485 85.269 337.783 92.9974L339.575 96.6554Z" fill="#EDEDED" stroke="#DDDDDD" stroke-width="0.75" stroke-linecap="round" stroke-linejoin="round"/>
<path d="M302.35 134.233C305.311 142.276 312.229 159.082 317.649 159.862C321.385 160.375 325.177 160.311 328.893 159.674C330.655 159.322 332.041 158.782 332.678 158.055C335.638 154.499 338.064 150.533 339.882 146.279C341.689 141.661 346.344 121.242 345.699 114.264C345.054 107.285 340.789 87.0607 326.442 78.8151C319.531 74.8348 315.588 86.446 310.026 99.6239C305.753 109.766 301.78 120.02 301.495 127.876C301.367 130.03 301.658 132.189 302.35 134.233Z" fill="#F9F9F9" stroke="#DDDDDD" stroke-linecap="round" stroke-linejoin="round"/>
<path d="M302.349 134.233C305.31 142.276 312.228 159.082 317.648 159.861C321.383 160.374 325.176 160.311 328.892 159.674C332.483 152.838 333.464 150.859 332.707 146.256C331.95 141.654 325.714 130.477 323.277 128.806C321.029 127.306 308.998 124.271 301.539 127.884C301.398 130.032 301.673 132.188 302.349 134.233Z" fill="#EDEDED" stroke="#DDDDDD" stroke-width="0.75" stroke-linecap="round" stroke-linejoin="round"/>
<path d="M335.246 93.5142C333.395 101.138 331.251 109.863 330.344 111.842C329.437 113.821 325.981 122.531 325.981 122.531" fill="#F9F9F9"/>
<path d="M335.246 93.5142C333.395 101.138 331.251 109.863 330.344 111.842C329.437 113.821 325.981 122.531 325.981 122.531" stroke="#DDDDDD" stroke-width="0.75" stroke-linecap="round" stroke-linejoin="round"/>
<path d="M328.344 110.935C323.681 108.371 314.461 107.487 311.695 107.599L328.344 110.935Z" fill="#F9F9F9"/>
<path d="M328.344 110.935C323.681 108.371 314.461 107.487 311.695 107.599" stroke="#DDDDDD" stroke-width="0.75" stroke-linecap="round" stroke-linejoin="round"/>
<path d="M347.504 121.542C346.716 122.906 344.34 120.747 342.466 117.794C340.592 114.841 335.42 104.406 335.562 101.678C335.705 98.9492 337.579 95.9208 336.642 92.0304C335.705 88.14 326.35 79.1299 323.044 78.1704C323.735 77.8177 324.499 77.6338 325.274 77.6338C326.05 77.6338 326.814 77.8177 327.504 78.1704C329.948 79.3697 341.897 90.5912 345.202 102.247C348.508 113.904 348.306 120.163 347.504 121.542Z" fill="#EDEDED" stroke="#DDDDDD" stroke-width="0.75" stroke-linecap="round" stroke-linejoin="round"/>
<path d="M340.315 105.905L338.329 103.244L335.248 112.472L337.302 115.095L340.315 105.905Z" fill="#DDDDDD" stroke="#DDDDDD" stroke-linecap="round" stroke-linejoin="round"/>
<path d="M347.076 118.686L345.532 116.609L343.126 123.806L344.73 125.852L347.076 118.686Z" fill="#DDDDDD" stroke="#DDDDDD" stroke-linecap="round" stroke-linejoin="round"/>
<path d="M97.5147 129.51C96.0155 158.085 93.4368 247.325 92.4474 281.821C92.2075 290.434 92.0651 295.636 92.0651 295.636C92.0651 295.636 80.1165 298.747 70.6641 295.636L70.5966 282.181L70.3642 234.566L70.0869 179.928L69.9894 158.317L69.832 126.302C70.8815 107.045 97.5147 105.621 97.5147 129.51Z" fill="#93BEE5"/>
<path d="M70.366 234.566L70.0887 179.928L69.9912 158.317C71.7378 157.868 73.8741 158.265 76.4677 159.719C83.9112 163.864 83.6639 183.744 78.5141 190.835C73.6792 197.529 86.6473 221.186 70.366 234.566Z" fill="#83ADDF"/>
<path d="M72.4254 293.762L71.6758 311.347H107.656C107.656 311.347 108.301 307.959 102.979 305.703C97.6568 303.447 86.2779 293.919 86.0381 293.762C85.7982 293.604 72.4254 293.762 72.4254 293.762Z" fill="#683F1D"/>
<path d="M92.4465 281.821C92.2066 290.434 92.0642 295.636 92.0642 295.636C92.0642 295.636 80.1156 298.747 70.6632 295.636L70.5957 282.181C77.85 283.256 85.2315 283.134 92.4465 281.821Z" fill="#C3DCF8"/>
<path d="M77.4802 152.643C77.4802 153.67 77.4203 154.689 77.3903 155.709C77.3903 155.821 77.3903 155.934 77.3903 156.046C77.3903 156.338 77.3903 156.616 77.3903 156.908C77.3903 157.56 77.3303 158.197 77.3078 158.842C77.2479 160.266 77.1729 161.683 77.0905 163.107C77.0905 163.624 77.0305 164.142 77.0005 164.651C76.9555 165.319 76.918 165.993 76.8731 166.66C76.8131 167.582 76.7456 168.489 76.6782 169.419C76.6332 169.951 76.5957 170.491 76.5507 171.03C76.4608 172.162 76.3708 173.279 76.2659 174.419C76.1909 175.213 76.116 176.015 76.0485 176.825C75.996 177.357 75.9361 177.882 75.8836 178.414C75.8161 179.081 75.7487 179.756 75.6737 180.438C75.6287 180.895 75.5838 181.352 75.5313 181.81C75.4863 182.147 75.4563 182.492 75.4188 182.837L75.2165 184.561C75.1415 185.205 75.059 185.858 74.9766 186.517C74.9166 187.012 74.8566 187.522 74.7892 188.016C74.7217 188.511 74.6618 189.021 74.5943 189.516C74.4744 190.445 74.3544 191.382 74.2195 192.334C73.8897 194.793 73.5224 197.319 73.1251 199.927C73.0051 200.677 72.8852 201.487 72.7578 202.281C69.4221 223.54 56.0417 264.97 48.5758 287.473C46.5219 293.665 44.9102 298.417 44.0782 300.966C44.0782 300.966 29.1762 301.251 21.7852 295.284C21.7852 295.284 23.5242 289.354 25.9454 280.876C31.3575 261.927 40.2253 230.256 40.8174 223.907C41.1023 220.736 41.567 209.77 42.0093 196.734C42.8863 171.87 43.8083 139.51 43.8083 139.51C43.9583 128.318 50.1874 121.797 57.3011 119.713C66.1238 117.112 76.2884 121.347 77.7426 131.916C77.7276 139.278 77.6826 146.054 77.4802 152.643Z" fill="#93BEE5"/>
<path d="M77.3894 155.708C76.7988 171.322 75.2366 186.884 72.7119 202.303" stroke="white" stroke-width="0.75" stroke-linecap="round" stroke-linejoin="round"/>
<path d="M55.5019 154.412C48.6731 156.661 45.4873 162.83 49.4302 171.143C52.7584 178.137 51.1917 189.561 41.9717 196.704C42.8487 171.84 43.7707 139.48 43.7707 139.48C43.9207 128.288 50.1498 121.767 57.2635 119.683C60.7341 121.362 63.7175 125.485 64.8194 132.936C66.1387 141.984 63.3427 151.863 55.5019 154.412Z" fill="#83ADDF"/>
<path d="M76.4805 153.287C78.4819 151.93 79.2765 151.743 79.4789 151.038C79.6812 150.334 79.8537 141.668 79.8537 141.668" stroke="white" stroke-width="0.75" stroke-linecap="round" stroke-linejoin="round"/>
<path d="M81.2429 154.419C78.8967 154.869 77.3975 155.469 77.375 156.046" stroke="white" stroke-width="0.75" stroke-linecap="round" stroke-linejoin="round"/>
<path d="M75.1094 144.195C75.2143 147.298 75.1094 150.941 75.1094 150.941" stroke="white" stroke-width="0.75" stroke-linecap="round" stroke-linejoin="round"/>
<path d="M46.7823 139.27C46.4899 145.019 46.7823 153.25 46.7823 153.25C46.7823 153.25 53.2513 148.805 52.0744 139.27" stroke="white" stroke-width="0.75" stroke-linecap="round" stroke-linejoin="round"/>
<path d="M26.2819 292.488L19.7979 308.852L53.7771 320.718C53.7771 320.718 55.5012 317.719 51.221 313.844C46.9408 309.968 39.3548 297.218 39.1599 296.985C38.965 296.753 26.2819 292.488 26.2819 292.488Z" fill="#683F1D"/>
<path d="M48.5289 287.495C46.475 293.687 44.8634 298.44 44.0313 300.988C44.0313 300.988 29.1293 301.273 21.7383 295.306C21.7383 295.306 23.4773 289.377 25.8985 280.899C32.1727 283.89 42.0599 286.386 48.5289 287.495Z" fill="#C3DCF8"/>
<path d="M123.857 103.672L123.107 103.102C115.903 97.3156 93.258 78.1783 93.258 78.1783C93.4754 79.9549 94.2925 86.8512 95.2819 95.2617C97.2759 112.09 99.9744 134.99 99.9744 134.99C85.6646 138.296 74.7804 139.975 66.5948 140.702C48.8219 142.306 43.7321 139.503 43.7321 139.503C43.7321 139.503 41.8431 132.359 39.347 122.555C39.0696 121.445 38.7698 120.306 38.4774 119.121C36.476 111.228 34.1972 102.068 32.2108 93.635C30.3443 85.7193 28.7402 78.4632 27.8632 73.5233C27.4617 71.6034 27.2284 69.652 27.166 67.6915C27.3954 64.8758 28.7032 62.2575 30.8166 60.3829C32.7323 58.6036 34.9478 57.1773 37.3605 56.1702C30.0145 51.3353 35.2017 37.1754 48.1023 40.0913C50.1937 40.5635 52.4275 40.4136 55.6882 39.8514C57.7121 39.4916 60.1408 38.9819 63.1842 38.3522L65.433 37.8875C68.0566 37.3478 70.2379 36.958 72.0444 36.7031C80.7172 35.4813 80.8897 37.2278 80.6348 39.6191C80.6348 39.6191 90.597 36.7256 97.006 43.9292C99.0749 46.253 101.076 48.5917 103.063 50.9755C111.548 61.17 119.719 72.0841 131.81 85.7418C146.772 102.57 130.108 108.649 123.857 103.672Z" fill="#28C079"/>
<path d="M83.4765 131.422C81.2877 133.117 74.3239 137.187 66.6331 140.68C48.8601 142.284 43.7704 139.481 43.7704 139.481C43.7704 139.481 41.8814 132.337 39.3852 122.532C39.1079 121.423 38.808 120.283 38.5157 119.099C36.5142 111.206 34.2355 102.046 32.249 93.6127C33.6583 88.5455 36.3119 84.6176 40.697 82.7361C56.9633 75.8323 63.2824 85.7345 62.0905 93.4628C60.8986 101.191 62.4878 108.41 75.111 110.119C87.7342 111.828 88.4313 127.599 83.4765 131.422Z" fill="#1F9B61"/>
<path d="M123.146 103.102C115.942 97.3153 93.2967 78.1781 93.2967 78.1781C93.2967 78.1781 92.2622 69.1305 91.5576 62.3916C97.277 63.7334 101.542 67.4514 100.29 72.886C98.7912 79.3925 105.74 85.6291 112.067 84.9845C117.921 84.3698 125.694 97.8101 123.146 103.102Z" fill="#1F9B61"/>
<path d="M103.116 50.9606C96.272 51.1181 90.2827 55.1584 87.0145 64.0336C84.6157 70.5701 81.2276 74.528 77.1423 76.2296C71.213 78.6957 63.8144 76.417 55.7787 70.3677C53.9737 68.9687 51.9104 67.9393 49.7071 67.3386C47.5037 66.738 45.2035 66.5777 42.9381 66.8671C37.8784 67.4443 32.7361 69.9404 27.9012 73.516C27.4997 71.596 27.2665 69.6447 27.2041 67.6842C27.4335 64.8685 28.7413 62.2502 30.8546 60.3756C32.7703 58.5963 34.9858 57.17 37.3986 56.1628C30.0526 51.3279 35.2398 37.1681 48.1404 40.084C50.2317 40.5562 52.4655 40.4063 55.7263 39.8441C57.7502 39.4843 60.1789 38.9746 63.2222 38.3449L65.471 37.8802C68.0946 37.3405 70.276 36.9507 72.0825 36.6958C80.7553 35.474 80.9277 37.2205 80.6729 39.6117C80.6729 39.6117 90.635 36.7183 97.0441 43.9219C99.128 46.2382 101.129 48.5769 103.116 50.9606Z" fill="#2BDA88"/>
<path d="M93.3238 78.1781C93.3238 78.1781 92.2894 69.1304 91.5848 62.3915C91.4423 61.0198 91.3149 59.7455 91.21 58.6436" stroke="#145C3B" stroke-width="0.75" stroke-linecap="round" stroke-linejoin="round"/>
<path d="M73.583 58.6587C77.1736 65.4725 79.9096 104.609 80.142 109.631C80.3744 114.654 83.3577 113.919 83.4777 118.911C83.4924 120.409 83.1925 121.892 82.5972 123.266C82.0019 124.64 81.1245 125.874 80.022 126.887" stroke="#145C3B" stroke-width="0.75" stroke-linecap="round" stroke-linejoin="round"/>
<path d="M71.7682 52.0399C67.1299 49.2596 62.0645 47.2638 56.7763 46.133C56.7763 46.133 54.8648 34.8891 53.7329 27.4606C51.6565 13.8254 65.4866 15.0622 68.44 25.8039C68.5899 26.3736 68.8073 27.0783 69.0622 27.8803C70.2765 31.6733 72.3979 37.5726 73.5598 40.7734C74.062 42.1527 74.3918 43.0222 74.3918 43.0222C70.8387 46.4853 71.7682 52.0399 71.7682 52.0399Z" fill="#FEBD9D"/>
<path d="M73.5812 40.7734C66.6774 43.2921 61.5352 39.4092 61.5352 32.2505L66.8948 28.2702L69.0611 27.8804C70.2755 31.6733 72.3968 37.5877 73.5812 40.7734Z" fill="#F4A789"/>
<path d="M48.1406 44.9034C53.1779 45.0084 61.0037 46.1853 71.7679 52.0396C71.7679 52.0396 70.0888 44.776 77.4349 40.5933" stroke="#145C3B" stroke-width="0.75" stroke-linecap="round" stroke-linejoin="round"/>
<path d="M52.3754 100.727C50.1079 109.048 45.6049 116.589 39.3549 122.532C34.3626 102.975 26.9266 72.8341 27.174 67.6844C27.5413 59.956 37.3685 56.1631 37.3685 56.1631C52.6603 60.1809 57.1279 83.6883 52.3754 100.727Z" fill="#F9F9F9" stroke="#DDDDDD" stroke-linecap="round" stroke-linejoin="round"/>
<path d="M9.42737 96.6559C7.92817 88.5153 7.46342 86.0491 9.03008 82.9607C10.5967 79.8724 15.0269 76.6491 17.6205 78.2158C20.2141 79.7824 22.5903 88.7101 22.5903 88.7101L19.502 90.5017C19.502 90.5017 18.0028 79.1228 14.8919 80.2547C11.7811 81.3866 9.51733 85.2695 11.2189 92.9978L9.42737 96.6559Z" fill="#EDEDED" stroke="#DDDDDD" stroke-width="0.75" stroke-linecap="round" stroke-linejoin="round"/>
<path d="M46.6522 134.233C43.6913 142.277 36.7725 159.082 31.3529 159.862C27.6174 160.375 23.8253 160.312 20.1089 159.675C18.3474 159.322 16.9606 158.783 16.3235 158.056C13.3644 154.5 10.9379 150.533 9.11986 146.279C7.31333 141.662 2.65832 121.243 3.30297 114.264C3.94763 107.285 8.21284 87.0612 22.5601 78.8156C29.4714 74.8352 33.4143 86.4465 38.9763 99.6244C43.249 109.766 47.2219 120.021 47.5067 127.877C47.6345 130.031 47.3443 132.189 46.6522 134.233Z" fill="#F9F9F9" stroke="#DDDDDD" stroke-linecap="round" stroke-linejoin="round"/>
<path d="M46.6532 134.233C43.6923 142.276 36.7736 159.082 31.354 159.862C27.6185 160.375 23.8263 160.312 20.11 159.675C16.5194 152.838 15.5375 150.859 16.2946 146.257C17.0516 141.654 23.2883 130.478 25.7245 128.806C27.9733 127.307 40.0043 124.271 47.4628 127.884C47.6041 130.033 47.3292 132.189 46.6532 134.233Z" fill="#EDEDED" stroke="#DDDDDD" stroke-width="0.75" stroke-linecap="round" stroke-linejoin="round"/>
<path d="M13.7559 93.5146C15.6074 101.138 17.7512 109.863 18.6582 111.842C19.5652 113.821 23.0209 122.532 23.0209 122.532" fill="#F9F9F9"/>
<path d="M13.7559 93.5146C15.6074 101.138 17.7512 109.863 18.6582 111.842C19.5652 113.821 23.0209 122.532 23.0209 122.532" stroke="#DDDDDD" stroke-width="0.75" stroke-linecap="round" stroke-linejoin="round"/>
<path d="M20.6582 110.935C25.3207 108.372 34.5407 107.487 37.3068 107.6L20.6582 110.935Z" fill="#F9F9F9"/>
<path d="M20.6582 110.935C25.3207 108.372 34.5407 107.487 37.3068 107.6" stroke="#DDDDDD" stroke-width="0.75" stroke-linecap="round" stroke-linejoin="round"/>
<path d="M1.49838 121.543C2.28546 122.907 4.66168 120.748 6.53567 117.795C8.40967 114.841 13.5819 104.407 13.4395 101.678C13.297 98.9497 11.423 95.9213 12.36 92.0309C13.297 88.1405 22.652 79.1303 25.9577 78.1709C25.2673 77.8182 24.503 77.6343 23.7277 77.6343C22.9524 77.6343 22.1881 77.8182 21.4976 78.1709C19.0539 79.3702 7.10537 90.5917 3.79965 102.248C0.493924 113.904 0.69631 120.163 1.49838 121.543Z" fill="#EDEDED" stroke="#DDDDDD" stroke-width="0.75" stroke-linecap="round" stroke-linejoin="round"/>
<path d="M8.68652 105.906L10.673 103.245L13.7538 112.472L11.6999 115.096L8.68652 105.906Z" fill="#DDDDDD" stroke="#DDDDDD" stroke-linecap="round" stroke-linejoin="round"/>
<path d="M1.92578 118.686L3.46995 116.61L5.87615 123.806L4.27202 125.852L1.92578 118.686Z" fill="#DDDDDD" stroke="#DDDDDD" stroke-linecap="round" stroke-linejoin="round"/>
<path d="M42.1961 125.125C40.8693 123.19 39.6409 121.188 38.5156 119.129C32.7962 108.762 27.1892 94.0771 25.6825 85.2394C25.152 82.2234 24.819 79.1761 24.6855 76.1168C24.4007 68.6883 25.7949 62.2792 30.8547 60.3752C33.9056 59.2583 38.2157 60.4952 42.9232 66.8742C46.8286 72.1664 51.0189 81.0041 55.0067 94.9616C67.3751 138.123 50.8989 137.674 42.1961 125.125Z" fill="#28C079"/>
<path d="M42.9382 66.8668C37.8784 67.444 32.7362 69.9401 27.9013 73.5157C26.8144 74.3253 25.7349 75.1798 24.6855 76.0868C24.4007 68.6583 25.7949 62.2493 30.8547 60.3453C33.9206 59.2509 38.2307 60.4877 42.9382 66.8668Z" fill="#2BDA88"/>
<path d="M90.834 154.127C91.9733 154.704 94.3946 152.628 95.8563 148.348C95.8563 148.348 89.6421 145.29 89.5072 145.29C89.3723 145.29 87.8656 151.991 90.834 154.127Z" fill="#145C3B"/>
<path d="M93.893 134.488C99.4775 136.662 100.864 137.194 102.139 137.307C103.413 137.419 108.135 136.812 109.267 137.307C110.399 137.801 111.314 139.555 111.314 139.555C111.314 139.555 116.029 139.016 117.19 139.788C118.352 140.56 118.225 142.786 117.288 143.371C116.351 143.956 115.406 144.42 115.684 146.024C115.961 147.629 115.736 148.408 115.189 148.903C114.642 149.398 116.178 150.282 115.024 152.164C113.87 154.045 114.964 155.372 113.248 156.039C111.531 156.706 88.4734 150.619 87.3715 149.51C86.2695 148.401 87.5064 132.037 93.893 134.488Z" fill="#FEBD9D"/>
<path d="M105.526 137.172C107.093 137.089 108.69 137.044 109.274 137.306C110.384 137.809 111.321 139.555 111.321 139.555C111.321 139.555 116.036 139.016 117.198 139.788C118.359 140.56 118.232 142.786 117.295 143.371C116.358 143.955 115.414 144.42 115.691 146.024C115.968 147.628 115.743 148.408 115.196 148.903C114.649 149.397 116.186 150.282 115.031 152.163C113.877 154.045 114.971 155.372 113.255 156.039C112.827 156.204 111.073 155.949 108.667 155.454" stroke="#EF8A66" stroke-width="0.75" stroke-linecap="round" stroke-linejoin="round"/>
<path d="M111.314 139.533C109.539 139.571 107.763 139.488 105.999 139.286" stroke="#EF8A66" stroke-width="0.75" stroke-linecap="round" stroke-linejoin="round"/>
<path d="M44.315 111.393C49.9595 104.122 57.8078 108.064 71.7952 116.737C80.7968 122.395 89.3907 128.677 97.5139 135.537C97.5139 135.537 89.9055 144.915 90.835 154.127C90.835 154.127 52.8454 135.994 47.2459 130.402C42.8308 125.995 40.0198 116.925 44.315 111.393Z" fill="#2BDA88"/>
<path d="M49.3887 107.84C54.5834 106.566 61.5246 110.389 71.7941 116.738C80.7957 122.396 89.3896 128.678 97.5128 135.538" stroke="#145C3B" stroke-width="0.75" stroke-linecap="round" stroke-linejoin="round"/>
<path d="M70.4842 36.0881C65.282 37.8497 58.2433 36.3055 53.6408 28.772C50.807 24.3373 49.5916 19.0601 50.2001 13.8326C50.4925 11.0516 52.7637 4.67999 60.0798 6.80884C66.6313 8.69783 69.7196 12.8056 71.7136 18.2777C71.9534 18.9223 72.1783 19.5895 72.3882 20.2791C72.7105 21.351 73.0253 22.4529 73.2877 23.5548C74.622 29.0569 74.8169 34.5889 70.4842 36.0881Z" fill="#FEBD9D"/>
<path d="M62.0651 22.4458C61.5553 23.9975 59.1416 24.5896 56.6905 23.7726C54.2393 22.9555 52.6651 21.0366 53.1824 19.4849C53.6996 17.9332 56.1058 17.341 58.5645 18.1581C61.0231 18.9752 62.5898 20.8941 62.0651 22.4458Z" fill="#F4AF90"/>
<path d="M73.2871 23.5179C72.9044 23.6052 72.5065 23.6004 72.126 23.504C71.7455 23.4075 71.3933 23.2222 71.0983 22.9632C70.0864 21.9437 70.3487 19.9648 71.713 18.2407C71.9529 18.8854 72.1778 19.5525 72.3876 20.2421C72.71 21.3141 73.0248 22.416 73.2871 23.5179Z" fill="#F4AF90"/>
<path d="M67.4854 16.9064C67.4839 17.0954 67.5387 17.2804 67.6427 17.4381C67.7467 17.5958 67.8953 17.719 68.0696 17.792C68.2438 17.865 68.4359 17.8845 68.6212 17.848C68.8066 17.8115 68.9769 17.7206 69.1105 17.5871C69.2441 17.4535 69.3349 17.2832 69.3714 17.0978C69.4079 16.9124 69.3884 16.7204 69.3154 16.5461C69.2424 16.3719 69.1193 16.2233 68.9616 16.1193C68.8039 16.0152 68.6188 15.9605 68.4299 15.9619C68.1794 15.9619 67.9391 16.0614 67.762 16.2386C67.5849 16.4157 67.4854 16.6559 67.4854 16.9064Z" fill="#683F1D"/>
<path d="M62.6299 17.9557C62.6284 18.1443 62.683 18.3291 62.7867 18.4866C62.8904 18.6442 63.0386 18.7674 63.2124 18.8406C63.3862 18.9138 63.5778 18.9337 63.763 18.8978C63.9482 18.8619 64.1185 18.7719 64.2524 18.639C64.3863 18.5062 64.4777 18.3366 64.515 18.1517C64.5524 17.9668 64.534 17.775 64.4621 17.6007C64.3903 17.4263 64.2683 17.2771 64.1116 17.1722C63.9549 17.0673 63.7705 17.0112 63.5819 17.0112C63.3307 17.0112 63.0897 17.1105 62.9114 17.2874C62.7331 17.4643 62.6319 17.7045 62.6299 17.9557Z" fill="#683F1D"/>
<path d="M70.1615 9.18538C69.0821 10.2948 67.6579 9.18538 67.6579 9.18538C67.8303 10.812 64.1723 12.1838 61.5412 12.4611C58.9101 12.7385 60.042 10.3023 58.0106 9.39527C55.9792 8.48825 53.1832 10.6921 53.1832 10.6921C53.1832 10.6921 57.4484 13.578 57.6807 17.4384C57.842 19.6826 57.1723 21.9077 55.7992 23.6901L51.1368 24.6796C49.4587 23.8868 47.9176 22.8316 46.5717 21.5537C44.0755 19.1475 42.6513 16.1341 43.3334 13.1807C44.3679 8.68315 48.858 7.93355 48.858 7.93355C48.9472 6.55206 49.3951 5.21771 50.1576 4.06221C50.92 2.90672 51.9706 1.97003 53.2056 1.34459C56.7363 -0.596864 60.4467 -0.154603 61.811 0.909825C63.1753 1.97425 63.5801 2.23661 66.1062 2.73884H66.2186C66.5559 2.77004 66.8834 2.86935 67.1812 3.03078C67.479 3.1922 67.7409 3.41237 67.9512 3.67796C68.1614 3.94356 68.3156 4.24906 68.4043 4.57596C68.493 4.90286 68.5145 5.24437 68.4674 5.57982C68.4674 5.57982 71.241 8.06098 70.1615 9.18538Z" fill="#4F3B1E"/>
<path d="M70.1611 9.1854C69.0817 10.2948 67.6575 9.1854 67.6575 9.1854C67.8299 10.812 64.1718 12.1838 61.5407 12.4611C58.9097 12.7385 60.0416 10.3023 58.0102 9.39529C55.9787 8.48827 53.1827 10.6921 53.1827 10.6921C53.1827 10.6921 57.448 13.578 57.6803 17.4385C57.8416 19.6826 57.1719 21.9077 55.7988 23.6901L51.1363 24.6796C49.4582 23.8868 47.9172 22.8316 46.5713 21.5538C51.3537 19.7097 49.6671 15.467 49.3298 12.3562C48.8576 7.96355 51.3387 4.32801 56.8258 6.35942C59.9891 7.5063 63.5722 5.21253 66.1358 2.79883H66.2482C66.5855 2.83002 66.913 2.92934 67.2108 3.09076C67.5086 3.25219 67.7705 3.47236 67.9807 3.73795C68.191 4.00355 68.3451 4.30904 68.4339 4.63595C68.5226 4.96285 68.5441 5.30436 68.497 5.6398C68.497 5.6398 71.2405 8.061 70.1611 9.1854Z" fill="#3F2F17"/>
<path d="M67.6592 9.17769C67.1195 7.52108 66.8271 7.54357 64.9981 7.34868C63.1691 7.15378 60.9053 6.89142 60.3057 5.68457" stroke="#4A3113" stroke-width="0.75" stroke-linecap="round" stroke-linejoin="round"/>
<path d="M68.4367 5.65491C66.9448 5.01574 65.3096 4.78546 63.6992 4.98777" stroke="#4A3113" stroke-width="0.75" stroke-linecap="round" stroke-linejoin="round"/>
<path d="M59.3506 16.1795C59.1107 17.1015 64.5003 15.8422 63.6308 13.9307C62.7612 12.0192 59.7853 14.5379 59.3506 16.1795Z" fill="#4F3B1E"/>
<path d="M65.4921 13.2779C65.3272 14.4548 69.48 14.5747 69.4875 13.6002C69.495 12.6258 65.732 11.5314 65.4921 13.2779Z" fill="#4F3B1E"/>
<path d="M65.0283 15.7295C65.8379 18.3756 67.5919 18.8253 68.6489 19.5225C69.7058 20.2196 69.4884 22.3859 69.4884 22.3859" stroke="#EF8A66" stroke-width="0.75" stroke-linecap="round" stroke-linejoin="round"/>
<path d="M63.4678 22.9707C64.5472 24.7547 66.1363 25.7892 67.8904 25.2195" stroke="#EF8A66" stroke-width="0.75" stroke-linecap="round" stroke-linejoin="round"/>
<path d="M55.7745 23.705C54.8675 20.092 49.0281 18.173 48.2185 23.2778C47.5214 27.6929 51.6742 28.0602 53.8555 27.9103L55.7745 23.705Z" fill="#FEBD9D"/>
<path d="M50.0498 23.0677C52.4335 21.9134 54.0976 23.9448 54.39 25.0242" stroke="#EF8A66" stroke-width="0.75" stroke-linecap="round" stroke-linejoin="round"/>
<path d="M54.0837 24.3348C52.1123 21.4338 49.5862 25.8715 52.9668 26.2163" stroke="#EF8A66" stroke-width="0.75" stroke-linecap="round" stroke-linejoin="round"/>
<path d="M53.168 27.9328C53.7855 27.9464 54.4009 27.8577 54.9895 27.6704" stroke="#EF8A66" stroke-width="0.75" stroke-linecap="round" stroke-linejoin="round"/>
<path d="M253.373 59.1681L253.289 91.596L242.591 91.5645L228.637 91.5329L228.7 67.6166L228.721 59.105L244.441 59.042L253.373 59.1681Z" fill="url(#paint0_linear_206_109)"/>
<path d="M228.721 59.0943L233.218 52.3901L248.455 52.4322L244.409 59.1363L228.721 59.0943Z" fill="url(#paint1_linear_206_109)"/>
<path d="M248.457 52.4326L253.374 59.1683L244.411 59.1368L248.457 52.4326Z" fill="#B1BEE3"/>
<path d="M253.374 59.1682L253.29 91.5961L244.326 91.5751L244.41 59.1367L253.374 59.1682Z" fill="url(#paint2_linear_206_109)"/>
<path d="M233.219 52.3904L248.455 52.4324V52.1172C248.455 50.8772 247.457 49.8684 246.217 49.8684L235.467 49.8369C234.228 49.8369 233.219 50.8352 233.219 52.0751V52.3904Z" fill="url(#paint3_linear_206_109)"/>
<path d="M228.701 68.8989L244.379 68.941L244.368 74.7519L228.68 74.7099L228.701 68.8989Z" fill="url(#paint4_linear_206_109)"/>
<path d="M253.342 68.9619L253.332 74.7729L244.368 74.7519L244.379 68.9409L253.342 68.9619Z" fill="url(#paint5_linear_206_109)"/>
<path d="M224.383 54.8696H215.346V76.4112H224.383V54.8696Z" fill="url(#paint6_linear_206_109)"/>
<path d="M222.66 45.8853H219.917C216.376 45.8853 213.518 48.754 213.518 52.2847V56.8662H218.982C220.232 56.8662 221.241 57.875 221.241 59.1254C221.241 60.3759 220.232 61.3846 218.982 61.3846H213.518V67.8996H218.982C220.232 67.8996 221.241 68.9084 221.241 70.1589C221.241 71.4093 220.232 72.4181 218.982 72.4181H213.518V84.9753H229.07V52.2847C229.059 48.754 226.19 45.8853 222.66 45.8853Z" fill="url(#paint7_linear_206_109)"/>
<path d="M197.068 59.7562C197.068 59.7562 180.99 53.4934 184.5 48.7752C188.02 44.0466 197.719 58.3271 197.719 58.3271L197.068 59.7562Z" fill="#3BC49A"/>
<path d="M198.506 58.6845C198.506 58.6845 199.337 41.4408 193.599 42.7333C187.841 44.0257 196.941 58.695 196.941 58.695L198.506 58.6845Z" fill="#3BC49A"/>
<path d="M198.161 59.9033C198.161 59.9033 191.005 36.712 184.354 41.0098C178.322 44.9188 196.617 60.3656 196.617 60.3656L198.161 59.9033Z" fill="#44D0A7"/>
<path d="M219.976 91.0388C219.587 90.9967 219.188 90.8286 218.82 90.5134L216.34 88.4012L216.33 88.3907L211.076 83.9038L210.109 83.0737L203.111 77.1051L201.755 75.9492L197.216 72.0822C196.764 71.6934 196.344 71.2626 195.965 70.8107C195.65 70.4324 195.356 70.0331 195.104 69.6128C193.801 67.5217 193.286 65.0208 193.832 62.5829C194.294 60.5339 195.366 58.9051 196.785 57.7912C196.932 57.6757 197.09 57.5601 197.247 57.455C199.349 56.0364 202.091 55.6476 204.739 56.5303C205.402 56.7509 206.021 57.0557 206.599 57.4235C208.218 58.4427 209.489 59.9769 210.267 61.7528L210.918 63.1924L211.601 64.7056L215.016 72.2293L215.636 73.5954L219.661 82.4537L220.029 83.2733L222.183 88.0229C222.96 89.6937 221.489 91.2279 219.976 91.0388Z" fill="url(#paint8_linear_206_109)"/>
<path opacity="0.1" d="M216.34 88.3908L197.215 72.0823C194.462 69.7285 193.033 66.0822 193.821 62.583C194.283 60.5339 195.355 58.9052 196.774 57.7913C196.921 57.6757 197.078 57.5602 197.236 57.4551C197.499 67.0279 209.909 81.5185 216.34 88.3908Z" fill="black"/>
<path opacity="0.1" d="M206.597 57.4237L200.839 61.112L204.737 56.541C205.399 56.7617 206.019 57.0559 206.597 57.4237Z" fill="black"/>
<path opacity="0.1" d="M201.376 65.6509L195.964 70.8208C195.649 70.4426 195.355 70.0432 195.103 69.6229L201.376 65.6509Z" fill="black"/>
<path opacity="0.1" d="M211.611 64.7161L206.399 67.9315L210.918 63.1924L211.611 64.7161Z" fill="black"/>
<path opacity="0.1" d="M207.325 72.8179L203.111 77.1052L201.756 75.9598L207.325 72.8179Z" fill="black"/>
<path opacity="0.1" d="M215.645 73.6163L212.062 75.2766L215.025 72.2397L215.645 73.6163Z" fill="black"/>
<path opacity="0.1" d="M214.427 80.2891L211.075 83.9038L210.108 83.0842L214.427 80.2891Z" fill="black"/>
<path opacity="0.1" d="M220.051 83.2837L217.718 84.5657L219.683 82.4746L220.051 83.2837Z" fill="black"/>
<path d="M192.655 70.2118C192.655 70.2118 181.096 65.7038 183.618 62.3203C186.15 58.9156 193.117 69.1925 193.117 69.1925L192.655 70.2118Z" fill="#3BC49A"/>
<path d="M193.695 69.4345C193.695 69.4345 194.294 57.0455 190.175 57.9702C186.035 58.8949 192.582 69.445 192.582 69.445L193.695 69.4345Z" fill="#3BC49A"/>
<path d="M193.443 70.3171C193.443 70.3171 188.294 53.6408 183.524 56.7407C179.184 59.5463 192.34 70.6533 192.34 70.6533L193.443 70.3171Z" fill="#44D0A7"/>
<path d="M209.123 92.6887C208.839 92.6572 208.555 92.5311 208.293 92.3104L206.506 90.7867C206.506 90.7867 206.506 90.7867 206.496 90.7867L202.713 87.5608L202.019 86.9618L196.986 82.6745L196.019 81.8444L192.762 79.0598C192.436 78.776 192.131 78.4713 191.858 78.1455C191.627 77.8723 191.417 77.5886 191.238 77.2839C190.303 75.7812 189.924 73.9844 190.324 72.2295C190.65 70.7584 191.427 69.592 192.446 68.7829C192.551 68.6988 192.667 68.6147 192.783 68.5412C194.296 67.5219 196.271 67.2382 198.163 67.8792C198.636 68.0368 199.087 68.2575 199.497 68.5202C200.664 69.2557 201.567 70.3591 202.135 71.6305L202.608 72.6708L203.102 73.7637L205.56 79.1753L206.012 80.1631L208.902 86.531L209.165 87.1194L210.709 90.5346C211.266 91.722 210.216 92.8253 209.123 92.6887Z" fill="url(#paint9_linear_206_109)"/>
<path opacity="0.1" d="M206.505 90.7871L192.761 79.0601C190.775 77.3683 189.755 74.7413 190.323 72.2298C190.649 70.7587 191.426 69.5923 192.446 68.7832C192.551 68.6991 192.666 68.6151 192.782 68.5415C192.971 75.4348 201.892 85.8483 206.505 90.7871Z" fill="black"/>
<path opacity="0.1" d="M199.506 68.5306L195.366 71.1787L198.161 67.8896C198.645 68.0473 199.086 68.2679 199.506 68.5306Z" fill="black"/>
<path opacity="0.1" d="M195.746 74.4468L191.858 78.1561C191.627 77.8829 191.417 77.5992 191.238 77.2945L195.746 74.4468Z" fill="black"/>
<path opacity="0.1" d="M203.099 73.7635L199.358 76.0858L202.605 72.6812L203.099 73.7635Z" fill="black"/>
<path opacity="0.1" d="M200.032 79.5957L196.995 82.6746L196.028 81.8549L200.032 79.5957Z" fill="black"/>
<path opacity="0.1" d="M206.01 80.1633L203.436 81.3612L205.558 79.186L206.01 80.1633Z" fill="black"/>
<path opacity="0.1" d="M205.127 84.9653L202.721 87.5608L202.027 86.9724L205.127 84.9653Z" fill="black"/>
<path opacity="0.1" d="M209.173 87.1192L207.492 88.0334L208.9 86.5308L209.173 87.1192Z" fill="black"/>
<path d="M254.697 74.6778V140.248H187.865V74.6252L188.864 77.2522L191.596 73.8896L194.223 77.3573L197.06 73.8896L197.48 74.4256L198.373 75.5709L199.687 77.2522L202.419 73.8896L205.151 77.1471L207.778 73.8896L210.615 77.3573L213.242 73.8896L215.869 77.2522L218.601 73.8896L221.228 77.1471L223.855 73.8896L226.587 77.1471L229.32 73.8896L232.052 77.1471L234.679 73.8896L237.306 77.1471L240.143 73.8896L242.875 77.1471L245.607 73.8896L248.234 77.2522L250.966 73.8896L253.593 76.937L254.697 74.6778Z" fill="url(#paint10_linear_206_109)"/>
<path d="M198.373 75.5709V140.248H187.865V74.6252L188.864 77.2522L191.596 73.8896L194.223 77.3573L197.06 73.8896L197.48 74.4256L198.373 75.5709Z" fill="#EECA9D"/>
<path d="M207.777 73.8896V140.248H197.479V74.4256L199.686 77.2522L202.418 73.8896L205.15 77.1471L207.777 73.8896Z" fill="url(#paint11_linear_206_109)"/>
<path d="M207.778 140.248H187.865V140.206L197.533 127.218L207.778 140.248Z" fill="#E1AF72"/>
<path d="M241.772 135.677C244.761 135.677 247.184 132.407 247.184 128.374C247.184 124.341 244.761 121.071 241.772 121.071C238.783 121.071 236.36 124.341 236.36 128.374C236.36 132.407 238.783 135.677 241.772 135.677Z" fill="url(#paint12_linear_206_109)"/>
<path d="M252.648 135.73C255.637 135.73 258.06 132.46 258.06 128.427C258.06 124.393 255.637 121.124 252.648 121.124C249.659 121.124 247.236 124.393 247.236 128.427C247.236 132.46 249.659 135.73 252.648 135.73Z" fill="url(#paint13_linear_206_109)"/>
<path d="M230.317 135.677C233.306 135.677 235.729 132.407 235.729 128.374C235.729 124.341 233.306 121.071 230.317 121.071C227.328 121.071 224.905 124.341 224.905 128.374C224.905 132.407 227.328 135.677 230.317 135.677Z" fill="url(#paint14_linear_206_109)"/>
<path d="M222.434 135.677C225.423 135.677 227.846 132.407 227.846 128.374C227.846 124.341 225.423 121.071 222.434 121.071C219.445 121.071 217.022 124.341 217.022 128.374C217.022 132.407 219.445 135.677 222.434 135.677Z" fill="url(#paint15_linear_206_109)"/>
<path d="M245.553 135.677C248.542 135.677 250.965 132.407 250.965 128.374C250.965 124.341 248.542 121.071 245.553 121.071C242.564 121.071 240.142 124.341 240.142 128.374C240.142 132.407 242.564 135.677 245.553 135.677Z" fill="url(#paint16_linear_206_109)"/>
<path d="M233.996 135.677C236.984 135.677 239.407 132.407 239.407 128.374C239.407 124.341 236.984 121.071 233.996 121.071C231.007 121.071 228.584 124.341 228.584 128.374C228.584 132.407 231.007 135.677 233.996 135.677Z" fill="url(#paint17_linear_206_109)"/>
<path d="M260.789 131.842V133.313L255.535 140.248H251.331L250.911 138.987H249.23L248.284 140.248H240.823L239.772 138.882H236.62L235.674 140.248H230.105L229.054 138.882H225.797L224.746 140.248H221.488L216.76 134.574V131.842H260.789Z" fill="#B68649"/>
<path d="M260.789 131.842V133.313L255.535 140.248H251.332L250.912 138.987H249.23L248.285 140.248H245.416L249.472 131.842H260.789Z" fill="url(#paint18_linear_206_109)"/>
<path d="M262.104 130.003H215.133V132.525H262.104V130.003Z" fill="url(#paint19_linear_206_109)"/>
<path d="M262.104 130.003H248.023V132.525H262.104V130.003Z" fill="#B68649"/>
<path d="M124.619 54.8696H133.656V76.4112H124.619V54.8696Z" fill="url(#paint20_linear_206_109)"/>
<path d="M126.342 45.8853H129.085C132.626 45.8853 135.484 48.754 135.484 52.2847V56.8662H130.02C128.77 56.8662 127.761 57.875 127.761 59.1254C127.761 60.3759 128.77 61.3846 130.02 61.3846H135.484V67.8996H130.02C128.77 67.8996 127.761 68.9084 127.761 70.1589C127.761 71.4093 128.77 72.4181 130.02 72.4181H135.484V84.9753H119.932V52.2847C119.943 48.754 122.812 45.8853 126.342 45.8853Z" fill="url(#paint21_linear_206_109)"/>
<path d="M151.934 59.7562C151.934 59.7562 168.012 53.4934 164.502 48.7752C160.982 44.0466 151.283 58.3271 151.283 58.3271L151.934 59.7562Z" fill="#3BC49A"/>
<path d="M150.496 58.6845C150.496 58.6845 149.665 41.4408 155.403 42.7333C161.161 44.0257 152.061 58.695 152.061 58.695L150.496 58.6845Z" fill="#3BC49A"/>
<path d="M150.841 59.9033C150.841 59.9033 157.997 36.712 164.648 41.0098C170.68 44.9188 152.385 60.3656 152.385 60.3656L150.841 59.9033Z" fill="#44D0A7"/>
<path d="M129.026 91.0388C129.415 90.9967 129.814 90.8286 130.182 90.5134L132.662 88.4012L132.672 88.3907L137.926 83.9038L138.893 83.0737L145.891 77.1051L147.247 75.9492L151.786 72.0822C152.238 71.6934 152.658 71.2626 153.037 70.8107C153.352 70.4324 153.646 70.0331 153.898 69.6128C155.201 67.5217 155.716 65.0208 155.17 62.5829C154.707 60.5339 153.636 58.9051 152.217 57.7912C152.07 57.6757 151.912 57.5601 151.755 57.455C149.653 56.0364 146.91 55.6476 144.262 56.5303C143.6 56.7509 142.98 57.0557 142.403 57.4235C140.784 58.4427 139.513 59.9769 138.735 61.7528L138.084 63.1924L137.401 64.7056L133.986 72.2293L133.366 73.5954L129.341 82.4537L128.973 83.2733L126.819 88.0229C126.041 89.6937 127.513 91.2279 129.026 91.0388Z" fill="url(#paint22_linear_206_109)"/>
<path opacity="0.1" d="M132.662 88.3908L151.787 72.0823C154.54 69.7285 155.969 66.0822 155.181 62.583C154.719 60.5339 153.647 58.9052 152.228 57.7913C152.081 57.6757 151.924 57.5602 151.766 57.4551C151.503 67.0279 139.093 81.5185 132.662 88.3908Z" fill="black"/>
<path opacity="0.1" d="M142.405 57.4237L148.163 61.112L144.265 56.541C143.603 56.7617 142.983 57.0559 142.405 57.4237Z" fill="black"/>
<path opacity="0.1" d="M147.626 65.6509L153.038 70.8208C153.353 70.4426 153.647 70.0432 153.899 69.6229L147.626 65.6509Z" fill="black"/>
<path opacity="0.1" d="M137.391 64.7161L142.603 67.9315L138.084 63.1924L137.391 64.7161Z" fill="black"/>
<path opacity="0.1" d="M141.677 72.8179L145.891 77.1052L147.246 75.9598L141.677 72.8179Z" fill="black"/>
<path opacity="0.1" d="M133.357 73.6163L136.94 75.2766L133.977 72.2397L133.357 73.6163Z" fill="black"/>
<path opacity="0.1" d="M134.575 80.2891L137.927 83.9038L138.894 83.0842L134.575 80.2891Z" fill="black"/>
<path opacity="0.1" d="M128.951 83.2837L131.284 84.5657L129.319 82.4746L128.951 83.2837Z" fill="black"/>
<path d="M156.347 70.2118C156.347 70.2118 167.906 65.7038 165.384 62.3203C162.852 58.9156 155.885 69.1925 155.885 69.1925L156.347 70.2118Z" fill="#3BC49A"/>
<path d="M155.307 69.4345C155.307 69.4345 154.708 57.0455 158.827 57.9702C162.967 58.8949 156.42 69.445 156.42 69.445L155.307 69.4345Z" fill="#3BC49A"/>
<path d="M155.559 70.3171C155.559 70.3171 160.708 53.6408 165.478 56.7407C169.818 59.5463 156.662 70.6533 156.662 70.6533L155.559 70.3171Z" fill="#44D0A7"/>
<path d="M139.879 92.6887C140.163 92.6572 140.447 92.5311 140.709 92.3104L142.496 90.7867C142.496 90.7867 142.496 90.7867 142.506 90.7867L146.289 87.5608L146.983 86.9618L152.016 82.6745L152.983 81.8444L156.24 79.0598C156.566 78.776 156.871 78.4713 157.144 78.1455C157.375 77.8723 157.585 77.5886 157.764 77.2839C158.699 75.7812 159.078 73.9844 158.678 72.2295C158.352 70.7584 157.575 69.592 156.556 68.7829C156.45 68.6988 156.335 68.6147 156.219 68.5412C154.706 67.5219 152.731 67.2382 150.839 67.8792C150.366 68.0368 149.914 68.2575 149.505 68.5202C148.338 69.2557 147.435 70.3591 146.867 71.6305L146.394 72.6708L145.9 73.7637L143.442 79.1753L142.99 80.1631L140.1 86.531L139.837 87.1194L138.293 90.5346C137.736 91.722 138.786 92.8253 139.879 92.6887Z" fill="url(#paint23_linear_206_109)"/>
<path opacity="0.1" d="M142.497 90.7871L156.241 79.0601C158.227 77.3683 159.246 74.7413 158.679 72.2298C158.353 70.7587 157.576 69.5923 156.556 68.7832C156.451 68.6991 156.336 68.6151 156.22 68.5415C156.031 75.4348 147.11 85.8483 142.497 90.7871Z" fill="black"/>
<path opacity="0.1" d="M149.496 68.5306L153.636 71.1787L150.841 67.8896C150.357 68.0473 149.916 68.2679 149.496 68.5306Z" fill="black"/>
<path opacity="0.1" d="M153.256 74.4468L157.144 78.1561C157.375 77.8829 157.585 77.5992 157.764 77.2945L153.256 74.4468Z" fill="black"/>
<path opacity="0.1" d="M145.903 73.7635L149.644 76.0858L146.397 72.6812L145.903 73.7635Z" fill="black"/>
<path opacity="0.1" d="M148.97 79.5957L152.007 82.6746L152.974 81.8549L148.97 79.5957Z" fill="black"/>
<path opacity="0.1" d="M142.992 80.1633L145.566 81.3612L143.444 79.186L142.992 80.1633Z" fill="black"/>
<path opacity="0.1" d="M143.875 84.9653L146.281 87.5608L146.975 86.9724L143.875 84.9653Z" fill="black"/>
<path opacity="0.1" d="M139.828 87.1192L141.51 88.0334L140.102 86.5308L139.828 87.1192Z" fill="black"/>
<path d="M94.3054 74.6778V140.248H161.137V74.6252L160.138 77.2522L157.406 73.8896L154.779 77.3573L151.942 73.8896L151.522 74.4256L150.629 75.5709L149.315 77.2522L146.583 73.8896L143.851 77.1471L141.224 73.8896L138.387 77.3573L135.76 73.8896L133.133 77.2522L130.401 73.8896L127.774 77.1471L125.147 73.8896L122.415 77.1471L119.682 73.8896L116.95 77.1471L114.323 73.8896L111.696 77.1471L108.859 73.8896L106.127 77.1471L103.395 73.8896L100.768 77.2522L98.0358 73.8896L95.4088 76.937L94.3054 74.6778Z" fill="url(#paint24_linear_206_109)"/>
<path d="M150.629 75.5709V140.248H161.137V74.6252L160.138 77.2522L157.406 73.8896L154.779 77.3573L151.942 73.8896L151.522 74.4256L150.629 75.5709Z" fill="#EECA9D"/>
<path d="M141.225 73.8896V140.248H151.522V74.4256L149.316 77.2522L146.584 73.8896L143.852 77.1471L141.225 73.8896Z" fill="url(#paint25_linear_206_109)"/>
<path d="M141.224 140.248H161.137V140.206L151.469 127.218L141.224 140.248Z" fill="#E1AF72"/>
<defs>
<linearGradient id="paint0_linear_206_109" x1="229.202" y1="74.9543" x2="247.257" y2="75.5561" gradientUnits="userSpaceOnUse">
<stop stop-color="#F3F7FF"/>
<stop offset="1" stop-color="#BCCBF9"/>
</linearGradient>
<linearGradient id="paint1_linear_206_109" x1="232.04" y1="55.7652" x2="251.778" y2="55.7633" gradientUnits="userSpaceOnUse">
<stop stop-color="#91A1D2"/>
<stop offset="0.666667" stop-color="#DEE6FF"/>
</linearGradient>
<linearGradient id="paint2_linear_206_109" x1="244.324" y1="75.3672" x2="253.371" y2="75.3672" gradientUnits="userSpaceOnUse">
<stop stop-color="#B0BFE9"/>
<stop offset="1" stop-color="#EEF2FF"/>
</linearGradient>
<linearGradient id="paint3_linear_206_109" x1="233.225" y1="51.1087" x2="248.463" y2="51.1489" gradientUnits="userSpaceOnUse">
<stop stop-color="#B8CAFF"/>
<stop offset="1" stop-color="#9BB1F4"/>
</linearGradient>
<linearGradient id="paint4_linear_206_109" x1="228.681" y1="71.8271" x2="244.383" y2="71.8256" gradientUnits="userSpaceOnUse">
<stop stop-color="#90A5E2"/>
<stop offset="1" stop-color="#C2CBE4"/>
<stop offset="1" stop-color="#C6D1F2"/>
<stop offset="1" stop-color="#F5F8FF"/>
</linearGradient>
<linearGradient id="paint5_linear_206_109" x1="244.368" y1="71.8596" x2="253.346" y2="71.8587" gradientUnits="userSpaceOnUse">
<stop stop-color="#8AA5F6"/>
<stop offset="1" stop-color="#DADBDE"/>
</linearGradient>
<linearGradient id="paint6_linear_206_109" x1="221.92" y1="65.6404" x2="213.724" y2="65.6404" gradientUnits="userSpaceOnUse">
<stop stop-color="#C48F40"/>
<stop offset="1" stop-color="#DADBDE"/>
</linearGradient>
<linearGradient id="paint7_linear_206_109" x1="231.745" y1="89.4105" x2="215.036" y2="55.0457" gradientUnits="userSpaceOnUse">
<stop stop-color="#F7CF95"/>
<stop offset="1" stop-color="#D3A35B"/>
</linearGradient>
<linearGradient id="paint8_linear_206_109" x1="190.842" y1="64.1125" x2="220.299" y2="77.3783" gradientUnits="userSpaceOnUse">
<stop stop-color="#FF7A00"/>
<stop offset="1" stop-color="#FFC28A"/>
</linearGradient>
<linearGradient id="paint9_linear_206_109" x1="188.184" y1="73.3347" x2="209.357" y2="82.87" gradientUnits="userSpaceOnUse">
<stop stop-color="#FF6B00"/>
<stop offset="1" stop-color="#FF9F47"/>
</linearGradient>
<linearGradient id="paint10_linear_206_109" x1="187.865" y1="107.069" x2="254.697" y2="107.069" gradientUnits="userSpaceOnUse">
<stop stop-color="#D08E3E"/>
<stop offset="1" stop-color="#FFEBD3"/>
</linearGradient>
<linearGradient id="paint11_linear_206_109" x1="202.841" y1="131.36" x2="202.263" y2="65.2699" gradientUnits="userSpaceOnUse">
<stop stop-color="#D5A161"/>
</linearGradient>
<linearGradient id="paint12_linear_206_109" x1="236.36" y1="128.374" x2="247.184" y2="128.374" gradientUnits="userSpaceOnUse">
<stop stop-color="#EEC38B"/>
<stop offset="1" stop-color="#FFE9CE"/>
</linearGradient>
<linearGradient id="paint13_linear_206_109" x1="247.236" y1="128.427" x2="258.06" y2="128.427" gradientUnits="userSpaceOnUse">
<stop stop-color="#E7B473"/>
<stop offset="1" stop-color="#FFE5C2"/>
</linearGradient>
<linearGradient id="paint14_linear_206_109" x1="224.905" y1="128.374" x2="235.729" y2="128.374" gradientUnits="userSpaceOnUse">
<stop stop-color="#EEC38B"/>
<stop offset="1" stop-color="#FFE9CE"/>
</linearGradient>
<linearGradient id="paint15_linear_206_109" x1="217.022" y1="128.374" x2="227.846" y2="128.374" gradientUnits="userSpaceOnUse">
<stop stop-color="white"/>
<stop offset="1" stop-color="#DADBDE"/>
</linearGradient>
<linearGradient id="paint16_linear_206_109" x1="240.142" y1="128.374" x2="250.965" y2="128.374" gradientUnits="userSpaceOnUse">
<stop stop-color="white"/>
<stop offset="1" stop-color="#DADBDE"/>
</linearGradient>
<linearGradient id="paint17_linear_206_109" x1="228.584" y1="128.374" x2="239.407" y2="128.374" gradientUnits="userSpaceOnUse">
<stop stop-color="white"/>
<stop offset="1" stop-color="#DADBDE"/>
</linearGradient>
<linearGradient id="paint18_linear_206_109" x1="245.414" y1="136.045" x2="260.789" y2="136.045" gradientUnits="userSpaceOnUse">
<stop stop-color="#B68649"/>
<stop offset="1" stop-color="#E9B879"/>
</linearGradient>
<linearGradient id="paint19_linear_206_109" x1="214.341" y1="131.34" x2="248.072" y2="131.234" gradientUnits="userSpaceOnUse">
<stop stop-color="#B68649"/>
<stop offset="1" stop-color="#E9B777"/>
</linearGradient>
<linearGradient id="paint20_linear_206_109" x1="127.082" y1="65.6404" x2="135.278" y2="65.6404" gradientUnits="userSpaceOnUse">
<stop stop-color="#C48F40"/>
<stop offset="1" stop-color="#DADBDE"/>
</linearGradient>
<linearGradient id="paint21_linear_206_109" x1="117.256" y1="89.4105" x2="133.966" y2="55.0457" gradientUnits="userSpaceOnUse">
<stop stop-color="#F7CF95"/>
<stop offset="1" stop-color="#D3A35B"/>
</linearGradient>
<linearGradient id="paint22_linear_206_109" x1="158.16" y1="64.1125" x2="128.702" y2="77.3783" gradientUnits="userSpaceOnUse">
<stop stop-color="#FF7A00"/>
<stop offset="1" stop-color="#FFC28A"/>
</linearGradient>
<linearGradient id="paint23_linear_206_109" x1="160.818" y1="73.3347" x2="139.645" y2="82.87" gradientUnits="userSpaceOnUse">
<stop stop-color="#FF6B00"/>
<stop offset="1" stop-color="#FF9F47"/>
</linearGradient>
<linearGradient id="paint24_linear_206_109" x1="161.137" y1="107.069" x2="94.3054" y2="107.069" gradientUnits="userSpaceOnUse">
<stop stop-color="#D08E3E"/>
<stop offset="1" stop-color="#FFEBD3"/>
</linearGradient>
<linearGradient id="paint25_linear_206_109" x1="146.161" y1="131.36" x2="146.739" y2="65.2699" gradientUnits="userSpaceOnUse">
<stop stop-color="#D5A161"/>
</linearGradient>
</defs>
</svg>
