<svg width="1041" height="710" viewBox="0 0 1041 710" fill="none" xmlns="http://www.w3.org/2000/svg">
<path d="M1026.49 560.285L1038.49 539.5L977 504L965 524.785L1026.49 560.285Z" fill="#22DA4A"/>
<path d="M1010 0.00835145L1010 33.8L1040.99 34C1041.36 13.605 1029.6 -0.39155 1010 0.00835145Z" fill="#FFE500"/>
<path d="M253 225C253 217.82 247.404 212 240.5 212C233.596 212 228 217.82 228 225C228 232.18 233.596 238 240.5 238C247.404 238 253 232.18 253 225Z" fill="#F10E0E"/>
<path d="M-5.96046e-06 700.326L9.19238 709.519L61.5183 657.193L52.3259 648L-5.96046e-06 700.326Z" fill="#AA0BF0"/>
</svg>
