<svg width="709" height="309" viewBox="0 0 709 309" fill="none" xmlns="http://www.w3.org/2000/svg">
<path d="M129.698 153.7C129.698 159.79 123.698 168.94 113.928 167.47C104.158 166 92.3281 158.58 93.7781 141.24C94.1981 136.18 99.9781 104.54 100.908 97.5401C102.358 86.7301 129.478 77.6701 128.288 105.4C128.288 106.24 128.218 107.06 128.188 107.88C127.988 113.8 127.978 119.23 128.088 124.15C128.438 138.73 129.698 148.82 129.698 153.7Z" fill="#FEBD9D"/>
<path d="M128.088 124.15C119.628 124.09 113.088 118.31 113.998 108.72L128.188 107.88C127.988 113.8 127.978 119.28 128.088 124.15Z" fill="#F4A789"/>
<path d="M182.098 235.84L186.938 307.55H141.208L149.498 227L138.498 197.62L118.878 159.89C120.263 155.5 121.355 151.024 122.148 146.49V146.49L130.878 130.92C132.306 130.257 133.768 129.669 135.258 129.16L135.448 129.1H135.628C140.938 127.3 149.998 125.1 159.148 126.75C166.798 128.14 173.148 131.08 178.258 139.15C183.988 148.22 188.118 163.77 190.678 190.88C193.378 219.01 186.268 231.51 182.098 235.84Z" fill="#C3DCF8"/>
<path d="M178.288 139.06C170.798 142.33 164.078 148.74 160.728 160.58C159.003 166.716 156.626 172.65 153.638 178.28C149.85 185.628 144.718 192.202 138.508 197.66L118.888 159.93C120.272 155.54 121.365 151.064 122.158 146.53C122.518 145.74 128.278 133.1 129.678 130.6C132.278 129.98 134.238 129.49 135.268 129.21L135.458 129.15H135.638C140.948 127.35 150.008 125.15 159.158 126.8C166.828 128.05 173.188 130.99 178.288 139.06Z" fill="#D0E5F7"/>
<path d="M163.308 307.55H88.5884V281.48H161.728L163.308 307.55Z" fill="#683F1D"/>
<path d="M157.308 281.48H91.6683C91.6683 281.48 78.9483 218.58 81.2883 175.04C81.9483 162.64 83.8283 151.81 87.5783 144.45C88.6281 142.299 90.0081 140.325 91.6683 138.6C93.2483 138.32 94.9883 138 96.8383 137.6C99.8383 140.99 105.678 145.71 113.928 150.5C113.928 150.5 116.868 158.82 118.928 159.85C120.988 160.88 122.198 146.45 122.198 146.45C122.558 145.66 128.318 133.02 129.718 130.52C132.488 129.86 134.538 129.35 135.498 129.07H135.678C135.678 129.07 136.678 132.5 138.308 137.52C140.908 145.52 145.078 157.57 149.308 166.19C151.157 170.063 152.607 174.114 153.638 178.28C156.638 190.03 156.918 204.19 154.118 222.67C153.918 224 153.748 225.35 153.608 226.67C151.018 251.34 157.308 281.48 157.308 281.48Z" fill="white"/>
<path d="M153.639 178.28C149.85 185.628 144.718 192.202 138.509 197.66C125.849 208.36 110.759 209.76 98.8786 194.01C95.8786 190.01 93.0086 186.49 90.1786 183.4C87.4706 180.366 84.4953 177.581 81.2886 175.08C81.9486 162.68 83.8286 151.85 87.5786 144.49C88.6283 142.339 90.0084 140.365 91.6686 138.64C93.2486 138.36 94.9886 138.04 96.8386 137.64C99.8386 141.03 105.679 145.75 113.929 150.54C113.929 150.54 116.869 158.86 118.929 159.89C120.313 155.5 121.405 151.024 122.199 146.49V146.49C122.559 145.7 128.319 133.06 129.719 130.56C132.489 129.9 134.539 129.39 135.499 129.11H135.679C135.679 129.11 136.679 132.54 138.309 137.56C140.909 145.56 145.079 157.61 149.309 166.23C151.154 170.091 152.605 174.128 153.639 178.28V178.28Z" fill="#F9F9F9"/>
<path d="M144.229 154.36C145.829 158.52 147.539 162.61 149.229 166.13C151.108 170.019 152.586 174.091 153.639 178.28C155.579 186.301 156.38 194.556 156.019 202.8" stroke="#83ADDF" stroke-width="0.75" stroke-linecap="round" stroke-linejoin="round"/>
<path d="M101.519 307.55H52.1986C52.0386 289.66 51.7086 275.95 50.7186 264.22C49.753 250.705 47.0852 237.367 42.7786 224.52C35.3386 202.19 35.8786 182.33 40.2986 167.93C42.8286 159.65 46.6486 153.18 50.9786 149.06C51.9603 148.171 53.0568 147.418 54.2386 146.82V146.82C65.4486 140.92 91.6486 138.6 91.6486 138.6C88.4086 145.37 88.7386 163.6 90.1586 183.36C91.7486 205.36 94.6786 229.36 95.4986 241.45C96.0886 250.21 97.4986 265.68 98.9686 281.45C99.8486 290.46 100.729 299.54 101.519 307.55Z" fill="#C3DCF8"/>
<path d="M90.1783 183.36C87.4703 180.326 84.495 177.541 81.2883 175.04C80.5883 174.5 79.8783 173.98 79.1683 173.51C68.8483 166.44 57.4283 164.81 40.2983 167.93C38.3683 168.27 36.3683 168.69 34.2983 169.16C41.2083 157.07 48.2183 148.16 54.2983 146.82C65.5083 140.92 91.7083 138.6 91.7083 138.6C88.4383 145.37 88.7583 163.59 90.1783 183.36Z" fill="#D0E5F7"/>
<path d="M113.928 150.54C103.718 147.68 95.6883 161.9 95.6883 161.9C91.6169 156.823 88.8344 150.836 87.5783 144.45C87.1705 142.691 87.0456 140.878 87.2083 139.08C87.8483 134.87 93.2083 131.58 94.7083 134.69C95.2833 135.764 95.9997 136.756 96.8382 137.64C99.8682 141.03 105.678 145.75 113.928 150.54Z" fill="#30EE95"/>
<path d="M138.288 137.46C138.118 143.69 137.558 150.69 137.558 150.69C130.028 144.82 125.848 144.69 122.158 146.49L128.288 130.28C130.618 126.13 137.848 125.77 138.228 130.69C138.358 132.41 138.358 134.87 138.288 137.46Z" fill="#30EE95"/>
<path d="M113.928 150.54C113.928 150.54 116.868 158.86 118.928 159.89C119.588 157.69 122.198 146.49 122.198 146.49" stroke="#DDDDDD" stroke-linecap="round" stroke-linejoin="round"/>
<path d="M118.888 159.89C118.888 159.89 127.118 179.64 130.888 192.77C134.658 205.9 137.248 218.35 136.418 235.21C135.588 252.07 133.788 267.42 134.208 269.21C134.628 271 140.288 275.76 131.998 281.47" stroke="#DDDDDD" stroke-linecap="round" stroke-linejoin="round"/>
<path d="M171.438 243.66C163.298 243.25 154.768 233.71 147.798 223.2C142.055 214.321 137.023 205.002 132.748 195.33L144.338 178.85C159.628 188.31 182.888 203.32 189.228 213.33C189.692 214.04 190.083 214.793 190.398 215.58C195.018 227.6 192.438 244.71 171.438 243.66Z" fill="#C3DCF8"/>
<path d="M171.438 243.66C163.298 243.25 154.768 233.71 147.798 223.2C154.288 221.75 162.878 225.45 164.588 231.29C167.688 241.88 192.268 236.87 189.228 213.29C189.691 214 190.083 214.753 190.398 215.54C195.018 227.6 192.438 244.71 171.438 243.66Z" fill="#A7CAF0"/>
<path d="M190.368 215.58C190.053 214.793 189.661 214.04 189.198 213.33C182.858 203.33 159.598 188.33 144.308 178.85L132.718 195.33C136.993 205.002 142.025 214.321 147.768 223.2C154.768 233.71 163.268 243.25 171.408 243.66" stroke="#83ADDF" stroke-width="0.75" stroke-linecap="round" stroke-linejoin="round"/>
<path d="M121.818 184.94L117.438 192.28L122.568 191.82C122.568 191.82 160.128 159.72 160.708 158.62C161.288 157.52 158.138 154.05 157.098 154.43C156.058 154.81 121.818 184.94 121.818 184.94Z" fill="#683F1D"/>
<path d="M121.818 184.94C122.538 180.75 122.458 179.3 123.108 178.42C123.758 177.54 130.428 172.54 132.038 171.98C133.648 171.42 137.758 173.43 137.758 173.43C137.758 173.43 140.898 173.83 142.828 174.15C144.758 174.47 144.618 179.04 145.878 179.82C147.138 180.6 148.708 180.18 149.678 182.2C150.648 184.22 148.948 185.58 149.678 186.87C150.408 188.16 152.248 188.96 151.678 191.22C151.108 193.48 149.988 193.47 150.308 194.76C150.628 196.05 151.918 199.59 147.648 200.96C143.378 202.33 140.258 203.32 137.908 202.41C135.558 201.5 132.768 199.91 132.368 198.41C132.368 198.41 127.368 197.67 125.268 193.64C125.268 193.64 119.878 192.03 123.818 189.3C123.818 189.3 121.888 187.36 123.098 185.75L121.818 184.94Z" fill="#FEBD9D"/>
<path d="M137.918 202.41C135.568 201.49 132.778 199.91 132.378 198.41C132.378 198.41 127.378 197.67 125.278 193.64C125.278 193.64 119.888 192.03 123.828 189.3C123.828 189.3 121.898 187.36 123.108 185.75L121.818 184.95C122.538 180.76 122.458 179.31 123.108 178.43" stroke="#934735" stroke-width="0.75" stroke-linecap="round" stroke-linejoin="round"/>
<path d="M123.108 185.74C128.488 180.84 138.108 173.74 141.608 173.96" stroke="#934735" stroke-width="0.75" stroke-linecap="round" stroke-linejoin="round"/>
<path d="M123.828 189.28C131.958 188.91 138.768 185.37 143.508 181.97" stroke="#934735" stroke-width="0.75" stroke-linecap="round" stroke-linejoin="round"/>
<path d="M125.278 193.63C128.998 195.18 142.968 191.19 146.418 187.81" stroke="#934735" stroke-width="0.75" stroke-linecap="round" stroke-linejoin="round"/>
<path d="M132.378 198.4C134.278 198.77 141.668 198.13 145.468 195.58" stroke="#934735" stroke-width="0.75" stroke-linecap="round" stroke-linejoin="round"/>
<path d="M79.168 173.51C78.9372 178.581 78.1491 183.611 76.818 188.51L75.868 192.12C75.718 192.71 75.558 193.31 75.388 193.93C74.9413 195.61 74.468 197.367 73.968 199.2L73.668 200.29C73.068 202.46 72.428 204.74 71.758 207.08C71.538 207.87 71.308 208.66 71.078 209.45C69.458 215.03 67.648 220.97 65.668 226.99C65.388 227.85 65.098 228.72 64.808 229.58C63.408 233.72 61.938 237.89 60.388 242C60.058 242.88 59.728 243.75 59.388 244.61L58.388 247.19C58.118 247.87 57.848 248.54 57.568 249.19C55.418 254.45 53.128 259.51 50.738 264.19L50.488 264.67C42.558 279.91 33.398 290.6 23.488 289.48C15.218 288.56 9.698 285.29 6.088 280.89C0.708001 274.28 -0.352 265.13 0.167999 257.53C0.333034 254.97 0.690713 252.426 1.238 249.92C3.088 241.55 18.478 196.92 34.378 169.17C41.288 157.08 48.298 148.17 54.378 146.83C68.558 143.66 79.888 153.28 79.168 173.51Z" fill="#C3DCF8"/>
<path d="M79.1683 173.51C68.8483 166.44 57.4283 164.81 40.2983 167.93C38.3683 168.27 36.3683 168.69 34.2983 169.16C41.2083 157.07 48.2183 148.16 54.2983 146.82C68.5583 143.66 79.8883 153.28 79.1683 173.51Z" fill="#D0E5F7"/>
<path d="M79.1683 173.51C78.9375 178.581 78.1494 183.611 76.8183 188.51C72.0283 206.83 62.8183 240.72 50.7183 264.17" stroke="#83ADDF" stroke-width="0.75" stroke-linecap="round" stroke-linejoin="round"/>
<path d="M50.4382 264.7C42.5082 279.94 33.3482 290.63 23.4382 289.51C15.1682 288.59 9.64819 285.32 6.03819 280.92C0.658193 274.31 -0.401805 265.16 0.118195 257.56C1.37657 257.799 2.58858 258.238 3.7082 258.86C8.9182 261.73 12.3382 268.13 16.3482 272.79C25.4382 283.28 36.8982 265.78 50.4382 264.7Z" fill="#A7CAF0"/>
<path d="M102.358 57.5001L88.998 72.0901C72.788 70.0001 68.188 59.0901 70.858 49.7701C70.958 49.4401 71.068 49.1001 71.198 48.7701C74.978 39.7101 93.678 34.3601 100.308 49.5501C101.382 52.0839 102.073 54.7632 102.358 57.5001V57.5001Z" fill="#7F542D"/>
<path d="M102.358 57.5001L88.998 72.0901C72.788 70.0001 68.188 59.0901 70.858 49.7701C70.958 49.4401 71.068 49.1001 71.198 48.7701C73.908 59.8201 81.198 64.3601 84.908 57.1401C88.248 50.6901 95.038 48.2201 100.308 49.5501C101.382 52.0839 102.073 54.7631 102.358 57.5001V57.5001Z" fill="#704725"/>
<path d="M126.438 60.0101C126.438 60.0101 108.278 96.2101 95.2679 91.0101C92.4027 89.8812 89.9333 87.9335 88.1679 85.4101C82.8579 77.8501 84.3479 66.1701 90.4279 60.6301C95.4846 56.0565 101.719 52.9877 108.428 51.7701C114.198 44.3601 125.948 41.9001 130.428 46.9001C130.528 47.0001 130.618 47.1101 130.708 47.2201C134.908 52.6001 130.888 57.3901 126.438 60.0101Z" fill="#7F542D"/>
<path d="M126.438 60.0101C126.438 60.0101 108.278 96.2101 95.268 91.0101C92.4027 89.8812 89.9333 87.9335 88.168 85.4101C94.168 85.7501 98.168 84.2901 98.888 79.4701C99.888 72.7501 101.358 58.6401 101.358 58.6401C101.358 58.6401 123.148 59.3201 130.358 46.9001C130.458 47.0001 130.548 47.1101 130.638 47.2201C134.908 52.6001 130.888 57.3901 126.438 60.0101Z" fill="#704725"/>
<path d="M130.438 113.45C120.848 115.89 109.618 109.79 102.388 103.12C98.3881 105.12 91.1981 100.74 91.7181 94.9001C92.2981 88.5601 97.0081 87.5001 100.348 89.7001C101.368 88.9733 102.235 88.0524 102.898 86.9901C104.174 84.8816 104.929 82.4989 105.098 80.0401C106.038 70.4801 101.378 58.6001 101.378 58.6001C105.049 61.051 109.309 62.4743 113.716 62.7223C118.123 62.9702 122.516 62.0337 126.438 60.0101C126.658 60.0101 133.438 70.8001 137.108 82.0101C137.528 83.3001 137.908 84.5901 138.228 85.8801C138.656 87.6107 138.99 89.3632 139.228 91.1301C140.778 101.69 138.658 111.35 130.438 113.45Z" fill="#FEBD9D"/>
<path d="M118.898 79.4301C118.898 79.709 118.981 79.9816 119.136 80.2134C119.291 80.4453 119.511 80.626 119.768 80.7328C120.026 80.8395 120.31 80.8674 120.583 80.813C120.857 80.7586 121.108 80.6243 121.305 80.4271C121.502 80.2299 121.636 79.9787 121.691 79.7052C121.745 79.4317 121.717 79.1481 121.611 78.8905C121.504 78.6329 121.323 78.4127 121.091 78.2577C120.859 78.1028 120.587 78.0201 120.308 78.0201C119.934 78.0201 119.575 78.1686 119.311 78.4331C119.047 78.6975 118.898 79.0561 118.898 79.4301V79.4301Z" fill="#683F1D"/>
<path d="M128.288 76.7901C128.288 77.069 128.371 77.3416 128.526 77.5735C128.681 77.8054 128.901 77.9861 129.158 78.0928C129.416 78.1995 129.7 78.2274 129.973 78.173C130.247 78.1186 130.498 77.9843 130.695 77.7871C130.892 77.5899 131.027 77.3387 131.081 77.0652C131.135 76.7917 131.107 76.5082 131.001 76.2505C130.894 75.9929 130.713 75.7727 130.481 75.6177C130.25 75.4628 129.977 75.3801 129.698 75.3801C129.324 75.3801 128.965 75.5287 128.701 75.7931C128.437 76.0575 128.288 76.4162 128.288 76.7901V76.7901Z" fill="#683F1D"/>
<path d="M103.718 105.41C105.69 105.41 107.288 103.812 107.288 101.84C107.288 99.8684 105.69 98.2701 103.718 98.2701C101.746 98.2701 100.148 99.8684 100.148 101.84C100.148 103.812 101.746 105.41 103.718 105.41Z" fill="#30EE95"/>
<path d="M108.848 73.6101C109.638 75.3301 118.108 71.7701 116.128 68.5001C114.518 65.8601 107.668 71.0901 108.848 73.6101Z" fill="#7F542D"/>
<path d="M122.898 67.0801C122.598 69.4601 129.328 69.0301 129.278 67.3201C129.228 65.6101 123.288 63.9601 122.898 67.0801Z" fill="#7F542D"/>
<path d="M102.868 95.3601C99.1881 92.2801 96.3381 93.9501 95.5181 96.5501" stroke="#934735" stroke-width="0.75" stroke-linecap="round" stroke-linejoin="round"/>
<path d="M100.438 99.2801C97.5979 98.0401 98.9079 93.8701 102.368 94.9301" stroke="#934735" stroke-width="0.75" stroke-linecap="round" stroke-linejoin="round"/>
<path d="M118.498 90.1901C119.663 91.2699 121.077 92.0456 122.614 92.4486C124.15 92.8515 125.763 92.8692 127.308 92.5001" stroke="#934735" stroke-width="0.75" stroke-linecap="round" stroke-linejoin="round"/>
<path d="M125.008 75.3801C125.008 79.9801 127.908 82.0401 130.418 82.5801C130.793 82.6855 131.14 82.8712 131.435 83.1244C131.731 83.3776 131.968 83.6921 132.13 84.0461C132.292 84.4002 132.374 84.7852 132.372 85.1745C132.37 85.5637 132.283 85.9478 132.118 86.3001" stroke="#934735" stroke-width="0.75" stroke-linecap="round" stroke-linejoin="round"/>
<path d="M115.838 88.2801C114.838 90.7701 110.788 91.4701 106.838 89.8401C105.304 89.2234 103.934 88.2579 102.838 87.0201C104.114 84.9116 104.868 82.5289 105.038 80.0701C106.926 79.7992 108.852 80.0624 110.598 80.8301C114.538 82.4301 116.868 85.7601 115.838 88.2801Z" fill="#FEBD9D"/>
<path d="M139.248 91.1201C137.198 91.4601 135.388 90.9701 134.478 89.6501C133.098 87.6501 134.268 84.3801 137.098 82.0001C137.518 83.2901 137.898 84.5801 138.218 85.8701C138.656 87.6001 139 89.3527 139.248 91.1201V91.1201Z" fill="#FEBD9D"/>
<path d="M124.178 272.75H60.8482L43.8682 181.98H107.208L124.178 272.75Z" fill="#F9F9F9" stroke="#DDDDDD" stroke-linecap="round" stroke-linejoin="round"/>
<path d="M87.2382 177.42H80.4382C80.4324 177.131 80.4023 176.844 80.3482 176.56C80.0108 174.96 79.1486 173.518 77.8986 172.464C76.6486 171.41 75.0823 170.803 73.4482 170.74C72.7218 170.714 71.9994 170.858 71.3377 171.158C70.6761 171.459 70.0931 171.909 69.6347 172.473C69.1763 173.037 68.855 173.7 68.696 174.409C68.5369 175.118 68.5445 175.854 68.7182 176.56C68.7783 176.852 68.8584 177.139 68.9582 177.42H62.1382L63.9882 187.32H89.0882L87.2382 177.42Z" fill="#DDDDDD"/>
<path d="M77.175 178.971C78.2796 177.758 77.9901 175.696 76.5284 174.364C75.0667 173.033 72.9864 172.936 71.8818 174.149C70.7773 175.362 71.0668 177.424 72.5284 178.755C73.9901 180.087 76.0705 180.183 77.175 178.971Z" fill="#F9F9F9" stroke="#DDDDDD" stroke-linecap="round" stroke-linejoin="round"/>
<path d="M77.3081 221.69C83.3081 218.64 86.9181 217.87 87.7881 216.56C88.6581 215.25 100.128 206.5 103.188 205.25C106.248 204 111.508 207.11 111.508 207.11C111.508 207.11 116.508 204.59 118.888 205.25C121.268 205.91 123.108 210.66 119.158 214.7C116.438 217.49 121.938 218.59 119.788 221.7C118.788 223.12 121.208 223.78 120.878 226.95C120.548 230.12 118.968 230.44 119.158 231.75C119.348 233.06 120.158 236.45 116.948 237.75C113.738 239.05 98.5981 242.01 96.1981 242.33C93.7981 242.65 81.9981 250.96 81.9981 250.96L77.3081 221.69Z" fill="#FEBD9D"/>
<path d="M111.509 207.11L102.749 211.28" stroke="#934735" stroke-width="0.75" stroke-linecap="round" stroke-linejoin="round"/>
<path d="M103.188 205.28C106.248 204.03 111.508 207.14 111.508 207.14C111.508 207.14 116.508 204.62 118.888 205.28C121.268 205.94 123.108 210.69 119.158 214.73C116.438 217.52 121.938 218.62 119.788 221.73C118.788 223.15 121.208 223.81 120.878 226.98C120.548 230.15 118.968 230.47 119.158 231.78C119.348 233.09 120.158 236.48 116.948 237.78" stroke="#934735" stroke-width="0.75" stroke-linecap="round" stroke-linejoin="round"/>
<path d="M90.9483 254.21C81.4383 261.55 72.9483 267.59 65.4383 272.48C28.8583 296.28 13.9883 293 6.02833 280.92C6.00493 280.893 5.98479 280.862 5.96832 280.83C0.528325 272.48 0.338324 265.24 3.69832 258.83C11.8783 243.26 41.1483 232.77 66.8183 223.62C71.7483 221.86 76.5383 220.15 81.0283 218.47L90.9483 254.21Z" fill="#C3DCF8"/>
<path d="M65.4383 272.48C28.8583 296.28 13.9883 293 6.02833 280.92C6.00493 280.893 5.98479 280.862 5.96832 280.83C0.528325 272.48 0.338324 265.24 3.69832 258.83C8.90832 261.7 12.3283 268.1 16.3383 272.76C25.4383 283.28 36.8983 265.78 50.4383 264.7C54.4383 264.37 58.6083 265.47 62.9483 269.13C64.0564 270.01 64.9148 271.165 65.4383 272.48V272.48Z" fill="#A7CAF0"/>
<path d="M40.8584 285.94C49.44 282.202 57.6667 277.697 65.4384 272.48C72.9784 267.59 81.4384 261.55 90.9484 254.21L80.9984 218.46" stroke="#83ADDF" stroke-width="0.75" stroke-linecap="round" stroke-linejoin="round"/>
<path d="M80.9982 218.46C58.8882 226.77 29.2982 235.63 13.1582 248.2" stroke="#83ADDF" stroke-width="0.75" stroke-linecap="round" stroke-linejoin="round"/>
<path d="M706.474 141.472C705.58 140.992 704.662 140.558 703.724 140.172C701.413 139.19 698.997 138.479 696.524 138.052C687.684 136.482 678.584 138.552 669.044 142.702C660.384 146.462 651.364 151.942 641.854 157.972C641.669 156.482 641.576 154.983 641.574 153.482C641.574 134.412 656.574 118.942 675.064 118.942C681.982 119.006 688.711 121.205 694.333 125.238C699.955 129.27 704.195 134.939 706.474 141.472Z" fill="#FFE05C"/>
<path d="M696.954 149.472C696.424 154.962 694.154 167.702 691.014 183.862C690.504 186.512 690.014 189.252 689.404 192.062C681.664 231.182 670.154 284.792 665.214 307.702H530.084L540.144 249.762C540.144 249.762 506.434 242.182 499.604 229.422C490.794 212.962 495.604 200.352 505.804 183.092C513.204 170.532 527.984 141.982 539.494 123.972C543.814 117.202 547.674 111.972 550.494 109.542C565.404 96.9917 580.794 101.882 594.924 105.542C594.924 105.542 594.924 108.542 595.084 113.412C595.174 117.362 595.304 122.552 595.484 128.412C595.794 138.722 596.264 151.132 596.934 162.572C597.054 164.572 597.174 166.572 597.304 168.572C598.304 183.042 599.584 194.912 601.364 197.252C601.814 197.842 602.494 197.682 603.364 196.902C605.894 194.582 610.024 186.842 614.624 176.952C616.014 173.952 617.434 170.822 618.874 167.562C626.694 149.802 634.874 128.952 638.644 119.302C639.834 116.242 640.574 114.302 640.704 113.952C640.702 113.932 640.702 113.912 640.704 113.892L643.444 114.262L649.344 115.072C654.474 115.772 661.494 116.752 669.344 117.902C671.344 118.192 673.214 118.532 675.074 118.972C683.924 121.032 691.484 124.972 695.024 133.212C695.695 134.778 696.201 136.41 696.534 138.082C697.243 141.836 697.384 145.675 696.954 149.472Z" fill="#FED81D"/>
<path d="M696.523 138.092C687.683 136.522 678.584 138.592 669.044 142.742C660.384 146.502 651.364 151.982 641.854 158.012L638.854 159.922C631.624 164.532 624.944 166.872 618.854 167.572C629.154 144.192 640.083 115.472 640.693 113.962C640.692 113.942 640.692 113.922 640.693 113.902L649.333 115.082C654.463 115.782 661.483 116.762 669.333 117.912C671.333 118.202 673.203 118.542 675.063 118.982C683.913 121.042 691.473 124.982 695.013 133.222C695.684 134.788 696.19 136.42 696.523 138.092V138.092Z" fill="#FFE05C"/>
<path d="M540.144 249.802C553.414 253.342 580.654 259.752 580.654 259.752" stroke="#886F20" stroke-width="0.75" stroke-linecap="round" stroke-linejoin="round"/>
<path d="M555.754 156.922L549.084 202.472C539.644 197.932 535.464 196.662 531.364 197.232C530.714 188.282 550.844 196.532 546.774 178.472C544.294 167.472 549.274 159.472 555.754 156.922Z" fill="#FCC71F"/>
<path d="M549.083 202.472L555.753 156.922L556.844 149.462" stroke="#886F20" stroke-width="0.75" stroke-linecap="round" stroke-linejoin="round"/>
<path d="M526.424 198.592C535.514 195.272 537.784 196.592 568.644 212.342" stroke="#886F20" stroke-width="0.75" stroke-linecap="round" stroke-linejoin="round"/>
<path d="M594.924 105.582C594.924 105.582 595.414 136.582 596.924 162.582C586.434 156.252 579.514 145.582 576.634 138.992C572.374 129.282 564.294 117.332 539.474 123.992C543.794 117.222 547.654 111.992 550.474 109.562C565.404 97.0317 580.794 101.922 594.924 105.582Z" fill="#FFE05C"/>
<path d="M648.713 143.872C647.893 145.012 630.163 155.582 630.493 157.052C630.823 158.522 633.743 164.532 633.743 165.672C633.743 166.392 622.843 179.962 614.023 189.032C608.933 194.292 604.533 198.032 603.353 196.912C600.643 194.332 624.683 132.222 632.423 112.472L640.713 113.902L649.353 115.082C648.613 129.342 649.433 142.872 648.713 143.872Z" fill="#FCC71F"/>
<path d="M640.714 113.902C640.712 113.922 640.712 113.942 640.714 113.962C640.204 115.962 627.604 165.032 614.044 189.032C609.804 196.552 605.473 201.612 601.383 202.032C583.973 203.682 594.943 105.622 594.943 105.622C601.403 107.072 621.103 110.542 632.443 112.512L640.714 113.902Z" fill="white"/>
<path d="M637.444 109.582C635.534 115.272 618.254 127.702 607.654 121.712C601.544 118.252 600.424 111.892 602.024 101.382C602.794 96.2317 604.234 90.0817 606.024 82.7917C606.934 79.1417 607.944 75.2117 609.024 70.9817C611.594 60.8017 617.584 54.4417 628.484 56.3317C639.384 58.2217 638.794 68.8517 638.484 80.3317C638.174 91.8117 639.354 103.902 637.444 109.582Z" fill="#FEBD9D"/>
<path d="M623.533 80.9717C622.713 91.6417 618.013 103.242 602.023 101.382C602.793 96.2317 604.233 90.0817 606.023 82.7917L623.533 80.9717Z" fill="#F4A789"/>
<path d="M603.354 119.572C603.804 129.972 603.914 133.222 604.924 133.772C605.934 134.322 610.513 135.562 611.743 134.772C612.973 133.982 620.003 122.392 620.003 122.392C620.003 122.392 611.634 116.662 603.354 119.572Z" fill="#683F1D"/>
<path d="M611.084 129.842C612.534 147.892 615.594 190.842 616.034 194.182C616.474 197.522 602.784 211.652 601.404 209.902C600.024 208.152 593.034 195.262 593.034 191.442C593.034 187.622 605.694 129.112 605.694 129.112L611.084 129.842Z" fill="#683F1D"/>
<path d="M610.834 117.522C618.494 116.732 636.084 105.762 638.374 104.282C640.664 102.802 643.714 112.942 643.454 114.942C643.194 116.942 620.894 131.702 620.894 131.702C620.894 131.702 615.354 120.492 610.444 120.362C605.534 120.232 598.184 131.702 598.184 131.702C588.864 123.312 595.064 108.872 601.444 106.552C601.444 106.552 607.734 117.842 610.834 117.522Z" fill="#FED81D"/>
<path d="M591.424 268.542L584.583 307.742" stroke="#886F20" stroke-width="0.75" stroke-linecap="round" stroke-linejoin="round"/>
<path d="M648.177 40.1303C646.935 41.9864 645.242 43.4974 643.257 44.5221C641.272 45.5468 639.06 46.052 636.827 45.9903C628.827 45.8603 621.147 39.5203 621.147 39.5203C621.147 39.5203 614.147 32.4203 614.907 26.1203C615.14 24.3133 616.035 22.6568 617.417 21.4703C623.417 16.0703 632.777 21.1003 636.227 26.8803C639.677 32.6603 640.717 32.6203 644.677 32.6703C648.117 32.7103 649.627 36.6303 648.177 40.1303Z" fill="#604730"/>
<path d="M636.827 45.9903C628.827 45.8603 621.147 39.5203 621.147 39.5203C621.147 39.5203 614.147 32.4203 614.907 26.1203C622.757 24.2603 632.307 26.4603 638.317 32.5803C643.107 37.4603 640.077 42.6103 636.827 45.9903Z" fill="#473526"/>
<path d="M625.657 34.6703C620.877 28.5203 621.717 21.5003 626.787 19.6703" stroke="#896442" stroke-width="0.75" stroke-linecap="round" stroke-linejoin="round"/>
<path d="M632.027 38.2803C627.247 32.1403 628.087 25.1103 633.157 23.2803" stroke="#896442" stroke-width="0.75" stroke-linecap="round" stroke-linejoin="round"/>
<path d="M642.897 53.2103C641.658 55.9582 640.255 58.6297 638.697 61.2103C636.58 64.8191 634.151 68.2356 631.437 71.4203C626.437 77.2003 619.917 82.2703 612.327 82.9203C594.107 84.4803 594.957 71.6103 595.537 67.7103C595.537 67.6203 595.537 67.5403 595.537 67.4603C595.537 67.3803 599.487 59.3303 603.877 51.3203C606.077 47.1912 608.501 43.1852 611.137 39.3203C616.987 31.1603 625.057 29.4803 633.037 32.8503C641.017 36.2203 641.917 41.0603 642.897 53.2103Z" fill="#FEBD9D"/>
<path d="M638.697 61.2803C636.577 64.865 634.147 68.2578 631.437 71.4203H630.917C629.405 71.4228 627.922 71.0018 626.637 70.2051C625.352 69.4085 624.315 68.2679 623.644 66.9125C622.974 65.5571 622.696 64.041 622.842 62.5359C622.989 61.0308 623.554 59.5967 624.473 58.396C625.392 57.1953 626.629 56.276 628.044 55.742C629.459 55.2081 630.995 55.0809 632.479 55.3748C633.962 55.6687 635.333 56.372 636.438 57.4051C637.542 58.4382 638.335 59.7598 638.727 61.2203L638.697 61.2803Z" fill="#FEBD9D"/>
<path d="M606.697 58.1403C606.697 60.7085 605.678 63.1717 603.863 64.9887C602.048 66.8056 599.586 67.8277 597.017 67.8303C596.512 67.8309 596.007 67.7908 595.507 67.7103C595.507 67.6203 595.507 67.5403 595.507 67.4603C595.507 67.3803 599.457 59.3303 603.847 51.3203C605.664 53.1259 606.689 55.5791 606.697 58.1403V58.1403Z" fill="#FEBD9D"/>
<path d="M645.267 61.7703L642.537 64.2803C638.077 68.4803 637.117 69.5203 637.117 69.5203C634.627 63.2803 634.047 52.8003 638.757 45.0703C643.467 37.3403 649.067 37.0703 652.017 39.4603C652.31 39.6952 652.545 39.9925 652.707 40.3303C654.837 44.2803 651.947 55.5703 645.267 61.7703Z" fill="#604730"/>
<path d="M652.707 40.3603C647.207 41.8803 642.567 50.8903 642.537 64.3103C638.077 68.5103 637.117 69.5503 637.117 69.5503C634.627 63.3103 634.047 52.8303 638.757 45.1003C643.467 37.3703 649.067 37.1003 652.017 39.4903C652.31 39.7252 652.545 40.0225 652.707 40.3603V40.3603Z" fill="#473526"/>
<path d="M633.587 72.2803C636.887 76.8703 647.417 74.2803 648.097 67.5503C648.777 60.8203 642.807 57.1803 637.517 60.2103C632.227 63.2403 632.597 70.9103 633.587 72.2803Z" fill="#FEBD9D"/>
<path d="M644.317 39.2803C645.317 44.6703 649.687 49.0203 652.437 49.7603" stroke="#896442" stroke-width="0.75" stroke-linecap="round" stroke-linejoin="round"/>
<path d="M639.708 43.6703C640.708 48.4703 644.167 54.8203 650.857 54.3703" stroke="#896442" stroke-width="0.75" stroke-linecap="round" stroke-linejoin="round"/>
<path d="M611.337 46.6703C611.337 46.9492 611.42 47.2218 611.575 47.4537C611.73 47.6855 611.95 47.8663 612.208 47.973C612.465 48.0797 612.749 48.1076 613.022 48.0532C613.296 47.9988 613.547 47.8645 613.744 47.6673C613.942 47.4702 614.076 47.2189 614.13 46.9454C614.185 46.6719 614.157 46.3884 614.05 46.1307C613.943 45.8731 613.763 45.6529 613.531 45.4979C613.299 45.343 613.026 45.2603 612.747 45.2603C612.373 45.2603 612.015 45.4089 611.75 45.6733C611.486 45.9377 611.337 46.2964 611.337 46.6703V46.6703Z" fill="#683F1D"/>
<path d="M622.127 51.8503C622.906 51.8503 623.537 51.2191 623.537 50.4403C623.537 49.6616 622.906 49.0303 622.127 49.0303C621.349 49.0303 620.717 49.6616 620.717 50.4403C620.717 51.2191 621.349 51.8503 622.127 51.8503Z" fill="#683F1D"/>
<path d="M638.317 62.6303C638.417 64.1703 634.107 69.7903 633.737 71.5403C632.447 77.7203 632.377 80.8003 625.497 85.3703C617.957 90.3703 603.497 94.8603 596.197 89.0803C593.367 86.8503 591.797 82.5503 591.797 77.5203C591.873 73.6215 592.725 69.7768 594.303 66.2107C595.881 62.6446 598.153 59.4285 600.987 56.7503C600.094 60.0251 598.999 63.2413 597.707 66.3803C599.164 64.412 600.737 62.532 602.417 60.7503C604.402 59.82 606.589 59.4039 608.777 59.5403C610.027 59.8803 617.357 62.9203 617.647 64.3103C617.937 65.7003 616.777 70.4803 618.317 70.8203C619.857 71.1603 626.607 70.4303 628.317 69.3303C630.027 68.2303 634.637 60.9903 635.067 59.8803C635.337 59.1903 636.477 59.8203 637.327 60.7703C637.842 61.2727 638.188 61.9227 638.317 62.6303V62.6303Z" fill="#604730"/>
<path d="M643.967 66.8703C642.257 62.8703 637.877 62.9903 635.487 66.1903" stroke="#934735" stroke-width="0.75" stroke-linecap="round" stroke-linejoin="round"/>
<path d="M636.637 65.0003C641.357 63.8303 643.437 70.8103 637.137 70.8003" stroke="#934735" stroke-width="0.75" stroke-linecap="round" stroke-linejoin="round"/>
<path d="M610.058 39.0403C609.708 41.0403 618.938 42.7503 619.058 39.7603C619.178 36.7703 610.438 36.9103 610.058 39.0403Z" fill="#604730"/>
<path d="M632.797 43.1803C632.727 45.1803 623.347 45.0203 623.797 42.0603C624.247 39.1003 632.877 41.0303 632.797 43.1803Z" fill="#604730"/>
<path d="M609.867 64.8703C615.587 65.7903 618.117 64.8703 619.607 62.4503" stroke="#934735" stroke-width="0.75" stroke-linecap="round" stroke-linejoin="round"/>
<path d="M608.537 56.1503C610.437 52.2803 612.957 50.8803 615.447 50.6003C616.626 50.4365 617.723 49.903 618.581 49.0764C619.438 48.2499 620.011 47.1729 620.217 46.0003" stroke="#934735" stroke-width="0.75" stroke-linecap="round" stroke-linejoin="round"/>
<path d="M638.317 62.6303C638.417 64.1703 634.107 69.7903 633.737 71.5403C632.447 77.7203 632.377 80.8003 625.497 85.3703C617.957 90.3703 603.497 94.8603 596.197 89.0803C593.367 86.8503 591.797 82.5503 591.797 77.5203C599.797 84.3803 611.527 85.1103 618.727 83.0503C628.887 80.1303 635.097 66.6203 637.347 60.7703C637.855 61.2754 638.194 61.9251 638.317 62.6303V62.6303Z" fill="#473526"/>
<path d="M593.058 69.5503C603.628 78.5503 618.188 71.4303 619.058 70.8003" stroke="#896442" stroke-width="0.75" stroke-linecap="round" stroke-linejoin="round"/>
<path d="M591.857 79.1203C600.657 83.7403 614.567 85.0203 624.977 70.3503" stroke="#896442" stroke-width="0.75" stroke-linecap="round" stroke-linejoin="round"/>
<path d="M602.797 91.6503C604.967 88.5303 610.667 87.1703 616.647 85.5103C628.287 82.2603 630.077 77.4403 631.207 66.0303" stroke="#896442" stroke-width="0.75" stroke-linecap="round" stroke-linejoin="round"/>
<path d="M638.007 251.65C638.004 253.786 637.533 255.896 636.627 257.83C635.477 260.257 633.831 262.417 631.797 264.17C626.417 268.95 618.037 272.02 608.617 272.02C603.328 272.062 598.085 271.042 593.197 269.02C588.596 267.205 584.631 264.075 581.797 260.02C580.138 257.546 579.241 254.639 579.217 251.66C579.217 250.805 579.297 249.951 579.457 249.11C580.667 242.34 586.677 236.6 595.067 233.58C599.418 232.04 604.002 231.262 608.617 231.28C614.647 231.236 620.603 232.606 626.007 235.28C628.331 236.437 630.473 237.926 632.367 239.7C635.917 243.02 638.007 247.16 638.007 251.65Z" fill="#A7CAF0"/>
<path d="M636.627 257.83C635.477 260.257 633.832 262.417 631.797 264.17C626.417 268.95 618.037 272.02 608.617 272.02C603.328 272.062 598.085 271.042 593.197 269.02C588.596 267.205 584.631 264.075 581.797 260.02C602.777 265.49 625.437 260.88 636.627 257.83Z" fill="#FCC71F"/>
<path d="M703.301 169.69C698.781 177.09 683.451 197.61 668.361 217.2C655.631 233.71 643.071 249.55 637.311 256.28C635.777 258.056 633.995 259.602 632.02 260.87C628.471 263.118 624.506 264.631 620.361 265.318C616.216 266.005 611.976 265.853 607.89 264.87C602.05 263.4 596.991 260.05 594.231 254.74C593.034 252.411 592.307 249.869 592.09 247.26C591.65 242.5 592.841 236.71 595.291 230.26C599.921 218.12 609.011 203.71 619.941 189.61C621.281 187.88 622.661 186.15 624.051 184.43C626.191 181.763 628.384 179.15 630.63 176.59C631.41 175.68 632.191 174.79 632.991 173.89C633.611 173.19 634.231 172.49 634.861 171.8L637.01 169.43L637.13 169.3L639.32 166.95C640.81 165.36 642.321 163.79 643.811 162.26L645.811 160.26C646.541 159.52 647.28 158.78 648.02 158.06C648.051 158.024 648.085 157.991 648.121 157.96C649.681 156.42 651.237 154.927 652.791 153.48L653.001 153.29C658.263 148.323 663.794 143.649 669.57 139.29C675.67 134.77 681.18 131.5 685.64 129.93C693.16 127.29 700.041 130.49 704.251 136.76C709.661 144.67 710.711 157.57 703.301 169.69Z" fill="#FED81D"/>
<path d="M684.757 198.65C679.577 205.56 673.847 213.1 668.137 220.5C655.407 237.01 642.847 252.85 637.087 259.58C635.554 261.357 633.772 262.903 631.797 264.17" stroke="#886F20" stroke-width="0.75" stroke-linecap="round" stroke-linejoin="round"/>
<path d="M595.067 233.57C599.697 221.43 608.787 207.02 619.717 192.92C629.735 180.031 640.735 167.935 652.617 156.74" stroke="#886F20" stroke-width="0.75" stroke-linecap="round" stroke-linejoin="round"/>
<path d="M667.637 153.34C662.377 150.34 657.197 151.46 647.807 161.34" stroke="#886F20" stroke-width="0.75" stroke-linecap="round" stroke-linejoin="round"/>
<path d="M703.723 140.212C701.413 139.23 698.997 138.519 696.523 138.092C687.683 136.522 678.583 138.592 669.043 142.742C675.143 138.222 680.653 134.952 685.113 133.382C692.633 130.742 699.513 133.942 703.723 140.212Z" fill="#FFE05C"/>
<path d="M668.137 220.5C655.407 237.01 642.847 252.85 637.087 259.58C635.554 261.357 633.772 262.903 631.797 264.17C628.248 266.419 624.283 267.931 620.138 268.618C615.993 269.305 611.752 269.153 607.667 268.17C601.827 266.7 596.767 263.35 594.007 258.04C603.387 261.69 612.707 261.7 619.367 258.34C623.076 256.543 625.992 253.442 627.557 249.63C628.947 246.198 630.553 242.858 632.367 239.63C643.207 220.55 658.027 213.59 668.137 220.5Z" fill="#FCC71F"/>
<path d="M560.997 138.62C560.517 135.93 569.547 133.06 576.567 132.26L577.887 144.13C577.887 144.13 562.657 147.96 560.997 138.62Z" fill="#FCC71F"/>
<path d="M575.108 131.51C571.458 117.88 571.368 95.8203 572.618 92.7003C573.868 89.5803 576.388 90.7503 577.888 90.8403C579.388 90.9303 580.088 86.9203 585.158 86.9203C585.158 86.9203 585.438 81.8603 588.948 81.2803C588.948 81.2803 587.608 73.9103 593.518 75.0903C594.858 75.3603 593.518 83.5403 596.918 95.0903C597.108 95.7403 604.268 90.6103 605.918 89.4403C608.568 87.5303 613.698 86.9003 610.358 92.5103C608.358 95.9203 605.028 101.31 602.708 104.69C598.099 111.598 595.709 119.748 595.858 128.05L575.108 131.51Z" fill="#FEBD9D"/>
<path d="M571.928 99.4003C571.878 97.1469 572.109 94.8962 572.618 92.7003C573.858 89.5903 576.388 90.7503 577.888 90.8403C579.388 90.9303 580.088 86.9203 585.158 86.9203C585.158 86.9203 585.438 81.8603 588.948 81.2803C588.948 81.2803 587.608 73.9103 593.518 75.0903C594.858 75.3603 593.518 83.5403 596.918 95.0903C597.108 95.7403 604.268 90.6103 605.918 89.4403C608.568 87.5303 613.698 86.9003 610.358 92.5103C609.358 94.2103 608.008 96.4103 606.638 98.6103" stroke="#934735" stroke-width="0.75" stroke-linecap="round" stroke-linejoin="round"/>
<path d="M585.157 86.9203C585.137 87.8601 585.194 88.7999 585.328 89.7303" stroke="#934735" stroke-width="0.75" stroke-linecap="round" stroke-linejoin="round"/>
<path d="M588.947 81.2803C589.377 83.7503 590.007 86.0403 590.007 86.0403" stroke="#934735" stroke-width="0.75" stroke-linecap="round" stroke-linejoin="round"/>
<path d="M568.688 125.88L570.278 148.28C570.278 148.28 599.408 143.28 598.968 142.63C598.528 141.98 597.768 123.63 597.768 123.63L568.688 125.88Z" fill="white"/>
<path d="M625.847 235.28C625.847 235.86 625.817 236.44 625.757 237.02C625.757 237.46 625.697 237.9 625.657 238.34C625.662 238.427 625.662 238.514 625.657 238.6C625.657 239.1 625.557 239.6 625.497 240.08C625.367 241.2 625.197 242.31 624.987 243.4C624.078 248.732 622.12 253.83 619.227 258.4C616.47 262.836 612.372 266.279 607.527 268.23C602.942 269.912 597.965 270.218 593.207 269.11H593.057C583.477 267.04 577.757 256.37 574.237 244.17C571.027 233.02 569.647 220.59 568.857 212.26C567.177 194.76 560.857 138.72 560.857 138.72C565.327 140.96 605.327 131.62 605.327 131.62C605.327 131.62 613.547 164.22 619.587 193.03C622.827 208.48 625.447 222.85 625.827 230.51C625.877 232.02 625.897 233.63 625.847 235.28Z" fill="#FED81D"/>
<path d="M574.217 244.06C571.007 232.91 569.627 220.48 568.837 212.15C567.157 194.65 560.837 138.61 560.837 138.61" stroke="#886F20" stroke-width="0.75" stroke-linecap="round" stroke-linejoin="round"/>
<path d="M605.297 131.51C605.297 131.51 613.517 164.11 619.557 192.92C622.797 208.37 625.417 222.74 625.797 230.4C625.877 232.02 625.897 233.63 625.797 235.23C625.701 238.153 625.366 241.062 624.797 243.93" stroke="#886F20" stroke-width="0.75" stroke-linecap="round" stroke-linejoin="round"/>
<path d="M619.207 258.28C616.45 262.716 612.352 266.159 607.507 268.11C602.922 269.792 597.944 270.098 593.187 268.99H593.037C583.457 266.92 577.737 256.25 574.217 244.05C575.795 245.83 577.492 247.501 579.297 249.05C583.597 252.84 588.519 255.858 593.847 257.97C603.227 261.67 612.547 261.68 619.207 258.28Z" fill="#FCC71F"/>
<path d="M339.877 260.17C335.747 257.721 331.992 254.69 328.727 251.17C317.827 239.92 307.357 222.54 299.617 207.84C294.297 197.74 290.277 188.9 288.287 184.17C288.177 183.92 288.067 183.65 287.957 183.37C287.677 182.68 287.367 181.91 287.057 181.08C280.387 163.66 266.647 116.19 295.657 108.72C307.307 105.72 313.417 110.72 325.987 130.29C328.437 134.1 331.137 138.46 334.167 143.42C352.797 173.93 377.027 224.24 379.297 238.02C381.567 251.8 358.517 270.54 339.877 260.17Z" fill="#2BDA88"/>
<path d="M325.997 130.28C320.677 130.16 314.427 132.43 308.837 138.56C304.147 143.71 299.927 151.56 297.117 163.02C295.571 169.88 292.078 176.147 287.057 181.07C280.387 163.65 266.647 116.18 295.657 108.71C307.317 105.73 313.437 110.76 325.997 130.28Z" fill="#30EE95"/>
<path d="M328.727 251.18C317.827 239.93 307.357 222.55 299.617 207.85C294.297 197.75 290.277 188.91 288.287 184.18C288.177 183.93 288.067 183.66 287.957 183.38L303.437 169.95C312.577 170.23 320.577 196.23 313.007 202.76C306.537 208.33 307.007 219.65 319.247 221.76C328.257 223.28 328.787 244.45 328.727 251.18Z" fill="#28C079"/>
<path d="M255.897 135.19C237.897 133.76 235.677 117.45 236.817 112.36C237.957 107.27 241.227 84 242.337 73.09C245.047 46.36 272.987 55.83 272.807 80.34C272.807 82 272.687 85.86 272.607 90.53C272.527 95.2 272.487 100.91 272.657 105.82C272.657 106.07 272.657 106.32 272.657 106.57C273.037 116.4 273.927 136.62 255.897 135.19Z" fill="#FEBD9D"/>
<path d="M272.657 105.82C255.057 106.24 254.767 94.34 255.847 85.88L272.607 90.53C272.527 95.28 272.487 100.91 272.657 105.82Z" fill="#F4A789"/>
<path d="M308.837 138.58C307.977 145.38 306.777 152.34 305.667 158.26C304.667 163.75 303.727 168.34 303.277 171.11C303.217 171.49 303.157 171.84 303.117 172.11C302.697 175.11 301.337 189.21 299.617 207.81C296.757 238.81 292.887 282.18 290.617 307.51H174.497C175.497 299.8 176.697 290.68 177.887 281.44C180.887 257.98 183.947 233.82 184.067 230.59C184.307 224.27 181.307 184.34 178.317 163.03C178.227 162.4 178.137 161.78 178.047 161.18C175.227 142.11 181.427 133.09 190.557 129.71C191.368 129.405 192.196 129.148 193.037 128.94C201.697 126.76 215.717 122.33 231.577 117.58C234.837 116.58 238.177 115.58 241.577 114.58C242.907 114.2 244.387 113.82 246.007 113.45C246.647 113.91 247.327 114.37 248.007 114.83L249.147 115.53C249.367 115.67 249.587 115.8 249.807 115.92C251.107 116.69 252.507 117.43 253.987 118.12C254.527 118.38 255.087 118.63 255.657 118.87C256.207 119.11 256.767 119.34 257.347 119.56H257.397C257.857 119.74 258.337 119.91 258.817 120.08H258.897L259.597 120.32L261.047 120.79C262.187 121.15 263.357 121.47 264.567 121.79C265.837 120.36 266.907 119.02 267.817 117.79L268.617 116.66L269.117 115.91C269.417 115.44 269.697 115 269.947 114.57C270.197 114.14 270.497 113.57 270.727 113.15C271.183 112.276 271.584 111.374 271.927 110.45L272.147 109.8C273.957 109.65 275.817 109.51 277.727 109.39C280.107 109.23 282.557 109.1 285.077 108.98C288.464 108.82 291.97 108.707 295.597 108.64C298.224 108.58 300.91 108.55 303.657 108.55C310.877 108.62 310.767 123.2 308.837 138.58Z" fill="#2BDA88"/>
<path d="M305.677 158.28C304.517 164.52 303.477 169.61 303.117 172.16C302.697 175.16 301.337 189.26 299.617 207.86" stroke="#105F3A" stroke-width="0.75" stroke-linecap="round" stroke-linejoin="round"/>
<path d="M308.837 138.58C304.147 143.73 299.927 151.58 297.117 163.04C296.074 167.388 294.298 171.527 291.867 175.28C290.488 177.38 288.875 179.316 287.057 181.05C283.113 184.81 278.193 187.388 272.857 188.49C270.484 188.985 268.06 189.196 265.637 189.12C258.897 188.92 251.637 186.62 244.237 181.87C240.418 179.374 236.863 176.496 233.627 173.28C227.687 167.42 222.087 163.08 216.627 160.23C204.327 153.84 192.497 154.89 178.357 163.06C178.267 162.43 178.177 161.81 178.087 161.21C175.267 142.14 181.467 133.12 190.597 129.74C191.408 129.435 192.236 129.178 193.077 128.97C201.737 126.79 215.757 122.36 231.617 117.61C234.877 116.61 238.217 115.61 241.617 114.61C242.947 114.23 244.427 113.85 246.047 113.48C246.697 113.94 247.367 114.4 248.047 114.86C252.107 117.445 256.501 119.463 261.107 120.86C262.247 121.22 263.417 121.54 264.627 121.86C265.897 120.43 266.967 119.09 267.877 117.86C269.588 115.62 270.971 113.149 271.987 110.52C272.067 110.29 272.147 110.07 272.207 109.87C274.017 109.72 275.877 109.58 277.787 109.46C280.167 109.3 282.627 109.17 285.147 109.05C288.534 108.89 292.04 108.777 295.667 108.71C298.294 108.65 300.98 108.62 303.727 108.62C310.877 108.62 310.767 123.2 308.837 138.58Z" fill="#30EE95"/>
<path d="M204.007 184.67C204.007 184.67 226.217 189.17 217.627 207.11C210.417 222.16 218.467 228.91 226.427 223.81C235.117 218.24 251.787 224.89 251.787 237.58C251.787 261.58 198.897 277.31 192.337 245.67C185.777 214.03 181.587 181.28 204.007 184.67Z" fill="#28C079"/>
<path d="M291.867 175.28L292.937 176.5L274.657 206.55L273.847 215.39L243.437 184.71L244.287 181.91L246.707 173.91L224.107 151.41C224.287 149.41 229.377 127.61 231.797 117.84L236.707 116.94L248.077 114.87C252.137 117.455 256.531 119.473 261.137 120.87C262.277 121.23 263.447 121.55 264.657 121.87C265.927 120.44 266.997 119.1 267.907 117.87C269.618 115.63 271.001 113.159 272.017 110.53L277.817 109.47C280.197 109.31 282.657 109.18 285.177 109.06L297.177 150.35L286.087 168.71L291.867 175.28Z" fill="#20AB6A"/>
<path d="M280.787 115.85C280.157 126.97 278.437 143.25 276.627 158.56C275.287 169.92 273.887 180.74 272.857 188.56C271.857 195.8 271.257 200.42 271.257 200.42C269.167 196.789 267.29 193.04 265.637 189.19C263.637 184.62 261.257 179.07 258.637 172.63C253.257 159.63 246.567 142.92 238.347 123.33L236.697 117.02L248.067 114.95C252.127 117.535 256.521 119.553 261.127 120.95C262.267 121.31 263.437 121.63 264.647 121.95C265.917 120.52 266.987 119.18 267.897 117.95C269.608 115.71 270.992 113.239 272.007 110.61L277.807 109.55L280.787 115.85Z" fill="white"/>
<path d="M273.437 122.84C273.437 122.84 273.087 124.7 272.497 127.02C271.497 130.9 269.837 136.08 267.937 136.08C266.037 136.08 262.667 133.17 260.117 130.8C258.357 129.16 257.047 127.8 257.047 127.8L261.107 120.95C262.247 121.31 263.417 121.63 264.627 121.95C265.897 120.52 266.967 119.18 267.877 117.95L273.437 122.84Z" fill="#29D283"/>
<path d="M276.627 158.56C274.037 180.47 271.257 200.39 271.257 200.39C268.257 195.46 264.107 185.94 258.597 172.6C260.077 165.12 263.097 147.42 265.217 132.43L269.747 131.43C271.687 137.67 274.747 150.49 276.627 158.56Z" fill="#29D283"/>
<path d="M264.607 121.89L260.097 130.8L257.437 136.08C257.437 136.08 241.437 128.47 231.757 117.88C231.69 117.8 231.633 117.713 231.587 117.62C230.407 114.95 235.037 101.39 237.987 105.82C240.194 108.828 242.9 111.436 245.987 113.53C250.586 116.792 255.682 119.291 261.077 120.93C262.227 121.28 263.437 121.61 264.607 121.89Z" fill="#D9D9D9"/>
<path d="M275.497 128.98L272.497 126.98L264.627 121.85C265.897 120.42 266.967 119.08 267.877 117.85C269.74 115.433 271.202 112.732 272.207 109.85C272.514 109.002 272.686 108.111 272.717 107.21C274.638 107.256 276.463 108.057 277.797 109.44V109.44C278.693 110.469 279.288 111.725 279.517 113.07C280.657 119.05 275.497 128.98 275.497 128.98Z" fill="#D9D9D9"/>
<path d="M265.357 307.55L273.847 215.43L274.657 206.59L271.257 200.39" stroke="#105F3A" stroke-width="0.75" stroke-linecap="round" stroke-linejoin="round"/>
<path d="M439.657 106.13C436.657 102.13 433.897 100.57 431.377 100.36C431.617 99.82 431.847 99.26 432.077 98.68C434.077 93.62 432.177 91.68 430.457 92.19C428.737 92.7 420.097 102.28 419.107 104.19C416.457 109.35 409.107 129.87 408.447 131.78C409.947 143.97 426.037 147.88 426.037 147.88C427.727 142.8 430.987 139.67 434.577 137.19C438.167 134.71 439.857 130.68 443.577 122.78C446.247 117.22 445.907 114.6 439.657 106.13Z" fill="#FEBD9D"/>
<path d="M439.656 106.13C436.656 102.13 433.896 100.57 431.376 100.36C431.616 99.82 431.846 99.26 432.076 98.68C434.076 93.62 432.176 91.68 430.456 92.19C428.736 92.7 420.096 102.28 419.106 104.19" stroke="#EF8A66" stroke-width="0.75" stroke-linecap="round" stroke-linejoin="round"/>
<path d="M435.147 157.81C436.967 153.63 427.827 149.1 427.827 149.1L422.827 158.32C422.827 158.32 431.307 163.73 435.147 157.81Z" fill="#2BDA88"/>
<path d="M402.816 138.43C406.366 133.02 409.216 128.59 409.216 128.59C415.336 136.823 422.789 143.975 431.266 149.75L426.736 158.28C421.303 157.509 416.19 155.245 411.967 151.741C407.744 148.236 404.576 143.628 402.816 138.43V138.43Z" fill="#D9D9D9"/>
<path d="M339.887 260.17C349.887 270.17 373.417 272.28 395.277 230.17C417.137 188.06 435.117 157.99 435.117 157.99C435.117 157.99 424.197 160.5 404.607 133.86C404.607 133.86 384.447 160.86 364.087 185.56C340.627 214.01 322.047 242.28 339.887 260.17Z" fill="#2BDA88"/>
<path d="M404.607 133.85C404.607 133.85 384.447 160.85 364.087 185.55C356.951 194 350.345 202.884 344.307 212.15" stroke="#105F3A" stroke-width="0.75" stroke-linecap="round" stroke-linejoin="round"/>
<path d="M427.927 125.55C427.927 125.55 432.317 115.36 426.457 107.93C426.457 107.93 430.667 102.05 431.377 100.36" stroke="#EF8A66" stroke-width="0.75" stroke-linecap="round" stroke-linejoin="round"/>
<path d="M427.927 108.49L474.277 2" stroke="#DDDDDD" stroke-width="3" stroke-linecap="round" stroke-linejoin="round"/>
<path d="M448.636 112.73C452.516 114.73 445.716 124.73 442.206 124.03C437.716 123.07 444.516 110.65 448.636 112.73Z" fill="#FEBD9D" stroke="#EF8A66" stroke-width="0.75" stroke-linecap="round" stroke-linejoin="round"/>
<path d="M445.436 105.15C450.236 107.66 441.716 120.8 437.376 119.82C433.036 118.84 440.336 102.48 445.436 105.15Z" fill="#FEBD9D" stroke="#EF8A66" stroke-width="0.75" stroke-linecap="round" stroke-linejoin="round"/>
<path d="M442.437 100.49C446.997 103.54 437.217 117.49 432.967 116.11C428.717 114.73 437.577 97.28 442.437 100.49Z" fill="#FEBD9D" stroke="#EF8A66" stroke-width="0.75" stroke-linecap="round" stroke-linejoin="round"/>
<path d="M439.437 90.44C444.507 92.53 437.667 108.1 433.237 107.63C428.807 107.16 434.017 88.21 439.437 90.44Z" fill="#FEBD9D" stroke="#EF8A66" stroke-width="0.75" stroke-linecap="round" stroke-linejoin="round"/>
<path d="M216.237 173.17C216.127 174.1 215.997 175.05 215.837 176C215.747 176.52 215.667 177 215.567 177.58C215.467 178.16 215.367 178.65 215.247 179.19C215.067 180.11 214.867 181.04 214.637 181.97C214.287 183.42 213.927 184.97 213.567 186.52C213.437 187.05 213.317 187.59 213.197 188.13C212.823 189.75 212.443 191.417 212.057 193.13C211.927 193.7 211.797 194.29 211.667 194.88C211.587 195.22 211.517 195.57 211.437 195.88C211.257 196.65 211.087 197.42 210.917 198.21C209.827 203.13 208.667 208.34 207.437 213.66C207.137 214.97 206.827 216.29 206.517 217.61C206.427 218.01 206.327 218.42 206.227 218.82L205.567 221.59C205.567 221.8 205.467 222.02 205.407 222.24C205.167 223.24 204.927 224.24 204.677 225.24C204.487 226.03 204.287 226.81 204.087 227.6C203.887 228.39 203.757 228.92 203.577 229.6C203.087 231.49 202.577 233.39 202.077 235.26L201.477 237.45C200.117 242.3 198.697 247.01 197.187 251.45C196.987 252.04 196.777 252.63 196.577 253.2C196.067 254.65 195.577 256.07 195.017 257.45C194.807 258 194.597 258.55 194.377 259.09C193.603 261.03 192.813 262.88 192.007 264.64C191.577 265.56 191.147 266.46 190.707 267.32C190.597 267.55 190.477 267.78 190.357 268C189.937 268.8 189.517 269.57 189.087 270.31C188.657 271.05 188.267 271.71 187.857 272.37V272.44C187.417 273.11 186.987 273.76 186.537 274.38C185.638 275.633 184.634 276.807 183.537 277.89C183.387 278.05 183.227 278.2 183.067 278.34C182.163 279.205 181.155 279.954 180.067 280.57L179.487 280.86H179.417C179.177 280.973 178.937 281.073 178.697 281.16C178.447 281.26 178.197 281.34 177.937 281.42C159.477 286.78 149.027 276.33 147.317 260.73C147.172 259.291 147.105 257.846 147.117 256.4V256.4C147.117 244.61 150.597 223.95 154.907 205.14C157.357 194.45 160.077 184.36 162.577 176.83L163.777 173.19C170.777 151.89 176.667 131.89 190.607 129.7C204.217 127.57 215.137 140.55 216.607 160.19C216.915 164.518 216.791 168.866 216.237 173.17V173.17Z" fill="#2BDA88"/>
<path d="M177.887 281.48C178.144 281.407 178.398 281.32 178.647 281.22C178.887 281.133 179.127 281.033 179.367 280.92H179.437C179.636 280.835 179.83 280.739 180.017 280.63C181.105 280.014 182.113 279.265 183.017 278.4C183.177 278.26 183.327 278.11 183.487 277.95C184.584 276.867 185.588 275.693 186.487 274.44C186.937 273.83 187.377 273.18 187.807 272.5V272.43C188.227 271.77 188.637 271.09 189.037 270.37C189.47 269.63 189.89 268.86 190.297 268.06C190.417 267.84 190.537 267.61 190.647 267.38C191.087 266.52 191.517 265.62 191.947 264.7C192.76 262.94 193.55 261.09 194.317 259.15C194.537 258.61 194.747 258.06 194.957 257.51C195.487 256.13 195.957 254.71 196.517 253.26C196.717 252.68 196.927 252.1 197.127 251.51C198.637 247.07 200.057 242.36 201.417 237.51C201.617 236.79 201.817 236.06 202.017 235.32C202.527 233.45 203.017 231.55 203.517 229.66C203.697 228.99 203.857 228.33 204.027 227.66C204.197 226.99 204.427 226.09 204.617 225.3C204.867 224.3 205.107 223.3 205.347 222.3C205.407 222.08 205.457 221.86 205.507 221.65C205.727 220.72 205.957 219.8 206.167 218.88C206.267 218.48 206.367 218.07 206.457 217.67C206.767 216.35 207.077 215.03 207.377 213.72C208.607 208.4 209.767 203.19 210.857 198.27C211.037 197.49 211.207 196.71 211.377 195.94C211.457 195.59 211.527 195.24 211.607 194.94L211.997 193.19C212.383 191.457 212.763 189.79 213.137 188.19C213.257 187.65 213.377 187.11 213.507 186.58C213.867 185 214.227 183.48 214.577 182.03C214.807 181.1 215.007 180.17 215.187 179.25C215.307 178.71 215.417 178.17 215.507 177.64C215.597 177.11 215.697 176.58 215.777 176.06C215.937 175.06 216.067 174.16 216.177 173.23C216.177 173.01 216.237 172.79 216.257 172.57" stroke="#105F3A" stroke-width="0.75" stroke-linecap="round" stroke-linejoin="round"/>
<path d="M216.587 160.28C204.287 153.89 192.457 154.94 178.317 163.11C173.204 166.128 168.327 169.527 163.727 173.28C170.727 151.98 176.617 131.98 190.557 129.79C204.167 127.62 215.087 140.6 216.587 160.28Z" fill="#30EE95"/>
<path d="M189.087 270.33C188.687 271.05 188.277 271.73 187.857 272.39V272.46C187.427 273.14 186.987 273.79 186.537 274.4C185.638 275.653 184.634 276.827 183.537 277.91C183.387 278.07 183.227 278.22 183.067 278.36C182.163 279.225 181.155 279.974 180.067 280.59L179.487 280.88H179.417C179.177 280.993 178.937 281.093 178.697 281.18C178.447 281.28 178.197 281.36 177.937 281.44C159.477 286.8 149.027 276.35 147.317 260.75C147.172 259.311 147.105 257.866 147.117 256.42V256.42C147.117 244.63 150.597 223.97 154.907 205.16C165.037 211.1 167.807 223.98 162.757 238C161.636 241.088 160.23 244.064 158.557 246.89C147.437 265.83 170.257 279.44 189.087 270.33Z" fill="#28C079"/>
<path d="M266.287 40.97C270.777 38.21 276.447 37.78 276.227 57.12L266.287 40.97Z" fill="#BF8228"/>
<path d="M270.687 39.54C269.358 42.5092 267.618 45.2764 265.517 47.76L266.737 69.89L242.737 70.69L238.997 70.82C236.807 63.07 236.477 57.82 234.457 56.49C233.949 56.0665 233.594 55.4867 233.45 54.8411C233.305 54.1954 233.378 53.52 233.657 52.92C234.407 50.8 231.927 51.99 230.327 49.33C229.437 47.85 229.177 41.7 235.867 42.45C233.677 38.17 237.067 34.74 244.977 35.04C243.167 34.17 242.667 31.19 247.057 30.98C252.366 30.665 257.688 30.665 262.997 30.98C265.061 31.1514 267.039 31.8846 268.717 33.1C269.745 33.7749 270.505 34.7881 270.865 35.9643C271.225 37.1404 271.162 38.4054 270.687 39.54Z" fill="#BF8228"/>
<path d="M270.687 39.54C269.358 42.5092 267.618 45.2764 265.517 47.76L266.737 69.89L242.737 70.69C243.517 57.93 241.737 53.64 240.887 49.69C240.037 45.74 241.637 40.53 246.667 41.69C251.697 42.85 259.997 39.9 258.607 37.15C257.607 35.15 261.777 30.8 268.717 33.08C269.75 33.7557 270.513 34.7724 270.873 35.953C271.233 37.1335 271.167 38.403 270.687 39.54V39.54Z" fill="#B57724"/>
<path d="M244.967 35.05L254.297 35.55" stroke="#9B621F" stroke-width="0.75" stroke-linecap="round" stroke-linejoin="round"/>
<path d="M235.857 42.45L245.967 43.45" stroke="#9B621F" stroke-width="0.75" stroke-linecap="round" stroke-linejoin="round"/>
<path d="M272.117 94.48C256.847 97.48 244.197 75.78 244.197 75.78C237.087 77.22 234.457 70.38 236.567 65.78C236.791 65.2833 237.066 64.8108 237.387 64.37C237.965 63.482 238.796 62.7875 239.773 62.3759C240.75 61.9642 241.827 61.8542 242.867 62.06C244.856 62.5673 246.632 63.6952 247.937 65.28C249.377 66.86 251.047 65.07 249.867 62.28C248.687 59.49 247.497 49.88 248.947 47.91C250.397 45.94 263.577 43.23 267.527 43.03C267.783 43.0139 268.04 43.0139 268.297 43.03C268.479 43.0591 268.653 43.1273 268.807 43.23C269.637 43.8543 270.351 44.6192 270.917 45.49C271.397 46.13 271.917 46.89 272.407 47.73C273.811 50.0411 275.086 52.4281 276.227 54.88C276.637 55.75 277.047 56.64 277.437 57.54C277.827 58.44 278.147 59.19 278.437 60.02C279.007 61.41 279.517 62.79 279.967 64.14C280.327 65.21 280.647 66.26 280.917 67.26C280.917 67.32 280.917 67.38 280.967 67.44C283.597 77.28 285.047 91.92 272.117 94.48Z" fill="#FEBD9D"/>
<path d="M262.837 68.87C265.977 69.42 270.707 69.09 272.627 67.22C272.627 67.22 273.347 74 269.287 74.56C264.587 75.21 262.837 68.87 262.837 68.87Z" fill="white" stroke="#EF8A66" stroke-width="0.75" stroke-linecap="round" stroke-linejoin="round"/>
<path d="M275.937 86.28C276.45 87.9123 276.295 89.6814 275.507 91.2" stroke="#EF8A66" stroke-width="0.75" stroke-linecap="round" stroke-linejoin="round"/>
<path d="M244.207 75.78C245.488 75.4365 246.688 74.8417 247.737 74.03" stroke="#EF8A66" stroke-width="0.75" stroke-linecap="round" stroke-linejoin="round"/>
<path d="M239.437 68.17C241.707 65.17 246.067 67.06 247.267 70.11" stroke="#EF8A66" stroke-width="0.75" stroke-linecap="round" stroke-linejoin="round"/>
<path d="M246.657 68.95C241.947 65.41 240.297 73.4 245.797 72.26" stroke="#EF8A66" stroke-width="0.75" stroke-linecap="round" stroke-linejoin="round"/>
<path d="M265.747 51.88C265.607 53.97 268.477 57.35 271.117 58.16C273.757 58.97 274.577 59.7 273.887 61.87" stroke="#EF8A66" stroke-width="0.75" stroke-linecap="round" stroke-linejoin="round"/>
<path d="M253.017 51.97C253.417 53.63 262.457 51.69 261.237 48.6C260.017 45.51 252.347 49.28 253.017 51.97Z" fill="#BF8228"/>
<path d="M265.197 46.62C265.077 48.62 273.027 48.56 272.997 47.07C272.967 45.58 265.437 42.99 265.197 46.62Z" fill="#BF8228"/>
<path d="M260.347 56.47C260.347 56.7489 260.43 57.0215 260.585 57.2534C260.74 57.4852 260.96 57.666 261.218 57.7727C261.475 57.8794 261.759 57.9073 262.032 57.8529C262.306 57.7985 262.557 57.6642 262.754 57.467C262.951 57.2698 263.086 57.0186 263.14 56.7451C263.194 56.4716 263.167 56.1881 263.06 55.9304C262.953 55.6728 262.772 55.4526 262.541 55.2976C262.309 55.1427 262.036 55.06 261.757 55.06C261.383 55.06 261.025 55.2086 260.76 55.473C260.496 55.7374 260.347 56.096 260.347 56.47V56.47Z" fill="#683F1D"/>
<path d="M271.257 55.83C272.036 55.83 272.667 55.1987 272.667 54.42C272.667 53.6413 272.036 53.01 271.257 53.01C270.478 53.01 269.847 53.6413 269.847 54.42C269.847 55.1987 270.478 55.83 271.257 55.83Z" fill="#683F1D"/>
<path d="M260.937 67.41C260.067 69.36 257.247 70.01 254.627 68.85C252.007 67.69 250.627 65.16 251.447 63.21C252.267 61.26 255.137 60.62 257.757 61.78C260.377 62.94 261.797 65.46 260.937 67.41Z" fill="#F4AF90"/>
<path d="M280.997 67.4C278.877 68.34 276.617 68.02 275.597 66.5C274.407 64.73 275.367 62 277.747 60.4C277.978 60.2452 278.219 60.1049 278.467 59.98C279.037 61.37 279.547 62.75 279.997 64.1C280.357 65.17 280.677 66.22 280.947 67.22C280.967 67.28 280.977 67.34 280.997 67.4Z" fill="#F4AF90"/>
<path d="M308.807 228.16C319.517 226.78 323.247 224.36 327.397 222.77C331.547 221.18 334.657 221.39 335.137 223.77C335.137 223.77 339.277 221.92 340.667 222.66C342.737 223.77 341.437 227.66 335.147 230.36C328.857 233.06 310.257 240.7 306.807 239.66C303.357 238.62 300.737 231.98 308.807 228.16Z" fill="#FEBD9D" stroke="#EF8A66" stroke-width="0.75" stroke-linecap="round" stroke-linejoin="round"/>
<path d="M281.537 260.71C281.537 260.71 306.097 249.59 312.127 246.21C318.157 242.83 336.757 234.28 338.557 231.28C340.357 228.28 337.427 227.99 333.827 229.28C330.227 230.57 316.027 235.34 314.667 235.28C313.307 235.22 305.667 235.28 305.667 235.28C306.287 229.28 316.227 225.17 317.667 222.28C319.267 219.17 314.737 219.28 311.877 220.13C309.017 220.98 297.447 225.01 294.587 226.6C291.727 228.19 289.177 231.83 283.217 232.72L281.537 260.71Z" fill="#FEBD9D"/>
<path d="M329.057 237.47C333.797 234.95 337.767 232.59 338.557 231.29C340.357 228.29 337.427 228 333.827 229.29C330.227 230.58 316.027 235.35 314.667 235.29C313.307 235.23 305.667 235.29 305.667 235.29C306.287 229.29 316.227 225.18 317.667 222.29C319.267 219.18 314.737 219.29 311.877 220.14C310.207 220.64 305.537 222.22 301.387 223.77" stroke="#EF8A66" stroke-width="0.75" stroke-linecap="round" stroke-linejoin="round"/>
<path d="M315.717 231.28C322.217 229.19 333.187 224.76 335.137 223.8" stroke="#EF8A66" stroke-width="0.75" stroke-linecap="round" stroke-linejoin="round"/>
<path d="M305.667 235.28C305.534 236.031 305.534 236.799 305.667 237.55" stroke="#EF8A66" stroke-width="0.75" stroke-linecap="round" stroke-linejoin="round"/>
<path d="M272.247 232.76H283.257V264.32L273.387 266.22L272.247 232.76Z" fill="#D9D9D9"/>
<path d="M276.627 268.68C276.897 268.94 257.157 273.61 234.057 278.24C208.747 283.31 179.407 288.34 167.947 287.47C151.947 286.26 144.527 269.9 147.067 256.47C147.879 251.576 150.3 247.093 153.947 243.73C156.579 241.426 159.53 239.513 162.707 238.05C166.226 236.429 169.916 235.208 173.707 234.41H173.807L175.067 234.15L176.737 233.84C177.437 233.72 178.137 233.61 178.847 233.51L179.297 233.45C179.727 233.38 180.147 233.33 180.577 233.28L181.957 233.12H182.017L183.347 232.99C183.807 232.94 184.277 232.9 184.737 232.87L186.117 232.77C187.047 232.7 187.967 232.65 188.887 232.62H189.887H190.467L193.107 232.56H194.337C195.397 232.56 196.447 232.56 197.477 232.56H199.287H199.387L202.827 232.64C204.827 232.64 206.767 232.74 208.587 232.79H210.587H214.707C229.997 232.61 274.627 231.32 274.627 231.32C274.627 231.32 276.067 268.13 276.627 268.68Z" fill="#2BDA88"/>
<path d="M274.657 231.28C274.657 231.28 230.027 232.57 214.737 232.76C204.557 232.88 188.317 231.19 173.737 234.39" stroke="#105F3A" stroke-width="0.75" stroke-linecap="round" stroke-linejoin="round"/>
<path d="M234.057 278.28C208.747 283.35 179.407 288.38 167.947 287.51C151.947 286.3 144.527 269.94 147.067 256.51C147.879 251.616 150.3 247.133 153.947 243.77C156.579 241.466 159.53 239.553 162.707 238.09C161.587 241.178 160.18 244.154 158.507 246.98C147.417 265.89 170.257 279.5 189.087 270.39C189.843 270.037 190.58 269.647 191.297 269.22C206.837 259.96 226.977 272.97 234.057 278.28Z" fill="#28C079"/>
<path d="M275.267 269.14C270.427 270.45 253.427 274.36 234.057 278.24C208.747 283.31 179.407 288.34 167.947 287.47" stroke="#105F3A" stroke-width="0.75" stroke-linecap="round" stroke-linejoin="round"/>
</svg>
