<svg width="253" height="165" viewBox="0 0 253 165" fill="none" xmlns="http://www.w3.org/2000/svg">
<path d="M68.6146 82.2552C68.6146 85.4771 65.4404 90.3178 60.2717 89.5401C55.103 88.7624 48.8445 84.8369 49.6116 75.6634C49.8338 72.9865 52.8916 56.2477 53.3836 52.5444C54.1507 46.8255 68.4983 42.0324 67.8687 56.7027C67.8687 57.147 67.8317 57.5809 67.8158 58.0147C67.71 61.1466 67.7047 64.0193 67.7629 66.6221C67.9481 74.3355 68.6146 79.6735 68.6146 82.2552Z" fill="#FEBD9D"/>
<path d="M67.7641 66.6222C63.2884 66.5904 59.8285 63.5326 60.3099 58.4591L67.817 58.0147C67.7112 61.1466 67.7059 64.0458 67.7641 66.6222Z" fill="#F4A789"/>
<path d="M96.3374 125.711L98.898 163.648H74.705L79.0908 121.034L73.2713 105.491L62.8916 85.53C63.6239 83.2077 64.2018 80.8395 64.6216 78.4409V78.4409L69.2401 70.2038C69.9955 69.8529 70.769 69.542 71.5573 69.2727L71.6578 69.2409H71.753C74.5622 68.2886 79.3553 67.1248 84.196 67.9977C88.2431 68.733 91.6025 70.2884 94.3059 74.5577C97.3373 79.3561 99.5222 87.5827 100.877 101.925C102.305 116.807 98.5435 123.42 96.3374 125.711Z" fill="#C3DCF8"/>
<path d="M94.3219 74.5101C90.3594 76.24 86.8042 79.6311 85.032 85.895C84.1192 89.1411 82.8617 92.2803 81.2811 95.259C79.2768 99.1465 76.5618 102.624 73.2767 105.512L62.897 85.5511C63.6293 83.2288 64.2072 80.8606 64.6269 78.462C64.8174 78.044 67.8647 71.357 68.6053 70.0344C69.9808 69.7064 71.0177 69.4472 71.5626 69.299L71.6631 69.2673H71.7584C74.5676 68.315 79.3607 67.1511 84.2014 68.024C88.2591 68.6853 91.6238 70.2407 94.3219 74.5101Z" fill="#D0E5F7"/>
<path d="M86.397 163.648H46.8672V149.856H85.5611L86.397 163.648Z" fill="#683F1D"/>
<path d="M83.2216 149.856H48.4955C48.4955 149.856 41.7661 116.579 43.0041 93.545C43.3532 86.9849 44.3478 81.2554 46.3317 77.3617C46.8871 76.2235 47.6172 75.1793 48.4955 74.2668C49.3314 74.1187 50.2519 73.9494 51.2306 73.7378C52.8177 75.5312 55.9073 78.0283 60.2719 80.5624C60.2719 80.5624 61.8273 84.964 62.9171 85.5089C64.0069 86.0538 64.647 78.4198 64.647 78.4198C64.8375 78.0019 67.8848 71.3148 68.6254 69.9922C70.0909 69.643 71.1754 69.3732 71.6833 69.2251H71.7785C71.7785 69.2251 72.3075 71.0397 73.1699 73.6955C74.5454 77.9278 76.7515 84.3027 78.9893 88.863C79.9672 90.9121 80.7347 93.0551 81.28 95.2591C82.8671 101.475 83.0153 108.966 81.534 118.743C81.4282 119.447 81.3382 120.161 81.2642 120.859C79.894 133.911 83.2216 149.856 83.2216 149.856Z" fill="white"/>
<path d="M81.2813 95.259C79.277 99.1466 76.5621 102.624 73.277 105.512C66.5793 111.173 58.5961 111.913 52.3112 103.581C50.724 101.465 49.2057 99.6025 47.7085 97.9677C46.2759 96.3625 44.7018 94.8894 43.0054 93.5661C43.3545 87.006 44.3491 81.2765 46.333 77.3828C46.8884 76.2446 47.6185 75.2003 48.4968 74.2879C49.3327 74.1398 50.2532 73.9705 51.2319 73.7589C52.819 75.5523 55.9086 78.0494 60.2732 80.5835C60.2732 80.5835 61.8286 84.9851 62.9184 85.53C63.6507 83.2077 64.2286 80.8395 64.6483 78.4409V78.4409C64.8388 78.023 67.8861 71.3359 68.6267 70.0133C70.0922 69.6641 71.1767 69.3943 71.6846 69.2462H71.7798C71.7798 69.2462 72.3088 71.0608 73.1712 73.7166C74.5467 77.9489 76.7528 84.3238 78.9906 88.8841C79.9671 90.9265 80.7346 93.0623 81.2813 95.259V95.259Z" fill="#F9F9F9"/>
<path d="M76.3022 82.6043C77.1487 84.8051 78.0534 86.9689 78.9474 88.8311C79.9418 90.8887 80.7236 93.0425 81.2805 95.2589C82.3069 99.5024 82.7307 103.869 82.5396 108.231" stroke="#83ADDF" stroke-width="0.75" stroke-linecap="round" stroke-linejoin="round"/>
<path d="M53.7075 163.648H27.6153C27.5306 154.183 27.356 146.93 26.8323 140.725C26.3214 133.575 24.9101 126.518 22.6317 119.722C18.6957 107.908 18.9814 97.4017 21.3197 89.7836C22.6582 85.4031 24.6791 81.9802 26.9699 79.8006C27.4892 79.3303 28.0693 78.9318 28.6945 78.6156V78.6156C34.625 75.4942 48.4859 74.2669 48.4859 74.2669C46.7718 77.8485 46.9464 87.4928 47.6976 97.9466C48.5388 109.585 50.0888 122.282 50.5227 128.678C50.8348 133.313 51.5807 141.497 52.3584 149.84C52.824 154.607 53.2895 159.41 53.7075 163.648Z" fill="#C3DCF8"/>
<path d="M47.7077 97.9466C46.2751 96.3414 44.701 94.8683 43.0046 93.545C42.6342 93.2594 42.2586 92.9843 41.883 92.7356C36.4233 88.9953 30.3817 88.133 21.3193 89.7836C20.2982 89.9634 19.2401 90.1856 18.145 90.4343C21.8007 84.0382 25.5092 79.3245 28.7258 78.6156C34.6563 75.4942 48.5171 74.2669 48.5171 74.2669C46.7872 77.8485 46.9565 87.4875 47.7077 97.9466Z" fill="#D0E5F7"/>
<path d="M60.2726 80.5835C54.8711 79.0705 50.6229 86.5934 50.6229 86.5934C48.469 83.9073 46.9969 80.7399 46.3324 77.3617C46.1167 76.4311 46.0506 75.4721 46.1367 74.5207C46.4752 72.2935 49.3109 70.5529 50.1044 72.1982C50.4087 72.7664 50.7877 73.2913 51.2313 73.7589C52.8343 75.5523 55.908 78.0494 60.2726 80.5835Z" fill="#30EE95"/>
<path d="M73.1604 73.6636C73.0704 76.9596 72.7741 80.6628 72.7741 80.6628C68.7905 77.5574 66.5791 77.4886 64.627 78.4409L67.87 69.8651C69.1026 67.6696 72.9276 67.4792 73.1286 70.0821C73.1974 70.992 73.1974 72.2934 73.1604 73.6636Z" fill="#30EE95"/>
<path d="M60.2725 80.5836C60.2725 80.5836 61.8278 84.9852 62.9177 85.5301C63.2668 84.3662 64.6476 78.441 64.6476 78.441" stroke="#DDDDDD" stroke-linecap="round" stroke-linejoin="round"/>
<path d="M62.897 85.53C62.897 85.53 67.251 95.9785 69.2454 102.925C71.2399 109.871 72.6101 116.458 72.171 125.377C71.7319 134.297 70.7797 142.418 71.0019 143.365C71.224 144.311 74.2184 146.83 69.8327 149.851" stroke="#DDDDDD" stroke-linecap="round" stroke-linejoin="round"/>
<path d="M90.6965 129.848C86.3902 129.631 81.8775 124.584 78.1901 119.023C75.1518 114.326 72.4895 109.396 70.228 104.279L76.3596 95.5605C84.4486 100.565 96.754 108.506 100.108 113.802C100.353 114.177 100.561 114.576 100.727 114.992C103.171 121.351 101.806 130.403 90.6965 129.848Z" fill="#C3DCF8"/>
<path d="M90.6969 129.847C86.3905 129.631 81.8778 124.583 78.1904 119.023C81.6239 118.256 86.1683 120.214 87.073 123.303C88.713 128.906 101.717 126.255 100.109 113.781C100.354 114.156 100.561 114.555 100.727 114.971C103.172 121.351 101.807 130.403 90.6969 129.847Z" fill="#A7CAF0"/>
<path d="M100.711 114.992C100.545 114.576 100.338 114.177 100.093 113.802C96.7384 108.511 84.433 100.576 76.344 95.5605L70.2124 104.279C72.4739 109.396 75.1362 114.326 78.1744 119.023C81.8777 124.584 86.3745 129.631 90.6809 129.848" stroke="#83ADDF" stroke-width="0.75" stroke-linecap="round" stroke-linejoin="round"/>
<path d="M64.4461 98.7823L62.1289 102.665L64.8429 102.422C64.8429 102.422 84.7136 85.4399 85.0204 84.858C85.3273 84.276 83.6608 82.4403 83.1106 82.6413C82.5604 82.8423 64.4461 98.7823 64.4461 98.7823Z" fill="#683F1D"/>
<path d="M64.4463 98.7822C64.8272 96.5655 64.7849 95.7984 65.1287 95.3329C65.4726 94.8673 69.0013 92.2221 69.8531 91.9259C70.7048 91.6296 72.8792 92.693 72.8792 92.693C72.8792 92.693 74.5403 92.9046 75.5614 93.0739C76.5824 93.2432 76.5084 95.6609 77.175 96.0735C77.8415 96.4862 78.6721 96.264 79.1853 97.3326C79.6985 98.4013 78.7991 99.1208 79.1853 99.8032C79.5715 100.486 80.5449 100.909 80.2434 102.105C79.9418 103.3 79.3493 103.295 79.5186 103.977C79.6879 104.66 80.3704 106.533 78.1114 107.257C75.8524 107.982 74.2018 108.506 72.9585 108.025C71.7153 107.543 70.2393 106.702 70.0276 105.908C70.0276 105.908 67.3825 105.517 66.2715 103.385C66.2715 103.385 63.42 102.533 65.5044 101.089C65.5044 101.089 64.4833 100.062 65.1235 99.2107L64.4463 98.7822Z" fill="#FEBD9D"/>
<path d="M72.9638 108.025C71.7206 107.538 70.2446 106.702 70.0329 105.908C70.0329 105.908 67.3877 105.517 66.2768 103.385C66.2768 103.385 63.4252 102.533 65.5097 101.089C65.5097 101.089 64.4886 100.063 65.1287 99.2108L64.4463 98.7875C64.8272 96.5709 64.7849 95.8038 65.1287 95.3382" stroke="#934735" stroke-width="0.75" stroke-linecap="round" stroke-linejoin="round"/>
<path d="M65.1289 99.2055C67.9751 96.6132 73.0645 92.8571 74.9161 92.9735" stroke="#934735" stroke-width="0.75" stroke-linecap="round" stroke-linejoin="round"/>
<path d="M65.5098 101.078C69.8109 100.883 73.4136 99.0099 75.9213 97.2111" stroke="#934735" stroke-width="0.75" stroke-linecap="round" stroke-linejoin="round"/>
<path d="M66.2764 103.38C68.2444 104.2 75.6351 102.089 77.4602 100.301" stroke="#934735" stroke-width="0.75" stroke-linecap="round" stroke-linejoin="round"/>
<path d="M70.0327 105.903C71.0379 106.099 74.9475 105.76 76.9578 104.411" stroke="#934735" stroke-width="0.75" stroke-linecap="round" stroke-linejoin="round"/>
<path d="M41.883 92.7355C41.7609 95.4183 41.3439 98.0795 40.6397 100.671L40.1371 102.581C40.0578 102.893 39.9731 103.211 39.8832 103.539C39.6469 104.427 39.3965 105.357 39.132 106.327L38.9733 106.903C38.6558 108.051 38.3172 109.257 37.9628 110.495C37.8464 110.913 37.7247 111.331 37.603 111.749C36.746 114.701 35.7884 117.844 34.7409 121.029C34.5928 121.483 34.4394 121.944 34.286 122.399C33.5453 124.589 32.7676 126.795 31.9476 128.969C31.773 129.435 31.5984 129.895 31.4186 130.35L30.8895 131.715C30.7467 132.075 30.6039 132.429 30.4557 132.773C29.3183 135.556 28.1068 138.233 26.8424 140.709L26.7101 140.963C22.5149 149.025 17.6689 154.681 12.4261 154.088C8.05093 153.601 5.13064 151.871 3.22081 149.544C0.374579 146.047 -0.186203 141.206 0.0888968 137.185C0.176207 135.831 0.365433 134.485 0.654968 133.159C1.63369 128.731 9.7756 105.12 18.1873 90.4395C21.843 84.0434 25.5515 79.3297 28.7681 78.6208C36.2699 76.9437 42.2639 82.0331 41.883 92.7355Z" fill="#C3DCF8"/>
<path d="M41.883 92.7355C36.4233 88.9952 30.3817 88.1328 21.3193 89.7834C20.2982 89.9633 19.2401 90.1855 18.145 90.4342C21.8007 84.0381 25.5092 79.3244 28.7258 78.6154C36.2699 76.9437 42.2639 82.033 41.883 92.7355Z" fill="#D0E5F7"/>
<path d="M41.8827 92.7354C41.7606 95.4182 41.3437 98.0794 40.6395 100.671C38.1054 110.363 33.2329 128.292 26.8315 140.698" stroke="#83ADDF" stroke-width="0.75" stroke-linecap="round" stroke-linejoin="round"/>
<path d="M26.6838 140.979C22.4885 149.041 17.6425 154.696 12.3997 154.104C8.02456 153.617 5.10427 151.887 3.19444 149.56C0.34821 146.063 -0.21257 141.222 0.0625298 137.201C0.72826 137.328 1.36946 137.56 1.96178 137.889C4.71807 139.407 6.52738 142.793 8.64883 145.258C13.4578 150.808 19.5206 141.55 26.6838 140.979Z" fill="#A7CAF0"/>
<path d="M54.152 31.3616L47.084 39.0803C38.5083 37.9746 36.0747 32.2028 37.4872 27.2722C37.5401 27.0976 37.5983 26.9177 37.6671 26.7431C39.6669 21.95 49.5599 19.1197 53.0674 27.1558C53.6354 28.4962 54.0009 29.9137 54.152 31.3616V31.3616Z" fill="#7F542D"/>
<path d="M54.152 31.3616L47.084 39.0803C38.5083 37.9746 36.0747 32.2028 37.4872 27.2721C37.5401 27.0975 37.5983 26.9177 37.6671 26.7431C39.1008 32.589 42.9575 34.9908 44.9202 31.1711C46.6872 27.7588 50.2794 26.4521 53.0674 27.1557C53.6354 28.4962 54.0009 29.9136 54.152 31.3616V31.3616Z" fill="#704725"/>
<path d="M66.8916 32.6895C66.8916 32.6895 57.2843 51.8407 50.4015 49.0897C48.8856 48.4925 47.5792 47.4621 46.6453 46.1271C43.8361 42.1276 44.6244 35.9484 47.8409 33.0175C50.5161 30.5979 53.8145 28.9744 57.3636 28.3302C60.4162 24.41 66.6324 23.1086 69.0025 25.7538C69.0554 25.8067 69.103 25.8649 69.1506 25.9231C71.3726 28.7693 69.2458 31.3034 66.8916 32.6895Z" fill="#7F542D"/>
<path d="M66.8918 32.6896C66.8918 32.6896 57.2845 51.8408 50.4017 49.0898C48.8859 48.4925 47.5795 47.4621 46.6455 46.1272C49.8197 46.307 51.9359 45.5346 52.3168 42.9847C52.8458 39.4295 53.6235 31.9648 53.6235 31.9648C53.6235 31.9648 65.1513 32.3245 68.9657 25.7539C69.0186 25.8068 69.0662 25.865 69.1138 25.9232C71.3728 28.7694 69.246 31.3035 66.8918 32.6896Z" fill="#704725"/>
<path d="M69.0078 60.9614C63.9343 62.2522 57.9932 59.0251 54.1683 55.4964C52.0521 56.5545 48.2483 54.2373 48.5234 51.1477C48.8303 47.7936 51.322 47.2328 53.089 48.3967C53.6286 48.0122 54.0871 47.525 54.4381 46.963C55.1132 45.8475 55.5122 44.587 55.602 43.2862C56.0993 38.2286 53.6339 31.9436 53.6339 31.9436C55.5759 33.2402 57.8297 33.9932 60.1611 34.1244C62.4925 34.2556 64.8165 33.7601 66.8916 32.6895C67.008 32.6895 70.5949 38.3979 72.5365 44.3284C72.7587 45.0109 72.9597 45.6933 73.129 46.3758C73.3556 47.2913 73.5322 48.2185 73.6581 49.1532C74.4781 54.7399 73.3565 59.8504 69.0078 60.9614Z" fill="#FEBD9D"/>
<path d="M62.9028 42.9635C62.9028 43.111 62.9466 43.2552 63.0285 43.3779C63.1105 43.5006 63.227 43.5962 63.3633 43.6526C63.4996 43.7091 63.6496 43.7239 63.7943 43.6951C63.939 43.6663 64.0719 43.5953 64.1762 43.4909C64.2806 43.3866 64.3516 43.2537 64.3804 43.109C64.4092 42.9643 64.3944 42.8143 64.3379 42.678C64.2815 42.5417 64.1859 42.4252 64.0632 42.3432C63.9405 42.2613 63.7963 42.2175 63.6488 42.2175C63.4509 42.2175 63.2612 42.2961 63.1213 42.436C62.9814 42.5759 62.9028 42.7656 62.9028 42.9635V42.9635Z" fill="#683F1D"/>
<path d="M67.8706 41.5668C67.8706 41.7143 67.9144 41.8586 67.9963 41.9812C68.0783 42.1039 68.1948 42.1995 68.3311 42.256C68.4674 42.3124 68.6174 42.3272 68.7621 42.2984C68.9068 42.2696 69.0397 42.1986 69.144 42.0943C69.2483 41.9899 69.3194 41.857 69.3482 41.7123C69.3769 41.5676 69.3622 41.4177 69.3057 41.2814C69.2492 41.145 69.1536 41.0285 69.031 40.9466C68.9083 40.8646 68.7641 40.8209 68.6165 40.8209C68.4187 40.8209 68.229 40.8994 68.0891 41.0393C67.9492 41.1792 67.8706 41.369 67.8706 41.5668V41.5668Z" fill="#683F1D"/>
<path d="M54.8716 56.7079C55.9147 56.7079 56.7602 55.8623 56.7602 54.8192C56.7602 53.7761 55.9147 52.9305 54.8716 52.9305C53.8285 52.9305 52.9829 53.7761 52.9829 54.8192C52.9829 55.8623 53.8285 56.7079 54.8716 56.7079Z" fill="#30EE95"/>
<path d="M57.5855 39.8843C58.0035 40.7943 62.4844 38.9109 61.4369 37.181C60.5852 35.7843 56.9613 38.5512 57.5855 39.8843Z" fill="#7F542D"/>
<path d="M65.0188 36.4297C64.8601 37.6888 68.4205 37.4614 68.3941 36.5567C68.3676 35.652 65.2251 34.7791 65.0188 36.4297Z" fill="#7F542D"/>
<path d="M54.4221 51.3911C52.4753 49.7616 50.9675 50.6451 50.5337 52.0206" stroke="#934735" stroke-width="0.75" stroke-linecap="round" stroke-linejoin="round"/>
<path d="M53.1363 53.4649C51.6338 52.8088 52.3268 50.6027 54.1573 51.1635" stroke="#934735" stroke-width="0.75" stroke-linecap="round" stroke-linejoin="round"/>
<path d="M62.6909 48.6559C63.3074 49.2272 64.0553 49.6376 64.8683 49.8507C65.6813 50.0639 66.5343 50.0733 67.3517 49.878" stroke="#934735" stroke-width="0.75" stroke-linecap="round" stroke-linejoin="round"/>
<path d="M66.1353 40.8209C66.1353 43.2544 67.6695 44.3443 68.9973 44.6299C69.1956 44.6857 69.3793 44.7839 69.5357 44.9179C69.6922 45.0518 69.8175 45.2182 69.9031 45.4055C69.9887 45.5928 70.0325 45.7965 70.0314 46.0025C70.0303 46.2084 69.9843 46.4116 69.8967 46.598" stroke="#934735" stroke-width="0.75" stroke-linecap="round" stroke-linejoin="round"/>
<path d="M61.2838 47.6455C60.7547 48.9628 58.6121 49.3332 56.5224 48.4708C55.7108 48.1445 54.9863 47.6338 54.4062 46.9789C55.0814 45.8635 55.4804 44.6029 55.5701 43.3021C56.5689 43.1588 57.5879 43.298 58.5116 43.7042C60.596 44.5506 61.8287 46.3123 61.2838 47.6455Z" fill="#FEBD9D"/>
<path d="M73.6678 49.1479C72.5833 49.3277 71.6257 49.0685 71.1443 48.3702C70.4142 47.3121 71.0332 45.5821 72.5304 44.323C72.7526 45.0055 72.9536 45.688 73.1229 46.3704C73.3548 47.2856 73.5367 48.2128 73.6678 49.1479V49.1479Z" fill="#FEBD9D"/>
<path d="M65.6951 145.237H32.1911L23.208 97.2164H56.7173L65.6951 145.237Z" fill="#F9F9F9" stroke="#DDDDDD" stroke-linecap="round" stroke-linejoin="round"/>
<path d="M46.1519 94.804H42.5545C42.5514 94.6513 42.5355 94.4991 42.5068 94.3491C42.3283 93.5025 41.8722 92.7399 41.2109 92.1821C40.5496 91.6243 39.721 91.3033 38.8565 91.27C38.4722 91.2565 38.09 91.3322 37.74 91.4912C37.3899 91.6503 37.0815 91.8884 36.839 92.1868C36.5965 92.4852 36.4265 92.8357 36.3424 93.2109C36.2582 93.5861 36.2623 93.9757 36.3541 94.3491C36.3859 94.5035 36.4283 94.6555 36.4811 94.804H32.873L33.8518 100.042H47.1306L46.1519 94.804Z" fill="#DDDDDD"/>
<path d="M40.8286 95.6242C41.413 94.9827 41.2598 93.8916 40.4865 93.1873C39.7132 92.4829 38.6126 92.4319 38.0283 93.0735C37.4439 93.715 37.5971 94.8061 38.3704 95.5104C39.1437 96.2148 40.2442 96.2658 40.8286 95.6242Z" fill="#F9F9F9" stroke="#DDDDDD" stroke-linecap="round" stroke-linejoin="round"/>
<path d="M40.8984 118.224C44.0727 116.611 45.9825 116.204 46.4428 115.511C46.903 114.817 52.9711 110.188 54.59 109.527C56.2088 108.866 58.9916 110.511 58.9916 110.511C58.9916 110.511 61.6368 109.178 62.8959 109.527C64.155 109.876 65.1284 112.389 63.0387 114.526C61.5997 116.003 64.5094 116.584 63.372 118.23C62.843 118.981 64.1232 119.33 63.9487 121.007C63.7741 122.684 62.9382 122.854 63.0387 123.547C63.1392 124.24 63.5677 126.033 61.8695 126.721C60.1713 127.409 52.1617 128.975 50.892 129.144C49.6223 129.313 43.3796 133.709 43.3796 133.709L40.8984 118.224Z" fill="#FEBD9D"/>
<path d="M58.9918 110.511L54.3574 112.717" stroke="#934735" stroke-width="0.75" stroke-linecap="round" stroke-linejoin="round"/>
<path d="M54.5908 109.543C56.2097 108.882 58.9924 110.527 58.9924 110.527C58.9924 110.527 61.6376 109.194 62.8967 109.543C64.1558 109.892 65.1293 112.405 63.0396 114.543C61.6006 116.019 64.5103 116.601 63.3729 118.246C62.8438 118.997 64.1241 119.346 63.9495 121.023C63.7749 122.7 62.9391 122.87 63.0396 123.563C63.1401 124.256 63.5686 126.049 61.8704 126.737" stroke="#934735" stroke-width="0.75" stroke-linecap="round" stroke-linejoin="round"/>
<path d="M48.1148 135.429C43.0836 139.312 38.5921 142.507 34.619 145.094C15.2668 157.686 7.39997 155.95 3.18882 149.56C3.17644 149.545 3.16579 149.529 3.15708 149.512C0.279104 145.094 0.178586 141.264 1.95616 137.873C6.28369 129.636 21.7687 124.086 35.3491 119.246C37.9572 118.314 40.4913 117.41 42.8667 116.521L48.1148 135.429Z" fill="#C3DCF8"/>
<path d="M34.619 145.094C15.2668 157.685 7.39997 155.95 3.18882 149.559C3.17644 149.545 3.16579 149.529 3.15708 149.512C0.279104 145.094 0.178586 141.264 1.95616 137.873C4.71245 139.391 6.52176 142.777 8.64321 145.242C13.4575 150.808 19.5202 141.55 26.6834 140.978C28.7996 140.804 31.0057 141.386 33.3017 143.322C33.8879 143.788 34.3421 144.399 34.619 145.094V145.094Z" fill="#A7CAF0"/>
<path d="M21.6152 152.215C26.1552 150.238 30.5075 147.855 34.619 145.094C38.608 142.507 43.0836 139.312 48.1148 135.429L42.8509 116.516" stroke="#83ADDF" stroke-width="0.75" stroke-linecap="round" stroke-linejoin="round"/>
<path d="M42.8509 116.516C31.1539 120.912 15.4996 125.599 6.96094 132.249" stroke="#83ADDF" stroke-width="0.75" stroke-linecap="round" stroke-linejoin="round"/>
<path d="M179.808 138.582C177.624 137.286 175.637 135.683 173.91 133.821C168.143 127.869 162.604 118.674 158.509 110.897C155.695 105.554 153.568 100.877 152.515 98.3749C152.457 98.2426 152.399 98.0998 152.341 97.9517C152.193 97.5866 152.029 97.1793 151.865 96.7402C148.336 87.5243 141.067 62.4108 156.414 58.4589C162.578 56.8718 165.81 59.517 172.46 69.8703C173.756 71.8859 175.185 74.1925 176.788 76.8166C186.644 92.9575 199.462 119.573 200.663 126.864C201.864 134.154 189.67 144.068 179.808 138.582Z" fill="#2BDA88"/>
<path d="M172.465 69.8651C169.651 69.8016 166.344 71.0025 163.387 74.2455C160.906 76.97 158.673 81.123 157.187 87.1858C156.369 90.8148 154.521 94.1306 151.865 96.7349C148.336 87.5191 141.067 62.4056 156.414 58.4537C162.583 56.8771 165.821 59.5382 172.465 69.8651Z" fill="#30EE95"/>
<path d="M173.91 133.826C168.143 127.874 162.604 118.679 158.509 110.903C155.695 105.559 153.568 100.883 152.515 98.3803C152.457 98.248 152.399 98.1052 152.341 97.957L160.53 90.8521C165.366 91.0002 169.598 104.755 165.593 108.21C162.17 111.157 162.419 117.145 168.894 118.262C173.661 119.066 173.941 130.265 173.91 133.826Z" fill="#28C079"/>
<path d="M135.379 72.4627C125.857 71.7062 124.682 63.0776 125.285 60.3847C125.888 57.6919 127.618 45.3812 128.205 39.6094C129.639 25.4682 144.421 30.4782 144.325 43.4449C144.325 44.3231 144.262 46.3652 144.22 48.8358C144.177 51.3064 144.156 54.3273 144.246 56.9248C144.246 57.0571 144.246 57.1894 144.246 57.3216C144.447 62.5221 144.918 73.2192 135.379 72.4627Z" fill="#FEBD9D"/>
<path d="M144.246 56.9249C134.935 57.1471 134.782 50.8516 135.353 46.3759L144.22 48.8359C144.177 51.3489 144.156 54.3274 144.246 56.9249Z" fill="#F4A789"/>
<path d="M163.387 74.256C162.932 77.8535 162.297 81.5356 161.71 84.6675C161.181 87.5719 160.684 90.0002 160.446 91.4657C160.414 91.6667 160.382 91.8519 160.361 91.9947C160.139 93.5818 159.419 101.041 158.509 110.881C156.996 127.282 154.949 150.226 153.748 163.627H92.3159C92.845 159.548 93.4798 154.723 94.1094 149.835C95.6965 137.423 97.3153 124.642 97.3788 122.933C97.5058 119.589 95.9187 98.4648 94.3368 87.191C94.2892 86.8577 94.2416 86.5297 94.194 86.2123C92.7021 76.1235 95.9822 71.3516 100.812 69.5635C101.241 69.4023 101.679 69.2663 102.124 69.1561C106.706 68.0028 114.123 65.6591 122.513 63.1462C124.238 62.6172 126.005 62.0881 127.804 61.5591C128.507 61.3581 129.29 61.157 130.147 60.9613C130.486 61.2046 130.846 61.448 131.206 61.6914L131.809 62.0617C131.925 62.1358 132.041 62.2045 132.158 62.268C132.846 62.6754 133.586 63.0669 134.369 63.4319C134.655 63.5694 134.951 63.7017 135.253 63.8287C135.544 63.9556 135.84 64.0773 136.147 64.1937H136.173C136.417 64.2889 136.671 64.3789 136.924 64.4688H136.967L137.337 64.5958L138.104 64.8444C138.707 65.0349 139.326 65.2042 139.966 65.3735C140.638 64.6169 141.204 63.908 141.686 63.2573L142.109 62.6595L142.374 62.2627C142.532 62.0141 142.68 61.7813 142.813 61.5538C142.945 61.3263 143.104 61.0248 143.225 60.8026C143.467 60.3402 143.679 59.8631 143.86 59.3742L143.977 59.0303C144.934 58.9509 145.918 58.8769 146.929 58.8134C148.188 58.7287 149.484 58.66 150.817 58.5965C152.609 58.5118 154.464 58.4519 156.383 58.4166C157.772 58.3849 159.193 58.369 160.647 58.369C164.466 58.406 164.408 66.1194 163.387 74.256Z" fill="#2BDA88"/>
<path d="M161.715 84.6783C161.102 87.9795 160.551 90.6723 160.361 92.0213C160.139 93.6084 159.419 101.068 158.509 110.908" stroke="#105F3A" stroke-width="0.75" stroke-linecap="round" stroke-linejoin="round"/>
<path d="M163.387 74.2562C160.906 76.9807 158.673 81.1337 157.187 87.1965C156.635 89.4968 155.696 91.6865 154.409 93.6719C153.68 94.783 152.826 95.8071 151.865 96.7244C149.778 98.7137 147.175 100.077 144.352 100.66C143.097 100.922 141.815 101.034 140.533 100.994C136.967 100.888 133.126 99.6712 129.211 97.1583C127.191 95.838 125.31 94.3154 123.598 92.6138C120.456 89.5137 117.493 87.2176 114.604 85.7099C108.097 82.3293 101.839 82.8848 94.3581 87.207C94.3105 86.8738 94.2629 86.5457 94.2153 86.2283C92.7234 76.1396 96.0034 71.3676 100.834 69.5795C101.263 69.4183 101.701 69.2823 102.146 69.1721C106.727 68.0188 114.144 65.6752 122.535 63.1622C124.259 62.6332 126.026 62.1041 127.825 61.5751C128.529 61.3741 129.312 61.1731 130.169 60.9773C130.513 61.2207 130.867 61.464 131.227 61.7074C133.375 63.0748 135.699 64.1428 138.136 64.8816C138.739 65.0721 139.358 65.2413 139.998 65.4106C140.67 64.6541 141.236 63.9452 141.718 63.2945C142.623 62.1096 143.355 60.8022 143.892 59.4113C143.934 59.2897 143.977 59.1733 144.008 59.0675C144.966 58.9881 145.95 58.914 146.96 58.8506C148.22 58.7659 149.521 58.6971 150.854 58.6337C152.646 58.549 154.501 58.4891 156.42 58.4538C157.809 58.422 159.231 58.4062 160.684 58.4062C164.466 58.4062 164.408 66.1196 163.387 74.2562Z" fill="#30EE95"/>
<path d="M107.928 98.6396C107.928 98.6396 119.678 101.02 115.133 110.511C111.319 118.473 115.578 122.044 119.789 119.346C124.386 116.399 133.205 119.918 133.205 126.631C133.205 139.328 105.225 147.65 101.754 130.911C98.2836 114.172 96.0669 96.8462 107.928 98.6396Z" fill="#28C079"/>
<path d="M154.41 93.672L154.976 94.3174L145.305 110.215L144.876 114.892L128.788 98.6608L129.238 97.1795L130.518 92.9472L118.562 81.0438C118.657 79.9858 121.35 68.4527 122.63 63.284L125.228 62.8079L131.243 61.7128C133.391 63.0802 135.716 64.1482 138.152 64.887C138.755 65.0774 139.374 65.2467 140.015 65.416C140.686 64.6595 141.252 63.9506 141.734 63.2999C142.639 62.115 143.371 60.8075 143.908 59.4167L146.977 58.8559C148.236 58.7713 149.537 58.7025 150.87 58.639L157.219 80.4831L151.352 90.1962L154.41 93.672Z" fill="#20AB6A"/>
<path d="M148.548 62.2312C148.215 68.1141 147.305 76.7269 146.347 84.8265C145.638 90.8363 144.898 96.5605 144.353 100.698C143.824 104.528 143.506 106.972 143.506 106.972C142.4 105.051 141.408 103.068 140.533 101.031C139.475 98.6132 138.216 95.6771 136.83 92.27C133.984 85.3925 130.444 76.5523 126.096 66.1884L125.223 62.8502L131.238 61.7551C133.386 63.1226 135.71 64.1905 138.147 64.9293C138.75 65.1198 139.369 65.2891 140.009 65.4584C140.681 64.7018 141.247 63.9929 141.729 63.3422C142.634 62.1573 143.366 60.8499 143.903 59.459L146.971 58.8983L148.548 62.2312Z" fill="white"/>
<path d="M144.659 65.9292C144.659 65.9292 144.474 66.9132 144.161 68.1405C143.632 70.1932 142.754 72.9336 141.749 72.9336C140.744 72.9336 138.961 71.3941 137.612 70.1403C136.681 69.2727 135.988 68.5532 135.988 68.5532L138.136 64.9293C138.739 65.1197 139.358 65.289 139.998 65.4583C140.67 64.7018 141.236 63.9929 141.717 63.3422L144.659 65.9292Z" fill="#29D283"/>
<path d="M146.347 84.8265C144.976 96.4177 143.506 106.956 143.506 106.956C141.919 104.348 139.723 99.3116 136.808 92.2542C137.591 88.297 139.189 78.933 140.31 71.0027L142.707 70.4736C143.733 73.7748 145.352 80.5571 146.347 84.8265Z" fill="#29D283"/>
<path d="M139.988 65.4264L137.602 70.1401L136.194 72.9335C136.194 72.9335 127.73 68.9075 122.609 63.305C122.573 63.2629 122.543 63.2167 122.519 63.1674C121.894 61.7549 124.344 54.5811 125.905 56.9248C127.072 58.5161 128.503 59.8956 130.137 61.0037C132.57 62.7295 135.266 64.0514 138.12 64.9185C138.728 65.1037 139.369 65.2783 139.988 65.4264Z" fill="#D9D9D9"/>
<path d="M145.749 69.1773L144.162 68.1192L139.998 65.4053C140.67 64.6487 141.236 63.9398 141.717 63.2891C142.703 62.0104 143.477 60.5814 144.008 59.0568C144.171 58.6082 144.262 58.1369 144.278 57.6601C145.294 57.6844 146.26 58.1083 146.965 58.8399V58.8399C147.44 59.3842 147.754 60.0487 147.875 60.7603C148.479 63.9239 145.749 69.1773 145.749 69.1773Z" fill="#D9D9D9"/>
<path d="M140.384 163.648L144.876 114.913L145.304 110.236L143.506 106.956" stroke="#105F3A" stroke-width="0.75" stroke-linecap="round" stroke-linejoin="round"/>
<path d="M232.595 57.0888C231.008 54.9727 229.548 54.1473 228.215 54.0362C228.342 53.7506 228.463 53.4543 228.585 53.1475C229.643 50.4705 228.638 49.4442 227.728 49.714C226.818 49.9838 222.247 55.052 221.724 56.0625C220.322 58.7923 216.433 69.6482 216.084 70.6586C216.878 77.1076 225.39 79.1762 225.39 79.1762C226.284 76.4887 228.009 74.8328 229.908 73.5207C231.807 72.2087 232.701 70.0767 234.669 65.8973C236.082 62.9558 235.902 61.5698 232.595 57.0888Z" fill="#FEBD9D"/>
<path d="M232.595 57.0888C231.008 54.9727 229.548 54.1473 228.215 54.0362C228.342 53.7506 228.464 53.4543 228.585 53.1475C229.643 50.4705 228.638 49.4442 227.728 49.714C226.818 49.9838 222.247 55.052 221.724 56.0625" stroke="#EF8A66" stroke-width="0.75" stroke-linecap="round" stroke-linejoin="round"/>
<path d="M230.21 84.4295C231.172 82.2181 226.337 79.8215 226.337 79.8215L223.692 84.6993C223.692 84.6993 228.178 87.5614 230.21 84.4295Z" fill="#2BDA88"/>
<path d="M213.105 74.1766C214.983 71.3145 216.491 68.9709 216.491 68.9709C219.728 73.3263 223.671 77.1099 228.156 80.1653L225.76 84.678C222.885 84.2702 220.18 83.0726 217.946 81.2185C215.712 79.3645 214.036 76.9267 213.105 74.1766V74.1766Z" fill="#D9D9D9"/>
<path d="M179.813 138.582C185.104 143.872 197.552 144.989 209.117 122.711C220.682 100.433 230.194 84.5249 230.194 84.5249C230.194 84.5249 224.417 85.8528 214.053 71.7592C214.053 71.7592 203.387 86.0432 192.616 99.1105C180.205 114.162 170.375 129.118 179.813 138.582Z" fill="#2BDA88"/>
<path d="M214.053 71.7536C214.053 71.7536 203.387 86.0377 192.616 99.1049C188.841 103.575 185.346 108.275 182.152 113.177" stroke="#105F3A" stroke-width="0.75" stroke-linecap="round" stroke-linejoin="round"/>
<path d="M226.39 67.3628C226.39 67.3628 228.713 61.9719 225.613 58.0411C225.613 58.0411 227.84 54.9303 228.216 54.0363" stroke="#EF8A66" stroke-width="0.75" stroke-linecap="round" stroke-linejoin="round"/>
<path d="M226.39 58.3373L250.911 2" stroke="#DDDDDD" stroke-width="3" stroke-linecap="round" stroke-linejoin="round"/>
<path d="M237.346 60.5805C239.399 61.6386 235.802 66.929 233.945 66.5586C231.569 66.0508 235.167 59.4801 237.346 60.5805Z" fill="#FEBD9D" stroke="#EF8A66" stroke-width="0.75" stroke-linecap="round" stroke-linejoin="round"/>
<path d="M235.654 56.5704C238.193 57.8982 233.686 64.8498 231.39 64.3314C229.094 63.8129 232.956 55.1578 235.654 56.5704Z" fill="#FEBD9D" stroke="#EF8A66" stroke-width="0.75" stroke-linecap="round" stroke-linejoin="round"/>
<path d="M234.066 54.1051C236.478 55.7187 231.304 63.0988 229.056 62.3687C226.808 61.6386 231.495 52.4069 234.066 54.1051Z" fill="#FEBD9D" stroke="#EF8A66" stroke-width="0.75" stroke-linecap="round" stroke-linejoin="round"/>
<path d="M232.479 48.7882C235.161 49.8939 231.543 58.1311 229.199 57.8824C226.855 57.6338 229.612 47.6085 232.479 48.7882Z" fill="#FEBD9D" stroke="#EF8A66" stroke-width="0.75" stroke-linecap="round" stroke-linejoin="round"/>
<path d="M114.398 92.5554C114.34 93.0474 114.271 93.5499 114.186 94.0525C114.139 94.3276 114.096 94.5816 114.043 94.8884C113.991 95.1952 113.938 95.4545 113.874 95.7402C113.779 96.2269 113.673 96.7189 113.551 97.2109C113.366 97.978 113.176 98.798 112.985 99.618C112.917 99.8984 112.853 100.184 112.79 100.47C112.592 101.327 112.391 102.209 112.187 103.115C112.118 103.417 112.049 103.729 111.98 104.041C111.938 104.221 111.901 104.406 111.859 104.57C111.763 104.977 111.673 105.385 111.583 105.802C111.007 108.405 110.393 111.162 109.742 113.976C109.584 114.669 109.42 115.367 109.256 116.066C109.208 116.277 109.155 116.494 109.102 116.706L108.753 118.171C108.753 118.282 108.7 118.399 108.668 118.515C108.541 119.044 108.415 119.573 108.282 120.102C108.182 120.52 108.076 120.933 107.97 121.351C107.864 121.769 107.796 122.049 107.7 122.409C107.441 123.409 107.171 124.414 106.907 125.403L106.589 126.562C105.87 129.128 105.119 131.62 104.32 133.969C104.214 134.281 104.103 134.593 103.997 134.894C103.727 135.661 103.468 136.413 103.172 137.143C103.061 137.434 102.95 137.725 102.833 138.01C102.424 139.037 102.006 140.015 101.579 140.947C101.352 141.433 101.124 141.909 100.892 142.364C100.833 142.486 100.77 142.608 100.706 142.724C100.484 143.147 100.262 143.555 100.035 143.946C99.8071 144.338 99.6007 144.687 99.3838 145.036V145.073C99.1511 145.427 98.9236 145.771 98.6855 146.099C98.21 146.762 97.679 147.383 97.0984 147.956C97.019 148.041 96.9344 148.12 96.8497 148.194C96.3717 148.652 95.8385 149.048 95.2626 149.374L94.9558 149.528H94.9187C94.7918 149.587 94.6648 149.64 94.5378 149.686C94.4056 149.739 94.2733 149.781 94.1358 149.824C84.3697 152.659 78.8413 147.131 77.9366 138.878C77.8599 138.117 77.8245 137.352 77.8308 136.587V136.587C77.8308 130.35 79.6718 119.42 81.952 109.469C83.2481 103.813 84.6871 98.4753 86.0097 94.4916L86.6446 92.5659C90.3478 81.2974 93.4639 70.7166 100.839 69.558C108.039 68.4312 113.816 75.2981 114.594 85.6884C114.757 87.9782 114.691 90.2786 114.398 92.5554V92.5554Z" fill="#2BDA88"/>
<path d="M94.1099 149.856C94.2462 149.817 94.3804 149.771 94.5119 149.718C94.6389 149.672 94.7659 149.619 94.8928 149.559H94.9299C95.0352 149.515 95.1377 149.463 95.2367 149.406C95.8126 149.08 96.3458 148.684 96.8238 148.226C96.9085 148.152 96.9878 148.073 97.0725 147.988C97.6531 147.415 98.1841 146.794 98.6596 146.131C98.8977 145.809 99.1304 145.465 99.3579 145.105V145.068C99.5801 144.719 99.797 144.359 100.009 143.978C100.238 143.587 100.46 143.179 100.675 142.756C100.739 142.64 100.802 142.518 100.86 142.396C101.093 141.941 101.321 141.465 101.548 140.978C101.978 140.047 102.396 139.069 102.802 138.042C102.918 137.757 103.029 137.466 103.141 137.175C103.421 136.445 103.67 135.693 103.966 134.926C104.072 134.619 104.183 134.313 104.289 134C105.087 131.651 105.839 129.16 106.558 126.594C106.664 126.213 106.77 125.827 106.876 125.435C107.145 124.446 107.405 123.441 107.669 122.441C107.764 122.086 107.849 121.737 107.939 121.383C108.029 121.028 108.151 120.552 108.251 120.134C108.383 119.605 108.51 119.076 108.637 118.547C108.669 118.431 108.695 118.314 108.722 118.203C108.838 117.711 108.96 117.225 109.071 116.738C109.124 116.526 109.177 116.309 109.225 116.098C109.389 115.399 109.553 114.701 109.711 114.008C110.362 111.194 110.976 108.437 111.552 105.834C111.648 105.422 111.737 105.009 111.827 104.602C111.87 104.417 111.907 104.231 111.949 104.073L112.155 103.147C112.36 102.23 112.561 101.348 112.758 100.502C112.822 100.216 112.885 99.9303 112.954 99.6499C113.145 98.814 113.335 98.0099 113.52 97.2428C113.642 96.7508 113.748 96.2588 113.843 95.772C113.906 95.4864 113.965 95.2007 114.012 94.9203C114.06 94.6399 114.113 94.3595 114.155 94.0844C114.24 93.5554 114.309 93.0792 114.367 92.5872C114.367 92.4708 114.399 92.3545 114.409 92.2381" stroke="#105F3A" stroke-width="0.75" stroke-linecap="round" stroke-linejoin="round"/>
<path d="M114.583 85.7359C108.076 82.3554 101.817 82.9109 94.3368 87.2331C91.6321 88.8296 89.0518 90.6281 86.6182 92.6134C90.3214 81.3449 93.4375 70.7642 100.812 69.6056C108.012 68.4575 113.79 75.3245 114.583 85.7359Z" fill="#30EE95"/>
<path d="M100.035 143.957C99.8229 144.338 99.606 144.698 99.3838 145.047V145.084C99.1563 145.443 98.9236 145.787 98.6855 146.11C98.21 146.773 97.679 147.394 97.0984 147.967C97.019 148.052 96.9344 148.131 96.8497 148.205C96.3717 148.663 95.8385 149.059 95.2626 149.385L94.9558 149.538H94.9187C94.7918 149.598 94.6648 149.651 94.5378 149.697C94.4056 149.75 94.2733 149.792 94.1358 149.834C84.3697 152.67 78.8413 147.142 77.9366 138.889C77.8599 138.128 77.8245 137.363 77.8308 136.598V136.598C77.8308 130.361 79.6718 119.431 81.952 109.479C87.3112 112.622 88.7766 119.436 86.105 126.853C85.5123 128.486 84.7684 130.061 83.883 131.556C78.0001 141.576 90.0727 148.776 100.035 143.957Z" fill="#28C079"/>
<path d="M140.876 22.6164C143.251 21.1562 146.251 20.9288 146.135 31.1604L140.876 22.6164Z" fill="#BF8228"/>
<path d="M143.204 21.86C142.501 23.4308 141.58 24.8948 140.469 26.2087L141.114 37.9163L128.417 38.3396L126.439 38.4083C125.28 34.3083 125.105 31.5308 124.037 30.8272C123.768 30.6032 123.581 30.2965 123.504 29.9549C123.427 29.6133 123.466 29.256 123.614 28.9386C124.01 27.817 122.698 28.4465 121.852 27.0393C121.381 26.2563 121.244 23.0027 124.783 23.3995C123.624 21.1352 125.418 19.3206 129.602 19.4793C128.645 19.0191 128.38 17.4425 130.703 17.3314C133.511 17.1648 136.327 17.1648 139.136 17.3314C140.228 17.4221 141.274 17.81 142.162 18.453C142.706 18.81 143.108 19.3461 143.298 19.9683C143.488 20.5905 143.455 21.2597 143.204 21.86Z" fill="#BF8228"/>
<path d="M143.204 21.8599C142.501 23.4308 141.58 24.8947 140.469 26.2086L141.114 37.9163L128.417 38.3395C128.83 31.589 127.888 29.3194 127.439 27.2297C126.989 25.14 127.835 22.3837 130.496 22.9974C133.158 23.6111 137.549 22.0504 136.813 20.5955C136.284 19.5375 138.49 17.2361 142.162 18.4424C142.708 18.7998 143.112 19.3377 143.302 19.9623C143.493 20.5868 143.458 21.2584 143.204 21.8599V21.8599Z" fill="#B57724"/>
<path d="M129.598 19.4847L134.534 19.7492" stroke="#9B621F" stroke-width="0.75" stroke-linecap="round" stroke-linejoin="round"/>
<path d="M124.778 23.3996L130.126 23.9286" stroke="#9B621F" stroke-width="0.75" stroke-linecap="round" stroke-linejoin="round"/>
<path d="M143.96 50.9254C135.882 52.5125 129.19 41.0324 129.19 41.0324C125.428 41.7942 124.037 38.1756 125.153 35.742C125.272 35.4792 125.417 35.2293 125.587 34.996C125.893 34.5263 126.333 34.1589 126.849 33.9411C127.366 33.7233 127.936 33.6651 128.486 33.774C129.538 34.0424 130.478 34.6391 131.168 35.4775C131.93 36.3133 132.813 35.3664 132.189 33.8904C131.565 32.4143 130.935 27.3303 131.703 26.2881C132.47 25.2459 139.442 23.8122 141.532 23.7064C141.668 23.6978 141.804 23.6978 141.939 23.7064C142.036 23.7217 142.128 23.7578 142.209 23.8122C142.648 24.1424 143.026 24.5471 143.326 25.0078C143.579 25.3464 143.855 25.7484 144.114 26.1928C144.857 27.4155 145.531 28.6783 146.135 29.9755C146.352 30.4357 146.569 30.9066 146.775 31.3827C146.981 31.8588 147.15 32.2556 147.304 32.6947C147.605 33.4301 147.875 34.1602 148.113 34.8744C148.304 35.4404 148.473 35.9959 148.616 36.525C148.616 36.5567 148.616 36.5885 148.642 36.6202C150.034 41.8259 150.801 49.5711 143.96 50.9254Z" fill="#FEBD9D"/>
<path d="M139.051 37.3766C140.712 37.6676 143.215 37.493 144.231 36.5037C144.231 36.5037 144.611 40.0906 142.464 40.3869C139.977 40.7308 139.051 37.3766 139.051 37.3766Z" fill="white" stroke="#EF8A66" stroke-width="0.75" stroke-linecap="round" stroke-linejoin="round"/>
<path d="M145.981 46.5873C146.253 47.4508 146.171 48.3867 145.754 49.1901" stroke="#EF8A66" stroke-width="0.75" stroke-linecap="round" stroke-linejoin="round"/>
<path d="M129.194 41.0322C129.872 40.8505 130.507 40.5358 131.062 40.1064" stroke="#EF8A66" stroke-width="0.75" stroke-linecap="round" stroke-linejoin="round"/>
<path d="M126.671 37.0065C127.872 35.4194 130.179 36.4192 130.814 38.0328" stroke="#EF8A66" stroke-width="0.75" stroke-linecap="round" stroke-linejoin="round"/>
<path d="M130.491 37.4191C127.999 35.5463 127.126 39.7733 130.036 39.1702" stroke="#EF8A66" stroke-width="0.75" stroke-linecap="round" stroke-linejoin="round"/>
<path d="M140.59 28.3884C140.515 29.494 142.034 31.2822 143.43 31.7107C144.827 32.1392 145.261 32.5254 144.896 33.6734" stroke="#EF8A66" stroke-width="0.75" stroke-linecap="round" stroke-linejoin="round"/>
<path d="M133.856 28.436C134.067 29.3142 138.85 28.2879 138.205 26.6532C137.559 25.0184 133.501 27.0129 133.856 28.436Z" fill="#BF8228"/>
<path d="M140.3 25.6055C140.237 26.6636 144.442 26.6318 144.427 25.8436C144.411 25.0553 140.427 23.6851 140.3 25.6055Z" fill="#BF8228"/>
<path d="M137.734 30.8166C137.734 30.9641 137.778 31.1083 137.86 31.231C137.942 31.3536 138.058 31.4493 138.194 31.5057C138.331 31.5622 138.481 31.5769 138.625 31.5482C138.77 31.5194 138.903 31.4483 139.007 31.344C139.112 31.2397 139.183 31.1068 139.211 30.9621C139.24 30.8174 139.225 30.6674 139.169 30.5311C139.113 30.3948 139.017 30.2783 138.894 30.1963C138.772 30.1144 138.627 30.0706 138.48 30.0706C138.282 30.0706 138.092 30.1492 137.952 30.2891C137.812 30.429 137.734 30.6187 137.734 30.8166V30.8166Z" fill="#683F1D"/>
<path d="M143.505 30.4781C143.917 30.4781 144.251 30.1441 144.251 29.7321C144.251 29.3202 143.917 28.9862 143.505 28.9862C143.093 28.9862 142.759 29.3202 142.759 29.7321C142.759 30.1441 143.093 30.4781 143.505 30.4781Z" fill="#683F1D"/>
<path d="M138.046 36.6043C137.585 37.6359 136.094 37.9798 134.708 37.3661C133.321 36.7524 132.591 35.4139 133.025 34.3823C133.459 33.3507 134.977 33.0121 136.363 33.6258C137.749 34.2395 138.501 35.5727 138.046 36.6043Z" fill="#F4AF90"/>
<path d="M148.658 36.599C147.537 37.0963 146.341 36.927 145.801 36.1228C145.172 35.1864 145.68 33.7422 146.939 32.8957C147.061 32.8138 147.188 32.7396 147.32 32.6735C147.621 33.4089 147.891 34.1389 148.129 34.8531C148.32 35.4192 148.489 35.9747 148.632 36.5037C148.642 36.5355 148.648 36.5672 148.658 36.599Z" fill="#F4AF90"/>
<path d="M163.371 121.648C169.037 120.918 171.01 119.637 173.206 118.796C175.401 117.955 177.046 118.066 177.3 119.325C177.3 119.325 179.491 118.346 180.226 118.738C181.321 119.325 180.633 121.383 177.306 122.811C173.978 124.24 164.138 128.282 162.313 127.732C160.488 127.181 159.101 123.669 163.371 121.648Z" fill="#FEBD9D" stroke="#EF8A66" stroke-width="0.75" stroke-linecap="round" stroke-linejoin="round"/>
<path d="M148.943 138.868C148.943 138.868 161.937 132.985 165.127 131.197C168.317 129.409 178.157 124.885 179.109 123.298C180.061 121.711 178.511 121.558 176.607 122.24C174.702 122.923 167.19 125.446 166.47 125.414C165.751 125.383 161.709 125.414 161.709 125.414C162.037 122.24 167.296 120.066 168.058 118.537C168.904 116.892 166.507 116.95 164.994 117.399C163.481 117.849 157.36 119.981 155.847 120.822C154.334 121.663 152.985 123.589 149.832 124.06L148.943 138.868Z" fill="#FEBD9D"/>
<path d="M174.083 126.573C176.591 125.24 178.691 123.991 179.109 123.303C180.061 121.716 178.511 121.563 176.607 122.245C174.702 122.928 167.19 125.451 166.47 125.42C165.751 125.388 161.709 125.42 161.709 125.42C162.037 122.245 167.296 120.071 168.058 118.542C168.904 116.897 166.507 116.955 164.994 117.405C164.111 117.669 161.64 118.505 159.445 119.325" stroke="#EF8A66" stroke-width="0.75" stroke-linecap="round" stroke-linejoin="round"/>
<path d="M167.026 123.298C170.465 122.192 176.269 119.849 177.3 119.341" stroke="#EF8A66" stroke-width="0.75" stroke-linecap="round" stroke-linejoin="round"/>
<path d="M161.709 125.414C161.639 125.811 161.639 126.218 161.709 126.615" stroke="#EF8A66" stroke-width="0.75" stroke-linecap="round" stroke-linejoin="round"/>
<path d="M144.029 124.081H149.854V140.778L144.632 141.783L144.029 124.081Z" fill="#D9D9D9"/>
<path d="M146.347 143.084C146.49 143.222 136.046 145.692 123.826 148.142C110.436 150.824 94.9136 153.485 88.8508 153.025C80.3862 152.385 76.4607 143.73 77.8044 136.625C78.2339 134.036 79.5148 131.664 81.4442 129.885C82.8369 128.666 84.3977 127.654 86.0786 126.88C87.9403 126.022 89.8923 125.376 91.898 124.954H91.9509L92.6175 124.816L93.501 124.652C93.8714 124.589 94.2417 124.531 94.6173 124.478L94.8554 124.446C95.0829 124.409 95.305 124.383 95.5325 124.356L96.2626 124.272H96.2944L96.998 124.203C97.2413 124.176 97.49 124.155 97.7333 124.139L98.4634 124.086C98.9554 124.049 99.4421 124.023 99.9288 124.007H100.458H100.765L102.161 123.975H102.812C103.373 123.975 103.928 123.975 104.473 123.975H105.431H105.484L107.304 124.018C108.362 124.018 109.388 124.071 110.351 124.097H111.409H113.589C121.678 124.002 145.289 123.319 145.289 123.319C145.289 123.319 146.05 142.793 146.347 143.084Z" fill="#2BDA88"/>
<path d="M145.305 123.298C145.305 123.298 121.694 123.981 113.605 124.081C108.219 124.145 99.6274 123.251 91.9141 124.943" stroke="#105F3A" stroke-width="0.75" stroke-linecap="round" stroke-linejoin="round"/>
<path d="M123.826 148.163C110.436 150.845 94.9136 153.506 88.8508 153.046C80.3862 152.406 76.4607 143.751 77.8044 136.646C78.2339 134.057 79.5148 131.685 81.4442 129.906C82.8369 128.687 84.3977 127.675 86.0786 126.901C85.4859 128.534 84.7421 130.109 83.8567 131.604C77.9896 141.608 90.0728 148.808 100.035 143.989C100.435 143.802 100.825 143.596 101.204 143.37C109.425 138.471 120.08 145.354 123.826 148.163Z" fill="#28C079"/>
<path d="M145.627 143.328C143.066 144.021 134.073 146.089 123.825 148.142C110.435 150.824 94.9134 153.485 88.8506 153.025" stroke="#105F3A" stroke-width="0.75" stroke-linecap="round" stroke-linejoin="round"/>
</svg>
