<svg width="239" height="324" viewBox="0 0 239 324" fill="none" xmlns="http://www.w3.org/2000/svg">
<path d="M236.138 137.337C235.14 136.801 234.115 136.316 233.067 135.885C230.487 134.789 227.789 133.995 225.027 133.518C215.156 131.765 204.995 134.076 194.342 138.71C184.672 142.909 174.6 149.028 163.981 155.761C163.775 154.098 163.67 152.424 163.668 150.748C163.668 129.453 180.418 112.179 201.064 112.179C208.789 112.251 216.304 114.706 222.581 119.209C228.858 123.712 233.593 130.043 236.138 137.337Z" fill="#FFE05C"/>
<path d="M225.509 146.27C224.917 152.4 222.383 166.626 218.876 184.671C218.307 187.63 217.76 190.69 217.079 193.827C208.436 237.51 195.583 297.373 190.067 322.956H39.1758L50.4092 258.257C50.4092 258.257 12.7673 249.793 5.14065 235.545C-4.69693 217.165 0.674043 203.084 12.0638 183.811C20.3269 169.786 36.8308 137.906 49.6833 117.796C54.5072 110.236 58.8174 104.396 61.9663 101.682C78.6154 87.6686 95.8005 93.129 111.579 97.2159C111.579 97.2159 111.579 100.566 111.757 106.004C111.858 110.415 112.003 116.21 112.204 122.753C112.55 134.266 113.075 148.123 113.823 160.898C113.957 163.131 114.091 165.364 114.236 167.598C115.353 183.755 116.782 197.01 118.77 199.623C119.272 200.282 120.032 200.103 121.003 199.232C123.828 196.641 128.44 187.999 133.576 176.955C135.128 173.605 136.714 170.11 138.322 166.47C147.054 146.638 156.188 123.356 160.398 112.581C161.727 109.164 162.553 106.998 162.698 106.607C162.696 106.585 162.696 106.562 162.698 106.54L165.758 106.953L172.346 107.857C178.074 108.639 185.913 109.733 194.679 111.017C196.912 111.341 199 111.721 201.077 112.212C210.959 114.513 219.401 118.912 223.354 128.113C224.103 129.863 224.668 131.685 225.04 133.551C225.832 137.743 225.99 142.031 225.509 146.27Z" fill="#FED81D"/>
<path d="M225.03 133.562C215.159 131.809 204.998 134.121 194.345 138.755C184.675 142.953 174.603 149.073 163.983 155.806L160.634 157.939C152.56 163.086 145.101 165.699 138.301 166.481C149.802 140.374 162.007 108.304 162.688 106.618C162.686 106.596 162.686 106.573 162.688 106.551L172.336 107.869C178.064 108.65 185.903 109.745 194.669 111.029C196.902 111.352 198.99 111.732 201.067 112.223C210.949 114.524 219.391 118.923 223.344 128.124C224.093 129.874 224.658 131.696 225.03 133.562Z" fill="#FFE05C"/>
<path d="M50.4082 258.302C65.226 262.255 95.6432 269.413 95.6432 269.413" stroke="#886F20" stroke-width="0.75" stroke-linecap="round" stroke-linejoin="round"/>
<path d="M67.8418 154.589L60.3939 205.451C49.8528 200.382 45.1853 198.964 40.6071 199.6C39.8813 189.606 62.3592 198.819 57.8144 178.652C55.0452 166.369 60.606 157.436 67.8418 154.589Z" fill="#FCC71F"/>
<path d="M60.3921 205.452L67.8401 154.589L69.0572 146.259" stroke="#886F20" stroke-width="0.75" stroke-linecap="round" stroke-linejoin="round"/>
<path d="M35.0889 201.119C45.2391 197.412 47.7738 198.886 82.2333 216.473" stroke="#886F20" stroke-width="0.75" stroke-linecap="round" stroke-linejoin="round"/>
<path d="M111.578 97.2603C111.578 97.2603 112.125 131.876 113.811 160.909C102.098 153.84 94.3703 141.926 91.1544 134.567C86.3975 123.725 77.3751 110.381 49.6602 117.818C54.484 110.258 58.7943 104.418 61.9432 101.705C78.6146 87.7131 95.7997 93.1734 111.578 97.2603Z" fill="#FFE05C"/>
<path d="M171.642 140.016C170.727 141.289 150.929 153.092 151.297 154.734C151.665 156.375 154.926 163.086 154.926 164.359C154.926 165.163 142.755 180.316 132.906 190.444C127.222 196.317 122.309 200.494 120.991 199.243C117.965 196.362 144.809 127.008 153.452 104.954L162.709 106.551L172.357 107.868C171.531 123.792 172.446 138.9 171.642 140.016Z" fill="#FCC71F"/>
<path d="M162.709 106.551C162.707 106.573 162.707 106.595 162.709 106.618C162.139 108.851 148.07 163.644 132.928 190.444C128.193 198.841 123.358 204.491 118.791 204.96C99.3505 206.803 111.6 97.3049 111.6 97.3049C118.814 98.9241 140.811 102.799 153.474 104.999L162.709 106.551Z" fill="white"/>
<path d="M159.058 101.727C156.925 108.081 137.63 121.96 125.793 115.272C118.971 111.408 117.72 104.306 119.507 92.5705C120.367 86.8198 121.975 79.9525 123.973 71.8122C124.989 67.7365 126.117 63.3481 127.323 58.6247C130.193 47.2573 136.882 40.1555 149.053 42.2659C161.224 44.3764 160.566 56.2462 160.219 69.0652C159.873 81.8842 161.191 95.3844 159.058 101.727Z" fill="#FEBD9D"/>
<path d="M143.524 69.7797C142.609 81.6943 137.36 94.6473 119.505 92.5703C120.365 86.8196 121.973 79.9523 123.972 71.812L143.524 69.7797Z" fill="#F4A789"/>
<path d="M120.991 112.882C121.493 124.495 121.616 128.124 122.744 128.739C123.872 129.353 128.986 130.737 130.359 129.855C131.733 128.973 139.583 116.031 139.583 116.031C139.583 116.031 130.236 109.633 120.991 112.882Z" fill="#683F1D"/>
<path d="M129.624 124.35C131.243 144.505 134.66 192.465 135.151 196.195C135.642 199.924 120.355 215.702 118.815 213.748C117.274 211.794 109.468 197.401 109.468 193.135C109.468 188.87 123.605 123.535 123.605 123.535L129.624 124.35Z" fill="#683F1D"/>
<path d="M129.345 110.593C137.898 109.711 157.54 97.4614 160.097 95.8087C162.654 94.1561 166.06 105.479 165.77 107.712C165.479 109.945 140.578 126.427 140.578 126.427C140.578 126.427 134.392 113.909 128.909 113.764C123.427 113.619 115.219 126.427 115.219 126.427C104.812 117.058 111.735 100.934 118.86 98.3435C118.86 98.3435 125.883 110.95 129.345 110.593Z" fill="#FED81D"/>
<path d="M107.671 279.228L100.033 323" stroke="#886F20" stroke-width="0.75" stroke-linecap="round" stroke-linejoin="round"/>
<path d="M171.043 24.1748C169.655 26.2474 167.765 27.9346 165.549 29.0788C163.333 30.2231 160.863 30.7871 158.369 30.7183C149.436 30.5731 140.86 23.4937 140.86 23.4937C140.86 23.4937 133.044 15.5655 133.893 8.53068C134.153 6.51296 135.151 4.66318 136.695 3.33832C143.395 -2.69153 153.847 2.92517 157.699 9.37934C161.552 15.8335 162.713 15.7888 167.135 15.8447C170.976 15.8893 172.662 20.2666 171.043 24.1748Z" fill="#604730"/>
<path d="M158.369 30.7181C149.436 30.5729 140.86 23.4934 140.86 23.4934C140.86 23.4934 133.044 15.5653 133.893 8.53046C142.658 6.45351 153.322 8.91013 160.033 15.744C165.382 21.1932 161.998 26.9438 158.369 30.7181Z" fill="#473526"/>
<path d="M145.898 18.0778C140.56 11.2105 141.498 3.3717 147.16 1.32825" stroke="#896442" stroke-width="0.75" stroke-linecap="round" stroke-linejoin="round"/>
<path d="M153.008 22.1091C147.67 15.2529 148.608 7.40295 154.27 5.3595" stroke="#896442" stroke-width="0.75" stroke-linecap="round" stroke-linejoin="round"/>
<path d="M165.149 38.7804C163.765 41.8488 162.199 44.8319 160.459 47.7135C158.095 51.7433 155.382 55.5582 152.352 59.1144C146.769 65.5686 139.489 71.2299 131.013 71.9557C110.668 73.6977 111.617 59.3265 112.265 54.9716C112.265 54.8712 112.265 54.7818 112.265 54.6925C112.265 54.6032 116.676 45.6142 121.578 36.6699C124.034 32.0592 126.741 27.586 129.685 23.2703C136.217 14.1585 145.228 12.2826 154.139 16.0456C163.05 19.8087 164.055 25.2132 165.149 38.7804Z" fill="#FEBD9D"/>
<path d="M160.456 47.7916C158.088 51.7944 155.376 55.583 152.349 59.1143H151.769C150.08 59.1171 148.425 58.647 146.989 57.7574C145.554 56.8678 144.396 55.5942 143.648 54.0807C142.899 52.5672 142.588 50.8743 142.752 49.1936C142.916 47.5129 143.546 45.9116 144.573 44.5709C145.599 43.2301 146.981 42.2036 148.561 41.6073C150.141 41.0111 151.856 40.8691 153.512 41.1973C155.169 41.5255 156.7 42.3108 157.933 43.4644C159.166 44.618 160.052 46.0937 160.49 47.7246L160.456 47.7916Z" fill="#FEBD9D"/>
<path d="M124.723 44.2854C124.723 47.1532 123.585 49.9037 121.558 51.9325C119.531 53.9614 116.782 55.1027 113.914 55.1056C113.349 55.1063 112.786 55.0615 112.228 54.9716C112.228 54.8711 112.228 54.7818 112.228 54.6925C112.228 54.6031 116.639 45.6142 121.541 36.6699C123.569 38.6861 124.714 41.4254 124.723 44.2854Z" fill="#FEBD9D"/>
<path d="M167.793 48.3387L164.745 51.1415C159.764 55.8313 158.692 56.9926 158.692 56.9926C155.912 50.0248 155.264 38.3224 160.524 29.6908C165.783 21.0592 172.036 20.7577 175.33 23.4265C175.657 23.6887 175.92 24.0207 176.101 24.398C178.479 28.8087 175.252 41.4155 167.793 48.3387Z" fill="#604730"/>
<path d="M176.101 24.4315C169.959 26.1288 164.778 36.1897 164.745 51.175C159.764 55.8649 158.692 57.0262 158.692 57.0262C155.912 50.0584 155.264 38.356 160.524 29.7244C165.783 21.0928 172.036 20.7913 175.33 23.46C175.657 23.7223 175.92 24.0542 176.101 24.4315Z" fill="#473526"/>
<path d="M154.75 60.0746C158.435 65.2 170.193 62.3079 170.953 54.7929C171.712 47.2779 165.046 43.2133 159.139 46.5968C153.232 49.9802 153.645 58.5448 154.75 60.0746Z" fill="#FEBD9D"/>
<path d="M166.731 23.2254C167.848 29.2441 172.728 34.1015 175.799 34.9278" stroke="#896442" stroke-width="0.75" stroke-linecap="round" stroke-linejoin="round"/>
<path d="M161.587 28.1276C162.704 33.4874 166.567 40.5781 174.037 40.0756" stroke="#896442" stroke-width="0.75" stroke-linecap="round" stroke-linejoin="round"/>
<path d="M129.908 31.4776C129.908 31.789 130 32.0934 130.173 32.3523C130.346 32.6112 130.592 32.813 130.88 32.9322C131.167 33.0514 131.484 33.0826 131.789 33.0218C132.095 32.9611 132.375 32.8111 132.595 32.5909C132.816 32.3707 132.966 32.0902 133.026 31.7848C133.087 31.4794 133.056 31.1628 132.937 30.8751C132.818 30.5874 132.616 30.3415 132.357 30.1685C132.098 29.9955 131.794 29.9031 131.482 29.9031C131.065 29.9031 130.664 30.069 130.369 30.3643C130.074 30.6596 129.908 31.06 129.908 31.4776Z" fill="#683F1D"/>
<path d="M141.955 37.2617C142.824 37.2617 143.529 36.5567 143.529 35.6872C143.529 34.8176 142.824 34.1127 141.955 34.1127C141.085 34.1127 140.38 34.8176 140.38 35.6872C140.38 36.5567 141.085 37.2617 141.955 37.2617Z" fill="#683F1D"/>
<path d="M160.033 49.2991C160.145 51.0187 155.332 57.2943 154.919 59.2484C153.479 66.1492 153.401 69.5884 145.718 74.6915C137.299 80.2747 121.152 85.2884 113.001 78.8342C109.841 76.3441 108.087 71.5425 108.087 65.9258C108.172 61.5722 109.123 57.2791 110.885 53.2971C112.647 49.315 115.184 45.7239 118.349 42.7333C117.352 46.39 116.129 49.9814 114.687 53.4865C116.314 51.2886 118.07 49.1893 119.946 47.1998C122.163 46.161 124.605 45.6964 127.048 45.8487C128.444 46.2283 136.629 49.6229 136.953 51.1751C137.276 52.7272 135.981 58.0647 137.701 58.4444C139.42 58.824 146.958 58.0089 148.867 56.7806C150.777 55.5523 155.924 47.4678 156.404 46.2284C156.706 45.4579 157.979 46.1614 158.928 47.2222C159.503 47.7832 159.889 48.509 160.033 49.2991Z" fill="#604730"/>
<path d="M166.342 54.0336C164.432 49.5671 159.541 49.7011 156.873 53.2743" stroke="#934735" stroke-width="0.75" stroke-linecap="round" stroke-linejoin="round"/>
<path d="M158.157 51.9456C163.428 50.6391 165.75 58.4332 158.716 58.422" stroke="#934735" stroke-width="0.75" stroke-linecap="round" stroke-linejoin="round"/>
<path d="M128.478 22.9576C128.087 25.1909 138.394 27.1003 138.528 23.7616C138.662 20.4228 128.902 20.5792 128.478 22.9576Z" fill="#604730"/>
<path d="M153.87 27.5803C153.791 29.8136 143.317 29.635 143.82 26.3297C144.322 23.0245 153.959 25.1796 153.87 27.5803Z" fill="#604730"/>
<path d="M128.264 51.8005C134.651 52.8278 137.476 51.8005 139.14 49.0983" stroke="#934735" stroke-width="0.75" stroke-linecap="round" stroke-linejoin="round"/>
<path d="M126.779 42.0632C128.9 37.7418 131.714 36.1785 134.495 35.8659C135.812 35.6829 137.037 35.0872 137.994 34.1642C138.951 33.2413 139.591 32.0387 139.821 30.7293" stroke="#934735" stroke-width="0.75" stroke-linecap="round" stroke-linejoin="round"/>
<path d="M160.033 49.2992C160.145 51.0189 155.332 57.2944 154.919 59.2485C153.479 66.1493 153.401 69.5886 145.718 74.6916C137.299 80.2748 121.152 85.2885 113.001 78.8343C109.841 76.3442 108.087 71.5427 108.087 65.926C117.021 73.5861 130.119 74.4013 138.158 72.101C149.504 68.8404 156.438 53.7546 158.95 47.2223C159.517 47.7863 159.895 48.5118 160.033 49.2992Z" fill="#473526"/>
<path d="M109.495 57.0262C121.298 67.076 137.556 59.1255 138.528 58.422" stroke="#896442" stroke-width="0.75" stroke-linecap="round" stroke-linejoin="round"/>
<path d="M108.154 67.7122C117.98 72.871 133.513 74.3003 145.137 57.9193" stroke="#896442" stroke-width="0.75" stroke-linecap="round" stroke-linejoin="round"/>
<path d="M120.372 81.7041C122.795 78.2202 129.16 76.7016 135.837 74.848C148.835 71.2189 150.834 65.8367 152.095 53.0958" stroke="#896442" stroke-width="0.75" stroke-linecap="round" stroke-linejoin="round"/>
<path d="M159.687 260.367C159.683 262.752 159.157 265.107 158.146 267.267C156.861 269.977 155.024 272.389 152.753 274.347C146.745 279.684 137.388 283.113 126.869 283.113C120.963 283.159 115.108 282.02 109.651 279.763C104.513 277.735 100.085 274.24 96.9209 269.713C95.0677 266.95 94.066 263.704 94.04 260.378C94.0396 259.422 94.1293 258.469 94.308 257.53C95.6592 249.971 102.37 243.561 111.739 240.189C116.597 238.469 121.715 237.6 126.869 237.621C133.602 237.571 140.253 239.101 146.288 242.087C148.882 243.379 151.274 245.041 153.389 247.023C157.353 250.73 159.687 255.353 159.687 260.367Z" fill="#A7CAF0"/>
<path d="M158.147 267.267C156.862 269.977 155.025 272.389 152.753 274.347C146.746 279.684 137.388 283.112 126.87 283.112C120.964 283.159 115.109 282.019 109.651 279.762C104.513 277.735 100.086 274.24 96.9214 269.713C120.348 275.821 145.652 270.673 158.147 267.267Z" fill="#FCC71F"/>
<path d="M232.596 168.846C227.549 177.109 210.431 200.023 193.581 221.898C179.366 240.333 165.341 258.021 158.909 265.536C157.197 267.52 155.208 269.246 153.002 270.661C149.039 273.172 144.612 274.861 139.983 275.628C135.355 276.395 130.619 276.225 126.058 275.128C119.537 273.486 113.887 269.746 110.805 263.816C109.469 261.215 108.657 258.378 108.415 255.464C107.924 250.149 109.252 243.683 111.988 236.481C117.158 222.925 127.309 206.834 139.513 191.09C141.01 189.158 142.551 187.226 144.103 185.305C146.492 182.328 148.941 179.41 151.45 176.551C152.321 175.535 153.192 174.541 154.086 173.536C154.778 172.754 155.47 171.973 156.174 171.202L158.574 168.556L158.708 168.411L161.154 165.787C162.818 164.011 164.504 162.258 166.168 160.55L168.401 158.316C169.216 157.49 170.042 156.664 170.869 155.86C170.903 155.82 170.94 155.782 170.98 155.748C172.722 154.028 174.46 152.361 176.195 150.745L176.429 150.533C182.305 144.987 188.482 139.768 194.932 134.9C201.744 129.853 207.896 126.202 212.876 124.449C221.274 121.501 228.956 125.074 233.657 132.075C239.698 140.908 240.871 155.312 232.596 168.846Z" fill="#FED81D"/>
<path d="M211.891 201.184C206.106 208.9 199.708 217.32 193.332 225.583C179.117 244.019 165.092 261.706 158.66 269.221C156.948 271.205 154.959 272.931 152.753 274.347" stroke="#886F20" stroke-width="0.75" stroke-linecap="round" stroke-linejoin="round"/>
<path d="M111.74 240.177C116.91 226.621 127.06 210.531 139.265 194.786C150.451 180.393 162.734 166.886 176.002 154.386" stroke="#886F20" stroke-width="0.75" stroke-linecap="round" stroke-linejoin="round"/>
<path d="M192.774 150.59C186.9 147.24 181.116 148.49 170.631 159.523" stroke="#886F20" stroke-width="0.75" stroke-linecap="round" stroke-linejoin="round"/>
<path d="M233.07 135.93C230.49 134.834 227.792 134.04 225.03 133.562C215.159 131.809 204.997 134.121 194.345 138.755C201.156 133.707 207.309 130.056 212.289 128.303C220.686 125.355 228.369 128.928 233.07 135.93Z" fill="#FFE05C"/>
<path d="M193.332 225.583C179.117 244.018 165.092 261.706 158.66 269.221C156.948 271.204 154.959 272.931 152.753 274.346C148.79 276.857 144.363 278.546 139.734 279.313C135.106 280.08 130.37 279.91 125.809 278.813C119.288 277.171 113.638 273.431 110.556 267.501C121.03 271.577 131.437 271.588 138.874 267.836C143.015 265.83 146.271 262.367 148.019 258.11C149.57 254.278 151.364 250.548 153.39 246.944C165.494 225.638 182.043 217.867 193.332 225.583Z" fill="#FCC71F"/>
<path d="M73.6948 134.153C73.1588 131.149 83.2421 127.944 91.0809 127.051L92.5549 140.305C92.5549 140.305 75.5484 144.582 73.6948 134.153Z" fill="#FCC71F"/>
<path d="M89.4494 126.214C85.3736 110.994 85.2731 86.3608 86.6689 82.8768C88.0647 79.3929 90.8787 80.6994 92.5536 80.7999C94.2286 80.9004 95.0102 76.4227 100.672 76.4227C100.672 76.4227 100.984 70.7725 104.904 70.1248C104.904 70.1248 103.407 61.8952 110.007 63.2128C111.503 63.5143 110.007 72.6484 113.803 85.5456C114.015 86.2714 122.011 80.5431 123.853 79.2366C126.812 77.1038 132.54 76.4003 128.811 82.6647C126.578 86.4724 122.859 92.4911 120.269 96.2653C115.122 103.978 112.453 113.079 112.62 122.35L89.4494 126.214Z" fill="#FEBD9D"/>
<path d="M85.8981 90.3583C85.8422 87.8421 86.101 85.3288 86.6686 82.8768C88.0532 79.4041 90.8783 80.6994 92.5533 80.7999C94.2282 80.9004 95.0098 76.4227 100.671 76.4227C100.671 76.4227 100.984 70.7725 104.903 70.1248C104.903 70.1248 103.407 61.8952 110.006 63.2128C111.503 63.5143 110.006 72.6484 113.803 85.5456C114.015 86.2714 122.01 80.5431 123.853 79.2366C126.812 77.1038 132.54 76.4003 128.81 82.6647C127.694 84.563 126.186 87.0195 124.657 89.4762" stroke="#934735" stroke-width="0.75" stroke-linecap="round" stroke-linejoin="round"/>
<path d="M100.671 76.4225C100.647 77.4719 100.711 78.5214 100.861 79.5603" stroke="#934735" stroke-width="0.75" stroke-linecap="round" stroke-linejoin="round"/>
<path d="M104.905 70.1247C105.385 72.8828 106.088 75.4399 106.088 75.4399" stroke="#934735" stroke-width="0.75" stroke-linecap="round" stroke-linejoin="round"/>
<path d="M82.2812 119.927L84.0567 144.94C84.0567 144.94 116.584 139.356 116.093 138.631C115.602 137.905 114.753 117.414 114.753 117.414L82.2812 119.927Z" fill="white"/>
<path d="M146.108 242.087C146.108 242.735 146.074 243.382 146.007 244.03C146.007 244.521 145.94 245.013 145.896 245.504C145.901 245.601 145.901 245.698 145.896 245.794C145.896 246.353 145.784 246.911 145.717 247.447C145.572 248.698 145.382 249.937 145.148 251.154C144.132 257.108 141.946 262.8 138.716 267.904C135.637 272.857 131.061 276.702 125.651 278.88C120.531 280.759 114.973 281.1 109.661 279.863H109.493C98.796 277.551 92.4088 265.637 88.4782 252.014C84.8938 239.563 83.3529 225.684 82.4707 216.382C80.5948 196.841 73.5376 134.264 73.5376 134.264C78.529 136.766 123.195 126.336 123.195 126.336C123.195 126.336 132.373 162.739 139.118 194.909C142.736 212.161 145.661 228.207 146.086 236.761C146.141 238.447 146.164 240.245 146.108 242.087Z" fill="#FED81D"/>
<path d="M88.4558 251.891C84.8714 239.44 83.3304 225.561 82.4482 216.259C80.5723 196.718 73.5151 134.141 73.5151 134.141" stroke="#886F20" stroke-width="0.75" stroke-linecap="round" stroke-linejoin="round"/>
<path d="M123.161 126.213C123.161 126.213 132.339 162.616 139.084 194.786C142.702 212.038 145.627 228.084 146.052 236.638C146.141 238.447 146.163 240.245 146.052 242.031C145.944 245.294 145.57 248.543 144.935 251.746" stroke="#886F20" stroke-width="0.75" stroke-linecap="round" stroke-linejoin="round"/>
<path d="M138.694 267.77C135.615 272.723 131.04 276.568 125.629 278.746C120.509 280.624 114.951 280.966 109.639 279.729H109.472C98.7742 277.417 92.3871 265.503 88.4565 251.88C90.2186 253.867 92.1138 255.733 94.129 257.463C98.9303 261.695 104.427 265.064 110.376 267.423C120.85 271.555 131.257 271.566 138.694 267.77Z" fill="#FCC71F"/>
</svg>
