<svg width="250" height="193" viewBox="0 0 250 193" fill="none" xmlns="http://www.w3.org/2000/svg">
<path d="M90.406 5.71654L0 0V187.164H90.406V5.71654Z" fill="#F3E8CB"/>
<path d="M81.7255 15.6819L7.19873 10.5861V177.424H81.7255V15.6819Z" stroke="white"/>
<circle cx="15.513" cy="84.9064" r="5.08137" fill="#C4B07D"/>
<path d="M50.6675 189.354H38.811C38.811 189.354 38.7644 186.931 38.684 183.654C38.5442 178.077 37.9683 167.838 37.1934 156.007C36.7149 148.686 46.4034 148.385 46.2933 156.515C46.0689 172.572 45.8699 183.654 45.8699 183.654L51.2604 187.554C51.4335 187.676 51.5628 187.851 51.6292 188.053C51.6957 188.254 51.6957 188.471 51.6293 188.673C51.563 188.874 51.4337 189.049 51.2606 189.172C51.0875 189.294 50.8796 189.358 50.6675 189.354Z" fill="#FFB3A4"/>
<path d="M34.8091 157.459C39.2468 157.968 47.0594 157.921 47.0128 157.786C46.9663 157.65 46.7334 122.771 46.5513 121.115C46.3692 119.459 37.4895 120.552 37.0279 121.115C36.5664 121.678 34.8091 157.459 34.8091 157.459Z" fill="#4A3320"/>
<path d="M50.6676 189.354H38.8111C38.8111 189.354 38.7645 186.931 38.6841 183.654H45.8827L51.2605 187.554C51.4336 187.676 51.5629 187.851 51.6294 188.053C51.6958 188.254 51.6958 188.471 51.6295 188.673C51.5631 188.874 51.4338 189.049 51.2607 189.172C51.0876 189.294 50.8797 189.358 50.6676 189.354Z" fill="#FED81D"/>
<path d="M21.6183 182.972C25.4293 175.566 28.8931 168.317 32.0055 162.498C32.8964 160.61 33.6424 158.656 34.237 156.655C34.4403 155.689 34.9399 151.616 31.0315 150.955C27.1231 150.295 25.8867 152.649 24.7179 156.066C24.1759 157.646 19.3274 171.044 16.0542 178.412L21.6183 182.972Z" fill="#FFB3A4"/>
<path d="M21.7285 190.416L12.5566 182.896C12.5566 182.896 14.0556 180.995 16.0713 178.407L21.6184 182.972L23.3122 189.396C23.3654 189.598 23.3532 189.812 23.2775 190.007C23.2018 190.202 23.0663 190.367 22.8906 190.481C22.7149 190.594 22.5079 190.649 22.2991 190.637C22.0904 190.626 21.8907 190.548 21.7285 190.416Z" fill="#FED81D"/>
<path d="M25.9159 122.656C25.9159 122.656 24.3111 140.962 20.9658 155.766C20.9658 155.766 26.64 159.907 35.8839 158.306C36.066 157.798 38.505 144.807 39.4662 139.751C40.4275 134.695 40.8594 132.95 42.0789 132.078C43.2984 131.206 43.1291 122.068 42.9512 121.67C42.7734 121.272 31.2852 113.658 25.9159 122.656Z" fill="#4A3320"/>
<path d="M41.3467 130.007C42.1555 129.465 42.9261 128.834 42.9685 128.115C43.0108 127.395 43.0743 124.138 43.0743 124.138" stroke="#7A583F" stroke-opacity="0.99" stroke-width="0.75" stroke-linecap="round" stroke-linejoin="round"/>
<path d="M40.9095 124.138C40.8037 125.163 40.6216 129.554 40.6216 129.554" stroke="#7A583F" stroke-opacity="0.99" stroke-width="0.75" stroke-linecap="round" stroke-linejoin="round"/>
<path d="M35.8843 158.336C36.0664 157.828 38.5054 144.836 39.4666 139.781C40.4279 134.725 40.8598 132.98 42.0793 132.108" stroke="#7A583F" stroke-opacity="0.99" stroke-width="0.75" stroke-linecap="round" stroke-linejoin="round"/>
<path d="M60.5753 103.063C60.6812 101.408 60.9606 99.6165 61.2444 99.0533C61.5281 98.4901 62.9678 96.4364 63.5648 96.2162C64.1619 95.996 64.3398 97.3045 63.459 98.6722V99.0406C64.1571 98.2264 64.794 97.3616 65.3645 96.4534C66.0674 95.255 66.7026 94.7596 67.0879 95.1068C67.4733 95.454 66.1733 98.4224 65.7879 98.8797L66.0674 99.0322C66.0674 99.0322 68.5531 95.9241 69.0019 95.6446C69.5397 95.2889 69.9377 96.1527 69.4804 96.9615C69.4804 96.9615 70.1833 96.5042 70.4628 96.9234C70.7423 97.3426 68.6716 100.866 68.6716 100.866C68.6716 100.866 70.8608 98.4478 71.4283 99.0491C71.9957 99.6504 67.757 104.423 65.4746 106.476C65.4746 106.476 61.3883 112.798 59.1906 115.428C56.3154 118.866 51.5686 120.713 49.68 118.523C47.3426 115.775 50.7386 111.359 60.5753 103.063Z" fill="#FFB3A4"/>
<path d="M61.2407 99.0533C61.5202 98.4901 62.9642 96.4364 63.5612 96.2162C64.1583 95.996 64.3361 97.3045 63.4554 98.6722V99.0406C64.1535 98.2264 64.7904 97.3616 65.3609 96.4534C66.0638 95.255 66.699 94.7596 67.0843 95.1068C67.4696 95.454 66.1696 98.4224 65.7843 98.8797L66.0638 99.0322C66.0638 99.0322 68.5494 95.9241 68.9983 95.6446C69.5361 95.2889 69.9341 96.1527 69.4768 96.9615C69.4768 96.9615 70.1797 96.5042 70.4592 96.9234C70.7386 97.3426 68.668 100.866 68.668 100.866C68.668 100.866 70.8572 98.4478 71.4246 99.0491C71.7041 99.3497 70.7895 100.696 69.5149 102.221" stroke="#934735" stroke-width="0.75" stroke-linecap="round" stroke-linejoin="round"/>
<path d="M63.4541 98.6722C63.7675 100.455 63.6531 102.907 63.4541 103.097" stroke="#934735" stroke-width="0.75" stroke-linecap="round" stroke-linejoin="round"/>
<path d="M65.2842 98.4182C65.8601 98.7654 67.5073 101.272 67.5073 101.272" stroke="#934735" stroke-width="0.75" stroke-linecap="round" stroke-linejoin="round"/>
<path d="M68.6592 100.849L67.9224 101.797" stroke="#934735" stroke-width="0.75" stroke-linecap="round" stroke-linejoin="round"/>
<path d="M67.0242 100.557C66.9945 100.514 69.4675 96.9446 69.4675 96.9446" stroke="#934735" stroke-width="0.75" stroke-linecap="round" stroke-linejoin="round"/>
<path d="M52.5301 108.843C55.0115 116.609 54.1223 121.28 48.0627 118.396C46.4452 116.935 46.5341 110.351 46.5341 110.351L52.5301 108.843Z" fill="#E19080"/>
<path d="M38.1709 99.8367C34.2837 100.26 33.0896 96.411 33.4071 94.5775C33.7247 92.7439 33.6909 90.216 33.8306 87.1121C34.1312 80.8832 40.4618 80.392 41.3722 87.3365C41.4572 88.0119 41.4925 88.6927 41.4781 89.3733C41.4677 90.5288 41.5243 91.6839 41.6474 92.8329C41.7406 93.7645 41.8634 94.6791 41.9989 95.5345C42.308 97.4527 42.0624 99.4005 38.1709 99.8367Z" fill="#E19080"/>
<path d="M41.6559 92.8328C37.8449 93.4045 37.2393 91.2491 37.396 87.9801L41.3807 87.3365C41.4656 88.0119 41.501 88.6927 41.4865 89.3733C41.4762 90.5288 41.5327 91.6839 41.6559 92.8328Z" fill="#C77464"/>
<path d="M48.0754 112.345C48.0754 112.345 47.779 117.596 47.9696 118.189C48.1601 118.782 48.8588 122.148 46.0556 122.661C43.2524 123.173 26.9115 123.359 25.9164 122.661C25.3667 122.22 24.9604 121.626 24.7492 120.955C24.5381 120.283 24.5317 119.563 24.7308 118.888C25.2135 117.571 24.8366 115.551 24.5699 114.34C24.5317 114.17 24.464 113.692 24.3708 112.985C23.9897 110.021 23.2656 103.004 23.2529 98.3165C23.2529 96.0723 23.4054 94.3615 23.8415 93.8746C25.1119 92.4518 26.2171 92.113 27.3434 92.0495C27.5975 92.0495 27.8558 92.0495 28.1141 92.0495C29.5157 92.0749 32.5645 92.3713 33.6189 92.401C34.067 93.3696 34.7601 94.2045 35.6298 94.8232C36.4994 95.4418 37.5155 95.8227 38.5775 95.9283C40.5423 96.1696 41.6009 95.039 42.2445 93.3876C42.2445 93.3876 44.6624 92.9641 46.4113 93.4384C47.8595 93.8407 48.952 94.8485 49.6887 96.3771C49.8524 96.7134 49.9938 97.0599 50.1122 97.4146C50.8659 99.5318 52.6148 108.869 52.5089 108.869C52.403 108.869 48.0754 112.345 48.0754 112.345Z" fill="#FED81D"/>
<path d="M28.2067 102.623C30.3663 102.233 33.3559 104.406 32.6868 106.79C32.0178 109.174 34.5711 110.177 36.6164 108.843C38.6616 107.51 40.9102 112.604 40.9102 112.604L34.3213 114.687L30.4764 114.924L27.9146 114.45L28.2067 102.623Z" fill="#FCC71F"/>
<path d="M48.0796 112.345C48.0796 112.345 48.6131 102.708 48.3929 100.849" stroke="#83ADDF" stroke-width="0.75" stroke-linecap="round" stroke-linejoin="round"/>
<path d="M49.7098 96.3517C49.0731 96.3043 48.4363 96.4411 47.8753 96.746C47.3144 97.0509 46.8531 97.5108 46.5467 98.0709C43.6545 102.695 40.1738 107.742 34.8087 102.204C33.9072 101.249 32.9332 100.366 31.8954 99.5615C29.2785 97.584 26.6319 96.8641 23.2528 98.3165C22.2327 98.7702 21.2621 99.3278 20.3564 99.9807C20.7079 95.454 22.4483 92.3247 26.6531 92.0368C26.8827 92.0154 27.1138 92.0154 27.3433 92.0368C27.5974 92.0368 27.8557 92.0368 28.114 92.0368C29.5156 92.0622 32.5644 92.3586 33.6188 92.3883C34.0669 93.3569 34.76 94.1918 35.6296 94.8104C36.4993 95.4291 37.5154 95.81 38.5774 95.9156C40.5422 96.1569 41.6008 95.0263 42.2444 93.3749C42.2444 93.3749 44.6623 92.9514 46.4112 93.4257C47.8721 93.8153 48.9603 94.8188 49.7098 96.3517Z" fill="#FFE05C"/>
<path d="M33.0982 91.8971C33.6868 91.4016 34.0976 92.1172 34.4702 92.6423C34.8428 93.1674 36.363 95.2127 38.5141 95.2296C40.6652 95.2465 41.5756 93.3029 41.9017 92.8795C42.2278 92.456 43.172 92.9641 42.9349 93.8915C42.6978 94.8188 41.3639 96.7286 38.277 96.7286C34.7454 96.7286 32.0311 92.7948 33.0982 91.8971Z" fill="white"/>
<path d="M31.0076 110.575C33.9251 118.117 31.4818 122.432 26.9806 120.738C23.3135 119.379 22.4666 114.539 21.9331 111.486L31.0076 110.575Z" fill="#E19080"/>
<path d="M32.2054 104.397C32.2159 106.622 32.1014 108.846 31.8624 111.058C30.6 111.5 29.3117 111.863 28.0048 112.146C26.8022 112.439 25.5106 112.735 24.3885 112.993C22.6735 113.374 21.3566 113.65 21.3566 113.65C20.7637 110.031 20.4157 106.377 20.3149 102.712C20.2871 101.804 20.3069 100.895 20.3742 99.9893C20.7257 95.4627 22.4661 92.3334 26.6709 92.0455C26.9005 92.0241 27.1315 92.0241 27.3611 92.0455C30.1643 92.3461 31.405 95.7252 31.9047 99.5574C32.1032 101.163 32.2036 102.779 32.2054 104.397Z" fill="#FED81D"/>
<path d="M32.2061 104.397C32.2166 106.622 32.1021 108.846 31.8631 111.058C31.8631 111.058 29.6357 103.436 29.4494 102.835C29.4494 102.767 29.4113 102.699 29.3901 102.64C30.5145 102.855 31.5184 103.482 32.2061 104.397Z" fill="#FCC71F"/>
<path d="M31.8461 111.058C31.8461 111.058 29.6187 103.436 29.4324 102.835C29.4324 102.767 29.3943 102.699 29.3731 102.64C29.2053 102.114 28.8874 101.649 28.4585 101.302" stroke="#D6A91C" stroke-width="0.75" stroke-linecap="round" stroke-linejoin="round"/>
<path d="M31.8969 99.5614C29.2799 97.5839 26.6334 96.864 23.2543 98.3165C22.2342 98.7701 21.2636 99.3278 20.3579 99.9806C20.7094 95.4539 22.4497 92.3247 26.6546 92.0367C26.8842 92.0153 27.1152 92.0153 27.3448 92.0367C30.1565 92.3501 31.3972 95.7292 31.8969 99.5614Z" fill="#FFE05C"/>
<path d="M32.8273 83.9192C31.6756 80.9551 30.5365 76.2972 33.5514 74.019C37.3625 71.1523 40.3266 74.3832 40.3266 74.3832C40.3266 74.3832 43.223 80.1379 38.6794 83.1189C34.1358 86.1 32.8273 83.9192 32.8273 83.9192Z" fill="#604730"/>
<path d="M41.3686 90.5844C36.9944 91.1687 33.8397 87.129 33.8397 87.129C29.872 86.731 31.0662 81.8656 34.2251 83.4662C34.5596 83.6314 35.1651 82.1239 35.2075 80.9933C35.2498 79.8627 35.3345 79.6509 34.8306 79.2741C34.3267 78.8972 33.6788 78.4992 34.1616 77.5168C34.6443 76.5344 35.7749 76.0051 36.4016 76.1956C37.0283 76.3862 38.9169 76.4455 39.5224 75.7129C39.704 75.4748 39.8302 75.1992 39.8918 74.9062C39.9533 74.6132 39.9486 74.3101 39.8781 74.0191C39.8781 74.0191 42.2875 75.6113 44.0702 80.3708C44.1465 80.5783 44.2227 80.7943 44.2904 80.989C44.6343 81.954 44.8991 82.9453 45.0823 83.9532C45.6793 87.3026 44.9468 90.0932 41.3686 90.5844Z" fill="#FFB3A4"/>
<path d="M38.7217 81.366C38.7217 81.4675 38.7519 81.5667 38.8083 81.6511C38.8648 81.7354 38.9451 81.8011 39.039 81.8397C39.1329 81.8784 39.2361 81.8883 39.3356 81.8682C39.4351 81.848 39.5264 81.7988 39.5979 81.7267C39.6694 81.6547 39.7178 81.563 39.7371 81.4633C39.7564 81.3636 39.7456 81.2605 39.7062 81.1669C39.6668 81.0734 39.6004 80.9937 39.5156 80.9379C39.4308 80.8821 39.3313 80.8528 39.2298 80.8536C39.1627 80.8536 39.0963 80.8669 39.0344 80.8927C38.9725 80.9185 38.9163 80.9563 38.869 81.0039C38.8218 81.0516 38.7844 81.1081 38.7592 81.1702C38.7339 81.2324 38.7211 81.2989 38.7217 81.366Z" fill="#4A3320"/>
<path d="M41.6475 80.3454C41.6466 80.447 41.676 80.5464 41.7318 80.6312C41.7875 80.7161 41.8673 80.7824 41.9608 80.8218C42.0544 80.8612 42.1575 80.872 42.2572 80.8527C42.3569 80.8334 42.4485 80.785 42.5206 80.7135C42.5927 80.642 42.6419 80.5507 42.662 80.4512C42.6822 80.3517 42.6723 80.2485 42.6336 80.1546C42.595 80.0607 42.5293 79.9804 42.4449 79.924C42.3606 79.8675 42.2614 79.8373 42.1598 79.8373C42.0928 79.8367 42.0262 79.8495 41.9641 79.8748C41.902 79.9 41.8454 79.9374 41.7978 79.9846C41.7502 80.0319 41.7124 80.0881 41.6866 80.15C41.6608 80.2119 41.6475 80.2784 41.6475 80.3454Z" fill="#4A3320"/>
<path d="M36.4396 79.9981C36.7149 80.7477 38.8999 78.9438 38.3113 78.1562C37.7227 77.3685 36.1093 79.1089 36.4396 79.9981Z" fill="#604730"/>
<path d="M40.1017 77.3685C39.8731 78.2577 42.13 78.1688 42.1597 77.7919C42.1893 77.4151 40.3473 76.403 40.1017 77.3685Z" fill="#604730"/>
<path d="M33.3955 87.0443C33.9265 87.0801 34.4595 87.0154 34.9665 86.8538" stroke="#934735" stroke-width="0.75" stroke-linecap="round" stroke-linejoin="round"/>
<path d="M32.2563 84.9568C32.3622 84.3046 34.0179 83.9532 34.5641 85.232" stroke="#934735" stroke-width="0.75" stroke-linecap="round" stroke-linejoin="round"/>
<path d="M34.348 84.8721C32.9845 84.3724 32.6542 86.261 34.4581 85.9434" stroke="#934735" stroke-width="0.75" stroke-linecap="round" stroke-linejoin="round"/>
<path d="M40.2725 79.8373C40.0862 80.6842 40.497 81.2685 41.0559 81.3659C41.7885 81.493 42.6523 81.8487 42.0849 83.0936" stroke="#934735" stroke-width="0.75" stroke-linecap="round" stroke-linejoin="round"/>
<path d="M39.1157 84.3724C40.2675 84.7619 42.1603 84.5291 42.1603 84.5291C42.1603 84.5291 41.8893 86.2948 40.6359 86.1847C39.3825 86.0746 39.1157 84.3724 39.1157 84.3724Z" fill="white" stroke="#934735" stroke-width="0.75" stroke-linecap="round" stroke-linejoin="round"/>
<path d="M38.9243 83.9193C38.5771 84.6434 37.5269 84.8551 36.5784 84.3978C35.6299 83.9404 35.1471 82.9877 35.4944 82.2805C35.8416 81.5734 36.8917 81.3489 37.8403 81.8063C38.7888 82.2636 39.2715 83.1994 38.9243 83.9193Z" fill="#E39886"/>
<path d="M45.0821 83.9447C44.4512 84.419 43.672 84.4994 43.1766 84.0844C42.5626 83.5763 42.6049 82.505 43.2782 81.6962C43.5424 81.3691 43.893 81.1226 44.2903 80.9848C44.6339 81.9484 44.8987 82.9383 45.0821 83.9447Z" fill="#E39886"/>
<path d="M26.7244 120.649C30.671 122.381 33.9569 120.759 38.7292 118.875C43.5014 116.99 48.9639 114.263 48.9639 114.263C48.9639 114.263 53.4059 112.023 54.9345 111.066C56.4632 110.109 56.5224 109.559 56.3277 109.33C56.1329 109.102 54.058 109.915 53.6684 110.076C54.5092 109.256 55.2903 108.377 56.0058 107.446C56.6452 106.485 56.3954 105.824 55.3537 106.341C55.3537 106.341 56.2641 105.206 55.6459 104.782C55.0277 104.359 50.9414 107.903 50.9414 107.903C50.9414 107.903 54.2189 104.914 53.6345 103.974C53.0502 103.034 48.3118 107.361 48.3118 107.361C48.3118 107.361 48.9935 104.372 48.261 104.147C47.5284 103.923 46.9906 105.168 46.3936 106.167C45.7965 107.166 44.8014 109.635 44.1874 109.893C43.5734 110.152 31.5856 111.278 27.9821 114.035C24.6368 116.614 24.332 119.586 26.7244 120.649Z" fill="#FFB3A4"/>
<path d="M44.7842 116.254C47.1894 115.144 48.9636 114.255 48.9636 114.255C48.9636 114.255 53.4056 112.015 54.9342 111.058C56.4629 110.101 56.5221 109.55 56.3274 109.322C56.1326 109.093 54.0577 109.906 53.6681 110.067C54.5089 109.247 55.29 108.369 56.0055 107.437C56.6449 106.476 56.3951 105.816 55.3534 106.332C55.3534 106.332 56.2638 105.197 55.6456 104.774C55.0274 104.351 50.9411 107.895 50.9411 107.895C50.9411 107.895 54.2186 104.905 53.6342 103.965C53.0499 103.025 48.3115 107.353 48.3115 107.353C48.3115 107.353 48.9932 104.363 48.2607 104.139C47.5281 103.914 46.9903 105.159 46.3933 106.159" stroke="#934735" stroke-width="0.75" stroke-linecap="round" stroke-linejoin="round"/>
<path d="M29.8911 114.047C30.6279 112.714 32.2794 112.163 32.8807 112.006" stroke="#934735" stroke-width="0.75" stroke-linecap="round" stroke-linejoin="round"/>
<path d="M52.3389 109.216C52.9825 108.653 55.3538 106.336 55.3538 106.336" stroke="#934735" stroke-width="0.75" stroke-linecap="round" stroke-linejoin="round"/>
<path d="M52.9014 110.689L53.6678 110.067" stroke="#934735" stroke-width="0.75" stroke-linecap="round" stroke-linejoin="round"/>
<path d="M194.48 84.5937C195.327 100.735 196.784 151.147 197.343 170.634C197.478 175.499 197.559 178.438 197.559 178.438C197.559 178.438 204.308 180.195 209.648 178.438L209.686 170.837L209.818 143.94L209.974 113.075L210.029 100.867L210.118 82.7813C209.525 71.9029 194.48 71.0984 194.48 84.5937Z" fill="#93BEE5"/>
<path d="M209.817 143.94L209.973 113.075L210.028 100.867C209.042 100.613 207.835 100.837 206.37 101.659C202.165 104 202.305 115.23 205.214 119.236C207.945 123.017 200.619 136.381 209.817 143.94Z" fill="#83ADDF"/>
<path d="M208.653 177.379L209.076 187.314H188.751C188.751 187.314 188.387 185.4 191.393 184.125C194.399 182.85 200.827 177.468 200.963 177.379C201.098 177.291 208.653 177.379 208.653 177.379Z" fill="#683F1D"/>
<path d="M197.343 170.634C197.479 175.499 197.559 178.438 197.559 178.438C197.559 178.438 204.309 180.195 209.648 178.438L209.687 170.837C205.589 171.445 201.419 171.376 197.343 170.634Z" fill="#C3DCF8"/>
<path d="M205.797 97.6613C205.797 98.2414 205.831 98.8173 205.848 99.3932C205.848 99.4567 205.848 99.5202 205.848 99.5837C205.848 99.7489 205.848 99.9055 205.848 100.071C205.848 100.439 205.882 100.799 205.895 101.163C205.928 101.968 205.971 102.768 206.017 103.573C206.017 103.865 206.051 104.157 206.068 104.445C206.094 104.822 206.115 105.203 206.14 105.58C206.174 106.101 206.212 106.613 206.25 107.138C206.276 107.439 206.297 107.744 206.322 108.048C206.373 108.688 206.424 109.319 206.483 109.962C206.525 110.411 206.568 110.864 206.606 111.322C206.636 111.622 206.669 111.919 206.699 112.219C206.737 112.596 206.775 112.977 206.818 113.363C206.843 113.621 206.868 113.879 206.898 114.138C206.924 114.328 206.94 114.523 206.962 114.718L207.076 115.692C207.118 116.056 207.165 116.424 207.211 116.797C207.245 117.076 207.279 117.364 207.317 117.644C207.355 117.923 207.389 118.211 207.427 118.491C207.495 119.016 207.563 119.545 207.639 120.083C207.825 121.472 208.033 122.899 208.257 124.372C208.325 124.796 208.393 125.253 208.465 125.702C210.349 137.711 217.908 161.115 222.125 173.827C223.286 177.324 224.196 180.009 224.666 181.449C224.666 181.449 233.084 181.61 237.259 178.239C237.259 178.239 236.277 174.89 234.909 170.1C231.852 159.396 226.842 141.505 226.508 137.918C226.347 136.127 226.084 129.932 225.835 122.568C225.339 108.523 224.818 90.2425 224.818 90.2425C224.734 83.9204 221.215 80.2364 217.196 79.0592C212.212 77.5899 206.47 79.9823 205.649 85.9529C205.657 90.1112 205.683 93.9392 205.797 97.6613Z" fill="#93BEE5"/>
<path d="M205.848 99.3932C206.182 108.213 207.064 117.004 208.49 125.715" stroke="white" stroke-width="0.75" stroke-linecap="round" stroke-linejoin="round"/>
<path d="M218.214 98.6606C222.071 99.931 223.871 103.416 221.644 108.112C219.764 112.063 220.649 118.516 225.857 122.552C225.362 108.506 224.841 90.2255 224.841 90.2255C224.756 83.9035 221.237 80.2195 217.219 79.0423C215.258 79.9908 213.573 82.3198 212.95 86.5288C212.205 91.6399 213.784 97.2209 218.214 98.6606Z" fill="#83ADDF"/>
<path d="M206.361 98.0255C205.231 97.259 204.782 97.1532 204.668 96.7551C204.553 96.3571 204.456 91.462 204.456 91.462" stroke="white" stroke-width="0.75" stroke-linecap="round" stroke-linejoin="round"/>
<path d="M203.671 98.6649C204.997 98.9189 205.844 99.2577 205.856 99.5837" stroke="white" stroke-width="0.75" stroke-linecap="round" stroke-linejoin="round"/>
<path d="M207.136 92.8891C207.076 94.6422 207.136 96.7001 207.136 96.7001" stroke="white" stroke-width="0.75" stroke-linecap="round" stroke-linejoin="round"/>
<path d="M223.138 90.107C223.303 93.3548 223.138 98.0043 223.138 98.0043C223.138 98.0043 219.484 95.4932 220.148 90.107" stroke="white" stroke-width="0.75" stroke-linecap="round" stroke-linejoin="round"/>
<path d="M234.719 176.66L238.382 185.904L219.187 192.607C219.187 192.607 218.213 190.913 220.631 188.724C223.049 186.534 227.334 179.332 227.444 179.2C227.554 179.069 234.719 176.66 234.719 176.66Z" fill="#683F1D"/>
<path d="M222.152 173.84C223.312 177.337 224.222 180.022 224.692 181.462C224.692 181.462 233.11 181.622 237.286 178.252C237.286 178.252 236.303 174.902 234.936 170.113C231.391 171.803 225.806 173.213 222.152 173.84Z" fill="#C3DCF8"/>
<path d="M179.599 69.9975L180.023 69.6756C184.092 66.4066 196.884 55.596 196.884 55.596C196.762 56.5996 196.3 60.4953 195.741 65.2464C194.615 74.7528 193.09 87.6891 193.09 87.6891C201.174 89.5565 207.322 90.505 211.946 90.9158C221.986 91.8219 224.862 90.2382 224.862 90.2382C224.862 90.2382 225.929 86.2028 227.339 80.6641C227.495 80.0374 227.665 79.3938 227.83 78.7247C228.961 74.2658 230.248 69.0913 231.37 64.3275C232.424 59.8559 233.33 55.7569 233.826 52.9664C234.053 51.8818 234.184 50.7795 234.22 49.672C234.09 48.0814 233.351 46.6024 232.158 45.5434C231.075 44.5382 229.824 43.7325 228.461 43.1636C232.611 40.4324 229.68 32.4334 222.393 34.0806C221.211 34.3474 219.95 34.2627 218.108 33.9451C216.964 33.7419 215.592 33.454 213.873 33.0983L212.603 32.8357C211.121 32.5308 209.888 32.3106 208.868 32.1667C203.969 31.4765 203.871 32.4631 204.015 33.8139C204.015 33.8139 198.388 32.1794 194.767 36.2487C193.598 37.5614 192.468 38.8825 191.346 40.2291C186.552 45.988 181.937 52.1534 175.106 59.8686C166.654 69.375 176.068 72.8092 179.599 69.9975Z" fill="#28C079"/>
<path d="M202.411 85.6735C203.647 86.6305 207.581 88.9298 211.926 90.9031C221.966 91.8092 224.841 90.2255 224.841 90.2255C224.841 90.2255 225.908 86.1901 227.318 80.6514C227.475 80.0247 227.644 79.3811 227.809 78.712C228.94 74.2531 230.227 69.0786 231.349 64.3148C230.553 61.4523 229.054 59.2334 226.577 58.1706C217.388 54.2706 213.818 59.8644 214.492 64.2301C215.165 68.5959 214.267 72.6736 207.136 73.6391C200.006 74.6046 199.612 83.5139 202.411 85.6735Z" fill="#1F9B61"/>
<path d="M180.001 69.6756C184.07 66.4066 196.863 55.596 196.863 55.596C196.863 55.596 197.447 50.485 197.845 46.6782C194.614 47.4361 192.205 49.5364 192.912 52.6064C193.759 56.2819 189.834 59.805 186.26 59.4409C182.953 59.0936 178.561 66.6861 180.001 69.6756Z" fill="#1F9B61"/>
<path d="M191.315 40.2206C195.181 40.3095 198.565 42.5919 200.411 47.6055C201.766 51.298 203.68 53.5338 205.988 54.495C209.337 55.8882 213.517 54.6009 218.056 51.1837C219.076 50.3933 220.241 49.8119 221.486 49.4725C222.731 49.1332 224.03 49.0427 225.31 49.2062C228.168 49.5322 231.073 50.9423 233.804 52.9621C234.031 51.8775 234.163 50.7752 234.198 49.6677C234.068 48.0772 233.329 46.5981 232.136 45.5391C231.053 44.534 229.802 43.7283 228.439 43.1593C232.589 40.4281 229.658 32.4292 222.371 34.0764C221.189 34.3432 219.928 34.2585 218.086 33.9409C216.942 33.7376 215.57 33.4497 213.851 33.094L212.581 32.8314C211.099 32.5266 209.866 32.3064 208.846 32.1624C203.947 31.4722 203.849 32.4588 203.993 33.8096C203.993 33.8096 198.366 32.1751 194.745 36.2444C193.568 37.5529 192.437 38.874 191.315 40.2206Z" fill="#2BDA88"/>
<path d="M196.846 55.5961C196.846 55.5961 197.431 50.4851 197.829 46.6783C197.909 45.9034 197.981 45.1835 198.041 44.561" stroke="#145C3B" stroke-width="0.75" stroke-linecap="round" stroke-linejoin="round"/>
<path d="M208 44.5695C205.972 48.4187 204.426 70.5268 204.295 73.3639C204.164 76.201 202.478 75.7861 202.411 78.6062C202.402 79.4521 202.572 80.2902 202.908 81.0663C203.244 81.8425 203.74 82.5393 204.363 83.1117" stroke="#145C3B" stroke-width="0.75" stroke-linecap="round" stroke-linejoin="round"/>
<path d="M209.024 40.8304C211.645 39.2599 214.506 38.1324 217.493 37.4937C217.493 37.4937 218.573 31.142 219.213 26.9456C220.386 19.2431 212.573 19.9418 210.905 26.0098C210.82 26.3316 210.697 26.7296 210.553 27.1827C209.867 29.3254 208.669 32.6579 208.012 34.466C207.729 35.2452 207.542 35.7364 207.542 35.7364C209.55 37.6927 209.024 40.8304 209.024 40.8304Z" fill="#FEBD9D"/>
<path d="M208 34.466C211.9 35.8888 214.805 33.6954 214.805 29.6514L211.777 27.4029L210.553 27.1827C209.867 29.3254 208.669 32.6664 208 34.466Z" fill="#F4A789"/>
<path d="M222.371 36.7992C219.526 36.8585 215.105 37.5233 209.024 40.8304C209.024 40.8304 209.973 36.7272 205.823 34.3644" stroke="#145C3B" stroke-width="0.75" stroke-linecap="round" stroke-linejoin="round"/>
<path d="M219.979 68.3333C221.26 73.0339 223.804 77.294 227.334 80.6514C230.154 69.6037 234.355 52.5768 234.215 49.6677C234.008 45.302 228.456 43.1594 228.456 43.1594C219.818 45.429 217.294 58.7083 219.979 68.3333Z" fill="#F9F9F9" stroke="#DDDDDD" stroke-linecap="round" stroke-linejoin="round"/>
<path d="M244.239 66.0339C245.086 61.4352 245.348 60.0421 244.463 58.2975C243.578 56.5529 241.076 54.732 239.611 55.617C238.145 56.5021 236.803 61.5453 236.803 61.5453L238.548 62.5573C238.548 62.5573 239.395 56.1294 241.152 56.7688C242.909 57.4082 244.188 59.6017 243.227 63.9674L244.239 66.0339Z" fill="#EDEDED" stroke="#DDDDDD" stroke-width="0.75" stroke-linecap="round" stroke-linejoin="round"/>
<path d="M223.211 87.2613C224.883 91.8049 228.792 101.299 231.853 101.739C233.963 102.029 236.106 101.993 238.205 101.633C239.2 101.434 239.983 101.129 240.343 100.718C242.015 98.7099 243.386 96.469 244.413 94.0661C245.433 91.4577 248.063 79.923 247.699 75.9807C247.334 72.0384 244.925 60.6138 236.82 55.9559C232.916 53.7074 230.689 60.2666 227.547 67.7108C225.133 73.44 222.889 79.2328 222.728 83.6705C222.656 84.8874 222.82 86.1067 223.211 87.2613Z" fill="#F9F9F9" stroke="#DDDDDD" stroke-linecap="round" stroke-linejoin="round"/>
<path d="M223.211 87.2613C224.884 91.8049 228.792 101.299 231.854 101.739C233.964 102.029 236.106 101.993 238.205 101.633C240.234 97.7713 240.788 96.6534 240.361 94.0534C239.933 91.4535 236.41 85.1399 235.034 84.1956C233.763 83.3487 226.967 81.6337 222.754 83.6747C222.674 84.8886 222.829 86.1064 223.211 87.2613Z" fill="#EDEDED" stroke="#DDDDDD" stroke-width="0.75" stroke-linecap="round" stroke-linejoin="round"/>
<path d="M241.795 64.2596C240.749 68.566 239.538 73.495 239.026 74.6129C238.513 75.7308 236.561 80.6512 236.561 80.6512" fill="#F9F9F9"/>
<path d="M241.795 64.2596C240.749 68.566 239.538 73.495 239.026 74.6129C238.513 75.7308 236.561 80.6512 236.561 80.6512" stroke="#DDDDDD" stroke-width="0.75" stroke-linecap="round" stroke-linejoin="round"/>
<path d="M237.896 74.1006C235.262 72.6524 230.053 72.1527 228.491 72.2162L237.896 74.1006Z" fill="#F9F9F9"/>
<path d="M237.896 74.1006C235.262 72.6524 230.053 72.1527 228.491 72.2162" stroke="#DDDDDD" stroke-width="0.75" stroke-linecap="round" stroke-linejoin="round"/>
<path d="M248.719 80.0924C248.274 80.8631 246.932 79.6436 245.873 77.9752C244.815 76.3068 241.893 70.4124 241.974 68.8711C242.054 67.3297 243.113 65.619 242.583 63.4213C242.054 61.2236 236.769 56.1338 234.902 55.5917C235.292 55.3925 235.724 55.2886 236.162 55.2886C236.6 55.2886 237.031 55.3925 237.421 55.5917C238.802 56.2693 245.552 62.6083 247.419 69.1929C249.286 75.7775 249.172 79.3133 248.719 80.0924Z" fill="#EDEDED" stroke="#DDDDDD" stroke-width="0.75" stroke-linecap="round" stroke-linejoin="round"/>
<path d="M244.658 71.2592L243.536 69.7559L241.796 74.9686L242.956 76.4506L244.658 71.2592Z" fill="#DDDDDD" stroke="#DDDDDD" stroke-linecap="round" stroke-linejoin="round"/>
<path d="M248.478 78.479L247.605 77.3061L246.246 81.3712L247.152 82.5272L248.478 78.479Z" fill="#DDDDDD" stroke="#DDDDDD" stroke-linecap="round" stroke-linejoin="round"/>
<path d="M225.731 82.1165C226.481 81.023 227.174 79.8924 227.81 78.729C231.041 72.8727 234.208 64.5773 235.06 59.5849C235.359 57.8812 235.547 56.1598 235.623 54.4315C235.784 50.2352 234.996 46.6147 232.138 45.5391C230.414 44.9082 227.98 45.6069 225.32 49.2104C223.114 52.2 220.747 57.1924 218.494 65.077C211.507 89.4591 220.815 89.205 225.731 82.1165Z" fill="#28C079"/>
<path d="M225.312 49.2063C228.17 49.5323 231.075 50.9424 233.806 52.9622C234.42 53.4196 235.03 53.9023 235.623 54.4147C235.784 50.2183 234.996 46.5978 232.138 45.5223C230.406 44.904 227.971 45.6027 225.312 49.2063Z" fill="#2BDA88"/>
<path d="M198.252 98.4997C197.608 98.8257 196.241 97.6528 195.415 95.2349C195.415 95.2349 198.925 93.5072 199.001 93.5072C199.078 93.5072 199.929 97.2928 198.252 98.4997Z" fill="#145C3B"/>
<path d="M196.525 87.4053C193.37 88.6333 192.587 88.934 191.867 88.9975C191.147 89.061 188.479 88.718 187.84 88.9975C187.201 89.277 186.684 90.2678 186.684 90.2678C186.684 90.2678 184.021 89.9629 183.364 90.3991C182.708 90.8352 182.78 92.0929 183.309 92.4232C183.838 92.7535 184.372 93.016 184.215 93.9222C184.059 94.8283 184.186 95.2687 184.495 95.5482C184.804 95.8277 183.936 96.3274 184.588 97.3902C185.24 98.4531 184.622 99.2026 185.592 99.5794C186.561 99.9563 199.586 96.5179 200.209 95.8912C200.831 95.2645 200.133 86.0206 196.525 87.4053Z" fill="#FEBD9D"/>
<path d="M189.953 88.9213C189.068 88.8747 188.166 88.8493 187.835 88.9975C187.209 89.2812 186.679 90.2679 186.679 90.2679C186.679 90.2679 184.016 89.963 183.36 90.3991C182.703 90.8353 182.775 92.0929 183.305 92.4232C183.834 92.7535 184.367 93.016 184.211 93.9222C184.054 94.8284 184.181 95.2688 184.49 95.5482C184.799 95.8277 183.931 96.3274 184.583 97.3902C185.235 98.4531 184.617 99.2026 185.587 99.5795C185.828 99.6726 186.819 99.5286 188.178 99.2492" stroke="#EF8A66" stroke-width="0.75" stroke-linecap="round" stroke-linejoin="round"/>
<path d="M186.684 90.2551C187.687 90.2764 188.69 90.2297 189.686 90.1154" stroke="#EF8A66" stroke-width="0.75" stroke-linecap="round" stroke-linejoin="round"/>
<path d="M224.532 74.3589C221.343 70.2515 216.91 72.4788 209.008 77.3781C203.923 80.5744 199.068 84.1231 194.48 87.9982C194.48 87.9982 198.778 93.2955 198.252 98.4997C198.252 98.4997 219.713 88.2565 222.876 85.0976C225.37 82.6077 226.958 77.484 224.532 74.3589Z" fill="#2BDA88"/>
<path d="M221.665 72.3518C218.73 71.6319 214.809 73.7915 209.008 77.3781C203.923 80.5744 199.068 84.1231 194.479 87.9981" stroke="#145C3B" stroke-width="0.75" stroke-linecap="round" stroke-linejoin="round"/>
<path d="M209.748 31.8194C212.687 32.8145 216.663 31.9422 219.263 27.6866C220.864 25.1814 221.551 22.2003 221.207 19.2473C221.042 17.6763 219.759 14.077 215.626 15.2796C211.925 16.3467 210.18 18.6672 209.054 21.7583C208.918 22.1225 208.791 22.4994 208.673 22.8889C208.491 23.4945 208.313 24.1169 208.165 24.7394C207.411 27.8475 207.301 30.9725 209.748 31.8194Z" fill="#FEBD9D"/>
<path d="M214.505 24.1127C214.793 24.9892 216.156 25.3238 217.541 24.8622C218.926 24.4006 219.815 23.3166 219.523 22.4401C219.23 21.5635 217.871 21.229 216.482 21.6906C215.093 22.1521 214.208 23.2362 214.505 24.1127Z" fill="#F4AF90"/>
<path d="M208.166 24.7182C208.382 24.7675 208.607 24.7648 208.822 24.7103C209.037 24.6558 209.236 24.5512 209.402 24.4048C209.974 23.8289 209.826 22.7111 209.055 21.7371C208.919 22.1013 208.792 22.4782 208.674 22.8677C208.492 23.4733 208.314 24.0957 208.166 24.7182Z" fill="#F4AF90"/>
<path d="M211.443 20.9835C211.444 21.0902 211.413 21.1947 211.354 21.2838C211.295 21.3729 211.211 21.4425 211.113 21.4837C211.014 21.5249 210.906 21.5359 210.801 21.5153C210.696 21.4947 210.6 21.4434 210.525 21.3679C210.449 21.2925 210.398 21.1963 210.377 21.0915C210.357 20.9868 210.368 20.8784 210.409 20.7799C210.45 20.6815 210.52 20.5975 210.609 20.5388C210.698 20.48 210.803 20.4491 210.909 20.4499C211.051 20.4499 211.187 20.5061 211.287 20.6062C211.387 20.7062 211.443 20.8419 211.443 20.9835Z" fill="#683F1D"/>
<path d="M214.187 21.5763C214.188 21.6828 214.157 21.7872 214.099 21.8762C214.04 21.9652 213.957 22.0348 213.858 22.0761C213.76 22.1175 213.652 22.1287 213.547 22.1085C213.443 22.0882 213.347 22.0373 213.271 21.9623C213.195 21.8872 213.144 21.7914 213.123 21.687C213.101 21.5826 213.112 21.4742 213.152 21.3757C213.193 21.2772 213.262 21.1929 213.35 21.1337C213.439 21.0744 213.543 21.0427 213.65 21.0427C213.792 21.0427 213.928 21.0988 214.028 21.1987C214.129 21.2987 214.186 21.4344 214.187 21.5763Z" fill="#683F1D"/>
<path d="M209.931 16.6219C210.541 17.2486 211.346 16.6219 211.346 16.6219C211.248 17.5408 213.315 18.3157 214.801 18.4724C216.287 18.6291 215.648 17.2529 216.795 16.7405C217.943 16.2281 219.522 17.4731 219.522 17.4731C219.522 17.4731 217.113 19.1033 216.982 21.2841C216.891 22.5518 217.269 23.8088 218.044 24.8156L220.678 25.3746C221.626 24.9267 222.497 24.3307 223.257 23.6088C224.667 22.2495 225.472 20.5473 225.086 18.8789C224.502 16.3382 221.966 15.9148 221.966 15.9148C221.915 15.1344 221.662 14.3806 221.231 13.7278C220.801 13.0751 220.207 12.546 219.51 12.1927C217.515 11.0959 215.419 11.3458 214.648 11.9471C213.878 12.5484 213.649 12.6966 212.222 12.9803H212.159C211.968 12.9979 211.783 13.054 211.615 13.1452C211.447 13.2364 211.299 13.3608 211.18 13.5108C211.061 13.6608 210.974 13.8334 210.924 14.0181C210.874 14.2027 210.862 14.3957 210.888 14.5851C210.888 14.5851 209.321 15.9868 209.931 16.6219Z" fill="#BF8228"/>
<path d="M209.932 16.6219C210.542 17.2486 211.346 16.6219 211.346 16.6219C211.249 17.5408 213.315 18.3157 214.802 18.4723C216.288 18.629 215.648 17.2528 216.796 16.7404C217.944 16.2281 219.523 17.473 219.523 17.473C219.523 17.473 217.114 19.1033 216.982 21.284C216.891 22.5518 217.27 23.8087 218.045 24.8156L220.679 25.3745C221.627 24.9267 222.497 24.3306 223.258 23.6088C220.556 22.5671 221.509 20.1704 221.7 18.4131C221.966 15.9317 220.565 13.8779 217.465 15.0255C215.678 15.6733 213.654 14.3776 212.206 13.0141H212.142C211.952 13.0317 211.767 13.0878 211.599 13.179C211.43 13.2702 211.282 13.3946 211.164 13.5446C211.045 13.6946 210.958 13.8672 210.908 14.0519C210.858 14.2366 210.845 14.4295 210.872 14.619C210.872 14.619 209.322 15.9867 209.932 16.6219Z" fill="#B57724"/>
<path d="M211.346 16.6177C211.651 15.6819 211.816 15.6946 212.849 15.5845C213.882 15.4744 215.161 15.3262 215.5 14.6444" stroke="#9B621F" stroke-width="0.75" stroke-linecap="round" stroke-linejoin="round"/>
<path d="M210.906 14.6275C211.749 14.2664 212.672 14.1364 213.582 14.2506" stroke="#9B621F" stroke-width="0.75" stroke-linecap="round" stroke-linejoin="round"/>
<path d="M216.038 20.5727C216.174 21.0935 213.129 20.3821 213.62 19.3024C214.111 18.2226 215.792 19.6453 216.038 20.5727Z" fill="#BF8228"/>
<path d="M212.57 18.9339C212.663 19.5987 210.317 19.6665 210.313 19.116C210.308 18.5655 212.434 17.9473 212.57 18.9339Z" fill="#BF8228"/>
<path d="M212.831 20.3187C212.374 21.8134 211.383 22.0675 210.786 22.4613C210.189 22.8551 210.312 24.0789 210.312 24.0789" stroke="#EF8A66" stroke-width="0.75" stroke-linecap="round" stroke-linejoin="round"/>
<path d="M213.712 24.4092C213.102 25.417 212.204 26.0013 211.214 25.6795" stroke="#EF8A66" stroke-width="0.75" stroke-linecap="round" stroke-linejoin="round"/>
<path d="M218.058 24.8242C218.57 22.7832 221.869 21.6991 222.326 24.5828C222.72 27.0769 220.374 27.2844 219.142 27.1997L218.058 24.8242Z" fill="#FEBD9D"/>
<path d="M221.292 24.4641C219.945 23.812 219.005 24.9595 218.84 25.5693" stroke="#EF8A66" stroke-width="0.75" stroke-linecap="round" stroke-linejoin="round"/>
<path d="M219.014 25.1798C220.128 23.5411 221.555 26.0479 219.645 26.2427" stroke="#EF8A66" stroke-width="0.75" stroke-linecap="round" stroke-linejoin="round"/>
<path d="M219.531 27.2124C219.182 27.22 218.835 27.17 218.502 27.0641" stroke="#EF8A66" stroke-width="0.75" stroke-linecap="round" stroke-linejoin="round"/>
<path d="M195.542 44.8567L195.495 63.1752L189.452 63.1574L181.569 63.1396L181.604 49.6292L181.616 44.8211L190.497 44.7855L195.542 44.8567Z" fill="url(#paint0_linear_12_2296)"/>
<path d="M181.617 44.815L184.157 41.0278L192.765 41.0516L190.479 44.8387L181.617 44.815Z" fill="url(#paint1_linear_12_2296)"/>
<path d="M192.764 41.0516L195.542 44.8566L190.479 44.8388L192.764 41.0516Z" fill="#B1BEE3"/>
<path d="M195.543 44.8567L195.495 63.1752L190.432 63.1633L190.479 44.8389L195.543 44.8567Z" fill="url(#paint2_linear_12_2296)"/>
<path d="M184.156 41.028L192.763 41.0517V40.8736C192.763 40.1732 192.2 39.6033 191.499 39.6033L185.427 39.5855C184.726 39.5855 184.156 40.1494 184.156 40.8499V41.028Z" fill="url(#paint3_linear_12_2296)"/>
<path d="M181.605 50.3534L190.462 50.3771L190.456 53.6597L181.593 53.636L181.605 50.3534Z" fill="url(#paint4_linear_12_2296)"/>
<path d="M195.523 50.3891L195.518 53.6717L190.454 53.6598L190.46 50.3772L195.523 50.3891Z" fill="url(#paint5_linear_12_2296)"/>
<path d="M179.166 42.4288H174.061V54.5976H179.166V42.4288Z" fill="url(#paint6_linear_12_2296)"/>
<path d="M178.193 37.3536H176.643C174.643 37.3536 173.028 38.9742 173.028 40.9687V43.5568H176.115C176.821 43.5568 177.391 44.1266 177.391 44.833C177.391 45.5394 176.821 46.1092 176.115 46.1092H173.028V49.7896H176.115C176.821 49.7896 177.391 50.3594 177.391 51.0658C177.391 51.7722 176.821 52.342 176.115 52.342H173.028V59.4356H181.814V40.9687C181.808 38.9742 180.187 37.3536 178.193 37.3536Z" fill="url(#paint7_linear_12_2296)"/>
<path d="M163.739 45.1892C163.739 45.1892 154.657 41.6514 156.64 38.9861C158.628 36.3149 164.107 44.3819 164.107 44.3819L163.739 45.1892Z" fill="#3BC49A"/>
<path d="M164.553 44.5838C164.553 44.5838 165.022 34.8428 161.78 35.573C158.528 36.3031 163.668 44.5897 163.668 44.5897L164.553 44.5838Z" fill="#3BC49A"/>
<path d="M164.356 45.2723C164.356 45.2723 160.314 32.1716 156.556 34.5994C153.149 36.8076 163.484 45.5335 163.484 45.5335L164.356 45.2723Z" fill="#44D0A7"/>
<path d="M176.68 62.8607C176.46 62.837 176.235 62.742 176.027 62.5639L174.626 61.3708L174.62 61.3648L171.652 58.8302L171.106 58.3612L167.153 54.9896L166.387 54.3366L163.822 52.1522C163.567 51.9325 163.33 51.6892 163.116 51.4339C162.938 51.2202 162.772 50.9946 162.629 50.7572C161.893 49.5759 161.602 48.1632 161.911 46.786C162.172 45.6285 162.778 44.7084 163.579 44.0792C163.662 44.0139 163.751 43.9486 163.84 43.8893C165.027 43.0879 166.577 42.8683 168.073 43.3669C168.447 43.4915 168.797 43.6637 169.123 43.8714C170.037 44.4472 170.756 45.3139 171.195 46.3171L171.563 47.1303L171.949 47.9851L173.878 52.2353L174.228 53.007L176.502 58.011L176.709 58.474L177.926 61.1571C178.366 62.1009 177.535 62.9676 176.68 62.8607Z" fill="url(#paint8_linear_12_2296)"/>
<path opacity="0.1" d="M174.626 61.3648L163.822 52.1521C162.267 50.8225 161.46 48.7627 161.905 46.786C162.166 45.6285 162.772 44.7084 163.573 44.0792C163.656 44.0139 163.745 43.9486 163.834 43.8892C163.982 49.2969 170.993 57.4827 174.626 61.3648Z" fill="black"/>
<path opacity="0.1" d="M169.123 43.8714L165.87 45.955L168.072 43.3728C168.446 43.4975 168.797 43.6637 169.123 43.8714Z" fill="black"/>
<path opacity="0.1" d="M166.173 48.5194L163.116 51.4399C162.938 51.2262 162.771 51.0007 162.629 50.7632L166.173 48.5194Z" fill="black"/>
<path opacity="0.1" d="M171.954 47.991L169.01 49.8074L171.562 47.1302L171.954 47.991Z" fill="black"/>
<path opacity="0.1" d="M169.532 52.5676L167.152 54.9895L166.386 54.3425L169.532 52.5676Z" fill="black"/>
<path opacity="0.1" d="M174.234 53.0187L172.209 53.9566L173.883 52.2411L174.234 53.0187Z" fill="black"/>
<path opacity="0.1" d="M173.545 56.7882L171.652 58.8302L171.105 58.3672L173.545 56.7882Z" fill="black"/>
<path opacity="0.1" d="M176.721 58.48L175.403 59.2042L176.513 58.0229L176.721 58.48Z" fill="black"/>
<path d="M161.245 51.0956C161.245 51.0956 154.716 48.5491 156.14 46.6377C157.571 44.7144 161.506 50.5198 161.506 50.5198L161.245 51.0956Z" fill="#3BC49A"/>
<path d="M161.834 50.6564C161.834 50.6564 162.172 43.6578 159.845 44.1802C157.506 44.7026 161.204 50.6623 161.204 50.6623L161.834 50.6564Z" fill="#3BC49A"/>
<path d="M161.69 51.155C161.69 51.155 158.782 41.7345 156.087 43.4857C153.635 45.0706 161.067 51.3449 161.067 51.3449L161.69 51.155Z" fill="#44D0A7"/>
<path d="M170.547 63.7928C170.387 63.775 170.226 63.7037 170.078 63.5791L169.069 62.7183C169.069 62.7183 169.069 62.7183 169.063 62.7183L166.926 60.896L166.534 60.5576L163.691 58.1357L163.145 57.6668L161.305 56.0938C161.121 55.9335 160.948 55.7613 160.794 55.5773C160.664 55.423 160.545 55.2627 160.444 55.0906C159.916 54.2417 159.702 53.2267 159.927 52.2354C160.112 51.4043 160.551 50.7454 161.127 50.2883C161.186 50.2409 161.251 50.1934 161.317 50.1518C162.171 49.576 163.287 49.4158 164.356 49.7779C164.623 49.8669 164.878 49.9915 165.11 50.1399C165.769 50.5555 166.279 51.1787 166.6 51.897L166.867 52.4847L167.146 53.102L168.535 56.1591L168.79 56.717L170.422 60.3143L170.571 60.6467L171.443 62.5759C171.758 63.2466 171.164 63.8699 170.547 63.7928Z" fill="url(#paint9_linear_12_2296)"/>
<path opacity="0.1" d="M169.068 62.7183L161.304 56.0937C160.182 55.138 159.606 53.654 159.927 52.2353C160.111 51.4043 160.55 50.7454 161.126 50.2883C161.185 50.2408 161.251 50.1933 161.316 50.1518C161.423 54.0458 166.462 59.9284 169.068 62.7183Z" fill="black"/>
<path opacity="0.1" d="M165.116 50.1458L162.777 51.6417L164.356 49.7838C164.629 49.8728 164.879 49.9974 165.116 50.1458Z" fill="black"/>
<path opacity="0.1" d="M162.99 53.4879L160.794 55.5833C160.663 55.429 160.544 55.2687 160.443 55.0966L162.99 53.4879Z" fill="black"/>
<path opacity="0.1" d="M167.146 53.102L165.033 54.4139L166.867 52.4906L167.146 53.102Z" fill="black"/>
<path opacity="0.1" d="M165.413 56.3964L163.697 58.1357L163.151 57.6727L165.413 56.3964Z" fill="black"/>
<path opacity="0.1" d="M168.79 56.717L167.336 57.3937L168.535 56.165L168.79 56.717Z" fill="black"/>
<path opacity="0.1" d="M168.291 59.4298L166.932 60.896L166.54 60.5636L168.291 59.4298Z" fill="black"/>
<path opacity="0.1" d="M170.576 60.6466L169.626 61.163L170.422 60.3141L170.576 60.6466Z" fill="black"/>
<path d="M196.291 53.6183V90.659H158.538V53.5886L159.102 55.0726L160.645 53.1731L162.129 55.132L163.732 53.1731L163.97 53.4758L164.474 54.1229L165.216 55.0726L166.759 53.1731L168.303 55.0133L169.787 53.1731L171.39 55.132L172.874 53.1731L174.358 55.0726L175.901 53.1731L177.385 55.0133L178.869 53.1731L180.412 55.0133L181.956 53.1731L183.499 55.0133L184.983 53.1731L186.467 55.0133L188.07 53.1731L189.613 55.0133L191.156 53.1731L192.64 55.0726L194.184 53.1731L195.668 54.8945L196.291 53.6183Z" fill="url(#paint10_linear_12_2296)"/>
<path d="M164.474 54.1229V90.659H158.538V53.5886L159.102 55.0726L160.645 53.1731L162.129 55.132L163.732 53.1731L163.97 53.4758L164.474 54.1229Z" fill="#EECA9D"/>
<path d="M169.786 53.1731V90.659H163.969V53.4758L165.215 55.0726L166.759 53.1731L168.302 55.0133L169.786 53.1731Z" fill="url(#paint11_linear_12_2296)"/>
<path d="M169.787 90.659H158.538V90.6352L163.999 83.2983L169.787 90.659Z" fill="#E1AF72"/>
<path d="M188.99 88.0767C190.678 88.0767 192.047 86.2297 192.047 83.9512C192.047 81.6727 190.678 79.8257 188.99 79.8257C187.301 79.8257 185.933 81.6727 185.933 83.9512C185.933 86.2297 187.301 88.0767 188.99 88.0767Z" fill="url(#paint12_linear_12_2296)"/>
<path d="M195.134 88.1064C196.823 88.1064 198.191 86.2593 198.191 83.9809C198.191 81.7024 196.823 79.8553 195.134 79.8553C193.446 79.8553 192.077 81.7024 192.077 83.9809C192.077 86.2593 193.446 88.1064 195.134 88.1064Z" fill="url(#paint13_linear_12_2296)"/>
<path d="M182.52 88.0767C184.209 88.0767 185.577 86.2297 185.577 83.9512C185.577 81.6727 184.209 79.8257 182.52 79.8257C180.832 79.8257 179.463 81.6727 179.463 83.9512C179.463 86.2297 180.832 88.0767 182.52 88.0767Z" fill="url(#paint14_linear_12_2296)"/>
<path d="M178.068 88.0767C179.756 88.0767 181.125 86.2297 181.125 83.9512C181.125 81.6727 179.756 79.8257 178.068 79.8257C176.379 79.8257 175.011 81.6727 175.011 83.9512C175.011 86.2297 176.379 88.0767 178.068 88.0767Z" fill="url(#paint15_linear_12_2296)"/>
<path d="M191.127 88.0767C192.815 88.0767 194.184 86.2297 194.184 83.9512C194.184 81.6727 192.815 79.8257 191.127 79.8257C189.439 79.8257 188.07 81.6727 188.07 83.9512C188.07 86.2297 189.439 88.0767 191.127 88.0767Z" fill="url(#paint16_linear_12_2296)"/>
<path d="M184.598 88.0767C186.286 88.0767 187.655 86.2297 187.655 83.9512C187.655 81.6727 186.286 79.8257 184.598 79.8257C182.909 79.8257 181.541 81.6727 181.541 83.9512C181.541 86.2297 182.909 88.0767 184.598 88.0767Z" fill="url(#paint17_linear_12_2296)"/>
<path d="M199.734 85.9101V86.7411L196.766 90.6589H194.391L194.154 89.9466H193.204L192.67 90.6589H188.455L187.862 89.8872H186.081L185.547 90.6589H182.401L181.807 89.8872H179.967L179.373 90.6589H177.533L174.862 87.4535V85.9101H199.734Z" fill="#B68649"/>
<path d="M199.734 85.9101V86.7411L196.766 90.6589H194.392L194.154 89.9466H193.205L192.67 90.6589H191.05L193.341 85.9101H199.734Z" fill="url(#paint18_linear_12_2296)"/>
<path d="M200.476 84.8712H173.942V86.2959H200.476V84.8712Z" fill="url(#paint19_linear_12_2296)"/>
<path d="M200.476 84.8712H192.522V86.2959H200.476V84.8712Z" fill="#B68649"/>
<path d="M95.2192 177.301C95.2192 180.369 94.4252 185.011 96.1743 185.011H112.718C113.355 185.011 113.182 182.912 111.426 182.437C109.669 181.961 105.166 178.524 104.74 177.301H95.2192Z" fill="#683F1D"/>
<path d="M107.103 96.8631L107.049 177.711H96.2203V92.7204L107.103 96.8631Z" fill="#C3DCF8"/>
<path d="M99.5388 98.5125C99.6424 101.094 98.8368 102.321 98.085 102.525" stroke="#83ADDF" stroke-width="0.75" stroke-linecap="round" stroke-linejoin="round"/>
<path d="M85.8966 179.867C85.8966 183.062 85.0757 187.853 86.8901 187.853H104.017C104.681 187.853 104.5 185.682 102.682 185.168C100.864 184.654 96.1958 181.118 95.7777 179.852L85.8966 179.867Z" fill="#683F1D"/>
<path d="M102.684 185.184C100.865 184.689 96.1972 181.133 95.7791 179.867" stroke="#91613D" stroke-width="0.75" stroke-linecap="round" stroke-linejoin="round"/>
<path d="M78.3443 96.8632C78.6397 110.051 84.24 180.427 84.24 180.427C84.24 180.427 97.2358 180.162 97.2358 180.427V95.6549L78.3443 96.8632Z" fill="#C3DCF8"/>
<path d="M97.2358 180.427V105.337" stroke="#83ADDF" stroke-width="0.75" stroke-linecap="round" stroke-linejoin="round"/>
<path d="M86.8455 50.7142C87.018 50.7258 87.191 50.7258 87.3634 50.7142C90.0255 50.4764 91.5828 47.5727 91.9664 45.344C92.35 42.9735 93.612 42.5707 94.3753 41.8496C95.1386 41.1284 96.159 40.0391 95.5682 38.2324C94.9775 36.4257 93.9725 32.9082 97.0681 32.8392C98.6369 32.8008 99.546 31.5043 100.056 30.2347C100.364 29.439 100.57 28.6078 100.67 27.7605C95.5261 25.2289 93.0749 26.675 90.9461 28.8039C88.8172 30.9328 89.9909 32.9619 88.8555 35.7276C87.7048 38.5623 83.1516 38.8921 82.91 43.0157C82.6683 47.1392 83.8728 50.5915 86.8455 50.7142Z" fill="#604730"/>
<path d="M86.6883 48.382C86.8495 49.1727 87.0753 49.9489 87.3634 50.7027C90.0254 50.4649 91.5828 47.5611 91.9664 45.3325C92.35 42.962 93.6119 42.5592 94.3753 41.8381C95.1386 41.1169 96.1589 40.0275 95.5682 38.2209C94.9775 36.4142 93.9725 32.8967 97.068 32.8277C98.6369 32.7893 99.546 31.4928 100.056 30.2231C94.8893 27.8756 92.2234 29.2412 91.7899 31.2588C91.3219 33.4146 94.7895 36.2147 91.7899 38.8806C88.7903 41.5465 85.1309 41.1438 86.6883 48.382Z" fill="#473526"/>
<path d="M102.122 57.9331C106.342 58.1633 108.551 55.3785 108.409 53.568C108.336 52.678 108.167 50.4494 107.983 47.8756C107.818 45.6047 107.638 43.0577 107.496 40.902C107.473 40.5491 107.45 40.2039 107.431 39.874C106.971 32.5514 99.8398 30.3918 99.0496 38.8882C98.7926 41.6423 97.5882 45.9576 96.8095 49.6285C96.004 53.3838 97.8989 57.703 102.122 57.9331Z" fill="#FEBD9D"/>
<path d="M107.998 47.8755C107.833 45.6047 107.653 43.0577 107.511 40.902L102.812 39.7052C101.692 43.6715 103.157 47.7375 107.998 47.8755Z" fill="#F4A789"/>
<path d="M77.0667 56.7172C77.1051 58.1442 77.2202 59.6325 77.3851 61.1361C77.8032 64.972 78.5359 68.9497 79.0384 72.2831C79.422 74.8493 79.679 77.0434 79.5485 78.5278C79.3376 80.9636 79.1074 84.2816 78.9079 87.3886C78.5896 92.3407 78.3441 96.8632 78.3441 96.8632H107.113C107.113 96.8632 118.851 79.5443 120.607 71.7576C121.516 67.7338 121.708 64.3621 121.375 61.5351C121.131 59.1906 120.362 56.9313 119.123 54.9259C116.967 51.5427 111.835 49.3869 107.999 48.2324C108.129 50.5032 108.643 53.8634 103.883 53.3916C99.1228 52.9198 97.1781 49.3563 97.6153 46.0268C90.964 44.7724 82.1109 44.1664 79.3913 47.0893C79.0117 47.503 78.6881 47.9647 78.4285 48.4625C77.9696 49.3535 77.6402 50.3055 77.4503 51.2895C77.1165 53.0783 76.9878 54.8993 77.0667 56.7172Z" fill="#FED81D"/>
<path d="M77.4539 51.301C81.6733 51.5273 86.0654 53.3494 87.4847 57.4384C87.5905 57.7435 87.6776 58.0548 87.7455 58.3705C87.8841 59.031 88.095 59.6742 88.3746 60.2884C91.0597 66.2762 99.3988 66.6175 105.916 62.4326C111.386 58.9228 114.543 57.0356 121.363 61.5274C121.122 59.1865 120.356 56.93 119.123 54.9259C116.967 51.5427 111.835 49.3869 107.999 48.2324C108.129 50.5032 108.643 53.8634 103.883 53.3916C99.1226 52.9198 97.1778 49.3563 97.6151 46.0267C90.9638 44.7724 82.1106 44.1664 79.391 47.0893C79.0115 47.503 78.6878 47.9647 78.4282 48.4625C77.9696 49.3573 77.6415 50.3132 77.4539 51.301Z" fill="#FFE05C"/>
<path d="M112.771 57.9446L111.447 64.5845" stroke="#F7AD2B" stroke-width="0.75" stroke-linecap="round" stroke-linejoin="round"/>
<path d="M79.5486 78.5278C79.3376 80.9636 79.1074 84.2816 78.908 87.3886C80.799 85.8811 83.7105 82.9927 82.4101 80.2961C80.542 76.4219 81.6429 74.224 84.1631 72.3866C86.6832 70.5493 86.8865 69.0955 84.8842 63.1154C82.8819 57.1353 77.3852 61.1323 77.3852 61.1323C77.8033 64.9681 78.5359 68.9459 79.0384 72.2792C79.4258 74.8492 79.679 77.0433 79.5486 78.5278Z" fill="#FCC71F"/>
<path d="M92.5672 70.438H104.796V98.0868H92.5672V70.438Z" fill="#E1B074" stroke="#55442F" stroke-linecap="round" stroke-linejoin="round"/>
<path d="M104.796 70.438H131.866V98.0868H104.796V70.438Z" fill="#F3D3AB" stroke="#87663D" stroke-linecap="round" stroke-linejoin="round"/>
<path d="M108.727 78.7426H135.801L131.865 70.438H104.796L108.727 78.7426Z" fill="#FFE9CE" stroke="#87663D" stroke-linecap="round" stroke-linejoin="round"/>
<path d="M88.624 78.7465H100.864L104.796 70.438H92.5557L88.624 78.7465Z" fill="#EECA9D" stroke="#55442F" stroke-linecap="round" stroke-linejoin="round"/>
<path d="M132.632 90.3729C133.476 90.0276 134.213 91.1208 133.361 91.9072C132.509 92.6935 131.105 92.9275 130.852 92.2908C130.599 91.654 131.704 90.7526 132.632 90.3729Z" fill="#FEBD9D" stroke="#EF8A66" stroke-width="0.75" stroke-linecap="round" stroke-linejoin="round"/>
<path d="M132.767 88.5125C133.734 88.1289 134.582 89.3679 133.6 90.2578C132.618 91.1477 131.018 91.4085 130.727 90.7066C130.435 90.0046 131.705 88.9459 132.767 88.5125Z" fill="#FEBD9D" stroke="#EF8A66" stroke-width="0.75" stroke-linecap="round" stroke-linejoin="round"/>
<path d="M132.697 86.5293C133.667 86.0959 134.197 87.5727 133.219 88.5508C132.24 89.5289 130.468 89.9892 130.177 89.1991C129.885 88.4089 131.634 87.0088 132.697 86.5293Z" fill="#FEBD9D" stroke="#EF8A66" stroke-width="0.75" stroke-linecap="round" stroke-linejoin="round"/>
<path d="M131.865 84.0245V85.2366C131.865 85.2366 129.921 86.652 129.886 87.5151C129.852 88.3782 130.822 88.5201 131.865 87.9332C132.909 87.3463 133.964 86.2032 133.603 85.1829C133.243 84.1626 131.865 84.0245 131.865 84.0245Z" fill="#FEBD9D" stroke="#EF8A66" stroke-width="0.75" stroke-linecap="round" stroke-linejoin="round"/>
<path d="M131.865 85.2367C132.071 85.083 132.325 85.0057 132.582 85.0181" stroke="#EF8A66" stroke-width="0.75" stroke-linecap="round" stroke-linejoin="round"/>
<path d="M56.5019 82.2792C56.5019 86.4449 59.4325 89.8742 63.1993 90.3345C63.4741 90.3685 63.7508 90.3852 64.0278 90.3843C68.1858 90.3843 71.5537 86.7633 71.5537 82.2945C71.5537 77.8258 68.1858 74.2009 64.0278 74.2009C62.4677 74.2039 60.9518 74.7187 59.7125 75.6662C58.7037 76.4463 57.889 77.4492 57.332 78.5964C56.7751 79.7436 56.4909 81.004 56.5019 82.2792Z" fill="#FED81D"/>
<path d="M56.5025 82.2793C56.5025 86.445 59.4331 89.8742 63.1999 90.3345C63.6986 84.6114 62.3982 79.1108 59.7131 75.6663C58.7043 76.4464 57.8896 77.4492 57.3327 78.5964C56.7757 79.7436 56.4916 81.0041 56.5025 82.2793Z" fill="#FCC71F"/>
<path d="M76.2997 53.3416C76.2988 54.5101 76.561 55.6639 77.0669 56.7172C77.7401 58.0949 78.7883 59.2547 80.0911 60.0635C81.3938 60.8723 82.8983 61.2973 84.4317 61.2895C85.0775 61.2908 85.7213 61.2161 86.3496 61.067C87.0585 60.9031 87.7422 60.6451 88.3826 60.2999C89.644 59.6269 90.6998 58.6252 91.4379 57.4008C92.176 56.1764 92.569 54.7751 92.5752 53.3455C92.5449 51.2137 91.6707 49.1809 90.1442 47.6926C88.6178 46.2042 86.5635 45.3817 84.4317 45.4053C82.613 45.3999 80.8441 45.999 79.4029 47.1084C78.5532 47.7621 77.8436 48.58 77.3162 49.5135C76.9991 50.0709 76.7542 50.6664 76.5874 51.2856C76.3988 51.9548 76.302 52.6464 76.2997 53.3416Z" fill="#FED81D"/>
<path d="M75.7782 51.2971C76.0467 51.2971 76.319 51.2779 76.5952 51.2779C76.8714 51.2779 77.1783 51.2779 77.4698 51.3009C81.6892 51.5272 86.0813 53.3493 87.5005 57.4383C87.6064 57.7434 87.6935 58.0547 87.7614 58.3704C87.8999 59.0309 88.1109 59.6741 88.3904 60.2883C89.6518 59.6154 90.7076 58.6136 91.4457 57.3892C92.1838 56.1649 92.5768 54.7636 92.583 53.3339C92.5497 51.2028 91.6731 49.1718 90.1453 47.6857C88.6175 46.1996 86.563 45.3796 84.4318 45.4052C82.6132 45.3999 80.8442 45.999 79.4031 47.1084C78.5533 47.7621 77.8437 48.58 77.3164 49.5134C76.9059 49.9354 76.3843 50.5453 75.7782 51.2971Z" fill="#FFE05C"/>
<path d="M61.9686 86.1803C64.4312 86.3375 67.8067 84.8377 71.984 80.2961C74.4619 77.611 76.8785 74.9259 79.0419 72.283C82.2027 68.4472 84.8302 64.665 86.33 61.067C86.834 59.903 87.2196 58.6911 87.4808 57.4498C88.0639 54.8743 87.7117 52.1754 86.4873 49.8357C85.3749 47.7451 81.9341 45.7812 78.432 48.474C78.0285 48.7851 77.6525 49.1303 77.3081 49.5058C76.9245 49.9354 76.3837 50.5453 75.7738 51.2971C73.0197 54.6458 68.3975 60.833 64.4542 66.6405C60.7488 72.1258 57.6494 77.2888 57.2889 79.4522C56.7902 82.3866 58.455 85.9578 61.9686 86.1803Z" fill="#FED81D"/>
<path d="M75.779 51.2972C76.0475 51.2972 76.3198 51.278 76.596 51.278C76.8722 51.278 77.179 51.278 77.4706 51.3011C81.69 51.5274 86.082 53.3494 87.5013 57.4384C88.0844 54.8629 87.7322 52.1639 86.5078 49.8243C85.3954 47.7337 81.9547 45.7698 78.4525 48.4625C78.049 48.7736 77.673 49.1189 77.3286 49.4944C76.9067 49.9355 76.385 50.5454 75.779 51.2972Z" fill="#FFE05C"/>
<path d="M71.9798 80.3115C74.4577 77.6264 76.8743 74.9413 79.0377 72.2984C82.1984 68.4626 84.826 64.6804 86.3258 61.0824C86.8298 59.9183 87.2153 58.7065 87.4766 57.4652" stroke="#F7AD2B" stroke-width="0.75" stroke-linecap="round" stroke-linejoin="round"/>
<path d="M61.9694 86.1803C61.2546 85.5082 60.6316 84.7447 60.1167 83.9095C57.282 79.4676 67.5467 72.494 64.4512 66.6482C60.7457 72.1334 57.6464 77.2965 57.2858 79.4599C56.791 82.3866 58.4558 85.9578 61.9694 86.1803Z" fill="#FCC71F"/>
<path d="M97.4958 36.6059L98.098 36.5254L99.2258 36.3796L100.986 36.1494L111.174 34.8184C112.636 33.3991 113.181 33.0194 113.403 32.4785C113.505 32.1929 113.557 31.8919 113.556 31.5886C113.629 30.2921 113.522 26.6634 109.118 25.3477C108.716 25.228 108.306 25.1344 107.891 25.0677C105.958 24.797 103.989 24.9768 102.137 25.5932C102.137 25.5932 101.612 24.6841 99.034 26.2798C96.4563 27.8755 93.5257 32.3826 97.4958 36.6059Z" fill="#604730"/>
<path d="M98.0972 36.5253C98.1586 37.1046 98.22 37.4536 98.22 37.4536L99.3055 37.1659C99.271 36.8974 99.2442 36.6366 99.225 36.3988C98.5307 28.3051 103.444 25.5625 107.89 25.0907C105.957 24.82 103.988 24.9998 102.136 25.6162C97.6408 27.6761 97.8479 34.1126 98.0972 36.5253Z" fill="white"/>
<path d="M100.987 36.1495L111.175 34.8185C112.637 33.3992 113.181 33.0194 113.404 32.4786C112.433 28.5162 110.093 26.4448 106.426 26.3412C101.973 26.2377 100.776 29.9278 100.419 32.6896C100.33 33.8717 100.524 35.0581 100.987 36.1495Z" fill="#473526"/>
<path d="M100.408 38.5277C103.38 42.5821 107.581 44.665 109.859 43.3416C111.359 42.4594 112.092 40.1694 112.222 37.5342C112.265 36.6388 112.245 35.7415 112.161 34.8491C112.115 34.3274 112.046 33.8096 111.961 33.2956C111.275 29.1644 108.509 26.3412 103.776 27.4651C103.776 27.4651 105.118 30.7601 102.981 32.8583C100.845 34.9565 99.1456 34.7072 99.1456 34.7072C99.1456 34.7072 97.6573 34.4617 97.0589 35.4743C95.6742 37.8449 98.4629 39.7053 100.408 38.5277Z" fill="#FEBD9D"/>
<path d="M107.89 33.6523C107.891 33.7445 107.864 33.8347 107.814 33.9116C107.763 33.9885 107.69 34.0486 107.605 34.0842C107.52 34.1198 107.427 34.1293 107.336 34.1116C107.246 34.0938 107.163 34.0495 107.098 33.9843C107.033 33.9192 106.988 33.8362 106.971 33.7458C106.953 33.6554 106.962 33.5617 106.998 33.4768C107.034 33.3918 107.094 33.3194 107.171 33.2687C107.247 33.2179 107.338 33.1913 107.43 33.192C107.552 33.193 107.668 33.2419 107.754 33.328C107.84 33.4141 107.889 33.5306 107.89 33.6523Z" fill="#683F1D"/>
<path d="M110.806 33.7673C110.806 33.8593 110.78 33.9494 110.729 34.0262C110.679 34.103 110.607 34.1631 110.522 34.1988C110.437 34.2346 110.344 34.2443 110.253 34.2268C110.163 34.2094 110.08 34.1655 110.015 34.1007C109.949 34.0359 109.905 33.9532 109.887 33.8631C109.868 33.773 109.877 33.6795 109.912 33.5944C109.947 33.5094 110.007 33.4367 110.083 33.3855C110.16 33.3343 110.25 33.307 110.342 33.307C110.464 33.307 110.581 33.3554 110.668 33.4416C110.755 33.5278 110.805 33.6449 110.806 33.7673Z" fill="#683F1D"/>
<path d="M100.059 35.4706C99.8995 35.2171 99.6764 35.0099 99.4119 34.8692C99.1475 34.7286 98.8509 34.6595 98.5516 34.6689" stroke="#EF8A66" stroke-width="0.75" stroke-linecap="round" stroke-linejoin="round"/>
<path d="M99.7852 36.9665C99.4975 35.8924 98.2853 35.3056 97.4837 36.1648" stroke="#EF8A66" stroke-width="0.75" stroke-linecap="round" stroke-linejoin="round"/>
<path d="M99.5974 36.5023C98.3699 35.6431 97.5682 37.9331 99.7163 37.5687" stroke="#EF8A66" stroke-width="0.75" stroke-linecap="round" stroke-linejoin="round"/>
<path d="M108.876 38.4241C108.675 38.466 108.468 38.4663 108.267 38.4249C108.065 38.3835 107.875 38.3013 107.707 38.1834C107.538 38.0655 107.396 37.9144 107.289 37.7394C107.181 37.5645 107.11 37.3693 107.081 37.166" stroke="#EF8A66" stroke-width="0.75" stroke-linecap="round" stroke-linejoin="round"/>
<path d="M110.082 36.813C110.887 36.3987 110.895 35.7275 110.136 35.3055C109.376 34.8836 108.728 34.3197 108.877 32.8199" stroke="#EF8A66" stroke-width="0.75" stroke-linecap="round" stroke-linejoin="round"/>
<path d="M112.245 31.6461C112.08 32.1486 109.242 32.256 109.38 31.0017C109.483 30.0619 112.452 31.0132 112.245 31.6461Z" fill="#604730"/>
<path d="M107.98 31.2127C108.24 32.0566 105.145 33.1728 104.869 32.5399C104.627 31.9798 107.496 29.6323 107.98 31.2127Z" fill="#604730"/>
<path d="M106.886 36.3335C106.587 37.1007 105.329 37.3615 104.078 36.8821C102.828 36.4026 102.053 35.3861 102.348 34.6074C102.644 33.8287 103.902 33.5794 105.156 34.0551C106.411 34.5307 107.182 35.551 106.886 36.3335Z" fill="#F4AF90"/>
<path d="M111.221 36.9013C111.323 37.0811 111.467 37.2329 111.642 37.3434C111.817 37.4538 112.016 37.5193 112.222 37.5342C112.265 36.6389 112.245 35.7416 112.161 34.8491C111.332 35.4322 110.922 36.2799 111.221 36.9013Z" fill="#F4AF90"/>
<path d="M87.5493 92.0991C88.0548 92.4845 88.6423 92.7484 89.2663 92.8701C89.8903 92.9918 90.5339 92.9682 91.1473 92.801C92.298 92.5018 94.4154 94.1666 96.2796 95.0335C98.1439 95.9004 99.7319 96.3338 98.8458 97.6994C98.8458 97.6994 101.312 98.2978 102.145 98.7312C102.977 99.1647 102.145 99.9971 101.247 99.9971C100.349 99.9971 95.5815 99.6135 94.0817 99.5406C92.5819 99.4677 84.8757 97.3695 84.8757 97.3695L87.5493 92.0991Z" fill="#FEBD9D"/>
<path d="M96.2796 95.0335C98.1477 95.9004 99.7319 96.3339 98.8458 97.6994C98.8458 97.6994 101.312 98.2978 102.145 98.7313C102.977 99.1647 102.145 99.9971 101.247 99.9971C100.921 99.9971 100.096 99.9472 99.099 99.882" stroke="#EF8A66" stroke-width="0.75" stroke-linecap="round" stroke-linejoin="round"/>
<path d="M62.8662 90.442C63.7484 90.7949 64.7649 91.2091 65.8735 91.6694C73.2345 94.7113 84.4313 99.5406 84.4313 99.5406L88.5356 91.984C86.2341 90.2387 81.915 86.6982 79.1417 83.8673C76.3684 81.0365 71.2744 74.4197 64.2548 77.1201C62.642 77.7128 61.207 78.7069 60.0852 80.0085C57.1738 83.4991 57.8297 88.4167 62.8662 90.442Z" fill="#FED81D"/>
<path d="M62.8653 90.4419C63.7475 90.7948 64.764 91.2091 65.8726 91.6694C64.6297 86.3337 62.9496 88.3475 60.1188 83.9095C59.3823 82.7587 59.5281 81.4354 60.0919 80.0084C57.1729 83.499 57.8288 88.4166 62.8653 90.4419Z" fill="#FCC71F"/>
<path d="M88.5356 91.984C86.2341 90.2348 81.9111 86.6982 79.1378 83.8673C76.3645 81.0365 71.2744 74.4158 64.2509 77.1201" stroke="#F7AD2B" stroke-width="0.75" stroke-linecap="round" stroke-linejoin="round"/>
<path d="M85.9033 91.6656L83.1031 97.3695" stroke="#F7AD2B" stroke-width="0.75" stroke-linecap="round" stroke-linejoin="round"/>
<path d="M98.8452 97.6994C96.9273 97.2698 93.9545 97.124 93.0416 96.7404" stroke="#EF8A66" stroke-width="0.75" stroke-linecap="round" stroke-linejoin="round"/>
<defs>
<linearGradient id="paint0_linear_12_2296" x1="181.888" y1="53.7743" x2="192.087" y2="54.1143" gradientUnits="userSpaceOnUse">
<stop stop-color="#F3F7FF"/>
<stop offset="1" stop-color="#BCCBF9"/>
</linearGradient>
<linearGradient id="paint1_linear_12_2296" x1="183.492" y1="42.9344" x2="194.642" y2="42.9333" gradientUnits="userSpaceOnUse">
<stop stop-color="#91A1D2"/>
<stop offset="0.666667" stop-color="#DEE6FF"/>
</linearGradient>
<linearGradient id="paint2_linear_12_2296" x1="190.43" y1="54.0075" x2="195.541" y2="54.0075" gradientUnits="userSpaceOnUse">
<stop stop-color="#B0BFE9"/>
<stop offset="1" stop-color="#EEF2FF"/>
</linearGradient>
<linearGradient id="paint3_linear_12_2296" x1="184.16" y1="40.3039" x2="192.767" y2="40.3266" gradientUnits="userSpaceOnUse">
<stop stop-color="#B8CAFF"/>
<stop offset="1" stop-color="#9BB1F4"/>
</linearGradient>
<linearGradient id="paint4_linear_12_2296" x1="181.594" y1="52.0075" x2="190.464" y2="52.0067" gradientUnits="userSpaceOnUse">
<stop stop-color="#90A5E2"/>
<stop offset="1" stop-color="#C2CBE4"/>
<stop offset="1" stop-color="#C6D1F2"/>
<stop offset="1" stop-color="#F5F8FF"/>
</linearGradient>
<linearGradient id="paint5_linear_12_2296" x1="190.454" y1="52.026" x2="195.526" y2="52.0255" gradientUnits="userSpaceOnUse">
<stop stop-color="#8AA5F6"/>
<stop offset="1" stop-color="#DADBDE"/>
</linearGradient>
<linearGradient id="paint6_linear_12_2296" x1="177.775" y1="48.5132" x2="173.145" y2="48.5132" gradientUnits="userSpaceOnUse">
<stop stop-color="#C48F40"/>
<stop offset="1" stop-color="#DADBDE"/>
</linearGradient>
<linearGradient id="paint7_linear_12_2296" x1="183.325" y1="61.9411" x2="173.886" y2="42.5284" gradientUnits="userSpaceOnUse">
<stop stop-color="#F7CF95"/>
<stop offset="1" stop-color="#D3A35B"/>
</linearGradient>
<linearGradient id="paint8_linear_12_2296" x1="160.222" y1="47.6501" x2="176.862" y2="55.1439" gradientUnits="userSpaceOnUse">
<stop stop-color="#FF7A00"/>
<stop offset="1" stop-color="#FFC28A"/>
</linearGradient>
<linearGradient id="paint9_linear_12_2296" x1="158.719" y1="52.8597" x2="170.68" y2="58.2461" gradientUnits="userSpaceOnUse">
<stop stop-color="#FF6B00"/>
<stop offset="1" stop-color="#FF9F47"/>
</linearGradient>
<linearGradient id="paint10_linear_12_2296" x1="158.538" y1="71.916" x2="196.291" y2="71.916" gradientUnits="userSpaceOnUse">
<stop stop-color="#D08E3E"/>
<stop offset="1" stop-color="#FFEBD3"/>
</linearGradient>
<linearGradient id="paint11_linear_12_2296" x1="166.997" y1="85.6382" x2="166.671" y2="48.3038" gradientUnits="userSpaceOnUse">
<stop stop-color="#D5A161"/>
</linearGradient>
<linearGradient id="paint12_linear_12_2296" x1="185.933" y1="83.9512" x2="192.047" y2="83.9512" gradientUnits="userSpaceOnUse">
<stop stop-color="#EEC38B"/>
<stop offset="1" stop-color="#FFE9CE"/>
</linearGradient>
<linearGradient id="paint13_linear_12_2296" x1="192.077" y1="83.9809" x2="198.191" y2="83.9809" gradientUnits="userSpaceOnUse">
<stop stop-color="#E7B473"/>
<stop offset="1" stop-color="#FFE5C2"/>
</linearGradient>
<linearGradient id="paint14_linear_12_2296" x1="179.463" y1="83.9512" x2="185.577" y2="83.9512" gradientUnits="userSpaceOnUse">
<stop stop-color="#EEC38B"/>
<stop offset="1" stop-color="#FFE9CE"/>
</linearGradient>
<linearGradient id="paint15_linear_12_2296" x1="175.011" y1="83.9512" x2="181.125" y2="83.9512" gradientUnits="userSpaceOnUse">
<stop stop-color="white"/>
<stop offset="1" stop-color="#DADBDE"/>
</linearGradient>
<linearGradient id="paint16_linear_12_2296" x1="188.07" y1="83.9512" x2="194.184" y2="83.9512" gradientUnits="userSpaceOnUse">
<stop stop-color="white"/>
<stop offset="1" stop-color="#DADBDE"/>
</linearGradient>
<linearGradient id="paint17_linear_12_2296" x1="181.541" y1="83.9512" x2="187.655" y2="83.9512" gradientUnits="userSpaceOnUse">
<stop stop-color="white"/>
<stop offset="1" stop-color="#DADBDE"/>
</linearGradient>
<linearGradient id="paint18_linear_12_2296" x1="191.049" y1="88.2845" x2="199.734" y2="88.2845" gradientUnits="userSpaceOnUse">
<stop stop-color="#B68649"/>
<stop offset="1" stop-color="#E9B879"/>
</linearGradient>
<linearGradient id="paint19_linear_12_2296" x1="173.495" y1="85.6263" x2="192.55" y2="85.5669" gradientUnits="userSpaceOnUse">
<stop stop-color="#B68649"/>
<stop offset="1" stop-color="#E9B777"/>
</linearGradient>
</defs>
</svg>
