<svg width="1187" height="535" viewBox="0 0 1187 535" fill="none" xmlns="http://www.w3.org/2000/svg">
<path d="M1058.28 15.2462C1073.89 5.89133 1090.86 10.703 1098.82 24.495C1107 38.6736 1102.61 55.6454 1086.43 64.6444" fill="#FF6B00"/>
<path d="M1125 478L1113 498.785L1174.49 534.285L1186.49 513.5L1125 478Z" fill="#22DA4A"/>
<path d="M702.192 351L693 360.192L745.326 412.518L754.518 403.326L702.192 351Z" fill="#AA0BF0"/>
<path d="M4.05346e-07 382.008L2.38454e-09 415.8L30.9914 416C31.3648 395.605 19.603 381.608 4.05346e-07 382.008Z" fill="#FFE500"/>
<path d="M306.829 45.6913L294.705 41L268.001 110.014L280.125 114.705L306.829 45.6913Z" fill="#39CCEC"/>
</svg>
