<svg width="227" height="221" viewBox="0 0 227 221" fill="none" xmlns="http://www.w3.org/2000/svg">
<path d="M200.938 204.049C203.139 203.57 207.138 203.992 206.679 206.058C206.265 207.92 204.734 208.757 203.804 208.905C213.582 208.094 228.965 209.498 224.189 214.957C218.161 221.846 186.872 221.129 178.261 216.105C169.65 211.082 175.103 206.058 182.279 205.197C192.768 203.939 197.78 204.432 200.938 204.049Z" fill="url(#paint0_linear_6_9348)" stroke="#AE8C61" stroke-opacity="0.3" stroke-width="2"/>
<ellipse cx="193.191" cy="210.364" rx="8.89872" ry="5.167" fill="url(#paint1_linear_6_9348)"/>
<path d="M148.472 39.234L148.296 107.31L125.839 107.244L96.5439 107.178L96.6763 56.97L96.7204 39.1016L129.722 38.9692L148.472 39.234Z" fill="url(#paint2_linear_6_9348)"/>
<path d="M96.7207 39.079L106.162 25.0049L138.149 25.0931L129.656 39.1672L96.7207 39.079Z" fill="url(#paint3_linear_6_9348)"/>
<path d="M138.149 25.0938L148.473 39.234L129.656 39.1678L138.149 25.0938Z" fill="#B1BEE3"/>
<path d="M148.475 39.2341L148.298 107.31L129.481 107.266L129.658 39.168L148.475 39.2341Z" fill="url(#paint4_linear_6_9348)"/>
<path d="M106.161 25.0055L138.148 25.0938V24.432C138.148 21.8289 136.052 19.7112 133.449 19.7112L110.882 19.645C108.279 19.645 106.161 21.7407 106.161 24.3437V25.0055Z" fill="url(#paint5_linear_6_9348)"/>
<path d="M96.6809 59.6611L129.594 59.7494L129.572 71.9484L96.6367 71.8601L96.6809 59.6611Z" fill="url(#paint6_linear_6_9348)"/>
<path d="M148.406 59.7941L148.384 71.9931L129.567 71.949L129.589 59.75L148.406 59.7941Z" fill="url(#paint7_linear_6_9348)"/>
<path d="M87.6188 30.2114H68.6475V75.4338H87.6188V30.2114Z" fill="url(#paint8_linear_6_9348)"/>
<path d="M84.0005 11.3511H78.2429C70.8088 11.3511 64.8086 17.3734 64.8086 24.7854V34.4035H76.2796C78.9047 34.4035 81.0225 36.5212 81.0225 39.1463C81.0225 41.7714 78.9047 43.8891 76.2796 43.8891H64.8086V57.5662H76.2796C78.9047 57.5662 81.0225 59.6839 81.0225 62.309C81.0225 64.9341 78.9047 67.0518 76.2796 67.0518H64.8086V93.4132H97.457V24.7854C97.4349 17.3734 91.4126 11.3511 84.0005 11.3511Z" fill="url(#paint9_linear_6_9348)"/>
<path d="M30.2752 40.4697C30.2752 40.4697 -3.47617 27.3221 3.89177 17.4173C11.2818 7.49043 31.6429 37.4696 31.6429 37.4696L30.2752 40.4697Z" fill="#80A485"/>
<path d="M33.2993 38.2193C33.2993 38.2193 35.042 2.01931 22.9974 4.73265C10.9087 7.446 30.0124 38.2413 30.0124 38.2413L33.2993 38.2193Z" fill="#80A485"/>
<path d="M32.5729 40.7786C32.5729 40.7786 17.5503 -7.90718 3.58652 1.11524C-9.07575 9.32145 29.3302 41.7492 29.3302 41.7492L32.5729 40.7786Z" fill="#59795D"/>
<path d="M78.3681 106.141C77.5519 106.053 76.7136 105.7 75.9415 105.038L70.7354 100.604L70.7133 100.582L59.6835 91.1626L57.654 89.4199L42.9623 76.89L40.1165 74.4634L30.5867 66.3455C29.6382 65.5292 28.7558 64.6248 27.9617 63.6762C27.2999 62.8821 26.6822 62.0438 26.1527 61.1614C23.4173 56.7715 22.3364 51.5213 23.4835 46.4035C24.4542 42.1018 26.7042 38.6826 29.6823 36.3443C29.9911 36.1016 30.322 35.859 30.6529 35.6384C35.0649 32.6603 40.8225 31.8441 46.3815 33.6971C47.7713 34.1604 49.0728 34.8001 50.2861 35.5722C53.6833 37.712 56.3525 40.9327 57.9849 44.6608L59.3526 47.683L60.7865 50.8595L67.9559 66.6543L69.2574 69.5221L77.7063 88.1184L78.4784 89.839L83.0006 99.81C84.633 103.318 81.5447 106.538 78.3681 106.141Z" fill="url(#paint10_linear_6_9348)"/>
<path opacity="0.1" d="M70.734 100.582L30.5853 66.3458C24.8057 61.4044 21.8055 53.7497 23.46 46.4038C24.4306 42.1022 26.6807 38.6829 29.6588 36.3446C29.9676 36.1019 30.2985 35.8593 30.6294 35.6387C31.1809 55.7351 57.2334 86.1554 70.734 100.582Z" fill="black"/>
<path opacity="0.1" d="M50.2821 35.5718L38.1934 43.3147L46.3775 33.7188C47.7673 34.182 49.0688 34.7997 50.2821 35.5718Z" fill="black"/>
<path opacity="0.1" d="M39.3211 52.8447L27.9603 63.6981C27.2985 62.904 26.6808 62.0657 26.1514 61.1833L39.3211 52.8447Z" fill="black"/>
<path opacity="0.1" d="M60.8098 50.8813L49.8682 57.6315L59.3538 47.6826L60.8098 50.8813Z" fill="black"/>
<path opacity="0.1" d="M51.8118 67.8906L42.9659 76.891L40.1201 74.4865L51.8118 67.8906Z" fill="black"/>
<path opacity="0.1" d="M69.2772 69.5656L61.7549 73.051L67.9757 66.6758L69.2772 69.5656Z" fill="black"/>
<path opacity="0.1" d="M66.7199 83.5742L59.6828 91.1627L57.6533 89.4421L66.7199 83.5742Z" fill="black"/>
<path opacity="0.1" d="M78.5262 89.8607L73.6289 92.552L77.7541 88.1621L78.5262 89.8607Z" fill="black"/>
<path d="M21.014 62.4191C21.014 62.4191 -3.2517 52.9555 2.04263 45.8522C7.35902 38.7049 21.9846 60.2793 21.9846 60.2793L21.014 62.4191Z" fill="#80A484"/>
<path d="M23.1971 60.7869C23.1971 60.7869 24.4545 34.7785 15.8071 36.7197C7.11556 38.661 20.8587 60.8089 20.8587 60.8089L23.1971 60.7869Z" fill="#80A484"/>
<path d="M22.668 62.6393C22.668 62.6393 11.8587 27.6305 1.84356 34.1381C-7.26709 40.0281 20.3517 63.3452 20.3517 63.3452L22.668 62.6393Z" fill="#59795D"/>
<path d="M55.5841 109.605C54.9885 109.539 54.3928 109.274 53.8413 108.811L50.0912 105.612C50.0912 105.612 50.0912 105.612 50.0691 105.612L42.1277 98.8396L40.6717 97.5822L30.1051 88.5818L28.0756 86.8391L21.2371 80.9933C20.5533 80.3977 19.9135 79.7579 19.34 79.0741C18.8547 78.5005 18.4135 77.9049 18.0385 77.2652C16.0752 74.1106 15.281 70.3384 16.1192 66.6545C16.8031 63.5661 18.4355 61.1175 20.5753 59.4189C20.7959 59.2424 21.0386 59.0659 21.2812 58.9115C24.4578 56.7717 28.605 56.1761 32.5758 57.5217C33.5685 57.8526 34.517 58.3159 35.3774 58.8674C37.826 60.4116 39.7231 62.7278 40.9144 65.3971L41.9071 67.581L42.9439 69.8752L48.1058 81.2359L49.0544 83.3095L55.1208 96.6777L55.6723 97.9131L58.9151 105.082C60.0842 107.575 57.8783 109.891 55.5841 109.605Z" fill="url(#paint11_linear_6_9348)"/>
<path opacity="0.1" d="M50.0913 105.612L21.2372 80.9934C17.068 77.4418 14.9281 71.9268 16.1193 66.6546C16.8032 63.5662 18.4357 61.1176 20.5755 59.419C20.7961 59.2425 21.0387 59.066 21.2814 58.9116C21.6784 73.3828 40.4071 95.2439 50.0913 105.612Z" fill="black"/>
<path opacity="0.1" d="M35.3966 58.8901L26.7051 64.4491L32.573 57.5444C33.5877 57.8753 34.5142 58.3386 35.3966 58.8901Z" fill="black"/>
<path opacity="0.1" d="M27.5017 71.3091L19.3396 79.0962C18.8543 78.5226 18.4131 77.927 18.0381 77.2873L27.5017 71.3091Z" fill="black"/>
<path opacity="0.1" d="M42.9392 69.8752L35.0859 74.7504L41.9024 67.603L42.9392 69.8752Z" fill="black"/>
<path opacity="0.1" d="M36.5005 82.1196L30.1252 88.5831L28.0957 86.8625L36.5005 82.1196Z" fill="black"/>
<path opacity="0.1" d="M49.0511 83.3094L43.6465 85.8242L48.1025 81.2578L49.0511 83.3094Z" fill="black"/>
<path opacity="0.1" d="M47.1951 93.3906L42.1434 98.8394L40.6875 97.604L47.1951 93.3906Z" fill="black"/>
<path opacity="0.1" d="M55.6897 97.9126L52.1602 99.8318L55.1161 96.6772L55.6897 97.9126Z" fill="black"/>
<path d="M151.255 71.7941V209.447H10.9551V71.6838L13.0508 77.1988L18.7863 70.1396L24.3012 77.4194L30.2573 70.1396L31.1397 71.2647L33.0148 73.6692L35.7722 77.1988L41.5078 70.1396L47.2433 76.9782L52.7582 70.1396L58.7143 77.4194L64.2293 70.1396L69.7442 77.1988L75.4797 70.1396L80.9946 76.9782L86.5096 70.1396L92.2451 76.9782L97.9806 70.1396L103.716 76.9782L109.231 70.1396L114.746 76.9782L120.702 70.1396L126.438 76.9782L132.173 70.1396L137.688 77.1988L143.424 70.1396L148.939 76.537L151.255 71.7941Z" fill="url(#paint12_linear_6_9348)"/>
<path d="M33.0148 73.6692V209.447H10.9551V71.6838L13.0508 77.1988L18.7863 70.1396L24.3012 77.4194L30.2573 70.1396L31.1397 71.2647L33.0148 73.6692Z" fill="#EECA9D"/>
<path d="M52.7552 70.1396V209.447H31.1367V71.2647L35.7693 77.1988L41.5048 70.1396L47.2403 76.9782L52.7552 70.1396Z" fill="url(#paint13_linear_6_9348)"/>
<path d="M52.7582 209.447H10.9551V209.359L31.25 182.093L52.7582 209.447Z" fill="#E1AF72"/>
<path d="M146.954 199.962C153.228 199.962 158.314 193.098 158.314 184.631C158.314 176.163 153.228 169.299 146.954 169.299C140.679 169.299 135.593 176.163 135.593 184.631C135.593 193.098 140.679 199.962 146.954 199.962Z" fill="url(#paint14_linear_6_9348)"/>
<path d="M173.223 197.909C173.223 204.183 180.087 209.269 188.554 209.269C197.022 209.269 203.886 204.183 203.886 197.909C203.886 191.634 197.022 186.548 188.554 186.548C180.087 186.548 173.223 191.634 173.223 197.909Z" fill="url(#paint15_linear_6_9348)"/>
<path d="M190.926 197.593L194.637 196.398L191.5 201.18L197.102 200.225L195.369 203.189L199.154 203.163L198.677 204.77" stroke="#AE8C61"/>
<path d="M100.079 199.852C106.354 199.852 111.44 192.988 111.44 184.521C111.44 176.054 106.354 169.189 100.079 169.189C93.8051 169.189 88.7188 176.054 88.7188 184.521C88.7188 192.988 93.8051 199.852 100.079 199.852Z" fill="url(#paint16_linear_6_9348)"/>
<path d="M83.5277 199.852C89.8021 199.852 94.8885 192.988 94.8885 184.521C94.8885 176.054 89.8021 169.189 83.5277 169.189C77.2534 169.189 72.167 176.054 72.167 184.521C72.167 192.988 77.2534 199.852 83.5277 199.852Z" fill="url(#paint17_linear_6_9348)"/>
<path d="M132.063 199.852C138.337 199.852 143.424 192.988 143.424 184.521C143.424 176.054 138.337 169.189 132.063 169.189C125.789 169.189 120.702 176.054 120.702 184.521C120.702 192.988 125.789 199.852 132.063 199.852Z" fill="url(#paint18_linear_6_9348)"/>
<path d="M107.798 199.852C114.073 199.852 119.159 192.988 119.159 184.521C119.159 176.054 114.073 169.189 107.798 169.189C101.524 169.189 96.4375 176.054 96.4375 184.521C96.4375 192.988 101.524 199.852 107.798 199.852Z" fill="url(#paint19_linear_6_9348)"/>
<path d="M164.048 191.801V194.889L153.018 209.449H144.195L143.312 206.801H139.783L137.797 209.449H122.135L119.929 206.581H113.311L111.326 209.449H99.634L97.428 206.581H90.5895L88.3835 209.449H81.545L71.6182 197.536V191.801H164.048Z" fill="#B68649"/>
<path d="M164.048 191.801V194.889L153.018 209.449H144.194L143.312 206.801H139.782L137.797 209.449H131.774L140.289 191.801H164.048Z" fill="url(#paint20_linear_6_9348)"/>
<path d="M166.807 187.94H68.2002V193.234H166.807V187.94Z" fill="url(#paint21_linear_6_9348)"/>
<defs>
<linearGradient id="paint0_linear_6_9348" x1="199.47" y1="203.87" x2="199.47" y2="220" gradientUnits="userSpaceOnUse">
<stop stop-color="white"/>
<stop offset="1" stop-color="#BCBCBC" stop-opacity="0"/>
</linearGradient>
<linearGradient id="paint1_linear_6_9348" x1="193.191" y1="205.197" x2="193.191" y2="215.531" gradientUnits="userSpaceOnUse">
<stop stop-color="#FFEE9C"/>
<stop offset="1" stop-color="#F8D733"/>
</linearGradient>
<linearGradient id="paint2_linear_6_9348" x1="97.7302" y1="72.3741" x2="135.634" y2="73.6376" gradientUnits="userSpaceOnUse">
<stop stop-color="#F3F7FF"/>
<stop offset="1" stop-color="#BCCBF9"/>
</linearGradient>
<linearGradient id="paint3_linear_6_9348" x1="103.688" y1="32.0902" x2="145.125" y2="32.0861" gradientUnits="userSpaceOnUse">
<stop stop-color="#91A1D2"/>
<stop offset="0.666667" stop-color="#DEE6FF"/>
</linearGradient>
<linearGradient id="paint4_linear_6_9348" x1="129.476" y1="73.2409" x2="148.47" y2="73.2409" gradientUnits="userSpaceOnUse">
<stop stop-color="#B0BFE9"/>
<stop offset="1" stop-color="#EEF2FF"/>
</linearGradient>
<linearGradient id="paint5_linear_6_9348" x1="106.174" y1="22.3149" x2="138.163" y2="22.3992" gradientUnits="userSpaceOnUse">
<stop stop-color="#B8CAFF"/>
<stop offset="1" stop-color="#9BB1F4"/>
</linearGradient>
<linearGradient id="paint6_linear_6_9348" x1="96.6393" y1="65.8084" x2="129.603" y2="65.8052" gradientUnits="userSpaceOnUse">
<stop stop-color="#90A5E2"/>
<stop offset="1" stop-color="#C2CBE4"/>
<stop offset="1" stop-color="#C6D1F2"/>
<stop offset="1" stop-color="#F5F8FF"/>
</linearGradient>
<linearGradient id="paint7_linear_6_9348" x1="129.566" y1="65.8772" x2="148.414" y2="65.8754" gradientUnits="userSpaceOnUse">
<stop stop-color="#8AA5F6"/>
<stop offset="1" stop-color="#DADBDE"/>
</linearGradient>
<linearGradient id="paint8_linear_6_9348" x1="82.4489" y1="52.8226" x2="65.2432" y2="52.8226" gradientUnits="userSpaceOnUse">
<stop stop-color="#648A56"/>
<stop offset="1" stop-color="#DADBDE"/>
</linearGradient>
<linearGradient id="paint9_linear_6_9348" x1="103.075" y1="102.724" x2="67.9962" y2="30.5818" gradientUnits="userSpaceOnUse">
<stop stop-color="#F7CF95"/>
<stop offset="1" stop-color="#D3A35B"/>
</linearGradient>
<linearGradient id="paint10_linear_6_9348" x1="17.2059" y1="49.6145" x2="79.0468" y2="77.4636" gradientUnits="userSpaceOnUse">
<stop stop-color="#CA8444"/>
<stop offset="1" stop-color="#FFC28A"/>
</linearGradient>
<linearGradient id="paint11_linear_6_9348" x1="11.6266" y1="68.9746" x2="56.0769" y2="88.9921" gradientUnits="userSpaceOnUse">
<stop stop-color="#C0824B"/>
<stop offset="1" stop-color="#FF9F47"/>
</linearGradient>
<linearGradient id="paint12_linear_6_9348" x1="10.9551" y1="139.793" x2="151.255" y2="139.793" gradientUnits="userSpaceOnUse">
<stop stop-color="#D08E3E"/>
<stop offset="1" stop-color="#FFEBD3"/>
</linearGradient>
<linearGradient id="paint13_linear_6_9348" x1="42.3914" y1="190.788" x2="41.1796" y2="52.0441" gradientUnits="userSpaceOnUse">
<stop stop-color="#D5A161"/>
</linearGradient>
<linearGradient id="paint14_linear_6_9348" x1="135.593" y1="184.631" x2="158.314" y2="184.631" gradientUnits="userSpaceOnUse">
<stop stop-color="#E7B473"/>
<stop offset="1" stop-color="#FFE5C2"/>
</linearGradient>
<linearGradient id="paint15_linear_6_9348" x1="188.554" y1="186.548" x2="188.554" y2="209.269" gradientUnits="userSpaceOnUse">
<stop stop-color="#E7B473"/>
<stop offset="1" stop-color="#FFE5C2"/>
</linearGradient>
<linearGradient id="paint16_linear_6_9348" x1="88.7188" y1="184.521" x2="111.44" y2="184.521" gradientUnits="userSpaceOnUse">
<stop stop-color="#EEC38B"/>
<stop offset="1" stop-color="#FFE9CE"/>
</linearGradient>
<linearGradient id="paint17_linear_6_9348" x1="72.167" y1="184.521" x2="94.8885" y2="184.521" gradientUnits="userSpaceOnUse">
<stop stop-color="white"/>
<stop offset="1" stop-color="#DADBDE"/>
</linearGradient>
<linearGradient id="paint18_linear_6_9348" x1="120.702" y1="184.521" x2="143.424" y2="184.521" gradientUnits="userSpaceOnUse">
<stop stop-color="white"/>
<stop offset="1" stop-color="#DADBDE"/>
</linearGradient>
<linearGradient id="paint19_linear_6_9348" x1="96.4375" y1="184.521" x2="119.159" y2="184.521" gradientUnits="userSpaceOnUse">
<stop stop-color="white"/>
<stop offset="1" stop-color="#DADBDE"/>
</linearGradient>
<linearGradient id="paint20_linear_6_9348" x1="131.77" y1="200.625" x2="164.048" y2="200.625" gradientUnits="userSpaceOnUse">
<stop stop-color="#B68649"/>
<stop offset="1" stop-color="#E9B879"/>
</linearGradient>
<linearGradient id="paint21_linear_6_9348" x1="66.5376" y1="190.746" x2="137.349" y2="190.525" gradientUnits="userSpaceOnUse">
<stop stop-color="#B68649"/>
<stop offset="1" stop-color="#E9B777"/>
</linearGradient>
</defs>
</svg>
