<svg width="314" height="663" viewBox="0 0 314 663" fill="none" xmlns="http://www.w3.org/2000/svg">
<path d="M209 448.158C208.879 433.662 197.105 421.919 182.727 422C173.316 422.041 165.066 427.143 160.5 434.755C155.934 427.143 147.724 422.041 138.273 422C123.935 421.919 112.121 433.662 112 448.158C111.96 455.365 114.724 461.884 119.289 466.703C119.81 467.229 120.291 467.755 120.771 468.322L156.455 509.178C158.578 511.607 162.302 511.607 164.385 509.178L200.069 468.322C200.549 467.755 201.07 467.229 201.55 466.703C206.236 461.925 209.04 455.365 209 448.158Z" fill="#E51715"/>
<path d="M286.945 66.6197C292.132 72.335 299.683 72.6627 304.783 68.0337C310.065 63.2394 310.642 55.8239 305.105 49.9054" fill="#0181F8"/>
<path d="M137.279 76.1498L151.238 90.1088L164.123 77.3892C155.852 68.81 145.211 67.8869 137.279 76.1498Z" fill="#FFE500"/>
<path d="M237.239 38.9911L244.16 42.1172L226.365 81.5154L219.444 78.3893L237.239 38.9911Z" fill="#AA0BF0"/>
<path d="M19.9999 9.91414L29.9141 0L59.2434 29.3293L49.3292 39.2435L19.9999 9.91414Z" fill="#22DA4A"/>
<path d="M280.945 387.17C271.273 396.53 271.463 409.574 279.792 417.904C288.355 426.467 301.322 426.578 310.849 416.74" fill="#FF800C"/>
<path d="M45.1798 632.469C35.4841 621.994 23.3369 623.406 14.9994 631.743C6.4281 640.314 3.9699 651.882 15.736 662.401" fill="#FF1378"/>
<path d="M94.1896 315L101.525 316.966L90.3365 358.723L83.0007 356.757L94.1896 315Z" fill="#AA0BF0"/>
<path d="M256 551.914L265.914 542L295.243 571.329L285.329 581.243L256 551.914Z" fill="#22DA4A"/>
<path d="M46.3702 541.939L41 536.569L71.5686 506L76.9388 511.37L46.3702 541.939Z" fill="#39CCEC"/>
</svg>
