<svg width="245" height="189" viewBox="0 0 245 189" fill="none" xmlns="http://www.w3.org/2000/svg">
<path d="M88.5908 5.60176L0 0V183.406H88.5908V5.60176Z" fill="#F3E8CB"/>
<path d="M80.084 15.3671L7.05371 10.3737V173.862H80.084V15.3671Z" stroke="white"/>
<circle cx="15.202" cy="83.2015" r="4.97934" fill="#C4B07D"/>
<path d="M49.651 185.552H38.0326C38.0326 185.552 37.9869 183.178 37.9081 179.966C37.7712 174.502 37.2068 164.468 36.4475 152.875C35.9786 145.7 45.4725 145.406 45.3646 153.373C45.1447 169.107 44.9497 179.966 44.9497 179.966L50.232 183.788C50.4016 183.908 50.5284 184.079 50.5934 184.277C50.6585 184.474 50.6586 184.687 50.5935 184.885C50.5285 185.082 50.4018 185.253 50.2322 185.373C50.0625 185.493 49.8588 185.556 49.651 185.552V185.552Z" fill="#FFB3A4"/>
<path d="M34.1113 154.298C38.46 154.796 46.1157 154.75 46.07 154.617C46.0244 154.485 45.7962 120.306 45.6178 118.683C45.4393 117.061 36.7379 118.131 36.2856 118.683C35.8334 119.235 34.1113 154.298 34.1113 154.298Z" fill="#4A3320"/>
<path d="M49.6511 185.551H38.0327C38.0327 185.551 37.987 183.178 37.9082 179.966H44.9623L50.2321 183.788C50.4018 183.908 50.5285 184.079 50.5936 184.277C50.6586 184.474 50.6587 184.687 50.5936 184.884C50.5286 185.082 50.402 185.253 50.2323 185.373C50.0626 185.493 49.8589 185.556 49.6511 185.551V185.551Z" fill="#FED81D"/>
<path d="M21.1838 179.298C24.9183 172.041 28.3126 164.937 31.3624 159.236C32.2355 157.385 32.9665 155.471 33.5492 153.509C33.7484 152.563 34.238 148.572 30.408 147.924C26.5781 147.277 25.3665 149.584 24.2212 152.933C23.6901 154.48 18.939 167.609 15.7314 174.829L21.1838 179.298Z" fill="#FFB3A4"/>
<path d="M21.2924 186.593L12.3047 179.224C12.3047 179.224 13.7736 177.361 15.7487 174.825L21.1845 179.298L22.8443 185.593C22.8964 185.791 22.8845 186.001 22.8103 186.192C22.7361 186.383 22.6034 186.545 22.4312 186.656C22.259 186.767 22.0561 186.821 21.8516 186.809C21.647 186.798 21.4513 186.722 21.2924 186.593V186.593Z" fill="#FED81D"/>
<path d="M25.3956 120.194C25.3956 120.194 23.823 138.132 20.5449 152.638C20.5449 152.638 26.1052 156.696 35.1634 155.128C35.3419 154.63 37.7319 141.899 38.6739 136.945C39.6158 131.99 40.039 130.281 41.2341 129.426C42.4291 128.571 42.2631 119.617 42.0889 119.227C41.9146 118.837 30.6571 111.376 25.3956 120.194Z" fill="#4A3320"/>
<path d="M40.5176 127.397C41.3101 126.866 42.0653 126.248 42.1068 125.542C42.1483 124.837 42.2106 121.646 42.2106 121.646" stroke="#7A583F" stroke-opacity="0.99" stroke-width="0.75" stroke-linecap="round" stroke-linejoin="round"/>
<path d="M40.0898 121.646C39.986 122.65 39.8076 126.953 39.8076 126.953" stroke="#7A583F" stroke-opacity="0.99" stroke-width="0.75" stroke-linecap="round" stroke-linejoin="round"/>
<path d="M35.1641 155.157C35.3425 154.659 37.7326 141.928 38.6745 136.974C39.6164 132.019 40.0397 130.31 41.2347 129.455" stroke="#7A583F" stroke-opacity="0.99" stroke-width="0.75" stroke-linecap="round" stroke-linejoin="round"/>
<path d="M59.3584 100.994C59.4622 99.3716 59.736 97.6164 60.014 97.0645C60.292 96.5126 61.7029 94.5001 62.2879 94.2844C62.873 94.0686 63.0473 95.3508 62.1842 96.691V97.052C62.8683 96.2542 63.4924 95.4067 64.0514 94.5167C64.7403 93.3424 65.3627 92.8569 65.7403 93.1972C66.1179 93.5375 64.844 96.4462 64.4664 96.8944L64.7403 97.0438C64.7403 97.0438 67.176 93.9981 67.6158 93.7242C68.1428 93.3756 68.5329 94.2221 68.0847 95.0147C68.0847 95.0147 68.7735 94.5665 69.0474 94.9773C69.3213 95.3881 67.2922 98.8405 67.2922 98.8405C67.2922 98.8405 69.4374 96.4711 69.9935 97.0603C70.5495 97.6496 66.3959 102.326 64.1593 104.338C64.1593 104.338 60.1551 110.534 58.0015 113.11C55.1841 116.48 50.5325 118.289 48.6819 116.144C46.3914 113.451 49.7192 109.123 59.3584 100.994Z" fill="#FFB3A4"/>
<path d="M60.0098 97.0645C60.2836 96.5126 61.6986 94.5001 62.2837 94.2844C62.8687 94.0686 63.043 95.3508 62.1799 96.691V97.052C62.864 96.2542 63.4882 95.4067 64.0472 94.5167C64.736 93.3424 65.3584 92.8569 65.736 93.1972C66.1136 93.5375 64.8397 96.4462 64.4621 96.8944L64.736 97.0438C64.736 97.0438 67.1717 93.9981 67.6116 93.7242C68.1385 93.3756 68.5286 94.2221 68.0804 95.0147C68.0804 95.0147 68.7693 94.5665 69.0431 94.9773C69.317 95.3881 67.2879 98.8405 67.2879 98.8405C67.2879 98.8405 69.4332 96.4711 69.9892 97.0603C70.2631 97.355 69.3668 98.6745 68.1178 100.168" stroke="#934735" stroke-width="0.75" stroke-linecap="round" stroke-linejoin="round"/>
<path d="M62.1797 96.691C62.4867 98.438 62.3747 100.84 62.1797 101.027" stroke="#934735" stroke-width="0.75" stroke-linecap="round" stroke-linejoin="round"/>
<path d="M63.9727 96.4421C64.537 96.7824 66.1511 99.2389 66.1511 99.2389" stroke="#934735" stroke-width="0.75" stroke-linecap="round" stroke-linejoin="round"/>
<path d="M67.2796 98.8239L66.5576 99.7533" stroke="#934735" stroke-width="0.75" stroke-linecap="round" stroke-linejoin="round"/>
<path d="M65.678 98.5375C65.6489 98.496 68.0722 94.998 68.0722 94.998" stroke="#934735" stroke-width="0.75" stroke-linecap="round" stroke-linejoin="round"/>
<path d="M51.4761 106.658C53.9077 114.268 53.0363 118.845 47.0984 116.019C45.5133 114.588 45.6005 108.135 45.6005 108.135L51.4761 106.658Z" fill="#E19080"/>
<path d="M37.4054 97.8322C33.5962 98.2472 32.426 94.4753 32.7372 92.6786C33.0484 90.8819 33.0152 88.4046 33.1522 85.3631C33.4468 79.2593 39.6502 78.7779 40.5423 85.583C40.6256 86.2449 40.6603 86.912 40.6461 87.5789C40.6359 88.7112 40.6913 89.8431 40.8121 90.969C40.9033 91.8819 41.0237 92.7782 41.1565 93.6164C41.4594 95.4961 41.2187 97.4048 37.4054 97.8322Z" fill="#E19080"/>
<path d="M40.8199 90.969C37.0854 91.5292 36.4921 89.4171 36.6456 86.2137L40.5502 85.583C40.6335 86.2449 40.6682 86.912 40.654 87.5789C40.6438 88.7112 40.6992 89.8431 40.8199 90.969Z" fill="#C77464"/>
<path d="M47.1112 110.09C47.1112 110.09 46.8207 115.235 47.0074 115.816C47.1942 116.397 47.8788 119.696 45.1319 120.198C42.385 120.7 26.3722 120.882 25.3971 120.198C24.8584 119.766 24.4603 119.184 24.2534 118.526C24.0465 117.868 24.0402 117.163 24.2353 116.501C24.7083 115.21 24.339 113.231 24.0776 112.044C24.0402 111.878 23.9739 111.409 23.8826 110.716C23.5091 107.812 22.7996 100.936 22.7871 96.3426C22.7871 94.1434 22.9365 92.467 23.3639 91.9898C24.6087 90.5956 25.6917 90.2637 26.7955 90.2014C27.0444 90.2014 27.2976 90.2014 27.5507 90.2014C28.9241 90.2263 31.9117 90.5168 32.945 90.5458C33.384 91.495 34.0632 92.3132 34.9154 92.9194C35.7676 93.5256 36.7633 93.8989 37.804 94.0023C39.7293 94.2388 40.7667 93.1309 41.3974 91.5126C41.3974 91.5126 43.7667 91.0977 45.4805 91.5624C46.8996 91.9566 47.9701 92.9442 48.6921 94.4422C48.8524 94.7716 48.9911 95.1112 49.1071 95.4588C49.8457 97.5335 51.5594 106.683 51.4557 106.683C51.3519 106.683 47.1112 110.09 47.1112 110.09Z" fill="#FED81D"/>
<path d="M27.6418 100.563C29.758 100.181 32.6875 102.309 32.0319 104.646C31.3763 106.982 33.8784 107.965 35.8826 106.658C37.8868 105.351 40.0901 110.343 40.0901 110.343L33.6336 112.384L29.8659 112.617L27.3555 112.152L27.6418 100.563Z" fill="#FCC71F"/>
<path d="M47.1152 110.09C47.1152 110.09 47.6381 100.645 47.4223 98.8239" stroke="#83ADDF" stroke-width="0.75" stroke-linecap="round" stroke-linejoin="round"/>
<path d="M48.7122 94.4172C48.0883 94.3707 47.4643 94.5048 46.9146 94.8036C46.3649 95.1023 45.9129 95.5531 45.6126 96.1019C42.7785 100.633 39.3677 105.579 34.1103 100.152C33.2269 99.2163 32.2725 98.3507 31.2555 97.5625C28.6911 95.6247 26.0977 94.9193 22.7865 96.3426C21.7868 96.7871 20.8357 97.3336 19.9482 97.9733C20.2926 93.5375 21.9981 90.4711 26.1185 90.1889C26.3434 90.168 26.5699 90.168 26.7948 90.1889V90.1889C27.0438 90.1889 27.2969 90.1889 27.55 90.1889C28.9235 90.2138 31.9111 90.5043 32.9443 90.5333C33.3834 91.4825 34.0626 92.3007 34.9148 92.9069C35.767 93.5131 36.7626 93.8864 37.8033 93.9898C39.7287 94.2263 40.766 93.1184 41.3968 91.5002C41.3968 91.5002 43.7661 91.0852 45.4798 91.5499C46.9114 91.9317 47.9778 92.9151 48.7122 94.4172Z" fill="#FFE05C"/>
<path d="M32.4334 90.052C33.0101 89.5666 33.4126 90.2678 33.7778 90.7823C34.1429 91.2969 35.6326 93.3011 37.7405 93.3177C39.8484 93.3343 40.7406 91.4297 41.0601 91.0147C41.3796 90.5998 42.3049 91.0977 42.0725 92.0064C41.8402 92.9152 40.5331 94.7866 37.5081 94.7866C34.0475 94.7866 31.3877 90.9317 32.4334 90.052Z" fill="white"/>
<path d="M30.3854 108.355C33.2444 115.745 30.8502 119.974 26.4393 118.314C22.8459 116.982 22.016 112.239 21.4932 109.247L30.3854 108.355Z" fill="#E19080"/>
<path d="M31.5591 102.301C31.5694 104.481 31.4572 106.66 31.223 108.828C29.986 109.261 28.7236 109.617 27.4429 109.895C26.2644 110.181 24.9988 110.471 23.8992 110.724C22.2187 111.098 20.9282 111.368 20.9282 111.368C20.3472 107.822 20.0062 104.241 19.9075 100.65C19.8802 99.7598 19.8996 98.8692 19.9656 97.9815C20.31 93.5457 22.0154 90.4793 26.1358 90.1971C26.3608 90.1762 26.5872 90.1762 26.8122 90.1971V90.1971C29.5591 90.4917 30.7749 93.803 31.2645 97.5582C31.459 99.1317 31.5574 100.716 31.5591 102.301Z" fill="#FED81D"/>
<path d="M31.5592 102.301C31.5695 104.481 31.4573 106.661 31.2231 108.828C31.2231 108.828 29.0405 101.359 28.8579 100.77C28.8579 100.704 28.8206 100.637 28.7998 100.579C29.9016 100.79 30.8853 101.404 31.5592 102.301V102.301Z" fill="#FCC71F"/>
<path d="M31.2063 108.828C31.2063 108.828 29.0237 101.359 28.8411 100.77C28.8411 100.704 28.8037 100.637 28.783 100.579C28.6185 100.064 28.307 99.6081 27.8867 99.2678" stroke="#D6A91C" stroke-width="0.75" stroke-linecap="round" stroke-linejoin="round"/>
<path d="M31.2565 97.5624C28.6921 95.6246 26.0987 94.9192 22.7874 96.3424C21.7878 96.787 20.8367 97.3335 19.9492 97.9732C20.2936 93.5374 21.999 90.471 26.1195 90.1888C26.3444 90.1679 26.5708 90.1679 26.7958 90.1888V90.1888C29.551 90.4959 30.7668 93.8071 31.2565 97.5624Z" fill="#FFE05C"/>
<path d="M32.1684 82.2344C31.0397 79.3298 29.9235 74.7654 32.8779 72.533C36.6124 69.7238 39.5171 72.8899 39.5171 72.8899C39.5171 72.8899 42.3553 78.529 37.9029 81.4502C33.4506 84.3714 32.1684 82.2344 32.1684 82.2344Z" fill="#604730"/>
<path d="M40.5376 88.7656C36.2512 89.3382 33.1599 85.3797 33.1599 85.3797C29.2719 84.9896 30.442 80.2219 33.5375 81.7904C33.8653 81.9522 34.4587 80.475 34.5002 79.3671C34.5417 78.2592 34.6247 78.0517 34.1309 77.6824C33.6371 77.3131 33.0022 76.9231 33.4753 75.9604C33.9483 74.9977 35.0562 74.4791 35.6703 74.6658C36.2844 74.8525 38.1351 74.9106 38.7285 74.1927C38.9064 73.9595 39.0301 73.6894 39.0904 73.4023C39.1507 73.1151 39.1461 72.8181 39.077 72.533C39.077 72.533 41.4381 74.0932 43.185 78.7571C43.2597 78.9605 43.3344 79.1721 43.4007 79.363C43.7377 80.3085 43.9972 81.2799 44.1767 82.2676C44.7618 85.5498 44.0439 88.2843 40.5376 88.7656Z" fill="#FFB3A4"/>
<path d="M37.9444 79.7323C37.9444 79.8318 37.9739 79.929 38.0293 80.0117C38.0846 80.0944 38.1633 80.1587 38.2553 80.1966C38.3473 80.2344 38.4484 80.2441 38.5459 80.2244C38.6434 80.2047 38.7329 80.1565 38.8029 80.0859C38.873 80.0152 38.9205 79.9254 38.9394 79.8277C38.9583 79.73 38.9477 79.629 38.9091 79.5373C38.8705 79.4456 38.8055 79.3675 38.7223 79.3128C38.6392 79.2582 38.5418 79.2294 38.4423 79.2302C38.3765 79.2302 38.3115 79.2433 38.2508 79.2685C38.1901 79.2938 38.135 79.3309 38.0887 79.3775C38.0424 79.4242 38.0058 79.4796 37.9811 79.5405C37.9563 79.6014 37.9438 79.6666 37.9444 79.7323V79.7323Z" fill="#4A3320"/>
<path d="M40.8115 78.7323C40.8107 78.8318 40.8395 78.9293 40.8941 79.0124C40.9488 79.0955 41.0269 79.1605 41.1186 79.1991C41.2103 79.2378 41.3113 79.2483 41.409 79.2294C41.5067 79.2105 41.5965 79.163 41.6672 79.093C41.7378 79.0229 41.786 78.9335 41.8057 78.836C41.8254 78.7385 41.8157 78.6373 41.7779 78.5453C41.74 78.4533 41.6756 78.3747 41.593 78.3193C41.5103 78.2639 41.4131 78.2344 41.3136 78.2344C41.2479 78.2338 41.1827 78.2463 41.1218 78.2711C41.0609 78.2959 41.0055 78.3325 40.9588 78.3788C40.9122 78.4251 40.8751 78.4801 40.8498 78.5408C40.8246 78.6015 40.8115 78.6666 40.8115 78.7323V78.7323Z" fill="#4A3320"/>
<path d="M35.7073 78.392C35.977 79.1264 38.1181 77.3588 37.5414 76.587C36.9646 75.8152 35.3836 77.5206 35.7073 78.392Z" fill="#604730"/>
<path d="M39.2962 75.8152C39.0721 76.6866 41.2838 76.5995 41.3128 76.2302C41.3419 75.8609 39.5369 74.8692 39.2962 75.8152Z" fill="#604730"/>
<path d="M32.7246 85.2967C33.2449 85.3318 33.7672 85.2684 34.2641 85.11" stroke="#934735" stroke-width="0.75" stroke-linecap="round" stroke-linejoin="round"/>
<path d="M31.6084 83.251C31.7121 82.612 33.3346 82.2676 33.8699 83.5207" stroke="#934735" stroke-width="0.75" stroke-linecap="round" stroke-linejoin="round"/>
<path d="M33.6583 83.1681C32.3221 82.6784 31.9985 84.5291 33.7661 84.2179" stroke="#934735" stroke-width="0.75" stroke-linecap="round" stroke-linejoin="round"/>
<path d="M39.4635 78.2344C39.2809 79.0643 39.6834 79.6369 40.2312 79.7323C40.949 79.8568 41.7955 80.2054 41.2395 81.4253" stroke="#934735" stroke-width="0.75" stroke-linecap="round" stroke-linejoin="round"/>
<path d="M38.3301 82.6783C39.4587 83.0601 41.3135 82.8319 41.3135 82.8319C41.3135 82.8319 41.048 84.5622 39.8197 84.4543C38.5915 84.3464 38.3301 82.6783 38.3301 82.6783Z" fill="white" stroke="#934735" stroke-width="0.75" stroke-linecap="round" stroke-linejoin="round"/>
<path d="M38.1432 82.2344C37.8029 82.944 36.7739 83.1514 35.8444 82.7033C34.9149 82.2552 34.4419 81.3215 34.7822 80.6286C35.1224 79.9356 36.1515 79.7157 37.0809 80.1638C38.0104 80.612 38.4835 81.529 38.1432 82.2344Z" fill="#E39886"/>
<path d="M44.1767 82.2592C43.5585 82.724 42.795 82.8028 42.3095 82.3962C41.7078 81.8982 41.7493 80.8484 42.4091 80.0559C42.668 79.7353 43.0115 79.4938 43.4008 79.3588C43.7375 80.303 43.997 81.273 44.1767 82.2592V82.2592Z" fill="#E39886"/>
<path d="M26.1896 118.227C30.0569 119.924 33.2769 118.334 37.9533 116.488C42.6298 114.641 47.9826 111.969 47.9826 111.969C47.9826 111.969 52.3353 109.774 53.8333 108.836C55.3312 107.899 55.3893 107.359 55.1985 107.135C55.0076 106.911 52.9743 107.708 52.5926 107.865C53.4165 107.062 54.1819 106.201 54.8831 105.289C55.5097 104.347 55.2648 103.699 54.2441 104.206C54.2441 104.206 55.1362 103.094 54.5304 102.679C53.9246 102.264 49.9204 105.737 49.9204 105.737C49.9204 105.737 53.132 102.807 52.5594 101.886C51.9868 100.965 47.3435 105.206 47.3435 105.206C47.3435 105.206 48.0116 102.276 47.2938 102.056C46.5759 101.836 46.0489 103.056 45.4638 104.035C44.8788 105.015 43.9037 107.434 43.302 107.687C42.7003 107.94 30.9532 109.044 27.422 111.745C24.144 114.272 23.8452 117.185 26.1896 118.227Z" fill="#FFB3A4"/>
<path d="M43.8867 113.919C46.2436 112.832 47.9822 111.961 47.9822 111.961C47.9822 111.961 52.335 109.766 53.8329 108.828C55.3309 107.89 55.389 107.351 55.1981 107.127C55.0072 106.903 52.974 107.699 52.5923 107.857C53.4161 107.054 54.1816 106.193 54.8828 105.28C55.5093 104.338 55.2645 103.691 54.2437 104.197C54.2437 104.197 55.1359 103.085 54.5301 102.67C53.9242 102.255 49.92 105.728 49.92 105.728C49.92 105.728 53.1317 102.799 52.5591 101.878C51.9864 100.957 47.3432 105.197 47.3432 105.197C47.3432 105.197 48.0113 102.268 47.2934 102.048C46.5756 101.828 46.0486 103.048 45.4635 104.027" stroke="#934735" stroke-width="0.75" stroke-linecap="round" stroke-linejoin="round"/>
<path d="M29.293 111.758C30.015 110.451 31.6333 109.911 32.2225 109.758" stroke="#934735" stroke-width="0.75" stroke-linecap="round" stroke-linejoin="round"/>
<path d="M51.29 107.023C51.9208 106.471 54.2444 104.202 54.2444 104.202" stroke="#934735" stroke-width="0.75" stroke-linecap="round" stroke-linejoin="round"/>
<path d="M51.8408 108.467L52.5919 107.857" stroke="#934735" stroke-width="0.75" stroke-linecap="round" stroke-linejoin="round"/>
<path d="M190.575 82.8952C191.404 98.7129 192.832 148.112 193.38 167.208C193.512 171.976 193.591 174.855 193.591 174.855C193.591 174.855 200.205 176.577 205.438 174.855L205.475 167.407L205.604 141.05L205.757 110.804L205.811 98.8415L205.898 81.1192C205.318 70.4593 190.575 69.6709 190.575 82.8952Z" fill="#93BEE5"/>
<path d="M205.603 141.05L205.757 110.804L205.811 98.8416C204.844 98.5926 203.661 98.8125 202.225 99.6175C198.105 101.912 198.242 112.917 201.093 116.842C203.769 120.547 196.59 133.643 205.603 141.05Z" fill="#83ADDF"/>
<path d="M204.463 173.818L204.878 183.553H184.961C184.961 183.553 184.604 181.677 187.55 180.428C190.496 179.179 196.795 173.905 196.928 173.818C197.06 173.731 204.463 173.818 204.463 173.818Z" fill="#683F1D"/>
<path d="M193.38 167.208C193.513 171.976 193.592 174.855 193.592 174.855C193.592 174.855 200.206 176.577 205.438 174.855L205.476 167.407C201.46 168.002 197.374 167.935 193.38 167.208V167.208Z" fill="#C3DCF8"/>
<path d="M201.666 95.7003C201.666 96.2688 201.699 96.8331 201.715 97.3974C201.715 97.4597 201.715 97.5219 201.715 97.5842C201.715 97.746 201.715 97.8995 201.715 98.0613C201.715 98.4223 201.749 98.7751 201.761 99.1319C201.794 99.9203 201.836 100.705 201.881 101.493C201.881 101.779 201.915 102.066 201.931 102.348C201.956 102.717 201.977 103.09 202.002 103.46C202.035 103.97 202.072 104.472 202.11 104.987C202.135 105.281 202.155 105.58 202.18 105.879C202.23 106.505 202.28 107.124 202.338 107.754C202.379 108.194 202.421 108.638 202.458 109.086C202.487 109.381 202.52 109.672 202.55 109.966C202.587 110.335 202.624 110.709 202.666 111.086C202.691 111.34 202.715 111.593 202.745 111.846C202.769 112.033 202.786 112.223 202.807 112.414L202.919 113.369C202.96 113.726 203.006 114.087 203.052 114.452C203.085 114.726 203.118 115.008 203.155 115.282C203.193 115.555 203.226 115.838 203.263 116.111C203.33 116.626 203.396 117.145 203.471 117.672C203.653 119.033 203.857 120.431 204.077 121.875C204.143 122.29 204.209 122.738 204.28 123.178C206.126 134.946 213.533 157.88 217.666 170.336C218.803 173.764 219.695 176.395 220.156 177.805C220.156 177.805 228.405 177.963 232.496 174.66C232.496 174.66 231.533 171.378 230.193 166.685C227.197 156.195 222.288 138.664 221.961 135.149C221.803 133.394 221.546 127.323 221.301 120.107C220.815 106.344 220.305 88.4305 220.305 88.4305C220.222 82.2353 216.774 78.6253 212.836 77.4718C207.952 76.0319 202.325 78.3764 201.52 84.2271C201.529 88.3018 201.554 92.0529 201.666 95.7003Z" fill="#93BEE5"/>
<path d="M201.715 97.3975C202.042 106.041 202.907 114.655 204.305 123.19" stroke="white" stroke-width="0.75" stroke-linecap="round" stroke-linejoin="round"/>
<path d="M213.832 96.6796C217.612 97.9244 219.375 101.339 217.193 105.941C215.35 109.813 216.217 116.136 221.321 120.091C220.836 106.327 220.325 88.4139 220.325 88.4139C220.242 82.2188 216.794 78.6087 212.856 77.4552C210.935 78.3847 209.284 80.6669 208.674 84.7914C207.943 89.7998 209.491 95.2688 213.832 96.6796Z" fill="#83ADDF"/>
<path d="M202.218 96.0573C201.11 95.3062 200.67 95.2025 200.558 94.8124C200.446 94.4224 200.351 89.6256 200.351 89.6256" stroke="white" stroke-width="0.75" stroke-linecap="round" stroke-linejoin="round"/>
<path d="M199.582 96.6837C200.88 96.9327 201.71 97.2646 201.723 97.5842" stroke="white" stroke-width="0.75" stroke-linecap="round" stroke-linejoin="round"/>
<path d="M202.978 91.0239C202.919 92.7418 202.978 94.7584 202.978 94.7584" stroke="white" stroke-width="0.75" stroke-linecap="round" stroke-linejoin="round"/>
<path d="M218.659 88.2977C218.82 91.4804 218.659 96.0365 218.659 96.0365C218.659 96.0365 215.078 93.5758 215.729 88.2977" stroke="white" stroke-width="0.75" stroke-linecap="round" stroke-linejoin="round"/>
<path d="M230.006 173.112L233.596 182.171L214.786 188.739C214.786 188.739 213.832 187.079 216.201 184.934C218.571 182.789 222.77 175.731 222.878 175.602C222.986 175.473 230.006 173.112 230.006 173.112Z" fill="#683F1D"/>
<path d="M217.69 170.349C218.827 173.776 219.719 176.407 220.18 177.818C220.18 177.818 228.429 177.976 232.521 174.673C232.521 174.673 231.558 171.391 230.218 166.698C226.744 168.353 221.271 169.735 217.69 170.349Z" fill="#C3DCF8"/>
<path d="M175.994 68.5921L176.409 68.2768C180.396 65.0734 192.932 54.4799 192.932 54.4799C192.812 55.4633 192.359 59.2808 191.812 63.9365C190.708 73.252 189.214 85.9285 189.214 85.9285C197.135 87.7585 203.16 88.6879 207.691 89.0904C217.53 89.9784 220.347 88.4265 220.347 88.4265C220.347 88.4265 221.393 84.4721 222.775 79.0446C222.928 78.4305 223.094 77.7998 223.256 77.1442C224.364 72.7748 225.625 67.7042 226.725 63.036C227.758 58.6542 228.646 54.6375 229.132 51.9031C229.354 50.8402 229.483 49.76 229.518 48.6748C229.391 47.1162 228.667 45.6668 227.497 44.6291C226.436 43.6441 225.21 42.8546 223.874 42.2971C227.941 39.6207 225.069 31.7824 217.928 33.3965C216.77 33.6579 215.534 33.5749 213.729 33.2637C212.609 33.0645 211.264 32.7824 209.579 32.4338L208.335 32.1766C206.882 31.8778 205.675 31.662 204.675 31.521C199.874 30.8446 199.778 31.8114 199.92 33.1351C199.92 33.1351 194.405 31.5334 190.857 35.521C189.712 36.8074 188.604 38.102 187.504 39.4215C182.807 45.0648 178.284 51.1064 171.591 58.6667C163.309 67.9822 172.533 71.3474 175.994 68.5921Z" fill="#28C079"/>
<path d="M198.347 83.9534C199.558 84.8911 203.413 87.1443 207.671 89.0779C217.509 89.9659 220.326 88.414 220.326 88.414C220.326 88.414 221.372 84.4596 222.754 79.0321C222.907 78.418 223.073 77.7873 223.235 77.1317C224.343 72.7623 225.604 67.6917 226.704 63.0235C225.924 60.2185 224.455 58.0442 222.028 57.0027C213.023 53.181 209.525 58.6625 210.185 62.9405C210.845 67.2186 209.965 71.2145 202.978 72.1606C195.99 73.1067 195.604 81.8371 198.347 83.9534Z" fill="#1F9B61"/>
<path d="M176.387 68.2768C180.375 65.0734 192.91 54.4798 192.91 54.4798C192.91 54.4798 193.483 49.4714 193.873 45.7411C190.707 46.4838 188.346 48.542 189.039 51.5503C189.869 55.152 186.022 58.6044 182.52 58.2475C179.279 57.9073 174.976 65.3472 176.387 68.2768Z" fill="#1F9B61"/>
<path d="M187.476 39.4132C191.264 39.5003 194.579 41.7369 196.389 46.6499C197.716 50.2682 199.592 52.4591 201.853 53.401C205.136 54.7662 209.231 53.5047 213.679 50.1561C214.679 49.3817 215.821 48.8119 217.04 48.4794C218.26 48.1469 219.533 48.0582 220.787 48.2183C223.588 48.5378 226.435 49.9196 229.111 51.8989C229.333 50.8361 229.463 49.7559 229.497 48.6706C229.37 47.112 228.646 45.6626 227.476 44.6249C226.416 43.64 225.189 42.8505 223.854 42.2929C227.92 39.6165 225.049 31.7782 217.908 33.3924C216.75 33.6538 215.513 33.5708 213.708 33.2596C212.588 33.0604 211.244 32.7782 209.559 32.4297L208.314 32.1724C206.862 31.8737 205.654 31.6579 204.654 31.5168C199.853 30.8404 199.758 31.8073 199.899 33.1309C199.899 33.1309 194.384 31.5293 190.837 35.5169C189.683 36.7991 188.575 38.0937 187.476 39.4132Z" fill="#2BDA88"/>
<path d="M192.895 54.4798C192.895 54.4798 193.468 49.4715 193.858 45.7411C193.937 44.9818 194.007 44.2764 194.065 43.6664" stroke="#145C3B" stroke-width="0.75" stroke-linecap="round" stroke-linejoin="round"/>
<path d="M203.824 43.6747C201.837 47.4465 200.322 69.1108 200.193 71.8909C200.065 74.6711 198.413 74.2644 198.347 77.028C198.339 77.8568 198.505 78.6781 198.834 79.4387C199.164 80.1993 199.65 80.8821 200.26 81.443" stroke="#145C3B" stroke-width="0.75" stroke-linecap="round" stroke-linejoin="round"/>
<path d="M204.828 40.0107C207.396 38.4717 210.2 37.3669 213.127 36.7409C213.127 36.7409 214.185 30.5167 214.812 26.4046C215.961 18.8568 208.305 19.5415 206.67 25.4876C206.587 25.803 206.467 26.193 206.326 26.637C205.654 28.7366 204.48 32.0023 203.836 33.7741C203.558 34.5376 203.376 35.0189 203.376 35.0189C205.343 36.9359 204.828 40.0107 204.828 40.0107Z" fill="#FEBD9D"/>
<path d="M203.824 33.774C207.646 35.1682 210.492 33.0188 210.492 29.0561L207.525 26.8527L206.326 26.637C205.654 28.7366 204.48 32.0105 203.824 33.774Z" fill="#F4A789"/>
<path d="M217.907 36.0605C215.119 36.1186 210.787 36.7701 204.828 40.0108C204.828 40.0108 205.758 35.99 201.691 33.6746" stroke="#145C3B" stroke-width="0.75" stroke-linecap="round" stroke-linejoin="round"/>
<path d="M215.563 66.9614C216.818 71.5677 219.311 75.7423 222.77 79.0322C225.534 68.2063 229.65 51.5213 229.513 48.6707C229.31 44.3926 223.87 42.293 223.87 42.293C215.405 44.5171 212.932 57.5297 215.563 66.9614Z" fill="#F9F9F9" stroke="#DDDDDD" stroke-linecap="round" stroke-linejoin="round"/>
<path d="M239.335 64.7081C240.165 60.2018 240.422 58.8366 239.555 57.127C238.688 55.4174 236.235 53.6332 234.8 54.5004C233.364 55.3676 232.049 60.3096 232.049 60.3096L233.758 61.3014C233.758 61.3014 234.588 55.0025 236.31 55.6291C238.032 56.2556 239.285 58.405 238.343 62.6831L239.335 64.7081Z" fill="#EDEDED" stroke="#DDDDDD" stroke-width="0.75" stroke-linecap="round" stroke-linejoin="round"/>
<path d="M218.729 85.5093C220.368 89.9617 224.198 99.2647 227.198 99.6963C229.266 99.9803 231.365 99.9453 233.422 99.5925C234.397 99.3975 235.165 99.0987 235.518 98.6962C237.156 96.728 238.499 94.5321 239.505 92.1775C240.505 89.6214 243.082 78.3183 242.725 74.4552C242.368 70.592 240.007 59.3968 232.065 54.8324C228.239 52.6291 226.057 59.0566 222.978 66.3513C220.613 71.9655 218.414 77.6419 218.256 81.9906C218.185 83.183 218.346 84.3779 218.729 85.5093V85.5093Z" fill="#F9F9F9" stroke="#DDDDDD" stroke-linecap="round" stroke-linejoin="round"/>
<path d="M218.729 85.5093C220.369 89.9617 224.198 99.2647 227.199 99.6963C229.266 99.9803 231.365 99.9453 233.423 99.5925C235.41 95.8082 235.954 94.7128 235.535 92.165C235.116 89.6173 231.663 83.4304 230.315 82.5051C229.07 81.6752 222.41 79.9947 218.281 81.9947C218.203 83.1842 218.355 84.3775 218.729 85.5093V85.5093Z" fill="#EDEDED" stroke="#DDDDDD" stroke-width="0.75" stroke-linecap="round" stroke-linejoin="round"/>
<path d="M236.94 62.9695C235.916 67.1895 234.729 72.0194 234.227 73.1149C233.725 74.2103 231.812 79.032 231.812 79.032" fill="#F9F9F9"/>
<path d="M236.94 62.9695C235.916 67.1895 234.729 72.0194 234.227 73.1149C233.725 74.2103 231.812 79.032 231.812 79.032" stroke="#DDDDDD" stroke-width="0.75" stroke-linecap="round" stroke-linejoin="round"/>
<path d="M233.119 72.6128C230.538 71.1937 225.434 70.7041 223.903 70.7663Z" fill="#F9F9F9"/>
<path d="M233.119 72.6128C230.538 71.1937 225.434 70.7041 223.903 70.7663" stroke="#DDDDDD" stroke-width="0.75" stroke-linecap="round" stroke-linejoin="round"/>
<path d="M243.725 78.4842C243.289 79.2394 241.974 78.0444 240.936 76.4095C239.899 74.7746 237.036 68.9986 237.115 67.4882C237.193 65.9778 238.231 64.3014 237.712 62.1478C237.193 59.9943 232.015 55.0066 230.185 54.4755C230.567 54.2803 230.99 54.1785 231.419 54.1785C231.849 54.1785 232.272 54.2803 232.654 54.4755C234.007 55.1394 240.621 61.3511 242.451 67.8035C244.281 74.2559 244.169 77.7207 243.725 78.4842Z" fill="#EDEDED" stroke="#DDDDDD" stroke-width="0.75" stroke-linecap="round" stroke-linejoin="round"/>
<path d="M239.745 69.8285L238.646 68.3555L236.94 73.4634L238.077 74.9157L239.745 69.8285Z" fill="#DDDDDD" stroke="#DDDDDD" stroke-linecap="round" stroke-linejoin="round"/>
<path d="M243.488 76.9033L242.633 75.7539L241.302 79.7374L242.19 80.8702L243.488 76.9033Z" fill="#DDDDDD" stroke="#DDDDDD" stroke-linecap="round" stroke-linejoin="round"/>
<path d="M221.197 80.4678C221.931 79.3962 222.611 78.2883 223.234 77.1482C226.4 71.4095 229.504 63.2808 230.338 58.3886C230.631 56.7191 230.816 55.0322 230.89 53.3387C231.047 49.2266 230.276 45.6788 227.475 44.6248C225.786 44.0066 223.4 44.6912 220.794 48.2224C218.632 51.1519 216.313 56.0441 214.105 63.7704C207.259 87.6629 216.379 87.414 221.197 80.4678Z" fill="#28C079"/>
<path d="M220.786 48.2183C223.587 48.5378 226.433 49.9196 229.11 51.8989C229.711 52.347 230.309 52.82 230.89 53.3221C231.047 49.21 230.276 45.6622 227.475 44.6083C225.778 44.0025 223.392 44.6871 220.786 48.2183Z" fill="#2BDA88"/>
<path d="M194.272 96.522C193.642 96.8415 192.301 95.6921 191.492 93.3227C191.492 93.3227 194.932 91.6298 195.007 91.6298C195.081 91.6298 195.915 95.3394 194.272 96.522Z" fill="#145C3B"/>
<path d="M192.578 85.6504C189.487 86.8537 188.719 87.1484 188.014 87.2106C187.308 87.2728 184.694 86.9367 184.068 87.2106C183.441 87.4845 182.935 88.4554 182.935 88.4554C182.935 88.4554 180.325 88.1567 179.682 88.5841C179.038 89.0115 179.109 90.2438 179.628 90.5675C180.146 90.8912 180.669 91.1484 180.516 92.0364C180.362 92.9244 180.487 93.3559 180.79 93.6298C181.092 93.9037 180.242 94.3933 180.881 95.4348C181.52 96.4763 180.914 97.2108 181.864 97.5801C182.814 97.9494 195.578 94.58 196.188 93.9659C196.798 93.3518 196.113 84.2935 192.578 85.6504Z" fill="#FEBD9D"/>
<path d="M186.139 87.1358C185.271 87.0902 184.388 87.0653 184.064 87.2105C183.45 87.4885 182.931 88.4554 182.931 88.4554C182.931 88.4554 180.321 88.1566 179.678 88.584C179.035 89.0114 179.105 90.2438 179.624 90.5674C180.143 90.8911 180.666 91.1484 180.512 92.0363C180.358 92.9243 180.483 93.3559 180.786 93.6297C181.089 93.9036 180.238 94.3932 180.877 95.4347C181.516 96.4763 180.91 97.2107 181.861 97.58C182.097 97.6713 183.068 97.5302 184.4 97.2563" stroke="#EF8A66" stroke-width="0.75" stroke-linecap="round" stroke-linejoin="round"/>
<path d="M182.936 88.443C183.919 88.4639 184.901 88.4181 185.878 88.306" stroke="#EF8A66" stroke-width="0.75" stroke-linecap="round" stroke-linejoin="round"/>
<path d="M220.024 72.8662C216.899 68.8413 212.555 71.0239 204.812 75.8248C199.829 78.9569 195.072 82.4344 190.575 86.2316C190.575 86.2316 194.787 91.4226 194.272 96.5223C194.272 96.5223 215.302 86.4847 218.401 83.3892C220.845 80.9494 222.401 75.9285 220.024 72.8662Z" fill="#2BDA88"/>
<path d="M217.215 70.8991C214.339 70.1937 210.497 72.3099 204.812 75.8245C199.829 78.9566 195.072 82.4341 190.575 86.2313" stroke="#145C3B" stroke-width="0.75" stroke-linecap="round" stroke-linejoin="round"/>
<path d="M205.537 31.1805C208.417 32.1556 212.313 31.3008 214.861 27.1306C216.43 24.6757 217.103 21.7545 216.766 18.8608C216.604 17.3213 215.347 13.7943 211.297 14.9727C207.67 16.0184 205.961 18.2923 204.857 21.3214C204.724 21.6782 204.6 22.0475 204.483 22.4293C204.305 23.0227 204.131 23.6326 203.985 24.2426C203.247 27.2883 203.139 30.3506 205.537 31.1805Z" fill="#FEBD9D"/>
<path d="M210.197 23.6284C210.48 24.4874 211.816 24.8152 213.173 24.3629C214.529 23.9106 215.401 22.8483 215.114 21.9894C214.828 21.1305 213.496 20.8027 212.135 21.255C210.774 21.7073 209.907 22.7695 210.197 23.6284Z" fill="#F4AF90"/>
<path d="M203.987 24.2219C204.198 24.2702 204.419 24.2675 204.629 24.2142C204.84 24.1608 205.035 24.0582 205.198 23.9148C205.758 23.3505 205.613 22.255 204.858 21.3007C204.725 21.6575 204.601 22.0268 204.485 22.4086C204.306 23.0019 204.132 23.6119 203.987 24.2219Z" fill="#F4AF90"/>
<path d="M207.197 20.562C207.198 20.6666 207.168 20.7691 207.11 20.8564C207.053 20.9436 206.97 21.0118 206.874 21.0522C206.777 21.0926 206.671 21.1034 206.568 21.0832C206.466 21.063 206.372 21.0127 206.298 20.9388C206.224 20.8648 206.173 20.7706 206.153 20.668C206.133 20.5654 206.144 20.459 206.184 20.3626C206.225 20.2661 206.293 20.1839 206.38 20.1263C206.467 20.0687 206.57 20.0384 206.674 20.0392C206.813 20.0392 206.946 20.0943 207.044 20.1923C207.142 20.2904 207.197 20.4234 207.197 20.562V20.562Z" fill="#683F1D"/>
<path d="M209.886 21.1429C209.887 21.2473 209.856 21.3496 209.799 21.4368C209.742 21.524 209.66 21.5922 209.563 21.6328C209.467 21.6733 209.361 21.6843 209.258 21.6645C209.156 21.6446 209.062 21.5947 208.988 21.5212C208.913 21.4477 208.863 21.3538 208.842 21.2514C208.822 21.1491 208.832 21.0429 208.871 20.9464C208.911 20.8499 208.979 20.7673 209.066 20.7092C209.152 20.6511 209.254 20.6201 209.359 20.6201C209.498 20.6201 209.631 20.6751 209.73 20.773C209.829 20.8709 209.885 21.0039 209.886 21.1429V21.1429Z" fill="#683F1D"/>
<path d="M205.716 16.2881C206.313 16.9022 207.102 16.2881 207.102 16.2881C207.006 17.1886 209.031 17.9479 210.488 18.1014C211.944 18.255 211.318 16.9064 212.442 16.4043C213.567 15.9022 215.114 17.1222 215.114 17.1222C215.114 17.1222 212.753 18.7197 212.625 20.8567C212.536 22.0989 212.906 23.3307 213.666 24.3173L216.247 24.865C217.176 24.4262 218.029 23.8421 218.774 23.1347C220.156 21.8027 220.944 20.1347 220.567 18.4998C219.994 16.0101 217.509 15.5952 217.509 15.5952C217.459 14.8304 217.211 14.0918 216.789 13.4522C216.367 12.8125 215.786 12.294 215.102 11.9478C213.148 10.8731 211.094 11.1179 210.338 11.7071C209.583 12.2964 209.359 12.4416 207.961 12.7196H207.899C207.712 12.7369 207.531 12.7918 207.366 12.8812C207.201 12.9706 207.056 13.0924 206.94 13.2395C206.823 13.3865 206.738 13.5556 206.689 13.7365C206.64 13.9175 206.628 14.1066 206.654 14.2922C206.654 14.2922 205.118 15.6657 205.716 16.2881Z" fill="#BF8228"/>
<path d="M205.716 16.2881C206.314 16.9023 207.102 16.2881 207.102 16.2881C207.007 17.1886 209.032 17.9479 210.488 18.1015C211.944 18.255 211.318 16.9064 212.442 16.4043C213.567 15.9022 215.115 17.1222 215.115 17.1222C215.115 17.1222 212.754 18.7197 212.625 20.8567C212.536 22.099 212.906 23.3307 213.666 24.3173L216.247 24.8651C217.176 24.4262 218.029 23.8421 218.774 23.1347C216.127 22.114 217.061 19.7654 217.247 18.0434C217.509 15.6118 216.135 13.5993 213.098 14.7238C211.347 15.3587 209.363 14.0889 207.944 12.7528H207.882C207.695 12.7701 207.514 12.8251 207.349 12.9144C207.184 13.0038 207.039 13.1256 206.923 13.2727C206.807 13.4197 206.721 13.5888 206.672 13.7698C206.623 13.9507 206.611 14.1398 206.637 14.3254C206.637 14.3254 205.119 15.6657 205.716 16.2881Z" fill="#B57724"/>
<path d="M207.102 16.284C207.401 15.367 207.563 15.3794 208.575 15.2715C209.588 15.1636 210.841 15.0184 211.173 14.3503" stroke="#9B621F" stroke-width="0.75" stroke-linecap="round" stroke-linejoin="round"/>
<path d="M206.671 14.3338C207.496 13.98 208.402 13.8525 209.293 13.9645" stroke="#9B621F" stroke-width="0.75" stroke-linecap="round" stroke-linejoin="round"/>
<path d="M211.7 20.1595C211.833 20.6699 208.849 19.9728 209.33 18.9147C209.812 17.8566 211.459 19.2508 211.7 20.1595Z" fill="#BF8228"/>
<path d="M208.301 18.5537C208.392 19.2052 206.094 19.2716 206.089 18.7322C206.085 18.1927 208.168 17.5869 208.301 18.5537Z" fill="#BF8228"/>
<path d="M208.558 19.9105C208.109 21.3753 207.139 21.6242 206.553 22.0101C205.968 22.396 206.089 23.5952 206.089 23.5952" stroke="#EF8A66" stroke-width="0.75" stroke-linecap="round" stroke-linejoin="round"/>
<path d="M209.422 23.9189C208.824 24.9065 207.945 25.4791 206.974 25.1638" stroke="#EF8A66" stroke-width="0.75" stroke-linecap="round" stroke-linejoin="round"/>
<path d="M213.679 24.3256C214.182 22.3255 217.414 21.2633 217.862 24.0891C218.248 26.5331 215.949 26.7364 214.742 26.6534L213.679 24.3256Z" fill="#FEBD9D"/>
<path d="M216.849 23.9729C215.529 23.3339 214.608 24.4584 214.446 25.056" stroke="#EF8A66" stroke-width="0.75" stroke-linecap="round" stroke-linejoin="round"/>
<path d="M214.616 24.6742C215.708 23.0683 217.106 25.5248 215.235 25.7157" stroke="#EF8A66" stroke-width="0.75" stroke-linecap="round" stroke-linejoin="round"/>
<path d="M215.123 26.6659C214.781 26.6734 214.441 26.6243 214.115 26.5206" stroke="#EF8A66" stroke-width="0.75" stroke-linecap="round" stroke-linejoin="round"/>
<path d="M191.617 43.9562L191.57 61.9068L185.649 61.8894L177.924 61.8719L177.959 48.6329L177.97 43.9213L186.672 43.8864L191.617 43.9562Z" fill="url(#paint0_linear_203_82)"/>
<path d="M177.971 43.9154L180.46 40.2042L188.895 40.2275L186.655 43.9386L177.971 43.9154Z" fill="url(#paint1_linear_203_82)"/>
<path d="M188.894 40.2275L191.616 43.9561L186.654 43.9387L188.894 40.2275Z" fill="#B1BEE3"/>
<path d="M191.617 43.9562L191.57 61.9069L186.608 61.8952L186.655 43.9387L191.617 43.9562Z" fill="url(#paint2_linear_203_82)"/>
<path d="M180.459 40.2043L188.893 40.2275V40.053C188.893 39.3666 188.341 38.8082 187.654 38.8082L181.704 38.7908C181.017 38.7908 180.459 39.3434 180.459 40.0298V40.2043Z" fill="url(#paint3_linear_203_82)"/>
<path d="M177.959 49.3425L186.638 49.3658L186.632 52.5825L177.947 52.5592L177.959 49.3425Z" fill="url(#paint4_linear_203_82)"/>
<path d="M191.598 49.3775L191.593 52.5942L186.631 52.5825L186.637 49.3658L191.598 49.3775Z" fill="url(#paint5_linear_203_82)"/>
<path d="M175.568 41.577H170.565V53.5015H175.568V41.577Z" fill="url(#paint6_linear_203_82)"/>
<path d="M174.614 36.6036H173.096C171.136 36.6036 169.554 38.1916 169.554 40.1461V42.6822H172.578C173.271 42.6822 173.829 43.2406 173.829 43.9328C173.829 44.625 173.271 45.1834 172.578 45.1834H169.554V48.7899H172.578C173.271 48.7899 173.829 49.3483 173.829 50.0405C173.829 50.7327 173.271 51.2911 172.578 51.2911H169.554V58.2422H178.163V40.1461C178.157 38.1916 176.569 36.6036 174.614 36.6036Z" fill="url(#paint7_linear_203_82)"/>
<path d="M160.45 44.2818C160.45 44.2818 151.55 40.8149 153.493 38.2032C155.442 35.5856 160.811 43.4907 160.811 43.4907L160.45 44.2818Z" fill="#3BC49A"/>
<path d="M161.247 43.6884C161.247 43.6884 161.707 34.143 158.531 34.8585C155.343 35.574 160.381 43.6942 160.381 43.6942L161.247 43.6884Z" fill="#3BC49A"/>
<path d="M161.056 44.3632C161.056 44.3632 157.095 31.5255 153.413 33.9045C150.074 36.0684 160.201 44.6191 160.201 44.6191L161.056 44.3632Z" fill="#44D0A7"/>
<path d="M173.132 61.5984C172.917 61.5752 172.696 61.4821 172.492 61.3076L171.119 60.1384L171.113 60.1326L168.205 57.6488L167.67 57.1893L163.796 53.8853L163.045 53.2455L160.533 51.1049C160.282 50.8897 160.05 50.6512 159.84 50.4011C159.666 50.1917 159.503 49.9706 159.363 49.7379C158.642 48.5804 158.357 47.196 158.66 45.8465C158.915 44.7122 159.509 43.8106 160.294 43.194C160.376 43.13 160.463 43.0661 160.55 43.0079C161.713 42.2226 163.232 42.0074 164.697 42.496C165.064 42.6182 165.407 42.7869 165.727 42.9904C166.623 43.5547 167.327 44.4039 167.757 45.387L168.118 46.1839L168.496 47.0215L170.386 51.1863L170.729 51.9425L172.957 56.8461L173.161 57.2998L174.353 59.929C174.784 60.8539 173.969 61.7031 173.132 61.5984Z" fill="url(#paint8_linear_203_82)"/>
<path opacity="0.1" d="M171.119 60.1325L160.532 51.1048C159.008 49.8019 158.217 47.7834 158.653 45.8464C158.909 44.7121 159.503 43.8105 160.288 43.1939C160.369 43.13 160.457 43.066 160.544 43.0078C160.689 48.3069 167.559 56.3283 171.119 60.1325Z" fill="black"/>
<path opacity="0.1" d="M165.726 42.9904L162.538 45.0321L164.696 42.5018C165.063 42.624 165.406 42.7869 165.726 42.9904Z" fill="black"/>
<path opacity="0.1" d="M162.836 47.5449L159.84 50.4068C159.666 50.1974 159.503 49.9763 159.363 49.7437L162.836 47.5449Z" fill="black"/>
<path opacity="0.1" d="M168.5 47.0273L165.615 48.8072L168.116 46.1838L168.5 47.0273Z" fill="black"/>
<path opacity="0.1" d="M166.128 51.512L163.795 53.8852L163.045 53.2512L166.128 51.512Z" fill="black"/>
<path opacity="0.1" d="M170.735 51.9541L168.751 52.8732L170.391 51.1921L170.735 51.9541Z" fill="black"/>
<path opacity="0.1" d="M170.06 55.6478L168.204 57.6488L167.669 57.1951L170.06 55.6478Z" fill="black"/>
<path opacity="0.1" d="M173.172 57.3056L171.881 58.0152L172.969 56.8577L173.172 57.3056Z" fill="black"/>
<path d="M158.007 50.0696C158.007 50.0696 151.609 47.5742 153.005 45.7012C154.407 43.8165 158.263 49.5054 158.263 49.5054L158.007 50.0696Z" fill="#3BC49A"/>
<path d="M158.584 49.6392C158.584 49.6392 158.916 42.7812 156.636 43.293C154.344 43.8049 157.968 49.645 157.968 49.645L158.584 49.6392Z" fill="#3BC49A"/>
<path d="M158.444 50.1278C158.444 50.1278 155.594 40.8965 152.953 42.6125C150.551 44.1656 157.833 50.3139 157.833 50.3139L158.444 50.1278Z" fill="#44D0A7"/>
<path d="M167.123 62.5118C166.965 62.4944 166.808 62.4246 166.663 62.3024L165.674 61.459C165.674 61.459 165.674 61.459 165.668 61.459L163.574 59.6732L163.19 59.3416L160.404 56.9684L159.869 56.5089L158.066 54.9674C157.885 54.8103 157.717 54.6417 157.565 54.4613C157.438 54.3101 157.321 54.153 157.222 53.9844C156.705 53.1526 156.495 52.1579 156.716 51.1865C156.897 50.3721 157.327 49.7265 157.891 49.2786C157.949 49.232 158.013 49.1855 158.077 49.1448C158.915 48.5805 160.009 48.4235 161.056 48.7783C161.317 48.8656 161.567 48.9877 161.794 49.1331C162.44 49.5403 162.94 50.1511 163.254 50.8549L163.516 51.4308L163.789 52.0357L165.151 55.0314L165.401 55.5782L167 59.1032L167.146 59.4289L168.001 61.3194C168.309 61.9767 167.727 62.5874 167.123 62.5118Z" fill="url(#paint9_linear_203_82)"/>
<path opacity="0.1" d="M165.674 61.459L158.066 54.9674C156.966 54.0309 156.402 52.5767 156.716 51.1865C156.897 50.3721 157.327 49.7265 157.891 49.2786C157.949 49.232 158.013 49.1855 158.077 49.1448C158.182 52.9606 163.121 58.7251 165.674 61.459Z" fill="black"/>
<path opacity="0.1" d="M161.801 49.1389L159.509 50.6047L161.056 48.7841C161.324 48.8713 161.568 48.9935 161.801 49.1389Z" fill="black"/>
<path opacity="0.1" d="M159.718 52.4138L157.566 54.4672C157.438 54.3159 157.322 54.1589 157.223 53.9902L159.718 52.4138Z" fill="black"/>
<path opacity="0.1" d="M163.79 52.0358L161.719 53.3213L163.516 51.4366L163.79 52.0358Z" fill="black"/>
<path opacity="0.1" d="M162.091 55.264L160.41 56.9684L159.875 56.5147L162.091 55.264Z" fill="black"/>
<path opacity="0.1" d="M165.401 55.5782L163.976 56.2413L165.151 55.0372L165.401 55.5782Z" fill="black"/>
<path opacity="0.1" d="M164.912 58.2365L163.58 59.6732L163.196 59.3475L164.912 58.2365Z" fill="black"/>
<path opacity="0.1" d="M167.151 59.4289L166.221 59.935L167 59.1031L167.151 59.4289Z" fill="black"/>
<path d="M192.349 52.5417V88.8387H155.354V52.5126L155.907 53.9668L157.419 52.1055L158.874 54.025L160.444 52.1055L160.677 52.4021L161.171 53.0362L161.898 53.9668L163.411 52.1055L164.923 53.9087L166.377 52.1055L167.948 54.025L169.402 52.1055L170.856 53.9668L172.369 52.1055L173.823 53.9087L175.277 52.1055L176.789 53.9087L178.302 52.1055L179.814 53.9087L181.268 52.1055L182.723 53.9087L184.293 52.1055L185.806 53.9087L187.318 52.1055L188.772 53.9668L190.284 52.1055L191.739 53.7923L192.349 52.5417Z" fill="url(#paint10_linear_203_82)"/>
<path d="M161.171 53.0362V88.8387H155.354V52.5126L155.907 53.9668L157.419 52.1055L158.874 54.025L160.444 52.1055L160.677 52.4021L161.171 53.0362Z" fill="#EECA9D"/>
<path d="M166.378 52.1055V88.8387H160.678V52.4021L161.899 53.9668L163.412 52.1055L164.924 53.9087L166.378 52.1055Z" fill="url(#paint11_linear_203_82)"/>
<path d="M166.377 88.8386H155.354V88.8153L160.706 81.6257L166.377 88.8386Z" fill="#E1AF72"/>
<path d="M185.197 86.3082C186.851 86.3082 188.192 84.4982 188.192 82.2655C188.192 80.0328 186.851 78.2228 185.197 78.2228C183.542 78.2228 182.201 80.0328 182.201 82.2655C182.201 84.4982 183.542 86.3082 185.197 86.3082Z" fill="url(#paint12_linear_203_82)"/>
<path d="M191.217 86.3372C192.872 86.3372 194.213 84.5272 194.213 82.2945C194.213 80.0618 192.872 78.2518 191.217 78.2518C189.563 78.2518 188.222 80.0618 188.222 82.2945C188.222 84.5272 189.563 86.3372 191.217 86.3372Z" fill="url(#paint13_linear_203_82)"/>
<path d="M178.857 86.3082C180.511 86.3082 181.853 84.4982 181.853 82.2655C181.853 80.0328 180.511 78.2228 178.857 78.2228C177.203 78.2228 175.861 80.0328 175.861 82.2655C175.861 84.4982 177.203 86.3082 178.857 86.3082Z" fill="url(#paint14_linear_203_82)"/>
<path d="M174.494 86.3082C176.148 86.3082 177.489 84.4982 177.489 82.2655C177.489 80.0328 176.148 78.2228 174.494 78.2228C172.839 78.2228 171.498 80.0328 171.498 82.2655C171.498 84.4982 172.839 86.3082 174.494 86.3082Z" fill="url(#paint15_linear_203_82)"/>
<path d="M187.291 86.3082C188.945 86.3082 190.286 84.4982 190.286 82.2655C190.286 80.0328 188.945 78.2228 187.291 78.2228C185.636 78.2228 184.295 80.0328 184.295 82.2655C184.295 84.4982 185.636 86.3082 187.291 86.3082Z" fill="url(#paint16_linear_203_82)"/>
<path d="M180.892 86.3082C182.547 86.3082 183.888 84.4982 183.888 82.2655C183.888 80.0328 182.547 78.2228 180.892 78.2228C179.238 78.2228 177.896 80.0328 177.896 82.2655C177.896 84.4982 179.238 86.3082 180.892 86.3082Z" fill="url(#paint17_linear_203_82)"/>
<path d="M195.725 84.1851V84.9994L192.817 88.8385H190.49L190.257 88.1405H189.326L188.803 88.8385H184.673L184.091 88.0823H182.346L181.823 88.8385H178.74L178.158 88.0823H176.355L175.773 88.8385H173.97L171.353 85.6974V84.1851H195.725Z" fill="#B68649"/>
<path d="M195.725 84.1851V84.9994L192.816 88.8385H190.49L190.257 88.1405H189.326L188.803 88.8385H187.215L189.46 84.1851H195.725Z" fill="url(#paint18_linear_203_82)"/>
<path d="M196.452 83.1671H170.451V84.5631H196.452V83.1671Z" fill="url(#paint19_linear_203_82)"/>
<path d="M196.453 83.1671H188.658V84.5631H196.453V83.1671Z" fill="#B68649"/>
<path d="M93.3068 173.741C93.3068 176.748 92.5288 181.296 94.2428 181.296H110.455C111.079 181.296 110.909 179.24 109.188 178.774C107.466 178.308 103.053 174.94 102.636 173.741H93.3068Z" fill="#683F1D"/>
<path d="M104.951 94.9183L104.899 174.143H94.2874V90.8588L104.951 94.9183Z" fill="#C3DCF8"/>
<path d="M97.539 96.5347C97.6405 99.0644 96.8511 100.267 96.1144 100.466" stroke="#83ADDF" stroke-width="0.75" stroke-linecap="round" stroke-linejoin="round"/>
<path d="M84.1728 176.255C84.1728 179.386 83.3684 184.081 85.1463 184.081H101.929C102.58 184.081 102.403 181.954 100.621 181.45C98.8397 180.946 94.2652 177.481 93.8555 176.24L84.1728 176.255Z" fill="#683F1D"/>
<path d="M100.622 181.465C98.8404 180.98 94.2659 177.496 93.8562 176.255" stroke="#91613D" stroke-width="0.75" stroke-linecap="round" stroke-linejoin="round"/>
<path d="M76.772 94.9183C77.0614 107.841 82.5493 176.804 82.5493 176.804C82.5493 176.804 95.2842 176.545 95.2842 176.804V93.7343L76.772 94.9183Z" fill="#C3DCF8"/>
<path d="M95.2842 176.804V103.222" stroke="#83ADDF" stroke-width="0.75" stroke-linecap="round" stroke-linejoin="round"/>
<path d="M85.1036 49.6958C85.2725 49.7072 85.4421 49.7072 85.611 49.6958C88.2197 49.4628 89.7457 46.6173 90.1216 44.4335C90.4975 42.1105 91.7341 41.7158 92.4822 41.0092C93.2302 40.3025 94.23 39.235 93.6511 37.4646C93.0723 35.6942 92.0875 32.2474 95.1209 32.1797C96.6582 32.1421 97.549 30.8716 98.049 29.6275C98.3506 28.8478 98.5526 28.0333 98.6504 27.203C93.6098 24.7222 91.2079 26.1393 89.1218 28.2254C87.0356 30.3116 88.1858 32.3 87.0732 35.0101C85.9456 37.7879 81.4838 38.1111 81.247 42.1519C81.0102 46.1926 82.1905 49.5755 85.1036 49.6958Z" fill="#604730"/>
<path d="M84.9493 47.4105C85.1073 48.1854 85.3286 48.946 85.6109 49.6846C88.2195 49.4516 89.7456 46.6062 90.1215 44.4223C90.4974 42.0993 91.734 41.7047 92.482 40.998C93.23 40.2913 94.2299 39.2238 93.651 37.4534C93.0721 35.683 92.0873 32.2362 95.1207 32.1685C96.6581 32.1309 97.5489 30.8605 98.0488 29.6163C92.9857 27.3159 90.3733 28.654 89.9486 30.6312C89.49 32.7436 92.888 35.4876 89.9486 38.0999C87.0092 40.7123 83.4233 40.3176 84.9493 47.4105Z" fill="#473526"/>
<path d="M100.071 56.77C104.206 56.9955 106.371 54.2666 106.232 52.4924C106.161 51.6204 105.995 49.4365 105.815 46.9143C105.653 44.6891 105.476 42.1932 105.337 40.0808C105.315 39.735 105.292 39.3967 105.273 39.0734C104.822 31.8978 97.8348 29.7816 97.0604 38.1074C96.8086 40.8062 95.6283 45.0349 94.8653 48.6321C94.076 52.312 95.9328 56.5444 100.071 56.77Z" fill="#FEBD9D"/>
<path d="M105.83 46.9144C105.668 44.6891 105.492 42.1933 105.353 40.0808L100.748 38.9081C99.6506 42.7947 101.086 46.7791 105.83 46.9144Z" fill="#F4A789"/>
<path d="M75.5195 55.5785C75.5571 56.9768 75.6699 58.4352 75.8315 59.9087C76.2412 63.6675 76.9592 67.5654 77.4516 70.8318C77.8275 73.3465 78.0793 75.4965 77.9515 76.9512C77.7448 79.338 77.5192 82.5894 77.3238 85.634C77.0118 90.4867 76.7712 94.9183 76.7712 94.9183H104.962C104.962 94.9183 116.464 77.9473 118.186 70.3168C119.077 66.3738 119.265 63.0698 118.938 60.2996C118.699 58.0022 117.945 55.7883 116.731 53.8231C114.619 50.5079 109.589 48.3954 105.831 47.264C105.958 49.4892 106.462 52.7819 101.797 52.3196C97.1328 51.8573 95.227 48.3653 95.6555 45.1027C89.1377 43.8735 80.4624 43.2796 77.7974 46.1439C77.4255 46.5493 77.1083 47.0017 76.8539 47.4895C76.4042 48.3626 76.0815 49.2955 75.8954 50.2598C75.5683 52.0126 75.4422 53.7971 75.5195 55.5785Z" fill="#FED81D"/>
<path d="M75.8985 50.2711C80.0333 50.4928 84.3371 52.2783 85.7279 56.2852C85.8316 56.5841 85.917 56.8892 85.9835 57.1986C86.1193 57.8458 86.326 58.4761 86.5999 59.078C89.2311 64.9455 97.4028 65.28 103.789 61.1792C109.149 57.7398 112.243 55.8905 118.926 60.2921C118.69 57.9981 117.939 55.787 116.731 53.8231C114.618 50.5079 109.589 48.3954 105.83 47.264C105.958 49.4892 106.462 52.7819 101.797 52.3196C97.1321 51.8573 95.2264 48.3653 95.6549 45.1027C89.1371 43.8735 80.4618 43.2796 77.7967 46.1439C77.4249 46.5493 77.1077 47.0017 76.8533 47.4895C76.4039 48.3664 76.0824 49.3031 75.8985 50.2711V50.2711Z" fill="#FFE05C"/>
<path d="M110.506 56.7812L109.209 63.2878" stroke="#F7AD2B" stroke-width="0.75" stroke-linecap="round" stroke-linejoin="round"/>
<path d="M77.9514 76.951C77.7447 79.3379 77.5192 82.5893 77.3237 85.6339C79.1768 84.1567 82.0297 81.3263 80.7555 78.6839C78.925 74.8874 80.0037 72.7336 82.4733 70.9332C84.9428 69.1327 85.1421 67.7081 83.1799 61.8481C81.2178 55.9881 75.8315 59.9048 75.8315 59.9048C76.2412 63.6636 76.9591 67.5615 77.4515 70.8279C77.8311 73.3463 78.0792 75.4964 77.9514 76.951Z" fill="#FCC71F"/>
<path d="M90.7073 69.0238H102.69V96.1174H90.7073V69.0238Z" fill="#E1B074" stroke="#55442F" stroke-linecap="round" stroke-linejoin="round"/>
<path d="M102.692 69.0238H129.218V96.1174H102.692V69.0238Z" fill="#F3D3AB" stroke="#87663D" stroke-linecap="round" stroke-linejoin="round"/>
<path d="M106.543 77.1617H133.073L129.217 69.0238H102.691L106.543 77.1617Z" fill="#FFE9CE" stroke="#87663D" stroke-linecap="round" stroke-linejoin="round"/>
<path d="M86.8432 77.1654H98.8376L102.69 69.0238H90.696L86.8432 77.1654Z" fill="#EECA9D" stroke="#55442F" stroke-linecap="round" stroke-linejoin="round"/>
<path d="M129.969 88.5584C130.796 88.2201 131.517 89.2913 130.683 90.0619C129.849 90.8325 128.473 91.0617 128.225 90.4378C127.977 89.8138 129.059 88.9305 129.969 88.5584Z" fill="#FEBD9D" stroke="#EF8A66" stroke-width="0.75" stroke-linecap="round" stroke-linejoin="round"/>
<path d="M130.1 86.7354C131.047 86.3595 131.878 87.5736 130.916 88.4457C129.953 89.3177 128.386 89.5733 128.1 88.8854C127.815 88.1976 129.059 87.1601 130.1 86.7354Z" fill="#FEBD9D" stroke="#EF8A66" stroke-width="0.75" stroke-linecap="round" stroke-linejoin="round"/>
<path d="M130.032 84.792C130.983 84.3672 131.502 85.8144 130.543 86.7729C129.585 87.7314 127.848 88.1824 127.563 87.4081C127.277 86.6338 128.991 85.2618 130.032 84.792Z" fill="#FEBD9D" stroke="#EF8A66" stroke-width="0.75" stroke-linecap="round" stroke-linejoin="round"/>
<path d="M129.218 82.3375V83.5253C129.218 83.5253 127.312 84.9123 127.278 85.7581C127.244 86.6038 128.195 86.7429 129.218 86.1678C130.24 85.5927 131.274 84.4725 130.92 83.4727C130.567 82.4728 129.218 82.3375 129.218 82.3375Z" fill="#FEBD9D" stroke="#EF8A66" stroke-width="0.75" stroke-linecap="round" stroke-linejoin="round"/>
<path d="M129.216 83.5253C129.418 83.3747 129.667 83.299 129.919 83.3111" stroke="#EF8A66" stroke-width="0.75" stroke-linecap="round" stroke-linejoin="round"/>
<path d="M55.3666 80.6271C55.3666 84.7092 58.2383 88.0696 61.9295 88.5207C62.1988 88.554 62.47 88.5703 62.7414 88.5695C66.816 88.5695 70.1162 85.0212 70.1162 80.6422C70.1162 76.2631 66.816 72.7111 62.7414 72.7111C61.2127 72.714 59.7271 73.2184 58.5127 74.1469C57.5242 74.9114 56.7259 75.8941 56.1801 77.0182C55.6343 78.1424 55.3559 79.3775 55.3666 80.6271V80.6271Z" fill="#FED81D"/>
<path d="M55.3666 80.6272C55.3666 84.7093 58.2384 88.0697 61.9295 88.5207C62.4182 82.9125 61.1439 77.5224 58.5128 74.147C57.5242 74.9114 56.7259 75.8941 56.1801 77.0183C55.6343 78.1424 55.3559 79.3776 55.3666 80.6272V80.6272Z" fill="#FCC71F"/>
<path d="M74.7671 52.2707C74.7662 53.4157 75.0232 54.5462 75.5189 55.5784C76.1786 56.9285 77.2058 58.065 78.4824 58.8576C79.759 59.6501 81.2333 60.0665 82.7358 60.0589C83.3687 60.0602 83.9995 59.987 84.6153 59.8409C85.3099 59.6803 85.9799 59.4274 86.6074 59.0892C87.8435 58.4297 88.878 57.4481 89.6013 56.2483C90.3247 55.0485 90.7098 53.6753 90.7158 52.2744C90.6861 50.1855 89.8295 48.1935 88.3337 46.735C86.8379 45.2766 84.8249 44.4706 82.7358 44.4936C80.9537 44.4884 79.2203 45.0755 77.808 46.1626V46.1626C76.9754 46.8032 76.28 47.6046 75.7632 48.5193C75.4525 49.0656 75.2125 49.6491 75.0491 50.2559C74.8642 50.9116 74.7694 51.5894 74.7671 52.2707V52.2707Z" fill="#FED81D"/>
<path d="M74.2562 50.2672C74.5194 50.2672 74.7862 50.2484 75.0569 50.2484C75.3275 50.2484 75.6282 50.2484 75.9139 50.2709C80.0486 50.4927 84.3524 52.2781 85.7432 56.285C85.8469 56.584 85.9323 56.889 85.9988 57.1984C86.1346 57.8457 86.3413 58.4759 86.6152 59.0778C87.8513 58.4184 88.8858 57.4368 89.6092 56.237C90.3325 55.0372 90.7176 53.664 90.7236 52.2631C90.691 50.1748 89.832 48.1846 88.3349 46.7283C86.8378 45.2721 84.8245 44.4685 82.7361 44.4936C80.954 44.4884 79.2206 45.0754 77.8083 46.1625V46.1625C76.9757 46.8031 76.2803 47.6046 75.7635 48.5193C75.3613 48.9328 74.8501 49.5304 74.2562 50.2672Z" fill="#FFE05C"/>
<path d="M60.7242 84.4499C63.1373 84.604 66.4451 83.1343 70.5384 78.6839C72.9666 76.0527 75.3347 73.4215 77.4547 70.8317C80.552 67.0729 83.1267 63.3667 84.5964 59.8409C85.0903 58.7002 85.4681 57.5127 85.7241 56.2963C86.2955 53.7725 85.9504 51.1278 84.7505 48.8351C83.6605 46.7865 80.2888 44.862 76.857 47.5007C76.4616 47.8055 76.0931 48.1438 75.7557 48.5118C75.3798 48.9328 74.8498 49.5305 74.2522 50.2672C71.5533 53.5486 67.0239 59.6116 63.1599 65.3025C59.5289 70.6776 56.4917 75.737 56.1384 77.8569C55.6497 80.7324 57.2811 84.2319 60.7242 84.4499Z" fill="#FED81D"/>
<path d="M74.2567 50.2672C74.5198 50.2672 74.7867 50.2484 75.0573 50.2484C75.3279 50.2484 75.6286 50.2484 75.9143 50.271C80.049 50.4928 84.3529 52.2782 85.7436 56.2851C86.315 53.7613 85.9699 51.1165 84.7701 48.8238C83.68 46.7753 80.3084 44.8508 76.8766 47.4895C76.4811 47.7943 76.1127 48.1326 75.7752 48.5006C75.3617 48.9328 74.8506 49.5305 74.2567 50.2672Z" fill="#FFE05C"/>
<path d="M70.5341 78.6989C72.9623 76.0678 75.3303 73.4366 77.4503 70.8468C80.5476 67.0879 83.1224 63.3817 84.5921 59.856C85.086 58.7153 85.4637 57.5278 85.7197 56.3114" stroke="#F7AD2B" stroke-width="0.75" stroke-linecap="round" stroke-linejoin="round"/>
<path d="M60.7249 84.4499C60.0244 83.7912 59.414 83.043 58.9094 82.2246C56.1316 77.8719 66.1902 71.0384 63.1568 65.3099C59.5258 70.6851 56.4887 75.7444 56.1354 77.8644C55.6505 80.7324 57.2818 84.2318 60.7249 84.4499Z" fill="#FCC71F"/>
<path d="M95.5388 35.8709L96.1289 35.792L97.234 35.6491L98.9593 35.4236L108.943 34.1193C110.375 32.7285 110.909 32.3564 111.127 31.8264C111.226 31.5465 111.277 31.2515 111.277 30.9544C111.348 29.6839 111.243 26.1281 106.928 24.8388C106.533 24.7214 106.132 24.6298 105.725 24.5644C103.831 24.2991 101.902 24.4753 100.087 25.0793V25.0793C100.087 25.0793 99.572 24.1885 97.0461 25.7522C94.5201 27.3158 91.6484 31.7325 95.5388 35.8709Z" fill="#604730"/>
<path d="M96.1284 35.792C96.1885 36.3596 96.2486 36.7016 96.2486 36.7016L97.3124 36.4197C97.2786 36.1566 97.2522 35.901 97.2334 35.668C96.5531 27.7369 101.368 25.0493 105.725 24.587C103.831 24.3217 101.901 24.4979 100.086 25.1019V25.1019C95.681 27.1204 95.884 33.4277 96.1284 35.792Z" fill="white"/>
<path d="M98.9606 35.4236L108.944 34.1193C110.376 32.7285 110.91 32.3564 111.128 31.8264C110.177 27.9435 107.884 25.9138 104.291 25.8123C99.9267 25.7108 98.7539 29.3268 98.4043 32.0331C98.3163 33.1915 98.5071 34.3541 98.9606 35.4236V35.4236Z" fill="#473526"/>
<path d="M98.3914 37.7541C101.304 41.7272 105.42 43.7682 107.653 42.4714C109.123 41.6069 109.841 39.3629 109.969 36.7806C110.011 35.9032 109.991 35.0239 109.908 34.1494C109.863 33.6382 109.796 33.1308 109.713 32.6271C109.04 28.5788 106.33 25.8123 101.692 26.9137C101.692 26.9137 103.007 30.1425 100.914 32.1986C98.8199 34.2546 97.1547 34.0103 97.1547 34.0103C97.1547 34.0103 95.6963 33.7698 95.1099 34.7621C93.753 37.085 96.4857 38.9081 98.3914 37.7541Z" fill="#FEBD9D"/>
<path d="M105.725 32.9766C105.725 33.0669 105.699 33.1553 105.65 33.2307C105.6 33.306 105.529 33.3649 105.446 33.3998C105.362 33.4347 105.271 33.444 105.182 33.4266C105.093 33.4092 105.012 33.3658 104.948 33.3019C104.884 33.2381 104.841 33.1567 104.824 33.0681C104.806 32.9796 104.815 32.8878 104.85 32.8045C104.885 32.7213 104.944 32.6503 105.019 32.6006C105.095 32.5509 105.183 32.5248 105.274 32.5255C105.393 32.5265 105.507 32.5743 105.591 32.6587C105.676 32.7431 105.724 32.8573 105.725 32.9766Z" fill="#683F1D"/>
<path d="M108.582 33.0894C108.583 33.1795 108.557 33.2678 108.507 33.3431C108.458 33.4184 108.387 33.4772 108.304 33.5122C108.221 33.5472 108.129 33.5568 108.041 33.5397C107.952 33.5225 107.871 33.4795 107.807 33.4161C107.743 33.3526 107.699 33.2716 107.681 33.1832C107.664 33.0949 107.672 33.0033 107.707 32.92C107.741 32.8366 107.799 32.7654 107.874 32.7152C107.949 32.6651 108.037 32.6383 108.127 32.6383C108.247 32.6383 108.362 32.6857 108.447 32.7702C108.533 32.8547 108.581 32.9694 108.582 33.0894Z" fill="#683F1D"/>
<path d="M98.0508 34.7583C97.8944 34.51 97.6758 34.3069 97.4166 34.1691C97.1575 34.0313 96.8669 33.9636 96.5736 33.9727" stroke="#EF8A66" stroke-width="0.75" stroke-linecap="round" stroke-linejoin="round"/>
<path d="M97.7822 36.2242C97.5003 35.1717 96.3125 34.5966 95.5269 35.4386" stroke="#EF8A66" stroke-width="0.75" stroke-linecap="round" stroke-linejoin="round"/>
<path d="M97.5983 35.7694C96.3955 34.9274 95.6099 37.1715 97.7148 36.8144" stroke="#EF8A66" stroke-width="0.75" stroke-linecap="round" stroke-linejoin="round"/>
<path d="M106.691 37.6526C106.494 37.6936 106.291 37.6939 106.094 37.6533C105.897 37.6128 105.71 37.5323 105.545 37.4167C105.38 37.3012 105.241 37.1531 105.135 36.9817C105.03 36.8102 104.961 36.6189 104.932 36.4197" stroke="#EF8A66" stroke-width="0.75" stroke-linecap="round" stroke-linejoin="round"/>
<path d="M107.872 36.0739C108.661 35.668 108.669 35.0102 107.925 34.5967C107.18 34.1833 106.545 33.6307 106.692 32.161" stroke="#EF8A66" stroke-width="0.75" stroke-linecap="round" stroke-linejoin="round"/>
<path d="M109.993 31.0107C109.831 31.5031 107.05 31.6084 107.185 30.3793C107.286 29.4583 110.196 30.3905 109.993 31.0107Z" fill="#604730"/>
<path d="M105.811 30.5861C106.066 31.413 103.033 32.5068 102.762 31.8866C102.526 31.3379 105.337 29.0375 105.811 30.5861Z" fill="#604730"/>
<path d="M104.74 35.6041C104.447 36.3559 103.214 36.6115 101.989 36.1416C100.763 35.6718 100.004 34.6757 100.293 33.9126C100.583 33.1496 101.816 32.9053 103.045 33.3714C104.274 33.8375 105.029 34.8373 104.74 35.6041Z" fill="#F4AF90"/>
<path d="M108.988 36.1604C109.087 36.3366 109.229 36.4854 109.4 36.5936C109.571 36.7018 109.767 36.766 109.969 36.7806C110.011 35.9032 109.991 35.0239 109.908 34.1494C109.097 34.7208 108.694 35.5515 108.988 36.1604Z" fill="#F4AF90"/>
<path d="M85.7911 90.2498C86.2865 90.6275 86.8622 90.886 87.4737 91.0053C88.0851 91.1246 88.7158 91.1014 89.3169 90.9376C90.4445 90.6444 92.5194 92.2758 94.3462 93.1253C96.173 93.9747 97.7291 94.3995 96.8608 95.7376C96.8608 95.7376 99.2777 96.324 100.093 96.7487C100.909 97.1735 100.093 97.9892 99.2139 97.9892C98.3343 97.9892 93.6621 97.6133 92.1924 97.5419C90.7227 97.4704 83.1712 95.4144 83.1712 95.4144L85.7911 90.2498Z" fill="#FEBD9D"/>
<path d="M94.3462 93.1252C96.1767 93.9747 97.7291 94.3995 96.8608 95.7376C96.8608 95.7376 99.2777 96.324 100.093 96.7487C100.909 97.1735 100.093 97.9892 99.2139 97.9892C98.8944 97.9892 98.0862 97.9403 97.1089 97.8764" stroke="#EF8A66" stroke-width="0.75" stroke-linecap="round" stroke-linejoin="round"/>
<path d="M61.6038 88.626C62.4683 88.9718 63.4644 89.3777 64.5507 89.8288C71.7639 92.8095 82.7359 97.5419 82.7359 97.5419L86.7578 90.137C84.5025 88.4268 80.2701 84.9574 77.5525 82.1834C74.8348 79.4093 69.8431 72.9254 62.9645 75.5716C61.3841 76.1524 59.9779 77.1266 58.8786 78.402C56.0257 81.8225 56.6685 86.6413 61.6038 88.626Z" fill="#FED81D"/>
<path d="M61.6039 88.6258C62.4684 88.9717 63.4645 89.3776 64.5508 89.8287C63.3329 84.6001 61.6866 86.5735 58.9125 82.2246C58.1909 81.0969 58.3337 79.8001 58.8862 78.4019C56.0258 81.8224 56.6685 86.6412 61.6039 88.6258Z" fill="#FCC71F"/>
<path d="M86.7578 90.137C84.5025 88.4229 80.2663 84.9573 77.5487 82.1833C74.8311 79.4093 69.8431 72.9216 62.9607 75.5715" stroke="#F7AD2B" stroke-width="0.75" stroke-linecap="round" stroke-linejoin="round"/>
<path d="M84.1777 89.825L81.4338 95.4143" stroke="#F7AD2B" stroke-width="0.75" stroke-linecap="round" stroke-linejoin="round"/>
<path d="M96.8613 95.7377C94.9819 95.3167 92.0688 95.1739 91.1742 94.798" stroke="#EF8A66" stroke-width="0.75" stroke-linecap="round" stroke-linejoin="round"/>
<defs>
<linearGradient id="paint0_linear_203_82" x1="178.237" y1="52.6947" x2="188.231" y2="53.0279" gradientUnits="userSpaceOnUse">
<stop stop-color="#F3F7FF"/>
<stop offset="1" stop-color="#BCCBF9"/>
</linearGradient>
<linearGradient id="paint1_linear_203_82" x1="179.808" y1="42.0725" x2="190.734" y2="42.0714" gradientUnits="userSpaceOnUse">
<stop stop-color="#91A1D2"/>
<stop offset="0.666667" stop-color="#DEE6FF"/>
</linearGradient>
<linearGradient id="paint2_linear_203_82" x1="186.607" y1="52.9232" x2="191.615" y2="52.9232" gradientUnits="userSpaceOnUse">
<stop stop-color="#B0BFE9"/>
<stop offset="1" stop-color="#EEF2FF"/>
</linearGradient>
<linearGradient id="paint3_linear_203_82" x1="180.462" y1="39.4948" x2="188.897" y2="39.517" gradientUnits="userSpaceOnUse">
<stop stop-color="#B8CAFF"/>
<stop offset="1" stop-color="#9BB1F4"/>
</linearGradient>
<linearGradient id="paint4_linear_203_82" x1="177.948" y1="50.9635" x2="186.64" y2="50.9626" gradientUnits="userSpaceOnUse">
<stop stop-color="#90A5E2"/>
<stop offset="1" stop-color="#C2CBE4"/>
<stop offset="1" stop-color="#C6D1F2"/>
<stop offset="1" stop-color="#F5F8FF"/>
</linearGradient>
<linearGradient id="paint5_linear_203_82" x1="186.631" y1="50.9815" x2="191.6" y2="50.981" gradientUnits="userSpaceOnUse">
<stop stop-color="#8AA5F6"/>
<stop offset="1" stop-color="#DADBDE"/>
</linearGradient>
<linearGradient id="paint6_linear_203_82" x1="174.205" y1="47.5393" x2="169.668" y2="47.5393" gradientUnits="userSpaceOnUse">
<stop stop-color="#C48F40"/>
<stop offset="1" stop-color="#DADBDE"/>
</linearGradient>
<linearGradient id="paint7_linear_203_82" x1="179.644" y1="60.6974" x2="170.394" y2="41.6745" gradientUnits="userSpaceOnUse">
<stop stop-color="#F7CF95"/>
<stop offset="1" stop-color="#D3A35B"/>
</linearGradient>
<linearGradient id="paint8_linear_203_82" x1="157.004" y1="46.6932" x2="173.311" y2="54.0366" gradientUnits="userSpaceOnUse">
<stop stop-color="#FF7A00"/>
<stop offset="1" stop-color="#FFC28A"/>
</linearGradient>
<linearGradient id="paint9_linear_203_82" x1="155.532" y1="51.7983" x2="167.252" y2="57.0766" gradientUnits="userSpaceOnUse">
<stop stop-color="#FF6B00"/>
<stop offset="1" stop-color="#FF9F47"/>
</linearGradient>
<linearGradient id="paint10_linear_203_82" x1="155.354" y1="70.4721" x2="192.349" y2="70.4721" gradientUnits="userSpaceOnUse">
<stop stop-color="#D08E3E"/>
<stop offset="1" stop-color="#FFEBD3"/>
</linearGradient>
<linearGradient id="paint11_linear_203_82" x1="163.645" y1="83.9187" x2="163.326" y2="47.3339" gradientUnits="userSpaceOnUse">
<stop stop-color="#D5A161"/>
</linearGradient>
<linearGradient id="paint12_linear_203_82" x1="182.201" y1="82.2655" x2="188.192" y2="82.2655" gradientUnits="userSpaceOnUse">
<stop stop-color="#EEC38B"/>
<stop offset="1" stop-color="#FFE9CE"/>
</linearGradient>
<linearGradient id="paint13_linear_203_82" x1="188.222" y1="82.2945" x2="194.213" y2="82.2945" gradientUnits="userSpaceOnUse">
<stop stop-color="#E7B473"/>
<stop offset="1" stop-color="#FFE5C2"/>
</linearGradient>
<linearGradient id="paint14_linear_203_82" x1="175.861" y1="82.2655" x2="181.853" y2="82.2655" gradientUnits="userSpaceOnUse">
<stop stop-color="#EEC38B"/>
<stop offset="1" stop-color="#FFE9CE"/>
</linearGradient>
<linearGradient id="paint15_linear_203_82" x1="171.498" y1="82.2655" x2="177.489" y2="82.2655" gradientUnits="userSpaceOnUse">
<stop stop-color="white"/>
<stop offset="1" stop-color="#DADBDE"/>
</linearGradient>
<linearGradient id="paint16_linear_203_82" x1="184.295" y1="82.2655" x2="190.286" y2="82.2655" gradientUnits="userSpaceOnUse">
<stop stop-color="white"/>
<stop offset="1" stop-color="#DADBDE"/>
</linearGradient>
<linearGradient id="paint17_linear_203_82" x1="177.896" y1="82.2655" x2="183.888" y2="82.2655" gradientUnits="userSpaceOnUse">
<stop stop-color="white"/>
<stop offset="1" stop-color="#DADBDE"/>
</linearGradient>
<linearGradient id="paint18_linear_203_82" x1="187.214" y1="86.5118" x2="195.725" y2="86.5118" gradientUnits="userSpaceOnUse">
<stop stop-color="#B68649"/>
<stop offset="1" stop-color="#E9B879"/>
</linearGradient>
<linearGradient id="paint19_linear_203_82" x1="170.013" y1="83.907" x2="188.685" y2="83.8488" gradientUnits="userSpaceOnUse">
<stop stop-color="#B68649"/>
<stop offset="1" stop-color="#E9B777"/>
</linearGradient>
</defs>
</svg>
