<svg width="1305" height="700" viewBox="0 0 1305 700" fill="none" xmlns="http://www.w3.org/2000/svg">
<path d="M1190.65 549.973C1181.71 559.7 1182.31 572.623 1190.99 580.601C1199.98 588.864 1212.72 588.702 1221.95 578.346" fill="#0181F8"/>
<path d="M1151.26 296.303L1129.62 322.258L1153.29 342.257C1166.64 326.83 1166.57 308.548 1151.26 296.303Z" fill="#FFE500"/>
<path d="M117.114 539.012C99.6614 523.971 77.4532 526.311 64.5416 541.799C51.268 557.721 53.083 579.843 71.3289 594.563" fill="#FF800C"/>
<path d="M150.404 177.567C166.762 159.418 162.478 138.928 146.975 126.004C131.037 112.718 110.937 110.316 94.824 132.001" fill="#FF1378"/>
<path d="M1270.42 210.92C1248.66 199.817 1229.98 209.258 1221.51 227.578C1212.8 246.411 1215.68 266.448 1240.8 276.4" fill="#FF1378"/>
<path d="M1230.06 460.963L1225.8 473.245L1155.89 449.002L1160.15 436.72L1230.06 460.963Z" fill="#AA0BF0"/>
<path d="M286.109 354.752L283.893 367.561L210.976 354.945L213.193 342.135L286.109 354.752Z" fill="#AA0BF0"/>
<path d="M1175.88 70.1479L1194.31 85.5159L1148.85 140.051L1130.42 124.683L1175.88 70.1479Z" fill="#22DA4A"/>
<path d="M279.889 473.744L298.323 489.112L252.86 543.646L234.425 528.278L279.889 473.744Z" fill="#22DA4A"/>
<path d="M271.763 165.409L280.087 155.424L336.926 202.809L328.602 212.794L271.763 165.409Z" fill="#39CCEC"/>
</svg>
