<svg width="349" height="214" viewBox="0 0 349 214" fill="none" xmlns="http://www.w3.org/2000/svg">
<path d="M94.862 165.981C95.1114 162.081 95.7697 157.862 96.438 156.535C97.1062 155.209 100.497 150.371 101.904 149.853C103.31 149.334 103.729 152.416 101.654 155.638V156.505C103.299 154.587 104.799 152.551 106.143 150.411C107.799 147.588 109.295 146.421 110.202 147.239C111.11 148.057 108.048 155.049 107.14 156.126L107.799 156.485C107.799 156.485 113.653 149.164 114.711 148.506C115.977 147.668 116.915 149.703 115.838 151.608C115.838 151.608 117.494 150.531 118.152 151.518C118.81 152.506 113.933 160.804 113.933 160.804C113.933 160.804 119.089 155.109 120.426 156.525C121.763 157.942 111.778 169.183 106.402 174.02C106.402 174.02 96.7771 188.912 91.6005 195.106C84.828 203.205 73.6469 207.553 69.1984 202.397C63.6926 195.924 71.692 185.52 94.862 165.981Z" fill="#FFB3A4"/>
<path d="M96.4282 156.535C97.0865 155.209 100.488 150.371 101.894 149.853C103.3 149.334 103.719 152.416 101.645 155.638V156.505C103.289 154.587 104.789 152.551 106.133 150.411C107.789 147.588 109.285 146.421 110.193 147.239C111.1 148.057 108.038 155.049 107.131 156.126L107.789 156.485C107.789 156.485 113.644 149.164 114.701 148.506C115.968 147.668 116.905 149.703 115.828 151.608C115.828 151.608 117.484 150.531 118.142 151.518C118.8 152.506 113.923 160.804 113.923 160.804C113.923 160.804 119.08 155.109 120.416 156.525C121.074 157.234 118.92 160.405 115.918 163.996" stroke="#934735" stroke-width="0.75" stroke-linecap="round" stroke-linejoin="round"/>
<path d="M101.644 155.638C102.382 159.837 102.112 165.612 101.644 166.061" stroke="#934735" stroke-width="0.75" stroke-linecap="round" stroke-linejoin="round"/>
<path d="M105.954 155.039C107.31 155.857 111.19 161.762 111.19 161.762" stroke="#934735" stroke-width="0.75" stroke-linecap="round" stroke-linejoin="round"/>
<path d="M113.902 160.764L112.166 162.999" stroke="#934735" stroke-width="0.75" stroke-linecap="round" stroke-linejoin="round"/>
<path d="M110.052 160.076C109.983 159.976 115.808 151.568 115.808 151.568" stroke="#934735" stroke-width="0.75" stroke-linecap="round" stroke-linejoin="round"/>
<path d="M75.9107 179.596C81.7556 197.888 79.661 208.89 65.3879 202.098C61.5778 198.656 61.7872 183.147 61.7872 183.147L75.9107 179.596Z" fill="#E19080"/>
<path d="M42.0887 158.38C32.9324 159.378 30.1197 150.311 30.8678 145.992C31.6158 141.674 31.536 135.719 31.8652 128.408C32.5733 113.736 47.4848 112.579 49.6292 128.937C49.8294 130.528 49.9127 132.131 49.8786 133.734C49.8542 136.456 49.9874 139.177 50.2776 141.883C50.497 144.077 50.7863 146.232 51.1054 148.247C51.8336 152.765 51.255 157.353 42.0887 158.38Z" fill="#E19080"/>
<path d="M50.2944 141.883C41.3176 143.23 39.8913 138.153 40.2603 130.453L49.6461 128.937C49.8462 130.528 49.9295 132.131 49.8954 133.734C49.871 136.456 50.0042 139.177 50.2944 141.883Z" fill="#C77464"/>
<path d="M65.4185 187.844C65.4185 187.844 64.7203 200.212 65.1692 201.609C65.618 203.005 67.2638 210.935 60.6608 212.141C54.0579 213.348 15.5674 213.787 13.2235 212.141C11.9286 211.104 10.9716 209.706 10.4743 208.123C9.97692 206.54 9.96176 204.846 10.4307 203.254C11.5678 200.152 10.6801 195.395 10.0517 192.542C9.96192 192.143 9.80233 191.016 9.5829 189.35C8.68522 182.368 6.97963 165.841 6.94971 154.8C6.94971 149.513 7.30878 145.484 8.33612 144.337C11.3284 140.985 13.9317 140.187 16.5848 140.038C17.1833 140.038 17.7917 140.038 18.4001 140.038C21.7016 140.098 28.883 140.796 31.3666 140.866C32.4219 143.147 34.0546 145.114 36.103 146.571C38.1515 148.028 40.5448 148.926 43.0464 149.174C47.6744 149.743 50.168 147.08 51.6841 143.19C51.6841 143.19 57.3793 142.192 61.4987 143.309C64.9099 144.257 67.4832 146.631 69.2187 150.231C69.6041 151.023 69.9373 151.84 70.2161 152.675C71.9915 157.662 76.1109 179.655 75.8615 179.655C75.6122 179.655 65.4185 187.844 65.4185 187.844Z" fill="#FED81D"/>
<path d="M18.6184 164.944C23.7052 164.026 30.747 169.143 29.1711 174.758C27.5952 180.374 33.6096 182.738 38.4272 179.596C43.2447 176.454 48.541 188.453 48.541 188.453L33.0212 193.36L23.9646 193.919L17.9302 192.802L18.6184 164.944Z" fill="#FCC71F"/>
<path d="M65.4282 187.844C65.4282 187.844 66.685 165.143 66.1663 160.764" stroke="#83ADDF" stroke-width="0.75" stroke-linecap="round" stroke-linejoin="round"/>
<path d="M69.2672 150.172C67.7675 150.06 66.2674 150.382 64.9462 151.1C63.6249 151.819 62.5384 152.902 61.8165 154.221C55.0041 165.113 46.8053 177.002 34.168 163.956C32.0445 161.708 29.7502 159.627 27.3057 157.732C21.1416 153.074 14.9078 151.379 6.94834 154.8C4.54549 155.868 2.25927 157.182 0.125977 158.72C0.953836 148.057 5.05324 140.686 14.9576 140.008C15.4984 139.958 16.0427 139.958 16.5834 140.008C17.1819 140.008 17.7903 140.008 18.3987 140.008C21.7002 140.068 28.8816 140.766 31.3652 140.836C32.4206 143.117 34.0532 145.084 36.1017 146.541C38.1501 147.998 40.5435 148.896 43.045 149.144C47.673 149.713 50.1666 147.05 51.6827 143.16C51.6827 143.16 57.378 142.162 61.4973 143.28C64.9384 144.197 67.5018 146.561 69.2672 150.172Z" fill="#FFE05C"/>
<path d="M30.1384 139.679C31.5248 138.512 32.4923 140.198 33.37 141.435C34.2478 142.671 37.8285 147.489 42.8954 147.529C47.9623 147.569 50.1067 142.991 50.8748 141.993C51.6428 140.996 53.867 142.193 53.3085 144.377C52.7499 146.561 49.608 151.06 42.3368 151.06C34.0183 151.06 27.6249 141.794 30.1384 139.679Z" fill="white"/>
<path d="M104.022 164.11C107.543 166.239 112.309 167.582 115.093 164.896C117.877 162.21 118.942 152.728 111.998 153.678C111.998 153.678 102.302 148.568 99.6164 150.304C96.9305 152.04 104.022 164.11 104.022 164.11Z" fill="#B68649" stroke="#683F1D" stroke-linecap="round" stroke-linejoin="round"/>
<path d="M91.691 190.233C91.691 190.233 104.793 190.233 106.562 190.364C108.331 190.495 109.461 192.215 115.471 192.477C121.482 192.739 120.761 182.65 119.959 179.375C119.156 176.099 115.242 175.853 112.867 176.836C110.493 177.819 109.199 176.59 109.133 172.627C108.697 167.15 107.449 161.769 105.432 156.659C103.974 152.707 101.494 149.213 98.2463 146.532C94.9982 143.85 91.0975 142.078 86.9415 141.395C77.7045 140.216 66.7642 141.182 66.2401 155.529C65.7161 169.875 66.2401 172.185 68.0253 177.655C69.8105 183.125 73.4954 186.499 75.1332 188.89C77.2132 191.854 88.5465 193.787 91.691 190.233Z" fill="#B68649" stroke="#683F1D" stroke-linecap="round" stroke-linejoin="round"/>
<path d="M105.662 123.953C111.935 124.69 115.145 120.317 113.409 116.206C111.673 112.095 106.235 112.406 101.944 118.008L105.662 123.953Z" fill="#B68649" stroke="#683F1D" stroke-linecap="round" stroke-linejoin="round"/>
<path d="M86.0078 112.767L76.7211 116.665C76.7211 116.665 70.1696 106.985 77.7529 104.692C85.713 102.252 86.0078 112.767 86.0078 112.767Z" fill="#B68649" stroke="#683F1D" stroke-linecap="round" stroke-linejoin="round"/>
<path d="M105.285 132.076C107.299 125.525 107.643 115.158 94.8523 110.49C82.0613 105.823 68.5006 116.828 65.7164 128.784C62.9322 140.74 78.1798 151.09 93.411 149.502C108.642 147.913 110.165 138.218 105.285 132.076Z" fill="#B68649" stroke="#683F1D" stroke-linecap="round" stroke-linejoin="round"/>
<path d="M91.8687 126.164C92.0161 128.555 93.1299 130.897 95.2428 131.421C96.4712 131.783 97.7827 131.747 98.9892 131.317C100.196 130.888 101.235 130.087 101.958 129.03C99.0467 126.897 95.4666 125.88 91.8687 126.164Z" fill="#683F1D" stroke="#683F1D" stroke-linecap="round" stroke-linejoin="round"/>
<path d="M80.0118 138.168C80.1207 136.147 80.7204 134.182 81.7591 132.444C82.7978 130.706 84.2443 129.248 85.9733 128.194C87.7615 127.084 89.7765 126.39 91.8692 126.164C95.4668 125.88 99.0467 126.897 101.958 129.03C103.188 129.886 104.29 130.911 105.233 132.076" stroke="#683F1D" stroke-linecap="round" stroke-linejoin="round"/>
<path d="M102.765 124.69C102.765 125.085 102.648 125.471 102.428 125.8C102.209 126.128 101.897 126.384 101.532 126.536C101.166 126.687 100.765 126.727 100.377 126.649C99.9895 126.572 99.6334 126.382 99.354 126.103C99.0745 125.823 98.8842 125.467 98.8071 125.079C98.73 124.692 98.7696 124.29 98.9208 123.925C99.0721 123.56 99.3282 123.248 99.6568 123.028C99.9854 122.809 100.372 122.691 100.767 122.691C101.029 122.691 101.289 122.743 101.532 122.844C101.774 122.944 101.994 123.091 102.18 123.277C102.365 123.462 102.513 123.682 102.613 123.925C102.713 124.167 102.765 124.427 102.765 124.69Z" fill="#683F1D"/>
<path d="M91.8066 123.216C91.8066 123.612 91.689 123.999 91.4687 124.328C91.2484 124.657 90.9354 124.913 90.5693 125.063C90.2032 125.214 89.8006 125.253 89.4125 125.174C89.0245 125.096 88.6685 124.904 88.3897 124.623C88.1109 124.342 87.9219 123.984 87.8466 123.595C87.7714 123.207 87.8133 122.805 87.9671 122.44C88.1208 122.075 88.3795 121.764 88.7102 121.546C89.041 121.329 89.4289 121.214 89.8248 121.218C90.3519 121.222 90.856 121.434 91.2272 121.809C91.5984 122.183 91.8067 122.689 91.8066 123.216Z" fill="#683F1D"/>
<path d="M95.9775 131.273C94.9948 135.99 94.0613 140.773 94.0613 140.773" stroke="#683F1D" stroke-linecap="round" stroke-linejoin="round"/>
<path d="M100.015 138.758C99.2537 139.524 98.3285 140.106 97.309 140.461C96.2895 140.816 95.2026 140.934 94.1307 140.806C93.0589 140.678 92.0302 140.307 91.1228 139.723C90.2154 139.138 89.453 138.355 88.8936 137.431" stroke="#683F1D" stroke-linecap="round" stroke-linejoin="round"/>
<path d="M82.7316 175.985C85.4177 176.722 86.7935 175.444 88.5787 175.985C92.2312 177.115 94.5733 180.898 91.7562 190.234" fill="#B68649"/>
<path d="M82.7316 175.985C85.4177 176.722 86.7935 175.444 88.5787 175.985C92.2312 177.115 94.5733 180.898 91.7562 190.234" stroke="#683F1D" stroke-linecap="round" stroke-linejoin="round"/>
<path d="M75.5766 151.271C79.1144 150.353 83.0781 156.512 84.2901 158.412C84.2901 158.412 88.9908 159.689 87.9589 163.931C86.927 168.173 83.7987 168.747 80.8833 167.616" fill="#B68649"/>
<path d="M75.5766 151.271C79.1144 150.353 83.0781 156.512 84.2901 158.412C84.2901 158.412 88.9908 159.689 87.9589 163.931C86.927 168.173 83.7987 168.747 80.8833 167.616" stroke="#683F1D" stroke-linecap="round" stroke-linejoin="round"/>
<path d="M84.2896 158.411C82.8646 157.952 81.3414 160.262 81.3414 160.262L84.2896 158.411Z" fill="#F9F9F9"/>
<path d="M84.2896 158.411C82.8646 157.952 81.3414 160.262 81.3414 160.262" stroke="#683F1D" stroke-linecap="round" stroke-linejoin="round"/>
<path d="M90.7588 182.601C89.989 180.439 87.696 179.784 86.5822 183.043C85.9353 185.268 85.9353 187.631 86.5822 189.857" stroke="#683F1D" stroke-linecap="round" stroke-linejoin="round"/>
<path d="M113.854 156.642C111.544 155.79 110.201 161.556 111.118 164.078" stroke="#683F1D" stroke-linecap="round" stroke-linejoin="round"/>
<path d="M118.384 180.128C116.746 178.67 115.108 179.636 114.862 181.946C114.305 186.04 113.618 189.005 115.534 189.857" stroke="#683F1D" stroke-linecap="round" stroke-linejoin="round"/>
<path d="M25.2141 183.675C32.0863 201.439 26.3312 211.602 15.7286 207.613C7.09095 204.411 5.09611 193.01 3.83936 185.819L25.2141 183.675Z" fill="#E19080"/>
<path d="M28.0364 169.123C28.0611 174.363 27.7914 179.601 27.2284 184.812C24.255 185.852 21.2205 186.708 18.1419 187.375C15.3093 188.064 12.2671 188.762 9.62395 189.37C5.5844 190.268 2.48243 190.916 2.48243 190.916C1.08575 182.393 0.265992 173.786 0.0287687 165.153C-0.0368324 163.014 0.00977736 160.873 0.168407 158.739C0.996267 148.077 5.09566 140.706 15.0001 140.028C15.5408 139.977 16.0851 139.977 16.6259 140.028C23.2288 140.736 26.1512 148.695 27.3282 157.722C27.7957 161.504 28.0322 165.311 28.0364 169.123Z" fill="#FED81D"/>
<path d="M28.0376 169.122C28.0624 174.363 27.7927 179.601 27.2297 184.812C27.2297 184.812 21.9833 166.858 21.5444 165.442C21.5444 165.282 21.4547 165.123 21.4048 164.983C24.0532 165.491 26.4178 166.966 28.0376 169.122Z" fill="#FCC71F"/>
<path d="M27.1888 184.812C27.1888 184.812 21.9424 166.859 21.5035 165.442C21.5035 165.283 21.4138 165.123 21.3639 164.983C20.9686 163.745 20.2197 162.65 19.2095 161.832" stroke="#D6A91C" stroke-width="0.75" stroke-linecap="round" stroke-linejoin="round"/>
<path d="M27.3091 157.732C21.1451 153.074 14.9112 151.378 6.95176 154.8C4.54891 155.868 2.26269 157.182 0.129395 158.719C0.957254 148.057 5.05666 140.686 14.9611 140.008C15.5018 139.957 16.0461 139.957 16.5869 140.008C23.2097 140.746 26.1322 148.705 27.3091 157.732Z" fill="#FFE05C"/>
<path d="M29.5027 120.888C26.7897 113.906 24.1066 102.934 31.2083 97.568C40.1851 90.8154 47.167 98.4258 47.167 98.4258C47.167 98.4258 53.9894 111.981 43.287 119.003C32.5847 126.024 29.5027 120.888 29.5027 120.888Z" fill="#604730"/>
<path d="M49.6196 136.587C39.3163 137.963 31.8855 128.448 31.8855 128.448C22.5396 127.51 25.3524 116.05 32.7931 119.82C33.5811 120.209 35.0074 116.659 35.1071 113.995C35.2069 111.332 35.4064 110.834 34.2194 109.946C33.0325 109.058 31.5064 108.121 32.6435 105.807C33.7806 103.493 36.4437 102.246 37.9199 102.695C39.3961 103.143 43.8445 103.283 45.2709 101.558C45.6987 100.997 45.9959 100.348 46.1409 99.6574C46.2858 98.9672 46.2748 98.2533 46.1087 97.5679C46.1087 97.5679 51.784 101.318 55.9832 112.529C56.1627 113.018 56.3422 113.527 56.5018 113.985C57.3117 116.258 57.9355 118.593 58.367 120.967C59.7734 128.857 58.0478 135.43 49.6196 136.587Z" fill="#FFB3A4"/>
<path d="M43.3868 114.873C43.3868 115.113 43.4578 115.346 43.5909 115.545C43.7239 115.744 43.913 115.898 44.1341 115.989C44.3552 116.08 44.5984 116.104 44.8328 116.056C45.0672 116.009 45.2822 115.893 45.4506 115.723C45.6189 115.553 45.7331 115.337 45.7785 115.103C45.824 114.868 45.7986 114.625 45.7058 114.405C45.6129 114.184 45.4566 113.996 45.2569 113.865C45.0571 113.734 44.8228 113.665 44.5837 113.667C44.4256 113.667 44.2692 113.698 44.1233 113.759C43.9775 113.819 43.8451 113.908 43.7338 114.021C43.6225 114.133 43.5345 114.266 43.475 114.412C43.4154 114.559 43.3854 114.715 43.3868 114.873Z" fill="#4A3320"/>
<path d="M50.2788 112.469C50.2769 112.709 50.346 112.943 50.4774 113.143C50.6088 113.342 50.7966 113.499 51.0169 113.592C51.2373 113.684 51.4802 113.71 51.715 113.664C51.9498 113.619 52.1657 113.505 52.3355 113.336C52.5053 113.168 52.6213 112.953 52.6686 112.719C52.716 112.484 52.6927 112.241 52.6017 112.02C52.5106 111.799 52.3559 111.61 52.1573 111.477C51.9586 111.344 51.7248 111.273 51.4857 111.273C51.3277 111.271 51.171 111.301 51.0246 111.361C50.8783 111.42 50.7451 111.508 50.6329 111.62C50.5207 111.731 50.4317 111.863 50.3709 112.009C50.3101 112.155 50.2788 112.311 50.2788 112.469Z" fill="#4A3320"/>
<path d="M38.0097 111.652C38.658 113.417 43.8047 109.168 42.4183 107.313C41.0319 105.458 37.2317 109.557 38.0097 111.652Z" fill="#604730"/>
<path d="M46.637 105.458C46.0983 107.552 51.4146 107.343 51.4844 106.455C51.5542 105.567 47.2155 103.184 46.637 105.458Z" fill="#604730"/>
<path d="M30.8384 128.249C32.0891 128.333 33.3445 128.181 34.5388 127.8" stroke="#934735" stroke-width="0.75" stroke-linecap="round" stroke-linejoin="round"/>
<path d="M28.1553 123.332C28.4046 121.796 32.3046 120.968 33.5912 123.98" stroke="#934735" stroke-width="0.75" stroke-linecap="round" stroke-linejoin="round"/>
<path d="M33.0845 123.132C29.8729 121.955 29.0949 126.403 33.3439 125.655" stroke="#934735" stroke-width="0.75" stroke-linecap="round" stroke-linejoin="round"/>
<path d="M47.0363 111.272C46.5975 113.267 47.565 114.644 48.8816 114.873C50.6071 115.172 52.6418 116.01 51.3053 118.943" stroke="#934735" stroke-width="0.75" stroke-linecap="round" stroke-linejoin="round"/>
<path d="M44.3135 121.955C47.0265 122.872 51.4849 122.324 51.4849 122.324C51.4849 122.324 50.8466 126.483 47.8942 126.224C44.9418 125.964 44.3135 121.955 44.3135 121.955Z" fill="white" stroke="#934735" stroke-width="0.75" stroke-linecap="round" stroke-linejoin="round"/>
<path d="M43.8642 120.887C43.0463 122.593 40.5727 123.092 38.3385 122.014C36.1043 120.937 34.9672 118.693 35.7851 117.027C36.603 115.362 39.0766 114.833 41.3108 115.91C43.545 116.987 44.6821 119.192 43.8642 120.887Z" fill="#E39886"/>
<path d="M58.3677 120.948C56.8816 122.065 55.0463 122.254 53.8793 121.277C52.4331 120.08 52.5328 117.556 54.1187 115.651C54.741 114.881 55.5669 114.3 56.5025 113.976C57.3119 116.245 57.9357 118.577 58.3677 120.948Z" fill="#E39886"/>
<path d="M15.1309 207.404C24.4269 211.483 32.1669 207.663 43.4078 203.225C54.6487 198.786 67.5155 192.363 67.5155 192.363C67.5155 192.363 77.9784 187.087 81.5791 184.832C85.1798 182.578 85.3194 181.282 84.8606 180.743C84.4018 180.204 79.5144 182.119 78.5968 182.498C80.5772 180.567 82.4171 178.498 84.1026 176.304C85.6087 174.04 85.0202 172.484 82.5665 173.701C82.5665 173.701 84.711 171.028 83.2548 170.031C81.7985 169.033 72.1734 177.382 72.1734 177.382C72.1734 177.382 79.8935 170.34 78.517 168.126C77.1406 165.911 65.9794 176.105 65.9794 176.105C65.9794 176.105 67.5853 169.063 65.8597 168.535C64.1342 168.006 62.8675 170.938 61.4611 173.292C60.0547 175.646 57.7108 181.461 56.2646 182.07C54.8183 182.678 26.5813 185.331 18.0932 191.824C10.2136 197.899 9.49547 204.9 15.1309 207.404Z" fill="#FFB3A4"/>
<path d="M57.6709 197.05C63.3363 194.437 67.5154 192.343 67.5154 192.343C67.5154 192.343 77.9784 187.066 81.5791 184.812C85.1798 182.558 85.3194 181.261 84.8606 180.723C84.4018 180.184 79.5144 182.099 78.5968 182.478C80.5772 180.547 82.4171 178.477 84.1026 176.284C85.6087 174.02 85.0202 172.464 82.5665 173.681C82.5665 173.681 84.711 171.008 83.2547 170.01C81.7985 169.013 72.1734 177.361 72.1734 177.361C72.1734 177.361 79.8934 170.32 78.517 168.105C77.1406 165.891 65.9794 176.085 65.9794 176.085C65.9794 176.085 67.5853 169.043 65.8597 168.514C64.1342 167.986 62.8675 170.918 61.4611 173.272" stroke="#934735" stroke-width="0.75" stroke-linecap="round" stroke-linejoin="round"/>
<path d="M22.5908 191.854C24.3263 188.712 28.2163 187.415 29.6326 187.046" stroke="#934735" stroke-width="0.75" stroke-linecap="round" stroke-linejoin="round"/>
<path d="M75.4658 180.473C76.9819 179.147 82.5675 173.691 82.5675 173.691" stroke="#934735" stroke-width="0.75" stroke-linecap="round" stroke-linejoin="round"/>
<path d="M76.79 183.944L78.5954 182.478" stroke="#934735" stroke-width="0.75" stroke-linecap="round" stroke-linejoin="round"/>
<path d="M48.2138 100.975C47.226 101.99 45.9228 100.975 45.9228 100.975C46.0806 102.464 42.7333 103.719 40.3257 103.973C37.9181 104.226 38.9539 101.997 37.095 101.167C35.2362 100.337 32.6777 102.354 32.6777 102.354C32.6777 102.354 36.5806 104.995 36.7932 108.527C36.9408 110.581 36.328 112.617 35.0716 114.248L30.8052 115.153C29.2696 114.428 27.8595 113.462 26.6279 112.293C31.0041 110.605 29.4608 106.723 29.1521 103.877C28.72 99.8571 30.9904 96.5304 36.0113 98.3892C38.9058 99.4387 42.1845 97.3398 44.5304 95.1311H44.6333C44.9419 95.1596 45.2415 95.2505 45.514 95.3982C45.7865 95.5459 46.0262 95.7474 46.2186 95.9904C46.411 96.2335 46.552 96.513 46.6332 96.8122C46.7144 97.1113 46.7341 97.4238 46.691 97.7307C46.691 97.7307 49.2015 99.9462 48.2138 100.975Z" fill="#604730"/>
<path d="M223.852 112.494C223.476 112.519 223.1 112.519 222.724 112.494C216.927 111.976 213.536 105.653 212.701 100.8C211.866 95.6381 209.118 94.7611 207.455 93.1908C205.793 91.6205 203.571 89.2483 204.858 85.3141C206.144 81.38 208.332 73.7205 201.592 73.5702C198.176 73.4866 196.196 70.6634 195.085 67.8987C194.415 66.1661 193.966 64.356 193.749 62.5111C204.95 56.9983 210.287 60.1473 214.923 64.7831C219.559 69.4189 217.003 73.8375 219.475 79.8598C221.981 86.0325 231.896 86.7508 232.422 95.73C232.948 104.709 230.325 112.227 223.852 112.494Z" fill="#604730"/>
<path d="M224.196 107.416C223.845 109.138 223.353 110.828 222.726 112.469C216.929 111.951 213.538 105.628 212.702 100.775C211.867 95.6134 209.119 94.7364 207.457 93.1661C205.795 91.5958 203.573 89.2236 204.859 85.2894C206.145 81.3553 208.334 73.6958 201.593 73.5455C198.177 73.462 196.197 70.6387 195.086 67.874C206.338 62.7621 212.143 65.7357 213.087 70.1292C214.106 74.8235 206.555 80.921 213.087 86.7261C219.618 92.5313 227.587 91.6542 224.196 107.416Z" fill="#473526"/>
<path d="M190.588 128.214C181.4 128.715 176.589 122.651 176.898 118.709C177.057 116.771 177.424 111.918 177.825 106.313C178.184 101.368 178.577 95.8221 178.886 91.1278C178.936 90.3594 178.986 89.6077 179.028 88.8893C180.03 72.9439 195.558 68.2413 197.279 86.7427C197.838 92.7399 200.461 102.137 202.157 110.13C203.911 118.308 199.784 127.713 190.588 128.214Z" fill="#FEBD9D"/>
<path d="M177.792 106.313C178.151 101.368 178.544 95.822 178.853 91.1278L189.085 88.5217C191.524 97.1585 188.333 106.012 177.792 106.313Z" fill="#F4A789"/>
<path d="M245.148 125.566C245.065 128.674 244.814 131.914 244.455 135.189C243.545 143.541 241.949 152.203 240.855 159.462C240.02 165.05 239.46 169.828 239.744 173.06C240.204 178.364 240.705 185.589 241.139 192.355C241.832 203.138 242.367 212.986 242.367 212.986H179.721C179.721 212.986 154.162 175.274 150.336 158.317C148.357 149.555 147.939 142.213 148.666 136.057C149.196 130.952 150.872 126.032 153.569 121.666C158.263 114.298 169.439 109.604 177.792 107.09C177.508 112.035 176.389 119.352 186.754 118.325C197.12 117.297 201.355 109.537 200.403 102.287C214.886 99.5559 234.165 98.2361 240.087 104.601C240.913 105.502 241.618 106.507 242.183 107.591C243.182 109.531 243.9 111.604 244.313 113.747C245.04 117.642 245.32 121.608 245.148 125.566Z" fill="#FED81D"/>
<path d="M244.305 113.772C235.117 114.265 225.553 118.233 222.463 127.137C222.232 127.801 222.043 128.479 221.895 129.166C221.593 130.605 221.134 132.005 220.525 133.343C214.678 146.381 196.519 147.125 182.328 138.012C170.417 130.369 163.543 126.26 148.691 136.041C149.216 130.943 150.883 126.03 153.569 121.666C158.264 114.298 169.44 109.604 177.792 107.09C177.508 112.035 176.389 119.352 186.755 118.325C197.121 117.297 201.355 109.537 200.403 102.287C214.887 99.5559 234.165 98.2361 240.087 104.601C240.914 105.502 241.618 106.507 242.184 107.591C243.182 109.54 243.897 111.621 244.305 113.772Z" fill="#FFE05C"/>
<path d="M167.4 128.239L170.282 142.698" stroke="#F7AD2B" stroke-width="0.75" stroke-linecap="round" stroke-linejoin="round"/>
<path d="M239.743 173.06C240.202 178.364 240.703 185.589 241.138 192.355C237.02 189.072 230.68 182.783 233.512 176.911C237.579 168.474 235.182 163.688 229.694 159.687C224.207 155.686 223.764 152.521 228.124 139.499C232.484 126.477 244.454 135.18 244.454 135.18C243.543 143.533 241.948 152.195 240.854 159.453C240.01 165.05 239.459 169.827 239.743 173.06Z" fill="#FCC71F"/>
<path d="M289.928 181.229C289.928 190.3 283.546 197.767 275.344 198.77C274.745 198.844 274.143 198.88 273.539 198.878C264.485 198.878 257.151 190.993 257.151 181.262C257.151 171.531 264.485 163.638 273.539 163.638C276.937 163.644 280.238 164.765 282.936 166.829C285.133 168.527 286.907 170.711 288.12 173.209C289.333 175.707 289.951 178.452 289.928 181.229Z" fill="#FED81D"/>
<path d="M289.927 181.229C289.927 190.3 283.546 197.767 275.343 198.77C274.258 186.307 277.089 174.329 282.936 166.829C285.133 168.527 286.907 170.711 288.12 173.209C289.332 175.707 289.951 178.452 289.927 181.229Z" fill="#FCC71F"/>
<path d="M246.817 118.216C246.819 120.76 246.248 123.273 245.147 125.566C243.681 128.566 241.398 131.092 238.561 132.853C235.724 134.614 232.448 135.54 229.109 135.523C227.703 135.525 226.301 135.363 224.933 135.038C223.389 134.681 221.901 134.119 220.506 133.368C217.759 131.902 215.46 129.721 213.853 127.055C212.246 124.389 211.39 121.337 211.376 118.224C211.443 113.582 213.346 109.156 216.67 105.915C219.994 102.674 224.467 100.883 229.109 100.934C233.07 100.922 236.922 102.227 240.06 104.643C241.91 106.066 243.455 107.847 244.604 109.88C245.294 111.094 245.828 112.39 246.191 113.739C246.601 115.196 246.812 116.702 246.817 118.216Z" fill="#FED81D"/>
<path d="M247.953 113.764C247.368 113.764 246.775 113.722 246.174 113.722C245.572 113.722 244.904 113.722 244.269 113.772C235.081 114.265 225.517 118.232 222.427 127.136C222.196 127.801 222.007 128.479 221.859 129.166C221.557 130.604 221.098 132.005 220.489 133.343C217.742 131.877 215.443 129.696 213.836 127.03C212.229 124.364 211.373 121.312 211.359 118.199C211.432 113.558 213.341 109.136 216.668 105.9C219.994 102.664 224.468 100.878 229.109 100.934C233.069 100.922 236.921 102.227 240.059 104.643C241.91 106.066 243.455 107.847 244.603 109.88C245.497 110.798 246.633 112.127 247.953 113.764Z" fill="#FFE05C"/>
<path d="M278.022 189.724C272.66 190.066 265.309 186.8 256.213 176.91C250.817 171.063 245.555 165.217 240.844 159.462C233.961 151.109 228.24 142.873 224.974 135.038C223.876 132.503 223.037 129.864 222.468 127.161C221.198 121.553 221.965 115.676 224.631 110.581C227.054 106.029 234.546 101.752 242.172 107.616C243.051 108.293 243.87 109.045 244.62 109.863C245.455 110.798 246.633 112.126 247.961 113.764C253.958 121.056 264.023 134.529 272.61 147.175C280.678 159.119 287.427 170.362 288.213 175.073C289.298 181.463 285.673 189.239 278.022 189.724Z" fill="#FED81D"/>
<path d="M247.952 113.764C247.367 113.764 246.774 113.722 246.173 113.722C245.572 113.722 244.903 113.722 244.269 113.772C235.08 114.265 225.517 118.232 222.426 127.137C221.156 121.528 221.923 115.651 224.589 110.556C227.012 106.004 234.504 101.727 242.13 107.591C243.009 108.269 243.828 109.02 244.578 109.838C245.496 110.799 246.632 112.127 247.952 113.764Z" fill="#FFE05C"/>
<path d="M256.225 176.944C250.829 171.097 245.567 165.25 240.856 159.495C233.973 151.143 228.252 142.907 224.986 135.072C223.888 132.537 223.049 129.898 222.48 127.195" stroke="#F7AD2B" stroke-width="0.75" stroke-linecap="round" stroke-linejoin="round"/>
<path d="M278.023 189.723C279.579 188.26 280.936 186.597 282.057 184.779C288.23 175.106 265.878 159.921 272.619 147.191C280.687 159.136 287.436 170.378 288.222 175.089C289.299 181.462 285.674 189.239 278.023 189.723Z" fill="#FCC71F"/>
<path d="M200.661 81.7724L199.349 81.597L196.893 81.2796L193.06 80.7785L170.875 77.88C167.692 74.7895 166.506 73.9626 166.022 72.7849C165.8 72.1629 165.687 71.5074 165.688 70.847C165.529 68.0238 165.763 60.1221 175.352 57.2571C176.229 56.9963 177.121 56.7927 178.025 56.6474C182.233 56.0578 186.521 56.4495 190.554 57.7917C190.554 57.7917 191.698 55.8121 197.311 59.2868C202.924 62.7616 209.306 72.576 200.661 81.7724Z" fill="#604730"/>
<path d="M193.058 80.7784L170.873 77.88C167.691 74.7895 166.504 73.9626 166.02 72.7848C168.133 64.1564 173.228 59.6459 181.214 59.4204C190.911 59.1949 193.517 67.2302 194.294 73.2442C194.49 75.8183 194.066 78.4018 193.058 80.7784Z" fill="#473526"/>
<path d="M194.322 85.957C187.849 94.7859 178.703 99.3214 173.741 96.4397C170.475 94.5186 168.88 89.532 168.596 83.7937C168.501 81.844 168.546 79.8901 168.73 77.9467C168.83 76.8108 168.98 75.6831 169.164 74.5639C170.659 65.568 176.681 59.4203 186.989 61.8677C186.989 61.8677 184.065 69.0427 188.718 73.6117C193.37 78.1806 197.071 77.6377 197.071 77.6377C197.071 77.6377 200.311 77.1031 201.614 79.3082C204.63 84.4702 198.557 88.5213 194.322 85.957Z" fill="#FEBD9D"/>
<path d="M178.025 75.3407C178.024 75.5413 178.082 75.7379 178.192 75.9054C178.303 76.0728 178.46 76.2037 178.645 76.2812C178.83 76.3587 179.034 76.3795 179.231 76.3407C179.428 76.302 179.609 76.2056 179.751 76.0637C179.893 75.9219 179.989 75.741 180.028 75.5442C180.066 75.3474 180.046 75.1435 179.968 74.9584C179.891 74.7734 179.76 74.6157 179.592 74.5053C179.425 74.3948 179.228 74.3368 179.028 74.3384C178.763 74.3406 178.509 74.4469 178.321 74.6344C178.134 74.8219 178.028 75.0756 178.025 75.3407Z" fill="#683F1D"/>
<path d="M171.677 75.5912C171.675 75.7914 171.733 75.9877 171.843 76.155C171.953 76.3223 172.11 76.4531 172.295 76.5309C172.479 76.6087 172.683 76.6299 172.879 76.5918C173.076 76.5538 173.257 76.4582 173.399 76.3172C173.541 76.1762 173.638 75.9961 173.678 75.7998C173.718 75.6035 173.698 75.3999 173.622 75.2147C173.546 75.0296 173.416 74.8712 173.25 74.7598C173.083 74.6484 172.888 74.5889 172.687 74.5889C172.421 74.5889 172.165 74.6942 171.976 74.8819C171.786 75.0697 171.679 75.3246 171.677 75.5912Z" fill="#683F1D"/>
<path d="M195.079 79.3003C195.427 78.7485 195.912 78.2971 196.488 77.9909C197.064 77.6847 197.71 77.5343 198.362 77.5545" stroke="#EF8A66" stroke-width="0.75" stroke-linecap="round" stroke-linejoin="round"/>
<path d="M195.675 82.5578C196.302 80.219 198.941 78.941 200.687 80.812" stroke="#EF8A66" stroke-width="0.75" stroke-linecap="round" stroke-linejoin="round"/>
<path d="M196.084 81.547C198.757 79.676 200.503 84.6625 195.825 83.869" stroke="#EF8A66" stroke-width="0.75" stroke-linecap="round" stroke-linejoin="round"/>
<path d="M175.879 85.7317C176.317 85.8229 176.769 85.8235 177.207 85.7334C177.645 85.6432 178.06 85.4643 178.426 85.2076C178.792 84.9509 179.102 84.6218 179.337 84.2408C179.571 83.8597 179.724 83.4347 179.788 82.9919" stroke="#EF8A66" stroke-width="0.75" stroke-linecap="round" stroke-linejoin="round"/>
<path d="M173.253 82.2238C171.499 81.3217 171.482 79.8599 173.136 78.9411C174.79 78.0223 176.201 76.7945 175.876 73.5286" stroke="#EF8A66" stroke-width="0.75" stroke-linecap="round" stroke-linejoin="round"/>
<path d="M168.543 70.9724C168.902 72.0666 175.083 72.3004 174.782 69.5691C174.557 67.5227 168.092 69.5942 168.543 70.9724Z" fill="#604730"/>
<path d="M177.834 70.0284C177.266 71.866 184.007 74.2966 184.608 72.9184C185.135 71.6989 178.887 66.5871 177.834 70.0284Z" fill="#604730"/>
<path d="M180.213 81.1799C180.865 82.8505 183.605 83.4185 186.328 82.3744C189.051 81.3303 190.738 79.1168 190.095 77.4212C189.451 75.7256 186.712 75.1827 183.98 76.2184C181.249 77.2542 179.57 79.476 180.213 81.1799Z" fill="#F4AF90"/>
<path d="M170.776 82.4157C170.554 82.8073 170.239 83.1379 169.859 83.3784C169.479 83.6188 169.045 83.7616 168.596 83.7939C168.501 81.8443 168.546 79.8903 168.73 77.947C170.534 79.2166 171.428 81.0626 170.776 82.4157Z" fill="#F4AF90"/>
<path d="M347.042 90.8566C346.385 90.504 345.711 90.1852 345.021 89.9015C343.324 89.1806 341.549 88.6579 339.732 88.3439C333.237 87.1905 326.551 88.7113 319.543 91.7602C313.18 94.5226 306.553 98.5487 299.567 102.979C299.431 101.884 299.362 100.783 299.361 99.6801C299.361 85.6697 310.381 74.3042 323.965 74.3042C329.048 74.3518 333.992 75.9671 338.122 78.9297C342.252 81.8922 345.367 86.0575 347.042 90.8566Z" fill="#FFE05C"/>
<path d="M340.047 96.7342C339.658 100.768 337.99 110.127 335.683 122C335.309 123.947 334.949 125.96 334.5 128.024C328.814 156.765 320.358 196.151 316.729 212.983H217.451L224.842 170.415C224.842 170.415 200.076 164.846 195.058 155.472C188.585 143.379 192.119 134.115 199.613 121.434C205.05 112.207 215.908 91.2314 224.364 77.9998C227.538 73.026 230.374 69.1836 232.446 67.3984C243.4 58.1781 254.707 61.7707 265.088 64.4596C265.088 64.4596 265.088 66.6637 265.205 70.2416C265.271 73.1436 265.367 76.9565 265.499 81.2618C265.727 88.8363 266.072 97.9537 266.564 106.358C266.653 107.828 266.741 109.297 266.836 110.767C267.571 121.397 268.511 130.118 269.819 131.837C270.15 132.271 270.649 132.153 271.289 131.58C273.147 129.876 276.181 124.189 279.561 116.923C280.582 114.719 281.625 112.42 282.683 110.025C288.429 96.9766 294.438 81.6585 297.208 74.5688C298.082 72.3207 298.626 70.8954 298.721 70.6383C298.72 70.6236 298.72 70.6089 298.721 70.5942L300.735 70.866L305.069 71.4611C308.838 71.9754 313.996 72.6954 319.763 73.5403C321.232 73.7533 322.606 74.0031 323.972 74.3264C330.474 75.8398 336.029 78.7345 338.629 84.7882C339.122 85.9392 339.494 87.1383 339.739 88.3661C340.26 91.1243 340.364 93.9451 340.047 96.7342Z" fill="#FED81D"/>
<path d="M339.732 88.3733C333.237 87.2198 326.551 88.7406 319.543 91.7895C313.18 94.5519 306.553 98.578 299.567 103.008L297.363 104.411C292.051 107.798 287.143 109.517 282.669 110.032C290.236 92.8548 298.266 71.7548 298.714 70.6454C298.713 70.6307 298.713 70.616 298.714 70.6013L305.062 71.4682C308.831 71.9825 313.988 72.7025 319.756 73.5474C321.225 73.7605 322.599 74.0103 323.965 74.3335C330.467 75.847 336.021 78.7416 338.622 84.7954C339.115 85.9463 339.487 87.1454 339.732 88.3733Z" fill="#FFE05C"/>
<path d="M224.842 170.445C234.592 173.045 254.604 177.755 254.604 177.755" stroke="#886F20" stroke-width="0.75" stroke-linecap="round" stroke-linejoin="round"/>
<path d="M236.31 102.208L231.41 135.672C224.474 132.337 221.403 131.404 218.391 131.823C217.914 125.247 232.703 131.308 229.713 118.04C227.891 109.958 231.549 104.081 236.31 102.208Z" fill="#FCC71F"/>
<path d="M231.411 135.672L236.311 102.207L237.112 96.7266" stroke="#886F20" stroke-width="0.75" stroke-linecap="round" stroke-linejoin="round"/>
<path d="M214.763 132.822C221.441 130.382 223.109 131.352 245.781 142.923" stroke="#886F20" stroke-width="0.75" stroke-linecap="round" stroke-linejoin="round"/>
<path d="M265.089 64.4887C265.089 64.4887 265.449 87.2638 266.559 106.366C258.852 101.715 253.768 93.876 251.652 89.0344C248.522 81.9007 242.586 73.1212 224.351 78.0142C227.525 73.0404 230.361 69.198 232.433 67.4128C243.401 58.2072 254.708 61.7998 265.089 64.4887Z" fill="#FFE05C"/>
<path d="M304.608 92.6195C304.005 93.4571 290.979 101.223 291.222 102.303C291.464 103.383 293.61 107.798 293.61 108.636C293.61 109.165 285.602 119.134 279.122 125.798C275.382 129.662 272.15 132.41 271.283 131.587C269.292 129.692 286.953 84.0605 292.64 69.5505L298.73 70.6011L305.078 71.468C304.534 81.9446 305.137 91.8848 304.608 92.6195Z" fill="#FCC71F"/>
<path d="M298.729 70.6015C298.727 70.6161 298.727 70.6309 298.729 70.6455C298.354 72.1149 289.097 108.166 279.135 125.798C276.02 131.323 272.838 135.04 269.833 135.349C257.043 136.561 265.102 64.5183 265.102 64.5183C269.848 65.5836 284.321 68.133 292.653 69.5803L298.729 70.6015Z" fill="white"/>
<path d="M296.327 67.4277C294.924 71.6081 282.229 80.7401 274.441 76.3394C269.952 73.7974 269.129 69.1248 270.305 61.4033C270.87 57.6197 271.928 53.1015 273.243 47.7456C273.912 45.064 274.654 42.1767 275.448 39.069C277.336 31.59 281.736 26.9174 289.744 28.306C297.752 29.6945 297.319 37.5042 297.091 45.9383C296.863 54.3724 297.73 63.2547 296.327 67.4277Z" fill="#FEBD9D"/>
<path d="M286.107 46.4082C285.505 54.2472 282.052 62.7696 270.304 61.403C270.87 57.6194 271.928 53.1012 273.243 47.7453L286.107 46.4082Z" fill="#F4A789"/>
<path d="M271.282 74.767C271.612 82.4076 271.693 84.7953 272.435 85.1994C273.177 85.6035 276.542 86.5145 277.446 85.9341C278.349 85.3537 283.514 76.8388 283.514 76.8388C283.514 76.8388 277.365 72.629 271.282 74.767Z" fill="#683F1D"/>
<path d="M276.96 82.3122C278.025 95.5732 280.273 127.128 280.596 129.582C280.92 132.035 270.862 142.416 269.848 141.131C268.834 139.845 263.699 130.375 263.699 127.569C263.699 124.762 273 81.7759 273 81.7759L276.96 82.3122Z" fill="#683F1D"/>
<path d="M276.777 73.2612C282.405 72.6808 295.328 64.6213 297.01 63.534C298.692 62.4467 300.933 69.8963 300.742 71.3657C300.551 72.835 284.168 83.6789 284.168 83.6789C284.168 83.6789 280.098 75.4432 276.49 75.3477C272.883 75.2522 267.483 83.6789 267.483 83.6789C260.636 77.515 265.191 66.9062 269.878 65.2017C269.878 65.2017 274.499 73.4963 276.777 73.2612Z" fill="#FED81D"/>
<path d="M262.516 184.212L257.491 213.012" stroke="#886F20" stroke-width="0.75" stroke-linecap="round" stroke-linejoin="round"/>
<path d="M304.212 16.4028C303.299 17.7664 302.056 18.8765 300.597 19.6294C299.139 20.3822 297.514 20.7533 295.874 20.708C289.996 20.6125 284.354 15.9546 284.354 15.9546C284.354 15.9546 279.211 10.7384 279.769 6.1099C279.941 4.78236 280.598 3.56532 281.613 2.69364C286.022 -1.27363 292.898 2.42181 295.433 6.66827C297.967 10.9147 298.732 10.8853 301.641 10.9221C304.168 10.9515 305.278 13.8314 304.212 16.4028Z" fill="#604730"/>
<path d="M295.874 20.708C289.996 20.6125 284.354 15.9547 284.354 15.9547C284.354 15.9547 279.211 10.7384 279.769 6.10993C285.537 4.74342 292.553 6.35973 296.968 10.856C300.487 14.4412 298.261 18.2248 295.874 20.708Z" fill="#473526"/>
<path d="M287.667 12.3913C284.155 7.87302 284.772 2.71556 288.497 1.37109" stroke="#896442" stroke-width="0.75" stroke-linecap="round" stroke-linejoin="round"/>
<path d="M292.346 15.0437C288.834 10.5327 289.451 5.3679 293.176 4.02344" stroke="#896442" stroke-width="0.75" stroke-linecap="round" stroke-linejoin="round"/>
<path d="M300.333 26.0123C299.422 28.0312 298.392 29.9938 297.247 31.8898C295.692 34.5411 293.907 37.0511 291.914 39.3909C288.24 43.6373 283.45 47.3622 277.874 47.8397C264.488 48.9858 265.112 39.5305 265.539 36.6652C265.539 36.5991 265.539 36.5403 265.539 36.4815C265.539 36.4228 268.441 30.5086 271.666 24.6238C273.282 21.5902 275.063 18.6471 277 15.8076C281.297 9.81261 287.226 8.57836 293.089 11.0542C298.952 13.5301 299.613 17.086 300.333 26.0123Z" fill="#FEBD9D"/>
<path d="M297.248 31.9409C295.69 34.5745 293.905 37.0672 291.914 39.3906H291.532C290.421 39.3924 289.331 39.0831 288.387 38.4978C287.443 37.9125 286.681 37.0745 286.188 36.0788C285.696 35.083 285.492 33.9692 285.599 32.8634C285.707 31.7576 286.122 30.704 286.797 29.8219C287.473 28.9398 288.382 28.2643 289.421 27.8721C290.46 27.4798 291.589 27.3863 292.679 27.6023C293.769 27.8182 294.776 28.3349 295.588 29.0939C296.399 29.8529 296.982 30.8238 297.27 31.8969L297.248 31.9409Z" fill="#FEBD9D"/>
<path d="M273.738 29.6343C273.738 31.5211 272.989 33.3308 271.656 34.6657C270.322 36.0005 268.513 36.7514 266.626 36.7534C266.255 36.7538 265.884 36.7243 265.517 36.6652C265.517 36.5991 265.517 36.5403 265.517 36.4815C265.517 36.4228 268.419 30.5086 271.644 24.6238C272.979 25.9503 273.732 27.7526 273.738 29.6343Z" fill="#FEBD9D"/>
<path d="M302.075 32.301L300.069 34.1451C296.793 37.2307 296.087 37.9948 296.087 37.9948C294.258 33.4104 293.832 25.7109 297.292 20.0319C300.753 14.3528 304.867 14.1544 307.034 15.9103C307.249 16.0828 307.422 16.3013 307.541 16.5495C309.106 19.4515 306.983 27.746 302.075 32.301Z" fill="#604730"/>
<path d="M307.541 16.5719C303.5 17.6886 300.091 24.3081 300.069 34.1675C296.793 37.2532 296.087 38.0173 296.087 38.0173C294.258 33.4328 293.832 25.7334 297.292 20.0543C300.753 14.3752 304.867 14.1769 307.034 15.9328C307.249 16.1053 307.422 16.3237 307.541 16.5719Z" fill="#473526"/>
<path d="M293.493 40.0226C295.918 43.3948 303.654 41.492 304.153 36.5476C304.653 31.6032 300.267 28.9289 296.38 31.155C292.494 33.3811 292.766 39.0161 293.493 40.0226Z" fill="#FEBD9D"/>
<path d="M301.375 15.7783C302.11 19.7383 305.321 22.9341 307.341 23.4778" stroke="#896442" stroke-width="0.75" stroke-linecap="round" stroke-linejoin="round"/>
<path d="M297.989 19.0034C298.724 22.5299 301.266 27.1951 306.181 26.8645" stroke="#896442" stroke-width="0.75" stroke-linecap="round" stroke-linejoin="round"/>
<path d="M277.145 21.2075C277.145 21.4124 277.206 21.6127 277.32 21.7831C277.433 21.9534 277.595 22.0862 277.785 22.1646C277.974 22.243 278.182 22.2635 278.383 22.2235C278.584 22.1836 278.769 22.0849 278.913 21.94C279.058 21.7952 279.157 21.6106 279.197 21.4096C279.237 21.2087 279.216 21.0004 279.138 20.8111C279.06 20.6218 278.927 20.46 278.756 20.3462C278.586 20.2324 278.386 20.1716 278.181 20.1716C277.906 20.1716 277.643 20.2808 277.448 20.475C277.254 20.6693 277.145 20.9328 277.145 21.2075Z" fill="#683F1D"/>
<path d="M285.074 25.0132C285.646 25.0132 286.11 24.5494 286.11 23.9773C286.11 23.4052 285.646 22.9414 285.074 22.9414C284.502 22.9414 284.038 23.4052 284.038 23.9773C284.038 24.5494 284.502 25.0132 285.074 25.0132Z" fill="#683F1D"/>
<path d="M296.968 32.933C297.041 34.0644 293.875 38.1933 293.603 39.479C292.655 44.0193 292.604 46.2821 287.549 49.6396C282.01 53.313 271.386 56.6117 266.023 52.3653C263.944 50.7269 262.791 47.5678 262.791 43.8724C262.846 41.0079 263.472 38.1833 264.631 35.5634C265.79 32.9434 267.46 30.5807 269.542 28.613C268.886 31.019 268.081 33.3818 267.133 35.688C268.203 34.2419 269.358 32.8607 270.593 31.5518C272.051 30.8683 273.658 30.5626 275.265 30.6628C276.184 30.9126 281.569 33.146 281.782 34.1672C281.995 35.1884 281.143 38.7002 282.274 38.95C283.406 39.1998 288.365 38.6635 289.621 37.8553C290.877 37.0472 294.264 31.7281 294.58 30.9126C294.779 30.4057 295.616 30.8685 296.241 31.5665C296.619 31.9356 296.873 32.4131 296.968 32.933Z" fill="#604730"/>
<path d="M301.118 36.0482C299.862 33.1095 296.644 33.1976 294.888 35.5486" stroke="#934735" stroke-width="0.75" stroke-linecap="round" stroke-linejoin="round"/>
<path d="M295.734 34.6743C299.202 33.8147 300.73 38.9428 296.101 38.9354" stroke="#934735" stroke-width="0.75" stroke-linecap="round" stroke-linejoin="round"/>
<path d="M276.206 15.6018C275.949 17.0712 282.73 18.3275 282.818 16.1308C282.906 13.9341 276.485 14.0369 276.206 15.6018Z" fill="#604730"/>
<path d="M292.912 18.6433C292.861 20.1127 285.969 19.9952 286.3 17.8205C286.631 15.6458 292.971 17.0638 292.912 18.6433Z" fill="#604730"/>
<path d="M276.067 34.5787C280.269 35.2546 282.128 34.5787 283.223 32.8008" stroke="#934735" stroke-width="0.75" stroke-linecap="round" stroke-linejoin="round"/>
<path d="M275.089 28.1723C276.485 25.3291 278.337 24.3006 280.166 24.0949C281.032 23.9745 281.838 23.5825 282.468 22.9753C283.098 22.3681 283.519 21.5768 283.67 20.7153" stroke="#934735" stroke-width="0.75" stroke-linecap="round" stroke-linejoin="round"/>
<path d="M296.968 32.9329C297.041 34.0643 293.875 38.1932 293.603 39.4789C292.655 44.0193 292.604 46.2821 287.549 49.6396C282.01 53.313 271.386 56.6117 266.023 52.3652C263.944 50.7269 262.791 47.5677 262.791 43.8723C268.668 48.9122 277.286 49.4485 282.575 47.9351C290.04 45.7898 294.602 35.8643 296.255 31.5664C296.628 31.9375 296.877 32.4148 296.968 32.9329Z" fill="#473526"/>
<path d="M263.716 38.0171C271.481 44.6292 282.178 39.3983 282.818 38.9354" stroke="#896442" stroke-width="0.75" stroke-linecap="round" stroke-linejoin="round"/>
<path d="M262.835 45.0479C269.301 48.4421 279.52 49.3825 287.168 38.6047" stroke="#896442" stroke-width="0.75" stroke-linecap="round" stroke-linejoin="round"/>
<path d="M270.873 54.2534C272.467 51.9612 276.655 50.9621 281.048 49.7425C289.6 47.3548 290.915 43.8136 291.745 35.4309" stroke="#896442" stroke-width="0.75" stroke-linecap="round" stroke-linejoin="round"/>
<path d="M296.74 171.803C296.737 173.372 296.391 174.922 295.726 176.343C294.881 178.126 293.672 179.713 292.177 181.001C288.225 184.513 282.068 186.768 275.147 186.768C271.262 186.799 267.41 186.049 263.819 184.564C260.438 183.23 257.525 180.93 255.443 177.952C254.224 176.134 253.565 173.999 253.548 171.81C253.548 171.181 253.607 170.554 253.724 169.937C254.613 164.963 259.029 160.746 265.193 158.527C268.389 157.395 271.757 156.824 275.147 156.837C279.577 156.804 283.953 157.811 287.924 159.776C289.631 160.626 291.205 161.72 292.596 163.023C295.204 165.462 296.74 168.504 296.74 171.803Z" fill="#A7CAF0"/>
<path d="M295.726 176.343C294.881 178.125 293.672 179.712 292.177 181C288.225 184.512 282.068 186.768 275.148 186.768C271.262 186.798 267.41 186.049 263.819 184.564C260.438 183.23 257.525 180.93 255.443 177.951C270.857 181.97 287.505 178.583 295.726 176.343Z" fill="#FCC71F"/>
<path d="M344.708 111.588C341.388 117.024 330.125 132.1 319.039 146.492C309.686 158.622 300.459 170.259 296.227 175.204C295.1 176.509 293.791 177.645 292.34 178.576C289.733 180.228 286.82 181.339 283.775 181.844C280.729 182.348 277.614 182.237 274.613 181.515C270.322 180.435 266.605 177.973 264.577 174.072C263.698 172.361 263.164 170.494 263.005 168.577C262.681 165.08 263.556 160.826 265.356 156.087C268.757 147.168 275.435 136.582 283.465 126.223C284.45 124.952 285.464 123.681 286.485 122.417C288.057 120.458 289.669 118.538 291.319 116.657C291.892 115.988 292.465 115.335 293.053 114.673C293.509 114.159 293.964 113.645 294.427 113.138L296.006 111.397L296.095 111.301L297.704 109.575C298.798 108.407 299.908 107.253 301.002 106.129L302.472 104.66C303.008 104.116 303.552 103.572 304.095 103.043C304.118 103.017 304.143 102.993 304.169 102.97C305.315 101.839 306.459 100.741 307.6 99.6785L307.754 99.539C311.62 95.8897 315.684 92.456 319.928 89.2534C324.409 85.9327 328.457 83.5303 331.734 82.3768C337.259 80.4373 342.313 82.7882 345.406 87.3947C349.381 93.206 350.152 102.683 344.708 111.588Z" fill="#FED81D"/>
<path d="M331.085 132.865C327.28 137.941 323.07 143.481 318.875 148.917C309.523 161.047 300.295 172.684 296.063 177.629C294.937 178.934 293.628 180.069 292.177 181.001" stroke="#886F20" stroke-width="0.75" stroke-linecap="round" stroke-linejoin="round"/>
<path d="M265.191 158.519C268.593 149.6 275.271 139.014 283.301 128.655C290.661 119.185 298.742 110.298 307.472 102.074" stroke="#886F20" stroke-width="0.75" stroke-linecap="round" stroke-linejoin="round"/>
<path d="M318.508 99.576C314.644 97.372 310.838 98.1948 303.939 105.453" stroke="#886F20" stroke-width="0.75" stroke-linecap="round" stroke-linejoin="round"/>
<path d="M345.02 89.9306C343.322 89.2097 341.547 88.687 339.73 88.373C333.235 87.2196 326.55 88.7404 319.541 91.7893C324.023 88.4685 328.071 86.0662 331.347 84.9127C336.872 82.9731 341.927 85.3241 345.02 89.9306Z" fill="#FFE05C"/>
<path d="M318.875 148.917C309.522 161.047 300.294 172.684 296.063 177.629C294.936 178.934 293.627 180.069 292.176 181.001C289.568 182.652 286.656 183.764 283.61 184.268C280.565 184.773 277.45 184.661 274.448 183.939C270.158 182.86 266.44 180.398 264.413 176.497C271.304 179.179 278.151 179.186 283.044 176.718C285.769 175.397 287.911 173.119 289.061 170.318C290.082 167.797 291.262 165.343 292.595 162.972C300.559 148.954 311.447 143.841 318.875 148.917Z" fill="#FCC71F"/>
<path d="M240.164 88.7614C239.812 86.7851 246.446 84.6766 251.603 84.0889L252.573 92.8095C252.573 92.8095 241.384 95.6233 240.164 88.7614Z" fill="#FCC71F"/>
<path d="M250.53 83.5379C247.849 73.5242 247.783 57.3171 248.701 55.0249C249.619 52.7327 251.471 53.5923 252.573 53.6584C253.675 53.7245 254.189 50.7785 257.914 50.7785C257.914 50.7785 258.12 47.061 260.698 46.6348C260.698 46.6348 259.714 41.2202 264.056 42.0872C265.04 42.2855 264.056 48.2952 266.554 56.7808C266.693 57.2583 271.954 53.4894 273.166 52.6298C275.113 51.2266 278.882 50.7638 276.428 54.8853C274.958 57.3906 272.512 61.3505 270.808 63.8337C267.421 68.9084 265.666 74.8961 265.775 80.9959L250.53 83.5379Z" fill="#FEBD9D"/>
<path d="M248.194 59.9473C248.157 58.2918 248.327 56.6382 248.701 55.0249C249.612 52.7401 251.471 53.5923 252.573 53.6584C253.675 53.7245 254.189 50.7785 257.914 50.7785C257.914 50.7785 258.119 47.061 260.698 46.6348C260.698 46.6348 259.714 41.2202 264.056 42.0872C265.04 42.2855 264.056 48.2952 266.554 56.7808C266.693 57.2583 271.953 53.4894 273.166 52.6298C275.113 51.2266 278.881 50.7638 276.428 54.8853C275.693 56.1343 274.701 57.7506 273.695 59.3669" stroke="#934735" stroke-width="0.75" stroke-linecap="round" stroke-linejoin="round"/>
<path d="M257.913 50.7786C257.898 51.469 257.94 52.1595 258.038 52.843" stroke="#934735" stroke-width="0.75" stroke-linecap="round" stroke-linejoin="round"/>
<path d="M260.697 46.6348C261.013 48.4494 261.476 50.1319 261.476 50.1319" stroke="#934735" stroke-width="0.75" stroke-linecap="round" stroke-linejoin="round"/>
<path d="M245.813 79.4016L246.982 95.8584C246.982 95.8584 268.383 92.185 268.06 91.7075C267.736 91.2299 267.178 77.7485 267.178 77.7485L245.813 79.4016Z" fill="white"/>
<path d="M287.806 159.776C287.806 160.202 287.784 160.628 287.74 161.054C287.74 161.378 287.696 161.701 287.667 162.024C287.67 162.088 287.67 162.151 287.667 162.215C287.667 162.582 287.593 162.95 287.549 163.302C287.454 164.125 287.329 164.941 287.175 165.742C286.506 169.659 285.068 173.404 282.943 176.762C280.917 180.021 277.907 182.55 274.347 183.984C270.978 185.219 267.322 185.444 263.827 184.63H263.716C256.678 183.109 252.476 175.27 249.89 166.307C247.531 158.116 246.517 148.983 245.937 142.864C244.703 130.007 240.06 88.8351 240.06 88.8351C243.344 90.4808 272.731 83.6189 272.731 83.6189C272.731 83.6189 278.77 107.569 283.207 128.736C285.588 140.086 287.513 150.644 287.792 156.272C287.829 157.381 287.843 158.564 287.806 159.776Z" fill="#FED81D"/>
<path d="M249.876 166.226C247.518 158.035 246.504 148.902 245.923 142.783C244.689 129.926 240.046 88.7542 240.046 88.7542" stroke="#886F20" stroke-width="0.75" stroke-linecap="round" stroke-linejoin="round"/>
<path d="M272.709 83.5378C272.709 83.5378 278.749 107.488 283.186 128.655C285.566 140.005 287.491 150.563 287.77 156.19C287.829 157.381 287.844 158.563 287.77 159.739C287.699 161.886 287.454 164.024 287.036 166.131" stroke="#886F20" stroke-width="0.75" stroke-linecap="round" stroke-linejoin="round"/>
<path d="M282.93 176.674C280.905 179.933 277.894 182.462 274.334 183.895C270.965 185.131 267.309 185.356 263.814 184.542H263.704C256.665 183.021 252.463 175.182 249.877 166.219C251.036 167.527 252.283 168.754 253.609 169.892C256.768 172.677 260.384 174.894 264.299 176.446C271.19 179.164 278.037 179.171 282.93 176.674Z" fill="#FCC71F"/>
</svg>
