<svg width="336" height="147" viewBox="0 0 336 147" fill="none" xmlns="http://www.w3.org/2000/svg">
<path d="M313 81.6678L313.996 85.3838L335.149 79.716L334.153 76L313 81.6678Z" fill="#AA0BF0"/>
<path d="M305.205 2.7203L302.484 0L287 15.4848L289.72 18.2051L305.205 2.7203Z" fill="#39CCEC"/>
<path d="M0.000109834 89.4386L0.0771484 93.2849L21.9716 92.8464L21.8945 89.0001L0.000109834 89.4386Z" fill="#AA0BF0"/>
<path d="M26.0003 140.949L27.9238 144.281L46.8888 133.332L44.9652 130L26.0003 140.949Z" fill="#39CCEC"/>
<path d="M23.0221 8.00036L18 13.0225L32.857 27.8795L37.8791 22.8574L23.0221 8.00036Z" fill="#22DA4A"/>
<path d="M298.262 126.575L293.24 131.597L308.097 146.454L313.119 141.432L298.262 126.575Z" fill="#22DA4A"/>
</svg>
