<svg width="1320" height="2911" viewBox="0 0 1320 2911" fill="none" xmlns="http://www.w3.org/2000/svg">
<path d="M58 161C62.9706 161 67 157.194 67 152.5C67 147.806 62.9706 144 58 144C53.0294 144 49 147.806 49 152.5C49 157.194 53.0294 161 58 161Z" fill="#F10E0E"/>
<path d="M960 2574C964.971 2574 969 2570.19 969 2565.5C969 2560.81 964.971 2557 960 2557C955.029 2557 951 2560.81 951 2565.5C951 2570.19 955.029 2574 960 2574Z" fill="#F10E0E"/>
<path d="M58 2298C62.9706 2298 67 2294.19 67 2289.5C67 2284.81 62.9706 2281 58 2281C53.0294 2281 49 2284.81 49 2289.5C49 2294.19 53.0294 2298 58 2298Z" fill="#F10E0E"/>
<path d="M1302 2911C1306.97 2911 1311 2907.19 1311 2902.5C1311 2897.81 1306.97 2894 1302 2894C1297.03 2894 1293 2897.81 1293 2902.5C1293 2907.19 1297.03 2911 1302 2911Z" fill="#F10E0E"/>
<path d="M1278 1182C1282.97 1182 1287 1178.19 1287 1173.5C1287 1168.81 1282.97 1165 1278 1165C1273.03 1165 1269 1168.81 1269 1173.5C1269 1178.19 1273.03 1182 1278 1182Z" fill="#F10E0E"/>
<path d="M537 1544C541.971 1544 546 1540.19 546 1535.5C546 1530.81 541.971 1527 537 1527C532.029 1527 528 1530.81 528 1535.5C528 1540.19 532.029 1544 537 1544Z" fill="#F10E0E"/>
<path d="M208.279 15.2462C223.887 5.89133 240.855 10.703 248.818 24.495C257.004 38.6736 252.612 55.6454 236.43 64.6444" fill="#FF6B00"/>
<path d="M1258 326L1246 346.785L1307.49 382.285L1319.49 361.5L1258 326Z" fill="#22DA4A"/>
<path d="M924.192 81L915 90.1924L967.326 142.518L976.518 133.326L924.192 81Z" fill="#AA0BF0"/>
<path d="M6 2118.01L6 2151.8L36.9914 2152C37.3648 2131.6 25.603 2117.61 6 2118.01Z" fill="#FFE500"/>
<path d="M1200 2607.01L1200 2640.8L1230.99 2641C1231.36 2620.6 1219.6 2606.61 1200 2607.01Z" fill="#FFE500"/>
<path d="M6 589.008L6 622.8L36.9914 623C37.3648 602.605 25.603 588.608 6 589.008Z" fill="#FFE500"/>
<path d="M1277.58 713.343C1263.91 721.232 1248.95 717.057 1241.84 704.732C1234.47 691.967 1237.91 677.068 1252.38 669.004" fill="#FF1378"/>
<path d="M54.579 1669.34C40.9138 1677.23 25.9515 1673.06 18.8358 1660.73C11.466 1647.97 14.9093 1633.07 29.3848 1625" fill="#FF1378"/>
<path d="M494 458.078L510.252 475.738L562.497 427.66L546.245 410L494 458.078Z" fill="#22DA4A"/>
<path d="M1228 2884.08L1244.25 2901.74L1296.5 2853.66L1280.24 2836L1228 2884.08Z" fill="#22DA4A"/>
<path d="M912 2238.08L928.252 2255.74L980.497 2207.66L964.245 2190L912 2238.08Z" fill="#22DA4A"/>
<path d="M18.279 996.246C33.8868 986.891 50.855 991.703 58.8178 1005.49C67.0039 1019.67 62.6124 1036.65 46.4305 1045.64" fill="#FF6B00"/>
<path d="M971.279 1494.25C986.887 1484.89 1003.86 1489.7 1011.82 1503.49C1020 1517.67 1015.61 1534.65 999.43 1543.64" fill="#FF6B00"/>
<path d="M12 1227L0 1247.78L61.4878 1283.28L73.4878 1262.5L12 1227Z" fill="#22DA4A"/>
<path d="M873.192 1134L864 1143.19L916.326 1195.52L925.518 1186.33L873.192 1134Z" fill="#AA0BF0"/>
<path d="M41.1924 2526L32 2535.19L84.3259 2587.52L93.5183 2578.33L41.1924 2526Z" fill="#AA0BF0"/>
<path d="M1240.19 2445L1231 2454.19L1283.33 2506.52L1292.52 2497.33L1240.19 2445Z" fill="#AA0BF0"/>
<path d="M955.192 1830L946 1839.19L998.326 1891.52L1007.52 1882.33L955.192 1830Z" fill="#AA0BF0"/>
<path d="M395 1134.01L395 1167.8L425.991 1168C426.365 1147.61 414.603 1133.61 395 1134.01Z" fill="#FFE500"/>
<path d="M1262 1756.01L1262 1789.8L1292.99 1790C1293.36 1769.61 1281.6 1755.61 1262 1756.01Z" fill="#FFE500"/>
<path d="M868 817.078L884.252 834.738L936.497 786.66L920.245 769L868 817.078Z" fill="#22DA4A"/>
</svg>
