<svg width="353" height="7972" viewBox="0 0 353 7972" fill="none" xmlns="http://www.w3.org/2000/svg">
<path d="M143.129 6421L150.897 6428.77L143.819 6435.94C139.044 6431.34 138.53 6425.42 143.129 6421Z" fill="#FFE500"/>
<path d="M223.84 6339.52L218.322 6334L202 6350.32L207.517 6355.84L223.84 6339.52Z" fill="#22DA4A"/>
<path d="M103.891 6385.2C99.9025 6381.51 100.44 6376.89 103.615 6373.71C106.878 6370.45 111.283 6369.51 115.289 6373.99" fill="#FF1378"/>
<path d="M329.989 6529L327 6531.99L344.012 6549L347.001 6546.01L329.989 6529Z" fill="#AA0BF0"/>
<path d="M50.1288 0.00182703L57.8974 7.77044L50.8185 14.9412C46.0439 10.3383 45.5302 4.41656 50.1288 0.00182703Z" fill="#FFE500"/>
<path d="M201.129 738.002L208.897 745.77L201.819 752.941C197.044 748.338 196.53 742.417 201.129 738.002Z" fill="#FFE500"/>
<path d="M27.1288 863.002L34.8974 870.77L27.8185 877.941C23.0439 873.338 22.5302 867.417 27.1288 863.002Z" fill="#FFE500"/>
<path d="M326.129 1028L333.897 1035.77L326.819 1042.94C322.044 1038.34 321.53 1032.42 326.129 1028Z" fill="#FFE500"/>
<path d="M334.129 1442L341.897 1449.77L334.819 1456.94C330.044 1452.34 329.53 1446.42 334.129 1442Z" fill="#FFE500"/>
<path d="M326.129 1892L333.897 1899.77L326.819 1906.94C322.044 1902.34 321.53 1896.42 326.129 1892Z" fill="#FFE500"/>
<path d="M167.129 2366L174.897 2373.77L167.819 2380.94C163.044 2376.34 162.53 2370.42 167.129 2366Z" fill="#FFE500"/>
<path d="M22.1288 3225L29.8974 3232.77L22.8185 3239.94C18.0439 3235.34 17.5302 3229.42 22.1288 3225Z" fill="#FFE500"/>
<path d="M311.129 3099L318.897 3106.77L311.819 3113.94C307.044 3109.34 306.53 3103.42 311.129 3099Z" fill="#FFE500"/>
<path d="M219.129 3930L226.897 3937.77L219.819 3944.94C215.044 3940.34 214.53 3934.42 219.129 3930Z" fill="#FFE500"/>
<path d="M323.129 4246L330.897 4253.77L323.819 4260.94C319.044 4256.34 318.53 4250.42 323.129 4246Z" fill="#FFE500"/>
<path d="M121.129 4840L128.897 4847.77L121.819 4854.94C117.044 4850.34 116.53 4844.42 121.129 4840Z" fill="#FFE500"/>
<path d="M30.1288 5185L37.8974 5192.77L30.8185 5199.94C26.0439 5195.34 25.5302 5189.42 30.1288 5185Z" fill="#FFE500"/>
<path d="M336.129 5575L343.897 5582.77L336.819 5589.94C332.044 5585.34 331.53 5579.42 336.129 5575Z" fill="#FFE500"/>
<path d="M28.1288 5834L35.8974 5841.77L28.8185 5848.94C24.0439 5844.34 23.5302 5838.42 28.1288 5834Z" fill="#FFE500"/>
<path d="M324.129 5931L331.897 5938.77L324.819 5945.94C320.044 5941.34 319.53 5935.42 324.129 5931Z" fill="#FFE500"/>
<path d="M317.129 6362L324.897 6369.77L317.819 6376.94C313.044 6372.34 312.53 6366.42 317.129 6362Z" fill="#FFE500"/>
<path d="M38.1288 2263L45.8974 2270.77L38.8185 2277.94C34.0439 2273.34 33.5302 2267.42 38.1288 2263Z" fill="#FFE500"/>
<path d="M31.8774 182.191C27.8971 178.49 28.445 173.866 31.627 170.699C34.8983 167.442 39.3051 166.516 43.3005 171.006" fill="#FF6B00"/>
<path d="M335.877 839.191C331.897 835.49 332.445 830.866 335.627 827.699C338.898 824.442 343.305 823.516 347.301 828.006" fill="#FF6B00"/>
<path d="M14.8774 1235.19C10.8971 1231.49 11.445 1226.87 14.627 1223.7C17.8983 1220.44 22.3051 1219.52 26.3005 1224.01" fill="#FF6B00"/>
<path d="M292.877 1536.19C288.897 1532.49 289.445 1527.87 292.627 1524.7C295.898 1521.44 300.305 1520.52 304.301 1525.01" fill="#FF6B00"/>
<path d="M14.8774 1730.19C10.8971 1726.49 11.445 1721.87 14.627 1718.7C17.8983 1715.44 22.3051 1714.52 26.3005 1719.01" fill="#FF6B00"/>
<path d="M259.877 1956.19C255.897 1952.49 256.445 1947.87 259.627 1944.7C262.898 1941.44 267.305 1940.52 271.301 1945.01" fill="#FF6B00"/>
<path d="M27.8774 2740.19C23.8971 2736.49 24.445 2731.87 27.627 2728.7C30.8983 2725.44 35.3051 2724.52 39.3005 2729.01" fill="#FF6B00"/>
<path d="M335.877 2600.19C331.897 2596.49 332.445 2591.87 335.627 2588.7C338.898 2585.44 343.305 2584.52 347.301 2589.01" fill="#FF6B00"/>
<path d="M23.8774 3088.19C19.8971 3084.49 20.445 3079.87 23.627 3076.7C26.8983 3073.44 31.3051 3072.52 35.3005 3077.01" fill="#FF6B00"/>
<path d="M333.877 3341.19C329.897 3337.49 330.445 3332.87 333.627 3329.7C336.898 3326.44 341.305 3325.52 345.301 3330.01" fill="#FF6B00"/>
<path d="M334.877 3671.19C330.897 3667.49 331.445 3662.87 334.627 3659.7C337.898 3656.44 342.305 3655.52 346.301 3660.01" fill="#FF6B00"/>
<path d="M88.8774 4009.19C84.8971 4005.49 85.445 4000.87 88.627 3997.7C91.8983 3994.44 96.3051 3993.52 100.301 3998.01" fill="#FF6B00"/>
<path d="M318.877 4187.19C314.897 4183.49 315.445 4178.87 318.627 4175.7C321.898 4172.44 326.305 4171.52 330.301 4176.01" fill="#FF6B00"/>
<path d="M81.8774 4755.19C77.8971 4751.49 78.445 4746.87 81.627 4743.7C84.8983 4740.44 89.3051 4739.52 93.3005 4744.01" fill="#FF6B00"/>
<path d="M319.877 5127.19C315.897 5123.49 316.445 5118.87 319.627 5115.7C322.898 5112.44 327.305 5111.52 331.301 5116.01" fill="#FF6B00"/>
<path d="M255.877 5567.19C251.897 5563.49 252.445 5558.87 255.627 5555.7C258.898 5552.44 263.305 5551.52 267.301 5556.01" fill="#FF6B00"/>
<path d="M8.87743 5668.19C4.89714 5664.49 5.445 5659.87 8.62703 5656.7C11.8983 5653.44 16.3051 5652.52 20.3005 5657.01" fill="#FF6B00"/>
<path d="M48.8774 6327.19C44.8971 6323.49 45.445 6318.87 48.627 6315.7C51.8983 6312.44 56.3051 6311.52 60.3005 6316.01" fill="#FF6B00"/>
<path d="M7 372L7 379.803H30.0838V372H7Z" fill="#22DA4A"/>
<path d="M306.139 919.981L300.621 925.499L316.944 941.822L322.461 936.304L306.139 919.981Z" fill="#22DA4A"/>
<path d="M20.5175 1451L15 1456.52L31.3227 1472.84L36.8402 1467.32L20.5175 1451Z" fill="#22DA4A"/>
<path d="M324.518 1645L319 1650.52L335.323 1666.84L340.84 1661.32L324.518 1645Z" fill="#22DA4A"/>
<path d="M8.51753 2021L3 2026.52L19.3227 2042.84L24.8402 2037.32L8.51753 2021Z" fill="#22DA4A"/>
<path d="M91.5175 2402L86 2407.52L102.323 2423.84L107.84 2418.32L91.5175 2402Z" fill="#22DA4A"/>
<path d="M282.518 2748L277 2753.52L293.323 2769.84L298.84 2764.32L282.518 2748Z" fill="#22DA4A"/>
<path d="M242.518 3191L237 3196.52L253.323 3212.84L258.84 3207.32L242.518 3191Z" fill="#22DA4A"/>
<path d="M21.5175 3873L16 3878.52L32.3227 3894.84L37.8402 3889.32L21.5175 3873Z" fill="#22DA4A"/>
<path d="M178.518 4003L173 4008.52L189.323 4024.84L194.84 4019.32L178.518 4003Z" fill="#22DA4A"/>
<path d="M336.518 4478L331 4483.52L347.323 4499.84L352.84 4494.32L336.518 4478Z" fill="#22DA4A"/>
<path d="M189.84 4781.52L184.322 4776L168 4792.32L173.517 4797.84L189.84 4781.52Z" fill="#22DA4A"/>
<path d="M346.84 5292.52L341.322 5287L325 5303.32L330.517 5308.84L346.84 5292.52Z" fill="#22DA4A"/>
<path d="M38.8398 5022.52L33.3223 5017L16.9996 5033.32L22.5171 5038.84L38.8398 5022.52Z" fill="#22DA4A"/>
<path d="M38.8398 6415.52L33.3223 6410L16.9996 6426.32L22.5171 6431.84L38.8398 6415.52Z" fill="#22DA4A"/>
<path d="M346.84 6006.52L341.322 6001L325 6017.32L330.517 6022.84L346.84 6006.52Z" fill="#22DA4A"/>
<path d="M18.8774 456.191C14.8971 452.49 15.445 447.866 18.627 444.699C21.8983 441.442 26.3051 440.516 30.3005 445.006" fill="#FF6B00"/>
<path d="M301 77.227L302.094 81.3096L325.333 75.0826L324.239 71L301 77.227Z" fill="#AA0BF0"/>
<path d="M103.891 799.204C99.9025 795.512 100.44 790.886 103.615 787.712C106.878 784.448 111.283 783.512 115.289 787.992" fill="#FF1378"/>
<path d="M284.891 1141.2C280.903 1137.51 281.44 1132.89 284.615 1129.71C287.878 1126.45 292.283 1125.51 296.289 1129.99" fill="#FF1378"/>
<path d="M66.8912 1495.2C62.9025 1491.51 63.4398 1486.89 66.6146 1483.71C69.8785 1480.45 74.2832 1479.51 78.2888 1483.99" fill="#FF1378"/>
<path d="M307.891 1826.2C303.903 1822.51 304.44 1817.89 307.615 1814.71C310.878 1811.45 315.283 1810.51 319.289 1814.99" fill="#FF1378"/>
<path d="M40.8912 2502.2C36.9025 2498.51 37.4398 2493.89 40.6146 2490.71C43.8785 2487.45 48.2832 2486.51 52.2888 2490.99" fill="#FF1378"/>
<path d="M295.891 2366.2C291.903 2362.51 292.44 2357.89 295.615 2354.71C298.878 2351.45 303.283 2350.51 307.289 2354.99" fill="#FF1378"/>
<path d="M335.891 2911.2C331.903 2907.51 332.44 2902.89 335.615 2899.71C338.878 2896.45 343.283 2895.51 347.289 2899.99" fill="#FF1378"/>
<path d="M184.891 3177.2C180.903 3173.51 181.44 3168.89 184.615 3165.71C187.878 3162.45 192.283 3161.51 196.289 3165.99" fill="#FF1378"/>
<path d="M41.8912 3584.2C37.9025 3580.51 38.4398 3575.89 41.6146 3572.71C44.8785 3569.45 49.2832 3568.51 53.2888 3572.99" fill="#FF1378"/>
<path d="M289.891 3976.2C285.903 3972.51 286.44 3967.89 289.615 3964.71C292.878 3961.45 297.283 3960.51 301.289 3964.99" fill="#FF1378"/>
<path d="M40.8912 4321.2C36.9025 4317.51 37.4398 4312.89 40.6146 4309.71C43.8785 4306.45 48.2832 4305.51 52.2888 4309.99" fill="#FF1378"/>
<path d="M320.891 4670.2C316.903 4666.51 317.44 4661.89 320.615 4658.71C323.878 4655.45 328.283 4654.51 332.289 4658.99" fill="#FF1378"/>
<path d="M256.891 4840.2C252.903 4836.51 253.44 4831.89 256.615 4828.71C259.878 4825.45 264.283 4824.51 268.289 4828.99" fill="#FF1378"/>
<path d="M18.8912 5481.2C14.9025 5477.51 15.4398 5472.89 18.6146 5469.71C21.8785 5466.45 26.2832 5465.51 30.2888 5469.99" fill="#FF1378"/>
<path d="M163.891 5607.2C159.903 5603.51 160.44 5598.89 163.615 5595.71C166.878 5592.45 171.283 5591.51 175.289 5595.99" fill="#FF1378"/>
<path d="M278.891 6357.2C274.903 6353.51 275.44 6348.89 278.615 6345.71C281.878 6342.45 286.283 6341.51 290.289 6345.99" fill="#FF1378"/>
<path d="M25.8912 5951.2C21.9025 5947.51 22.4398 5942.89 25.6146 5939.71C28.8785 5936.45 33.2832 5935.51 37.2888 5939.99" fill="#FF1378"/>
<path d="M275.664 695.227L276.758 699.31L299.997 693.083L298.903 689L275.664 695.227Z" fill="#AA0BF0"/>
<path d="M13.9998 1024.23L15.0938 1028.31L38.3331 1022.08L37.2392 1018L13.9998 1024.23Z" fill="#AA0BF0"/>
<path d="M163 1538.23L164.094 1542.31L187.333 1536.08L186.239 1532L163 1538.23Z" fill="#AA0BF0"/>
<path d="M25.9998 1879.23L27.0938 1883.31L50.3331 1877.08L49.2392 1873L25.9998 1879.23Z" fill="#AA0BF0"/>
<path d="M296.989 2410L294 2412.99L311.012 2430L314.001 2427.01L296.989 2410Z" fill="#AA0BF0"/>
<path d="M17.9887 2808L15 2810.99L32.0124 2828L35.001 2825.01L17.9887 2808Z" fill="#AA0BF0"/>
<path d="M32.0004 3393.99L29.0117 3391L11.9993 3408.01L14.988 3411L32.0004 3393.99Z" fill="#AA0BF0"/>
<path d="M143 3919.99L140.012 3917L122.999 3934.01L125.988 3937L143 3919.99Z" fill="#AA0BF0"/>
<path d="M20.0004 4071.99L17.0117 4069L-0.000661473 4086.01L2.988 4089L20.0004 4071.99Z" fill="#AA0BF0"/>
<path d="M23.0004 4430.99L20.0117 4428L2.99934 4445.01L5.988 4448L23.0004 4430.99Z" fill="#AA0BF0"/>
<path d="M27.9887 4806L25 4808.99L42.0124 4826L45.001 4823.01L27.9887 4806Z" fill="#AA0BF0"/>
<path d="M318.989 5023L316 5025.99L333.012 5043L336.001 5040.01L318.989 5023Z" fill="#AA0BF0"/>
<path d="M20.9887 5527L18 5529.99L35.0124 5547L38.001 5544.01L20.9887 5527Z" fill="#AA0BF0"/>
<path d="M317.989 5832L315 5834.99L332.012 5852L335.001 5849.01L317.989 5832Z" fill="#AA0BF0"/>
<path d="M15.9887 6260L13 6262.99L30.0124 6280L33.001 6277.01L15.9887 6260Z" fill="#AA0BF0"/>
<path d="M18.1288 7228L25.8974 7235.77L18.8185 7242.94C14.0439 7238.34 13.5302 7232.42 18.1288 7228Z" fill="#FFE500"/>
<path d="M317.129 7107L324.897 7114.77L317.819 7121.94C313.044 7117.34 312.53 7111.42 317.129 7107Z" fill="#FFE500"/>
<path d="M317.129 7916L324.897 7923.77L317.819 7930.94C313.044 7926.34 312.53 7920.42 317.129 7916Z" fill="#FFE500"/>
<path d="M329.877 7348.19C325.897 7344.49 326.445 7339.87 329.627 7336.7C332.898 7333.44 337.305 7332.52 341.301 7337.01" fill="#FF6B00"/>
<path d="M238.518 7194L233 7199.52L249.323 7215.84L254.84 7210.32L238.518 7194Z" fill="#22DA4A"/>
<path d="M38.5175 7950L33 7955.52L49.3227 7971.84L54.8402 7966.32L38.5175 7950Z" fill="#22DA4A"/>
<path d="M180.891 7180.2C176.903 7176.51 177.44 7171.89 180.615 7168.71C183.878 7165.45 188.283 7164.51 192.289 7168.99" fill="#FF1378"/>
<path d="M37.8912 7591.2C33.9025 7587.51 34.4398 7582.89 37.6146 7579.71C40.8785 7576.45 45.2832 7575.51 49.2888 7579.99" fill="#FF1378"/>
<path d="M28.0004 7400.99L25.0117 7398L7.99934 7415.01L10.988 7418L28.0004 7400.99Z" fill="#AA0BF0"/>
<path d="M40.1288 6584L47.8974 6591.77L40.8185 6598.94C36.0439 6594.34 35.5302 6588.42 40.1288 6584Z" fill="#FFE500"/>
<path d="M329.877 6896.19C325.897 6892.49 326.445 6887.87 329.627 6884.7C332.898 6881.44 337.305 6880.52 341.301 6885.01" fill="#FF6B00"/>
<path d="M32.8398 6791.52L27.3223 6786L10.9996 6802.32L16.5171 6807.84L32.8398 6791.52Z" fill="#22DA4A"/>
<path d="M41.9887 7122L39 7124.99L56.0124 7142L59.001 7139.01L41.9887 7122Z" fill="#AA0BF0"/>
</svg>
