<svg width="1146" height="562" viewBox="0 0 1146 562" fill="none" xmlns="http://www.w3.org/2000/svg">
<path d="M110.613 515.197C120.396 524.077 120.957 537.001 113.034 545.731C104.827 554.773 92.1333 555.762 82.0024 546.282" fill="#0181F8"/>
<path d="M800.992 201H767.2L767 231.991C787.395 232.365 801.392 220.603 800.992 201Z" fill="#FFE500"/>
<path d="M126.926 259.006L150.821 282.9L129.048 304.956C114.362 290.798 112.782 272.584 126.926 259.006Z" fill="#FFE500"/>
<path d="M1067.29 404.296C1083.31 387.74 1105.64 388.065 1119.9 402.323C1134.56 416.98 1134.75 439.176 1117.91 455.484" fill="#FF800C"/>
<path d="M1082.48 77.3367C1064.55 60.7399 1066.97 39.947 1081.24 25.6753C1095.91 11.0033 1115.71 6.79549 1133.72 26.9361" fill="#FF1378"/>
<path d="M0.531087 184.738C21.2031 171.714 40.6623 179.429 50.754 196.908C61.1287 214.878 60.0683 235.093 35.9535 247.273" fill="#FF1378"/>
<path d="M219.192 207L210 216.192L262.326 268.518L271.518 259.326L219.192 207Z" fill="#AA0BF0"/>
<path d="M963.338 266.057L966.702 278.614L1038.18 259.461L1034.82 246.904L963.338 266.057Z" fill="#AA0BF0"/>
<path d="M81.9706 36.0001L65 52.9707L115.205 103.175L132.175 86.2047L81.9706 36.0001Z" fill="#22DA4A"/>
<path d="M320 107C327.18 107 333 101.404 333 94.5C333 87.5964 327.18 82 320 82C312.82 82 307 87.5964 307 94.5C307 101.404 312.82 107 320 107Z" fill="#F10E0E"/>
<path d="M898.971 327L882 343.971L932.205 394.175L949.175 377.205L898.971 327Z" fill="#22DA4A"/>
<path d="M960.519 76.1924L951.326 67L899 119.326L908.193 128.518L960.519 76.1924Z" fill="#39CCEC"/>
</svg>
