<svg width="124" height="97" viewBox="0 0 124 97" fill="none" xmlns="http://www.w3.org/2000/svg">
<path d="M101.828 15.2302L101.763 40.0237L93.5845 39.9996L82.915 39.9755L82.9633 21.6897L82.9793 15.182L94.9985 15.1338L101.828 15.2302Z" fill="url(#paint0_linear_12_3703)"/>
<path d="M82.9785 15.1712L86.4172 10.0454L98.0667 10.0775L94.9736 15.2034L82.9785 15.1712Z" fill="url(#paint1_linear_12_3703)"/>
<path d="M98.0688 10.0806L101.829 15.2305L94.9756 15.2064L98.0688 10.0806Z" fill="#B1BEE3"/>
<path d="M101.828 15.2277L101.763 40.0213L94.9102 40.0052L94.9744 15.2036L101.828 15.2277Z" fill="url(#paint2_linear_12_3703)"/>
<path d="M86.417 10.0446L98.0666 10.0767V9.83571C98.0666 8.88767 97.3033 8.11639 96.3553 8.11639L88.1363 8.09229C87.1883 8.09229 86.417 8.85553 86.417 9.80357V10.0446Z" fill="url(#paint3_linear_12_3703)"/>
<path d="M82.9633 22.667L94.9504 22.6991L94.9423 27.142L82.9473 27.1099L82.9633 22.667Z" fill="url(#paint4_linear_12_3703)"/>
<path d="M101.802 22.7163L101.794 27.1592L94.9404 27.1431L94.9485 22.7002L101.802 22.7163Z" fill="url(#paint5_linear_12_3703)"/>
<path d="M79.6623 11.9438H72.7529V28.414H79.6623V11.9438Z" fill="url(#paint6_linear_12_3703)"/>
<path d="M78.3442 5.07471H76.2473C73.5398 5.07471 71.3545 7.26804 71.3545 9.96754V13.4704H75.5323C76.4883 13.4704 77.2596 14.2417 77.2596 15.1978C77.2596 16.1539 76.4883 16.9252 75.5323 16.9252H71.3545V21.9064H75.5323C76.4883 21.9064 77.2596 22.6776 77.2596 23.6337C77.2596 24.5898 76.4883 25.3611 75.5323 25.3611H71.3545V34.9619H83.2451V9.96754C83.2371 7.26804 81.0437 5.07471 78.3442 5.07471Z" fill="url(#paint7_linear_12_3703)"/>
<path d="M58.784 15.6774C58.784 15.6774 46.4917 10.8891 49.1751 7.2817C51.8666 3.66631 59.2821 14.5848 59.2821 14.5848L58.784 15.6774Z" fill="#28C079"/>
<path d="M59.8889 14.8616C59.8889 14.8616 60.5236 1.67749 56.1369 2.66569C51.7342 3.6539 58.6918 14.8696 58.6918 14.8696L59.8889 14.8616Z" fill="#28C079"/>
<path d="M59.6215 15.7911C59.6215 15.7911 54.1503 -1.94036 49.0646 1.34563C44.453 4.33435 58.4405 16.1446 58.4405 16.1446L59.6215 15.7911Z" fill="#40DE94"/>
<path d="M76.3007 39.5959C76.0034 39.5637 75.6981 39.4352 75.4169 39.1942L73.5208 37.5793L73.5128 37.5713L69.4957 34.1407L68.7565 33.506L63.4058 28.9425L62.3693 28.0588L58.8986 25.1022C58.5531 24.8049 58.2317 24.4755 57.9425 24.13C57.7015 23.8408 57.4765 23.5355 57.2837 23.2141C56.2874 21.6153 55.8938 19.7032 56.3116 17.8393C56.6651 16.2726 57.4845 15.0273 58.5692 14.1757C58.6816 14.0873 58.8022 13.9989 58.9227 13.9186C60.5295 12.834 62.6264 12.5367 64.6511 13.2116C65.1572 13.3803 65.6312 13.6133 66.0731 13.8945C67.3104 14.6738 68.2825 15.8468 68.877 17.2046L69.3752 18.3053L69.8974 19.4622L72.5085 25.2147L72.9825 26.2591L76.0596 33.0319L76.3408 33.6586L77.9878 37.2901C78.5824 38.5675 77.4576 39.7405 76.3007 39.5959Z" fill="url(#paint8_linear_12_3703)"/>
<path opacity="0.1" d="M73.5187 37.5731L58.8965 25.104C56.7915 23.3044 55.6988 20.5165 56.3014 17.8411C56.6549 16.2744 57.4744 15.0291 58.559 14.1775C58.6715 14.0891 58.792 14.0008 58.9125 13.9204C59.1134 21.2396 68.6018 32.3187 73.5187 37.5731Z" fill="black"/>
<path opacity="0.1" d="M66.0697 13.8931L61.667 16.7131L64.6477 13.2183C65.1538 13.387 65.6279 13.6119 66.0697 13.8931Z" fill="black"/>
<path opacity="0.1" d="M62.0787 20.1865L57.941 24.1393C57.7 23.8501 57.475 23.5448 57.2822 23.2235L62.0787 20.1865Z" fill="black"/>
<path opacity="0.1" d="M69.9039 19.4682L65.9189 21.9266L69.3737 18.3032L69.9039 19.4682Z" fill="black"/>
<path opacity="0.1" d="M66.6263 25.666L63.4046 28.944L62.3682 28.0682L66.6263 25.666Z" fill="black"/>
<path opacity="0.1" d="M72.9887 26.2742L70.249 27.5436L72.5147 25.2217L72.9887 26.2742Z" fill="black"/>
<path opacity="0.1" d="M72.0589 31.3779L69.496 34.1417L68.7568 33.515L72.0589 31.3779Z" fill="black"/>
<path opacity="0.1" d="M76.3578 33.6665L74.5742 34.6467L76.0766 33.0479L76.3578 33.6665Z" fill="black"/>
<path d="M55.4072 23.6726C55.4072 23.6726 46.5696 20.2259 48.4978 17.6389C50.4341 15.0359 55.7607 22.8933 55.7607 22.8933L55.4072 23.6726Z" fill="#28C079"/>
<path d="M56.2037 23.0784C56.2037 23.0784 56.6617 13.6061 53.5123 14.3131C50.3468 15.0201 55.3521 23.0864 55.3521 23.0864L56.2037 23.0784Z" fill="#28C079"/>
<path d="M56.0106 23.7535C56.0106 23.7535 52.0738 11.0033 48.4263 13.3733C45.1082 15.5185 55.167 24.0106 55.167 24.0106L56.0106 23.7535Z" fill="#40DE94"/>
<path d="M67.9977 40.8569C67.7808 40.8328 67.5639 40.7363 67.363 40.5676L65.9972 39.4027C65.9972 39.4027 65.9972 39.4027 65.9892 39.4027L63.0968 36.9362L62.5666 36.4782L58.7182 33.2003L57.9791 32.5656L55.4885 30.4365C55.2394 30.2196 55.0064 29.9866 54.7975 29.7375C54.6208 29.5286 54.4601 29.3117 54.3235 29.0787C53.6085 27.9298 53.3192 26.556 53.6245 25.2143C53.8736 24.0895 54.4681 23.1977 55.2474 22.579C55.3278 22.5148 55.4161 22.4505 55.5045 22.3943C56.6614 21.6149 58.1719 21.398 59.618 21.8881C59.9796 22.0086 60.325 22.1773 60.6384 22.3782C61.5302 22.9406 62.2211 23.7842 62.655 24.7563L63.0165 25.5517L63.3941 26.3873L65.2741 30.5249L65.6196 31.2801L67.829 36.1488L68.0298 36.5987L69.2109 39.2098C69.6367 40.1177 68.8333 40.9613 67.9977 40.8569Z" fill="url(#paint9_linear_12_3703)"/>
<path opacity="0.1" d="M65.9997 39.4059L55.491 30.4397C53.9725 29.1462 53.1932 27.1376 53.627 25.2175C53.8761 24.0927 54.4706 23.2009 55.25 22.5822C55.3303 22.518 55.4187 22.4537 55.5071 22.3975C55.6517 27.6679 62.4727 35.6298 65.9997 39.4059Z" fill="black"/>
<path opacity="0.1" d="M60.6469 22.3861L57.4814 24.4107L59.6186 21.896C59.9881 22.0165 60.3256 22.1852 60.6469 22.3861Z" fill="black"/>
<path opacity="0.1" d="M57.7719 26.9106L54.7992 29.7467C54.6225 29.5378 54.4618 29.3209 54.3252 29.0879L57.7719 26.9106Z" fill="black"/>
<path opacity="0.1" d="M63.3944 26.3881L60.5342 28.1636L63.0168 25.5605L63.3944 26.3881Z" fill="black"/>
<path opacity="0.1" d="M61.0474 30.8462L58.7255 33.2002L57.9863 32.5735L61.0474 30.8462Z" fill="black"/>
<path opacity="0.1" d="M65.6217 31.2809L63.6533 32.1968L65.2762 30.5337L65.6217 31.2809Z" fill="black"/>
<path opacity="0.1" d="M64.9453 34.9531L63.1054 36.9376L62.5752 36.4877L64.9453 34.9531Z" fill="black"/>
<path opacity="0.1" d="M68.0374 36.5969L66.752 37.2959L67.8285 36.147L68.0374 36.5969Z" fill="black"/>
<path d="M106.817 26.5166H49.1621V70.7593H106.817V26.5166Z" fill="url(#paint10_linear_12_3703)"/>
<path d="M64.3188 26.5166H49.1621V70.7593H64.3188V26.5166Z" fill="url(#paint11_linear_12_3703)"/>
<path d="M106.817 67.1802H49.1621V70.7465H106.817V67.1802Z" fill="url(#paint12_linear_12_3703)"/>
<path d="M64.3188 67.1802H49.1621V70.7465H64.3188V67.1802Z" fill="#A07540"/>
<path d="M106.817 26.5566H49.1621V30.1229H106.817V26.5566Z" fill="url(#paint13_linear_12_3703)"/>
<path d="M64.3188 26.5566H49.1621V30.1229H64.3188V26.5566Z" fill="#A07540"/>
<path d="M81.0683 33.1821H68.793V39.1776H81.0683V33.1821Z" fill="white"/>
<path d="M81.0683 40.6118H68.793V42.6146H81.0683V40.6118Z" fill="white"/>
<path d="M92.6169 40.6118H83.1973V42.6146H92.6169V40.6118Z" fill="white"/>
<path opacity="0.6" d="M60.3012 35.2134H52.2383V40.6403H60.3012V35.2134Z" fill="#A07540"/>
<path d="M87.979 59.1406V70.744H81.1953V59.1406L82.6296 61.0788L83.6762 59.1406L84.7228 61.0788L85.6273 59.1406L86.6739 60.9625L87.979 59.1406Z" fill="#A07540"/>
<path d="M101.184 57.695L97.2562 53.1338L93.3281 57.695H95.8219V62.786H98.6905V57.695H101.184Z" fill="#A07540"/>
<path d="M84.5163 79.7881H81.8932C77.2545 79.7881 73.4814 83.5482 73.4814 88.1999C73.4814 92.8386 77.2416 96.6117 81.8932 96.6117H84.5163V79.7881Z" fill="#474F5E"/>
<path d="M84.5026 96.6117C89.1483 96.6117 92.9144 92.8456 92.9144 88.1999C92.9144 83.5542 89.1483 79.7881 84.5026 79.7881C79.8569 79.7881 76.0908 83.5542 76.0908 88.1999C76.0908 92.8456 79.8569 96.6117 84.5026 96.6117Z" fill="#6A707C"/>
<path d="M84.5015 92.8634C87.0777 92.8634 89.1661 90.775 89.1661 88.1988C89.1661 85.6226 87.0777 83.5342 84.5015 83.5342C81.9253 83.5342 79.8369 85.6226 79.8369 88.1988C79.8369 90.775 81.9253 92.8634 84.5015 92.8634Z" fill="white"/>
<path d="M122.31 70.0977H54.8994V89.8027H122.31V70.0977Z" fill="url(#paint14_linear_12_3703)"/>
<path d="M123.949 70.0977H53.3984V73.3538H123.949V70.0977Z" fill="url(#paint15_linear_12_3703)"/>
<path d="M17.3356 79.7881H14.7126C10.0738 79.7881 6.30078 83.5482 6.30078 88.1999C6.30078 92.8386 10.0609 96.6117 14.7126 96.6117H17.3356V79.7881Z" fill="#474F5E"/>
<path d="M17.3376 96.6117C21.9833 96.6117 25.7494 92.8456 25.7494 88.1999C25.7494 83.5542 21.9833 79.7881 17.3376 79.7881C12.6919 79.7881 8.92578 83.5542 8.92578 88.1999C8.92578 92.8456 12.6919 96.6117 17.3376 96.6117Z" fill="#6A707C"/>
<path d="M17.3365 92.8634C19.9127 92.8634 22.0011 90.775 22.0011 88.1988C22.0011 85.6226 19.9127 83.5342 17.3365 83.5342C14.7603 83.5342 12.6719 85.6226 12.6719 88.1988C12.6719 90.775 14.7603 92.8634 17.3365 92.8634Z" fill="white"/>
<path d="M51.502 48.5059V89.8025H1.53516V69.1025C1.53516 68.9604 1.54808 68.8182 1.57393 68.6761C1.61269 68.4435 1.6773 68.2109 1.76775 68.0042C1.88404 67.7328 2.03909 67.4873 2.23291 67.2547L17.6093 49.4879C18.152 48.8677 18.9273 48.5059 19.7542 48.5059H51.502Z" fill="url(#paint16_linear_12_3703)"/>
<path opacity="0.4" d="M61.2309 70.0977H54.8994V89.8027H61.2309V70.0977Z" fill="#5C6374"/>
<path opacity="0.4" d="M61.2306 48.4529V70.7551H49.1621V46.2692H59.0469C60.2615 46.2562 61.2306 47.2383 61.2306 48.4529Z" fill="#5C6374"/>
<path d="M58.2228 51.2064V89.8412H25.7256V69.1025C25.7256 68.4177 25.9711 67.7587 26.4104 67.2547L41.7868 49.4879C42.3295 48.8677 43.1048 48.5059 43.9317 48.5059H55.5222C57.0081 48.5059 58.2228 49.7205 58.2228 51.2064Z" fill="url(#paint17_linear_12_3703)"/>
<path d="M24.5202 65.2367H7.23145L15.8371 55.1968H33.1129L24.5202 65.2367Z" fill="white"/>
<path d="M31.2676 65.2373L40.1316 55.1587H47.3417V65.2373H31.2676Z" fill="white"/>
<path d="M25.7232 85.5254H0.681641V89.8928H25.7232V85.5254Z" fill="url(#paint18_linear_12_3703)"/>
<path d="M27.5332 89.8371V87.6534C27.5332 82.1877 31.9652 77.7686 37.418 77.7686H39.3304C44.7961 77.7686 49.2281 82.2006 49.2281 87.6534V89.8371H27.5332Z" fill="#474F5E"/>
<path d="M38.9137 79.7852H36.2907C31.6519 79.7852 27.8789 83.5452 27.8789 88.1969C27.8789 92.8357 31.639 96.6087 36.2907 96.6087H38.9137V79.7852Z" fill="#474F5E"/>
<path d="M38.903 96.6087C43.5487 96.6087 47.3148 92.8426 47.3148 88.1969C47.3148 83.5512 43.5487 79.7852 38.903 79.7852C34.2573 79.7852 30.4912 83.5512 30.4912 88.1969C30.4912 92.8426 34.2573 96.6087 38.903 96.6087Z" fill="#6A707C"/>
<path d="M38.9009 92.8619C41.4771 92.8619 43.5655 90.7735 43.5655 88.1973C43.5655 85.6211 41.4771 83.5327 38.9009 83.5327C36.3248 83.5327 34.2363 85.6211 34.2363 88.1973C34.2363 90.7735 36.3248 92.8619 38.9009 92.8619Z" fill="white"/>
<path d="M50.2861 87.6395V89.8361H48.1929V87.6395C48.1929 82.303 43.8513 77.9614 38.5148 77.9614H37.4423C32.1058 77.9614 27.7642 82.303 27.7642 87.6395V89.8361H25.7227V86.567C26.2654 80.5715 31.3176 75.8682 37.4423 75.8682H38.5148C45.0142 75.8682 50.2861 81.153 50.2861 87.6395Z" fill="url(#paint19_linear_12_3703)"/>
<path d="M119.298 87.5374V89.7986H97.6035V87.5374C97.6035 82.0717 102.036 77.6396 107.488 77.6396H109.401C114.866 77.6396 119.298 82.0717 119.298 87.5374Z" fill="#474F5E"/>
<path d="M108.988 79.6567H106.365C101.726 79.6567 97.9531 83.4168 97.9531 88.0685C97.9531 92.7073 101.713 96.4803 106.365 96.4803H108.988V79.6567Z" fill="#474F5E"/>
<path d="M108.973 96.4803C113.619 96.4803 117.385 92.7142 117.385 88.0685C117.385 83.4228 113.619 79.6567 108.973 79.6567C104.328 79.6567 100.562 83.4228 100.562 88.0685C100.562 92.7142 104.328 96.4803 108.973 96.4803Z" fill="#6A707C"/>
<path d="M108.975 92.7335C111.551 92.7335 113.64 90.6451 113.64 88.0689C113.64 85.4927 111.551 83.4043 108.975 83.4043C106.399 83.4043 104.311 85.4927 104.311 88.0689C104.311 90.6451 106.399 92.7335 108.975 92.7335Z" fill="white"/>
<path d="M120.359 89.8016V87.5145C120.359 81.028 115.075 75.7432 108.588 75.7432H107.516C101.391 75.7432 96.3386 80.4594 95.7959 86.4549V89.8016H97.8374V87.5145C97.8374 82.178 102.179 77.8364 107.516 77.8364H108.588C113.925 77.8364 118.266 82.178 118.266 87.5145V89.8016H120.359Z" fill="url(#paint20_linear_12_3703)"/>
<path d="M22.9962 77.7979H3.9502V83.4962H22.9962V77.7979Z" fill="#474F5E"/>
<path d="M21.1739 79.748H16.7031V81.557H21.1739V79.748Z" fill="white"/>
<path d="M10.2569 79.748H5.78613V81.557H10.2569V79.748Z" fill="white"/>
<path d="M58.184 71.069V71.7409H55.5093V89.8437H54.8374V71.7409H36.9672C33.8143 71.7409 30.7003 72.8134 28.2065 74.7516L25.7256 76.6769V75.8241L27.793 74.2218C30.4031 72.1932 33.6593 71.069 36.9672 71.069H51.8396V48.5601H52.5115V71.069H58.184Z" fill="white"/>
<path d="M46.1668 67.6812H42.3809V68.9862H46.1668V67.6812Z" fill="#5C6374"/>
<path d="M25.8266 68V68.6719H1.57324C1.61201 68.4393 1.67661 68.2067 1.76706 68H25.8266Z" fill="white"/>
<path d="M42.5843 12.9624C42.5843 6.90233 37.532 2.01807 31.4073 2.30234C25.9157 2.54784 21.4579 7.03153 21.2382 12.5231C21.1736 14.1512 21.4708 15.7147 22.0652 17.1102C22.2331 17.4978 22.427 17.8855 22.6337 18.2473L30.5416 34.1534C31.0713 35.213 32.5702 35.213 33.1 34.1663L41.0854 18.4281C41.3309 18.0017 41.5635 17.5624 41.7573 17.1102C42.2871 15.831 42.5843 14.4355 42.5843 12.9624ZM32.441 17.4461C29.7534 17.7175 27.518 15.4692 27.7764 12.7815C27.9702 10.7916 29.5854 9.18941 31.5753 8.98267C34.2629 8.71132 36.4983 10.9596 36.2399 13.6472C36.0331 15.6501 34.4309 17.2523 32.441 17.4461Z" fill="#28C079"/>
<defs>
<linearGradient id="paint0_linear_12_3703" x1="83.3471" y1="27.2999" x2="97.1517" y2="27.7601" gradientUnits="userSpaceOnUse">
<stop stop-color="#F3F7FF"/>
<stop offset="1" stop-color="#BCCBF9"/>
</linearGradient>
<linearGradient id="paint1_linear_12_3703" x1="85.5162" y1="12.6259" x2="100.607" y2="12.6244" gradientUnits="userSpaceOnUse">
<stop stop-color="#91A1D2"/>
<stop offset="0.666667" stop-color="#DEE6FF"/>
</linearGradient>
<linearGradient id="paint2_linear_12_3703" x1="94.9083" y1="27.6131" x2="101.826" y2="27.6131" gradientUnits="userSpaceOnUse">
<stop stop-color="#B0BFE9"/>
<stop offset="1" stop-color="#EEF2FF"/>
</linearGradient>
<linearGradient id="paint3_linear_12_3703" x1="86.4216" y1="9.06466" x2="98.072" y2="9.09536" gradientUnits="userSpaceOnUse">
<stop stop-color="#B8CAFF"/>
<stop offset="1" stop-color="#9BB1F4"/>
</linearGradient>
<linearGradient id="paint4_linear_12_3703" x1="82.9482" y1="24.9058" x2="94.9535" y2="24.9047" gradientUnits="userSpaceOnUse">
<stop stop-color="#90A5E2"/>
<stop offset="1" stop-color="#C2CBE4"/>
<stop offset="1" stop-color="#C6D1F2"/>
<stop offset="1" stop-color="#F5F8FF"/>
</linearGradient>
<linearGradient id="paint5_linear_12_3703" x1="94.9401" y1="24.9318" x2="101.804" y2="24.9311" gradientUnits="userSpaceOnUse">
<stop stop-color="#8AA5F6"/>
<stop offset="1" stop-color="#DADBDE"/>
</linearGradient>
<linearGradient id="paint6_linear_12_3703" x1="77.7795" y1="20.1789" x2="71.5131" y2="20.1789" gradientUnits="userSpaceOnUse">
<stop stop-color="#C48F40"/>
<stop offset="1" stop-color="#DADBDE"/>
</linearGradient>
<linearGradient id="paint7_linear_12_3703" x1="85.2911" y1="38.353" x2="72.5154" y2="12.0786" gradientUnits="userSpaceOnUse">
<stop stop-color="#F7CF95"/>
<stop offset="1" stop-color="#D3A35B"/>
</linearGradient>
<linearGradient id="paint8_linear_12_3703" x1="54.0252" y1="19.0087" x2="76.5478" y2="29.1514" gradientUnits="userSpaceOnUse">
<stop stop-color="#FF7A00"/>
<stop offset="1" stop-color="#FFC28A"/>
</linearGradient>
<linearGradient id="paint9_linear_12_3703" x1="51.9883" y1="26.0593" x2="68.1772" y2="33.3497" gradientUnits="userSpaceOnUse">
<stop stop-color="#FF6B00"/>
<stop offset="1" stop-color="#FF9F47"/>
</linearGradient>
<linearGradient id="paint10_linear_12_3703" x1="49.1635" y1="48.6339" x2="106.815" y2="48.6339" gradientUnits="userSpaceOnUse">
<stop stop-color="#E0AC6E"/>
<stop offset="1" stop-color="#FDE7CC"/>
</linearGradient>
<linearGradient id="paint11_linear_12_3703" x1="65.4507" y1="48.6339" x2="48.7573" y2="48.6339" gradientUnits="userSpaceOnUse">
<stop stop-color="#D4A060"/>
<stop offset="1" stop-color="#EFCA9E"/>
</linearGradient>
<linearGradient id="paint12_linear_12_3703" x1="49.1635" y1="68.9689" x2="106.815" y2="68.9689" gradientUnits="userSpaceOnUse">
<stop stop-color="#E0AE70"/>
<stop offset="1" stop-color="#EFCA9E"/>
</linearGradient>
<linearGradient id="paint13_linear_12_3703" x1="49.1639" y1="28.3351" x2="106.815" y2="28.3351" gradientUnits="userSpaceOnUse">
<stop stop-color="#E0AD6F"/>
<stop offset="1" stop-color="#F1CEA4"/>
</linearGradient>
<linearGradient id="paint14_linear_12_3703" x1="54.8963" y1="79.9478" x2="122.301" y2="79.9478" gradientUnits="userSpaceOnUse">
<stop stop-color="#2BC27B"/>
<stop offset="1" stop-color="#82E8B9"/>
</linearGradient>
<linearGradient id="paint15_linear_12_3703" x1="73.6291" y1="71.7287" x2="144.179" y2="71.7287" gradientUnits="userSpaceOnUse">
<stop stop-color="#6A6F79"/>
<stop offset="1" stop-color="#DADBDE"/>
</linearGradient>
<linearGradient id="paint16_linear_12_3703" x1="1.53795" y1="69.153" x2="51.504" y2="69.153" gradientUnits="userSpaceOnUse">
<stop stop-color="#28C079"/>
<stop offset="1" stop-color="#B8FFDE"/>
</linearGradient>
<linearGradient id="paint17_linear_12_3703" x1="25.7245" y1="69.1767" x2="58.2206" y2="69.1767" gradientUnits="userSpaceOnUse">
<stop stop-color="#2CC27C"/>
<stop offset="1" stop-color="#8DECC0"/>
</linearGradient>
<linearGradient id="paint18_linear_12_3703" x1="0.681641" y1="87.7072" x2="25.7219" y2="87.7072" gradientUnits="userSpaceOnUse">
<stop stop-color="#3CC987"/>
<stop offset="1" stop-color="#69DDA6"/>
</linearGradient>
<linearGradient id="paint19_linear_12_3703" x1="25.7216" y1="82.8563" x2="50.2863" y2="82.8563" gradientUnits="userSpaceOnUse">
<stop stop-color="#3DCA88"/>
<stop offset="1" stop-color="#96F8CA"/>
</linearGradient>
<linearGradient id="paint20_linear_12_3703" x1="95.7973" y1="82.7705" x2="120.363" y2="82.7705" gradientUnits="userSpaceOnUse">
<stop stop-color="#37C884"/>
<stop offset="1" stop-color="#AAFFD7"/>
</linearGradient>
</defs>
</svg>
