<svg width="231" height="117" viewBox="0 0 231 117" fill="none" xmlns="http://www.w3.org/2000/svg">
<path d="M10.3684 14.2979C8.30106 16.4484 5.38054 16.4914 3.46157 14.6466C1.47407 12.7359 1.33305 9.86474 3.53804 7.63966" fill="#0181F8"/>
<path d="M46.705 82.6425L52.0999 88.0374L47.184 93.0172C43.8683 89.8207 43.5115 85.7083 46.705 82.6425Z" fill="#FFE500"/>
<path d="M223.075 23.9173C220.305 21.3534 220.679 18.1413 222.883 15.9366C225.15 13.67 228.209 13.02 230.99 16.1314" fill="#FF1378"/>
<path d="M22.8323 114.221C20.0682 111.651 20.4486 108.439 22.6584 106.24C24.9301 103.978 27.9904 103.335 30.765 106.453" fill="#FF6B00"/>
<path d="M35.0384 21.1848L32.9629 23.2603L44.7771 35.0745L46.8526 32.999L35.0384 21.1848Z" fill="#AA0BF0"/>
<path d="M210.416 51.5467L211.176 54.3818L227.314 50.0575L226.555 47.2224L210.416 51.5467Z" fill="#AA0BF0"/>
<path d="M18.8213 57.8605V63.2793H34.8518V57.8605H18.8213Z" fill="#22DA4A"/>
<path d="M207.304 101.391L203.473 105.223L214.808 116.558L218.64 112.726L207.304 101.391Z" fill="#22DA4A"/>
<path d="M195.835 2.07547L193.76 0L181.946 11.8142L184.021 13.8897L195.835 2.07547Z" fill="#39CCEC"/>
</svg>
