<svg width="1290" height="859" viewBox="0 0 1290 859" fill="none" xmlns="http://www.w3.org/2000/svg">
<path d="M29.9732 813.207C39.35 822.515 39.3331 835.451 31.0274 843.819C22.425 852.485 9.69997 852.906 0.00263429 842.983" fill="#0181F8"/>
<path d="M1161.61 166.197C1171.4 175.077 1171.96 188.001 1164.03 196.731C1155.83 205.773 1143.13 206.762 1133 197.282" fill="#0181F8"/>
<path d="M909.992 315H876.2L876 345.991C896.395 346.365 910.392 334.603 909.992 315Z" fill="#FFE500"/>
<path d="M204.55 714.639L227.353 739.577L204.617 760.638C190.579 745.839 189.814 727.573 204.55 714.639Z" fill="#FFE500"/>
<path d="M1238.48 77.3367C1220.55 60.7399 1222.97 39.947 1237.24 25.6753C1251.91 11.0033 1271.71 6.79549 1289.72 26.9361" fill="#FF1378"/>
<path d="M164.594 588L155 596.772L204.936 651.383L214.53 642.611L164.594 588Z" fill="#AA0BF0"/>
<path d="M980.798 290.493L980.141 303.476L1054.05 307.217L1054.7 294.233L980.798 290.493Z" fill="#AA0BF0"/>
<path d="M91.9875 731.556C99.1601 731.876 105.225 726.546 105.533 719.649C105.841 712.752 100.277 706.901 93.1042 706.581C85.9317 706.26 79.8672 711.591 79.5588 718.488C79.2505 725.384 84.815 731.235 91.9875 731.556Z" fill="#F10E0E"/>
<path d="M1093.83 119.691L1081.71 115L1055 184.014L1067.12 188.705L1093.83 119.691Z" fill="#39CCEC"/>
</svg>
