<svg width="349" height="252" viewBox="0 0 349 252" fill="none" xmlns="http://www.w3.org/2000/svg">
<path d="M157.992 55.8354C157.993 56.1062 157.914 56.3712 157.764 56.5968C157.614 56.8224 157.401 56.9984 157.15 57.1027C156.9 57.207 156.625 57.2348 156.359 57.1825C156.093 57.1303 155.849 57.0004 155.657 56.8092C155.465 56.6181 155.334 56.3744 155.281 56.1089C155.227 55.8434 155.254 55.568 155.358 55.3178C155.461 55.0675 155.637 54.8536 155.862 54.7031C156.087 54.5525 156.352 54.4722 156.623 54.4722C156.985 54.4722 157.333 54.6156 157.59 54.8712C157.846 55.1267 157.991 55.4734 157.992 55.8354Z" fill="#DDDDDD"/>
<path d="M164.335 55.8354H190.916" stroke="#EDEDED" stroke-width="2" stroke-linecap="round" stroke-linejoin="round"/>
<path d="M157.992 62.1637C157.992 62.4343 157.912 62.6988 157.762 62.9237C157.611 63.1487 157.397 63.3241 157.147 63.4276C156.897 63.5311 156.622 63.5582 156.356 63.5054C156.09 63.4527 155.846 63.3224 155.655 63.131C155.463 62.9397 155.333 62.696 155.28 62.4306C155.227 62.1652 155.254 61.8902 155.358 61.6402C155.462 61.3902 155.637 61.1765 155.862 61.0262C156.088 60.8759 156.352 60.7957 156.623 60.7957C156.803 60.795 156.981 60.83 157.148 60.8985C157.314 60.967 157.465 61.0678 157.593 61.1949C157.72 61.3221 157.821 61.4732 157.889 61.6394C157.958 61.8057 157.993 61.9839 157.992 62.1637V62.1637Z" fill="#DDDDDD"/>
<path d="M164.335 62.1638H174.581" stroke="#EDEDED" stroke-width="2" stroke-linecap="round" stroke-linejoin="round"/>
<path d="M79.4196 55.8354C79.4205 56.1062 79.341 56.3712 79.1912 56.5968C79.0413 56.8224 78.8278 56.9984 78.5777 57.1027C78.3276 57.207 78.0521 57.2348 77.7862 57.1825C77.5203 57.1303 77.2759 57.0004 77.0839 56.8092C76.8919 56.6181 76.761 56.3744 76.7078 56.1089C76.6546 55.8434 76.6814 55.568 76.7849 55.3178C76.8884 55.0675 77.0639 54.8536 77.2892 54.7031C77.5144 54.5525 77.7794 54.4722 78.0504 54.4722C78.4127 54.4722 78.7602 54.6156 79.0169 54.8712C79.2735 55.1267 79.4183 55.4734 79.4196 55.8354V55.8354Z" fill="#DDDDDD"/>
<path d="M85.7681 55.8354H121.181" stroke="#EDEDED" stroke-width="2" stroke-linecap="round" stroke-linejoin="round"/>
<path d="M78.0504 63.5317C78.8066 63.5317 79.4196 62.9192 79.4196 62.1637C79.4196 61.4081 78.8066 60.7957 78.0504 60.7957C77.2942 60.7957 76.6812 61.4081 76.6812 62.1637C76.6812 62.9192 77.2942 63.5317 78.0504 63.5317Z" fill="#DDDDDD"/>
<path d="M85.7681 62.1638H102.912" stroke="#EDEDED" stroke-width="2" stroke-linecap="round" stroke-linejoin="round"/>
<path d="M79.4196 68.6069C79.4205 68.8777 79.341 69.1426 79.1912 69.3682C79.0413 69.5938 78.8278 69.7699 78.5777 69.8742C78.3276 69.9785 78.0521 70.0063 77.7862 69.954C77.5203 69.9018 77.2759 69.7719 77.0839 69.5807C76.8919 69.3896 76.761 69.1458 76.7078 68.8803C76.6546 68.6148 76.6814 68.3395 76.7849 68.0893C76.8884 67.839 77.0639 67.6251 77.2892 67.4745C77.5144 67.324 77.7794 67.2437 78.0504 67.2437C78.4127 67.2437 78.7602 67.3871 79.0169 67.6426C79.2735 67.8982 79.4183 68.2449 79.4196 68.6069V68.6069Z" fill="#DDDDDD"/>
<path d="M85.7681 68.6069H108.087" stroke="#EDEDED" stroke-width="2" stroke-linecap="round" stroke-linejoin="round"/>
<path d="M211.469 40.9307H152.803V48.1009H211.469V40.9307Z" stroke="#DDDDDD" stroke-linecap="round" stroke-linejoin="round"/>
<path d="M134.399 40.9307H75.7334V48.1009H134.399V40.9307Z" stroke="#DDDDDD" stroke-linecap="round" stroke-linejoin="round"/>
<path d="M289.045 27.2119H51.0249V178.844H289.045V27.2119Z" stroke="#EDEDED" stroke-width="2" stroke-linecap="round" stroke-linejoin="round"/>
<path d="M293.004 179.035H47.061V185.665H293.004V179.035Z" stroke="#DDDDDD" stroke-width="2" stroke-linecap="round" stroke-linejoin="round"/>
<path d="M293.004 20.5823H47.061V27.212H293.004V20.5823Z" stroke="#DDDDDD" stroke-width="2" stroke-linecap="round" stroke-linejoin="round"/>
<path d="M254.681 49.0526C243.559 44.5085 238.044 57.2465 242.233 65.249C243.219 67.1241 243.076 68.65 242.142 70.9268C241.209 73.2037 241.185 74.83 243.708 75.8537C246.231 76.8773 247.346 75.7102 248.28 73.4333C249.213 71.1564 250.195 69.9702 252.196 69.3196C260.804 66.5453 265.807 53.5968 254.681 49.0526Z" fill="#F9F9F9" stroke="#DDDDDD" stroke-linecap="round" stroke-linejoin="round"/>
<path d="M244.957 73.3999C244.311 70.6877 244.526 68.8031 246.47 68.3439C248.414 67.8847 249.975 66.7845 249.122 65.3639C248.27 63.9432 244.737 63.6132 245.704 65.3352C246.671 67.0572 251.76 66.4401 250.568 64.7564C249.376 63.0726 246.532 61.6759 247.696 61.408C248.859 61.1402 252.416 62.7474 251.267 61.4942C248.96 58.9829 251.655 58.452 252.397 55.7542" stroke="#DDDDDD" stroke-linecap="round" stroke-linejoin="round"/>
<path d="M249.707 72.6058C249.314 73.2697 248.974 73.9639 248.692 74.6817C248.479 75.2259 248.222 75.7521 247.926 76.2555C246.863 78.0397 245.441 78.7524 242.927 77.7287C240.414 76.7051 239.911 75.1984 240.404 73.1846C240.543 72.6153 240.729 72.0585 240.96 71.52C241.257 70.8103 241.502 70.0797 241.692 69.334C244.14 70.9076 246.857 72.0167 249.707 72.6058V72.6058Z" fill="#F9F9F9" stroke="#EDEDED" stroke-linecap="round" stroke-linejoin="round"/>
<path d="M249.706 72.6059C249.353 73.1996 249.048 73.8202 248.792 74.4619C248.754 74.5336 248.725 74.6101 248.691 74.6819C248.478 75.226 248.222 75.7522 247.925 76.2556C246.896 76.4852 245.575 76.2939 243.813 75.5716C242.051 74.8493 240.974 74.0648 240.404 73.1799C240.543 72.6107 240.729 72.0539 240.96 71.5153L241.046 71.2905C241.307 70.6529 241.523 69.9975 241.692 69.3293C244.139 70.9046 246.856 72.0154 249.706 72.6059Z" fill="#F9F9F9" stroke="#EDEDED" stroke-linecap="round" stroke-linejoin="round"/>
<path d="M249.706 72.6058C249.353 73.1995 249.048 73.8201 248.792 74.4617C246.022 73.9411 243.387 72.8638 241.046 71.2951C241.307 70.6575 241.523 70.0021 241.692 69.334C244.14 70.9076 246.856 72.0167 249.706 72.6058V72.6058Z" fill="#F9F9F9" stroke="#EDEDED" stroke-linecap="round" stroke-linejoin="round"/>
<path d="M256.572 46.0727L258.673 40.9307" stroke="#DDDDDD" stroke-width="2" stroke-linecap="round" stroke-linejoin="round"/>
<path d="M264.739 53.9651L269.8 53.238" stroke="#DDDDDD" stroke-width="2" stroke-linecap="round" stroke-linejoin="round"/>
<path d="M242.219 46.9576L237.694 42.1121" stroke="#DDDDDD" stroke-width="2" stroke-linecap="round" stroke-linejoin="round"/>
<path d="M249.453 44.9246V41.5093" stroke="#EDEDED" stroke-linecap="round" stroke-linejoin="round"/>
<path d="M237.68 55.1035L233.884 55.6488" stroke="#EDEDED" stroke-linecap="round" stroke-linejoin="round"/>
<path d="M262.786 64.5603L264.184 66.9568" stroke="#EDEDED" stroke-linecap="round" stroke-linejoin="round"/>
<path d="M261.8 49.9711L264.533 48.6748" stroke="#EDEDED" stroke-linecap="round" stroke-linejoin="round"/>
<path d="M70.4621 72.7493H59.2498C58.2835 76.9705 58.5595 81.3809 60.0445 85.449L71.7978 85.2625C71.7978 85.2625 68.6285 78.384 70.4621 72.7493Z" fill="#DDDDDD" stroke="#DDDDDD" stroke-miterlimit="10"/>
<path d="M67.9347 75.9158H62.228" stroke="#F9F9F9" stroke-linecap="round" stroke-linejoin="round"/>
<path d="M67.5709 78.3889H63.2573" stroke="#F9F9F9" stroke-linecap="round" stroke-linejoin="round"/>
<path d="M67.8482 80.7471H61.8687" stroke="#F9F9F9" stroke-linecap="round" stroke-linejoin="round"/>
<path d="M61.9406 54.0369H72.7316C73.5743 57.8205 72.9006 61.7833 70.8549 65.0768L59.1782 64.5985C59.1782 64.5985 62.7401 59.4899 61.9406 54.0369Z" stroke="#DDDDDD" stroke-linecap="round" stroke-linejoin="round"/>
<path d="M63.9131 56.6152H70.9603" stroke="#DDDDDD" stroke-linecap="round" stroke-linejoin="round"/>
<path d="M64.0137 58.978H69.639" stroke="#DDDDDD" stroke-linecap="round" stroke-linejoin="round"/>
<path d="M63.9131 62.0681H66.5701" stroke="#DDDDDD" stroke-linecap="round" stroke-linejoin="round"/>
<path d="M67.1733 62.0681H68.9399" stroke="#DDDDDD" stroke-linecap="round" stroke-linejoin="round"/>
<path d="M88.5257 89.4146L99.3215 89.4385C100.169 93.2181 99.5018 97.1788 97.4639 100.474L85.792 99.9953C85.792 99.9953 89.3252 94.858 88.5257 89.4146Z" stroke="#EDEDED" stroke-linecap="round" stroke-linejoin="round"/>
<path d="M90.498 91.9976H97.5452" stroke="#EDEDED" stroke-linecap="round" stroke-linejoin="round"/>
<path d="M90.5986 94.3557H96.2239" stroke="#EDEDED" stroke-linecap="round" stroke-linejoin="round"/>
<path d="M90.498 97.4456H93.1551" stroke="#EDEDED" stroke-linecap="round" stroke-linejoin="round"/>
<path d="M93.7583 97.4456H95.5249" stroke="#EDEDED" stroke-linecap="round" stroke-linejoin="round"/>
<path d="M178.373 94.9438H189.164C190.005 98.7259 189.332 102.687 187.287 105.979L175.61 105.501C175.61 105.501 179.167 100.387 178.373 94.9438Z" stroke="#EDEDED" stroke-linecap="round" stroke-linejoin="round"/>
<path d="M180.34 97.5269H187.388" stroke="#EDEDED" stroke-linecap="round" stroke-linejoin="round"/>
<path d="M180.441 99.8853H186.066" stroke="#EDEDED" stroke-linecap="round" stroke-linejoin="round"/>
<path d="M180.34 102.975H182.997" stroke="#EDEDED" stroke-linecap="round" stroke-linejoin="round"/>
<path d="M183.601 102.975H185.367" stroke="#EDEDED" stroke-linecap="round" stroke-linejoin="round"/>
<path d="M214.757 53.0181L203.966 53.042C203.125 56.8241 203.799 60.785 205.843 64.0771L217.52 63.5988C217.52 63.5988 213.967 58.4615 214.757 53.0181Z" stroke="#DDDDDD" stroke-linecap="round" stroke-linejoin="round"/>
<path d="M212.795 55.6011H205.748" stroke="#DDDDDD" stroke-linecap="round" stroke-linejoin="round"/>
<path d="M212.694 57.9592H207.074" stroke="#DDDDDD" stroke-linecap="round" stroke-linejoin="round"/>
<path d="M212.795 61.0493H210.138" stroke="#DDDDDD" stroke-linecap="round" stroke-linejoin="round"/>
<path d="M209.535 61.0493H207.768" stroke="#DDDDDD" stroke-linecap="round" stroke-linejoin="round"/>
<path d="M143.898 39.6104V152.502" stroke="#EDEDED" stroke-linecap="round" stroke-linejoin="round"/>
<path d="M200.247 68.0521C197.628 60.3031 196.474 57.5288 194.98 55.8499C193.487 54.1709 189.259 52.3867 189.259 52.3867C189.259 52.3867 187.498 45.5657 185.243 45.7857C182.988 46.0058 186.727 55.0797 186.727 55.0797L184.745 63.9863C185.387 65.0315 185.888 66.1575 186.234 67.3346C187.775 72.3954 192.003 72.8737 193.166 77.1213C193.094 76.8774 200.223 72.6107 200.247 68.0521Z" fill="#FEBD9D"/>
<path d="M200.247 68.0521C197.628 60.3031 196.474 57.5288 194.98 55.8499C193.487 54.1709 189.259 52.3867 189.259 52.3867C189.259 52.3867 187.498 45.5657 185.243 45.7857C182.988 46.0058 186.727 55.0797 186.727 55.0797L184.745 63.9863C185.387 65.0315 185.888 66.1575 186.234 67.3346C187.775 72.3954 192.003 72.8737 193.166 77.1213C193.094 76.8774 200.223 72.6107 200.247 68.0521Z" fill="#FEBD9D"/>
<path d="M194.985 55.8499C193.501 54.1422 189.264 52.3867 189.264 52.3867C189.264 52.3867 187.502 45.5657 185.247 45.7857C182.992 46.0058 186.731 55.0797 186.731 55.0797L184.749 63.9863" stroke="#EF8A66" stroke-width="0.75" stroke-linecap="round" stroke-linejoin="round"/>
<path d="M182.509 60.4992C184.371 59.0259 187.564 64.4215 185.635 65.8948C184.251 66.9519 180.737 61.8816 182.509 60.4992Z" fill="#FEBD9D" stroke="#EF8A66" stroke-miterlimit="10"/>
<path d="M189.264 52.3866C187.78 51.8031 187.593 54.3 188.89 55.2566C190.188 56.2133 191.016 56.4142 191.203 57.0169C191.389 57.6196 191.758 59.509 191.758 59.509C191.342 60.7028 191.183 61.9709 191.291 63.2304C191.399 64.4898 191.772 65.7124 192.385 66.818" stroke="#EF8A66" stroke-width="0.75" stroke-linecap="round" stroke-linejoin="round"/>
<path d="M183.902 57.4139C185.764 55.9407 189.709 62.6756 187.78 64.1393C186.401 65.1916 182.131 58.8107 183.902 57.4139Z" fill="#FEBD9D" stroke="#EF8A66" stroke-miterlimit="10"/>
<path d="M185.52 55.2328C187.383 53.7595 191.332 60.4944 189.403 61.9581C188.024 63.0105 183.754 56.6199 185.52 55.2328Z" fill="#FEBD9D" stroke="#EF8A66" stroke-miterlimit="10"/>
<path d="M193.429 82.0291L190.916 77.1262C190.916 77.1262 197.063 72.9216 200.246 68.0378L202.358 71.5727C202.358 71.5727 199.835 82.6557 193.429 82.0291Z" fill="white"/>
<path d="M230.173 105.659C221.599 93.3129 210.616 81.1632 209.055 79.4651C208.229 78.4903 207.068 77.8591 205.8 77.6953L201.97 70.8982C201.97 70.8982 197.79 77.1165 190.916 80.4649L194.391 87.1233C194.391 87.1233 193.328 87.9316 195.665 92.8346C198.001 97.7375 207.045 116.464 211.617 120.181C222.551 129.068 241.443 121.889 230.173 105.659Z" fill="#2BDA88"/>
<path d="M199.959 83.3254L196.091 77.1262" stroke="#1E6142" stroke-width="0.75" stroke-linecap="round" stroke-linejoin="round"/>
<path d="M197.652 84.8655L193.851 78.7764" stroke="#1E6142" stroke-width="0.75" stroke-linecap="round" stroke-linejoin="round"/>
<path d="M200.247 73.0938L204.326 79.6326" stroke="#1E6142" stroke-width="0.75" stroke-linecap="round" stroke-linejoin="round"/>
<path d="M198.202 75.1553L202.286 81.6941" stroke="#1E6142" stroke-width="0.75" stroke-linecap="round" stroke-linejoin="round"/>
<path d="M230.173 105.659C221.599 93.3129 210.616 81.1632 209.056 79.4651C208.229 78.4903 207.068 77.8591 205.8 77.6953L201.97 70.8982" stroke="#1E6142" stroke-width="0.75" stroke-linecap="round" stroke-linejoin="round"/>
<path d="M310.12 222.64H262.781V185.373L305.117 184.785C308.377 198.527 310.12 222.64 310.12 222.64Z" fill="#683F1D"/>
<path d="M285.828 222.64C285.828 222.64 284.277 207.63 284.119 206.2C284.073 205.821 283.903 205.468 283.637 205.195C283.371 204.922 283.022 204.744 282.644 204.688C281.736 204.501 280.8 204.501 279.892 204.688" stroke="#91613D" stroke-width="0.75" stroke-linecap="round" stroke-linejoin="round"/>
<path d="M313.528 132.115C312.772 144.595 310.177 163.996 308.382 176.356C307.372 183.316 306.63 188.047 306.63 188.047C306.63 188.047 276.339 189.224 268.109 189.003C259.88 188.783 258.98 188.176 258.98 184.861C258.98 181.546 259.119 140.151 259.119 140.151C259.119 140.151 218.482 125.801 212.632 120.927C206.782 116.053 213.786 100.033 228.828 103.32C232.61 104.147 236.368 104.989 240.208 105.836C251.621 108.366 263.729 110.911 278.91 113.063C295.398 115.417 305.72 115.551 312.767 120.181C313.811 120.865 313.931 125.529 313.528 132.115Z" fill="#2BDA88"/>
<path d="M302.589 144.662C296.188 148.718 296.174 154.425 298.677 158.845C304.451 169.019 287.666 162.408 286.943 175.027L311.245 169.258L302.589 144.662Z" fill="#2BDA88"/>
<path d="M322.414 136.023C319.638 134.339 316.65 133.031 313.529 132.134C308.363 130.699 303.379 131.001 300.071 134.407C299.479 135.014 298.963 135.69 298.534 136.42C290.247 150.292 267.075 147.762 262.781 133.134C259.128 120.697 253.493 112.968 240.208 105.869C251.621 108.366 263.729 110.911 278.91 113.063C295.398 115.417 305.72 115.551 312.767 120.181C316.032 121.558 319.436 127.863 322.414 136.023Z" fill="#30EE95"/>
<path d="M280.457 112.159C275.056 112.159 270.676 115.608 270.676 119.856C270.676 122.247 272.064 124.39 274.247 125.801C275.303 126.481 276.472 126.967 277.699 127.236C278.603 127.446 279.529 127.55 280.457 127.547C280.663 127.547 280.864 127.547 281.065 127.547C282.366 127.491 283.649 127.217 284.861 126.739C286.008 126.302 287.063 125.653 287.968 124.825C288.669 124.204 289.234 123.444 289.626 122.594C290.018 121.743 290.23 120.821 290.247 119.884C290.247 115.608 285.867 112.159 280.457 112.159ZM283.698 123.587C282.742 123.882 281.749 124.043 280.749 124.065H280.457C279.673 124.068 278.892 123.988 278.125 123.826C277.139 123.634 276.194 123.274 275.329 122.764C273.941 121.927 273.079 120.75 273.079 119.449C273.079 116.895 276.382 114.828 280.457 114.828C284.531 114.828 287.839 116.895 287.839 119.449C287.839 120.573 287.197 121.601 286.125 122.405C285.391 122.938 284.57 123.337 283.698 123.587V123.587Z" stroke="#1E6142" stroke-width="0.75" stroke-linecap="round" stroke-linejoin="round"/>
<path d="M275.593 110.193C273.764 110.543 271.729 111.15 270.709 112.901C269.69 114.651 269.642 121.946 270.575 122.745C271.509 123.544 272.754 119.727 278.321 117.866L275.593 110.193Z" fill="white"/>
<path d="M283.003 118.21L288.686 109.237C288.686 109.237 291.702 110.834 292.191 113.719C292.679 116.603 291.358 126.06 288.964 123.663C287.264 121.989 287.647 120.607 283.003 118.21Z" fill="white"/>
<path d="M274.247 125.801L275.329 122.75" stroke="#1E6142" stroke-width="0.75" stroke-linecap="round" stroke-linejoin="round"/>
<path d="M277.699 127.241L278.125 123.812" stroke="#1E6142" stroke-width="0.75" stroke-linecap="round" stroke-linejoin="round"/>
<path d="M281.064 127.538L280.749 124.046" stroke="#1E6142" stroke-width="0.75" stroke-linecap="round" stroke-linejoin="round"/>
<path d="M284.861 126.729L283.698 123.577" stroke="#1E6142" stroke-width="0.75" stroke-linecap="round" stroke-linejoin="round"/>
<path d="M287.968 124.797L286.125 122.391" stroke="#1E6142" stroke-width="0.75" stroke-linecap="round" stroke-linejoin="round"/>
<path d="M289.548 110.452C289.591 111.571 287.307 118.928 280.968 119.54C274.63 120.152 273.701 113.255 273.739 111.442C273.739 110.71 273.821 109.418 273.912 107.802C274.036 105.582 274.204 102.755 274.328 99.9522L274.357 99.3399C275.056 83.0766 289.031 86.3245 288.159 94.944C287.628 100.258 289.495 109.337 289.548 110.452Z" fill="#FEBD9D"/>
<path d="M273.912 107.802C274.037 105.582 274.204 102.755 274.329 99.9522L282.07 98.7563C282.352 103.688 279.968 107.931 273.912 107.802Z" fill="#F4A789"/>
<path d="M305.241 167.957C305.241 167.861 305.189 167.766 305.165 167.665C302.996 158.955 301.196 149.842 300.439 141.888" stroke="#1E6142" stroke-width="0.75" stroke-linecap="round" stroke-linejoin="round"/>
<path d="M269.814 157.022C269.115 153.99 270.944 153.1 272.538 152.555C272.39 151.698 272.706 150.311 274.606 150.015C276.406 149.732 277.053 151.502 277.053 151.502C277.053 151.502 280.84 150.22 281.797 154.071L269.814 157.022Z" fill="#DDDDDD"/>
<path d="M260.617 157.869L289.222 151.263L300.071 197.188L271.217 202.99L260.617 157.869Z" fill="#F9F9F9" stroke="#DDDDDD" stroke-linecap="round" stroke-linejoin="round"/>
<path d="M273.644 152.344C273.643 152.599 273.718 152.848 273.859 153.06C274 153.272 274.2 153.438 274.436 153.536C274.671 153.634 274.93 153.66 275.18 153.611C275.43 153.562 275.66 153.44 275.841 153.26C276.021 153.081 276.145 152.851 276.195 152.602C276.245 152.352 276.219 152.093 276.122 151.857C276.025 151.622 275.86 151.421 275.648 151.279C275.436 151.138 275.187 151.062 274.932 151.062C274.591 151.062 274.264 151.197 274.023 151.437C273.782 151.677 273.645 152.004 273.644 152.344V152.344Z" fill="#F9F9F9" stroke="#DDDDDD" stroke-linecap="round" stroke-linejoin="round"/>
<path d="M331.094 177.318C331.103 178.228 331.061 179.138 330.969 180.044V180.178C330.939 180.362 330.897 180.545 330.845 180.724C329.676 184.55 322.285 188.162 315.419 184.191C314.817 183.843 314.241 183.451 313.696 183.019C311.472 181.185 309.66 178.903 308.377 176.323C307.01 173.665 305.957 170.858 305.241 167.957C305.241 167.861 305.188 167.765 305.164 167.665C302.292 156.051 300.032 143.72 300.051 134.387C300.051 123.137 303.369 116.239 312.767 120.19C316.013 121.558 319.417 127.844 322.395 136.004C324.915 143.075 326.948 150.31 328.48 157.658C330.136 165.297 331.094 172.463 331.094 177.318Z" fill="#2BDA88"/>
<path d="M330.988 180.059V180.192C330.958 180.377 330.916 180.559 330.864 180.738C329.696 184.564 322.304 188.176 315.438 184.206C314.836 183.857 314.26 183.465 313.715 183.034C315.809 181.954 318.165 181.485 320.513 181.68C333.147 182.819 319.742 168.875 328.513 157.658C330.126 165.312 331.113 172.463 331.127 177.318C331.187 178.234 331.141 179.153 330.988 180.059V180.059Z" fill="#2BDA88"/>
<path d="M322.414 136.023C319.638 134.339 316.649 133.031 313.528 132.134C308.362 130.699 303.378 131.001 300.07 134.406C300.07 123.156 303.388 116.258 312.786 120.209C316.032 121.558 319.436 127.863 322.414 136.023Z" fill="#30EE95"/>
<path d="M274.635 177.523C273.854 177.045 269.234 174.376 267.894 174.29C266.553 174.204 263.695 176.179 263.695 176.179C263.695 176.179 258.022 176.514 257.395 177.523C256.768 178.533 258.041 179.953 259.018 180.46C259.994 180.967 259.075 182.01 259.2 182.852C259.324 183.694 260.377 184.287 260.502 184.866C260.626 185.445 260.081 187.023 261.383 187.411C262.685 187.798 261.862 188.597 262.517 189.73C263.173 190.864 267.181 190.654 277.359 188.64L274.635 177.523Z" fill="#FEBD9D"/>
<path d="M267.899 174.29C266.553 174.208 263.7 176.179 263.7 176.179C263.7 176.179 258.027 176.514 257.4 177.523C256.773 178.533 258.046 179.953 259.023 180.46C259.999 180.967 259.08 182.01 259.205 182.852C259.329 183.694 260.382 184.287 260.507 184.866C260.631 185.445 260.086 187.023 261.388 187.41C262.69 187.798 261.866 188.597 262.522 189.73C262.786 190.175 263.566 190.414 265.031 190.414" stroke="#EF8A66" stroke-width="0.75" stroke-linecap="round" stroke-linejoin="round"/>
<path d="M273.921 176.605L275.966 189.673L280.279 189.037L278.939 176.285L273.921 176.605Z" fill="white"/>
<path d="M330.974 180.193C330.936 180.374 330.898 180.561 330.85 180.738C329.71 185.22 324.904 188.119 311.728 189.037C310.579 189.12 309.442 189.193 308.315 189.257C292.688 190.185 279.173 189.917 279.173 189.917L277.139 175.955C284.224 173.855 295.997 169.875 305.26 167.957C309.09 167.168 312.466 166.723 314.931 166.904C317.74 167.057 320.523 167.514 323.233 168.268C323.954 168.475 324.661 168.73 325.349 169.028C328.518 170.463 330.649 172.721 331.051 176.404C331.084 176.71 331.108 177.016 331.132 177.308C331.194 178.273 331.141 179.241 330.974 180.193Z" fill="#2BDA88"/>
<path d="M314.931 166.904C312.466 166.723 309.076 167.168 305.26 167.957C295.997 169.87 284.224 173.855 277.139 175.955L279.173 189.917" stroke="#1E6142" stroke-width="0.75" stroke-linecap="round" stroke-linejoin="round"/>
<path d="M277.383 177.61L285.675 176.285" stroke="#1E6142" stroke-width="0.75" stroke-linecap="round" stroke-linejoin="round"/>
<path d="M277.775 180.293L285.833 179.289" stroke="#1E6142" stroke-width="0.75" stroke-linecap="round" stroke-linejoin="round"/>
<path d="M278.072 182.355L286.029 181.68" stroke="#1E6142" stroke-width="0.75" stroke-linecap="round" stroke-linejoin="round"/>
<path d="M278.513 185.378L286.192 184.785" stroke="#1E6142" stroke-width="0.75" stroke-linecap="round" stroke-linejoin="round"/>
<path d="M278.938 187.841L286.469 187.085" stroke="#1E6142" stroke-width="0.75" stroke-linecap="round" stroke-linejoin="round"/>
<path d="M263.695 176.203C265.749 175.993 267.597 175.907 267.597 175.907" stroke="#EF8A66" stroke-width="0.75" stroke-linecap="round" stroke-linejoin="round"/>
<path d="M330.974 180.193C330.944 180.377 330.903 180.559 330.85 180.738C329.71 185.22 324.904 188.119 311.728 189.037C310.579 189.12 309.442 189.193 308.315 189.257C311.245 182.015 317.751 181.431 320.499 181.68C328.959 182.446 325.765 176.452 325.33 169.038C328.499 170.473 330.629 172.731 331.032 176.414C331.065 176.72 331.089 177.026 331.113 177.318C331.181 178.278 331.134 179.243 330.974 180.193V180.193Z" fill="#2BDA88"/>
<path d="M287.245 84.1528C286.931 86.4728 286.371 88.7529 285.574 90.9547C284.334 94.1786 282.328 96.996 279.058 96.9721C278.713 96.9676 278.369 96.9356 278.029 96.8764L269.335 93.3128C269.335 93.3128 269.373 93.1454 269.459 92.8345C270.07 90.723 270.964 88.7037 272.116 86.8314C272.217 86.6736 272.327 86.5157 272.432 86.3531C274.501 83.22 276.569 80.7135 276.569 80.7135C276.569 80.7135 276.689 77.7144 279.14 77.2743C281.591 76.8343 287.925 79.5799 287.245 84.1528Z" fill="#FEBD9D"/>
<path d="M285.574 90.9546C284.334 94.1786 282.328 96.9959 279.058 96.972C278.467 96.5949 277.97 96.0872 277.606 95.4882C277.242 94.8892 277.02 94.2147 276.958 93.5167C276.896 92.8186 276.995 92.1156 277.247 91.4617C277.499 90.8078 277.898 90.2204 278.413 89.7447C278.928 89.269 279.546 88.9177 280.218 88.7177C280.89 88.5178 281.6 88.4746 282.291 88.5915C282.983 88.7084 283.638 88.9821 284.207 89.3918C284.776 89.8015 285.244 90.3361 285.574 90.9546V90.9546Z" fill="#F4AF90"/>
<path d="M272.753 88.9696C272.753 89.8995 272.424 90.7994 271.823 91.5102C271.223 92.2209 270.391 92.6968 269.474 92.8537C270.085 90.7422 270.978 88.7229 272.131 86.8506C272.538 87.4823 272.754 88.2181 272.753 88.9696V88.9696Z" fill="#F4AF90"/>
<path d="M292.865 84.7698C292.473 85.8891 291.137 89.3379 290.4 91.2369C290.098 92.007 289.892 92.5236 289.892 92.5236L287.776 91.7535L286.259 91.2034L285.722 91.012C285.722 91.012 285.722 91.2369 285.665 91.6291C285.512 93.0858 285.232 94.5263 284.827 95.9341C284.348 97.6861 283.566 99.3406 282.515 100.823C279.642 104.649 272.183 104.257 268.741 101.301C266.347 99.225 266.826 95.4271 268.909 91.476C269.896 89.6511 271.083 87.941 272.447 86.377C272.447 86.377 270.766 90.3137 270.493 91.1603C270.163 92.2174 271.403 92.117 271.882 91.2177C272.361 90.3185 273.285 89.6966 275.966 90.4141C278.647 91.1316 279.738 92.5188 279.24 94.456C278.948 95.5993 281.074 95.9963 282.639 94.4895C282.773 94.3614 282.898 94.224 283.013 94.0782C283.228 93.8125 283.412 93.5237 283.563 93.2172C285 90.2945 285.837 85.8221 285.919 84.0619C284.315 84.1623 282.931 82.9426 283.841 81.4262C281.96 82.2155 280.562 80.8666 280.882 79.0681C280.068 80.3452 278.24 80.2639 278.01 78.7524L276.574 80.7135C276.297 79.9706 276.167 79.1812 276.191 78.3888C276.296 75.9972 278.331 75.1266 279.939 75.6767C280.188 73.9499 284.248 73.6055 284.545 76.0737C285.416 74.4665 288.303 74.7965 288.375 77.2791C288.75 77.0754 289.181 76.997 289.604 77.0554C290.027 77.1138 290.42 77.3059 290.726 77.6036C291.032 77.9013 291.235 78.289 291.304 78.71C291.374 79.1309 291.307 79.5632 291.113 79.9434C292.43 79.6564 293.272 81.3784 292.138 82.6125C292.152 82.6364 293.426 83.1961 292.865 84.7698Z" fill="#BF8228"/>
<path d="M278.91 86.755C278.91 86.8817 278.947 87.0057 279.018 87.1111C279.088 87.2165 279.188 87.2986 279.306 87.3472C279.423 87.3957 279.552 87.4084 279.676 87.3836C279.801 87.3589 279.915 87.2979 280.005 87.2082C280.095 87.1186 280.156 87.0044 280.18 86.88C280.205 86.7557 280.192 86.6268 280.144 86.5097C280.095 86.3926 280.013 86.2925 279.908 86.222C279.802 86.1516 279.678 86.114 279.551 86.114C279.381 86.114 279.218 86.1815 279.098 86.3017C278.977 86.422 278.91 86.585 278.91 86.755V86.755Z" fill="#683F1D"/>
<path d="M274.807 85.3821C274.806 85.5092 274.843 85.6338 274.913 85.7399C274.983 85.8461 275.084 85.929 275.201 85.9781C275.318 86.0272 275.448 86.0403 275.573 86.0157C275.698 85.9911 275.812 85.93 275.902 85.84C275.992 85.7501 276.053 85.6355 276.078 85.5107C276.103 85.3859 276.09 85.2566 276.04 85.1393C275.991 85.022 275.908 84.922 275.802 84.8519C275.696 84.7818 275.571 84.7449 275.444 84.7459C275.275 84.7471 275.114 84.8145 274.995 84.9336C274.876 85.0526 274.808 85.2137 274.807 85.3821V85.3821Z" fill="#683F1D"/>
<path d="M280.203 83.3779C279.872 84.5211 283.228 85.6499 283.372 84.9516C283.477 84.4493 280.691 81.6846 280.203 83.3779Z" fill="#BF8228"/>
<path d="M275.444 81.8616C275.248 82.4739 278.067 83.531 278.398 82.5026C278.79 81.278 275.616 81.3354 275.444 81.8616Z" fill="#BF8228"/>
<path d="M287.777 91.7534L285.723 91.012C285.594 92.6837 285.294 94.3378 284.827 95.9484C284.162 96.0488 283.391 95.6996 282.64 94.5134C283.019 94.146 283.332 93.7155 283.563 93.241C285 90.3184 285.838 85.846 285.919 84.0857C284.315 84.1862 282.932 82.9664 283.841 81.4501C281.96 82.2393 280.562 80.8904 280.882 79.0919C280.069 80.369 278.24 80.2877 278.01 78.7762L276.574 80.7374C276.297 79.9945 276.167 79.205 276.191 78.4127C276.966 77.6234 278.029 77.0781 278.92 77.3508C278.92 77.3508 281.261 77.9152 282.084 76.7959C281.629 78.5944 283.468 80.3069 285.636 79.5702C285.636 79.5702 286.393 82.8373 289.04 82.8325C289.04 82.8325 288.753 85.7551 290.266 86.023C291.41 86.2191 289.098 89.5148 287.777 91.7534Z" fill="#B57724"/>
<path d="M285.665 91.6291C285.512 93.0858 285.232 94.5263 284.827 95.9341C284.348 97.6861 283.566 99.3407 282.515 100.823C279.642 104.649 272.183 104.257 268.741 101.301C266.347 99.2251 266.826 95.4271 268.909 91.4761C269.206 98.3115 275.707 102.229 282.639 94.5135L283.013 94.1021C283.826 93.2051 284.713 92.3779 285.665 91.6291V91.6291Z" fill="#B57724"/>
<path d="M290.4 91.2369C290.098 92.007 289.893 92.5236 289.893 92.5236L287.776 91.7535L286.259 91.2034C288.605 89.6488 289.797 90.3185 290.4 91.2369Z" fill="#B57724"/>
<path d="M284.914 95.628C285.331 94.1189 285.602 92.5731 285.723 91.0121C287.044 89.8162 289.361 89.8545 290.419 91.1843C290.709 91.5537 290.893 91.9953 290.951 92.4614C291.358 95.3649 288.93 98.4214 284.914 95.628Z" fill="#FEBD9D"/>
<path d="M287.954 96.7281C286.849 96.6922 285.785 96.307 284.914 95.6279" stroke="#EF8A66" stroke-width="0.75" stroke-linecap="round" stroke-linejoin="round"/>
<path d="M273.734 88.2807C273.945 87.0657 274.62 87.0657 275.894 86.8457C277.167 86.6256 278.153 85.492 278.014 84.344" stroke="#EF8A66" stroke-width="0.75" stroke-linecap="round" stroke-linejoin="round"/>
<path d="M286.594 92.9732C286.8 92.7448 287.057 92.5684 287.344 92.4583C287.631 92.3482 287.94 92.3076 288.246 92.3398C288.552 92.372 288.846 92.4761 289.103 92.6435C289.361 92.811 289.576 93.037 289.73 93.3032" stroke="#EF8A66" stroke-width="0.75" stroke-linecap="round" stroke-linejoin="round"/>
<path d="M287.202 92.5428C289.375 92.3371 289.045 95.5993 286.943 94.9966" stroke="#EF8A66" stroke-width="0.75" stroke-linecap="round" stroke-linejoin="round"/>
<path d="M267.597 99.7752C269.646 98.4024 272.385 99.096 274.592 101.067C277.526 103.688 282.324 101.067 282.324 101.067" stroke="#9B621F" stroke-width="0.75" stroke-linecap="round" stroke-linejoin="round"/>
<path d="M284.497 96.9722C283.3 97.9288 278.752 100.564 275.477 98.1297C272.202 95.695 267.262 98.7468 267.262 98.7468" stroke="#9B621F" stroke-width="0.75" stroke-linecap="round" stroke-linejoin="round"/>
<path d="M267.353 95.5276C268.411 94.571 272.265 92.5285 274.774 95.255C277.282 97.9815 280.552 95.4894 280.552 95.4894" stroke="#9B621F" stroke-width="0.75" stroke-linecap="round" stroke-linejoin="round"/>
<path d="M271.729 91.4761C272.337 92.141 276.684 93.6668 279.211 92.7437" stroke="#9B621F" stroke-width="0.75" stroke-linecap="round" stroke-linejoin="round"/>
<path d="M278 78.7764C277.732 77.4036 278.958 75.7916 279.949 75.7007" stroke="#9B621F" stroke-width="0.75" stroke-linecap="round" stroke-linejoin="round"/>
<path d="M280.882 79.1016C281.079 78.011 282.381 75.3945 284.234 75.2749" stroke="#9B621F" stroke-width="0.75" stroke-linecap="round" stroke-linejoin="round"/>
<path d="M283.841 81.4502C284.32 79.3264 285.722 77.04 287.953 76.0977" stroke="#9B621F" stroke-width="0.75" stroke-linecap="round" stroke-linejoin="round"/>
<path d="M285.919 84.0857C286.216 81.7658 289.428 79.8476 291.128 79.9672" stroke="#9B621F" stroke-width="0.75" stroke-linecap="round" stroke-linejoin="round"/>
<path d="M285.411 87.5012C287.494 85.7122 291.103 84.1289 293.009 83.9998" stroke="#9B621F" stroke-width="0.75" stroke-linecap="round" stroke-linejoin="round"/>
<path d="M273.974 92.0645C275.855 92.471 277.962 92.251 277.895 92.3371C277.828 92.4232 277.502 95.2071 275.444 94.9153C273.385 94.6235 273.974 92.0645 273.974 92.0645Z" fill="white" stroke="#EF8A66" stroke-width="0.75" stroke-linecap="round" stroke-linejoin="round"/>
<path d="M220.091 101.072C221.383 97.4697 223.088 93.8152 223.883 94.2983C225.228 95.1163 222.561 102.119 222.561 102.119L220.091 101.072Z" fill="#FEBD9D" stroke="#934735" stroke-width="0.75" stroke-miterlimit="10"/>
<path d="M218.425 101.894C218.425 101.669 219.22 91.3709 220.723 91.6053C222.762 91.9114 221.139 102.129 221.139 102.129L218.425 101.894Z" fill="#FEBD9D" stroke="#934735" stroke-width="0.75" stroke-miterlimit="10"/>
<path d="M215.964 103.348C215.907 93.0306 216.108 90.3759 217.362 90.3711C219.095 90.3711 219.32 102.258 219.32 102.258L215.964 103.348Z" fill="#FEBD9D" stroke="#934735" stroke-width="0.75" stroke-miterlimit="10"/>
<path d="M221.752 102.722C221.45 107.596 221.307 110.184 221.307 110.184C221.307 110.184 216.941 112.575 216.658 106.72C216.376 100.866 221.752 102.722 221.752 102.722Z" fill="#FEBD9D" stroke="#934735" stroke-width="0.75" stroke-miterlimit="10"/>
<path d="M196.79 133.043C191.021 141.591 183.974 153.473 189.666 157.285C195.359 161.097 202.942 159.543 207.476 149.058C212.01 138.573 217.601 120.319 218.722 118.521C219.842 116.722 222.446 114.608 224.127 111.135C225.807 107.663 226.611 107.471 226.042 106.481C225.472 105.491 224.055 105.859 223.308 106.96C222.561 108.06 220.574 110.188 219.454 109.567C218.334 108.945 217.86 107.691 217.841 106.156C217.822 104.621 218.736 102.97 220.493 103.506C222.25 104.042 223.059 106.343 224.548 105.534C226.037 104.726 222.872 101.626 221.752 100.631C220.632 99.6363 219.765 100.32 217.922 100.942C216.079 101.564 215.5 101.626 214.571 103.812C213.642 105.998 210.099 113.154 209.539 114.455C208.979 115.756 202.195 125.021 196.79 133.043Z" fill="#FEBD9D"/>
<path d="M224.127 111.15C225.802 107.672 226.611 107.486 226.042 106.496C225.472 105.506 224.055 105.874 223.308 106.974C222.561 108.074 220.574 110.203 219.454 109.581C218.334 108.959 217.86 107.706 217.841 106.17C217.822 104.635 218.736 102.985 220.493 103.52C222.25 104.056 223.059 106.357 224.548 105.549C226.037 104.74 222.872 101.641 221.752 100.646C220.632 99.6507 219.765 100.335 217.922 100.957C216.079 101.578 215.5 101.641 214.571 103.827" stroke="#934735" stroke-width="0.75" stroke-linecap="round" stroke-linejoin="round"/>
<path d="M195.363 135.191C194.372 136.712 193.376 138.3 192.443 139.902" stroke="#934735" stroke-width="0.75" stroke-linecap="round" stroke-linejoin="round"/>
<path d="M108.192 141.17C106.613 143.624 109.868 145.475 112.808 147.389C115.747 149.302 116.518 140.596 116.518 140.596C116.518 140.596 109.064 139.817 108.192 141.17Z" fill="#F7AD2B"/>
<path d="M196.134 130.537C197.13 131.283 195.655 133.766 192.826 136.526L190.504 133.531C190.504 133.531 193.812 129.681 196.134 130.537Z" fill="#F7AD2B"/>
<path d="M191.442 131.283C198.068 138.291 205.757 147.513 201.673 154.516C197.59 161.518 187.842 157.802 181.944 152.43C181.944 152.43 177.142 143.198 191.442 131.283Z" fill="#FEBD9D"/>
<path d="M112.75 140.974C110.203 146.623 102.835 159.242 110.644 164.446C118.452 169.65 127.951 151.392 127.951 151.392C127.951 151.392 125.049 140.477 112.75 140.974Z" fill="#FEBD9D"/>
<path d="M196.134 130.537C190.79 134.491 186.603 139.803 184.007 145.92C183.077 148.006 182.385 150.19 181.944 152.43C180.412 151.32 176.792 148.603 176.792 148.603C176.524 150.292 176.175 152.234 175.835 154.195C174.787 159.825 173.58 165.565 173.58 165.565H137.765L137.162 163.174L132.479 144.633L127.95 151.383C127.859 151.273 127.768 151.167 127.668 151.067C122.402 145.38 108.192 141.161 108.192 141.161C112.053 134.654 116.661 128.619 121.923 123.18C123.463 121.609 125.082 120.116 126.773 118.708C129.14 116.834 131.737 115.268 134.5 114.049C137.641 112.623 140.897 111.463 144.233 110.581C144.233 110.581 144.309 102.966 145.142 93.9635C145.511 89.9024 153.76 89.1084 155.675 96.0155C157.59 102.923 159.026 107.362 159.026 107.362C161.086 107.058 163.169 106.947 165.25 107.032C167.888 107.137 170.889 107.62 173.24 108.974C174.504 109.705 177.027 111.891 179.943 114.604C186.908 121.075 196.134 130.537 196.134 130.537Z" fill="#FED81D"/>
<path d="M184.007 145.92C183.077 148.006 182.385 150.19 181.944 152.43C180.412 151.32 176.793 148.604 176.793 148.604C177.864 143.362 178.394 138.025 178.372 132.675C178.36 130.32 177.796 128 176.726 125.902C180.048 127.772 182.806 129.81 181.192 134.249C179.665 138.362 179.9 145.231 184.007 145.92Z" fill="#FCC71F"/>
<path d="M149.264 164.589L137.162 163.154L132.479 144.633C133.766 142.523 134.887 140.316 135.831 138.032C140.666 143.772 130.478 150.469 146.33 153.961C154.239 155.711 149.264 164.589 149.264 164.589Z" fill="#FCC71F"/>
<path d="M179.957 114.613C175.759 114.996 171.68 118.191 169.118 126.729C164.503 142.117 147.632 140.309 141.83 129.661C137.286 121.319 131.69 120.382 121.914 123.19C123.454 121.618 125.073 120.126 126.763 118.717C129.131 116.843 131.727 115.278 134.49 114.058C137.632 112.632 140.888 111.472 144.223 110.59C144.223 110.59 144.3 102.975 145.133 93.973C145.502 89.9119 153.75 89.1179 155.665 96.025C157.58 102.932 159.017 107.371 159.017 107.371C161.076 107.067 163.16 106.957 165.24 107.041C167.878 107.146 170.88 107.629 173.231 108.983C174.514 109.715 177.037 111.901 179.957 114.613Z" fill="#FFE05C"/>
<path d="M165.26 107.041C165.336 112.202 160.86 115.651 155.723 116.459C150.586 117.268 142.064 116.665 134.5 114.068C137.642 112.642 140.897 111.482 144.233 110.6C144.233 110.6 144.31 102.985 145.143 93.9825C145.511 89.9215 153.76 89.1274 155.675 96.0346C156.111 97.5891 156.523 99.0194 156.891 100.301C157.681 103.004 158.299 105.056 158.663 106.233C158.892 106.979 159.022 107.381 159.022 107.381C161.086 107.073 163.174 106.959 165.26 107.041V107.041Z" fill="#FEBD9D"/>
<path d="M158.672 106.223C154.133 106.587 151.491 103.898 151.524 100.306C151.524 100.306 154.703 100.306 156.901 100.306C157.691 103.018 158.308 105.046 158.672 106.223Z" fill="#F4AF90"/>
<path d="M177.611 222.64H128.582C128.582 222.64 126.596 198.312 129.578 185.373C130.784 180.174 132.384 175.075 134.366 170.119C135.23 167.898 136.204 165.722 137.286 163.599L173.585 165.57C173.949 167.034 174.279 168.555 174.585 170.119C178.851 192.151 177.611 222.64 177.611 222.64Z" fill="#A7CAF0"/>
<path d="M140.446 192.426C142.144 190.574 142.018 187.696 140.164 185.999C138.31 184.302 135.43 184.428 133.731 186.281C132.033 188.133 132.159 191.011 134.013 192.708C135.867 194.405 138.747 194.279 140.446 192.426Z" stroke="white" stroke-miterlimit="10"/>
<path d="M144.863 223.431C146.641 221.655 146.641 218.775 144.863 216.998C143.085 215.222 140.202 215.222 138.424 216.998C136.646 218.775 136.646 221.655 138.424 223.431C140.202 225.208 143.085 225.208 144.863 223.431Z" stroke="white" stroke-miterlimit="10"/>
<path d="M163.64 193.433C165.418 191.656 165.418 188.776 163.64 186.999C161.862 185.223 158.979 185.223 157.201 186.999C155.423 188.776 155.423 191.656 157.201 193.433C158.979 195.209 161.862 195.209 163.64 193.433Z" stroke="white" stroke-miterlimit="10"/>
<path d="M165.27 225.952C167.718 225.377 169.236 222.928 168.66 220.483C168.085 218.037 165.634 216.521 163.186 217.096C160.738 217.671 159.22 220.119 159.796 222.565C160.371 225.011 162.822 226.527 165.27 225.952Z" stroke="white" stroke-miterlimit="10"/>
<path d="M159.08 176.724C161.527 176.144 163.04 173.693 162.459 171.248C161.879 168.804 159.426 167.292 156.979 167.872C154.532 168.451 153.019 170.903 153.599 173.347C154.179 175.792 156.633 177.304 159.08 176.724Z" stroke="white" stroke-miterlimit="10"/>
<path d="M151.51 207.711C153.044 207.711 154.287 206.469 154.287 204.937C154.287 203.404 153.044 202.162 151.51 202.162C149.977 202.162 148.733 203.404 148.733 204.937C148.733 206.469 149.977 207.711 151.51 207.711Z" stroke="white" stroke-miterlimit="10"/>
<path d="M177.339 200.742C178.872 200.742 180.116 199.5 180.116 197.967C180.116 196.435 178.872 195.193 177.339 195.193C175.805 195.193 174.562 196.435 174.562 197.967C174.562 199.5 175.805 200.742 177.339 200.742Z" stroke="white" stroke-miterlimit="10"/>
<path d="M178.037 178.365C178.037 178.914 177.875 179.45 177.569 179.907C177.264 180.363 176.831 180.719 176.323 180.929C175.816 181.139 175.258 181.193 174.719 181.086C174.18 180.979 173.686 180.715 173.297 180.327C172.909 179.939 172.644 179.445 172.537 178.907C172.43 178.368 172.485 177.811 172.695 177.304C172.905 176.797 173.261 176.363 173.718 176.059C174.175 175.754 174.711 175.591 175.261 175.591C175.997 175.591 176.703 175.883 177.224 176.404C177.745 176.924 178.037 177.63 178.037 178.365V178.365Z" stroke="white" stroke-miterlimit="10"/>
<path d="M131.934 206.391C131.934 206.94 131.771 207.476 131.466 207.932C131.161 208.389 130.727 208.744 130.22 208.954C129.712 209.164 129.154 209.219 128.615 209.112C128.077 209.005 127.582 208.741 127.194 208.353C126.805 207.965 126.541 207.47 126.434 206.932C126.327 206.394 126.382 205.836 126.592 205.329C126.802 204.822 127.158 204.389 127.614 204.084C128.071 203.779 128.608 203.617 129.157 203.617C129.893 203.618 130.599 203.911 131.119 204.431C131.64 204.951 131.933 205.656 131.934 206.391V206.391Z" stroke="white" stroke-miterlimit="10"/>
<path d="M141.643 178.365C143.177 178.365 144.42 177.123 144.42 175.591C144.42 174.059 143.177 172.817 141.643 172.817C140.109 172.817 138.866 174.059 138.866 175.591C138.866 177.123 140.109 178.365 141.643 178.365Z" stroke="white" stroke-miterlimit="10"/>
<path d="M143.424 110.801C143.424 110.801 149.418 121.142 156.724 125.567C156.724 125.567 160.783 119.636 160.118 107.228" stroke="#683F1D" stroke-miterlimit="10"/>
<path d="M154.741 125.883C154.741 126.298 154.864 126.704 155.095 127.049C155.326 127.395 155.655 127.664 156.039 127.823C156.423 127.982 156.845 128.023 157.253 127.942C157.661 127.861 158.035 127.661 158.329 127.367C158.623 127.074 158.823 126.7 158.904 126.292C158.985 125.885 158.944 125.463 158.785 125.079C158.626 124.695 158.356 124.367 158.011 124.137C157.665 123.906 157.259 123.783 156.843 123.783C156.286 123.783 155.751 124.004 155.357 124.398C154.963 124.792 154.741 125.326 154.741 125.883V125.883Z" fill="white"/>
<path d="M176.793 148.608C177.865 143.365 178.394 138.026 178.373 132.675C178.36 130.32 177.796 128 176.726 125.902C175.835 123.988 174.873 122.233 174.672 119.875" stroke="#F7AD2B" stroke-width="0.75" stroke-linecap="round" stroke-linejoin="round"/>
<path d="M136.444 136.564C136.444 136.564 136.219 137.147 135.836 138.042C134.892 140.326 133.771 142.533 132.484 144.643" stroke="#F7AD2B" stroke-width="0.75" stroke-linecap="round" stroke-linejoin="round"/>
<path d="M174.543 170.119H134.328C135.192 167.898 136.166 165.722 137.248 163.599L173.585 165.57C173.925 167.034 174.255 168.55 174.543 170.119Z" fill="#83ADDF"/>
<path d="M158.566 170.119V181.058" stroke="#83ADDF" stroke-width="0.75" stroke-linecap="round" stroke-linejoin="round"/>
<path d="M159.409 181.795C160.549 181.169 161.204 180.872 161.324 180.183C161.444 179.494 162.014 171.898 162.014 171.898" stroke="#83ADDF" stroke-width="0.75" stroke-linecap="round" stroke-linejoin="round"/>
<path d="M158.026 222.64C158.026 222.64 158.313 192.137 158.553 190.749C158.551 190.735 158.551 190.721 158.553 190.706C158.797 190.252 159.29 189.577 161.999 187.994" stroke="#83ADDF" stroke-width="0.75" stroke-linecap="round" stroke-linejoin="round"/>
<path d="M98.6606 112.035C101.083 111.107 103.721 111.294 107.091 112.901C111.036 114.785 114.455 119.631 112.789 126.294C112.516 127.37 108.322 129.609 107.628 129.116C106.933 128.624 112.429 114.977 98.6606 112.035Z" fill="white"/>
<path d="M142.155 94.1116C140.01 93.9059 138.66 94.7861 137.659 96.6085C136.659 98.431 135.395 100.249 135.395 100.249C135.395 100.249 137.999 101.311 140.542 98.4262C142.907 95.7379 142.155 94.1116 142.155 94.1116Z" fill="#FED81D"/>
<path d="M143.721 94.9441C141.298 95.5898 140.164 96.5656 139.728 99.4978C139.292 102.43 139.445 103.774 139.134 104.879C139.134 104.879 142.237 104.162 143.721 101.378C145.133 98.7134 144.774 97.0057 143.721 94.9441Z" fill="#FED81D"/>
<path d="M146.775 79.2929C146.775 79.2929 144.439 84.3632 144.381 88.6156C144.345 89.5775 144.488 90.5376 144.803 91.4474L142.213 91.7487C139.996 93.8773 135.989 93.1454 137.425 90.4285C135.031 91.9209 131.895 89.8784 133.451 87.7211C131.589 88.1612 130.641 85.1525 133.04 84.3728C131.043 84.1576 130.646 80.5988 133.351 80.3931C133.115 80.1484 132.953 79.8421 132.884 79.5095C132.814 79.1769 132.84 78.8315 132.959 78.513C133.078 78.1946 133.284 77.9161 133.554 77.7097C133.824 77.5032 134.147 77.3772 134.486 77.3461C134.768 77.3378 135.048 77.3937 135.305 77.5098C135.562 77.6258 135.789 77.7988 135.97 78.0158C134.811 73.8447 139.709 72.5149 141.212 74.7057C141.475 72.9406 144.788 72.7589 145.281 75.0357C147.78 73.6581 149.408 77.0065 146.775 79.2929Z" fill="#604730"/>
<path d="M144.822 91.4475L142.232 91.7488C140.015 93.8774 136.008 93.1455 137.444 90.4286C135.05 91.921 131.915 89.8785 133.47 87.7212C131.608 88.1613 130.66 85.1526 133.059 84.3729C131.062 84.1577 130.665 80.5989 133.37 80.3932C133.134 80.1485 132.972 79.8422 132.903 79.5096C132.833 79.177 132.859 78.8316 132.978 78.5131C133.097 78.1947 133.303 77.9162 133.573 77.7098C133.843 77.5033 134.166 77.3773 134.505 77.3462C134.332 78.8195 134.983 80.905 136.42 81.0485C134.457 81.7708 134.471 84.0955 136.42 84.9134C135.199 86.2671 137.028 88.1709 138.555 87.0994C138.497 88.5918 140.743 91.0217 144.372 88.5918C144.342 89.5634 144.494 90.532 144.822 91.4475V91.4475Z" fill="#473526"/>
<path d="M159.132 102.707C152.175 103.664 146.105 95.8384 146.105 95.8384C142.931 96.9481 140.47 94.4847 141.461 92.0117C141.64 91.5523 141.944 91.1516 142.337 90.8542V90.8542C142.656 90.6159 143.024 90.4524 143.414 90.3758C143.714 90.3192 144.021 90.3079 144.324 90.3423C144.906 90.4088 145.461 90.6212 145.938 90.96C146.415 91.2988 146.799 91.7527 147.053 92.2796C147.273 92.6623 148.752 92.5953 148.092 90.9116C147.512 89.4479 146.88 89.5579 146.88 89.5579C147.838 89.2565 147.077 87.1136 145.923 87.4197C146.88 87.0084 147.216 85.1955 146.143 84.5497C147.297 84.4875 148.561 84.0283 148.092 82.2729C148.304 82.5292 148.586 82.7184 148.904 82.8175C149.222 82.9166 149.562 82.9214 149.882 82.8312C150.202 82.741 150.49 82.5598 150.709 82.3095C150.928 82.0592 151.07 81.7507 151.117 81.4214C151.33 81.6291 151.599 81.7705 151.891 81.8286C152.183 81.8866 152.485 81.8587 152.762 81.7483C153.038 81.6378 153.276 81.4496 153.447 81.2065C153.619 80.9634 153.716 80.6758 153.727 80.3787C153.87 81.0244 154.627 81.2157 155.225 80.857C156.575 82.3304 157.778 83.9325 158.816 85.6403L158.854 85.7025C159.438 86.6113 159.989 87.5297 160.487 88.4434C164.264 95.3648 165.255 101.861 159.132 102.707Z" fill="#FEBD9D"/>
<path d="M150.725 89.6489C150.471 90.5051 148.915 90.7968 147.254 90.3042C145.592 89.8115 144.443 88.7161 144.697 87.8599C144.951 87.0037 146.507 86.7167 148.168 87.2093C149.829 87.702 150.978 88.7974 150.725 89.6489Z" fill="#F4AF90"/>
<path d="M160.515 88.4769C159.83 88.9553 159.155 89.1083 158.715 88.8022C158.049 88.3526 158.145 87.0419 158.882 85.7361C159.467 86.6449 160.017 87.5633 160.515 88.4769Z" fill="#F4AF90"/>
<path d="M144.328 90.371C144.025 90.3366 143.719 90.3479 143.419 90.4045C143.028 90.481 142.66 90.6445 142.342 90.8828V90.8828C140.13 84.3871 145.961 81.0818 145.961 81.0818C143.74 84.3105 144.084 88.6682 144.328 90.371Z" fill="white"/>
<path d="M155.699 85.5734C155.698 85.6999 155.734 85.8239 155.804 85.9297C155.873 86.0355 155.973 86.1184 156.089 86.168C156.206 86.2175 156.334 86.2314 156.459 86.208C156.583 86.1845 156.698 86.1248 156.789 86.0363C156.879 85.9478 156.942 85.8345 156.968 85.7107C156.994 85.5869 156.983 85.4581 156.936 85.3405C156.889 85.223 156.808 85.1219 156.704 85.0502C156.6 84.9784 156.477 84.9391 156.35 84.9372C156.265 84.9353 156.181 84.9503 156.102 84.9814C156.023 85.0125 155.951 85.0591 155.89 85.1184C155.83 85.1776 155.781 85.2484 155.749 85.3265C155.716 85.4047 155.699 85.4886 155.699 85.5734Z" fill="#683F1D"/>
<path d="M151.524 86.9271C151.524 87.0539 151.562 87.1778 151.633 87.2832C151.703 87.3886 151.803 87.4708 151.92 87.5193C152.038 87.5678 152.167 87.5805 152.291 87.5557C152.416 87.531 152.53 87.47 152.62 87.3803C152.709 87.2907 152.77 87.1765 152.795 87.0521C152.82 86.9278 152.807 86.7989 152.759 86.6818C152.71 86.5647 152.628 86.4646 152.522 86.3942C152.417 86.3237 152.293 86.2861 152.166 86.2861C152.082 86.2861 151.998 86.3027 151.92 86.3349C151.843 86.3671 151.772 86.4143 151.712 86.4739C151.653 86.5334 151.605 86.604 151.573 86.6818C151.541 86.7596 151.524 86.8429 151.524 86.9271V86.9271Z" fill="#683F1D"/>
<path d="M155.795 80.2496C155.677 80.5051 155.489 80.7223 155.254 80.8762C154.655 81.2541 153.899 81.0628 153.755 80.3979C153.744 80.695 153.647 80.9826 153.476 81.2257C153.305 81.4688 153.066 81.657 152.79 81.7675C152.514 81.8779 152.211 81.9058 151.919 81.8478C151.628 81.7897 151.359 81.6483 151.146 81.4406C151.099 81.7699 150.957 82.0785 150.738 82.3287C150.518 82.579 150.231 82.7602 149.91 82.8504C149.59 82.9406 149.25 82.9358 148.932 82.8367C148.615 82.7376 148.332 82.5484 148.12 82.2921C148.599 84.0475 147.325 84.5067 146.172 84.5689C147.244 85.2051 146.885 87.018 145.951 87.4389C147.081 87.1328 147.866 89.2757 146.909 89.5771C146.909 89.5771 147.541 89.4671 148.12 90.9308C148.781 92.6145 147.302 92.6815 147.081 92.2988C146.765 91.6287 146.239 91.0796 145.582 90.7344C144.926 90.3893 144.175 90.2668 143.443 90.3855C143.127 89.0667 143.064 87.7002 143.256 86.3579C143.555 84.3383 144.513 82.4737 145.98 81.0532C144.946 79.4173 146.895 77.2791 148.522 78.5132C148.312 77.0256 150.878 76.0833 151.85 77.8627C152.41 76.2651 154.789 77.2409 154.521 78.4223C155.297 78.0014 156.35 79.1016 155.795 80.2496Z" fill="#604730"/>
<path d="M153.415 84.9373C154.99 88.3095 157.379 86.4631 157.982 89.0079" stroke="#934735" stroke-width="0.75" stroke-linecap="round" stroke-linejoin="round"/>
<path d="M152.084 90.5815C154.813 91.3517 156.719 90.8494 157.169 90.5815C157.169 90.5815 157.437 93.0019 154.995 92.8058C154.337 92.7904 153.7 92.5668 153.177 92.1671C152.654 91.7675 152.272 91.2123 152.084 90.5815V90.5815Z" fill="white" stroke="#934735" stroke-width="0.75" stroke-linecap="round" stroke-linejoin="round"/>
<path d="M142.893 93.3512C143.232 91.634 145.913 91.6532 146.411 94.1118" stroke="#934735" stroke-width="0.75" stroke-linecap="round" stroke-linejoin="round"/>
<path d="M145.051 94.944C143.553 94.5566 144.261 92.2893 145.899 92.9398" stroke="#934735" stroke-width="0.75" stroke-linecap="round" stroke-linejoin="round"/>
<path d="M149.284 85.4061C149.164 86.2049 152.156 84.4781 151.539 83.4927C150.921 82.5074 149.394 84.6312 149.284 85.4061Z" fill="#604730"/>
<path d="M156.9 82.4739C157.523 82.9905 154.138 83.7128 153.956 82.5791C153.774 81.4455 156.297 81.9717 156.9 82.4739Z" fill="#604730"/>
<path d="M127.711 151.87C125.274 151.387 122.813 151.035 120.338 150.818" stroke="#934735" stroke-width="0.75" stroke-linecap="round" stroke-linejoin="round"/>
<path d="M120.339 150.818C111.549 150.043 105.086 157.381 109.007 163.006C113.966 170.119 145.717 168.301 148.977 168.22C151.046 168.172 150.892 169.693 154.057 169.99C155.972 170.176 158.902 170.186 159.52 169.875C159.984 169.564 160.358 169.137 160.606 168.636C160.606 168.636 162.416 169.358 163.139 167.292C163.139 167.292 164.982 167.708 165.284 165.12C165.284 165.12 166.399 166.507 167.428 166C168.606 165.422 168.774 164.565 167.946 163.47C167.117 162.375 163.709 158.505 162.574 158.098C161.439 157.692 152.918 159.199 151.462 158.873C144.152 157.242 134.146 152.033 120.339 150.818Z" fill="#FEBD9D"/>
<path d="M157.533 170.114C158.203 170.139 158.874 170.058 159.52 169.875C159.984 169.564 160.358 169.137 160.606 168.636C160.606 168.636 162.416 169.358 163.139 167.292C163.139 167.292 164.982 167.708 165.284 165.12C165.284 165.12 166.399 166.507 167.428 166C168.606 165.422 168.774 164.565 167.946 163.47C167.117 162.375 163.709 158.505 162.574 158.098" stroke="#934735" stroke-width="0.75" stroke-linecap="round" stroke-linejoin="round"/>
<path d="M165.518 165.379L162.923 162.537" stroke="#934735" stroke-width="0.75" stroke-linecap="round" stroke-linejoin="round"/>
<path d="M163.139 167.292L160.419 165.57" stroke="#934735" stroke-width="0.75" stroke-linecap="round" stroke-linejoin="round"/>
<path d="M160.606 168.636L158.749 168.067" stroke="#934735" stroke-width="0.75" stroke-linecap="round" stroke-linejoin="round"/>
<path d="M112.348 67.3346L110.395 67.5355L108.087 67.7842L109.653 66.1483L111.099 64.6416L112.348 67.3346Z" fill="white"/>
<path d="M104.712 125.567C110.773 129.394 116.293 125.165 117.816 117.464C120.061 106.094 121.99 77.37 121.99 77.37C121.99 77.37 125.069 70.7116 126.05 68.3056C127.032 65.8996 126.874 63.7614 125.447 63.1444C125.447 63.1444 124.011 58.6959 121.799 58.5571C121.374 58.3303 120.93 58.1399 120.473 57.9879C119.367 57.7631 117.332 58.782 116.796 59.3464C116.26 59.9108 118.041 60.504 119.056 60.3365C120.071 60.1691 120.813 62.7282 120.358 63.8092C119.903 64.8903 117.964 67.0619 117.275 66.4975C116.585 65.933 116.37 63.9814 116.652 62.4556C116.935 60.9297 116.738 60.1643 115.719 60.7575C114.699 61.3506 112.722 66.2966 112.947 67.2006C113.172 68.1047 114.474 71.8357 114.56 72.4623C114.646 73.0889 104.698 105.802 102.735 111.48C100.772 117.158 100.427 122.864 104.712 125.567Z" fill="#FEBD9D"/>
<path d="M125.447 63.1445C125.563 63.9064 125.63 64.6749 125.648 65.4453" stroke="#EF8A66" stroke-width="0.75" stroke-linecap="round" stroke-linejoin="round"/>
<path d="M122.838 61.8816C123.125 62.9335 123.285 64.0158 123.317 65.1056" stroke="#EF8A66" stroke-width="0.75" stroke-linecap="round" stroke-linejoin="round"/>
<path d="M111.099 64.6415L114.35 62.7952C113.603 64.3258 112.913 66.2726 112.913 67.0284L112.334 67.3345C112.076 67.2392 111.838 67.0939 111.636 66.9068C111.434 66.7197 111.271 66.4946 111.157 66.2444C111.042 65.9942 110.978 65.7238 110.968 65.4487C110.958 65.1736 111.002 64.8993 111.099 64.6415V64.6415Z" fill="#683F1D"/>
<path d="M110.395 67.5356L108.087 67.7843L109.653 66.1484L110.395 67.5356Z" fill="#683F1D"/>
<path d="M112.947 67.2055C112.722 66.3015 114.704 61.3507 115.719 60.7624C116.47 60.3223 116.777 60.6189 116.772 61.4225C116.764 61.7698 116.723 62.1156 116.652 62.4557C116.558 62.9892 116.516 63.5307 116.528 64.0724C116.528 64.1442 116.528 64.2159 116.528 64.2829V64.4886C116.528 64.589 116.528 64.6895 116.561 64.7851L116.605 65.0721C116.65 65.6102 116.878 66.1166 117.251 66.5071C117.959 67.0764 119.884 64.9239 120.334 63.8285C120.428 63.5795 120.475 63.315 120.473 63.0488" stroke="#EF8A66" stroke-width="0.75" stroke-linecap="round" stroke-linejoin="round"/>
<path d="M118.625 60.3652C117.61 60.3652 116.327 59.8391 116.791 59.3464C117.332 58.782 119.367 57.7631 120.473 57.9879C120.93 58.1387 121.374 58.3275 121.799 58.5524" stroke="#EF8A66" stroke-width="0.75" stroke-linecap="round" stroke-linejoin="round"/>
<path d="M124.47 60.925C124.85 61.6342 125.17 62.3733 125.428 63.1349C126.356 63.5367 126.749 64.5699 126.634 65.9332" stroke="#EF8A66" stroke-width="0.75" stroke-linecap="round" stroke-linejoin="round"/>
<path d="M126.529 59.8536L124.47 60.9347L120.496 63.0345L116.614 65.0722C116.471 64.2052 116.479 63.3201 116.638 62.4557C116.709 62.1157 116.749 61.7699 116.757 61.4225L118.61 60.3654L121.799 58.5525L124.925 56.7827L126.529 59.8536Z" fill="#683F1D"/>
<path d="M124.346 56.7827C124.169 57.5911 124.743 59.9541 126.232 60.4276L127.19 59.8345L125.347 56.2422L124.346 56.7827Z" fill="white"/>
<path d="M127.022 57.5766C127.577 58.5907 127.697 59.5856 127.295 59.8057C126.893 60.0257 126.117 59.3847 125.567 58.3707C125.016 57.3566 124.892 56.3617 125.294 56.1416C125.696 55.9216 126.467 56.5626 127.022 57.5766Z" fill="#683F1D"/>
<path d="M112.947 67.2055C112.722 66.3015 114.704 61.3507 115.719 60.7624C116.47 60.3223 116.777 60.6189 116.772 61.4225C116.764 61.7698 116.723 62.1156 116.652 62.4557C116.558 62.9892 116.516 63.5307 116.528 64.0724C116.528 64.1442 116.528 64.2159 116.528 64.2829V64.4886C116.528 64.589 116.528 64.6895 116.561 64.7851L116.605 65.0721C116.65 65.6102 116.878 66.1166 117.251 66.5071C117.959 67.0764 119.884 64.9239 120.334 63.8285C120.428 63.5795 120.475 63.315 120.473 63.0488" stroke="#EF8A66" stroke-width="0.75" stroke-linecap="round" stroke-linejoin="round"/>
<path d="M58.886 116.713C57.4832 122.931 47.779 120.941 47.2332 117.756C46.6874 114.57 47.5683 113.781 48.3152 107.945C48.928 103.162 57.0571 103.071 58.4982 106.281C58.7303 106.799 58.7842 107.379 58.6514 107.931C58.3486 109.56 58.3405 111.23 58.6274 112.862C58.8333 114.393 59.111 115.694 58.886 116.713Z" fill="#FEBD9D"/>
<path d="M58.6516 107.931C58.3489 109.56 58.3408 111.23 58.6277 112.862C54.4817 111.667 53.7588 107.017 53.7588 107.017L58.4984 106.281C58.7306 106.799 58.7844 107.379 58.6516 107.931Z" fill="#F4A789"/>
<path d="M33.9814 160.729L43.3171 164.307C43.3171 164.307 42.0197 175.089 41.9191 174.931C41.8186 174.773 26.2065 173.147 26.2065 173.147L33.9814 160.729Z" fill="#FEBD9D"/>
<path d="M20.3848 167.005C21.687 171.707 24.952 173.419 28.0783 173.314C31.2045 173.209 35.5324 171.568 37.141 166.637C38.3714 162.863 35.7048 158.338 35.7048 158.338L20.3848 167.005Z" fill="white"/>
<path d="M38.1564 222.64C38.1564 222.64 39.3533 216.115 36.8207 205.319C35.738 201.103 35.2545 196.755 35.3844 192.404C35.3844 192.404 35.3844 192.404 35.3844 192.404C35.6765 185.746 37.7399 178.308 42.8194 168.191L75.3744 166.857C76.8298 171.382 78.1512 175.54 79.3385 179.332C82.9435 190.812 85.3995 199.087 87.1182 204.683C89.4066 212.126 93.2749 222.645 93.2749 222.645L38.1564 222.64Z" fill="#FED81D"/>
<path d="M79.3574 179.336C75.9247 189.305 71.0415 193.82 58.412 189.176C47.0561 185.005 42.891 182.001 35.4033 192.409C35.6954 185.751 37.7588 178.313 42.8383 168.196L75.3933 166.862C76.8487 171.387 78.1701 175.545 79.3574 179.336Z" fill="#FFE05C"/>
<path d="M76.327 150.034C74.5316 156.993 76.1929 164.551 76.9206 166.206C77.6483 167.861 77.0547 168.995 75.9966 169.191C74.9386 169.387 43.748 170.32 42.3501 170.119C40.9521 169.918 40.4973 168.861 40.4973 167.67C40.4973 166.479 38.0413 158.103 36.8444 154.755C36.8444 154.755 36.7152 164.101 34.1251 166.885C31.5351 169.669 25.5076 170.798 21.7207 168.746C21.0145 168.299 20.5124 167.593 20.3228 166.78C18.8865 162.312 21.1079 152.11 22.6495 144.815C23.2623 141.888 24.148 138.228 25.2778 134.574C27.5519 127.212 30.8218 119.856 34.8528 118.54C43.8438 115.608 50.3883 116.751 55.1566 116.306C56.6408 116.163 58.077 115.991 59.4654 115.828H59.518C67.0775 114.871 72.8656 113.996 75.7381 118.851C76.1825 119.621 76.5329 120.442 76.7818 121.295C78.5579 127.15 77.8207 131.01 77.4329 136.416C77.4329 136.631 77.4089 136.846 77.3946 137.066C77.7644 141.418 77.4035 145.801 76.327 150.034V150.034Z" fill="#C3DCF8"/>
<path d="M36.8444 154.736C36.8444 154.736 36.7152 164.082 34.1251 166.866C31.5351 169.65 25.5076 170.779 21.7207 168.727C21.0145 168.28 20.5124 167.574 20.3228 166.761C32.5165 170.382 36.5763 157.419 33.3256 155.028C30.1611 152.698 30.2089 146.451 32.1431 143.203C33.4309 146.929 35.8534 151.674 36.8444 154.736Z" fill="#A7CAF0"/>
<path d="M75.7333 118.803C72.2815 121.434 69.3898 124.802 68.2265 129.169C67.4413 132.106 66.1679 134.397 64.4492 136.023C59.7909 140.453 51.8532 139.984 41.5841 134.21C34.4746 130.221 29.6153 131.068 25.2778 134.541C27.5519 127.179 30.8218 119.822 34.8528 118.507C43.8438 115.575 50.3883 116.718 55.1566 116.273C56.6407 116.129 58.077 115.957 59.4654 115.795H59.518C67.0727 114.857 72.8608 113.967 75.7333 118.803Z" fill="#D0E5F7"/>
<path d="M31.3198 139.884C31.461 141.02 31.7374 142.136 32.1433 143.208C33.4311 146.929 35.8536 151.674 36.8446 154.736" stroke="#83ADDF" stroke-width="0.75" stroke-linecap="round" stroke-linejoin="round"/>
<path d="M110.17 127.27C108.192 128.585 97.0136 131.704 88.2094 134.23C84.6841 135.256 81.077 135.978 77.428 136.387C74.2082 136.76 70.9598 136.819 67.7285 136.564C66.6164 136.471 65.5134 136.291 64.4299 136.023C50.6946 132.704 52.8825 116.981 59.4413 115.785H59.494C68.8521 114.138 78.2899 112.98 87.769 112.317C91.8767 112.064 96.0705 111.949 100.116 112.054C115.848 112.48 112.147 125.978 110.17 127.27Z" fill="#C3DCF8"/>
<path d="M110.17 127.27C108.192 128.585 97.0137 131.704 88.2094 134.23C84.6842 135.256 81.0771 135.978 77.428 136.387C74.2082 136.76 70.9598 136.819 67.7285 136.564" stroke="#83ADDF" stroke-width="0.75" stroke-linecap="round" stroke-linejoin="round"/>
<path d="M87.788 112.332C84.1735 113.829 79.6014 115.866 75.7331 118.823C72.2813 121.453 69.3897 124.821 68.2263 129.188C67.4411 132.125 66.1677 134.416 64.449 136.043C50.7136 132.723 52.9015 117 59.4604 115.804H59.513C68.871 114.155 78.3089 112.996 87.788 112.332V112.332Z" fill="#D0E5F7"/>
<path d="M98.6606 112.035C101.083 111.107 103.721 111.294 107.091 112.901C111.036 114.785 114.455 119.631 112.789 126.294C112.516 127.37 108.322 129.609 107.628 129.116C106.933 128.624 112.429 114.977 98.6606 112.035Z" fill="white"/>
<path d="M49.5887 108.49C57.9046 110.456 62.1033 109.61 63.1757 105.233C64.2481 100.856 59.7813 94.2027 59.7813 94.2027L60.1356 91.811C59.1438 91.3543 58.1755 90.8482 57.2344 90.2947C56.7844 89.9359 55.3194 86.2289 53.9693 85.8701C52.6192 85.5114 43.1543 90.3808 45.9694 98.4168C48.7844 106.453 49.5887 108.49 49.5887 108.49Z" fill="#FEBD9D"/>
<path d="M57.6604 96.4843C57.3732 97.3931 55.8747 97.7375 54.3092 97.2496C52.7437 96.7617 51.7144 95.6233 51.9968 94.7097C52.2793 93.796 53.7826 93.4516 55.3481 93.9443C56.9136 94.437 57.9477 95.5707 57.6604 96.4843Z" fill="#F4AF90"/>
<path d="M59.7667 94.2027L60.121 91.811C59.1291 91.3543 58.1609 90.8482 57.2197 90.2947" stroke="#EF8A66" stroke-width="0.75" stroke-linecap="round" stroke-linejoin="round"/>
<path d="M52.9638 125.299C49.0524 126.256 48.0853 122.3 48.0853 122.3C44.9304 125.567 41.2009 124.629 40.3392 122.903C40.3392 122.903 37.1268 124.228 34.5559 122.3C31.0227 119.655 33.3255 115.718 33.3255 115.718C29.62 114.761 30.2998 111.064 32.4254 109.5L32.7414 109.28C34.9532 107.845 38.9269 106.888 37.4667 104.018C35.9442 100.961 34.6947 96.7521 38.6252 94.3987C38.6252 94.3987 38.8263 89.8593 41.6509 88.3717C44.4756 86.8841 44.6623 86.2957 44.7245 85.4539C44.94 82.3543 47.8699 79.4269 51.1924 81.7085C51.2978 81.7803 51.4079 81.8568 51.5132 81.9381C55.0703 81.5841 56.0087 84.9277 55.4102 86.5397C56.6837 90.7108 53.6484 93.8391 54.5102 95.298C55.4964 96.9626 54.7448 98.9524 54.7448 98.9524C53.275 96.623 51.4653 95.8863 50.2206 97.881C49.2104 99.5073 50.0339 101.636 53.3037 103.664C56.8034 105.836 55.1469 108.624 54.3809 110.724C53.9339 111.954 53.7838 113.271 53.9427 114.569C54.1016 115.868 54.565 117.11 55.2953 118.196C56.9853 120.602 56.8752 124.361 52.9638 125.299Z" fill="#7F542D"/>
<path d="M52.9638 125.299C49.0524 126.256 48.0853 122.3 48.0853 122.3C44.9304 125.567 41.2009 124.629 40.3392 122.903C40.3392 122.903 37.1268 124.228 34.5559 122.3C31.0227 119.655 33.3255 115.718 33.3255 115.718C29.62 114.761 30.2998 111.064 32.4254 109.5L32.7414 109.28C34.2303 113.456 36.94 115.713 39.7024 115.063C43.3744 114.211 45.4474 112.193 48.8849 114.307C52.3223 116.421 53.3516 106.558 48.3151 105.07C43.2787 103.583 42.3116 95.121 46.6682 94.0687C49.9285 93.3034 52.8585 86.7167 51.1924 81.6655C51.2978 81.7373 51.4079 81.8138 51.5132 81.8951C55.0703 81.5412 56.0087 84.8847 55.4102 86.4967C56.6837 90.6678 53.6484 93.7961 54.5102 95.255C55.4964 96.9196 54.7448 98.9094 54.7448 98.9094C53.275 96.58 51.4653 95.8433 50.2206 97.838C49.2104 99.4643 50.0339 101.593 53.3037 103.621C56.8034 105.793 55.1469 108.581 54.3809 110.681C53.9339 111.911 53.7838 113.228 53.9427 114.526C54.1016 115.825 54.565 117.067 55.2953 118.153C56.9853 120.602 56.8752 124.362 52.9638 125.299Z" fill="#704725"/>
<path d="M56.1426 92.624C56.1426 92.7498 56.1799 92.8728 56.2499 92.9774C56.3199 93.0821 56.4193 93.1636 56.5357 93.2118C56.652 93.2599 56.78 93.2725 56.9036 93.248C57.0271 93.2234 57.1405 93.1628 57.2296 93.0738C57.3186 92.9849 57.3793 92.8715 57.4038 92.7481C57.4284 92.6247 57.4158 92.4968 57.3676 92.3805C57.3194 92.2643 57.2378 92.1649 57.1331 92.095C57.0284 92.0251 56.9053 91.9878 56.7793 91.9878C56.6955 91.9872 56.6125 92.0032 56.5349 92.0349C56.4574 92.0667 56.3869 92.1135 56.3277 92.1727C56.2684 92.2319 56.2215 92.3023 56.1898 92.3798C56.158 92.4573 56.142 92.5403 56.1426 92.624Z" fill="#683F1D"/>
<path d="M33.311 115.723C35.1255 112.13 36.7772 112.236 38.3188 111.049C39.8603 109.863 40.5354 107.395 40.2338 106.266" stroke="#A56F42" stroke-width="0.75" stroke-linecap="round" stroke-linejoin="round"/>
<path d="M40.3393 122.903C39.8495 122.108 39.6313 121.176 39.7177 120.247C39.804 119.318 40.1902 118.442 40.818 117.751" stroke="#A56F42" stroke-width="0.75" stroke-linecap="round" stroke-linejoin="round"/>
<path d="M48.0855 122.3C47.8514 121.692 47.7478 121.042 47.7816 120.392C47.8155 119.742 47.9859 119.106 48.2818 118.526" stroke="#A56F42" stroke-width="0.75" stroke-linecap="round" stroke-linejoin="round"/>
<path d="M45.1221 88.5916C47.2477 88.1133 47.4536 86.597 48.0903 85.3485C48.7271 84.1001 49.7133 82.1676 51.5134 81.9045" stroke="#A56F42" stroke-width="0.75" stroke-linecap="round" stroke-linejoin="round"/>
<path d="M55.4105 86.5061C54.7641 85.0711 52.7151 83.3539 50.8145 85.0711" stroke="#A56F42" stroke-width="0.75" stroke-linecap="round" stroke-linejoin="round"/>
<path d="M51.719 100.541C51.6759 98.742 53.4521 98.3211 54.8309 99.6939" stroke="#EF8A66" stroke-width="0.75" stroke-linecap="round" stroke-linejoin="round"/>
<path d="M54.1082 101.32C52.7198 101.32 52.672 99.2394 54.4385 99.359" stroke="#EF8A66" stroke-width="0.75" stroke-linecap="round" stroke-linejoin="round"/>
<path d="M58.4121 96.8909C58.6679 97.2151 59.011 97.4598 59.401 97.5962C59.7911 97.7326 60.212 97.7551 60.6144 97.661" stroke="#EF8A66" stroke-width="0.75" stroke-linecap="round" stroke-linejoin="round"/>
<path d="M51.5034 102.277C52.5567 103.124 54.4573 103.004 54.4573 103.004" stroke="#EF8A66" stroke-width="0.75" stroke-linecap="round" stroke-linejoin="round"/>
<path d="M55.5923 104.018C56.3379 104.018 56.9423 103.414 56.9423 102.669C56.9423 101.924 56.3379 101.32 55.5923 101.32C54.8466 101.32 54.2422 101.924 54.2422 102.669C54.2422 103.414 54.8466 104.018 55.5923 104.018Z" fill="white"/>
<path d="M54.5676 92.0166C55.2283 92.4471 56.8177 89.3953 55.573 88.5582C54.3282 87.7212 53.6771 91.4378 54.5676 92.0166Z" fill="#7F542D"/>
<path d="M322.672 220.215H25.7661C23.1511 220.215 21.0312 222.333 21.0312 224.946V225.687C21.0312 228.3 23.1511 230.418 25.7661 230.418H322.672C325.287 230.418 327.407 228.3 327.407 225.687V224.946C327.407 222.333 325.287 220.215 322.672 220.215Z" fill="#EDEDED"/>
<path d="M30.2139 230.418C38.0654 226.668 49.7134 225.84 58.5894 230.418" stroke="#DDDDDD" stroke-width="0.75" stroke-linecap="round" stroke-linejoin="round"/>
<path d="M27.5039 220.21C35.2453 224.515 40.3919 224.166 49.9429 224.037C57.0571 223.946 65.622 227.567 71.3239 230.413" stroke="#DDDDDD" stroke-width="0.75" stroke-linecap="round" stroke-linejoin="round"/>
<path d="M64.248 220.21C69.8638 226.519 73.7608 227.308 75.6471 225.682C77.6483 223.955 79.7069 223.487 81.8325 225.309C84.2933 227.423 87.7164 223.142 89.641 220.21" stroke="#DDDDDD" stroke-width="0.75" stroke-linecap="round" stroke-linejoin="round"/>
<path d="M86.146 230.418C88.4153 228.327 92.4607 225.744 98.7611 225.314C106.23 224.835 115.718 228.27 120.784 230.418" stroke="#DDDDDD" stroke-width="0.75" stroke-linecap="round" stroke-linejoin="round"/>
<path d="M110.979 220.21C119.74 224.802 129.315 227.49 137.052 225.309C144.602 223.19 162.631 225.83 169.19 220.21" stroke="#DDDDDD" stroke-width="0.75" stroke-linecap="round" stroke-linejoin="round"/>
<path d="M144.209 230.418C149.82 227.227 158.571 225.276 165.379 230.418" stroke="#DDDDDD" stroke-width="0.75" stroke-linecap="round" stroke-linejoin="round"/>
<path d="M175.021 230.418C185.453 222.315 206.279 220.851 223.672 225.271C244.258 230.509 253.488 224.462 257.227 220.215" stroke="#DDDDDD" stroke-width="0.75" stroke-linecap="round" stroke-linejoin="round"/>
<path d="M193.779 230.418C201.333 227.026 211.493 226.328 222.221 230.418" stroke="#DDDDDD" stroke-width="0.75" stroke-linecap="round" stroke-linejoin="round"/>
<path d="M259.631 230.418C272.279 224.534 282.4 225.218 291.784 230.418" stroke="#DDDDDD" stroke-width="0.75" stroke-linecap="round" stroke-linejoin="round"/>
<path d="M277.474 220.21C298.314 227.203 315.558 232.618 326.919 223.128" stroke="#DDDDDD" stroke-width="0.75" stroke-linecap="round" stroke-linejoin="round"/>
<path d="M294.096 220.21C304.671 226.428 317.023 225.95 324.626 220.77" stroke="#DDDDDD" stroke-width="0.75" stroke-linecap="round" stroke-linejoin="round"/>
</svg>
