<svg width="1196" height="532" viewBox="0 0 1196 532" fill="none" xmlns="http://www.w3.org/2000/svg">
<path d="M110.613 485.197C120.396 494.077 120.957 507.001 113.034 515.731C104.827 524.773 92.1333 525.761 82.0024 516.282" fill="#0181F8"/>
<path d="M126.926 229.005L150.821 252.9L129.048 274.955C114.362 260.798 112.782 242.584 126.926 229.005Z" fill="#FFE500"/>
<path d="M1117.29 414.296C1133.31 397.74 1155.64 398.065 1169.9 412.323C1184.56 426.98 1184.75 449.176 1167.91 465.484" fill="#FF800C"/>
<path d="M1102.48 77.3367C1084.55 60.7399 1086.97 39.947 1101.24 25.6753C1115.91 11.0033 1135.71 6.79549 1153.72 26.9361" fill="#FF1378"/>
<path d="M0.531087 154.738C21.2031 141.714 40.6623 149.429 50.754 166.908C61.1287 184.877 60.0683 205.092 35.9535 217.273" fill="#FF1378"/>
<path d="M219.192 177L210 186.192L262.326 238.518L271.518 229.326L219.192 177Z" fill="#AA0BF0"/>
<path d="M983.338 266.056L986.702 278.613L1058.18 259.461L1054.82 246.904L983.338 266.056Z" fill="#AA0BF0"/>
<path d="M81.9706 6.00014L65 22.9707L115.205 73.1753L132.175 56.2047L81.9706 6.00014Z" fill="#22DA4A"/>
<path d="M948.971 337L932 353.971L982.205 404.175L999.175 387.205L948.971 337Z" fill="#22DA4A"/>
<path d="M980.519 76.1924L971.326 67L919 119.326L928.193 128.518L980.519 76.1924Z" fill="#39CCEC"/>
</svg>
