<svg width="203" height="42" viewBox="0 0 203 42" fill="none" xmlns="http://www.w3.org/2000/svg">
<path d="M17.9623 4.81395C17.283 4.18605 16.2264 3.41861 15.0943 2.93023C13.9245 2.44186 12.6038 2.12791 11.3208 2.12791C6.26415 2.12791 2.49057 5.89535 2.49057 10.6047C2.49057 16.1163 7.32076 18.8721 11.3585 18.8721C12.8302 18.8721 14.3019 18.4884 15.434 17.9302C16.6792 17.3372 17.5849 16.6047 17.9623 16.2209V19.0116C15.5094 20.6163 12.9811 21 11.3585 21C4.83019 21 0 16.4302 0 10.5698C0 4.5 4.90566 0 11.5094 0C12.8302 0 15.3585 0.139536 18 2.02326V4.81395H17.9623Z" fill="black"/>
<path d="M26.4214 8C27.1679 8 28.425 8.03601 29.4071 8.75623C29.9179 9.11634 30.625 9.87258 30.625 11.205C30.625 12.5014 29.9571 13.2936 29.0929 13.7978C29.4857 13.9058 30.1929 14.0859 30.8607 14.662C31.6464 15.3463 32 16.1745 32 17.1828C32 18.5512 31.3321 19.5596 30.5071 20.1357C29.6429 20.7479 28.2679 21 27.1286 21H21V8H26.4214ZM26.1071 13.3296C26.3429 13.3296 27.1286 13.2936 27.6786 12.9695C27.9536 12.7895 28.3464 12.3934 28.3464 11.6011C28.3464 10.9889 28.0321 10.5928 27.6786 10.3407C27.0893 9.98061 26.4607 10.0166 25.675 10.0166H23.475V13.3296H26.1071ZM26.5786 19.0194C27.2464 19.0194 28.1893 18.9834 28.8179 18.5873C29.25 18.2632 29.6429 17.723 29.6429 17.1468C29.6429 16.5706 29.4071 16.0305 28.9357 15.6704C28.3071 15.2382 27.4036 15.2022 26.6964 15.2022H23.5536V19.0194H26.5786Z" fill="black"/>
<path d="M34 14.5171C34 10.7638 36.9531 8 41 8C45.0469 8 48 10.7638 48 14.5171C48 18.2703 45.0104 21 41 21C36.9896 21 34 18.2703 34 14.5171ZM36.3333 14.5171C36.3333 17.5538 38.6302 19.0892 40.9635 19.0892C43.3333 19.0892 45.5937 17.5197 45.5937 14.5171C45.5937 11.4803 43.3698 9.91076 40.9635 9.91076C38.5573 9.91076 36.3333 11.4803 36.3333 14.5171Z" fill="black"/>
<path d="M54.2283 8.00962V16.6274L63 7V21.0625H60.7717V12.3726L52 22V8.00962H54.2283Z" fill="black"/>
<path d="M69.3248 7L75.0573 17.637L80.6752 7L84 21.0625H81.5159L79.7197 12.9856L75.0191 22L70.242 12.9856L68.4841 21.0625H66L69.3248 7Z" fill="black"/>
<path d="M88.4309 8.00962V16.6274L98 7V21.0625H95.5691V12.3726L86 22V8.00962H88.4309Z" fill="black"/>
<path d="M113.81 0C115.895 0 117.657 0.252577 119.095 1.47938C120.641 2.81443 121 4.65464 121 5.98969C121 8.94845 119.167 11.8711 114.386 11.8711H112.337V21H110V0H113.81ZM112.337 9.6701H114.242C117.01 9.6701 118.663 8.29897 118.663 5.84536C118.663 2.52577 115.572 2.20103 114.062 2.20103H112.337V9.6701Z" fill="black"/>
<path d="M129.005 19.6519L123 8H125.605L130.235 17.2007L134.468 8H137L127.377 28H124.845L129.005 19.6519Z" fill="black"/>
<path d="M142.265 8V13.3149L147.549 8H150.317L144.673 13.7818L151 21H148.052L142.948 15.326L142.265 15.9724V21H140V8H142.265Z" fill="black"/>
<path d="M163.57 8.30709H166V20.6588H163.57V18.9186C162.76 19.8399 161.256 21 158.788 21C155.24 21 152 18.7822 152 14.4488C152 10.1837 155.24 8 158.788 8C161.488 8 162.915 9.29659 163.57 10.0472V8.30709ZM154.507 14.4829C154.507 17.1444 156.204 19.1234 159.096 19.1234C162.066 19.1234 163.725 16.9396 163.725 14.5171C163.725 11.3438 161.218 9.94488 159.096 9.94488C156.667 9.91076 154.507 11.4803 154.507 14.4829Z" fill="black"/>
<path d="M171.356 7L177.076 17.637L182.682 7L186 21.0625H183.521L181.691 12.9856L177 22L172.233 12.9856L170.479 21.0625H168L171.356 7Z" fill="black"/>
<path d="M191.2 8.00962V16.6274L200 7V21.0625H197.8V12.3726L189 22V8.00962H191.2Z" fill="black"/>
<path d="M10.8571 21C4.42857 21 0 16.4306 0 10.5706C0 4.50137 4.25 -0.102894 11 0.00174852" fill="#009FE3"/>
<path d="M120.999 6H115.035L115 11.9983C118.599 12.0706 121.069 9.79412 120.999 6Z" fill="#E71D73"/>
<path d="M41.0829 8.00118C45.8083 7.93313 49 10.8253 49 14.466C49 18.2087 45.8083 21.0669 41 20.9988" fill="#FFED00"/>
<path d="M158.891 20.993C154.394 21.1633 152 18.2002 152 14.556C152 10.8096 154.031 7.7444 159 8.01687" fill="#F39200"/>
<path d="M89 8H86V22H89V8Z" fill="#662483"/>
<path d="M75 26C76.1046 26 77 25.1046 77 24C77 22.8954 76.1046 22 75 22C73.8954 22 73 22.8954 73 24C73 25.1046 73.8954 26 75 26Z" fill="#E94E1B"/>
<path d="M145 8H139V21H145V8Z" fill="#95C11F"/>
<path d="M200 7H198V21H200V7Z" fill="#00A19A"/>
<path d="M5.08586 31.88V38H7.41086C7.80086 38 8.43086 37.955 8.91086 37.58C9.21086 37.355 9.52586 36.95 9.52586 36.26C9.52586 35.645 9.27086 35.27 9.00086 35.03C8.70086 34.775 8.35586 34.7 8.25086 34.685C8.70086 34.4 8.92586 33.95 8.92586 33.41C8.92586 32.78 8.61086 32.42 8.38586 32.24C7.95086 31.895 7.41086 31.88 7.08086 31.88H5.08586ZM5.68586 34.55V32.45H7.08086C7.27586 32.45 7.66586 32.465 7.95086 32.69C8.11586 32.825 8.32586 33.08 8.32586 33.485C8.32586 33.905 8.11586 34.16 7.95086 34.295C7.65086 34.535 7.30586 34.55 7.08086 34.55H5.68586ZM5.68586 37.43V35.12H7.41086C7.75586 35.12 8.17586 35.15 8.49086 35.39C8.74586 35.585 8.89586 35.855 8.89586 36.245C8.89586 36.74 8.65586 37.01 8.46086 37.16C8.11586 37.415 7.63586 37.43 7.41086 37.43H5.68586ZM11.2968 31.88V38H13.3368C13.8018 38 14.3568 37.955 14.8068 37.535C15.1668 37.205 15.3468 36.71 15.3468 36.215C15.3468 35.795 15.2118 35.33 14.9118 35C14.4618 34.49 13.8318 34.43 13.3518 34.43H11.8968V31.88H11.2968ZM11.8968 37.43V35H13.3068C13.6518 35 14.0268 35.075 14.2818 35.27C14.5368 35.465 14.7168 35.795 14.7168 36.215C14.7168 36.62 14.5368 36.95 14.2968 37.145C13.9968 37.4 13.6368 37.43 13.3368 37.43H11.8968ZM16.0368 31.88V38H16.6368V31.88H16.0368ZM19.3968 36.905C19.5768 37.205 20.2518 38.165 21.7668 38.165C23.6268 38.165 24.7668 36.695 24.7668 34.895C24.7668 33.125 23.6418 31.745 21.7968 31.745C20.8218 31.745 19.9818 32.15 19.3968 32.945V31.88H18.7968V41.45H19.3968V36.905ZM21.7518 37.595C20.2068 37.595 19.3668 36.395 19.3668 34.865C19.3668 33.17 20.5668 32.315 21.7668 32.315C23.0268 32.315 24.1368 33.215 24.1368 34.895C24.1368 36.395 23.2968 37.595 21.7518 37.595ZM31.5112 32.945C30.9262 32.12 30.0862 31.745 29.1262 31.745C27.3412 31.745 26.1412 33.05 26.1412 34.94C26.1412 36.95 27.5212 38.165 29.1262 38.165C29.9212 38.165 30.8962 37.85 31.5112 36.905V38H32.1112V31.88H31.5112V32.945ZM29.1562 32.315C30.2062 32.315 31.5412 33.08 31.5412 34.895C31.5412 36.305 30.7012 37.595 29.1712 37.595C27.6262 37.595 26.7712 36.275 26.7712 34.895C26.7712 33.23 27.9412 32.315 29.1562 32.315ZM34.2655 38H42.0955V39.65H42.6655V37.43H41.7655V31.88H41.1655V37.43H38.3155V31.88H37.7155V37.43H34.8655V31.88H34.2655V38ZM49.3939 35.015C49.3939 33.065 48.1489 31.745 46.4989 31.745C44.9989 31.745 43.5289 32.84 43.5289 34.97C43.5289 36.755 44.6389 38.165 46.5439 38.165C48.0589 38.165 48.8689 37.19 49.2289 36.5L48.7189 36.2C48.3289 37.01 47.5789 37.595 46.5889 37.595C45.2989 37.595 44.1589 36.575 44.1589 35.015H49.3939ZM44.2039 34.445C44.3689 33.26 45.2539 32.315 46.4989 32.315C47.7139 32.315 48.6139 33.23 48.7639 34.445H44.2039ZM51.1698 38H51.7698V35.15H55.2198V38H55.8198V31.88H55.2198V34.58H51.7698V31.88H51.1698V38ZM60.8014 31.745C58.9864 31.745 57.5914 33.14 57.5914 34.955C57.5914 36.77 58.9864 38.165 60.8014 38.165C62.6164 38.165 64.0114 36.77 64.0114 34.955C64.0114 33.14 62.6164 31.745 60.8014 31.745ZM60.8014 37.595C59.3314 37.595 58.2214 36.44 58.2214 34.955C58.2214 33.47 59.3314 32.315 60.8014 32.315C62.2714 32.315 63.3814 33.47 63.3814 34.955C63.3814 36.44 62.2714 37.595 60.8014 37.595ZM65.6543 37.55C65.6543 37.865 65.8943 38.105 66.2093 38.105C66.5243 38.105 66.7643 37.865 66.7643 37.55C66.7643 37.235 66.5243 36.995 66.2093 36.995C65.8943 36.995 65.6543 37.235 65.6543 37.55ZM77.2125 32.525C76.3725 31.82 75.5325 31.745 75.0975 31.745C73.1325 31.745 71.9175 33.17 71.9175 34.985C71.9175 36.8 73.2075 38.165 75.0525 38.165C76.1325 38.165 76.8825 37.67 77.2875 37.31V36.5C76.8075 37.025 76.0425 37.595 75.0675 37.595C73.8825 37.595 72.5475 36.725 72.5475 34.97C72.5475 33.47 73.5975 32.315 75.0975 32.315C76.1025 32.315 76.8075 32.855 77.2125 33.32V32.525ZM81.6021 31.745C79.7871 31.745 78.3921 33.14 78.3921 34.955C78.3921 36.77 79.7871 38.165 81.6021 38.165C83.4171 38.165 84.8121 36.77 84.8121 34.955C84.8121 33.14 83.4171 31.745 81.6021 31.745ZM81.6021 37.595C80.1321 37.595 79.0221 36.44 79.0221 34.955C79.0221 33.47 80.1321 32.315 81.6021 32.315C83.0721 32.315 84.1821 33.47 84.1821 34.955C84.1821 36.44 83.0721 37.595 81.6021 37.595ZM86.8001 33.335C86.8451 32.225 87.2051 30.725 88.2101 29.915C88.8851 29.375 89.7551 29.21 90.3551 29.09C91.1201 28.925 92.1251 28.7 92.5751 27.65H91.8251C91.6751 27.995 91.3901 28.25 90.4751 28.445C89.7251 28.595 88.8401 28.715 88.1051 29.195C86.3801 30.32 86.1851 32.765 86.1851 34.13C86.1851 34.955 86.2301 36.455 87.2351 37.4C87.6401 37.775 88.3301 38.165 89.3801 38.165C91.1801 38.165 92.6051 36.95 92.6051 34.94C92.6051 33.05 91.3751 31.745 89.5151 31.745C88.4651 31.745 87.3101 32.21 86.8301 33.335H86.8001ZM89.3801 37.595C88.7951 37.595 88.0451 37.475 87.4601 36.71C87.1151 36.26 86.8751 35.57 86.8751 34.94C86.8751 33.68 87.7751 32.315 89.5151 32.315C91.1201 32.315 91.9751 33.635 91.9751 34.94C91.9751 36.155 91.2551 37.595 89.3801 37.595ZM94.9681 36.905C95.1481 37.205 95.8231 38.165 97.3381 38.165C99.1981 38.165 100.338 36.695 100.338 34.895C100.338 33.125 99.2131 31.745 97.3681 31.745C96.3931 31.745 95.5531 32.15 94.9681 32.945V31.88H94.3681V41.45H94.9681V36.905ZM97.3231 37.595C95.7781 37.595 94.9381 36.395 94.9381 34.865C94.9381 33.17 96.1381 32.315 97.3381 32.315C98.5981 32.315 99.7081 33.215 99.7081 34.895C99.7081 36.395 98.8681 37.595 97.3231 37.595ZM107.082 32.945C106.497 32.12 105.657 31.745 104.697 31.745C102.912 31.745 101.712 33.05 101.712 34.94C101.712 36.95 103.092 38.165 104.697 38.165C105.492 38.165 106.467 37.85 107.082 36.905V38H107.682V31.88H107.082V32.945ZM104.727 32.315C105.777 32.315 107.112 33.08 107.112 34.895C107.112 36.305 106.272 37.595 104.742 37.595C103.197 37.595 102.342 36.275 102.342 34.895C102.342 33.23 103.512 32.315 104.727 32.315ZM109.837 38H110.437V35.15H113.887V38H114.487V31.88H113.887V34.58H110.437V31.88H109.837V38ZM119.468 31.745C117.653 31.745 116.258 33.14 116.258 34.955C116.258 36.77 117.653 38.165 119.468 38.165C121.283 38.165 122.678 36.77 122.678 34.955C122.678 33.14 121.283 31.745 119.468 31.745ZM119.468 37.595C117.998 37.595 116.888 36.44 116.888 34.955C116.888 33.47 117.998 32.315 119.468 32.315C120.938 32.315 122.048 33.47 122.048 34.955C122.048 36.44 120.938 37.595 119.468 37.595ZM124.321 37.55C124.321 37.865 124.561 38.105 124.876 38.105C125.191 38.105 125.431 37.865 125.431 37.55C125.431 37.235 125.191 36.995 124.876 36.995C124.561 36.995 124.321 37.235 124.321 37.55ZM131.395 31.88V34.97C131.395 35.6 131.35 36.185 131.14 36.62C130.96 36.995 130.585 37.4 130.015 37.43V39.65H130.585V38H135.745V39.65H136.315V37.43H135.415V31.88H131.395ZM134.815 37.43H131.215C131.62 37.085 131.995 36.5 131.995 35.15V32.45H134.815V37.43ZM140.401 31.745C138.586 31.745 137.191 33.14 137.191 34.955C137.191 36.77 138.586 38.165 140.401 38.165C142.216 38.165 143.611 36.77 143.611 34.955C143.611 33.14 142.216 31.745 140.401 31.745ZM140.401 37.595C138.931 37.595 137.821 36.44 137.821 34.955C137.821 33.47 138.931 32.315 140.401 32.315C141.871 32.315 142.981 33.47 142.981 34.955C142.981 36.44 141.871 37.595 140.401 37.595ZM150.279 32.525C149.439 31.82 148.599 31.745 148.164 31.745C146.199 31.745 144.984 33.17 144.984 34.985C144.984 36.8 146.274 38.165 148.119 38.165C149.199 38.165 149.949 37.67 150.354 37.31V36.5C149.874 37.025 149.109 37.595 148.134 37.595C146.949 37.595 145.614 36.725 145.614 34.97C145.614 33.47 146.664 32.315 148.164 32.315C149.169 32.315 149.874 32.855 150.279 33.32V32.525ZM153.18 38H153.78V32.45H155.91V31.88H151.05V32.45H153.18V38ZM161.765 32.945C161.18 32.12 160.34 31.745 159.38 31.745C157.595 31.745 156.395 33.05 156.395 34.94C156.395 36.95 157.775 38.165 159.38 38.165C160.175 38.165 161.15 37.85 161.765 36.905V38H162.365V31.88H161.765V32.945ZM159.41 32.315C160.46 32.315 161.795 33.08 161.795 34.895C161.795 36.305 160.955 37.595 159.425 37.595C157.88 37.595 157.025 36.275 157.025 34.895C157.025 33.23 158.195 32.315 159.41 32.315ZM164.519 31.88V38H166.844C167.234 38 167.864 37.955 168.344 37.58C168.644 37.355 168.959 36.95 168.959 36.26C168.959 35.645 168.704 35.27 168.434 35.03C168.134 34.775 167.789 34.7 167.684 34.685C168.134 34.4 168.359 33.95 168.359 33.41C168.359 32.78 168.044 32.42 167.819 32.24C167.384 31.895 166.844 31.88 166.514 31.88H164.519ZM165.119 34.55V32.45H166.514C166.709 32.45 167.099 32.465 167.384 32.69C167.549 32.825 167.759 33.08 167.759 33.485C167.759 33.905 167.549 34.16 167.384 34.295C167.084 34.535 166.739 34.55 166.514 34.55H165.119ZM165.119 37.43V35.12H166.844C167.189 35.12 167.609 35.15 167.924 35.39C168.179 35.585 168.329 35.855 168.329 36.245C168.329 36.74 168.089 37.01 167.894 37.16C167.549 37.415 167.069 37.43 166.844 37.43H165.119ZM175.02 31.88H171V35.99C171 36.365 170.985 36.755 170.79 37.055C170.655 37.25 170.4 37.46 169.995 37.46C169.92 37.46 169.845 37.445 169.77 37.43V38C169.875 38.015 169.965 38.03 170.07 38.03C170.655 38.03 171.045 37.745 171.24 37.475C171.585 37.01 171.6 36.395 171.6 35.99V32.45H174.42V38H175.02V31.88ZM182.651 35.015C182.651 33.065 181.406 31.745 179.756 31.745C178.256 31.745 176.786 32.84 176.786 34.97C176.786 36.755 177.896 38.165 179.801 38.165C181.316 38.165 182.126 37.19 182.486 36.5L181.976 36.2C181.586 37.01 180.836 37.595 179.846 37.595C178.556 37.595 177.416 36.575 177.416 35.015H182.651ZM177.461 34.445C177.626 33.26 178.511 32.315 179.756 32.315C180.971 32.315 181.871 33.23 182.021 34.445H177.461ZM184.427 38H185.027V35.15H188.477V38H189.077V31.88H188.477V34.58H185.027V31.88H184.427V38ZM194.058 31.745C192.243 31.745 190.848 33.14 190.848 34.955C190.848 36.77 192.243 38.165 194.058 38.165C195.873 38.165 197.268 36.77 197.268 34.955C197.268 33.14 195.873 31.745 194.058 31.745ZM194.058 37.595C192.588 37.595 191.478 36.44 191.478 34.955C191.478 33.47 192.588 32.315 194.058 32.315C195.528 32.315 196.638 33.47 196.638 34.955C196.638 36.44 195.528 37.595 194.058 37.595ZM199.231 37.4C199.231 37.82 199.551 38.14 199.971 38.14C200.391 38.14 200.711 37.82 200.711 37.4C200.711 36.98 200.391 36.66 199.971 36.66C199.551 36.66 199.231 36.98 199.231 37.4Z" fill="black"/>
</svg>
