<svg width="292" height="431" viewBox="0 0 292 431" fill="none" xmlns="http://www.w3.org/2000/svg">
<path d="M264.115 61.7154C269.303 67.4307 276.853 67.7584 281.953 63.1294C287.235 58.3351 287.813 50.9196 282.275 45.0011" fill="#0181F8"/>
<path d="M115.279 71.1498L129.238 85.1088L142.123 72.3892C133.852 63.81 123.211 62.8869 115.279 71.1498Z" fill="#FFE500"/>
<path d="M215.238 33.9911L222.159 37.1172L204.364 76.5154L197.443 73.3893L215.238 33.9911Z" fill="#AA0BF0"/>
<path d="M1.99992 9.91414L11.9141 0L41.2434 29.3293L31.3292 39.2435L1.99992 9.91414Z" fill="#22DA4A"/>
<path d="M258.946 342.17C249.274 351.53 249.464 364.574 257.793 372.904C266.356 381.467 279.323 381.578 288.85 371.74" fill="#FF800C"/>
<path d="M63.1798 400.469C53.4841 389.994 41.3369 391.405 32.9994 399.743C24.4281 408.314 21.9699 419.882 33.736 430.401" fill="#FF1378"/>
<path d="M136.189 366L143.524 367.966L132.336 409.723L125 407.758L136.189 366Z" fill="#AA0BF0"/>
<path d="M180 364.914L189.914 355L219.243 384.329L209.329 394.243L180 364.914Z" fill="#22DA4A"/>
<path d="M5.37016 365.939L0 360.568L30.5686 330L35.9388 335.37L5.37016 365.939Z" fill="#39CCEC"/>
</svg>
