<svg width="1306" height="701" viewBox="0 0 1306 701" fill="none" xmlns="http://www.w3.org/2000/svg">
<path d="M1191.63 550.398C1182.69 560.125 1183.3 573.048 1191.98 581.026C1200.97 589.289 1213.7 589.127 1222.93 578.771" fill="#0181F8"/>
<path d="M1152.24 296.728L1130.6 322.683L1154.28 342.681C1167.62 327.255 1167.55 308.973 1152.24 296.728Z" fill="#FFE500"/>
<path d="M118.099 539.437C100.646 524.396 78.4381 526.736 65.5265 542.224C52.2529 558.146 54.0679 580.268 72.3137 594.988" fill="#FF800C"/>
<path d="M151.389 177.992C167.747 159.843 163.463 139.353 147.96 126.429C132.023 113.143 111.923 110.741 95.8094 132.426" fill="#FF1378"/>
<path d="M1271.41 211.345C1249.64 200.242 1230.96 209.683 1222.49 228.003C1213.78 246.836 1216.66 266.873 1241.78 276.824" fill="#FF1378"/>
<path d="M1231.05 461.388L1226.79 473.67L1156.87 449.427L1161.13 437.145L1231.05 461.388Z" fill="#AA0BF0"/>
<path d="M287.093 355.177L284.877 367.986L211.96 355.37L214.177 342.56L287.093 355.177Z" fill="#AA0BF0"/>
<path d="M1176.87 70.5727L1195.3 85.9407L1149.84 140.476L1131.4 125.108L1176.87 70.5727Z" fill="#22DA4A"/>
<path d="M280.874 474.168L299.309 489.536L253.845 544.071L235.411 528.703L280.874 474.168Z" fill="#22DA4A"/>
<path d="M272.748 165.834L281.072 155.849L337.911 203.233L329.587 213.219L272.748 165.834Z" fill="#39CCEC"/>
</svg>
