<svg width="295" height="174" viewBox="0 0 295 174" fill="none" xmlns="http://www.w3.org/2000/svg">
<path d="M201.348 160.718C203.615 165.061 203.61 171.482 203.61 171.482C203.61 171.482 176.723 171.283 176.723 171.482C176.723 171.681 180.077 165.275 189.671 163.489L188.482 159.937L201.348 160.718Z" fill="#683F1D"/>
<path d="M284.23 148.609C288.574 146.342 294.994 146.347 294.994 146.347C294.994 146.347 294.795 173.234 294.994 173.234C295.193 173.234 288.787 169.88 287.001 160.286L283.449 161.475L284.23 148.609Z" fill="#683F1D"/>
<path d="M287.332 146.619L286.565 163.12C286.565 163.12 248.506 173.418 242.003 170.739C235.5 168.06 234.238 163.848 231.811 150.191C229.385 136.534 226.579 121.227 226.579 121.227C226.579 121.227 220.1 121.776 212.088 122.013C206.012 122.244 199.928 122.133 193.864 121.679C192.86 121.586 191.894 121.48 190.977 121.353L198.096 140.625C201.692 150.361 205.376 160.339 205.764 161.421H187.807C187.807 161.421 170.962 129.521 168.395 123.013C165.827 116.505 166.225 105.838 175.674 105.11C185.124 104.382 213.175 104.139 213.175 104.139L237.926 103.916L248.065 103.824C248.312 113.826 250.651 133.171 251.947 143.091C252.432 146.871 252.762 149.283 252.762 149.283C252.762 149.283 266.123 150.191 287.332 146.619Z" fill="#A7CAF0"/>
<path d="M251.903 143.105C251.614 143.15 251.319 143.121 251.044 143.022C245.002 140.955 245.817 127.934 244.812 119.339C243.842 110.846 238.43 115.083 237.901 103.93L248.04 103.838C248.292 113.831 250.631 133.185 251.903 143.105Z" fill="#93BEE5"/>
<path d="M226.564 121.228C226.564 121.228 220.085 121.776 212.072 122.014C214.984 117.457 218.459 121.296 221.356 119.626C224.254 117.957 222.206 112.793 225.326 113.006L226.564 121.228Z" fill="#93BEE5"/>
<path d="M186.56 116.195C186.973 116.453 187.357 116.756 187.705 117.098C188.807 118.107 190.311 119.786 190.961 121.354" stroke="#83ADDF" stroke-width="0.75" stroke-linecap="round" stroke-linejoin="round"/>
<path d="M222.856 111.638C224.521 112.123 225.152 112.322 225.327 113.006C225.501 113.691 226.637 121.616 226.637 121.616" stroke="#83ADDF" stroke-width="0.75" stroke-linecap="round" stroke-linejoin="round"/>
<path d="M252.723 149.298C253.208 151.827 252.747 155.559 252.723 155.996" stroke="#83ADDF" stroke-width="0.75" stroke-linecap="round" stroke-linejoin="round"/>
<path d="M228.607 61.2077C228.781 64.5273 221.56 69.861 217.211 68.638C212.863 67.415 210.567 62.7413 211.184 59.0141C211.49 57.1893 211.839 55.2966 212.154 53.2485C212.494 51.1277 212.8 48.8418 212.994 46.3036C213.064 45.3709 213.184 44.4427 213.353 43.5227C215.1 34.2143 221.414 33.0399 223.467 41.8532C225.559 50.8219 228.456 58.5045 228.607 61.2077Z" fill="#FEBD9D"/>
<path d="M219.843 46.0803C219.789 50.7879 216.698 53.2387 212.155 53.2484C212.495 51.1276 212.801 48.8417 212.995 46.3035C213.065 45.3709 213.185 44.4426 213.354 43.5227C216.378 42.785 219.872 42.6636 219.843 46.0803Z" fill="#F4A789"/>
<path d="M248.044 103.838C247.671 104.401 238.891 104.921 230.233 105.066C221.866 105.212 213.616 105.003 213.15 104.154C212.937 103.756 212.728 102.543 212.509 100.82C211.791 94.9959 211.005 83.4599 209.651 78.1894C208.938 75.4133 207.137 71.6715 205.526 68.1433C203.162 62.9892 201.202 58.2865 203.623 57.7138C207.506 56.7917 209.816 56.1608 211.956 54.4864C211.956 58.8543 212.393 62.6883 217.741 61.111C223.089 59.5337 225.341 53.3896 225.734 50.3952C225.734 50.3952 230.913 50.3952 233.961 50.0749C235.892 49.8312 237.837 49.7064 239.784 49.7012C241.24 49.7351 242.546 49.9438 243.259 50.4971C243.672 50.8174 244.23 54.2874 244.812 59.325C245.298 63.2901 245.754 68.2258 246.205 73.3556C246.627 78.1602 247.02 83.1396 247.341 87.6434C247.501 89.905 247.647 92.0452 247.758 93.9865C247.792 94.5058 247.821 95.0105 247.85 95.4958C248.127 100.296 248.224 103.567 248.044 103.838Z" fill="#FED81D"/>
<path d="M239.387 70.0454C236.999 72.5982 235.315 76.7768 238.358 82.5327C240.3 86.1774 236.417 86.5559 232.496 84.5322C230.006 83.2461 222.018 85.299 223.377 90.0745C224.735 94.85 249.856 93.9328 249.856 93.9328L254.534 87.5994C254.534 87.5994 250.516 76.7816 248.997 75.9129C247.478 75.0442 245.628 72.6564 245.628 72.6564L239.387 70.0454Z" fill="#FCC71F"/>
<path d="M244.817 59.3246C240.75 61.1348 237.144 64.2215 236.047 67.9341C235.857 68.5651 235.744 69.2171 235.713 69.8754C235.281 79.0965 222.793 88.1816 214.723 78.1258C214.538 77.8977 214.359 77.6405 214.179 77.4124C210.835 72.7437 208.117 69.6085 205.526 68.1525C203.162 62.9985 201.202 58.2957 203.623 57.7231C207.506 56.801 209.816 56.17 211.956 54.4957C211.956 58.8635 212.393 62.6976 217.741 61.1203C223.089 59.543 225.341 53.3989 225.734 50.4045C225.734 50.4045 230.913 50.4044 233.961 50.0841C235.892 49.8405 237.837 49.7157 239.784 49.7104C241.24 49.7444 242.546 49.9531 243.259 50.5064C243.677 50.817 244.23 54.287 244.817 59.3246Z" fill="#FFE05C"/>
<path d="M231.033 70.5648C231.455 68.7109 233.304 67.881 234.401 69.5068C235.445 71.0501 233.052 74.6172 231.756 74.7822C230.46 74.9472 227.791 73.1224 227.447 71.22C227.102 69.3175 229.373 68.7594 231.033 70.5648Z" fill="white"/>
<path d="M213.563 98.539C213.552 99.5947 213.224 100.623 212.622 101.49C210.768 104.271 206.371 106.226 201.246 106.226C197.582 106.226 194.291 105.227 192.025 103.64C191.17 103.064 190.432 102.331 189.851 101.48C189.253 100.615 188.929 99.5904 188.919 98.539C188.919 95.1709 192.384 92.3075 197.208 91.2592C198.532 90.9742 199.882 90.8327 201.236 90.837H201.43C204.028 90.8278 206.593 91.4086 208.933 92.5356C210.002 93.051 210.973 93.749 211.802 94.5982C212.732 95.509 213.33 96.7051 213.5 97.9955C213.532 98.1753 213.553 98.3568 213.563 98.539Z" fill="#FED81D"/>
<path d="M213.563 98.5381C213.552 99.5939 213.224 100.622 212.621 101.489C210.767 104.27 206.37 106.226 201.245 106.226C197.581 106.226 194.291 105.226 192.024 103.639C191.169 103.063 190.432 102.33 189.85 101.479C192.497 100.625 195.321 100.478 198.042 101.052C198.489 101.154 198.921 101.275 199.343 101.411C200.244 101.711 201.159 101.966 202.085 102.173C211.432 104.192 205.676 95.5631 208.957 92.5493C210.026 93.0646 210.997 93.7627 211.825 94.6119C212.755 95.5227 213.353 96.7187 213.524 98.0091C213.547 98.1846 213.56 98.3612 213.563 98.5381Z" fill="#FCC71F"/>
<path d="M214.077 93.7628C213.936 95.0925 213.776 96.3156 213.616 97.3978C213.587 97.6065 213.548 97.8103 213.509 98.0093C213.321 98.9915 212.984 99.9392 212.509 100.819C209.947 105.546 204.007 106.124 200.376 103.731C199.36 103.076 198.543 102.152 198.018 101.062C197.706 100.403 197.511 99.6956 197.44 98.9702C197.3 97.558 197.207 94.7188 197.183 91.2779C197.183 89.2105 197.183 86.9101 197.212 84.5951C197.3 78.5675 197.552 72.2535 198.013 68.7106C198.052 68.4243 198.091 68.1525 198.129 67.905C199.168 61.4114 200.876 58.0627 203.614 57.7133C211.709 56.7087 214.291 67.1091 214.713 78.0967C214.868 83.3272 214.656 88.5621 214.077 93.7628Z" fill="#FED81D"/>
<path d="M214.723 78.1161C214.538 77.888 214.359 77.6308 214.179 77.4027C210.835 72.7339 208.118 69.5988 205.526 68.1428C203.056 66.7548 200.702 66.9004 198.033 68.6961C198.072 68.4097 198.11 68.138 198.149 67.8904C199.188 61.3969 200.896 58.0482 203.633 57.6988C211.719 56.7087 214.32 67.1091 214.723 78.1161Z" fill="#FFE05C"/>
<path d="M207.253 66.042C209.277 72.7976 209.704 77.5198 210.204 80.7908" stroke="#F7AD2B" stroke-width="0.75" stroke-linecap="round" stroke-linejoin="round"/>
<path d="M209.779 77.835C210.357 81.2322 210.959 86.6532 211.502 91.7102C211.876 95.1705 212.22 98.4561 212.512 100.815C212.541 101.048 212.57 101.271 212.599 101.485C212.676 102.392 212.861 103.286 213.152 104.149" stroke="#F7AD2B" stroke-width="0.75" stroke-linecap="round" stroke-linejoin="round"/>
<path d="M213.616 97.398C213.587 97.6067 213.548 97.8105 213.509 98.0095C213.529 98.1852 213.539 98.3618 213.539 98.5385C213.528 99.5942 213.2 100.622 212.597 101.489C212.568 101.276 212.539 101.052 212.51 100.82C209.947 105.547 204.007 106.124 200.377 103.731C199.36 103.076 198.544 102.152 198.018 101.062C198.465 101.164 198.896 101.285 199.319 101.421C200.219 101.721 201.135 101.976 202.061 102.183C211.408 104.202 205.652 95.5732 208.933 92.5594C209.445 92.1136 210.069 91.8165 210.738 91.7004C210.988 91.6528 211.245 91.6611 211.491 91.7247C212.306 91.9333 213.184 92.6953 214.068 93.7727C213.937 95.0928 213.776 96.3158 213.616 97.398Z" fill="#FCC71F"/>
<path d="M166.489 70.0212C165.033 66.9637 176.161 60.3537 177.578 62.7172C178.996 65.0807 172.177 71.3898 172.177 71.3898C172.177 71.3898 166.829 70.7007 166.489 70.0212Z" fill="#FCC71F"/>
<path d="M170.095 54.6998C171.745 54.593 173.9 55.7481 177.442 63.4355L171.536 68.9633C171.536 68.9633 167.207 67.1288 165.897 64.3091C164.586 61.4894 168.061 54.8308 170.095 54.6998Z" fill="#FEBD9D"/>
<path d="M202.073 102.183C201.922 102.378 201.76 102.564 201.588 102.741C201.223 103.098 200.828 103.422 200.408 103.712C197.846 105.508 195.007 105.236 192.032 103.629C191.007 103.068 190.032 102.418 189.12 101.688C186.373 99.548 183.558 96.5196 180.787 93.1515C173.483 84.2701 166.519 70.0018 166.519 70.0018C170.299 69.7445 176.919 63.5519 177.608 62.6929C177.608 62.6929 189.052 75.3742 193.988 80.7661C194.958 81.8435 196.108 83.1393 197.239 84.5613C198.821 86.5291 200.224 88.634 201.432 90.851C203.611 94.9034 204.572 99.1112 202.073 102.183Z" fill="#FED81D"/>
<path d="M202.072 102.183C201.921 102.378 201.759 102.565 201.587 102.742C201.222 103.098 200.828 103.423 200.408 103.712C197.845 105.508 195.006 105.236 192.031 103.63C191.006 103.068 190.032 102.419 189.119 101.688C189.367 101.601 189.604 101.528 189.852 101.456C192.499 100.601 195.323 100.454 198.044 101.028C198.491 101.13 198.923 101.252 199.345 101.388C200.24 101.699 201.15 101.964 202.072 102.183Z" fill="#FCC71F"/>
<path d="M177.594 62.7173C177.594 62.7173 189.043 75.3938 193.979 80.7905C196.502 83.5472 199.963 87.6918 201.962 91.8655" stroke="#F7AD2B" stroke-width="0.75" stroke-linecap="round" stroke-linejoin="round"/>
<path d="M157.979 57.0537C156.729 57.442 155.155 57.4926 154.501 56.4505C153.846 55.4084 154.242 52.399 156.314 53.2229C156.314 53.2229 159.698 52.3859 160.395 53.1272C161.091 53.8684 157.979 57.0537 157.979 57.0537Z" fill="#B68649" stroke="#683F1D" stroke-linecap="round" stroke-linejoin="round"/>
<path d="M159.792 66.062C159.792 66.062 155.747 65.0609 155.19 64.9662C154.634 64.8716 154.154 65.3162 152.278 64.9379C150.402 64.5595 151.395 61.4994 151.893 60.5493C152.391 59.5992 153.619 59.8224 154.277 60.3073C154.935 60.7922 155.429 60.5118 155.752 59.2929C156.305 57.6353 157.101 56.0689 158.115 54.6451C158.867 53.5364 159.899 52.6469 161.107 52.0671C162.315 51.4874 163.655 51.2381 164.99 51.3447C167.933 51.6864 171.237 52.8206 170.303 57.2907C169.368 61.7607 169.03 62.4337 168.061 63.9864C167.092 65.5391 165.696 66.2993 165.008 66.9125C164.139 67.6689 160.492 67.3997 159.792 66.062Z" fill="#B68649" stroke="#683F1D" stroke-linecap="round" stroke-linejoin="round"/>
<path d="M160.542 44.5293C158.549 44.2776 157.892 42.6821 158.742 41.5454C159.592 40.4087 161.248 40.9203 162.145 42.9776L160.542 44.5293Z" fill="#B68649" stroke="#683F1D" stroke-linecap="round" stroke-linejoin="round"/>
<path d="M167.465 42.5763L170.035 44.4894C170.035 44.4894 172.797 42.0012 170.631 40.7139C168.36 39.3522 167.465 42.5763 167.465 42.5763Z" fill="#B68649" stroke="#683F1D" stroke-linecap="round" stroke-linejoin="round"/>
<path d="M160.038 47.066C159.916 44.8892 160.602 41.6618 164.908 41.1978C169.215 40.7339 172.561 45.1684 172.507 49.0728C172.453 52.9772 166.954 55.0082 162.373 53.3539C157.791 51.6996 158.061 48.5895 160.038 47.066Z" fill="#B68649" stroke="#683F1D" stroke-linecap="round" stroke-linejoin="round"/>
<path d="M164.632 46.2657C164.404 46.9928 163.881 47.6308 163.189 47.6312C162.782 47.6492 162.38 47.5378 162.04 47.3129C161.7 47.0881 161.44 46.7615 161.298 46.3799C162.36 45.9438 163.543 45.9033 164.632 46.2657Z" fill="#683F1D" stroke="#683F1D" stroke-linecap="round" stroke-linejoin="round"/>
<path d="M167.377 50.8788C167.498 50.2462 167.463 49.5938 167.275 48.9778C167.087 48.3618 166.752 47.8009 166.298 47.3435C165.831 46.864 165.262 46.4957 164.633 46.266C163.544 45.9035 162.36 45.944 161.299 46.3801C160.853 46.5505 160.435 46.7829 160.054 47.0705" stroke="#683F1D" stroke-linecap="round" stroke-linejoin="round"/>
<path d="M161.381 44.9778C161.35 45.0998 161.357 45.2281 161.4 45.3463C161.442 45.4645 161.519 45.5675 161.62 45.6421C161.722 45.7166 161.843 45.7596 161.968 45.7654C162.094 45.7712 162.218 45.7396 162.326 45.6747C162.433 45.6097 162.519 45.5144 162.573 45.4006C162.626 45.2868 162.645 45.1597 162.626 45.0354C162.607 44.9111 162.552 44.7952 162.467 44.7023C162.383 44.6094 162.272 44.5437 162.15 44.5135C162.069 44.4935 161.985 44.4896 161.902 44.502C161.82 44.5145 161.741 44.5431 161.669 44.5863C161.598 44.6294 161.535 44.6861 161.486 44.7533C161.436 44.8205 161.401 44.8968 161.381 44.9778Z" fill="#683F1D"/>
<path d="M164.876 45.3601C164.845 45.4824 164.852 45.6109 164.895 45.7293C164.938 45.8476 165.015 45.9506 165.117 46.0252C165.218 46.0997 165.339 46.1423 165.465 46.1478C165.591 46.1532 165.716 46.1211 165.823 46.0556C165.931 45.9902 166.016 45.8942 166.069 45.7799C166.122 45.6657 166.14 45.5383 166.12 45.4139C166.101 45.2895 166.045 45.1737 165.959 45.0813C165.874 44.9888 165.763 44.9238 165.64 44.8946C165.477 44.8557 165.305 44.8827 165.162 44.9699C165.019 45.0571 164.916 45.1974 164.876 45.3601Z" fill="#683F1D"/>
<path d="M162.973 47.5298C162.916 49.0613 162.839 50.6093 162.839 50.6093" stroke="#683F1D" stroke-linecap="round" stroke-linejoin="round"/>
<path d="M161.155 49.5322C161.331 49.8267 161.573 50.0772 161.86 50.2646C162.148 50.4521 162.475 50.5715 162.815 50.6139C163.156 50.6564 163.502 50.6206 163.827 50.5094C164.152 50.3982 164.447 50.2145 164.69 49.9722" stroke="#683F1D" stroke-linecap="round" stroke-linejoin="round"/>
<path d="M163.647 62.3473C162.762 62.3696 162.434 61.8701 161.842 61.9006C160.628 61.9704 159.616 62.9597 159.772 66.0574" fill="#B68649"/>
<path d="M163.647 62.3473C162.762 62.3696 162.434 61.8701 161.842 61.9006C160.628 61.9704 159.616 62.9597 159.772 66.0574" stroke="#683F1D" stroke-linecap="round" stroke-linejoin="round"/>
<path d="M167.744 55.2633C166.722 54.7098 165.028 56.3084 164.508 56.8024C164.508 56.8024 162.959 56.8377 162.954 58.2263C162.948 59.615 163.87 60.031 164.857 59.9048" fill="#B68649"/>
<path d="M167.744 55.2633C166.722 54.7098 165.028 56.3084 164.508 56.8024C164.508 56.8024 162.959 56.8377 162.954 58.2263C162.948 59.615 163.87 60.031 164.857 59.9048" stroke="#683F1D" stroke-linecap="round" stroke-linejoin="round"/>
<path d="M164.51 56.8018C164.985 56.7691 165.278 57.5985 165.278 57.5985L164.51 56.8018Z" fill="#F9F9F9"/>
<path d="M164.51 56.8018C164.985 56.7691 165.278 57.5985 165.278 57.5985" stroke="#683F1D" stroke-linecap="round" stroke-linejoin="round"/>
<path d="M160.664 63.777C161.067 63.1682 161.825 63.1411 161.92 64.2326C161.949 64.9691 161.769 65.6988 161.399 66.3364" stroke="#683F1D" stroke-linecap="round" stroke-linejoin="round"/>
<path d="M155.515 53.997C156.293 53.9104 156.267 55.7931 155.791 56.5018" stroke="#683F1D" stroke-linecap="round" stroke-linejoin="round"/>
<path d="M152.322 60.9026C152.939 60.5776 153.371 61.0011 153.27 61.733C153.129 63.0398 153.115 64.0077 152.458 64.1242" stroke="#683F1D" stroke-linecap="round" stroke-linejoin="round"/>
<path d="M170.56 62.2172C168.799 61.2465 168.333 58.1987 168.541 56.8398C168.541 56.8398 165.348 58.5773 164.63 57.8105C163.911 57.0437 165.033 56.2477 166.503 54.9665C167.974 53.6853 169.449 52.5399 171.521 54.2288C172.869 55.392 173.971 56.8126 174.763 58.4074C174.817 58.4753 174.186 62.421 170.56 62.2172Z" fill="#FEBD9D"/>
<path d="M170.56 62.2172C168.799 61.2465 168.333 58.1987 168.541 56.8398C168.541 56.8398 165.348 58.5773 164.63 57.8105C163.911 57.0437 165.033 56.2477 166.503 54.9665C167.974 53.6853 169.449 52.5399 171.521 54.2288" stroke="#EF8A66" stroke-width="0.75" stroke-linecap="round" stroke-linejoin="round"/>
<path d="M224.949 35.4327C224.949 35.4327 226.157 36.6751 224.463 37.9078C224.197 38.1019 223.93 38.3057 223.672 38.5096C222.299 39.6015 221.154 40.6984 221.154 40.6984L212.107 34.1563C211.68 33.2827 211.874 32.249 212.369 31.9869C212.369 31.9869 211.433 31.6714 211.743 30.9823C212.054 30.2931 212.534 30.5795 212.593 30.6134C212.525 30.5212 211.685 29.3079 212.253 28.6091C212.431 28.4059 212.677 28.2746 212.945 28.2398C213.213 28.205 213.485 28.269 213.709 28.4198C213.617 28.3082 213.049 27.6045 213.442 26.9639C213.835 26.3232 215.747 25.7166 216.043 27.5414C215.988 27.1649 216.083 26.7819 216.307 26.4745C216.531 26.167 216.867 25.9594 217.242 25.8962C217.524 25.8254 217.822 25.8642 218.076 26.0047C218.33 26.1453 218.521 26.3771 218.611 26.6532C218.611 26.6532 218.397 25.4011 219.63 25.3526C220.862 25.3041 220.421 26.9736 220.377 27.1628C220.435 27.0124 220.989 25.6535 222.212 26.0272C223.435 26.4009 223.003 28.0024 222.974 28.1141C223.056 28.017 224.124 26.828 225.24 28.2645C226.356 29.7011 224.269 30.9823 224.269 30.9823C224.269 30.9823 225.405 30.7154 225.507 31.7394C225.572 31.9885 225.535 32.2531 225.405 32.4752C225.275 32.6973 225.062 32.8585 224.813 32.9236C224.813 32.9236 226.458 32.9867 226.376 34.1563C226.293 35.3259 224.949 35.4327 224.949 35.4327Z" fill="#BF8228"/>
<path d="M224.022 37.053C223.872 37.582 223.76 38.0722 223.673 38.509C222.3 39.6009 221.154 40.6977 221.154 40.6977L212.108 34.1556C211.681 33.2821 211.875 32.2483 212.37 31.9863C212.37 31.9863 212.923 29.2976 214.166 28.9773C215.408 28.657 216.325 28.8802 216.864 28.3998C217.403 27.9193 221.115 26.9438 222.047 29.2976C222.979 31.6514 222.693 31.7242 223.746 32.3211C224.799 32.9181 224.629 34.8836 224.022 37.053Z" fill="#B57724"/>
<path d="M223.469 41.8537C221.77 44.9985 216.141 49.8808 212.069 48.1628C208.9 46.8427 209.419 43.0961 210.423 39.3834C210.681 38.437 210.967 37.4858 211.234 36.5831C211.263 36.4763 211.297 36.3744 211.326 36.2676C212.637 31.7736 213.753 29.1868 218.053 29.4732C222.353 29.7595 221.984 34.0012 221.984 34.0012C221.674 34.5493 221.456 35.1444 221.338 35.7629C221.163 36.5197 221.294 37.3151 221.702 37.976C221.723 38.0094 221.746 38.0418 221.77 38.073C221.77 38.073 223.396 36.355 225.085 37.3353C227.395 38.6991 226.123 42.1788 223.469 41.8537Z" fill="#FEBD9D"/>
<path d="M216.296 36.015C216.296 36.1302 216.33 36.2428 216.394 36.3386C216.458 36.4343 216.549 36.509 216.655 36.553C216.762 36.5971 216.879 36.6087 216.992 36.5862C217.105 36.5637 217.209 36.5083 217.29 36.4268C217.372 36.3454 217.427 36.2416 217.449 36.1286C217.472 36.0156 217.46 35.8985 217.416 35.7921C217.372 35.6857 217.298 35.5948 217.202 35.5308C217.106 35.4668 216.993 35.4326 216.878 35.4326C216.724 35.4326 216.576 35.494 216.466 35.6032C216.357 35.7124 216.296 35.8605 216.296 36.015Z" fill="#683F1D"/>
<path d="M213.599 36.4372C213.921 36.4372 214.181 36.1765 214.181 35.8548C214.181 35.5332 213.921 35.2725 213.599 35.2725C213.277 35.2725 213.017 35.5332 213.017 35.8548C213.017 36.1765 213.277 36.4372 213.599 36.4372Z" fill="#683F1D"/>
<path d="M221.77 38.0923C221.468 38.5334 221.231 39.0155 221.066 39.524" stroke="#EF8A66" stroke-width="0.75" stroke-linecap="round" stroke-linejoin="round"/>
<path d="M222.396 39.524C224.221 38.2477 224.881 41.2906 222.396 40.5869" stroke="#EF8A66" stroke-width="0.75" stroke-linecap="round" stroke-linejoin="round"/>
<path d="M222.26 39.7271C222.42 38.9361 223.745 37.8101 224.949 38.6449" stroke="#EF8A66" stroke-width="0.75" stroke-linecap="round" stroke-linejoin="round"/>
<path d="M213.024 39.0385C212.952 38.6533 213.008 38.2551 213.183 37.9046C213.358 37.5541 213.644 37.2705 213.995 37.0972C214.636 36.7963 215.538 36.1945 215.068 34.5396" stroke="#EF8A66" stroke-width="0.75" stroke-linecap="round" stroke-linejoin="round"/>
<path d="M211.621 33.9958C211.621 35.0781 214.397 34.1657 214.397 33.1368C214.383 31.7051 211.621 33.4571 211.621 33.9958Z" fill="#BF8228"/>
<path d="M216.184 32.8602C215.868 33.894 218.936 35.3402 219.304 34.554C219.586 33.9522 216.693 31.1616 216.184 32.8602Z" fill="#BF8228"/>
<path d="M213.714 40.3876C215.781 40.3876 216.679 39.417 216.679 39.417C216.679 39.417 216.878 41.499 215.383 41.6834C213.99 41.8581 213.714 40.3876 213.714 40.3876Z" fill="white" stroke="#EF8A66" stroke-width="0.75" stroke-linecap="round" stroke-linejoin="round"/>
<path d="M221.701 37.9953C221.396 38.3035 221.05 38.568 220.672 38.7815C219.386 39.5289 218.032 39.592 217.649 38.9319C217.265 38.2719 218.003 37.1314 219.289 36.3889C219.907 36.0099 220.613 35.8007 221.337 35.7822C221.162 36.539 221.293 37.3344 221.701 37.9953Z" fill="#F4AF90"/>
<path d="M211.869 39.4412C211.544 39.7227 211.005 39.6838 210.413 39.4023C210.67 38.456 210.957 37.5047 211.224 36.6021C212.141 37.6989 212.427 38.9558 211.869 39.4412Z" fill="#F4AF90"/>
<path d="M265.531 100.693C265.376 101.144 265.211 101.567 265.046 101.96C265.035 101.993 265.022 102.025 265.007 102.057C264.896 102.304 264.784 102.542 264.663 102.77C261.858 108.109 257.106 107.735 252.894 103.372C250.769 101.062 249.069 98.3957 247.871 95.4953C247.547 94.7285 247.224 93.931 246.9 93.1027C246.274 91.3507 245.444 89.3754 244.473 87.2789C244.308 86.9149 244.143 86.5412 243.988 86.1675C242.047 81.8724 239.703 77.0678 237.762 72.3844V72.3456L237.611 71.9816V71.9477C237.058 70.5985 236.539 69.2638 236.073 67.9535C232.894 59.0042 232.19 51.3168 239.814 49.7201C243.838 48.8805 248.065 52.7485 251.651 57.6162C253.95 60.814 255.982 64.1951 257.728 67.7254C258.951 70.152 260.601 73.3162 262.144 76.8348C265.362 84.2262 268.133 93.1949 265.531 100.693Z" fill="#FED81D"/>
<path d="M251.637 57.5921C249.279 57.76 246.97 58.3467 244.818 59.3247C240.751 61.1349 237.145 64.2215 236.048 67.9342C232.869 58.9849 232.166 51.2975 239.79 49.7008C243.823 48.8563 248.065 52.7243 251.637 57.5921Z" fill="#FFE05C"/>
<path d="M246.909 93.1028C246.283 91.3508 245.453 89.3756 244.483 87.279C241.833 81.3678 238.309 75.1461 236.586 68.8369" stroke="#F7AD2B" stroke-width="0.75" stroke-linecap="round" stroke-linejoin="round"/>
<path d="M237.767 72.3599C235.447 65.7499 235.19 63.367 236.519 62.0566" stroke="#F7AD2B" stroke-width="0.75" stroke-linecap="round" stroke-linejoin="round"/>
<path d="M265.531 100.693C265.375 101.144 265.21 101.566 265.045 101.96C265.035 101.993 265.022 102.025 265.007 102.057C264.895 102.304 264.783 102.542 264.662 102.77C261.857 108.109 257.106 107.735 252.893 103.372C253.427 103.498 253.98 103.658 254.543 103.857C258.62 105.163 262.842 100.125 262.9 94.573C262.951 92.018 262.045 89.5363 260.362 87.6135C256.887 83.6194 259.358 79.5961 262.143 76.8589C265.361 84.226 268.132 93.1947 265.531 100.693Z" fill="#FCC71F"/>
<path d="M201.089 96.1166C197.983 96.0729 190.305 96.1166 190.305 96.1166C190.305 96.1166 189.917 93.0688 190.305 92.2923C190.694 91.5158 191.732 91.2828 194.023 91.3217L194.746 90.7102C195.319 90.2248 196.139 89.5405 196.867 88.9582C197.35 88.5469 197.862 88.1722 198.4 87.8371C199.056 87.541 206.554 87.5993 207.806 87.6284C209.058 87.6575 211.053 89.8269 211.436 92.0642C211.82 94.3015 210.087 96.3593 201.089 96.1166Z" fill="#2361A4" stroke="black" stroke-linecap="round" stroke-linejoin="round"/>
<path d="M194.635 95.3887C194.634 95.7364 194.736 96.0765 194.928 96.3661C195.121 96.6556 195.395 96.8816 195.716 97.0153C196.037 97.149 196.39 97.1845 196.731 97.1172C197.072 97.05 197.386 96.8831 197.632 96.6376C197.878 96.3921 198.046 96.079 198.114 95.7381C198.183 95.3972 198.148 95.0437 198.015 94.7224C197.882 94.4011 197.657 94.1264 197.368 93.9331C197.079 93.7399 196.739 93.6367 196.392 93.6367C195.927 93.6367 195.48 93.8211 195.151 94.1496C194.822 94.478 194.636 94.9236 194.635 95.3887Z" fill="black" stroke="#F9F9F9" stroke-linecap="round" stroke-linejoin="round"/>
<path d="M205.754 97.1353C206.722 97.1353 207.506 96.3509 207.506 95.3833C207.506 94.4157 206.722 93.6313 205.754 93.6313C204.786 93.6313 204.002 94.4157 204.002 95.3833C204.002 96.3509 204.786 97.1353 205.754 97.1353Z" fill="black" stroke="#F9F9F9" stroke-linecap="round" stroke-linejoin="round"/>
<path d="M199.327 88.9482V90.8458L194.746 90.7002C195.318 90.2149 196.138 89.5306 196.866 88.9482H199.327Z" fill="#F9F9F9" stroke="black" stroke-linecap="round" stroke-linejoin="round"/>
<path d="M204.001 88.9434H200.812V90.841H204.001V88.9434Z" fill="#F9F9F9" stroke="black" stroke-linecap="round" stroke-linejoin="round"/>
<path d="M217.094 86.0124C214.444 85.0418 213.158 99.5431 216.07 100.329C220.02 101.392 218.725 86.5948 217.094 86.0124Z" fill="#FCC71F"/>
<path d="M219.192 97.5823C215.722 97.5823 208.573 97.3688 205.943 97.3688C203.312 97.3688 202.128 97.3688 201.089 96.1167C201.089 96.1167 203.89 95.9371 205.943 95.7576C207.995 95.578 210.15 94.1512 210.199 92.3264C210.247 90.5016 208.389 89.8998 207.743 89.7833C207.098 89.6668 204.831 90.1424 203.807 89.5698C202.783 88.9971 203.021 87.8517 204.739 87.5314C206.457 87.2111 208.389 86.0755 208.995 86.0124C209.602 85.9493 210.451 86.3521 213.29 86.9248C216.129 87.4974 219.478 88.1381 219.478 88.1381L219.192 97.5823Z" fill="#FEBD9D"/>
<path d="M205.943 97.3687C203.307 97.3687 202.128 97.3687 201.089 96.1165C201.089 96.1165 203.89 95.937 205.943 95.7574C207.995 95.5778 210.15 94.151 210.199 92.3262C210.247 90.5014 208.389 89.8996 207.743 89.7831C207.098 89.6667 204.831 90.1423 203.807 89.5696C202.783 88.9969 203.021 87.8516 204.739 87.5313C206.457 87.2109 208.389 86.0753 208.995 86.0122" stroke="#EF8A66" stroke-width="0.75" stroke-linecap="round" stroke-linejoin="round"/>
<path d="M265.03 101.96C265.019 101.993 265.006 102.025 264.991 102.057C264.88 102.304 264.768 102.542 264.647 102.77C260.725 110.506 253.344 108.288 239.755 106.721H239.711C225.695 105.095 216.071 100.329 216.071 100.329L216.139 100.266L216.183 100.218C216.22 100.17 216.254 100.119 216.285 100.067C216.309 100.033 216.33 99.9975 216.348 99.9603C216.348 99.9603 216.416 99.8147 216.45 99.7322C216.452 99.7177 216.452 99.703 216.45 99.6885C216.484 99.6011 216.518 99.5089 216.547 99.407C216.576 99.3051 216.625 99.1644 216.659 99.0285C216.692 98.8926 216.692 98.8877 216.712 98.8149C216.799 98.4558 216.877 98.0384 216.95 97.5822C217.086 96.6844 217.192 95.6118 217.26 94.4422C217.26 94.1801 217.289 93.9181 217.299 93.6463C217.299 93.4764 217.299 93.3066 217.299 93.1367C217.328 92.0253 217.328 90.8509 217.299 89.657C217.299 89.0164 217.246 88.3709 217.197 87.7157C217.197 87.4876 217.168 87.2595 217.149 87.0314C217.124 86.6917 217.09 86.352 217.056 86.0171C220.483 86.0171 236.702 86.8082 244.458 87.2644L244.943 87.2983L245.593 87.3711C246.379 87.4682 247.268 87.6284 248.224 87.8565L248.772 87.9826L249.335 88.1185C249.714 88.2107 250.097 88.3127 250.49 88.4194C251.276 88.6378 252.082 88.9047 252.892 89.162C256.586 90.4189 260.41 92.268 262.861 94.5781C265.137 96.6601 266.234 99.1644 265.03 101.96Z" fill="#FED81D"/>
<path d="M239.769 106.721H239.726C225.695 105.095 216.071 100.329 216.071 100.329" stroke="#F7AD2B" stroke-width="0.75" stroke-linecap="round" stroke-linejoin="round"/>
<path d="M252.916 89.1377C250.199 88.1663 247.373 87.5354 244.501 87.2595C236.736 86.8033 220.526 86.0122 217.095 86.0122" stroke="#F7AD2B" stroke-width="0.75" stroke-linecap="round" stroke-linejoin="round"/>
<path d="M265.031 101.96C265.02 101.993 265.007 102.025 264.992 102.057C264.88 102.304 264.769 102.542 264.647 102.77C260.726 110.506 253.344 108.288 239.755 106.721C244.769 103.061 248.438 102.304 252.859 103.372C253.393 103.498 253.946 103.658 254.509 103.857C258.586 105.163 262.808 100.125 262.866 94.5732C265.138 96.6601 266.234 99.1644 265.031 101.96Z" fill="#FCC71F"/>
<path d="M122.934 172.497H110.212C110.212 172.497 110.162 169.899 110.076 166.382C109.926 160.398 109.308 149.412 108.476 136.718C107.963 128.863 118.358 128.54 118.24 137.263C117.999 154.492 117.786 166.382 117.786 166.382L123.57 170.567C123.755 170.698 123.894 170.886 123.965 171.102C124.037 171.318 124.037 171.551 123.966 171.767C123.894 171.983 123.756 172.171 123.57 172.302C123.384 172.434 123.161 172.502 122.934 172.497Z" fill="#FFB3A4"/>
<path d="M105.92 138.277C110.681 138.822 119.064 138.772 119.014 138.626C118.964 138.481 118.714 101.057 118.519 99.2805C118.323 97.5041 108.796 98.6763 108.301 99.2805C107.805 99.8848 105.92 138.277 105.92 138.277Z" fill="#4A3320"/>
<path d="M122.935 172.497H110.214C110.214 172.497 110.164 169.898 110.078 166.382H117.801L123.572 170.566C123.757 170.698 123.896 170.885 123.967 171.101C124.039 171.318 124.039 171.551 123.967 171.767C123.896 171.983 123.758 172.171 123.572 172.302C123.386 172.434 123.163 172.502 122.935 172.497Z" fill="#FED81D"/>
<path d="M91.7693 165.65C95.8584 157.704 99.5749 149.926 102.914 143.683C103.87 141.657 104.671 139.561 105.309 137.413C105.527 136.377 106.063 132.006 101.869 131.298C97.6758 130.589 96.3491 133.115 95.0951 136.781C94.5136 138.476 89.3114 152.852 85.7993 160.757L91.7693 165.65Z" fill="#FFB3A4"/>
<path d="M91.8869 173.638L82.0459 165.568C82.0459 165.568 83.6543 163.528 85.8169 160.752L91.7688 165.65L93.5861 172.543C93.6432 172.76 93.6301 172.989 93.5489 173.198C93.4676 173.407 93.3223 173.585 93.1338 173.707C92.9453 173.828 92.7231 173.887 92.4992 173.874C92.2752 173.862 92.0609 173.779 91.8869 173.638Z" fill="#FED81D"/>
<path d="M96.3796 100.934C96.3796 100.934 94.6576 120.575 91.0684 136.459C91.0684 136.459 97.1565 140.903 107.075 139.185C107.27 138.64 109.887 124.701 110.918 119.276C111.95 113.851 112.413 111.979 113.722 111.043C115.03 110.107 114.849 100.303 114.658 99.8757C114.467 99.4486 102.141 91.2796 96.3796 100.934Z" fill="#4A3320"/>
<path d="M112.937 108.822C113.804 108.24 114.631 107.563 114.677 106.791C114.722 106.018 114.79 102.524 114.79 102.524" stroke="#7A583F" stroke-opacity="0.99" stroke-width="0.75" stroke-linecap="round" stroke-linejoin="round"/>
<path d="M112.468 102.524C112.355 103.624 112.159 108.335 112.159 108.335" stroke="#7A583F" stroke-opacity="0.99" stroke-width="0.75" stroke-linecap="round" stroke-linejoin="round"/>
<path d="M107.077 139.217C107.273 138.671 109.89 124.732 110.921 119.307C111.952 113.883 112.416 112.011 113.724 111.075" stroke="#7A583F" stroke-opacity="0.99" stroke-width="0.75" stroke-linecap="round" stroke-linejoin="round"/>
<path d="M133.569 79.9123C133.682 78.1359 133.982 76.214 134.287 75.6097C134.591 75.0055 136.136 72.8019 136.777 72.5656C137.417 72.3294 137.608 73.7333 136.663 75.2008V75.5961C137.412 74.7225 138.095 73.7946 138.707 72.8201C139.462 71.5343 140.143 71.0027 140.557 71.3753C140.97 71.7478 139.575 74.9328 139.162 75.4234L139.462 75.587C139.462 75.587 142.129 72.2522 142.61 71.9523C143.187 71.5706 143.614 72.4975 143.124 73.3653C143.124 73.3653 143.878 72.8746 144.178 73.3244C144.478 73.7742 142.256 77.5543 142.256 77.5543C142.256 77.5543 144.605 74.96 145.214 75.6052C145.822 76.2503 141.274 81.3708 138.826 83.5743C138.826 83.5743 134.441 90.3576 132.083 93.1791C128.998 96.8683 123.905 98.8492 121.879 96.5003C119.371 93.5516 123.015 88.8129 133.569 79.9123Z" fill="#FFB3A4"/>
<path d="M134.283 75.6097C134.583 75.0055 136.132 72.8019 136.772 72.5656C137.413 72.3294 137.604 73.7333 136.659 75.2008V75.5961C137.408 74.7225 138.091 73.7946 138.703 72.8201C139.458 71.5343 140.139 71.0027 140.553 71.3753C140.966 71.7478 139.571 74.9328 139.158 75.4234L139.458 75.587C139.458 75.587 142.125 72.2522 142.606 71.9523C143.183 71.5706 143.61 72.4975 143.12 73.3653C143.12 73.3653 143.874 72.8746 144.174 73.3244C144.474 73.7742 142.252 77.5543 142.252 77.5543C142.252 77.5543 144.601 74.96 145.21 75.6052C145.509 75.9278 144.528 77.3726 143.161 79.0082" stroke="#934735" stroke-width="0.75" stroke-linecap="round" stroke-linejoin="round"/>
<path d="M136.66 75.2017C136.996 77.1144 136.873 79.7451 136.66 79.9495" stroke="#934735" stroke-width="0.75" stroke-linecap="round" stroke-linejoin="round"/>
<path d="M138.622 74.9282C139.24 75.3008 141.007 77.9905 141.007 77.9905" stroke="#934735" stroke-width="0.75" stroke-linecap="round" stroke-linejoin="round"/>
<path d="M142.242 77.5361L141.451 78.5539" stroke="#934735" stroke-width="0.75" stroke-linecap="round" stroke-linejoin="round"/>
<path d="M140.487 77.2222C140.455 77.1768 143.109 73.3467 143.109 73.3467" stroke="#934735" stroke-width="0.75" stroke-linecap="round" stroke-linejoin="round"/>
<path d="M124.936 86.1128C127.599 94.4454 126.645 99.4568 120.143 96.3627C118.407 94.7952 118.503 87.7302 118.503 87.7302L124.936 86.1128Z" fill="#E19080"/>
<path d="M109.53 76.4493C105.359 76.9036 104.078 72.7736 104.419 70.8063C104.76 68.839 104.723 66.1266 104.873 62.7963C105.196 56.113 111.988 55.5859 112.965 63.0371C113.056 63.7618 113.094 64.4922 113.079 65.2225C113.068 66.4623 113.128 67.7017 113.26 68.9345C113.36 69.934 113.492 70.9154 113.638 71.8332C113.969 73.8913 113.706 75.9813 109.53 76.4493Z" fill="#E19080"/>
<path d="M113.27 68.9345C109.181 69.5478 108.531 67.2352 108.699 63.7277L112.974 63.0371C113.065 63.7618 113.103 64.4922 113.088 65.2225C113.077 66.4623 113.137 67.7017 113.27 68.9345Z" fill="#C77464"/>
<path d="M120.157 89.8708C120.157 89.8708 119.839 95.5046 120.043 96.1407C120.248 96.7768 120.997 100.389 117.99 100.939C114.982 101.488 97.4489 101.688 96.3812 100.939C95.7914 100.466 95.3555 99.829 95.1289 99.1081C94.9024 98.3872 94.8955 97.6152 95.1091 96.8903C95.627 95.4773 95.2227 93.3101 94.9364 92.0107C94.8955 91.829 94.8229 91.3156 94.7229 90.5568C94.314 87.3764 93.5371 79.848 93.5234 74.8185C93.5234 72.4105 93.687 70.5749 94.155 70.0524C95.518 68.5259 96.7038 68.1624 97.9124 68.0942C98.185 68.0942 98.4621 68.0942 98.7393 68.0942C100.243 68.1215 103.514 68.4395 104.646 68.4713C105.126 69.5107 105.87 70.4065 106.803 71.0702C107.736 71.734 108.827 72.1427 109.966 72.256C112.074 72.515 113.21 71.3019 113.901 69.53C113.901 69.53 116.495 69.0756 118.371 69.5845C119.925 70.0161 121.097 71.0974 121.888 72.7376C122.063 73.0983 122.215 73.4702 122.342 73.8507C123.151 76.1224 125.027 86.1406 124.914 86.1406C124.8 86.1406 120.157 89.8708 120.157 89.8708Z" fill="#FED81D"/>
<path d="M98.8404 79.4385C101.157 79.0205 104.365 81.3513 103.647 83.9092C102.929 86.4671 105.669 87.5439 107.864 86.1128C110.058 84.6816 112.471 90.1473 112.471 90.1473L105.401 92.3827L101.276 92.6371L98.5269 92.1282L98.8404 79.4385Z" fill="#FCC71F"/>
<path d="M120.162 89.87C120.162 89.87 120.734 79.5292 120.498 77.5347" stroke="#D6A91C" stroke-width="0.75" stroke-linecap="round" stroke-linejoin="round"/>
<path d="M121.911 72.7099C121.228 72.659 120.544 72.8059 119.943 73.133C119.341 73.4601 118.846 73.9536 118.517 74.5545C115.414 79.5159 111.679 84.9317 105.923 78.9889C104.955 77.9647 103.91 77.0168 102.797 76.1538C99.989 74.0321 97.1493 73.2597 93.5237 74.8181C92.4292 75.3048 91.3878 75.9032 90.416 76.6036C90.7931 71.7467 92.6605 68.3891 97.1721 68.0802C97.4184 68.0573 97.6663 68.0573 97.9126 68.0802C98.1852 68.0802 98.4624 68.0802 98.7395 68.0802C100.243 68.1075 103.515 68.4255 104.646 68.4573C105.127 69.4966 105.87 70.3924 106.803 71.0562C107.737 71.72 108.827 72.1287 109.966 72.242C112.074 72.5009 113.21 71.2878 113.901 69.5159C113.901 69.5159 116.495 69.0616 118.372 69.5704C119.939 69.9884 121.107 71.0652 121.911 72.7099Z" fill="#FFE05C"/>
<path d="M104.087 67.9305C104.719 67.3989 105.159 68.1667 105.559 68.7301C105.959 69.2935 107.59 71.488 109.898 71.5061C112.206 71.5243 113.183 69.4389 113.533 68.9846C113.883 68.5302 114.896 69.0754 114.641 70.0704C114.387 71.0654 112.956 73.1145 109.644 73.1145C105.854 73.1145 102.942 68.8937 104.087 67.9305Z" fill="white"/>
<path d="M101.845 87.9722C104.976 96.064 102.354 100.694 97.5246 98.8763C93.59 97.4179 92.6814 92.2248 92.1089 88.949L101.845 87.9722Z" fill="#E19080"/>
<path d="M103.129 81.3431C103.141 83.7303 103.018 86.1164 102.761 88.4898C101.407 88.9636 100.025 89.3535 98.6223 89.6575C97.332 89.971 95.9463 90.289 94.7423 90.5662C92.9022 90.9751 91.4892 91.2704 91.4892 91.2704C90.853 87.3881 90.4796 83.4674 90.3715 79.5348C90.3416 78.5605 90.3629 77.5854 90.4351 76.6134C90.8122 71.7565 92.6795 68.3989 97.1911 68.09C97.4375 68.067 97.6854 68.067 97.9317 68.09C100.939 68.4125 102.271 72.0382 102.807 76.15C103.02 77.8728 103.127 79.6071 103.129 81.3431Z" fill="#FED81D"/>
<path d="M103.13 81.343C103.141 83.7303 103.018 86.1163 102.762 88.4898C102.762 88.4898 100.372 80.3117 100.172 79.6665C100.172 79.5938 100.131 79.5211 100.108 79.4575C101.315 79.6888 102.392 80.361 103.13 81.343Z" fill="#FCC71F"/>
<path d="M102.743 88.4895C102.743 88.4895 100.353 80.3114 100.153 79.6662C100.153 79.5935 100.112 79.5208 100.089 79.4572C99.9092 78.8931 99.5681 78.3941 99.1079 78.0215" stroke="#D6A91C" stroke-width="0.75" stroke-linecap="round" stroke-linejoin="round"/>
<path d="M102.797 76.1543C99.9895 74.0325 97.1498 73.2602 93.5242 74.8186C92.4297 75.3053 91.3883 75.9037 90.4165 76.6041C90.7936 71.7472 92.6609 68.3896 97.1725 68.0807C97.4189 68.0577 97.6668 68.0577 97.9131 68.0807C100.93 68.4169 102.261 72.0425 102.797 76.1543Z" fill="#FFE05C"/>
<path d="M103.794 59.3712C102.558 56.1908 101.336 51.1931 104.571 48.7487C108.66 45.6728 111.84 49.1394 111.84 49.1394C111.84 49.1394 114.948 55.3139 110.073 58.5125C105.198 61.711 103.794 59.3712 103.794 59.3712Z" fill="#604730"/>
<path d="M112.959 66.5223C108.266 67.1493 104.881 62.8149 104.881 62.8149C100.624 62.3878 101.905 57.1675 105.294 58.8849C105.653 59.0621 106.303 57.4446 106.348 56.2315C106.394 55.0184 106.485 54.7913 105.944 54.3869C105.403 53.9825 104.708 53.5555 105.226 52.5014C105.744 51.4473 106.957 50.8794 107.63 51.0838C108.302 51.2883 110.328 51.3519 110.978 50.5659C111.173 50.3105 111.308 50.0148 111.374 49.7004C111.44 49.386 111.435 49.0608 111.36 48.7485C111.36 48.7485 113.945 50.4569 115.858 55.5636C115.94 55.7863 116.021 56.018 116.094 56.227C116.463 57.2623 116.747 58.326 116.944 59.4074C117.584 63.0012 116.798 65.9953 112.959 66.5223Z" fill="#FFB3A4"/>
<path d="M110.121 56.6313C110.121 56.7402 110.153 56.8467 110.214 56.9372C110.275 57.0277 110.361 57.0982 110.462 57.1396C110.562 57.1811 110.673 57.1917 110.78 57.1701C110.887 57.1486 110.985 57.0957 111.061 57.0184C111.138 56.9411 111.19 56.8427 111.211 56.7358C111.231 56.6288 111.22 56.5181 111.177 56.4178C111.135 56.3174 111.064 56.2318 110.973 56.172C110.882 56.1121 110.775 56.0807 110.666 56.0816C110.594 56.0816 110.523 56.0958 110.457 56.1235C110.39 56.1512 110.33 56.1917 110.279 56.2429C110.228 56.294 110.188 56.3546 110.161 56.4213C110.134 56.488 110.121 56.5593 110.121 56.6313Z" fill="#4A3320"/>
<path d="M113.259 55.5364C113.258 55.6454 113.29 55.7521 113.35 55.8431C113.41 55.9341 113.495 56.0053 113.595 56.0476C113.696 56.0899 113.807 56.1014 113.913 56.0807C114.02 56.06 114.119 56.008 114.196 55.9313C114.273 55.8546 114.326 55.7567 114.348 55.6499C114.369 55.5432 114.359 55.4324 114.317 55.3317C114.276 55.2309 114.205 55.1448 114.115 55.0842C114.024 55.0236 113.918 54.9912 113.809 54.9912C113.737 54.9906 113.666 55.0043 113.599 55.0314C113.532 55.0586 113.472 55.0986 113.421 55.1493C113.369 55.2 113.329 55.2603 113.301 55.3267C113.274 55.3932 113.259 55.4645 113.259 55.5364Z" fill="#4A3320"/>
<path d="M107.671 55.1634C107.966 55.9676 110.311 54.0321 109.679 53.1871C109.048 52.342 107.316 54.2093 107.671 55.1634Z" fill="#604730"/>
<path d="M111.601 52.343C111.356 53.2971 113.777 53.2017 113.809 52.7973C113.841 52.3929 111.864 51.3071 111.601 52.343Z" fill="#604730"/>
<path d="M104.404 62.724C104.974 62.7624 105.546 62.693 106.09 62.5195" stroke="#934735" stroke-width="0.75" stroke-linecap="round" stroke-linejoin="round"/>
<path d="M103.184 60.4845C103.297 59.7849 105.074 59.4078 105.66 60.7799" stroke="#934735" stroke-width="0.75" stroke-linecap="round" stroke-linejoin="round"/>
<path d="M105.428 60.3931C103.965 59.857 103.61 61.8833 105.546 61.5426" stroke="#934735" stroke-width="0.75" stroke-linecap="round" stroke-linejoin="round"/>
<path d="M111.783 54.9912C111.583 55.8999 112.024 56.5269 112.624 56.6314C113.41 56.7677 114.337 57.1493 113.728 58.4851" stroke="#934735" stroke-width="0.75" stroke-linecap="round" stroke-linejoin="round"/>
<path d="M110.542 59.8569C111.778 60.2749 113.809 60.0251 113.809 60.0251C113.809 60.0251 113.518 61.9196 112.174 61.8015C110.829 61.6834 110.542 59.8569 110.542 59.8569Z" fill="white" stroke="#934735" stroke-width="0.75" stroke-linecap="round" stroke-linejoin="round"/>
<path d="M110.338 59.3709C109.965 60.1478 108.839 60.375 107.821 59.8843C106.803 59.3936 106.285 58.3713 106.658 57.6126C107.03 56.8538 108.157 56.613 109.175 57.1037C110.193 57.5944 110.711 58.5985 110.338 59.3709Z" fill="#E39886"/>
<path d="M116.945 59.398C116.268 59.9069 115.432 59.9932 114.9 59.5479C114.241 59.0027 114.287 57.8532 115.009 56.9855C115.293 56.6345 115.669 56.3701 116.095 56.2222C116.464 57.256 116.748 58.3181 116.945 59.398Z" fill="#E39886"/>
<path d="M97.2481 98.7809C101.483 100.639 105.008 98.899 110.129 96.8772C115.249 94.8554 121.11 91.9295 121.11 91.9295C121.11 91.9295 125.876 89.526 127.516 88.4992C129.156 87.4724 129.22 86.8817 129.011 86.6364C128.802 86.391 126.576 87.2634 126.158 87.436C127.06 86.5565 127.898 85.6136 128.666 84.6146C129.352 83.5832 129.084 82.8745 127.966 83.4288C127.966 83.4288 128.943 82.2111 128.28 81.7568C127.616 81.3024 123.232 85.1053 123.232 85.1053C123.232 85.1053 126.748 81.8976 126.121 80.889C125.494 79.8804 120.41 84.5237 120.41 84.5237C120.41 84.5237 121.142 81.3161 120.356 81.0753C119.57 80.8345 118.993 82.1702 118.352 83.2425C117.712 84.3147 116.644 86.9635 115.985 87.2407C115.326 87.5178 102.464 88.7264 98.5975 91.6841C95.0082 94.4511 94.6811 97.6405 97.2481 98.7809Z" fill="#FFB3A4"/>
<path d="M116.625 94.0647C119.206 92.8743 121.109 91.9202 121.109 91.9202C121.109 91.9202 125.875 89.5167 127.516 88.4899C129.156 87.4631 129.219 86.8725 129.01 86.6271C128.801 86.3818 126.575 87.2541 126.157 87.4268C127.059 86.5472 127.897 85.6043 128.665 84.6053C129.351 83.5739 129.083 82.8652 127.965 83.4195C127.965 83.4195 128.942 82.2018 128.279 81.7475C127.615 81.2932 123.231 85.096 123.231 85.096C123.231 85.096 126.748 81.8883 126.121 80.8797C125.494 79.8711 120.41 84.5144 120.41 84.5144C120.41 84.5144 121.141 81.3068 120.355 81.066C119.569 80.8252 118.992 82.1609 118.351 83.2332" stroke="#934735" stroke-width="0.75" stroke-linecap="round" stroke-linejoin="round"/>
<path d="M100.645 91.6977C101.436 90.2666 103.208 89.6759 103.853 89.5078" stroke="#934735" stroke-width="0.75" stroke-linecap="round" stroke-linejoin="round"/>
<path d="M124.732 86.5138C125.423 85.9096 127.967 83.4243 127.967 83.4243" stroke="#934735" stroke-width="0.75" stroke-linecap="round" stroke-linejoin="round"/>
<path d="M125.334 88.0946L126.157 87.4268" stroke="#934735" stroke-width="0.75" stroke-linecap="round" stroke-linejoin="round"/>
<path d="M41.2116 162.162C41.2116 165.428 40.3665 170.368 42.2282 170.368H59.8371C60.5149 170.368 60.3311 168.135 58.4613 167.628C56.5914 167.122 51.7982 163.464 51.345 162.162H41.2116Z" fill="#683F1D"/>
<path d="M53.8599 76.5466L53.8027 162.599H42.2771V72.1372L53.8599 76.5466Z" fill="#C3DCF8"/>
<path d="M45.8092 78.3022C45.9195 81.0499 45.0621 82.3564 44.2619 82.5728" stroke="#83ADDF" stroke-width="0.75" stroke-linecap="round" stroke-linejoin="round"/>
<path d="M31.2856 164.894C31.2856 168.295 30.4119 173.394 32.343 173.394H50.5725C51.2788 173.394 51.0869 171.083 49.1517 170.536C47.2165 169.989 42.2478 166.225 41.8028 164.877L31.2856 164.894Z" fill="#683F1D"/>
<path d="M49.1533 170.553C47.2181 170.026 42.2494 166.241 41.8044 164.894" stroke="#91613D" stroke-width="0.75" stroke-linecap="round" stroke-linejoin="round"/>
<path d="M23.2484 76.5473C23.5628 90.5838 29.5236 165.49 29.5236 165.49C29.5236 165.49 43.356 165.208 43.356 165.49V75.2612L23.2484 76.5473Z" fill="#C3DCF8"/>
<path d="M43.356 165.49V85.5659" stroke="#83ADDF" stroke-width="0.75" stroke-linecap="round" stroke-linejoin="round"/>
<path d="M32.298 27.4274C32.4815 27.4397 32.6656 27.4397 32.8492 27.4274C35.6826 27.1742 37.3402 24.0836 37.7485 21.7115C38.1567 19.1884 39.4999 18.7597 40.3124 17.9921C41.1249 17.2246 42.2109 16.0651 41.5821 14.1421C40.9534 12.2191 39.8837 8.47525 43.1785 8.40176C44.8483 8.36093 45.8159 6.98096 46.359 5.62957C46.6865 4.78274 46.906 3.89797 47.0122 2.9962C41.5372 0.30159 38.9284 1.84079 36.6624 4.10671C34.3965 6.37264 35.6458 8.53241 34.4373 11.4761C33.2125 14.4932 28.3663 14.8443 28.1091 19.2333C27.8519 23.6222 29.1338 27.2967 32.298 27.4274Z" fill="#604730"/>
<path d="M32.13 24.945C32.3016 25.7866 32.542 26.6127 32.8486 27.4151C35.682 27.1619 37.3396 24.0713 37.7479 21.6992C38.1562 19.1761 39.4994 18.7474 40.3119 17.9798C41.1243 17.2123 42.2103 16.0528 41.5816 14.1298C40.9528 12.2068 39.8832 8.46294 43.1779 8.38945C44.8478 8.34862 45.8154 6.96865 46.3584 5.61726C40.8589 3.11862 38.0214 4.57208 37.5601 6.71961C37.062 9.01411 40.7528 11.9945 37.5601 14.832C34.3674 17.6695 30.4724 17.2408 32.13 24.945Z" fill="#473526"/>
<path d="M48.5593 35.1111C53.0504 35.3561 55.402 32.392 55.251 30.465C55.1734 29.5178 54.9938 27.1457 54.7978 24.4062C54.6222 21.9892 54.4303 19.2782 54.2793 16.9837C54.2548 16.6081 54.2303 16.2407 54.2099 15.8896C53.7199 8.0956 46.1301 5.79702 45.2891 14.8403C45.0155 17.7717 43.7335 22.3648 42.9047 26.272C42.0474 30.269 44.0642 34.8662 48.5593 35.1111Z" fill="#FEBD9D"/>
<path d="M54.812 24.4062C54.6365 21.9892 54.4446 19.2783 54.2935 16.9838L49.2921 15.71C48.1 19.9315 49.6596 24.2592 54.812 24.4062Z" fill="#F4A789"/>
<path d="M21.8904 33.817C21.9312 35.3358 22.0537 36.9199 22.2293 38.5204C22.6743 42.6031 23.4541 46.8369 23.9889 50.3848C24.3972 53.1162 24.6708 55.4515 24.532 57.0315C24.3074 59.6241 24.0624 63.1557 23.8501 66.4627C23.5112 71.7335 23.25 76.5471 23.25 76.5471H53.8706C53.8706 76.5471 66.3638 58.1135 68.2337 49.8255C69.2013 45.5427 69.4054 41.954 69.0502 38.945C68.7913 36.4496 67.9721 34.0449 66.6537 31.9104C64.3592 28.3094 58.8964 26.0149 54.8137 24.786C54.9525 27.203 55.4996 30.7795 50.4329 30.2773C45.3662 29.7751 43.2963 25.9822 43.7617 22.4384C36.6822 21.1034 27.2592 20.4583 24.3645 23.5693C23.9606 24.0097 23.6161 24.5011 23.3398 25.031C22.8514 25.9793 22.5008 26.9925 22.2987 28.0399C21.9433 29.9438 21.8064 31.8821 21.8904 33.817Z" fill="#FED81D"/>
<path d="M22.3019 28.0522C26.7929 28.2931 31.4677 30.2324 32.9783 34.5846C33.091 34.9093 33.1837 35.2407 33.2559 35.5767C33.4034 36.2797 33.628 36.9643 33.9255 37.6181C36.7834 43.9912 45.6593 44.3546 52.5959 39.9003C58.4179 36.1646 61.778 34.1559 69.0371 38.9368C68.7807 36.4452 67.9657 34.0435 66.6528 31.9104C64.3583 28.3094 58.8956 26.0149 54.8128 24.786C54.9516 27.203 55.4987 30.7795 50.432 30.2773C45.3653 29.7751 43.2954 25.9822 43.7608 22.4384C36.6813 21.1034 27.2583 20.4583 24.3637 23.5693C23.9597 24.0097 23.6152 24.5011 23.3389 25.031C22.8508 25.9834 22.5016 27.0008 22.3019 28.0522Z" fill="#FFE05C"/>
<path d="M59.8936 35.124L58.485 42.1913" stroke="#F7AD2B" stroke-width="0.75" stroke-linecap="round" stroke-linejoin="round"/>
<path d="M24.5321 57.0315C24.3075 59.624 24.0626 63.1556 23.8503 66.4626C25.8631 64.8581 28.9619 61.7838 27.5778 58.9136C25.5895 54.79 26.7613 52.4506 29.4436 50.495C32.126 48.5394 32.3424 46.992 30.2112 40.627C28.08 34.262 22.2294 38.5162 22.2294 38.5162C22.6744 42.599 23.4542 46.8328 23.9891 50.3807C24.4014 53.1161 24.6709 55.4515 24.5321 57.0315Z" fill="#FCC71F"/>
<path d="M0.000785828 61.0245C0.000785828 65.4584 3.12001 69.1084 7.12927 69.5983C7.42182 69.6345 7.71635 69.6523 8.01114 69.6514C12.4368 69.6514 16.0215 65.7973 16.0215 61.0409C16.0215 56.2845 12.4368 52.4263 8.01114 52.4263C6.35067 52.4294 4.73712 52.9773 3.41804 53.9859C2.34432 54.8162 1.47718 55.8836 0.884367 57.1046C0.291558 58.3257 -0.0108509 59.6673 0.000785828 61.0245Z" fill="#FED81D"/>
<path d="M0.000206947 61.025C0.000206947 65.4589 3.11944 69.1088 7.12869 69.5988C7.65945 63.5073 6.27539 57.6526 3.41746 53.9863C2.34374 54.8167 1.4766 55.8841 0.883789 57.1051C0.29098 58.3261 -0.0114303 59.6677 0.000206947 61.025Z" fill="#FCC71F"/>
<path d="M21.0714 30.2246C21.0705 31.4683 21.3495 32.6963 21.888 33.8174C22.6046 35.2838 23.7202 36.5183 25.1068 37.3792C26.4935 38.24 28.0948 38.6923 29.7269 38.684C30.4143 38.6854 31.0994 38.6059 31.7682 38.4472C32.5227 38.2728 33.2504 37.9981 33.9321 37.6307C35.2747 36.9144 36.3984 35.8482 37.184 34.545C37.9697 33.2418 38.3879 31.7503 38.3945 30.2287C38.3623 27.9597 37.4318 25.7961 35.8071 24.2119C34.1824 22.6278 31.9959 21.7523 29.7269 21.7774C27.7911 21.7717 25.9083 22.4094 24.3744 23.5901C23.47 24.2859 22.7147 25.1565 22.1534 26.15C21.8158 26.7433 21.5552 27.3771 21.3776 28.0362C21.1769 28.7484 21.0739 29.4846 21.0714 30.2246Z" fill="#FED81D"/>
<path d="M20.5158 28.0486C20.8016 28.0486 21.0915 28.0282 21.3855 28.0282C21.6794 28.0282 22.006 28.0282 22.3163 28.0527C26.8073 28.2935 31.4821 30.2328 32.9927 34.5851C33.1054 34.9098 33.1981 35.2411 33.2703 35.5772C33.4178 36.2802 33.6424 36.9647 33.9399 37.6185C35.2825 36.9023 36.4062 35.836 37.1918 34.5329C37.9775 33.2297 38.3958 31.7382 38.4023 30.2165C38.3669 27.9483 37.4339 25.7865 35.8077 24.2048C34.1816 22.623 31.9949 21.7502 29.7265 21.7775C27.7907 21.7718 25.908 22.4095 24.374 23.5902C23.4696 24.286 22.7143 25.1566 22.153 26.1501C21.7162 26.5992 21.1609 27.2484 20.5158 28.0486Z" fill="#FFE05C"/>
<path d="M5.81754 65.177C8.43866 65.3444 12.0315 63.748 16.4776 58.9141C19.115 56.0561 21.6872 53.1982 23.9899 50.3852C27.354 46.3025 30.1507 42.2769 31.7471 38.4472C32.2835 37.2083 32.6939 35.9184 32.9719 34.5972C33.5925 31.8559 33.2177 28.9832 31.9145 26.493C30.7305 24.2679 27.0682 22.1775 23.3407 25.0436C22.9112 25.3747 22.511 25.7422 22.1444 26.1418C21.7362 26.5991 21.1605 27.2483 20.5113 28.0485C17.5799 31.6127 12.6602 38.1982 8.46315 44.3795C4.51922 50.2178 1.22036 55.7132 0.836578 58.0159C0.305824 61.1392 2.07774 64.9402 5.81754 65.177Z" fill="#FED81D"/>
<path d="M20.517 28.0485C20.8028 28.0485 21.0927 28.0281 21.3866 28.0281C21.6806 28.0281 22.0072 28.0281 22.3175 28.0526C26.8085 28.2935 31.4833 30.2328 32.9939 34.585C33.6145 31.8437 33.2397 28.971 31.9364 26.4808C30.7524 24.2557 27.0902 22.1653 23.3627 25.0314C22.9332 25.3625 22.5329 25.7299 22.1664 26.1296C21.7173 26.5992 21.1621 27.2483 20.517 28.0485Z" fill="#FFE05C"/>
<path d="M16.472 58.9306C19.1095 56.0727 21.6816 53.2148 23.9843 50.4018C27.3484 46.319 30.1451 42.2934 31.7415 38.4638C32.2779 37.2248 32.6883 35.935 32.9663 34.6138" stroke="#F7AD2B" stroke-width="0.75" stroke-linecap="round" stroke-linejoin="round"/>
<path d="M5.81767 65.1775C5.05684 64.4622 4.39378 63.6495 3.84569 62.7605C0.828542 58.0327 11.754 50.6103 8.45919 44.3882C4.51526 50.2265 1.2164 55.7219 0.832623 58.0246C0.305948 61.1397 2.07787 64.9407 5.81767 65.1775Z" fill="#FCC71F"/>
<path d="M43.6316 12.4112L44.2726 12.3254L45.473 12.1703L47.3469 11.9253L58.1907 10.5086C59.7462 8.99799 60.326 8.5938 60.5628 8.01813C60.6712 7.71413 60.7265 7.3937 60.7261 7.07093C60.8037 5.69096 60.6894 1.82868 56.0024 0.4283C55.5738 0.300835 55.1373 0.201281 54.6959 0.130261C52.6387 -0.157895 50.5427 0.0335342 48.5718 0.689596C48.5718 0.689596 48.0124 -0.278015 45.2688 1.42041C42.5252 3.11883 39.406 7.91606 43.6316 12.4112Z" fill="#604730"/>
<path d="M44.2735 12.3253C44.3389 12.9418 44.4042 13.3134 44.4042 13.3134L45.5596 13.0072C45.5229 12.7214 45.4943 12.4437 45.4739 12.1906C44.7349 3.57602 49.9649 0.656853 54.6968 0.154675C52.6396 -0.133482 50.5436 0.0579507 48.5727 0.714012C43.7877 2.90645 44.0082 9.7573 44.2735 12.3253Z" fill="white"/>
<path d="M47.3471 11.9253L58.1909 10.5085C59.7464 8.99792 60.3262 8.59373 60.563 8.01806C59.5301 3.80059 57.0396 1.5959 53.1365 1.48567C48.3964 1.37543 47.1226 5.30304 46.7429 8.24261C46.6473 9.5008 46.8545 10.7636 47.3471 11.9253Z" fill="#473526"/>
<path d="M46.7312 14.4563C49.8953 18.7718 54.3659 20.9887 56.7911 19.5802C58.3874 18.6411 59.1672 16.2038 59.3061 13.3989C59.3523 12.4459 59.3304 11.4909 59.2407 10.541C59.1917 9.98573 59.1182 9.43456 59.0284 8.88747C58.2976 4.49035 55.3539 1.48545 50.3158 2.68169C50.3158 2.68169 51.7448 6.18877 49.4707 8.42203C47.1966 10.6553 45.388 10.3899 45.388 10.3899C45.388 10.3899 43.8039 10.1286 43.1669 11.2065C41.6931 13.7296 44.6612 15.7097 46.7312 14.4563Z" fill="#FEBD9D"/>
<path d="M54.6968 9.26729C54.6976 9.36534 54.6692 9.46141 54.6152 9.54327C54.5613 9.62513 54.4841 9.68909 54.3937 9.72698C54.3033 9.76488 54.2036 9.775 54.1074 9.75607C54.0112 9.73714 53.9228 9.69001 53.8534 9.62067C53.7841 9.55134 53.737 9.46294 53.7181 9.36673C53.6991 9.27053 53.7092 9.17086 53.7471 9.08043C53.785 8.98999 53.849 8.91288 53.9308 8.85891C54.0127 8.80494 54.1088 8.77655 54.2069 8.77736C54.3365 8.77843 54.4605 8.83039 54.5521 8.92203C54.6438 9.01368 54.6957 9.13768 54.6968 9.26729Z" fill="#683F1D"/>
<path d="M57.7978 9.38983C57.7986 9.48771 57.7704 9.58362 57.7166 9.6654C57.6628 9.74717 57.5859 9.81112 57.4957 9.84914C57.4055 9.88716 57.3061 9.89753 57.21 9.87893C57.1139 9.86033 57.0255 9.81361 56.956 9.74468C56.8865 9.67576 56.839 9.58774 56.8196 9.4918C56.8002 9.39586 56.8098 9.29633 56.847 9.20582C56.8843 9.11531 56.9476 9.03792 57.0289 8.98345C57.1103 8.92898 57.2059 8.89991 57.3038 8.8999C57.4341 8.8999 57.5592 8.95139 57.6517 9.04315C57.7442 9.13491 57.7968 9.25952 57.7978 9.38983Z" fill="#683F1D"/>
<path d="M46.3608 11.2028C46.1909 10.9331 45.9535 10.7125 45.6721 10.5628C45.3906 10.4131 45.0749 10.3396 44.7563 10.3495" stroke="#EF8A66" stroke-width="0.75" stroke-linecap="round" stroke-linejoin="round"/>
<path d="M46.0684 12.795C45.7622 11.6518 44.472 11.0272 43.6187 11.9417" stroke="#EF8A66" stroke-width="0.75" stroke-linecap="round" stroke-linejoin="round"/>
<path d="M45.8695 12.3011C44.5631 11.3866 43.7098 13.824 45.9961 13.4361" stroke="#EF8A66" stroke-width="0.75" stroke-linecap="round" stroke-linejoin="round"/>
<path d="M55.7451 14.3465C55.5311 14.3911 55.3102 14.3914 55.096 14.3473C54.8819 14.3032 54.6791 14.2158 54.5 14.0903C54.321 13.9648 54.1695 13.804 54.0551 13.6177C53.9406 13.4315 53.8655 13.2237 53.8344 13.0073" stroke="#EF8A66" stroke-width="0.75" stroke-linecap="round" stroke-linejoin="round"/>
<path d="M57.0262 12.632C57.8836 12.191 57.8918 11.4766 57.0834 11.0275C56.275 10.5784 55.585 9.97819 55.7442 8.38184" stroke="#EF8A66" stroke-width="0.75" stroke-linecap="round" stroke-linejoin="round"/>
<path d="M59.3313 7.13208C59.1557 7.66692 56.1345 7.78123 56.2815 6.44618C56.3917 5.4459 59.5517 6.45842 59.3313 7.13208Z" fill="#604730"/>
<path d="M54.7901 6.67061C55.0677 7.56881 51.7729 8.75689 51.4789 8.08324C51.2217 7.48716 54.2756 4.98852 54.7901 6.67061Z" fill="#604730"/>
<path d="M53.6253 12.1216C53.3069 12.9382 51.9678 13.2158 50.6368 12.7054C49.3058 12.1951 48.4811 11.1132 48.7955 10.2844C49.1098 9.45557 50.449 9.19019 51.784 9.69645C53.1191 10.2027 53.9397 11.2887 53.6253 12.1216Z" fill="#F4AF90"/>
<path d="M58.2405 12.7258C58.3488 12.9171 58.5028 13.0788 58.6887 13.1963C58.8746 13.3138 59.0867 13.3836 59.3061 13.3994C59.3523 12.4464 59.3304 11.4914 59.2407 10.5415C58.3589 11.1621 57.922 12.0644 58.2405 12.7258Z" fill="#F4AF90"/>
<path d="M36.7113 130.764L27.7016 128.534C27.7016 128.534 28.1217 126.685 28.6768 124.179C29.6192 119.915 31.1069 112.026 32.7427 102.89C33.7558 97.2367 41.1745 98.83 39.5621 104.987C36.3723 117.147 34.1373 125.53 34.1373 125.53L37.5002 129.508C37.6088 129.633 37.6742 129.79 37.6868 129.956C37.6994 130.121 37.6585 130.287 37.5702 130.427C37.4819 130.568 37.3508 130.676 37.1962 130.737C37.0416 130.798 36.8716 130.807 36.7113 130.764Z" fill="#FFB3A4"/>
<path d="M30.6592 103.546C33.9358 104.766 39.8813 106.2 39.8714 106.088C39.8615 105.976 46.2431 79.428 46.416 78.1356C46.589 76.8432 39.6359 76.0037 39.1793 76.3449C38.7227 76.686 30.6592 103.546 30.6592 103.546Z" fill="#4A3320"/>
<path d="M36.7132 130.764L27.7035 128.535C27.7035 128.535 28.1236 126.685 28.6787 124.18L34.1489 125.533L37.5021 129.508C37.6107 129.634 37.6761 129.791 37.6887 129.956C37.7013 130.122 37.6604 130.287 37.5721 130.428C37.4838 130.568 37.3527 130.677 37.1981 130.737C37.0435 130.798 36.8735 130.807 36.7132 130.764Z" fill="#FED81D"/>
<path d="M15.8383 120.452C20.1269 115.541 24.1222 110.684 27.5812 106.848C28.6133 105.58 29.5475 104.236 30.3758 102.827C30.7118 102.131 31.8574 99.1299 29.0116 97.893C26.1659 96.6561 24.7836 98.2127 23.2529 100.59C22.5441 101.688 16.3405 110.957 12.4677 115.941L15.8383 120.452Z" fill="#FFB3A4"/>
<path d="M14.5231 126.13L8.96752 118.691C8.96752 118.691 10.4641 117.528 12.4823 115.941L15.8392 120.452L15.9184 125.652C15.9208 125.816 15.8713 125.976 15.7772 126.11C15.683 126.244 15.5489 126.344 15.3941 126.397C15.2392 126.45 15.0716 126.453 14.9152 126.405C14.7587 126.357 14.6215 126.261 14.5231 126.13Z" fill="#FED81D"/>
<path d="M30.4462 75.4264C30.4462 75.4264 25.7846 89.0349 20.4589 99.6552C20.4589 99.6552 23.992 103.869 31.3174 104.391C31.5513 104.039 35.8475 94.6256 37.5286 90.9644C39.2098 87.3031 39.866 86.0586 40.9568 85.6251C42.0475 85.1915 43.637 78.2158 43.5767 77.8799C43.5164 77.5439 36.2183 69.5983 30.4462 75.4264Z" fill="#4A3320"/>
<path d="M40.79 83.9139C41.5065 83.6541 42.2108 83.3196 42.3783 82.7805C42.5458 82.2415 43.2064 79.779 43.2064 79.779" stroke="#7A583E" stroke-width="0.75" stroke-linecap="round" stroke-linejoin="round"/>
<path d="M41.5621 79.3725C41.2889 80.1313 40.3249 83.4339 40.3249 83.4339" stroke="#7A583E" stroke-width="0.75" stroke-linecap="round" stroke-linejoin="round"/>
<path d="M31.3133 104.414C31.5472 104.062 35.8434 94.6483 37.5246 90.9871C39.2057 87.3258 39.862 86.0813 40.9527 85.6478" stroke="#7A583E" stroke-width="0.75" stroke-linecap="round" stroke-linejoin="round"/>
<path d="M60.4674 67.0553C60.8592 65.817 61.4083 64.5085 61.7298 64.1339C62.0513 63.7592 63.5315 62.4693 64.0266 62.4143C64.5217 62.3592 64.4108 63.387 63.4844 64.2607L63.4151 64.5406C64.0987 64.0532 64.7453 63.5158 65.3496 62.9329C66.1091 62.1544 66.6849 61.8974 66.9124 62.2337C67.1399 62.57 65.5939 64.5812 65.2151 64.8563L65.3988 65.0247C65.3988 65.0247 67.8721 63.1302 68.2657 63.0022C68.7413 62.8331 68.8813 63.5643 68.3817 64.0929C68.3817 64.0929 69.0018 63.8776 69.1354 64.2487C69.2689 64.6198 67.033 66.9076 67.033 66.9076C67.033 66.9076 69.1512 65.4819 69.4693 66.0456C69.7874 66.6092 65.6691 69.4386 63.5486 70.57C63.5486 70.57 59.2547 74.6058 57.0902 76.1907C54.2588 78.2629 50.3046 78.7733 49.2811 76.7546C48.0216 74.2268 51.4327 71.5092 60.4674 67.0553Z" fill="#FFB3A4"/>
<path d="M61.7268 64.1332C62.045 63.7578 63.5285 62.4687 64.0236 62.4136C64.5187 62.3586 64.4078 63.3863 63.4813 64.26L63.412 64.54C64.0956 64.0525 64.7422 63.5151 65.3465 62.9322C66.106 62.1538 66.6818 61.8967 66.9093 62.233C67.1369 62.5694 65.5909 64.5806 65.2121 64.8556L65.3958 65.024C65.3958 65.024 67.869 63.1296 68.2626 63.0016C68.7382 62.8324 68.8782 63.5637 68.3786 64.0923C68.3786 64.0923 68.9988 63.8769 69.1323 64.2481C69.2659 64.6192 67.0299 66.907 67.0299 66.907C67.0299 66.907 69.1481 65.4813 69.4663 66.0449C69.6221 66.3259 68.6739 67.1772 67.4187 68.0959" stroke="#934735" stroke-width="0.75" stroke-linecap="round" stroke-linejoin="round"/>
<path d="M63.4814 64.2603C63.3843 65.6738 62.8365 67.5154 62.6494 67.6228" stroke="#934735" stroke-width="0.75" stroke-linecap="round" stroke-linejoin="round"/>
<path d="M64.9194 64.4111C65.2918 64.7833 66.0721 66.9979 66.0721 66.9979" stroke="#934735" stroke-width="0.75" stroke-linecap="round" stroke-linejoin="round"/>
<path d="M67.0257 66.8924L66.2875 67.4747" stroke="#934735" stroke-width="0.75" stroke-linecap="round" stroke-linejoin="round"/>
<path d="M65.8386 66.363C65.824 66.3252 68.3744 64.0776 68.3744 64.0776" stroke="#934735" stroke-width="0.75" stroke-linecap="round" stroke-linejoin="round"/>
<path d="M53.2665 69.9352C53.6918 76.3032 52.1378 79.6852 48.0755 76.3545C47.121 74.9402 48.4267 69.9533 48.4267 69.9533L53.2665 69.9352Z" fill="#E19080"/>
<path d="M44.0493 60.3908C41.0158 59.9816 40.8322 56.8321 41.4183 55.4986C42.0044 54.165 42.454 52.2376 43.1438 49.9053C44.5435 45.2285 49.4464 46.0456 48.8324 51.4939C48.77 52.0231 48.6689 52.5471 48.5299 53.0616C48.3047 53.9377 48.1305 54.8261 48.0081 55.7223C47.9037 56.4477 47.825 57.1659 47.7672 57.8413C47.6414 59.3571 47.0885 60.7911 44.0493 60.3908Z" fill="#E19080"/>
<path d="M48.0147 55.7245C45.0112 55.4423 44.9564 53.6906 45.6901 51.2359L48.8391 51.4961C48.7766 52.0253 48.6755 52.5493 48.5365 53.0637C48.3114 53.9398 48.1372 54.8282 48.0147 55.7245Z" fill="#C77464"/>
<path d="M49.2229 71.7582C49.2229 71.7582 48.0104 75.6924 48.0437 76.1787C48.077 76.6651 47.9749 79.3546 45.7484 79.2168C43.5219 79.079 31.0696 76.148 30.4448 75.4299C30.1098 74.992 29.9128 74.4644 29.8787 73.9141C29.8446 73.3639 29.975 72.8159 30.2533 72.34C30.8677 71.43 30.9611 69.8243 30.9861 68.8539C30.989 68.718 31.0275 68.3416 31.0897 67.7868C31.3575 65.4627 32.1266 59.9947 32.9983 56.4303C33.4203 54.7248 33.8579 53.4535 34.2809 53.1655C35.5137 52.3232 36.4172 52.2736 37.2851 52.4371C37.4782 52.4849 37.6745 52.5335 37.8707 52.582C38.931 52.8649 41.1921 53.6634 41.9877 53.8842C42.1461 54.7045 42.5158 55.4693 43.0603 56.1029C43.6048 56.7365 44.3053 57.2171 45.0925 57.497C46.5401 58.0498 47.5572 57.3898 48.3568 56.2559C48.3568 56.2559 50.2737 56.3887 51.5135 57.078C52.5383 57.656 53.179 58.6272 53.4515 59.9274C53.5126 60.2136 53.5549 60.5036 53.5782 60.7953C53.7528 62.5459 53.3261 69.9699 53.2456 69.95C53.1652 69.9301 49.2229 71.7582 49.2229 71.7582Z" fill="#C3DCF8"/>
<path d="M35.9547 60.6345C37.669 60.7445 39.5323 62.9573 38.5756 64.6431C37.6189 66.3289 39.3705 67.5717 41.1755 66.9426C42.9805 66.3136 43.7312 70.6074 43.7312 70.6074L38.3327 70.9516L35.3664 70.4088L33.5088 69.5667L35.9547 60.6345Z" fill="#95B2D2"/>
<path d="M49.2259 71.7592C49.2259 71.7592 51.4436 64.5359 51.6258 63.0819" stroke="#83ADDF" stroke-width="0.75" stroke-linecap="round" stroke-linejoin="round"/>
<path d="M53.4721 59.9126C52.9972 59.7568 52.4875 59.7411 52.0039 59.8672C51.5203 59.9934 51.0833 60.2562 50.7451 60.6242C47.6779 63.5942 44.0838 66.7752 41.0484 61.5576C40.5428 60.6627 39.9688 59.8083 39.3314 59.0019C37.7147 57.0071 35.839 55.9625 32.9981 56.4308C32.1376 56.5837 31.2952 56.825 30.4842 57.1507C31.6025 53.7771 33.5134 51.7264 36.7627 52.2982C36.9412 52.3251 37.1168 52.3686 37.2872 52.428C37.4803 52.4758 37.6766 52.5244 37.8729 52.5729C38.9332 52.8558 41.1942 53.6543 41.9899 53.8751C42.1482 54.6954 42.5179 55.4602 43.0624 56.0938C43.607 56.7274 44.3074 57.208 45.0946 57.4879C46.5423 58.0407 47.5593 57.3806 48.3589 56.2467C48.3589 56.2467 50.2759 56.3796 51.5156 57.0688C52.5525 57.6396 53.1908 58.6068 53.4721 59.9126Z" fill="#E0EFFF"/>
<path d="M41.6867 53.4034C42.2271 53.1376 42.4047 53.7586 42.5891 54.2277C42.7736 54.6967 43.5442 56.5368 45.1756 56.9541C46.807 57.3715 47.8643 56.0657 48.1917 55.8053C48.5191 55.5448 49.1411 56.1085 48.7865 56.7686C48.432 57.4287 47.0593 58.6291 44.7135 58.0486C42.0299 57.3846 40.707 53.8849 41.6867 53.4034Z" fill="white"/>
<path d="M54.3464 66.5566C53.0965 66.945 51.5223 66.9955 50.8678 65.9534C50.2133 64.9113 50.6091 61.9019 52.6808 62.7258C52.6808 62.7258 56.065 61.8888 56.7617 62.6301C57.4584 63.3714 54.3464 66.5566 54.3464 66.5566Z" fill="#B68649" stroke="#683F1D" stroke-linecap="round" stroke-linejoin="round"/>
<path d="M56.1594 75.5649C56.1594 75.5649 52.1137 74.5639 51.5576 74.4692C51.0014 74.3745 50.5211 74.8191 48.6451 74.4408C46.7691 74.0625 47.7625 71.0024 48.2605 70.0523C48.7586 69.1022 49.986 69.3254 50.6442 69.8102C51.3024 70.2951 51.7958 70.0147 52.1188 68.7959C52.6721 67.1382 53.4685 65.5718 54.4818 64.148C55.234 63.0393 56.2665 62.1498 57.4743 61.5701C58.6821 60.9903 60.022 60.741 61.3575 60.8476C64.2998 61.1893 67.6041 62.3236 66.6698 66.7936C65.7354 71.2637 65.3971 71.9367 64.428 73.4893C63.4588 75.042 62.0631 75.8022 61.3747 76.4154C60.506 77.1718 56.8588 76.9026 56.1594 75.5649Z" fill="#B68649" stroke="#683F1D" stroke-linecap="round" stroke-linejoin="round"/>
<path d="M56.9095 54.0322C54.9163 53.7805 54.2593 52.185 55.1094 51.0483C55.9596 49.9117 57.6147 50.4232 58.5117 52.4806L56.9095 54.0322Z" fill="#B68649" stroke="#683F1D" stroke-linecap="round" stroke-linejoin="round"/>
<path d="M63.8325 52.0792L66.4021 53.9924C66.4021 53.9924 69.1645 51.5042 66.9982 50.2168C64.727 48.8551 63.8325 52.0792 63.8325 52.0792Z" fill="#B68649" stroke="#683F1D" stroke-linecap="round" stroke-linejoin="round"/>
<path d="M56.4049 56.5689C56.2834 54.3921 56.9693 51.1647 61.2755 50.7008C65.5817 50.2368 68.9281 54.6713 68.8743 58.5757C68.8205 62.4801 63.3215 64.5112 58.7398 62.8569C54.1581 61.2026 54.4286 58.0924 56.4049 56.5689Z" fill="#B68649" stroke="#683F1D" stroke-linecap="round" stroke-linejoin="round"/>
<path d="M60.9993 55.7681C60.7711 56.4952 60.2482 57.1333 59.5558 57.1337C59.1489 57.1516 58.7467 57.0402 58.407 56.8154C58.0674 56.5906 57.8076 56.2639 57.6651 55.8823C58.727 55.4462 59.9101 55.4057 60.9993 55.7681Z" fill="#683F1D" stroke="#683F1D" stroke-linecap="round" stroke-linejoin="round"/>
<path d="M63.744 60.3817C63.8649 59.7492 63.8298 59.0967 63.6419 58.4807C63.4539 57.8647 63.1188 57.3038 62.6653 56.8465C62.198 56.367 61.6289 55.9987 61 55.7689C59.9108 55.4065 58.7277 55.447 57.6658 55.8831C57.2207 56.0535 56.8018 56.2859 56.4216 56.5734" stroke="#683F1D" stroke-linecap="round" stroke-linejoin="round"/>
<path d="M57.7477 54.4807C57.7175 54.6028 57.7242 54.731 57.7669 54.8492C57.8096 54.9675 57.8864 55.0704 57.9875 55.145C58.0887 55.2196 58.2097 55.2625 58.3353 55.2683C58.4609 55.2741 58.5854 55.2425 58.693 55.1776C58.8006 55.1127 58.8866 55.0173 58.94 54.9035C58.9934 54.7897 59.0119 54.6626 58.9931 54.5383C58.9743 54.4141 58.9191 54.2981 58.8344 54.2052C58.7497 54.1123 58.6394 54.0466 58.5174 54.0164C58.4363 53.9964 58.3522 53.9925 58.2696 54.005C58.1871 54.0175 58.1078 54.0461 58.0364 54.0892C57.9649 54.1323 57.9026 54.1891 57.8531 54.2563C57.8036 54.3234 57.7678 54.3997 57.7477 54.4807Z" fill="#683F1D"/>
<path d="M61.2428 54.8626C61.2126 54.9848 61.2193 55.1133 61.2622 55.2317C61.3051 55.3501 61.3822 55.4531 61.4837 55.5276C61.5852 55.6021 61.7066 55.6448 61.8324 55.6502C61.9582 55.6556 62.0828 55.6236 62.1904 55.5581C62.2979 55.4926 62.3836 55.3966 62.4365 55.2824C62.4895 55.1681 62.5072 55.0407 62.4876 54.9163C62.468 54.7919 62.4119 54.6762 62.3264 54.5837C62.2409 54.4913 62.1299 54.4263 62.0074 54.397C61.8443 54.3581 61.6725 54.3852 61.5293 54.4724C61.3861 54.5596 61.2831 54.6998 61.2428 54.8626Z" fill="#683F1D"/>
<path d="M59.3398 57.0322C59.2829 58.5637 59.2057 60.1117 59.2057 60.1117" stroke="#683F1D" stroke-linecap="round" stroke-linejoin="round"/>
<path d="M57.5222 59.0346C57.6986 59.3292 57.9398 59.5796 58.2275 59.7671C58.5152 59.9545 58.8417 60.074 59.1825 60.1164C59.5232 60.1588 59.8691 60.1231 60.1939 60.0119C60.5188 59.9007 60.814 59.717 61.0573 59.4747" stroke="#683F1D" stroke-linecap="round" stroke-linejoin="round"/>
<path d="M60.0145 71.8497C59.1289 71.8721 58.8017 71.3725 58.2092 71.403C56.9951 71.4729 55.9829 72.4621 56.1394 75.5599" fill="#B68649"/>
<path d="M60.0145 71.8497C59.1289 71.8721 58.8017 71.3725 58.2092 71.403C56.9951 71.4729 55.9829 72.4621 56.1394 75.5599" stroke="#683F1D" stroke-linecap="round" stroke-linejoin="round"/>
<path d="M64.1113 64.7657C63.089 64.2122 61.3947 65.8108 60.8753 66.3048C60.8753 66.3048 59.3264 66.3402 59.3208 67.7288C59.3153 69.1174 60.2374 69.5334 61.224 69.4072" fill="#B68649"/>
<path d="M64.1113 64.7657C63.089 64.2122 61.3947 65.8108 60.8753 66.3048C60.8753 66.3048 59.3264 66.3402 59.3208 67.7288C59.3153 69.1174 60.2374 69.5334 61.224 69.4072" stroke="#683F1D" stroke-linecap="round" stroke-linejoin="round"/>
<path d="M60.8767 66.3047C61.3517 66.272 61.6456 67.1014 61.6456 67.1014L60.8767 66.3047Z" fill="#F9F9F9"/>
<path d="M60.8767 66.3047C61.3517 66.272 61.6456 67.1014 61.6456 67.1014" stroke="#683F1D" stroke-linecap="round" stroke-linejoin="round"/>
<path d="M57.0309 73.2799C57.4338 72.6712 58.1918 72.6441 58.2867 73.7355C58.3165 74.472 58.1359 75.2017 57.7661 75.8393" stroke="#683F1D" stroke-linecap="round" stroke-linejoin="round"/>
<path d="M51.8822 63.4999C52.6603 63.4134 52.6345 65.2961 52.1586 66.0048" stroke="#683F1D" stroke-linecap="round" stroke-linejoin="round"/>
<path d="M48.689 70.4055C49.306 70.0806 49.7379 70.5041 49.6373 71.2359C49.4964 72.5427 49.4823 73.5106 48.8256 73.6272" stroke="#683F1D" stroke-linecap="round" stroke-linejoin="round"/>
<path d="M36.5885 67.2048C37.3875 73.4843 34.7195 76.3037 31.6175 74.1702C29.0865 72.4478 29.353 68.6107 29.5217 66.1904L36.5885 67.2048Z" fill="#E19080"/>
<path d="M38.66 62.7351C38.2497 64.4278 37.7445 66.0961 37.1469 67.7321C36.1047 67.8303 35.0574 67.8642 34.0109 67.8337C33.0422 67.8296 32.005 67.812 31.1037 67.7973C29.7289 67.7644 28.6764 67.726 28.6764 67.726C28.9062 64.865 29.3288 62.0227 29.9415 59.2186C30.0911 58.5234 30.277 57.8365 30.4985 57.1608C31.6168 53.7871 33.5277 51.7364 36.777 52.3082C36.9555 52.3352 37.1311 52.3786 37.3015 52.438C39.3751 53.1936 39.6826 55.9947 39.3417 59.0007C39.1906 60.2582 38.9629 61.5053 38.66 62.7351Z" fill="#C3DCF8"/>
<path d="M38.6604 62.7355C38.2501 64.4282 37.7449 66.0965 37.1473 67.7325C37.1473 67.7325 36.888 61.5217 36.8595 61.0298C36.8722 60.9783 36.856 60.9196 36.8511 60.8706C37.665 61.2458 38.31 61.9106 38.6604 62.7355Z" fill="#95B2D2"/>
<path d="M37.1333 67.7284C37.1333 67.7284 36.8739 61.5176 36.8454 61.0257C36.8581 60.9742 36.8419 60.9156 36.837 60.8665C36.8083 60.4355 36.6542 60.0223 36.3936 59.6777" stroke="#95B2D2" stroke-width="0.75" stroke-linecap="round" stroke-linejoin="round"/>
<path d="M39.3339 59.0024C37.7171 57.0076 35.8414 55.963 33.0005 56.4313C32.14 56.5842 31.2976 56.8254 30.4867 57.1512C31.6049 53.7775 33.5158 51.7269 36.7652 52.2987C36.9437 52.3256 37.1192 52.3691 37.2897 52.4285C39.3674 53.1953 39.6748 55.9964 39.3339 59.0024Z" fill="#E0EFFF"/>
<path d="M42.9799 47.2905C42.6621 44.8215 42.6723 41.0678 45.3918 39.9036C48.8268 38.4417 50.4717 41.4542 50.4717 41.4542C50.4717 41.4542 51.5906 46.3718 47.5774 47.7827C43.5642 49.1937 42.9799 47.2905 42.9799 47.2905Z" fill="#DD6819"/>
<path d="M48.2189 53.9608C44.7851 53.5823 43.1474 49.9194 43.1474 49.9194C40.2072 48.8709 42.0295 45.3982 44.129 47.2085C44.3521 47.3969 45.0957 46.3652 45.3405 45.514C45.5853 44.6629 45.6894 44.5179 45.3774 44.1368C45.0653 43.7556 44.6479 43.3314 45.1994 42.6756C45.751 42.0199 46.7096 41.8302 47.15 42.0929C47.5904 42.3555 49.0144 42.7557 49.6123 42.3129C49.7951 42.1661 49.9428 41.9804 50.0446 41.7693C50.1465 41.5582 50.1999 41.327 50.2011 41.0926C50.2011 41.0926 51.7326 42.7556 52.1923 46.7075C52.2112 46.8795 52.2285 47.058 52.2434 47.2187C52.3232 48.0166 52.3381 48.8197 52.2877 49.6201C52.1116 52.2776 51.0302 54.2603 48.2189 53.9608Z" fill="#FFB3A4"/>
<path d="M47.9422 46.4587C47.9232 46.5358 47.9274 46.6169 47.9545 46.6916C47.9815 46.7664 48.0302 46.8313 48.0943 46.8784C48.1583 46.9254 48.2349 46.9523 48.3143 46.9557C48.3937 46.9592 48.4723 46.9389 48.5402 46.8976C48.6081 46.8563 48.6621 46.7957 48.6955 46.7236C48.7289 46.6515 48.7402 46.5711 48.7278 46.4926C48.7154 46.4141 48.68 46.341 48.626 46.2827C48.5721 46.2243 48.502 46.1833 48.4247 46.1649C48.3737 46.1523 48.3208 46.1499 48.2689 46.1578C48.2169 46.1658 48.1671 46.184 48.1223 46.2113C48.0774 46.2386 48.0384 46.2745 48.0075 46.317C47.9766 46.3595 47.9544 46.4076 47.9422 46.4587Z" fill="#4A3320"/>
<path d="M50.3561 46.2333C50.3364 46.3103 50.34 46.3914 50.3664 46.4663C50.3929 46.5413 50.441 46.6067 50.5047 46.6542C50.5683 46.7018 50.6447 46.7294 50.7241 46.7334C50.8034 46.7375 50.8822 46.7179 50.9504 46.6772C51.0186 46.6364 51.0732 46.5763 51.1072 46.5045C51.1412 46.4326 51.1531 46.3523 51.1414 46.2737C51.1296 46.1951 51.0948 46.1218 51.0414 46.063C50.9879 46.0042 50.9182 45.9626 50.841 45.9435C50.7901 45.9305 50.7372 45.9277 50.6852 45.9352C50.6332 45.9427 50.5833 45.9605 50.5382 45.9874C50.4931 46.0143 50.4538 46.0499 50.4226 46.0922C50.3913 46.1344 50.3687 46.1823 50.3561 46.2333Z" fill="#4A3320"/>
<path d="M46.4627 44.9897C46.5309 45.611 48.5304 44.6511 48.2313 43.9419C47.9321 43.2327 46.3789 44.2519 46.4627 44.9897Z" fill="#DD6819"/>
<path d="M49.7413 43.6805C49.4003 44.3132 51.1321 44.67 51.2255 44.3892C51.3189 44.1084 50.1094 42.993 49.7413 43.6805Z" fill="#DD6819"/>
<path d="M42.824 49.7718C43.2208 49.8988 43.638 49.9499 44.0537 49.9224" stroke="#934735" stroke-width="0.75" stroke-linecap="round" stroke-linejoin="round"/>
<path d="M42.353 47.9713C42.5561 47.4956 43.8803 47.5399 44.055 48.6144" stroke="#934735" stroke-width="0.75" stroke-linecap="round" stroke-linejoin="round"/>
<path d="M43.9572 48.3001C43.0151 47.664 42.409 49.037 43.8395 49.1349" stroke="#934735" stroke-width="0.75" stroke-linecap="round" stroke-linejoin="round"/>
<path d="M49.4047 45.5881C49.1039 46.1967 49.3061 46.7179 49.7125 46.8971C50.2453 47.1313 50.8348 47.5641 50.1696 48.4034" stroke="#934735" stroke-width="0.75" stroke-linecap="round" stroke-linejoin="round"/>
<path d="M47.6733 48.8169C48.4753 49.3295 49.9574 49.5084 49.9574 49.5084C49.9574 49.5084 49.4195 50.7993 48.4877 50.4799C47.556 50.1606 47.6733 48.8169 47.6733 48.8169Z" fill="white" stroke="#934735" stroke-width="0.75" stroke-linecap="round" stroke-linejoin="round"/>
<path d="M47.6136 48.4367C47.2135 48.9216 46.3757 48.885 45.7409 48.3592C45.1062 47.8333 44.9185 47.0185 45.3153 46.5464C45.7121 46.0744 46.5523 46.1013 47.1871 46.6272C47.8219 47.153 48.0128 47.9549 47.6136 48.4367Z" fill="#E39886"/>
<path d="M52.2887 49.6138C51.72 49.8556 51.1128 49.7702 50.8144 49.3617C50.4434 48.8601 50.677 48.054 51.3407 47.566C51.603 47.3671 51.9157 47.2458 52.2435 47.2157C52.3234 48.0125 52.3385 48.8145 52.2887 49.6138Z" fill="#E39886"/>
<path d="M31.4385 74.0537C34.1118 76.1119 36.9138 75.4974 40.8945 74.9628C44.8752 74.4283 49.5389 73.3832 49.5389 73.3832C49.5389 73.3832 53.3355 72.5162 54.6771 72.0764C56.0186 71.6367 56.1672 71.2295 56.0622 71.0191C55.9572 70.8087 54.2276 71.0364 53.9013 71.0854C54.6943 70.6206 55.4531 70.0997 56.1719 69.5267C56.8386 68.9165 56.7729 68.3675 55.8842 68.5642C55.8842 68.5642 56.7894 67.8731 56.3993 67.435C56.0091 66.997 52.2375 68.9219 52.2375 68.9219C52.2375 68.9219 55.2902 67.2665 55.0229 66.4422C54.7556 65.618 50.3412 68.0156 50.3412 68.0156C50.3412 68.0156 51.4214 65.8721 50.9069 65.5638C50.3925 65.2555 49.7497 66.1004 49.1081 66.7475C48.4665 67.3946 47.2461 69.0835 46.731 69.1643C46.2158 69.2451 36.8946 67.8469 33.6379 69.2641C30.611 70.5947 29.8204 72.7962 31.4385 74.0537Z" fill="#FFB3A4"/>
<path d="M45.987 74.1099C48.0233 73.7191 49.5387 73.377 49.5387 73.377C49.5387 73.377 53.3353 72.51 54.6769 72.0703C56.0185 71.6305 56.167 71.2233 56.062 71.0129C55.957 70.8025 54.2274 71.0302 53.9011 71.0792C54.6941 70.6144 55.453 70.0935 56.1718 69.5205C56.8384 68.9103 56.7728 68.3614 55.884 68.5581C55.884 68.5581 56.7893 67.8669 56.3991 67.4289C56.0089 66.9908 52.2373 68.9157 52.2373 68.9157C52.2373 68.9157 55.29 67.2603 55.0227 66.4361C54.7554 65.6118 50.341 68.0094 50.341 68.0094C50.341 68.0094 51.4212 65.8659 50.9068 65.5576C50.3923 65.2493 49.7495 66.0942 49.1079 66.7413" stroke="#934735" stroke-width="0.75" stroke-linecap="round" stroke-linejoin="round"/>
<path d="M35.0859 69.6325C35.8966 68.7575 37.2551 68.6497 37.7415 68.6437" stroke="#934735" stroke-width="0.75" stroke-linecap="round" stroke-linejoin="round"/>
<path d="M53.0523 70.1827C53.6473 69.8758 55.8848 68.5615 55.8848 68.5615" stroke="#934735" stroke-width="0.75" stroke-linecap="round" stroke-linejoin="round"/>
<path d="M53.2038 71.4076L53.9032 71.0787" stroke="#934735" stroke-width="0.75" stroke-linecap="round" stroke-linejoin="round"/>
<path d="M33.0437 71.4766C33.5818 71.8869 34.2072 72.1677 34.8713 72.2972C35.5354 72.4268 36.2205 72.4016 36.8734 72.2237C38.0982 71.9052 40.3519 73.6772 42.3361 74.5999C44.3203 75.5226 46.0106 75.9839 45.0674 77.4374C45.0674 77.4374 47.6926 78.0743 48.5786 78.5356C49.4645 78.997 48.5786 79.8829 47.6232 79.8829C46.6679 79.8829 41.593 79.4747 39.9966 79.3971C38.4003 79.3195 30.1981 77.0863 30.1981 77.0863L33.0437 71.4766Z" fill="#FEBD9D"/>
<path d="M42.3361 74.6001C44.3244 75.5228 46.0106 75.9841 45.0674 77.4376C45.0674 77.4376 47.6926 78.0745 48.5786 78.5359C49.4645 78.9972 48.5786 79.8832 47.6232 79.8832C47.2762 79.8832 46.3984 79.8301 45.3369 79.7607" stroke="#EF8A66" stroke-width="0.75" stroke-linecap="round" stroke-linejoin="round"/>
<path d="M6.77104 69.7128C7.71007 70.0884 8.79198 70.5293 9.9719 71.0192C17.8067 74.2569 29.7242 79.397 29.7242 79.397L34.0928 71.354C31.6431 69.4964 27.046 65.728 24.0941 62.7149C21.1423 59.7019 15.7204 52.6591 8.24899 55.5334C6.53241 56.1643 5.005 57.2224 3.81104 58.6077C0.712238 62.323 1.41039 67.5571 6.77104 69.7128Z" fill="#FED81D"/>
<path d="M6.77228 69.7125C7.71132 70.0881 8.79323 70.529 9.97314 71.019C8.65033 65.3399 6.86209 67.4833 3.84902 62.7596C3.06514 61.5348 3.22028 60.1262 3.82044 58.6074C0.71347 62.3227 1.41164 67.5568 6.77228 69.7125Z" fill="#FCC71F"/>
<path d="M34.0928 71.354C31.6431 69.4922 27.0419 65.7279 24.09 62.7149C21.1382 59.7018 15.7204 52.655 8.2449 55.5333" stroke="#F7AD2B" stroke-width="0.75" stroke-linecap="round" stroke-linejoin="round"/>
<path d="M31.291 71.0146L28.3106 77.0857" stroke="#F7AD2B" stroke-width="0.75" stroke-linecap="round" stroke-linejoin="round"/>
<path d="M45.0669 77.4372C43.0255 76.9799 39.8614 76.8248 38.8897 76.4165" stroke="#EF8A66" stroke-width="0.75" stroke-linecap="round" stroke-linejoin="round"/>
</svg>
