<svg width="1160" height="340" viewBox="0 0 1160 340" fill="none" xmlns="http://www.w3.org/2000/svg">
<path d="M227.279 212.246C242.887 202.891 259.855 207.703 267.818 221.495C276.004 235.674 271.612 252.645 255.43 261.644" fill="#FF6B00"/>
<path d="M1098 283L1086 303.785L1147.49 339.285L1159.49 318.5L1098 283Z" fill="#22DA4A"/>
<path d="M784.192 101L775 110.192L827.326 162.518L836.518 153.326L784.192 101Z" fill="#AA0BF0"/>
<path d="M4.05346e-07 0.00835037L2.38454e-09 33.8L30.9914 34C31.3648 13.605 19.603 -0.391552 4.05346e-07 0.00835037Z" fill="#FFE500"/>
<path d="M590 149C597.18 149 603 143.404 603 136.5C603 129.596 597.18 124 590 124C582.82 124 577 129.596 577 136.5C577 143.404 582.82 149 590 149Z" fill="#F10E0E"/>
</svg>
