<svg width="301" height="224" viewBox="0 0 301 224" fill="none" xmlns="http://www.w3.org/2000/svg">
<path d="M91.5581 18.8032L1 12.6113V215.338H91.5581V18.8032Z" stroke="white"/>
<path d="M116.18 6.64295L11.123 0V217.495H116.18V6.64295Z" fill="#F3E8CB"/>
<path d="M106.093 18.2233L19.4883 12.3018V206.177H106.093V18.2233Z" stroke="white"/>
<circle cx="29.15" cy="98.6661" r="5.90484" fill="#C4B07D"/>
<path d="M70.0009 220.04H56.2229C56.2229 220.04 56.1688 217.225 56.0753 213.416C55.9129 206.936 55.2437 195.037 54.3432 181.289C53.7871 172.781 65.0457 172.432 64.9178 181.88C64.657 200.539 64.4257 213.416 64.4257 213.416L70.6898 217.948C70.891 218.091 71.0413 218.294 71.1184 218.528C71.1956 218.762 71.1957 219.015 71.1185 219.249C71.0414 219.483 70.8912 219.686 70.69 219.828C70.4888 219.971 70.2473 220.045 70.0009 220.04Z" fill="#FFB3A4"/>
<path d="M51.5723 182.977C56.7292 183.567 65.8079 183.513 65.7537 183.356C65.6996 183.198 65.429 142.667 65.2174 140.743C65.0058 138.819 54.6871 140.088 54.1507 140.743C53.6144 141.397 51.5723 182.977 51.5723 182.977Z" fill="#4A3320"/>
<path d="M70.0008 220.04H56.2228C56.2228 220.04 56.1687 217.225 56.0752 213.417H64.4404L70.6897 217.948C70.8909 218.091 71.0412 218.294 71.1184 218.528C71.1955 218.762 71.1956 219.015 71.1185 219.249C71.0414 219.483 70.8912 219.686 70.69 219.828C70.4888 219.971 70.2472 220.045 70.0008 220.04Z" fill="#FED81D"/>
<path d="M36.2451 212.624C40.6737 204.018 44.6989 195.594 48.3156 188.833C49.3509 186.638 50.2178 184.368 50.9088 182.042C51.145 180.92 51.7256 176.186 47.1838 175.419C42.642 174.651 41.2052 177.387 39.8471 181.358C39.2172 183.194 33.583 198.763 29.7793 207.325L36.2451 212.624Z" fill="#FFB3A4"/>
<path d="M36.3731 221.275L25.7148 212.536C25.7148 212.536 27.4568 210.326 29.799 207.32L36.2452 212.624L38.2134 220.089C38.2752 220.324 38.2611 220.572 38.1731 220.799C38.0851 221.025 37.9277 221.218 37.7235 221.35C37.5193 221.481 37.2787 221.545 37.0362 221.531C36.7936 221.518 36.5615 221.428 36.3731 221.275Z" fill="#FED81D"/>
<path d="M41.2396 142.534C41.2396 142.534 39.3747 163.806 35.4873 181.009C35.4873 181.009 42.081 185.821 52.8229 183.961C53.0345 183.371 55.8689 168.274 56.9859 162.399C58.1029 156.523 58.6048 154.496 60.0219 153.482C61.4391 152.469 61.2423 141.85 61.0356 141.387C60.8289 140.925 47.4791 132.077 41.2396 142.534Z" fill="#4A3320"/>
<path d="M59.1709 151.076C60.1108 150.447 61.0063 149.713 61.0555 148.877C61.1047 148.04 61.1785 144.256 61.1785 144.256" stroke="#7A583F" stroke-opacity="0.99" stroke-width="0.75" stroke-linecap="round" stroke-linejoin="round"/>
<path d="M58.6647 144.256C58.5417 145.447 58.3301 150.55 58.3301 150.55" stroke="#7A583F" stroke-opacity="0.99" stroke-width="0.75" stroke-linecap="round" stroke-linejoin="round"/>
<path d="M52.8232 183.996C53.0348 183.405 55.8692 168.309 56.9862 162.433C58.1032 156.558 58.6051 154.531 60.0222 153.517" stroke="#7A583F" stroke-opacity="0.99" stroke-width="0.75" stroke-linecap="round" stroke-linejoin="round"/>
<path d="M81.5159 119.766C81.6389 117.842 81.9637 115.76 82.2934 115.106C82.6231 114.451 84.2961 112.065 84.9899 111.809C85.6837 111.553 85.8904 113.074 84.8669 114.663V115.091C85.6782 114.145 86.4183 113.14 87.0812 112.084C87.8981 110.692 88.6362 110.116 89.0839 110.52C89.5317 110.923 88.0211 114.373 87.5733 114.904L87.8981 115.081C87.8981 115.081 90.7865 111.469 91.3081 111.145C91.933 110.731 92.3956 111.735 91.8641 112.675C91.8641 112.675 92.681 112.144 93.0057 112.631C93.3305 113.118 90.9243 117.212 90.9243 117.212C90.9243 117.212 93.4683 114.402 94.1277 115.101C94.787 115.8 89.8614 121.345 87.2092 123.732C87.2092 123.732 82.4607 131.078 79.9068 134.134C76.5657 138.13 71.0496 140.275 68.8549 137.731C66.1387 134.538 70.0851 129.405 81.5159 119.766Z" fill="#FFB3A4"/>
<path d="M82.2891 115.106C82.6138 114.451 84.2918 112.065 84.9856 111.809C85.6794 111.553 85.8861 113.074 84.8626 114.663V115.091C85.6738 114.145 86.414 113.14 87.0769 112.084C87.8937 110.692 88.6318 110.116 89.0796 110.52C89.5274 110.923 88.0168 114.373 87.569 114.904L87.8937 115.081C87.8937 115.081 90.7822 111.469 91.3038 111.145C91.9287 110.731 92.3913 111.735 91.8598 112.675C91.8598 112.675 92.6767 112.144 93.0014 112.631C93.3262 113.118 90.92 117.212 90.92 117.212C90.92 117.212 93.464 114.402 94.1233 115.101C94.4481 115.45 93.3852 117.015 91.9041 118.787" stroke="#934735" stroke-width="0.75" stroke-linecap="round" stroke-linejoin="round"/>
<path d="M84.8623 114.663C85.2264 116.735 85.0936 119.584 84.8623 119.805" stroke="#934735" stroke-width="0.75" stroke-linecap="round" stroke-linejoin="round"/>
<path d="M86.9883 114.368C87.6575 114.771 89.5717 117.684 89.5717 117.684" stroke="#934735" stroke-width="0.75" stroke-linecap="round" stroke-linejoin="round"/>
<path d="M90.9099 117.192L90.0537 118.295" stroke="#934735" stroke-width="0.75" stroke-linecap="round" stroke-linejoin="round"/>
<path d="M89.0091 116.853C88.9747 116.803 91.8483 112.655 91.8483 112.655" stroke="#934735" stroke-width="0.75" stroke-linecap="round" stroke-linejoin="round"/>
<path d="M72.166 126.482C75.0495 135.507 74.0162 140.935 66.9747 137.584C65.0949 135.886 65.1983 128.234 65.1983 128.234L72.166 126.482Z" fill="#E19080"/>
<path d="M55.4811 116.016C50.9639 116.508 49.5763 112.035 49.9453 109.905C50.3144 107.774 50.275 104.836 50.4374 101.229C50.7868 93.9911 58.1432 93.4203 59.2012 101.49C59.2999 102.275 59.341 103.066 59.3242 103.857C59.3121 105.2 59.3779 106.542 59.521 107.877C59.6293 108.96 59.772 110.023 59.9294 111.017C60.2886 113.246 60.0032 115.509 55.4811 116.016Z" fill="#E19080"/>
<path d="M59.5295 107.877C55.1009 108.542 54.3972 106.037 54.5793 102.238L59.2097 101.49C59.3084 102.275 59.3495 103.066 59.3327 103.857C59.3206 105.2 59.3864 106.542 59.5295 107.877Z" fill="#C77464"/>
<path d="M66.9897 130.552C66.9897 130.552 66.6452 136.654 66.8667 137.343C67.0881 138.032 67.9 141.944 64.6425 142.539C61.385 143.134 42.396 143.351 41.2397 142.539C40.6008 142.027 40.1287 141.337 39.8833 140.557C39.638 139.776 39.6305 138.94 39.8619 138.155C40.4228 136.624 39.9849 134.277 39.6749 132.87C39.6306 132.673 39.5519 132.117 39.4436 131.295C39.0007 127.851 38.1593 119.697 38.1445 114.25C38.1445 111.642 38.3217 109.654 38.8285 109.088C40.3047 107.435 41.589 107.041 42.8979 106.967C43.1932 106.967 43.4933 106.967 43.7935 106.967C45.4222 106.997 48.9652 107.341 50.1904 107.376C50.7111 108.501 51.5165 109.472 52.5271 110.19C53.5377 110.909 54.7184 111.352 55.9526 111.475C58.2358 111.755 59.4659 110.441 60.2139 108.522C60.2139 108.522 63.0236 108.03 65.0559 108.581C66.7387 109.049 68.0083 110.22 68.8645 111.996C69.0546 112.387 69.219 112.79 69.3566 113.202C70.2324 115.662 72.2647 126.512 72.1417 126.512C72.0187 126.512 66.9897 130.552 66.9897 130.552Z" fill="#FED81D"/>
<path d="M43.902 119.254C46.4116 118.801 49.8856 121.326 49.1081 124.096C48.3307 126.866 51.2978 128.033 53.6745 126.483C56.0512 124.933 58.6641 130.852 58.6641 130.852L51.0075 133.273L46.5395 133.549L43.5625 132.998L43.902 119.254Z" fill="#FCC71F"/>
<path d="M66.9951 130.552C66.9951 130.552 67.6151 119.352 67.3592 117.192" stroke="#83ADDF" stroke-width="0.75" stroke-linecap="round" stroke-linejoin="round"/>
<path d="M68.8886 111.966C68.1488 111.911 67.4087 112.07 66.7569 112.425C66.105 112.779 65.569 113.313 65.2129 113.964C61.852 119.338 57.8072 125.203 51.5727 118.767C50.5251 117.658 49.3932 116.631 48.1872 115.696C45.1462 113.398 42.0708 112.562 38.1441 114.25C36.9587 114.777 35.8308 115.425 34.7783 116.183C35.1867 110.923 37.2091 107.287 42.0954 106.952C42.3622 106.927 42.6307 106.927 42.8975 106.952C43.1927 106.952 43.4929 106.952 43.793 106.952C45.4218 106.982 48.9647 107.326 50.19 107.361C50.7106 108.486 51.5161 109.456 52.5267 110.175C53.5373 110.894 54.718 111.337 55.9521 111.46C58.2353 111.74 59.4655 110.426 60.2134 108.507C60.2134 108.507 63.0232 108.015 65.0554 108.566C66.7531 109.019 68.0177 110.185 68.8886 111.966Z" fill="#FFE05C"/>
<path d="M49.5836 106.79C50.2676 106.214 50.7449 107.046 51.1779 107.656C51.6109 108.266 53.3774 110.643 55.8771 110.663C58.3769 110.682 59.4348 108.424 59.8137 107.932C60.1926 107.44 61.2899 108.03 61.0144 109.108C60.7388 110.185 59.1888 112.405 55.6016 112.405C51.4977 112.405 48.3436 107.833 49.5836 106.79Z" fill="white"/>
<path d="M47.1544 128.495C50.5448 137.259 47.7056 142.273 42.4749 140.305C38.2135 138.725 37.2294 133.101 36.6094 129.553L47.1544 128.495Z" fill="#E19080"/>
<path d="M48.5473 121.316C48.5596 123.902 48.4265 126.486 48.1488 129.056C46.6819 129.57 45.1848 129.992 43.666 130.321C42.2685 130.661 40.7677 131.005 39.4637 131.305C37.4708 131.748 35.9405 132.068 35.9405 132.068C35.2515 127.863 34.847 123.617 34.73 119.358C34.6976 118.303 34.7206 117.246 34.7989 116.194C35.2073 110.933 37.2297 107.297 42.116 106.962C42.3828 106.938 42.6513 106.938 42.9181 106.962C46.1756 107.312 47.6173 111.239 48.198 115.692C48.4286 117.558 48.5453 119.436 48.5473 121.316Z" fill="#FED81D"/>
<path d="M48.5477 121.316C48.5599 123.901 48.4268 126.485 48.1491 129.056C48.1491 129.056 45.5608 120.199 45.3443 119.5C45.3443 119.421 45.3 119.342 45.2754 119.273C46.582 119.524 47.7485 120.252 48.5477 121.316Z" fill="#FCC71F"/>
<path d="M48.1289 129.056C48.1289 129.056 45.5407 120.199 45.3241 119.5C45.3241 119.421 45.2799 119.343 45.2553 119.274C45.0602 118.663 44.6908 118.122 44.1924 117.719" stroke="#D6A91C" stroke-width="0.75" stroke-linecap="round" stroke-linejoin="round"/>
<path d="M48.1882 115.696C45.1472 113.398 42.0718 112.562 38.1451 114.25C36.9596 114.777 35.8317 115.425 34.7793 116.183C35.1877 110.923 37.2101 107.287 42.0964 106.952C42.3632 106.927 42.6317 106.927 42.8985 106.952C46.1658 107.316 47.6076 111.243 48.1882 115.696Z" fill="#FFE05C"/>
<path d="M49.2715 97.5191C47.9331 94.0747 46.6094 88.6619 50.113 86.0145C54.5416 82.6832 57.9861 86.4377 57.9861 86.4377C57.9861 86.4377 61.3518 93.125 56.0719 96.5891C50.792 100.053 49.2715 97.5191 49.2715 97.5191Z" fill="#604730"/>
<path d="M59.1965 105.264C54.1135 105.943 50.4475 101.249 50.4475 101.249C45.8368 100.786 47.2245 95.1322 50.8953 96.9922C51.2841 97.1842 51.9877 95.4324 52.0369 94.1186C52.0861 92.8047 52.1845 92.5587 51.599 92.1207C51.0134 91.6828 50.2605 91.2203 50.8215 90.0787C51.3825 88.9371 52.6963 88.322 53.4246 88.5434C54.1528 88.7648 56.3475 88.8337 57.0511 87.9824C57.2622 87.7058 57.4088 87.3856 57.4803 87.045C57.5518 86.7045 57.5464 86.3523 57.4645 86.0142C57.4645 86.0142 60.2643 87.8643 62.336 93.3952C62.4245 93.6363 62.5131 93.8873 62.5918 94.1136C62.9914 95.235 63.2991 96.3869 63.512 97.5581C64.2058 101.45 63.3545 104.693 59.1965 105.264Z" fill="#FFB3A4"/>
<path d="M56.1221 94.552C56.1221 94.6699 56.1571 94.7852 56.2228 94.8833C56.2884 94.9813 56.3817 95.0576 56.4908 95.1025C56.5999 95.1474 56.7198 95.1589 56.8355 95.1355C56.9511 95.1122 57.0572 95.055 57.1403 94.9712C57.2233 94.8874 57.2796 94.7809 57.3021 94.6651C57.3245 94.5493 57.312 94.4294 57.2662 94.3207C57.2203 94.212 57.1433 94.1193 57.0447 94.0545C56.9461 93.9897 56.8305 93.9556 56.7126 93.9566C56.6346 93.9566 56.5574 93.972 56.4855 94.002C56.4135 94.032 56.3482 94.0759 56.2933 94.1312C56.2384 94.1866 56.195 94.2523 56.1656 94.3245C56.1362 94.3967 56.1214 94.474 56.1221 94.552Z" fill="#4A3320"/>
<path d="M59.5215 93.3659C59.5205 93.4839 59.5546 93.5995 59.6194 93.698C59.6843 93.7966 59.7769 93.8737 59.8856 93.9195C59.9943 93.9653 60.1142 93.9778 60.23 93.9554C60.3458 93.933 60.4524 93.8766 60.5362 93.7936C60.6199 93.7105 60.6771 93.6044 60.7005 93.4888C60.7239 93.3732 60.7124 93.2532 60.6674 93.1441C60.6225 93.035 60.5462 92.9418 60.4482 92.8761C60.3502 92.8105 60.2349 92.7754 60.1169 92.7754C60.0389 92.7748 59.9616 92.7896 59.8894 92.8189C59.8172 92.8483 59.7515 92.8917 59.6962 92.9466C59.6408 93.0015 59.5969 93.0668 59.5669 93.1388C59.5369 93.2108 59.5215 93.2879 59.5215 93.3659Z" fill="#4A3320"/>
<path d="M53.4692 92.9625C53.7891 93.8335 56.3282 91.7373 55.6442 90.822C54.9602 89.9068 53.0854 91.9292 53.4692 92.9625Z" fill="#604730"/>
<path d="M57.725 89.9069C57.4592 90.9403 60.082 90.837 60.1164 90.399C60.1509 89.9611 58.0104 88.785 57.725 89.9069Z" fill="#604730"/>
<path d="M49.9316 101.151C50.5487 101.192 51.168 101.117 51.7572 100.929" stroke="#934735" stroke-width="0.75" stroke-linecap="round" stroke-linejoin="round"/>
<path d="M48.6074 98.7248C48.7304 97.967 50.6544 97.5586 51.2892 99.0447" stroke="#934735" stroke-width="0.75" stroke-linecap="round" stroke-linejoin="round"/>
<path d="M51.0396 98.6262C49.4552 98.0456 49.0713 100.24 51.1676 99.8712" stroke="#934735" stroke-width="0.75" stroke-linecap="round" stroke-linejoin="round"/>
<path d="M57.922 92.7754C57.7055 93.7595 58.1828 94.4386 58.8323 94.5518C59.6836 94.6994 60.6874 95.1127 60.0281 96.5594" stroke="#934735" stroke-width="0.75" stroke-linecap="round" stroke-linejoin="round"/>
<path d="M56.5791 98.0454C57.9175 98.4981 60.1171 98.2275 60.1171 98.2275C60.1171 98.2275 59.8022 100.279 58.3456 100.151C56.8891 100.024 56.5791 98.0454 56.5791 98.0454Z" fill="white" stroke="#934735" stroke-width="0.75" stroke-linecap="round" stroke-linejoin="round"/>
<path d="M56.3578 97.5189C55.9543 98.3603 54.7339 98.6063 53.6317 98.0749C52.5294 97.5435 51.9685 96.4363 52.372 95.6145C52.7755 94.7928 53.9958 94.532 55.0981 95.0634C56.2003 95.5949 56.7612 96.6823 56.3578 97.5189Z" fill="#E39886"/>
<path d="M63.5119 97.5485C62.7787 98.0996 61.8733 98.1931 61.2976 97.7108C60.5841 97.1204 60.6333 95.8754 61.4157 94.9356C61.7227 94.5555 62.1302 94.2691 62.5918 94.1089C62.9911 95.2286 63.2988 96.3789 63.5119 97.5485Z" fill="#E39886"/>
<path d="M42.1813 140.201C46.7674 142.214 50.5859 140.329 56.1315 138.139C61.6772 135.95 68.0249 132.781 68.0249 132.781C68.0249 132.781 73.1867 130.178 74.963 129.065C76.7394 127.953 76.8083 127.314 76.582 127.048C76.3556 126.782 73.9445 127.727 73.4918 127.914C74.4688 126.961 75.3765 125.94 76.208 124.858C76.951 123.741 76.6607 122.974 75.4502 123.574C75.4502 123.574 76.5082 122.255 75.7897 121.763C75.0713 121.271 70.3228 125.39 70.3228 125.39C70.3228 125.39 74.1315 121.916 73.4524 120.823C72.7733 119.731 67.2671 124.76 67.2671 124.76C67.2671 124.76 68.0593 121.286 67.208 121.025C66.3567 120.764 65.7318 122.211 65.038 123.372C64.3442 124.533 63.1878 127.402 62.4743 127.702C61.7608 128.003 47.8303 129.311 43.6428 132.515C39.7554 135.512 39.4011 138.966 42.1813 140.201Z" fill="#FFB3A4"/>
<path d="M63.168 135.093C65.9629 133.804 68.0247 132.771 68.0247 132.771C68.0247 132.771 73.1865 130.168 74.9629 129.056C76.7393 127.944 76.8082 127.304 76.5818 127.038C76.3555 126.772 73.9443 127.717 73.4916 127.904C74.4686 126.952 75.3763 125.93 76.2078 124.848C76.9509 123.731 76.6605 122.964 75.45 123.564C75.45 123.564 76.508 122.245 75.7896 121.753C75.0711 121.261 70.3227 125.38 70.3227 125.38C70.3227 125.38 74.1313 121.906 73.4522 120.813C72.7732 119.721 67.2669 124.75 67.2669 124.75C67.2669 124.75 68.0591 121.276 67.2079 121.015C66.3566 120.754 65.7316 122.201 65.0378 123.362" stroke="#934735" stroke-width="0.75" stroke-linecap="round" stroke-linejoin="round"/>
<path d="M45.8604 132.53C46.7166 130.98 48.6356 130.34 49.3344 130.158" stroke="#934735" stroke-width="0.75" stroke-linecap="round" stroke-linejoin="round"/>
<path d="M71.9473 126.915C72.6952 126.261 75.4508 123.569 75.4508 123.569" stroke="#934735" stroke-width="0.75" stroke-linecap="round" stroke-linejoin="round"/>
<path d="M72.6006 128.628L73.4912 127.904" stroke="#934735" stroke-width="0.75" stroke-linecap="round" stroke-linejoin="round"/>
<path d="M237.12 98.3025C238.104 117.06 239.797 175.641 240.446 198.286C240.604 203.94 240.697 207.355 240.697 207.355C240.697 207.355 248.541 209.397 254.746 207.355L254.79 198.522L254.943 167.266L255.125 131.399L255.189 117.213L255.292 96.1964C254.603 83.5551 237.12 82.6202 237.12 98.3025Z" fill="#93BEE5"/>
<path d="M254.941 167.266L255.124 131.399L255.188 117.213C254.041 116.918 252.639 117.178 250.936 118.133C246.05 120.854 246.212 133.904 249.593 138.559C252.767 142.953 244.254 158.483 254.941 167.266Z" fill="#83ADDF"/>
<path d="M253.59 206.125L254.082 217.669H230.463C230.463 217.669 230.039 215.445 233.533 213.964C237.027 212.483 244.496 206.228 244.654 206.125C244.811 206.022 253.59 206.125 253.59 206.125Z" fill="#683F1D"/>
<path d="M240.447 198.286C240.605 203.94 240.698 207.355 240.698 207.355C240.698 207.355 248.542 209.397 254.747 207.355L254.791 198.522C250.029 199.228 245.183 199.148 240.447 198.286Z" fill="#C3DCF8"/>
<path d="M250.272 113.488C250.272 114.162 250.312 114.831 250.331 115.5C250.331 115.574 250.331 115.648 250.331 115.722C250.331 115.913 250.331 116.096 250.331 116.287C250.331 116.716 250.371 117.134 250.385 117.557C250.425 118.492 250.474 119.422 250.528 120.357C250.528 120.696 250.567 121.036 250.587 121.371C250.617 121.808 250.641 122.251 250.671 122.689C250.71 123.295 250.754 123.89 250.799 124.5C250.828 124.849 250.853 125.204 250.882 125.558C250.941 126.301 251 127.034 251.069 127.782C251.119 128.304 251.168 128.83 251.212 129.362C251.246 129.711 251.286 130.056 251.32 130.405C251.365 130.843 251.409 131.286 251.458 131.734C251.488 132.034 251.517 132.334 251.552 132.634C251.581 132.855 251.601 133.082 251.625 133.308L251.758 134.44C251.807 134.863 251.862 135.291 251.916 135.724C251.955 136.049 251.994 136.384 252.039 136.708C252.083 137.033 252.122 137.368 252.167 137.692C252.245 138.303 252.324 138.918 252.413 139.543C252.629 141.157 252.87 142.815 253.131 144.527C253.21 145.019 253.289 145.551 253.372 146.072C255.562 160.028 264.345 187.224 269.246 201.996C270.595 206.061 271.653 209.18 272.199 210.854C272.199 210.854 281.981 211.04 286.833 207.124C286.833 207.124 285.691 203.231 284.102 197.666C280.549 185.226 274.728 164.437 274.339 160.269C274.152 158.187 273.847 150.988 273.557 142.431C272.981 126.109 272.376 104.866 272.376 104.866C272.278 97.5199 268.188 93.2388 263.519 91.8709C257.727 90.1634 251.055 92.9436 250.1 99.8818C250.11 104.714 250.139 109.162 250.272 113.488Z" fill="#93BEE5"/>
<path d="M250.332 115.5C250.72 125.75 251.745 135.965 253.402 146.087" stroke="white" stroke-width="0.75" stroke-linecap="round" stroke-linejoin="round"/>
<path d="M264.699 114.649C269.182 116.125 271.273 120.175 268.685 125.632C266.5 130.223 267.529 137.722 273.581 142.411C273.005 126.089 272.4 104.847 272.4 104.847C272.302 97.5 268.213 93.219 263.543 91.8511C261.265 92.9533 259.306 95.6597 258.583 100.551C257.717 106.49 259.552 112.976 264.699 114.649Z" fill="#83ADDF"/>
<path d="M250.928 113.911C249.614 113.02 249.092 112.897 248.959 112.435C248.827 111.972 248.713 106.284 248.713 106.284" stroke="white" stroke-width="0.75" stroke-linecap="round" stroke-linejoin="round"/>
<path d="M247.802 114.654C249.342 114.949 250.326 115.343 250.341 115.722" stroke="white" stroke-width="0.75" stroke-linecap="round" stroke-linejoin="round"/>
<path d="M251.828 107.942C251.759 109.979 251.828 112.371 251.828 112.371" stroke="white" stroke-width="0.75" stroke-linecap="round" stroke-linejoin="round"/>
<path d="M270.423 104.709C270.615 108.483 270.423 113.886 270.423 113.886C270.423 113.886 266.177 110.968 266.949 104.709" stroke="white" stroke-width="0.75" stroke-linecap="round" stroke-linejoin="round"/>
<path d="M283.881 205.288L288.138 216.03L265.832 223.819C265.832 223.819 264.7 221.851 267.51 219.307C270.32 216.763 275.3 208.393 275.428 208.241C275.555 208.088 283.881 205.288 283.881 205.288Z" fill="#683F1D"/>
<path d="M269.277 202.011C270.625 206.075 271.683 209.195 272.229 210.868C272.229 210.868 282.011 211.055 286.863 207.138C286.863 207.138 285.722 203.246 284.132 197.681C280.014 199.644 273.523 201.283 269.277 202.011Z" fill="#C3DCF8"/>
<path d="M219.83 81.3411L220.322 80.9671C225.05 77.1683 239.916 64.6058 239.916 64.6058C239.773 65.772 239.237 70.299 238.587 75.8201C237.278 86.867 235.507 101.9 235.507 101.9C244.901 104.07 252.045 105.172 257.419 105.649C269.086 106.702 272.427 104.862 272.427 104.862C272.427 104.862 273.667 100.173 275.306 93.7363C275.488 93.0081 275.685 92.2601 275.876 91.4827C277.19 86.3012 278.686 80.2881 279.99 74.7523C281.215 69.556 282.268 64.7928 282.844 61.55C283.108 60.2897 283.261 59.0087 283.302 57.7217C283.151 55.8734 282.293 54.1546 280.905 52.924C279.648 51.756 278.193 50.8197 276.61 50.1586C281.432 46.9847 278.027 37.6895 269.558 39.6037C268.185 39.9137 266.719 39.8153 264.578 39.4462C263.25 39.21 261.656 38.8754 259.658 38.4621L258.182 38.157C256.459 37.8027 255.027 37.5468 253.842 37.3795C248.148 36.5775 248.035 37.724 248.202 39.2937C248.202 39.2937 241.663 37.3943 237.456 42.1231C236.097 43.6485 234.784 45.1838 233.48 46.7486C227.909 53.4407 222.546 60.6053 214.609 69.5708C204.787 80.6178 215.726 84.6084 219.83 81.3411Z" fill="#28C079"/>
<path d="M246.337 99.5574C247.774 100.669 252.345 103.341 257.394 105.634C269.061 106.688 272.402 104.847 272.402 104.847C272.402 104.847 273.642 100.158 275.28 93.7215C275.462 92.9932 275.659 92.2453 275.851 91.4678C277.165 86.2863 278.661 80.2732 279.965 74.7374C279.04 71.411 277.298 68.8325 274.419 67.5974C263.741 63.0655 259.593 69.5657 260.376 74.639C261.158 79.7122 260.115 84.4509 251.828 85.5728C243.542 86.6947 243.084 97.0479 246.337 99.5574Z" fill="#1F9B61"/>
<path d="M220.297 80.967C225.026 77.1682 239.892 64.6057 239.892 64.6057C239.892 64.6057 240.571 58.6664 241.033 54.2427C237.279 55.1235 234.479 57.5642 235.301 61.1317C236.285 65.4028 231.723 69.4969 227.57 69.0737C223.727 68.6702 218.624 77.493 220.297 80.967Z" fill="#1F9B61"/>
<path d="M233.445 46.7388C237.938 46.8421 241.87 49.4943 244.015 55.3205C245.59 59.6113 247.814 62.2094 250.496 63.3264C254.388 64.9454 259.245 63.4495 264.52 59.4785C265.705 58.56 267.059 57.8843 268.505 57.49C269.952 57.0957 271.462 56.9905 272.949 57.1805C276.27 57.5594 279.646 59.198 282.82 61.5451C283.083 60.2848 283.236 59.0038 283.277 57.7168C283.127 55.8685 282.268 54.1497 280.881 52.9192C279.623 51.7511 278.169 50.8149 276.585 50.1537C281.407 46.9799 278.002 37.6847 269.534 39.5988C268.161 39.9088 266.695 39.8104 264.554 39.4413C263.225 39.2052 261.631 38.8705 259.633 38.4572L258.157 38.1521C256.435 37.7978 255.003 37.542 253.817 37.3747C248.124 36.5726 248.011 37.7191 248.178 39.2888C248.178 39.2888 241.638 37.3894 237.431 42.1182C236.063 43.6387 234.749 45.174 233.445 46.7388Z" fill="#2BDA88"/>
<path d="M239.872 64.6056C239.872 64.6056 240.551 58.6663 241.014 54.2426C241.107 53.3421 241.191 52.5056 241.26 51.7822" stroke="#145C3B" stroke-width="0.75" stroke-linecap="round" stroke-linejoin="round"/>
<path d="M252.832 51.792C250.475 56.2649 248.679 81.9559 248.526 85.2528C248.374 88.5497 246.415 88.0674 246.337 91.3446C246.327 92.3275 246.524 93.3015 246.915 94.2034C247.306 95.1053 247.881 95.9151 248.605 96.5802" stroke="#145C3B" stroke-width="0.75" stroke-linecap="round" stroke-linejoin="round"/>
<path d="M254.023 47.4471C257.068 45.622 260.393 44.3119 263.864 43.5695C263.864 43.5695 265.119 36.1885 265.862 31.3121C267.225 22.3613 258.147 23.1732 256.208 30.2246C256.109 30.5986 255.967 31.0611 255.799 31.5876C255.002 34.0775 253.61 37.9501 252.847 40.0512C252.517 40.9567 252.301 41.5275 252.301 41.5275C254.633 43.8008 254.023 47.4471 254.023 47.4471Z" fill="#FEBD9D"/>
<path d="M252.833 40.051C257.365 41.7044 260.74 39.1554 260.74 34.4562L257.222 31.8433L255.8 31.5874C255.003 34.0773 253.61 37.9597 252.833 40.051Z" fill="#F4A789"/>
<path d="M269.533 42.7625C266.226 42.8314 261.089 43.604 254.023 47.447C254.023 47.447 255.125 42.6789 250.303 39.9331" stroke="#145C3B" stroke-width="0.75" stroke-linecap="round" stroke-linejoin="round"/>
<path d="M266.753 79.4074C268.242 84.8698 271.198 89.8203 275.301 93.7217C278.578 80.8836 283.459 61.0975 283.297 57.7169C283.056 52.6437 276.605 50.1538 276.605 50.1538C266.566 52.7913 263.634 68.2226 266.753 79.4074Z" fill="#F9F9F9" stroke="#DDDDDD" stroke-linecap="round" stroke-linejoin="round"/>
<path d="M294.945 76.7353C295.929 71.3914 296.234 69.7725 295.206 67.7452C294.177 65.7179 291.269 63.602 289.567 64.6304C287.864 65.6588 286.304 71.5194 286.304 71.5194L288.331 72.6954C288.331 72.6954 289.316 65.2258 291.358 65.9688C293.4 66.7119 294.886 69.2608 293.769 74.334L294.945 76.7353Z" fill="#EDEDED" stroke="#DDDDDD" stroke-width="0.75" stroke-linecap="round" stroke-linejoin="round"/>
<path d="M270.509 101.403C272.452 106.683 276.994 117.715 280.552 118.227C283.004 118.564 285.493 118.522 287.933 118.104C289.089 117.873 289.999 117.518 290.418 117.041C292.36 114.707 293.953 112.103 295.147 109.311C296.332 106.279 299.388 92.8754 298.965 88.2942C298.542 83.7131 295.742 70.437 286.324 65.0242C281.787 62.4113 279.199 70.0335 275.547 78.6841C272.743 85.3418 270.135 92.0733 269.948 97.2302C269.864 98.6443 270.054 100.061 270.509 101.403Z" fill="#F9F9F9" stroke="#DDDDDD" stroke-linecap="round" stroke-linejoin="round"/>
<path d="M270.508 101.403C272.452 106.683 276.994 117.715 280.551 118.227C283.003 118.564 285.493 118.522 287.932 118.104C290.289 113.616 290.934 112.317 290.437 109.296C289.94 106.274 285.846 98.9377 284.247 97.8403C282.77 96.8562 274.873 94.8633 269.977 97.2351C269.884 98.6456 270.064 100.061 270.508 101.403Z" fill="#EDEDED" stroke="#DDDDDD" stroke-width="0.75" stroke-linecap="round" stroke-linejoin="round"/>
<path d="M292.104 74.6733C290.888 79.6777 289.481 85.4054 288.885 86.7045C288.29 88.0035 286.022 93.7214 286.022 93.7214" fill="#F9F9F9"/>
<path d="M292.104 74.6733C290.888 79.6777 289.481 85.4054 288.885 86.7045C288.29 88.0035 286.022 93.7214 286.022 93.7214" stroke="#DDDDDD" stroke-width="0.75" stroke-linecap="round" stroke-linejoin="round"/>
<path d="M287.573 86.109C284.513 84.4261 278.46 83.8454 276.644 83.9193L287.573 86.109Z" fill="#F9F9F9"/>
<path d="M287.573 86.109C284.513 84.4261 278.46 83.8454 276.644 83.9193" stroke="#DDDDDD" stroke-width="0.75" stroke-linecap="round" stroke-linejoin="round"/>
<path d="M300.15 93.072C299.633 93.9675 298.074 92.5504 296.843 90.6116C295.613 88.6729 292.218 81.8232 292.311 80.0321C292.405 78.241 293.635 76.253 293.02 73.6992C292.405 71.1453 286.264 65.2306 284.094 64.6008C284.547 64.3692 285.049 64.2485 285.558 64.2485C286.067 64.2485 286.568 64.3692 287.022 64.6008C288.626 65.3881 296.469 72.7544 298.639 80.4061C300.809 88.0578 300.677 92.1665 300.15 93.072Z" fill="#EDEDED" stroke="#DDDDDD" stroke-width="0.75" stroke-linecap="round" stroke-linejoin="round"/>
<path d="M295.431 82.8074L294.127 81.0605L292.104 87.1179L293.453 88.8402L295.431 82.8074Z" fill="#DDDDDD" stroke="#DDDDDD" stroke-linecap="round" stroke-linejoin="round"/>
<path d="M299.87 91.197L298.856 89.834L297.277 94.5579L298.33 95.9012L299.87 91.197Z" fill="#DDDDDD" stroke="#DDDDDD" stroke-linecap="round" stroke-linejoin="round"/>
<path d="M273.434 95.4238C274.305 94.153 275.112 92.8392 275.85 91.4872C279.605 84.6819 283.286 75.0423 284.275 69.2407C284.623 67.2609 284.841 65.2605 284.929 63.2522C285.116 58.3758 284.201 54.1686 280.879 52.9188C278.877 52.1856 276.047 52.9975 272.957 57.185C270.393 60.659 267.643 66.4605 265.025 75.6229C256.906 103.956 267.721 103.661 273.434 95.4238Z" fill="#28C079"/>
<path d="M272.947 57.1801C276.269 57.559 279.644 59.1976 282.818 61.5448C283.532 62.0762 284.24 62.6372 284.929 63.2326C285.116 58.3561 284.201 54.1489 280.879 52.8991C278.867 52.1807 276.037 52.9926 272.947 57.1801Z" fill="#2BDA88"/>
<path d="M241.505 114.462C240.757 114.841 239.168 113.478 238.208 110.668C238.208 110.668 242.287 108.661 242.376 108.661C242.465 108.661 243.454 113.06 241.505 114.462Z" fill="#145C3B"/>
<path d="M239.496 101.57C235.83 102.997 234.92 103.346 234.083 103.42C233.247 103.494 230.147 103.095 229.404 103.42C228.661 103.745 228.06 104.896 228.06 104.896C228.06 104.896 224.965 104.542 224.203 105.049C223.44 105.556 223.524 107.017 224.139 107.401C224.754 107.785 225.374 108.09 225.192 109.143C225.01 110.196 225.157 110.708 225.516 111.032C225.876 111.357 224.867 111.938 225.625 113.173C226.382 114.408 225.664 115.279 226.791 115.717C227.918 116.155 243.054 112.159 243.777 111.431C244.501 110.703 243.689 99.9607 239.496 101.57Z" fill="#FEBD9D"/>
<path d="M231.86 103.332C230.832 103.278 229.784 103.248 229.4 103.42C228.672 103.75 228.057 104.896 228.057 104.896C228.057 104.896 224.962 104.542 224.199 105.049C223.436 105.556 223.52 107.017 224.135 107.401C224.75 107.785 225.37 108.09 225.188 109.143C225.006 110.196 225.153 110.708 225.513 111.033C225.872 111.357 224.863 111.938 225.621 113.173C226.379 114.408 225.66 115.279 226.787 115.717C227.068 115.825 228.219 115.658 229.799 115.333" stroke="#EF8A66" stroke-width="0.75" stroke-linecap="round" stroke-linejoin="round"/>
<path d="M228.062 104.882C229.227 104.906 230.393 104.852 231.551 104.719" stroke="#EF8A66" stroke-width="0.75" stroke-linecap="round" stroke-linejoin="round"/>
<path d="M272.042 86.4095C268.337 81.6364 263.185 84.2247 254.003 89.9179C248.094 93.6322 242.452 97.756 237.12 102.259C237.12 102.259 242.115 108.415 241.504 114.462C241.504 114.462 266.443 102.559 270.118 98.8884C273.017 95.995 274.862 90.0409 272.042 86.4095Z" fill="#2BDA88"/>
<path d="M268.711 84.0768C265.301 83.2403 260.744 85.7499 254.003 89.9177C248.094 93.6319 242.452 97.7558 237.12 102.259" stroke="#145C3B" stroke-width="0.75" stroke-linecap="round" stroke-linejoin="round"/>
<path d="M254.865 36.9755C258.28 38.1319 262.901 37.1182 265.922 32.1729C267.782 29.2618 268.58 25.7975 268.181 22.3659C267.989 20.5404 266.498 16.3578 261.695 17.7552C257.394 18.9953 255.367 21.6918 254.058 25.2839C253.901 25.7071 253.753 26.145 253.615 26.5977C253.404 27.3014 253.197 28.0247 253.025 28.7481C252.149 32.3599 252.021 35.9914 254.865 36.9755Z" fill="#FEBD9D"/>
<path d="M260.392 28.02C260.726 29.0386 262.311 29.4273 263.92 28.8909C265.529 28.3546 266.562 27.0949 266.223 26.0763C265.883 25.0577 264.303 24.669 262.689 25.2053C261.075 25.7417 260.047 27.0014 260.392 28.02Z" fill="#F4AF90"/>
<path d="M253.025 28.7239C253.277 28.7812 253.538 28.7781 253.788 28.7148C254.037 28.6515 254.269 28.5298 254.462 28.3598C255.126 27.6906 254.954 26.3915 254.059 25.2598C253.901 25.6829 253.754 26.1209 253.616 26.5736C253.404 27.2773 253.198 28.0006 253.025 28.7239Z" fill="#F4AF90"/>
<path d="M256.833 24.3837C256.834 24.5077 256.798 24.6292 256.73 24.7327C256.661 24.8362 256.564 24.9171 256.449 24.965C256.335 25.0129 256.209 25.0257 256.087 25.0018C255.966 24.9778 255.854 24.9182 255.766 24.8305C255.678 24.7428 255.619 24.631 255.595 24.5093C255.571 24.3876 255.584 24.2616 255.632 24.1472C255.68 24.0328 255.76 23.9353 255.864 23.867C255.967 23.7987 256.089 23.7627 256.213 23.7637C256.377 23.7637 256.535 23.829 256.651 23.9453C256.768 24.0616 256.833 24.2193 256.833 24.3837Z" fill="#683F1D"/>
<path d="M260.021 25.0726C260.022 25.1964 259.987 25.3178 259.919 25.4212C259.85 25.5246 259.753 25.6054 259.639 25.6535C259.525 25.7016 259.399 25.7146 259.278 25.6911C259.156 25.6675 259.044 25.6084 258.956 25.5212C258.869 25.434 258.809 25.3227 258.784 25.2013C258.759 25.0799 258.772 24.954 258.819 24.8396C258.866 24.7251 258.946 24.6272 259.049 24.5583C259.152 24.4894 259.273 24.4526 259.397 24.4526C259.561 24.4526 259.72 24.5178 259.837 24.6339C259.954 24.7501 260.02 24.9078 260.021 25.0726Z" fill="#683F1D"/>
<path d="M255.077 19.3154C255.785 20.0436 256.72 19.3154 256.72 19.3154C256.607 20.3831 259.008 21.2836 260.736 21.4657C262.463 21.6478 261.72 20.0485 263.053 19.4531C264.387 18.8577 266.222 20.3044 266.222 20.3044C266.222 20.3044 263.422 22.1989 263.27 24.733C263.164 26.2062 263.604 27.6669 264.505 28.8369L267.566 29.4864C268.667 28.966 269.679 28.2734 270.562 27.4345C272.201 25.855 273.136 23.8768 272.688 21.9381C272.009 18.9857 269.061 18.4936 269.061 18.4936C269.003 17.5867 268.709 16.7108 268.208 15.9523C267.708 15.1937 267.018 14.5789 266.207 14.1683C263.89 12.8938 261.454 13.1842 260.558 13.8829C259.663 14.5816 259.397 14.7539 257.739 15.0835H257.665C257.444 15.104 257.229 15.1692 257.033 15.2752C256.838 15.3812 256.666 15.5257 256.528 15.7C256.39 15.8744 256.289 16.0749 256.23 16.2895C256.172 16.5041 256.158 16.7283 256.189 16.9485C256.189 16.9485 254.368 18.5772 255.077 19.3154Z" fill="#BF8228"/>
<path d="M255.077 19.3155C255.786 20.0438 256.721 19.3155 256.721 19.3155C256.607 20.3833 259.009 21.2838 260.736 21.4658C262.463 21.6479 261.72 20.0487 263.054 19.4533C264.387 18.8579 266.222 20.3046 266.222 20.3046C266.222 20.3046 263.423 22.199 263.27 24.7332C263.164 26.2064 263.604 27.667 264.505 28.837L267.566 29.4866C268.667 28.9662 269.679 28.2735 270.562 27.4346C267.423 26.2242 268.53 23.439 268.752 21.3969C269.062 18.5134 267.433 16.1269 263.831 17.4604C261.754 18.2132 259.402 16.7075 257.719 15.123H257.646C257.424 15.1435 257.209 15.2087 257.014 15.3147C256.818 15.4207 256.646 15.5652 256.508 15.7395C256.37 15.9139 256.269 16.1144 256.211 16.329C256.153 16.5436 256.139 16.7678 256.169 16.988C256.169 16.988 254.368 18.5774 255.077 19.3155Z" fill="#B57724"/>
<path d="M256.721 19.3106C257.075 18.2231 257.267 18.2379 258.468 18.11C259.668 17.982 261.154 17.8098 261.548 17.0176" stroke="#9B621F" stroke-width="0.75" stroke-linecap="round" stroke-linejoin="round"/>
<path d="M256.208 16.9974C257.188 16.5778 258.261 16.4267 259.318 16.5595" stroke="#9B621F" stroke-width="0.75" stroke-linecap="round" stroke-linejoin="round"/>
<path d="M262.174 23.9066C262.331 24.5118 258.793 23.6851 259.364 22.4304C259.935 21.1756 261.888 22.8289 262.174 23.9066Z" fill="#BF8228"/>
<path d="M258.142 22.0019C258.251 22.7744 255.525 22.8531 255.52 22.2134C255.515 21.5738 257.985 20.8553 258.142 22.0019Z" fill="#BF8228"/>
<path d="M258.446 23.6113C257.915 25.3483 256.763 25.6436 256.07 26.1012C255.376 26.5588 255.518 27.9809 255.518 27.9809" stroke="#EF8A66" stroke-width="0.75" stroke-linecap="round" stroke-linejoin="round"/>
<path d="M259.471 28.3647C258.762 29.5359 257.719 30.2149 256.567 29.841" stroke="#EF8A66" stroke-width="0.75" stroke-linecap="round" stroke-linejoin="round"/>
<path d="M264.521 28.8466C265.116 26.4748 268.95 25.2151 269.481 28.5661C269.939 31.4644 267.213 31.7055 265.781 31.6071L264.521 28.8466Z" fill="#FEBD9D"/>
<path d="M268.278 28.4285C266.714 27.6707 265.621 29.0042 265.429 29.7128" stroke="#EF8A66" stroke-width="0.75" stroke-linecap="round" stroke-linejoin="round"/>
<path d="M265.632 29.2602C266.926 27.3559 268.584 30.269 266.365 30.4953" stroke="#EF8A66" stroke-width="0.75" stroke-linecap="round" stroke-linejoin="round"/>
<path d="M266.231 31.6219C265.826 31.6309 265.422 31.5727 265.036 31.4497" stroke="#EF8A66" stroke-width="0.75" stroke-linecap="round" stroke-linejoin="round"/>
<path d="M238.356 52.1257L238.301 73.4129L231.279 73.3922L222.118 73.3715L222.16 57.6717L222.173 52.0844L232.493 52.043L238.356 52.1257Z" fill="url(#paint0_linear_6_9406)"/>
<path d="M222.174 52.0777L225.126 47.6768L235.128 47.7043L232.473 52.1053L222.174 52.0777Z" fill="url(#paint1_linear_6_9406)"/>
<path d="M235.128 47.7046L238.357 52.1262L232.473 52.1055L235.128 47.7046Z" fill="#B1BEE3"/>
<path d="M238.356 52.1262L238.301 73.4133L232.417 73.3995L232.472 52.1055L238.356 52.1262Z" fill="url(#paint2_linear_6_9406)"/>
<path d="M225.126 47.6767L235.128 47.7043V47.4973C235.128 46.6834 234.473 46.0212 233.659 46.0212L226.602 46.0005C225.788 46.0005 225.126 46.6558 225.126 47.4698V47.6767Z" fill="url(#paint3_linear_6_9406)"/>
<path d="M222.16 58.5137L232.452 58.5413L232.445 62.3558L222.146 62.3283L222.16 58.5137Z" fill="url(#paint4_linear_6_9406)"/>
<path d="M238.335 58.5548L238.328 62.3694L232.444 62.3556L232.451 58.541L238.335 58.5548Z" fill="url(#paint5_linear_6_9406)"/>
<path d="M219.326 49.3047H213.394V63.4455H219.326V49.3047Z" fill="url(#paint6_linear_6_9406)"/>
<path d="M218.195 43.4067H216.394C214.07 43.4067 212.193 45.2899 212.193 47.6076V50.6151H215.78C216.601 50.6151 217.263 51.2773 217.263 52.0982C217.263 52.9191 216.601 53.5813 215.78 53.5813H212.193V57.858H215.78C216.601 57.858 217.263 58.5202 217.263 59.3411C217.263 60.1619 216.601 60.8241 215.78 60.8241H212.193V69.0672H222.402V47.6076C222.395 45.2899 220.512 43.4067 218.195 43.4067Z" fill="url(#paint7_linear_6_9406)"/>
<path d="M201.397 52.5123C201.397 52.5123 190.843 48.4011 193.147 45.3039C195.458 42.1998 201.825 51.5742 201.825 51.5742L201.397 52.5123Z" fill="#3BC49A"/>
<path d="M202.343 51.8085C202.343 51.8085 202.888 40.489 199.122 41.3374C195.342 42.1859 201.315 51.8154 201.315 51.8154L202.343 51.8085Z" fill="#3BC49A"/>
<path d="M202.116 52.6087C202.116 52.6087 197.418 37.3849 193.052 40.2062C189.092 42.7722 201.102 52.9122 201.102 52.9122L202.116 52.6087Z" fill="#44D0A7"/>
<path d="M216.436 73.0476C216.181 73.02 215.918 72.9096 215.677 72.7027L214.049 71.3162L214.042 71.3093L210.593 68.3638L209.959 67.8189L205.364 63.9009L204.475 63.1421L201.495 60.6036C201.198 60.3484 200.922 60.0656 200.674 59.769C200.467 59.5206 200.274 59.2585 200.108 58.9826C199.253 57.6099 198.915 55.9682 199.274 54.3678C199.577 53.0227 200.281 51.9536 201.212 51.2224C201.308 51.1465 201.412 51.0706 201.515 51.0016C202.895 50.0704 204.695 49.8152 206.434 50.3946C206.868 50.5395 207.275 50.7395 207.655 50.9809C208.717 51.65 209.552 52.6571 210.062 53.8229L210.49 54.7679L210.938 55.7612L213.18 60.7002L213.587 61.5969L216.229 67.4119L216.47 67.95L217.884 71.0679C218.395 72.1646 217.429 73.1717 216.436 73.0476Z" fill="url(#paint8_linear_6_9406)"/>
<path opacity="0.1" d="M214.049 71.3091L201.494 60.6035C199.687 59.0583 198.749 56.6647 199.266 54.3677C199.57 53.0226 200.274 51.9534 201.205 51.2222C201.301 51.1463 201.405 51.0704 201.508 51.0015C201.681 57.2855 209.827 66.7978 214.049 71.3091Z" fill="black"/>
<path opacity="0.1" d="M207.653 50.9808L203.873 53.402L206.432 50.4014C206.867 50.5462 207.274 50.7394 207.653 50.9808Z" fill="black"/>
<path opacity="0.1" d="M204.226 56.3818L200.673 59.7756C200.466 59.5273 200.273 59.2652 200.107 58.9893L204.226 56.3818Z" fill="black"/>
<path opacity="0.1" d="M210.945 55.7678L207.523 57.8786L210.49 54.7676L210.945 55.7678Z" fill="black"/>
<path opacity="0.1" d="M208.132 61.0864L205.365 63.9008L204.476 63.1489L208.132 61.0864Z" fill="black"/>
<path opacity="0.1" d="M213.593 61.6107L211.241 62.7005L213.186 60.707L213.593 61.6107Z" fill="black"/>
<path opacity="0.1" d="M212.793 65.9907L210.593 68.3636L209.958 67.8256L212.793 65.9907Z" fill="black"/>
<path opacity="0.1" d="M216.485 67.9564L214.954 68.798L216.244 67.4253L216.485 67.9564Z" fill="black"/>
<path d="M198.502 59.3754C198.502 59.3754 190.914 56.4162 192.569 54.195C194.232 51.9601 198.805 58.7063 198.805 58.7063L198.502 59.3754Z" fill="#3BC49A"/>
<path d="M199.185 58.8652C199.185 58.8652 199.579 50.7325 196.875 51.3395C194.157 51.9465 198.454 58.8721 198.454 58.8721L199.185 58.8652Z" fill="#3BC49A"/>
<path d="M199.02 59.4447C199.02 59.4447 195.64 48.4976 192.508 50.5325C189.659 52.3742 198.296 59.6654 198.296 59.6654L199.02 59.4447Z" fill="#44D0A7"/>
<path d="M209.312 74.1305C209.126 74.1098 208.94 74.027 208.767 73.8821L207.595 72.8819C207.595 72.8819 207.595 72.8819 207.588 72.8819L205.104 70.7643L204.649 70.3711L201.345 67.5567L200.71 67.0118L198.572 65.1838C198.358 64.9975 198.158 64.7975 197.979 64.5837C197.827 64.4043 197.689 64.2181 197.572 64.018C196.958 63.0316 196.71 61.8521 196.972 60.7001C197.186 59.7344 197.696 58.9687 198.365 58.4376C198.434 58.3824 198.51 58.3272 198.586 58.2789C199.579 57.6098 200.876 57.4236 202.118 57.8443C202.428 57.9478 202.725 58.0927 202.994 58.2651C203.759 58.748 204.353 59.4723 204.725 60.3069L205.035 60.9898L205.36 61.7072L206.974 65.2597L207.27 65.9081L209.167 70.0883L209.34 70.4745L210.354 72.7164C210.719 73.4959 210.03 74.2201 209.312 74.1305Z" fill="url(#paint9_linear_6_9406)"/>
<path opacity="0.1" d="M207.594 72.8818L198.572 65.1837C197.268 64.0731 196.599 62.3486 196.972 60.7C197.185 59.7343 197.696 58.9686 198.365 58.4375C198.434 58.3823 198.51 58.3271 198.586 58.2788C198.71 62.8039 204.566 69.6398 207.594 72.8818Z" fill="black"/>
<path opacity="0.1" d="M203 58.2719L200.282 60.0101L202.117 57.8511C202.434 57.9545 202.724 58.0994 203 58.2719Z" fill="black"/>
<path opacity="0.1" d="M200.531 62.1558L197.979 64.5907C197.827 64.4114 197.69 64.2252 197.572 64.0251L200.531 62.1558Z" fill="black"/>
<path opacity="0.1" d="M205.358 61.7071L202.902 63.2315L205.034 60.9966L205.358 61.7071Z" fill="black"/>
<path opacity="0.1" d="M203.345 65.5356L201.351 67.5568L200.717 67.0187L203.345 65.5356Z" fill="black"/>
<path opacity="0.1" d="M207.27 65.9081L205.58 66.6945L206.973 65.2666L207.27 65.9081Z" fill="black"/>
<path opacity="0.1" d="M206.689 69.0605L205.11 70.7643L204.654 70.3781L206.689 69.0605Z" fill="black"/>
<path opacity="0.1" d="M209.346 70.4747L208.242 71.0748L209.167 70.0884L209.346 70.4747Z" fill="black"/>
<path d="M239.227 62.3074V105.351H195.355V62.2729L196.011 63.9974L197.804 61.79L199.529 64.0664L201.391 61.79L201.667 62.1418L202.253 62.8937L203.116 63.9974L204.909 61.79L206.703 63.9284L208.427 61.79L210.29 64.0664L212.014 61.79L213.739 63.9974L215.532 61.79L217.257 63.9284L218.981 61.79L220.775 63.9284L222.568 61.79L224.361 63.9284L226.086 61.79L227.81 63.9284L229.673 61.79L231.466 63.9284L233.26 61.79L234.984 63.9974L236.778 61.79L238.502 63.7905L239.227 62.3074Z" fill="url(#paint10_linear_6_9406)"/>
<path d="M202.253 62.8937V105.351H195.355V62.2729L196.011 63.9974L197.804 61.79L199.529 64.0664L201.391 61.79L201.667 62.1418L202.253 62.8937Z" fill="#EECA9D"/>
<path d="M208.426 61.79V105.351H201.666V62.1418L203.115 63.9974L204.908 61.79L206.702 63.9284L208.426 61.79Z" fill="url(#paint11_linear_6_9406)"/>
<path d="M208.427 105.351H195.355V105.323L201.702 96.7974L208.427 105.351Z" fill="#E1AF72"/>
<path d="M230.742 102.35C232.704 102.35 234.294 100.204 234.294 97.5563C234.294 94.9086 232.704 92.7622 230.742 92.7622C228.78 92.7622 227.189 94.9086 227.189 97.5563C227.189 100.204 228.78 102.35 230.742 102.35Z" fill="url(#paint12_linear_6_9406)"/>
<path d="M237.882 102.385C239.844 102.385 241.434 100.239 241.434 97.591C241.434 94.9433 239.844 92.7969 237.882 92.7969C235.92 92.7969 234.329 94.9433 234.329 97.591C234.329 100.239 235.92 102.385 237.882 102.385Z" fill="url(#paint13_linear_6_9406)"/>
<path d="M223.223 102.35C225.185 102.35 226.776 100.204 226.776 97.5563C226.776 94.9086 225.185 92.7622 223.223 92.7622C221.261 92.7622 219.671 94.9086 219.671 97.5563C219.671 100.204 221.261 102.35 223.223 102.35Z" fill="url(#paint14_linear_6_9406)"/>
<path d="M218.049 102.35C220.011 102.35 221.601 100.204 221.601 97.5563C221.601 94.9086 220.011 92.7622 218.049 92.7622C216.087 92.7622 214.496 94.9086 214.496 97.5563C214.496 100.204 216.087 102.35 218.049 102.35Z" fill="url(#paint15_linear_6_9406)"/>
<path d="M233.225 102.35C235.187 102.35 236.778 100.204 236.778 97.5563C236.778 94.9086 235.187 92.7622 233.225 92.7622C231.263 92.7622 229.673 94.9086 229.673 97.5563C229.673 100.204 231.263 102.35 233.225 102.35Z" fill="url(#paint16_linear_6_9406)"/>
<path d="M225.637 102.35C227.599 102.35 229.19 100.204 229.19 97.5563C229.19 94.9086 227.599 92.7622 225.637 92.7622C223.675 92.7622 222.085 94.9086 222.085 97.5563C222.085 100.204 223.675 102.35 225.637 102.35Z" fill="url(#paint17_linear_6_9406)"/>
<path d="M243.227 99.8325V100.798L239.778 105.351H237.019L236.743 104.523H235.639L235.018 105.351H230.121L229.431 104.454H227.361L226.741 105.351H223.085L222.395 104.454H220.256L219.567 105.351H217.428L214.324 101.626V99.8325H243.227Z" fill="#B68649"/>
<path d="M243.227 99.8325V100.798L239.778 105.351H237.018L236.742 104.523H235.639L235.018 105.351H233.135L235.797 99.8325H243.227Z" fill="url(#paint18_linear_6_9406)"/>
<path d="M244.089 98.6255H213.255V100.281H244.089V98.6255Z" fill="url(#paint19_linear_6_9406)"/>
<path d="M244.089 98.6255H234.846V100.281H244.089V98.6255Z" fill="#B68649"/>
<path d="M121.776 206.034C121.776 209.6 120.853 214.993 122.886 214.993H142.111C142.851 214.993 142.65 212.555 140.609 212.002C138.567 211.45 133.334 207.456 132.839 206.034H121.776Z" fill="#683F1D"/>
<path d="M135.585 112.561L135.523 206.511H122.939V107.747L135.585 112.561Z" fill="#C3DCF8"/>
<path d="M126.795 114.478C126.916 117.477 125.979 118.904 125.106 119.14" stroke="#83ADDF" stroke-width="0.75" stroke-linecap="round" stroke-linejoin="round"/>
<path d="M110.943 209.016C110.943 212.729 109.989 218.296 112.097 218.296H132C132.771 218.296 132.562 215.773 130.449 215.176C128.336 214.579 122.911 210.469 122.425 208.998L110.943 209.016Z" fill="#683F1D"/>
<path d="M130.449 215.194C128.336 214.619 122.912 210.487 122.426 209.016" stroke="#91613D" stroke-width="0.75" stroke-linecap="round" stroke-linejoin="round"/>
<path d="M102.167 112.561C102.51 127.886 109.018 209.667 109.018 209.667C109.018 209.667 124.12 209.359 124.12 209.667V111.157L102.167 112.561Z" fill="#C3DCF8"/>
<path d="M124.12 209.667V122.407" stroke="#83ADDF" stroke-width="0.75" stroke-linecap="round" stroke-linejoin="round"/>
<path d="M112.047 58.9333C112.247 58.9468 112.448 58.9468 112.648 58.9333C115.742 58.6569 117.552 55.2826 117.997 52.6928C118.443 49.9381 119.91 49.4701 120.797 48.6321C121.684 47.7941 122.869 46.5282 122.183 44.4287C121.496 42.3292 120.329 38.2417 123.926 38.1615C125.749 38.1169 126.805 36.6103 127.398 35.1349C127.756 34.2103 127.995 33.2443 128.111 32.2598C122.134 29.3179 119.286 30.9983 116.812 33.4722C114.338 35.9461 115.702 38.3041 114.382 41.518C113.045 44.812 107.754 45.1954 107.473 49.9872C107.192 54.7789 108.592 58.7907 112.047 58.9333Z" fill="#604730"/>
<path d="M111.863 56.2234C112.051 57.1423 112.313 58.0442 112.648 58.9202C115.741 58.6439 117.551 55.2696 117.997 52.6798C118.442 49.925 119.909 49.457 120.796 48.619C121.683 47.781 122.869 46.5151 122.182 44.4156C121.496 42.3161 120.328 38.2286 123.925 38.1484C125.748 38.1038 126.805 36.5972 127.397 35.1218C121.393 32.3938 118.295 33.9807 117.792 36.3253C117.248 38.8304 121.277 42.0844 117.792 45.1823C114.306 48.2802 110.053 47.8122 111.863 56.2234Z" fill="#473526"/>
<path d="M129.795 67.3221C134.698 67.5896 137.266 64.3535 137.101 62.2495C137.016 61.2154 136.82 58.6256 136.606 55.6346C136.414 52.9958 136.205 50.0361 136.04 47.531C136.013 47.1209 135.987 46.7197 135.964 46.3364C135.429 37.8271 127.143 35.3175 126.225 45.1908C125.926 48.3913 124.526 53.4059 123.622 57.6717C122.685 62.0356 124.887 67.0547 129.795 67.3221Z" fill="#FEBD9D"/>
<path d="M136.625 55.6345C136.433 52.9957 136.224 50.036 136.059 47.5309L130.598 46.1401C129.297 50.7492 131 55.4741 136.625 55.6345Z" fill="#F4A789"/>
<path d="M100.68 65.9093C100.725 67.5674 100.859 69.2969 101.05 71.0443C101.536 75.5017 102.388 80.1241 102.971 83.9977C103.417 86.9797 103.716 89.5294 103.564 91.2544C103.319 94.0849 103.052 97.9406 102.82 101.551C102.45 107.306 102.165 112.561 102.165 112.561H135.596C135.596 112.561 149.236 92.4357 151.277 83.387C152.333 78.7111 152.556 74.793 152.169 71.5078C151.886 68.7834 150.991 66.158 149.552 63.8276C147.047 59.8961 141.083 57.391 136.625 56.0493C136.777 58.6882 137.374 62.5929 131.843 62.0446C126.311 61.4964 124.051 57.3554 124.559 53.4863C116.83 52.0287 106.542 51.3244 103.382 54.721C102.941 55.2018 102.564 55.7383 102.263 56.3168C101.729 57.3522 101.347 58.4584 101.126 59.6019C100.738 61.6806 100.589 63.7967 100.68 65.9093Z" fill="#FED81D"/>
<path d="M101.131 59.6153C106.034 59.8783 111.138 61.9956 112.787 66.7473C112.91 67.1018 113.011 67.4635 113.09 67.8304C113.251 68.598 113.496 69.3454 113.821 70.0592C116.941 77.0173 126.632 77.414 134.205 72.5509C140.561 68.4723 144.23 66.2792 152.155 71.4989C151.875 68.7786 150.986 66.1565 149.552 63.8276C147.047 59.8961 141.083 57.391 136.625 56.0493C136.777 58.6882 137.374 62.5929 131.843 62.0446C126.311 61.4964 124.051 57.3554 124.559 53.4863C116.83 52.0287 106.542 51.3244 103.382 54.721C102.941 55.2018 102.564 55.7383 102.263 56.3168C101.73 57.3566 101.349 58.4674 101.131 59.6153Z" fill="#FFE05C"/>
<path d="M142.171 67.3354L140.633 75.0513" stroke="#F7AD2B" stroke-width="0.75" stroke-linecap="round" stroke-linejoin="round"/>
<path d="M103.564 91.2541C103.319 94.0846 103.052 97.9403 102.82 101.551C105.017 99.7991 108.401 96.4426 106.889 93.309C104.719 88.807 105.998 86.2528 108.927 84.1177C111.855 81.9826 112.091 80.2932 109.765 73.344C107.438 66.3948 101.05 71.0395 101.05 71.0395C101.536 75.497 102.387 80.1194 102.971 83.9929C103.422 86.9794 103.716 89.5291 103.564 91.2541Z" fill="#FCC71F"/>
<path d="M118.694 81.853H132.904V113.982H118.694V81.853Z" fill="#E1B074" stroke="#55442F" stroke-linecap="round" stroke-linejoin="round"/>
<path d="M132.906 81.853H164.362V113.982H132.906V81.853Z" fill="#F3D3AB" stroke="#87663D" stroke-linecap="round" stroke-linejoin="round"/>
<path d="M137.474 91.5035H168.935L164.361 81.853H132.905L137.474 91.5035Z" fill="#FFE9CE" stroke="#87663D" stroke-linecap="round" stroke-linejoin="round"/>
<path d="M114.112 91.5079H128.335L132.904 81.853H118.68L114.112 91.5079Z" fill="#EECA9D" stroke="#55442F" stroke-linecap="round" stroke-linejoin="round"/>
<path d="M165.253 105.019C166.233 104.617 167.089 105.888 166.099 106.802C165.11 107.715 163.478 107.987 163.184 107.247C162.89 106.507 164.174 105.46 165.253 105.019Z" fill="#FEBD9D" stroke="#EF8A66" stroke-width="0.75" stroke-linecap="round" stroke-linejoin="round"/>
<path d="M165.409 102.857C166.532 102.411 167.517 103.851 166.376 104.885C165.235 105.919 163.376 106.222 163.038 105.406C162.699 104.591 164.174 103.36 165.409 102.857Z" fill="#FEBD9D" stroke="#EF8A66" stroke-width="0.75" stroke-linecap="round" stroke-linejoin="round"/>
<path d="M165.328 100.552C166.456 100.049 167.071 101.765 165.934 102.901C164.797 104.038 162.738 104.573 162.399 103.655C162.06 102.736 164.093 101.109 165.328 100.552Z" fill="#FEBD9D" stroke="#EF8A66" stroke-width="0.75" stroke-linecap="round" stroke-linejoin="round"/>
<path d="M164.362 97.6411V99.0497C164.362 99.0497 162.102 100.694 162.062 101.697C162.022 102.7 163.149 102.865 164.362 102.183C165.574 101.501 166.8 100.173 166.381 98.9873C165.962 97.8016 164.362 97.6411 164.362 97.6411Z" fill="#FEBD9D" stroke="#EF8A66" stroke-width="0.75" stroke-linecap="round" stroke-linejoin="round"/>
<path d="M164.36 99.05C164.6 98.8714 164.894 98.7816 165.193 98.7959" stroke="#EF8A66" stroke-width="0.75" stroke-linecap="round" stroke-linejoin="round"/>
<path d="M76.7833 95.6135C76.7833 100.454 80.1888 104.439 84.5661 104.974C84.8855 105.014 85.207 105.033 85.5289 105.032C90.3608 105.032 94.2744 100.824 94.2744 95.6313C94.2744 90.4384 90.3608 86.2261 85.5289 86.2261C83.716 86.2295 81.9543 86.8277 80.5142 87.9288C79.3419 88.8354 78.3952 90.0007 77.748 91.3338C77.1008 92.6669 76.7706 94.1317 76.7833 95.6135Z" fill="#FED81D"/>
<path d="M76.7839 95.6134C76.7839 100.454 80.1895 104.439 84.5667 104.974C85.1462 98.3235 83.6351 91.9315 80.5148 87.9287C79.3426 88.8353 78.3958 90.0006 77.7486 91.3337C77.1014 92.6668 76.7712 94.1315 76.7839 95.6134Z" fill="#FCC71F"/>
<path d="M99.7901 61.9863C99.789 63.3441 100.094 64.6848 100.682 65.9088C101.464 67.5098 102.682 68.8576 104.196 69.7975C105.71 70.7374 107.458 71.2312 109.24 71.2221C109.99 71.2236 110.738 71.1368 111.469 70.9636C112.292 70.7731 113.087 70.4733 113.831 70.0721C115.297 69.2901 116.524 68.126 117.382 66.7032C118.239 65.2804 118.696 63.652 118.703 61.9907C118.668 59.5135 117.652 57.1513 115.878 55.4217C114.104 53.6922 111.717 52.7364 109.24 52.7638C107.127 52.7576 105.071 53.4537 103.396 54.7429C102.409 55.5025 101.584 56.453 100.971 57.5377C100.603 58.1855 100.318 58.8775 100.124 59.5971C99.9052 60.3746 99.7928 61.1784 99.7901 61.9863Z" fill="#FED81D"/>
<path d="M99.1847 59.6105C99.4967 59.6105 99.8132 59.5882 100.134 59.5882C100.455 59.5882 100.812 59.5882 101.15 59.615C106.054 59.878 111.157 61.9953 112.807 66.7469C112.93 67.1015 113.031 67.4632 113.11 67.8301C113.271 68.5976 113.516 69.3451 113.841 70.0588C115.307 69.2769 116.534 68.1127 117.391 66.69C118.249 65.2672 118.706 63.6388 118.713 61.9775C118.674 59.501 117.656 57.1409 115.88 55.4139C114.105 53.687 111.717 52.7341 109.241 52.7639C107.127 52.7577 105.072 53.4538 103.397 54.743C102.41 55.5026 101.585 56.4531 100.972 57.5378C100.495 58.0281 99.889 58.7369 99.1847 59.6105Z" fill="#FFE05C"/>
<path d="M83.1378 100.147C85.9995 100.329 89.9221 98.5866 94.7762 93.309C97.6558 90.1887 100.464 87.0685 102.978 83.9973C106.651 79.5398 109.704 75.1448 111.447 70.9637C112.033 69.611 112.481 68.2027 112.784 66.7603C113.462 63.7674 113.053 60.631 111.63 57.9122C110.337 55.4829 106.339 53.2007 102.269 56.3298C101.8 56.6913 101.363 57.0925 100.963 57.5289C100.517 58.0281 99.889 58.7368 99.1802 59.6105C95.9798 63.5019 90.6085 70.6918 86.0262 77.4404C81.7203 83.8146 78.1187 89.8143 77.6997 92.3283C77.1202 95.7383 79.0548 99.8882 83.1378 100.147Z" fill="#FED81D"/>
<path d="M99.1858 59.6107C99.4979 59.6107 99.8143 59.5884 100.135 59.5884C100.456 59.5884 100.813 59.5884 101.152 59.6151C106.055 59.8781 111.159 61.9954 112.808 66.7471C113.485 63.7542 113.076 60.6179 111.653 57.899C110.361 55.4697 106.362 53.1875 102.293 56.3166C101.824 56.6781 101.387 57.0793 100.987 57.5157C100.496 58.0283 99.8901 58.737 99.1858 59.6107Z" fill="#FFE05C"/>
<path d="M94.7711 93.327C97.6506 90.2068 100.459 87.0866 102.973 84.0154C106.646 79.5579 109.699 75.1628 111.442 70.9817C112.028 69.629 112.476 68.2208 112.779 66.7783" stroke="#F7AD2B" stroke-width="0.75" stroke-linecap="round" stroke-linejoin="round"/>
<path d="M83.1383 100.147C82.3077 99.3656 81.5838 98.4784 80.9854 97.5078C77.6913 92.3461 89.6195 84.2424 86.0223 77.4492C81.7164 83.8234 78.1148 89.8231 77.6958 92.3372C77.1208 95.7382 79.0553 99.8881 83.1383 100.147Z" fill="#FCC71F"/>
<path d="M124.423 42.5386L125.123 42.445L126.433 42.2756L128.479 42.0081L140.318 40.4614C142.016 38.8121 142.649 38.3708 142.908 37.7423C143.026 37.4104 143.087 37.0606 143.086 36.7082C143.171 35.2016 143.046 30.9848 137.929 29.4559C137.461 29.3167 136.985 29.208 136.503 29.1305C134.257 28.8159 131.968 29.0249 129.816 29.7412C129.816 29.7412 129.206 28.6847 126.21 30.5391C123.215 32.3934 119.809 37.6309 124.423 42.5386Z" fill="#604730"/>
<path d="M125.122 42.4451C125.193 43.1181 125.265 43.5238 125.265 43.5238L126.526 43.1895C126.486 42.8774 126.455 42.5743 126.433 42.298C125.626 32.8927 131.336 29.7056 136.502 29.1574C134.256 28.8427 131.968 29.0518 129.816 29.768C124.592 32.1617 124.832 39.6413 125.122 42.4451Z" fill="white"/>
<path d="M128.48 42.0081L140.319 40.4614C142.018 38.8121 142.651 38.3708 142.909 37.7423C141.781 33.1378 139.062 30.7307 134.801 30.6104C129.626 30.49 128.235 34.7781 127.821 37.9875C127.716 39.3612 127.943 40.7398 128.48 42.0081Z" fill="#473526"/>
<path d="M127.807 44.7717C131.261 49.4833 136.142 51.9037 138.79 50.3659C140.533 49.3406 141.384 46.6795 141.536 43.6172C141.586 42.5768 141.562 41.5341 141.465 40.497C141.411 39.8908 141.331 39.289 141.233 38.6917C140.435 33.891 137.221 30.6104 131.72 31.9164C131.72 31.9164 133.281 35.7454 130.798 38.1836C128.315 40.6218 126.34 40.3321 126.34 40.3321C126.34 40.3321 124.611 40.0468 123.915 41.2236C122.306 43.9783 125.547 46.1402 127.807 44.7717Z" fill="#FEBD9D"/>
<path d="M136.502 39.1062C136.503 39.2133 136.472 39.3181 136.413 39.4075C136.354 39.4969 136.27 39.5667 136.171 39.6081C136.072 39.6495 135.964 39.6605 135.858 39.6398C135.753 39.6192 135.657 39.5677 135.581 39.492C135.506 39.4163 135.454 39.3198 135.433 39.2148C135.413 39.1097 135.424 39.0009 135.465 38.9022C135.507 38.8035 135.576 38.7193 135.666 38.6603C135.755 38.6014 135.86 38.5704 135.967 38.5713C136.109 38.5725 136.244 38.6292 136.344 38.7293C136.444 38.8293 136.501 38.9647 136.502 39.1062Z" fill="#683F1D"/>
<path d="M139.891 39.24C139.891 39.3468 139.861 39.4515 139.802 39.5408C139.743 39.6301 139.659 39.6999 139.561 39.7414C139.462 39.7829 139.354 39.7943 139.249 39.774C139.144 39.7537 139.047 39.7026 138.971 39.6274C138.896 39.5521 138.844 39.456 138.823 39.3513C138.801 39.2466 138.812 39.1379 138.853 39.0391C138.893 38.9403 138.962 38.8558 139.051 38.7963C139.14 38.7368 139.244 38.7051 139.351 38.7051C139.494 38.7051 139.63 38.7613 139.731 38.8615C139.832 38.9617 139.889 39.0977 139.891 39.24Z" fill="#683F1D"/>
<path d="M127.4 41.2192C127.215 40.9247 126.956 40.6839 126.648 40.5204C126.341 40.357 125.996 40.2768 125.649 40.2876" stroke="#EF8A66" stroke-width="0.75" stroke-linecap="round" stroke-linejoin="round"/>
<path d="M127.083 42.9576C126.749 41.7095 125.34 41.0275 124.409 42.026" stroke="#EF8A66" stroke-width="0.75" stroke-linecap="round" stroke-linejoin="round"/>
<path d="M126.866 42.4182C125.439 41.4197 124.508 44.0809 127.004 43.6574" stroke="#EF8A66" stroke-width="0.75" stroke-linecap="round" stroke-linejoin="round"/>
<path d="M137.648 44.6515C137.415 44.7002 137.174 44.7005 136.94 44.6524C136.706 44.6043 136.485 44.5088 136.289 44.3718C136.094 44.2348 135.928 44.0592 135.803 43.8559C135.678 43.6525 135.596 43.4257 135.562 43.1895" stroke="#EF8A66" stroke-width="0.75" stroke-linecap="round" stroke-linejoin="round"/>
<path d="M139.049 42.7794C139.985 42.298 139.994 41.5179 139.112 41.0276C138.229 40.5373 137.476 39.882 137.65 38.1392" stroke="#EF8A66" stroke-width="0.75" stroke-linecap="round" stroke-linejoin="round"/>
<path d="M141.562 36.7751C141.371 37.359 138.072 37.4838 138.232 36.0263C138.353 34.9342 141.803 36.0396 141.562 36.7751Z" fill="#604730"/>
<path d="M136.604 36.271C136.907 37.2517 133.31 38.5488 132.989 37.8133C132.708 37.1625 136.042 34.4346 136.604 36.271Z" fill="#604730"/>
<path d="M135.334 42.2223C134.986 43.1138 133.524 43.4169 132.071 42.8597C130.618 42.3025 129.718 41.1213 130.061 40.2164C130.404 39.3115 131.866 39.0218 133.324 39.5745C134.781 40.1273 135.677 41.3129 135.334 42.2223Z" fill="#F4AF90"/>
<path d="M140.372 42.8818C140.491 43.0908 140.659 43.2672 140.862 43.3955C141.065 43.5238 141.296 43.6 141.536 43.6173C141.586 42.5768 141.562 41.5341 141.465 40.4971C140.502 41.1746 140.025 42.1597 140.372 42.8818Z" fill="#F4AF90"/>
<path d="M112.864 107.025C113.452 107.473 114.134 107.779 114.859 107.921C115.585 108.062 116.333 108.035 117.045 107.841C118.383 107.493 120.843 109.427 123.009 110.435C125.176 111.442 127.021 111.946 125.991 113.533C125.991 113.533 128.858 114.228 129.825 114.732C130.792 115.236 129.825 116.203 128.782 116.203C127.739 116.203 122.198 115.757 120.455 115.672C118.712 115.588 109.757 113.149 109.757 113.149L112.864 107.025Z" fill="#FEBD9D"/>
<path d="M123.009 110.435C125.18 111.442 127.021 111.946 125.991 113.533C125.991 113.533 128.858 114.228 129.825 114.732C130.792 115.235 129.825 116.203 128.782 116.203C128.403 116.203 127.445 116.145 126.286 116.069" stroke="#EF8A66" stroke-width="0.75" stroke-linecap="round" stroke-linejoin="round"/>
<path d="M84.1804 105.099C85.2056 105.509 86.3868 105.991 87.675 106.526C96.2289 110.06 109.24 115.672 109.24 115.672L114.01 106.891C111.335 104.863 106.316 100.749 103.093 97.459C99.8707 94.1694 93.9512 86.4803 85.794 89.6183C83.9199 90.3071 82.2523 91.4623 80.9487 92.9748C77.5655 97.0311 78.3277 102.746 84.1804 105.099Z" fill="#FED81D"/>
<path d="M84.1811 105.099C85.2064 105.509 86.3876 105.99 87.6758 106.525C86.2316 100.325 84.2792 102.665 80.9896 97.5079C80.1337 96.1706 80.3031 94.6328 80.9584 92.9746C77.5662 97.0309 78.3285 102.745 84.1811 105.099Z" fill="#FCC71F"/>
<path d="M114.01 106.891C111.335 104.858 106.312 100.749 103.089 97.4591C99.8662 94.1695 93.9512 86.4759 85.7895 89.6184" stroke="#F7AD2B" stroke-width="0.75" stroke-linecap="round" stroke-linejoin="round"/>
<path d="M110.951 106.521L107.697 113.149" stroke="#F7AD2B" stroke-width="0.75" stroke-linecap="round" stroke-linejoin="round"/>
<path d="M125.991 113.533C123.762 113.034 120.308 112.864 119.247 112.418" stroke="#EF8A66" stroke-width="0.75" stroke-linecap="round" stroke-linejoin="round"/>
<defs>
<linearGradient id="paint0_linear_6_9406" x1="222.489" y1="62.4885" x2="234.341" y2="62.8836" gradientUnits="userSpaceOnUse">
<stop stop-color="#F3F7FF"/>
<stop offset="1" stop-color="#BCCBF9"/>
</linearGradient>
<linearGradient id="paint1_linear_6_9406" x1="224.353" y1="49.8923" x2="237.31" y2="49.891" gradientUnits="userSpaceOnUse">
<stop stop-color="#91A1D2"/>
<stop offset="0.666667" stop-color="#DEE6FF"/>
</linearGradient>
<linearGradient id="paint2_linear_6_9406" x1="232.415" y1="62.7599" x2="238.355" y2="62.7599" gradientUnits="userSpaceOnUse">
<stop stop-color="#B0BFE9"/>
<stop offset="1" stop-color="#EEF2FF"/>
</linearGradient>
<linearGradient id="paint3_linear_6_9406" x1="225.13" y1="46.8353" x2="235.133" y2="46.8617" gradientUnits="userSpaceOnUse">
<stop stop-color="#B8CAFF"/>
<stop offset="1" stop-color="#9BB1F4"/>
</linearGradient>
<linearGradient id="paint4_linear_6_9406" x1="222.147" y1="60.4359" x2="232.455" y2="60.4349" gradientUnits="userSpaceOnUse">
<stop stop-color="#90A5E2"/>
<stop offset="1" stop-color="#C2CBE4"/>
<stop offset="1" stop-color="#C6D1F2"/>
<stop offset="1" stop-color="#F5F8FF"/>
</linearGradient>
<linearGradient id="paint5_linear_6_9406" x1="232.444" y1="60.457" x2="238.338" y2="60.4564" gradientUnits="userSpaceOnUse">
<stop stop-color="#8AA5F6"/>
<stop offset="1" stop-color="#DADBDE"/>
</linearGradient>
<linearGradient id="paint6_linear_6_9406" x1="217.709" y1="56.3751" x2="212.329" y2="56.3751" gradientUnits="userSpaceOnUse">
<stop stop-color="#C48F40"/>
<stop offset="1" stop-color="#DADBDE"/>
</linearGradient>
<linearGradient id="paint7_linear_6_9406" x1="224.159" y1="71.9787" x2="213.19" y2="49.4201" gradientUnits="userSpaceOnUse">
<stop stop-color="#F7CF95"/>
<stop offset="1" stop-color="#D3A35B"/>
</linearGradient>
<linearGradient id="paint8_linear_6_9406" x1="197.311" y1="55.3719" x2="216.648" y2="64.0802" gradientUnits="userSpaceOnUse">
<stop stop-color="#FF7A00"/>
<stop offset="1" stop-color="#FFC28A"/>
</linearGradient>
<linearGradient id="paint9_linear_6_9406" x1="195.567" y1="61.4256" x2="209.466" y2="67.685" gradientUnits="userSpaceOnUse">
<stop stop-color="#FF6B00"/>
<stop offset="1" stop-color="#FF9F47"/>
</linearGradient>
<linearGradient id="paint10_linear_6_9406" x1="195.355" y1="83.5704" x2="239.227" y2="83.5704" gradientUnits="userSpaceOnUse">
<stop stop-color="#D08E3E"/>
<stop offset="1" stop-color="#FFEBD3"/>
</linearGradient>
<linearGradient id="paint11_linear_6_9406" x1="205.185" y1="99.5163" x2="204.806" y2="56.1316" gradientUnits="userSpaceOnUse">
<stop stop-color="#D5A161"/>
</linearGradient>
<linearGradient id="paint12_linear_6_9406" x1="227.189" y1="97.5563" x2="234.294" y2="97.5563" gradientUnits="userSpaceOnUse">
<stop stop-color="#EEC38B"/>
<stop offset="1" stop-color="#FFE9CE"/>
</linearGradient>
<linearGradient id="paint13_linear_6_9406" x1="234.329" y1="97.591" x2="241.434" y2="97.591" gradientUnits="userSpaceOnUse">
<stop stop-color="#E7B473"/>
<stop offset="1" stop-color="#FFE5C2"/>
</linearGradient>
<linearGradient id="paint14_linear_6_9406" x1="219.671" y1="97.5563" x2="226.776" y2="97.5563" gradientUnits="userSpaceOnUse">
<stop stop-color="#EEC38B"/>
<stop offset="1" stop-color="#FFE9CE"/>
</linearGradient>
<linearGradient id="paint15_linear_6_9406" x1="214.496" y1="97.5563" x2="221.601" y2="97.5563" gradientUnits="userSpaceOnUse">
<stop stop-color="white"/>
<stop offset="1" stop-color="#DADBDE"/>
</linearGradient>
<linearGradient id="paint16_linear_6_9406" x1="229.673" y1="97.5563" x2="236.778" y2="97.5563" gradientUnits="userSpaceOnUse">
<stop stop-color="white"/>
<stop offset="1" stop-color="#DADBDE"/>
</linearGradient>
<linearGradient id="paint17_linear_6_9406" x1="222.085" y1="97.5563" x2="229.19" y2="97.5563" gradientUnits="userSpaceOnUse">
<stop stop-color="white"/>
<stop offset="1" stop-color="#DADBDE"/>
</linearGradient>
<linearGradient id="paint18_linear_6_9406" x1="233.133" y1="102.592" x2="243.227" y2="102.592" gradientUnits="userSpaceOnUse">
<stop stop-color="#B68649"/>
<stop offset="1" stop-color="#E9B879"/>
</linearGradient>
<linearGradient id="paint19_linear_6_9406" x1="212.735" y1="99.5029" x2="234.878" y2="99.4339" gradientUnits="userSpaceOnUse">
<stop stop-color="#B68649"/>
<stop offset="1" stop-color="#E9B777"/>
</linearGradient>
</defs>
</svg>
