<svg width="119" height="227" viewBox="0 0 119 227" fill="none" xmlns="http://www.w3.org/2000/svg">
<path d="M54.2803 208.3V224.076H79.8301C79.8301 224.076 81.3573 222.608 76.7114 220.325C72.3281 218.182 69.6809 216.108 67.4839 211.092L54.2803 208.3Z" fill="#683F1D"/>
<path d="M53.7812 212.609H69.8892L70.7252 88.1338L55.078 89.318L53.7812 212.609Z" fill="#A7CAF0"/>
<path d="M57.7471 104.997C59.8905 104.654 60.7318 103.872 60.7318 103.872" stroke="#83ADDF" stroke-width="0.71" stroke-linecap="round" stroke-linejoin="round"/>
<path d="M66.0676 92.646C65.939 96.6971 67.3644 101.627 69.1381 102.924" stroke="#83ADDF" stroke-width="0.71" stroke-linecap="round" stroke-linejoin="round"/>
<path d="M40.8818 214.881V225.984H66.4317C66.4317 225.984 67.9589 224.516 63.313 222.233C58.9296 220.089 56.2878 218.016 54.0854 213.005L40.8818 214.881Z" fill="#683F1D"/>
<path d="M66.4361 226C66.4361 226 67.9633 224.532 63.3174 222.249C58.934 220.106 56.2922 218.032 54.0898 213.021" stroke="#91613D" stroke-width="0.71" stroke-linecap="round" stroke-linejoin="round"/>
<path d="M32.7365 74.7749C30.5019 104.997 31.6648 125.323 33.6528 151.119C35.6409 176.915 38.8614 214.886 38.8614 214.886H55.682L56.9199 85.6797L32.7365 74.7749Z" fill="#A7CAF0"/>
<path d="M55.6816 214.897L56.6944 106.477" stroke="#83ADDF" stroke-width="0.71" stroke-linecap="round" stroke-linejoin="round"/>
<path d="M118.045 59.969C118.045 64.8507 116.217 69.1965 113.366 72.0151C111.573 73.8545 109.195 75.0137 106.641 75.2946C106.47 75.2946 106.293 75.3214 106.106 75.3268H105.693C100.517 75.3268 96.0796 71.3668 94.247 65.7456C93.6374 63.8772 93.3299 61.9236 93.336 59.9583C93.336 55.2266 95.0508 51.0041 97.7462 48.1694C98.7557 47.0599 99.9814 46.1686 101.348 45.5503C102.715 44.932 104.193 44.5996 105.693 44.5737C112.493 44.6005 118.045 51.481 118.045 59.969Z" fill="#FED81D"/>
<path d="M113.339 72.0152C111.545 73.8546 109.168 75.0138 106.614 75.2946C106.443 75.2946 106.266 75.3214 106.078 75.3268H105.666C100.489 75.3268 96.0524 71.3668 94.2197 65.7456C99.932 69.0947 102.167 75.927 112.198 72.4278C112.568 72.342 112.948 72.1759 113.339 72.0152Z" fill="#FCC71F"/>
<path d="M112.198 72.4384C111.507 73.2644 110.656 73.9429 109.697 74.4335C108.737 74.9242 107.689 75.217 106.615 75.2945V75.2945C106.443 75.2945 106.266 75.3213 106.079 75.3267H105.666C104.143 75.3262 102.629 75.0949 101.176 74.6408C92.1089 71.9615 81.9329 65.349 75.3526 61.2443L75.2615 61.1853C73.7128 60.2154 72.3732 59.3956 71.2961 58.7954L70.7602 58.5114C68.3328 57.2253 66.3715 54.3424 65.1766 51.0093C64.9461 50.3556 64.7425 49.6858 64.571 49.0052C62.4276 40.6404 65.0265 30.786 76.4457 34.7031C78.5891 35.4372 81.4238 36.9484 84.5854 38.9203C89.1126 41.7928 93.4892 44.896 97.6979 48.2175C105.152 54.0316 111.711 60.0064 113.152 62.6161C113.945 64.1742 114.276 65.9263 114.107 67.6663C113.939 69.4064 113.276 71.062 112.198 72.4384V72.4384Z" fill="#FED81D"/>
<path d="M113.339 72.0147C111.545 73.8541 109.168 75.0133 106.614 75.2942C106.442 75.2942 106.266 75.321 106.078 75.3264H105.665C104.143 75.3259 102.629 75.0946 101.175 74.6405C92.1082 71.9611 81.9322 65.3486 75.3518 61.2439C75.3518 61.2439 75.325 61.2118 75.2607 61.185C73.7121 60.2151 72.3724 59.3952 71.2954 58.7951L70.7595 58.5111C68.332 57.225 66.3708 54.3421 65.1758 51.009C64.9454 50.3553 64.7418 49.6854 64.5703 49.0049C68.3213 48.4047 72.6511 48.7637 77.4845 50.8482C79.3333 51.652 82.7842 53.1203 80.839 55.7299C78.3902 59.0148 80.4211 64.0733 87.7677 64.0733C90.0272 64.0384 92.2524 64.6281 94.198 65.7773C99.9103 69.1264 102.145 75.9587 112.176 72.4595C112.567 72.3416 112.948 72.1755 113.339 72.0147Z" fill="#FCC71F"/>
<path d="M84.6059 38.8989C82.8227 38.7622 81.029 38.8813 79.2795 39.2525C76.2251 39.9009 72.5705 41.4817 70.3145 45.2863C68.98 47.4916 67.2421 49.4258 65.1917 50.9879C62.0998 42.3123 64.12 30.4537 76.4448 34.6816C78.6097 35.4158 81.4444 36.9269 84.6059 38.8989Z" fill="#FFE05C"/>
<path d="M80.8539 33.4979C79.8893 33.2622 81.2343 29.8487 83.8011 26.6336C86.2178 23.606 87.745 21.9555 88.4791 22.9683C88.9293 23.5792 88.2648 33.2247 80.8539 33.4979Z" fill="#F7AD2B"/>
<path d="M84.9117 33.7977C81.8359 29.5108 79.8103 25.9956 78.3689 24.8381C76.9274 23.6807 75.5984 23.1073 75.443 21.7569C75.4026 20.7844 75.6313 19.8195 76.1041 18.9685C76.5768 18.1176 77.2752 17.4137 78.1224 16.9342C80.2658 15.7071 89.6541 27.2388 89.6541 27.2388C89.6541 27.2388 89.9649 32.9886 84.9117 33.7977Z" fill="#FEBD9D"/>
<path d="M69.8161 10.5254C71.6434 8.70879 73.5671 9.00352 77.6718 12.8081C81.7765 16.6127 86.3153 18.5901 87.2745 21.6659C88.3194 24.9882 85.5383 27.6247 81.8301 27.1799C80.528 27.0245 78.4863 26.7941 80.528 22.1267L75.0408 17.513C75.0408 17.513 73.5136 19.8065 71.1665 19.1581C68.7444 18.4882 65.5667 14.764 69.8161 10.5254Z" fill="#28C079" stroke="#473526" stroke-width="0.95" stroke-linecap="round" stroke-linejoin="round"/>
<path d="M81.4594 18.1347C82.3436 18.5902 84.7871 15.0643 83.6029 14.3837C82.0596 13.4513 80.5753 17.6846 81.4594 18.1347Z" fill="#FEBD9D" stroke="#934735" stroke-width="0.71" stroke-linecap="round" stroke-linejoin="round"/>
<path d="M80.5342 22.1268C81.1578 21.0368 82.1409 20.1976 83.3153 19.7529" stroke="#473526" stroke-width="0.95" stroke-linecap="round" stroke-linejoin="round"/>
<path d="M75.0566 17.5133C75.3862 17.0363 75.6143 16.4968 75.7267 15.928C75.8392 15.3593 75.8336 14.7735 75.7104 14.207" stroke="#473526" stroke-width="0.95" stroke-linecap="round" stroke-linejoin="round"/>
<path d="M75.0774 22.373C75.8008 24.0127 77.8853 21.6228 78.7427 19.324C79.5625 17.1323 79.3643 16.6447 78.1157 16.8644C76.8672 17.0841 74.1021 20.1921 75.0774 22.373Z" fill="#FEBD9D" stroke="#934735" stroke-width="0.71" stroke-linecap="round" stroke-linejoin="round"/>
<path d="M76.9118 15.1287C77.9032 15.6324 80.6628 11.7421 79.3446 10.9812C77.5816 9.95769 75.9098 14.625 76.9118 15.1287Z" fill="#FEBD9D" stroke="#934735" stroke-width="0.71" stroke-linecap="round" stroke-linejoin="round"/>
<path d="M78.4755 15.9593C79.4722 16.463 82.2266 12.5673 80.9137 11.8064C79.1507 10.7883 77.4788 15.4556 78.4755 15.9593Z" fill="#FEBD9D" stroke="#934735" stroke-width="0.71" stroke-linecap="round" stroke-linejoin="round"/>
<path d="M79.9969 17.1487C80.9454 17.631 83.5819 13.9014 82.3279 13.1726C80.6507 12.1652 79.0485 16.6396 79.9969 17.1487Z" fill="#FEBD9D" stroke="#934735" stroke-width="0.71" stroke-linecap="round" stroke-linejoin="round"/>
<path d="M80.8545 33.4979C84.7502 38.9905 95.4781 54.9323 99.5346 60.2909C104.791 67.2571 117.379 68.3771 117.384 55.077C117.384 48.4859 88.4798 22.9629 88.4798 22.9629C88.4798 22.9629 87.0115 30.7704 80.8545 33.4979Z" fill="#FED81D"/>
<path d="M84.5635 35.1106C89.3594 33.503 90.9938 28.0854 90.9938 28.0854" stroke="#F7AD2B" stroke-width="0.71" stroke-linecap="round" stroke-linejoin="round"/>
<path d="M86.7919 25.3154C93.9456 35.2021 96.4963 41.9539 94.7923 44.6064C93.0883 47.2589 89.2569 45.8175 89.6427 43.599C90.1785 40.8286 94.7816 40.1213 92.8578 47.5697C90.9341 55.0182 85.7202 55.6612 84.8199 53.5874C83.5392 50.7259 88.871 47.693 89.423 55.195C89.9749 62.6971 81.6048 64.594 79.2416 62.6971C76.8785 60.8001 83.5017 55.897 83.3999 64.1492C83.2981 72.4015 73.5508 72.648 69.1514 71.5441" stroke="#473526" stroke-width="1.91" stroke-linecap="round" stroke-linejoin="round"/>
<path d="M80.8545 33.498C84.7502 38.9906 95.4781 54.9325 99.5346 60.2911C100.738 61.8663 102.282 63.1487 104.052 64.0421" stroke="#F7AD2B" stroke-width="0.71" stroke-linecap="round" stroke-linejoin="round"/>
<path d="M22.2806 78.6388C22.3036 80.58 21.8704 82.4996 21.016 84.2428C20.1616 85.9861 18.9098 87.5044 17.3614 88.6754C15.5581 90.0027 13.3791 90.7215 11.1401 90.7278H11.1079C9.70449 90.7219 8.31697 90.4302 7.03001 89.8704C2.91461 88.1021 0.00488281 83.7402 0.00488281 78.6173V78.328C0.0264491 76.622 0.398635 74.9386 1.09831 73.3826C1.79799 71.8265 2.81021 70.431 4.07206 69.2827C5.37704 68.1106 6.94766 67.2738 8.64831 66.8445C9.46282 66.6381 10.2998 66.5337 11.1401 66.5337C15.5556 66.5337 19.3762 69.3255 21.1767 73.3713C21.5746 74.259 21.866 75.1908 22.0448 76.147C22.2066 76.9676 22.2856 77.8024 22.2806 78.6388V78.6388Z" fill="#FED81D"/>
<path d="M11.1079 90.7274C9.70449 90.7215 8.31697 90.4298 7.03001 89.87C2.91461 88.1017 0.00488281 83.7398 0.00488281 78.6169V78.3276C0.0264491 76.6216 0.398635 74.9382 1.09831 73.3822C1.79799 71.8261 2.81021 70.4305 4.07206 69.2822C3.17718 81.0658 4.44181 87.1371 11.1079 90.7274Z" fill="#FCC71F"/>
<path d="M44.5684 43.4862C44.263 44.4561 43.9039 45.4528 43.4967 46.4656C43.0894 47.4784 42.7197 48.3358 42.2749 49.2842C42.1302 49.5843 41.9856 49.879 41.8355 50.1791C41.3747 51.1187 40.8745 52.06 40.3351 53.0031C40.1529 53.3246 39.9761 53.6408 39.7992 53.9516C36.6243 59.1878 33.0218 64.1525 29.0284 68.7949C28.1121 69.8666 27.1744 70.9383 26.2152 71.9618L25.54 72.6799C24.8273 73.4301 24.1092 74.1696 23.3966 74.8823C22.9518 75.3163 22.507 75.7504 22.0623 76.163C16.6447 81.259 11.061 84.9672 6.5223 85.069C6.09956 85.081 5.67654 85.0577 5.25767 84.9993C4.01695 84.8624 2.85544 84.3222 1.95141 83.4614C0.740368 82.2825 0.0973365 80.5088 0.0223161 78.3439C-0.100932 74.3036 1.76922 68.9074 5.65421 63.522C5.86856 63.2273 6.08826 62.9165 6.31868 62.5896C10.1233 57.1346 15.7391 47.8856 21.9658 40.3621C27.6727 33.4603 33.9155 28.0052 39.7671 28.2731C40.2357 28.2924 40.7018 28.3516 41.1603 28.45C46.2403 29.511 46.9798 35.7537 44.5684 43.4862Z" fill="#FED81D"/>
<path d="M6.27528 78.2048C5.44718 79.1711 5.01145 80.4127 5.05411 81.6845C5.09677 82.9564 5.61472 84.166 6.5057 85.0746C6.08295 85.0866 5.65994 85.0633 5.24107 85.0049C4.00035 84.868 2.83884 84.3277 1.93481 83.467C0.723767 82.2881 0.080735 80.5144 0.00571449 78.3495C-0.117533 74.3091 1.75262 68.913 5.63761 63.5276C5.85195 63.2329 6.07166 62.9221 6.30208 62.5952C7.48377 63.7662 8.29926 65.2557 8.64914 66.8821C8.95573 68.1765 9.06592 69.5096 8.97602 70.8368C8.81526 73.5857 7.86679 76.34 6.27528 78.2048Z" fill="#FCC71F"/>
<path d="M43.5078 46.4658C42.4672 49.0585 41.2274 51.5666 39.7996 53.9679C36.6247 59.2041 33.0222 64.1688 29.0288 68.8112C27.2176 70.9546 25.3153 72.9963 23.3809 74.9039" stroke="#F7AD2B" stroke-width="0.71" stroke-linecap="round" stroke-linejoin="round"/>
<path d="M44.5684 43.4862C41.8409 40.1424 38.8187 38.3259 33.8512 38.2991C30.77 38.2991 26.944 38.9582 21.9766 40.3675C27.6728 33.4603 33.9155 28.0052 39.7671 28.2731C40.2357 28.2924 40.7018 28.3516 41.1604 28.45C46.2403 29.511 46.9798 35.7537 44.5684 43.4862Z" fill="#FFE05C"/>
<path d="M79.2794 39.2524C79.065 43.9894 77.0448 52.9757 75.6302 59.8401C75.5391 60.2956 75.4426 60.7672 75.3515 61.2441C73.5939 70.2894 71.8255 83.836 71.8148 85.8937C71.8148 92.7259 67.0778 91.4934 53.8474 91.1237C47.3314 90.9415 40.1348 90.7003 34.7601 89.6286C33.245 89.351 31.7607 88.9257 30.3285 88.3586C27.7617 87.2869 26.2774 85.7758 26.5346 83.6055C26.5716 83.3394 26.6271 83.0762 26.7007 82.8178C27.9879 78.2464 28.7678 73.5472 29.0264 68.8051C29.2139 66.2276 29.3157 63.6287 29.439 60.944C29.5354 58.6612 29.648 56.3195 29.8409 53.8921C30.2106 49.0211 31.9039 43.1749 33.8223 38.3092C36.0247 32.7095 38.5325 28.3851 39.7168 28.2887H39.7918C41.9888 28.1225 47.5618 28.8674 55.7283 29.0281C59.1858 29.1067 62.6092 29.7306 65.8721 30.8769C67.3029 31.3806 73.058 33.0578 76.4875 34.6975C77.3983 35.0613 78.2246 35.6085 78.915 36.3051C79.2419 36.7392 79.349 37.7948 79.2794 39.2524Z" fill="#FED81D"/>
<path d="M34.7601 89.6181C33.245 89.3405 31.7607 88.9151 30.3285 88.3481C27.7617 87.2763 26.2774 85.7652 26.5346 83.595C26.5716 83.3289 26.6271 83.0656 26.7007 82.8073C27.9879 78.2359 28.7678 73.5366 29.0264 68.7945C29.2139 66.217 29.3157 63.6181 29.439 60.9334L40.7456 50.1787C43.8483 55.3658 37.8895 65.4025 33.9188 67.98C29.948 70.5575 30.2213 75.6428 38.5915 77.4219C44.9414 78.7722 38.3289 86.135 34.7601 89.6181Z" fill="#FCC71F"/>
<path d="M84.6064 38.8987C82.8232 38.762 81.0295 38.8811 79.28 39.2523C76.2256 39.9007 72.571 41.4815 70.315 45.2861C68.9805 47.4914 67.2426 49.4256 65.1922 50.9877C59.8336 55.0602 52.6584 56.2927 48.0446 48.662C46.9991 46.8567 45.828 45.1269 44.5401 43.4856C41.8126 40.1419 38.7903 38.3253 33.8229 38.2985C30.7417 38.2985 26.9157 38.9576 21.9482 40.3669C27.6712 33.4597 33.914 28.0046 39.7656 28.2725C41.9626 28.1064 47.5356 28.8513 55.7021 29.012C59.1596 29.0906 62.583 29.7145 65.8459 30.8607C67.2767 31.3645 73.0318 33.0417 76.4613 34.6814C78.6101 35.4156 81.4448 36.9267 84.6064 38.8987Z" fill="#FFE05C"/>
<path d="M62.3574 37.3128C62.3574 37.3128 63.8793 42.2427 64.5009 42.6714L67.0676 43.0733C67.9049 41.5754 68.6078 40.0064 69.1682 38.3845L66.43 34.4995L62.3574 37.3128Z" fill="#683F1D"/>
<path d="M64.457 42.6821L58.5625 65.1508C58.5625 65.1508 59.243 68.1516 62.6082 72.7171C62.6082 72.7171 66.011 68.2748 66.729 66.3511L67.013 43.084L64.457 42.6821Z" fill="#683F1D"/>
<path d="M58.0662 27.2329C56.6729 27.2758 53.7793 28.5565 53.7793 29.7247C53.7793 30.8928 56.3836 40.1471 60.574 42.4514C60.574 42.4514 62.1816 37.6286 66.4256 36.9373L58.0662 27.2329Z" fill="white"/>
<path d="M66.4092 36.9376C68.0576 38.9654 69.4256 41.2057 70.4764 43.5984C70.4764 43.5984 74.6132 38.1862 74.0452 33.8136C73.9541 33.0848 70.2942 31.3379 70.2942 31.3379L66.4092 36.9376Z" fill="white"/>
<path d="M75.3516 61.2442C75.4427 60.7673 75.5391 60.2958 75.6302 59.8403C76.2089 57.0431 76.8841 53.8976 77.5004 50.8271C77.5432 50.6074 77.5807 50.3931 77.6236 50.1787" stroke="#F7AD2B" stroke-width="0.71" stroke-linecap="round" stroke-linejoin="round"/>
<path d="M71.4255 32.3666C71.4255 32.3666 69.7429 37.3233 66.3241 37.3125C60.7458 37.3125 57.2627 28.353 57.2627 28.353C58.9774 21.3868 58.806 18.1716 58.806 18.1716C58.6184 13.5739 69.1695 7.50798 70.6271 21.1563L70.7557 22.9676L71.2058 29.2961L71.4255 32.3666Z" fill="#FEBD9D"/>
<path d="M71.1838 29.2963C67.5935 29.1784 64.3141 27.3082 64.1426 22.9678H70.7337L71.1838 29.2963Z" fill="#DA9F82"/>
<path d="M70.3004 4.87178C70.1236 6.10962 68.5321 6.92949 68.5321 6.92949L64.8722 12.3845C64.8722 12.3845 61.5552 16.1838 58.0131 15.798C57.4922 15.7384 56.985 15.5917 56.5127 15.3639C54.7658 14.5173 55.784 12.8668 55.441 12.3363C55.0981 11.8058 54.2246 11.7308 54.0103 10.7287C53.7959 9.72668 55.3874 9.81242 54.7122 8.74606C54.0371 7.67969 53.6405 6.80624 54.7605 6.02924C55.8804 5.25225 54.8033 4.95752 55.516 3.71968C56.0519 2.76049 56.9897 3.92331 57.3272 2.64796C57.6648 1.37261 58.6883 1.83346 59.4225 1.71557C60.3549 1.56552 59.5618 0.761734 60.8318 0.456294C61.4534 0.306253 61.4319 1.03502 62.1607 0.54739C62.4715 0.313148 62.8402 0.16794 63.2272 0.127347C63.6143 0.0867533 64.0051 0.152305 64.3577 0.31697C65.2901 0.93321 65.2473 -0.309987 66.4154 0.0758329C67.2407 0.349122 66.7155 0.976079 67.8515 1.14755C68.9876 1.31903 68.9608 1.99421 69.0519 2.70691L69.1001 3.00163C69.2501 3.83757 70.4719 3.63395 70.3004 4.87178Z" fill="#604730"/>
<path d="M71.0821 4.28759C70.8999 5.61116 69.2334 6.48997 69.2334 6.48997L65.3966 12.3255C65.3966 12.3255 61.9189 16.3927 58.2054 15.9801C58.2763 15.6737 58.2558 15.3532 58.1464 15.0584C57.766 14.485 56.8711 14.41 56.646 13.3436C56.421 12.2773 58.0928 12.3576 57.3855 11.2002C56.6782 10.0427 56.2656 9.12641 57.4337 8.29582C58.6019 7.46524 57.4766 7.14908 58.2268 5.82551C58.8055 4.79666 59.7701 6.03985 60.1291 4.69484C60.4881 3.34983 61.5545 3.82675 62.3208 3.7035C63.2961 3.53738 62.4655 2.68001 63.8051 2.35313C64.4482 2.18701 64.4321 2.96937 65.193 2.44959C65.9539 1.9298 66.9238 1.81191 67.4972 2.20309C68.4725 2.8622 68.4296 1.53326 69.6406 1.94588C69.6794 1.95418 69.7172 1.96676 69.7532 1.98339C69.7532 2.09056 69.7532 2.19237 69.8014 2.29954C69.989 3.16764 71.2697 2.95329 71.0821 4.28759Z" fill="#473526"/>
<path d="M73.5379 22.4639C72.5519 25.2451 66.6039 28.4013 59.3805 19.3184C58.7316 19.5153 58.033 19.4669 57.4175 19.1823C56.802 18.8978 56.3125 18.397 56.0421 17.7752C54.9703 15.7228 56.5029 12.7166 60.061 14.1635C60.7094 14.426 61.0684 12.7863 60.2861 11.6396C59.5037 10.4928 58.1426 7.70634 61.3149 5.67543C64.4872 3.64452 68.6991 3.8535 70.3174 6.38812C71.3332 8.07044 72.1411 9.86979 72.7234 11.7467C72.9967 12.588 73.2593 13.4561 73.4361 14.3349C74.1059 17.3036 74.2881 20.3205 73.5379 22.4639Z" fill="#FEBD9D"/>
<path d="M66.8022 15.0479C66.6361 15.7231 65.3125 15.9803 63.8389 15.6159C62.3653 15.2515 61.315 14.4156 61.4811 13.7404C61.6473 13.0652 62.9762 12.808 64.4445 13.167C65.9127 13.5261 66.9684 14.3727 66.8022 15.0479Z" fill="#FEBD9D"/>
<path d="M73.435 14.3455C72.7277 14.7367 72.0847 14.8224 71.7578 14.5009C71.2862 14.0294 71.7096 12.8076 72.7223 11.7573C72.9956 12.5986 73.2368 13.4667 73.435 14.3455Z" fill="#FEBD9D"/>
<path d="M62.7132 10.3646C62.8311 10.9487 66.6464 9.82874 66.2767 8.60698C65.7783 6.96724 62.5096 9.31431 62.7132 10.3646Z" fill="#604730"/>
<path d="M68.2749 8.57444C68.3552 9.33 71.415 9.34072 71.4043 8.85308C71.3936 8.36545 68.0927 6.87576 68.2749 8.57444Z" fill="#604730"/>
<path d="M65.6104 12.1219C65.6104 12.2587 65.6509 12.3923 65.7269 12.506C65.8028 12.6197 65.9108 12.7083 66.0371 12.7606C66.1634 12.8129 66.3024 12.8266 66.4365 12.7999C66.5706 12.7732 66.6938 12.7074 66.7904 12.6107C66.8871 12.5141 66.9529 12.3909 66.9796 12.2568C67.0063 12.1227 66.9926 11.9837 66.9403 11.8574C66.888 11.7311 66.7994 11.6231 66.6857 11.5472C66.572 11.4712 66.4384 11.4307 66.3016 11.4307C66.2107 11.43 66.1204 11.4474 66.0363 11.4819C65.9521 11.5163 65.8756 11.5672 65.8112 11.6316C65.7469 11.6959 65.696 11.7724 65.6615 11.8566C65.6271 11.9408 65.6097 12.031 65.6104 12.1219Z" fill="#683F1D"/>
<path d="M69.5931 11.431C69.5973 11.5667 69.6414 11.6982 69.7199 11.809C69.7983 11.9198 69.9077 12.0051 70.0343 12.0541C70.161 12.1032 70.2992 12.1138 70.4319 12.0848C70.5645 12.0557 70.6857 11.9883 70.7802 11.8908C70.8748 11.7933 70.9385 11.6702 70.9635 11.5367C70.9885 11.4032 70.9736 11.2653 70.9207 11.1403C70.8678 11.0152 70.7793 10.9085 70.6661 10.8334C70.5529 10.7584 70.4202 10.7183 70.2844 10.7183C70.1918 10.7182 70.1001 10.7368 70.0148 10.7729C69.9295 10.8089 69.8523 10.8618 69.7878 10.9282C69.7234 10.9947 69.6729 11.0735 69.6394 11.1598C69.606 11.2462 69.5902 11.3384 69.5931 11.431V11.431Z" fill="#683F1D"/>
<path d="M57.2412 16.2372C57.7771 14.9136 59.7276 15.1655 60.3385 16.623" stroke="#934735" stroke-width="0.71" stroke-linecap="round" stroke-linejoin="round"/>
<path d="M59.9305 15.9961C58.9981 15.4281 57.4013 17.5608 59.9305 18.1717" stroke="#934735" stroke-width="0.71" stroke-linecap="round" stroke-linejoin="round"/>
<path d="M59.3799 19.3189C59.9936 19.1522 60.5701 18.8703 61.0786 18.4883" stroke="#934735" stroke-width="0.71" stroke-linecap="round" stroke-linejoin="round"/>
<path d="M68.082 10.252C68.082 12.808 69.2502 13.0867 70.4291 13.5529C71.4097 13.9387 71.0989 15.0211 70.8685 15.3694" stroke="#934735" stroke-width="0.71" stroke-linecap="round" stroke-linejoin="round"/>
<path d="M66.8008 17.0359C68.7995 17.0359 70.316 16.9233 70.316 16.9233C70.316 16.9233 69.4265 19.4472 68.2905 19.3186C67.1544 19.19 66.8008 17.0359 66.8008 17.0359Z" fill="white" stroke="#934735" stroke-width="0.71" stroke-linecap="round" stroke-linejoin="round"/>
<path d="M66.3541 82.5119L42.166 67.374L20.194 102.482L44.3821 117.62L66.3541 82.5119Z" fill="#EDEDED"/>
<path d="M62.6365 84.1177L42.3457 71.4189L23.9101 100.876L44.2009 113.575L62.6365 84.1177Z" fill="#F9F9F9"/>
<path d="M57.8362 75.5945C58.0756 75.3922 58.2817 75.1535 58.4471 74.8872C58.6459 74.5607 58.7784 74.1982 58.8372 73.8204C58.8959 73.4427 58.8796 73.0571 58.7893 72.6857C58.699 72.3142 58.5364 71.9642 58.3108 71.6556C58.0852 71.3469 57.801 71.0858 57.4745 70.887C57.148 70.6882 56.7855 70.5556 56.4078 70.4969C56.0301 70.4382 55.6444 70.4545 55.273 70.5448C54.9015 70.6351 54.5515 70.7977 54.2429 71.0233C53.9343 71.2489 53.6731 71.5331 53.4743 71.8596C53.3138 72.1271 53.1962 72.4183 53.126 72.7223L49.4554 70.4878L46.6475 75.0908L58.7043 82.4375L61.5069 77.8291L57.8362 75.5945Z" fill="#DDDDDD" stroke="#EDEDED" stroke-width="0.95" stroke-linecap="round" stroke-linejoin="round"/>
<path d="M56.2948 74.7336C57.048 74.5493 57.5091 73.7893 57.3248 73.0362C57.1405 72.283 56.3806 71.8218 55.6274 72.0061C54.8742 72.1904 54.4131 72.9504 54.5974 73.7036C54.7817 74.4567 55.5416 74.9179 56.2948 74.7336Z" fill="#F9F9F9"/>
<path d="M43.5059 77.0303L57.3364 85.6898" stroke="#DDDDDD" stroke-width="0.95" stroke-linecap="round" stroke-linejoin="round"/>
<path d="M42.123 79.4741L55.959 88.1336" stroke="#DDDDDD" stroke-width="0.95" stroke-linecap="round" stroke-linejoin="round"/>
<path d="M40.7471 81.9175L51.5286 88.664" stroke="#DDDDDD" stroke-width="0.95" stroke-linecap="round" stroke-linejoin="round"/>
<path d="M43.8711 92.6455C50.3389 95.8607 52.4448 96.9753 52.9057 97.3664C54.2293 98.54 54.0792 100.716 54.0792 100.716C54.0792 100.716 56.9193 102.168 57.2086 102.988C57.498 103.807 56.019 105.367 55.0652 105.286C55.0652 105.286 53.9238 106.556 52.895 106.476C52.895 106.476 52.5199 108.159 51.1213 108.239C51.1213 108.239 50.9605 109.675 48.9778 109.263C46.9951 108.85 38.416 101.921 38.416 101.921L43.8711 92.6455Z" fill="#FEBD9D"/>
<path d="M44.5942 93.0044C44.0154 94.2316 40.7949 100.196 39.4178 102.73C39.0373 103.438 38.7962 103.877 38.7962 103.877C38.7962 103.877 29.8098 100.292 21.804 96.9537C17.0402 94.955 12.6247 93.0473 10.6581 92.0345C9.39975 91.4066 8.18745 90.6904 7.03035 89.8911C4.42071 88.0585 2.59342 85.9686 1.93431 83.4608C1.2752 80.9529 1.78963 77.9575 3.93307 74.4262C4.49518 73.5225 5.22981 72.7384 6.09501 72.1187C6.9602 71.499 7.93901 71.0558 8.97552 70.8145C10.0891 70.5371 11.2374 70.4252 12.3836 70.4822H12.7694C13.1767 70.4822 13.5893 70.5572 14.0019 70.6215C14.1251 70.6215 14.2484 70.6591 14.3716 70.6859L14.7789 70.7609L15.4648 70.9216H15.4916L15.856 71.0181L16.0221 71.0663C16.1668 71.1038 16.3061 71.1467 16.4454 71.1949L16.8687 71.3289L17.2921 71.4789L17.7261 71.645C18.4369 71.9208 19.1311 72.2375 19.8053 72.5935C19.9285 72.6525 20.0518 72.7114 20.1696 72.7811L20.7055 73.0758L21.1503 73.3384H21.1824C21.7665 73.692 22.3506 74.0778 22.94 74.5012L23.3848 74.8281C24.1243 75.3639 24.8691 75.9962 25.6033 76.6661C34.2467 84.57 44.4281 92.7419 44.6906 92.7419C44.696 92.774 44.6692 92.8544 44.5942 93.0044Z" fill="#FED81D"/>
<path d="M21.804 96.9537C17.0402 94.955 12.6247 93.0473 10.6581 92.0345C9.39975 91.4066 8.18745 90.6904 7.03035 89.8911C4.42071 88.0584 2.59342 85.9686 1.93431 83.4608C1.2752 80.9529 1.78963 77.9575 3.93307 74.4262C4.49518 73.5225 5.22981 72.7384 6.09501 72.1187C6.9602 71.499 7.93901 71.0558 8.97552 70.8145C8.81476 73.5795 7.86629 76.3338 6.29622 78.1986C5.46812 79.1649 5.03238 80.4065 5.07504 81.6783C5.1177 82.9501 5.63565 84.1598 6.52664 85.0683C7.94667 86.6116 10.3634 87.5923 13.5839 87.1636C14.9075 86.9974 16.2096 87.6083 17.3832 88.6693C19.5534 90.6413 21.2789 94.1565 21.804 96.9537Z" fill="#FCC71F"/>
<path d="M11.998 70.4771C16.0706 70.5306 20.963 72.4919 25.5982 76.7252C34.2738 84.6613 44.498 92.8439 44.6855 92.801" stroke="#F7AD2B" stroke-width="0.71" stroke-linecap="round" stroke-linejoin="round"/>
<path d="M40.2925 92.9297C38.9742 95.5233 36.5146 100.164 36.5146 100.164" stroke="#F7AD2B" stroke-width="0.71" stroke-linecap="round" stroke-linejoin="round"/>
<path d="M52.9064 97.3667C54.2299 98.5402 54.0799 100.716 54.0799 100.716C54.0799 100.716 56.92 102.168 57.2093 102.988C57.4987 103.808 56.0197 105.367 55.0659 105.287C55.0659 105.287 53.9245 106.557 52.8957 106.476C52.8957 106.476 52.5206 108.159 51.122 108.239C51.122 108.239 50.9612 109.675 48.9785 109.263" stroke="#934735" stroke-width="0.71" stroke-linecap="round" stroke-linejoin="round"/>
<path d="M54.2219 100.796L51.5801 99.5366" stroke="#934735" stroke-width="0.71" stroke-linecap="round" stroke-linejoin="round"/>
<path d="M55.0756 105.287C54.2028 104.93 53.3496 104.528 52.5195 104.081" stroke="#934735" stroke-width="0.71" stroke-linecap="round" stroke-linejoin="round"/>
<path d="M52.9066 106.476C52.3732 106.257 51.8663 105.978 51.3955 105.646" stroke="#934735" stroke-width="0.71" stroke-linecap="round" stroke-linejoin="round"/>
</svg>
