<svg width="117" height="83" viewBox="0 0 117 83" fill="none" xmlns="http://www.w3.org/2000/svg">
<path d="M111.252 32.986V77.0157C111.252 80.0166 108.822 82.4466 105.821 82.4466H25.3068C22.3059 82.4466 19.876 80.0166 19.876 77.0157V32.986C19.876 29.9851 22.3059 27.5552 25.3068 27.5552H105.821C108.822 27.5552 111.252 29.9851 111.252 32.986Z" fill="url(#paint0_linear_12_3232)"/>
<path d="M97.6696 27.5551V63.5298C97.6696 66.5307 95.2397 68.9606 92.2388 68.9606H19.8887V32.9738C19.8887 29.9729 22.3186 27.543 25.3195 27.543H97.6696V27.5551Z" fill="#0F4C85"/>
<path d="M91.3641 13.4255V57.4552C91.3641 60.4561 88.9342 62.886 85.9333 62.886H5.43082C2.4299 62.886 0 60.4561 0 57.4552V13.4255C0 10.4245 2.4299 7.99463 5.43082 7.99463H85.9333C88.9342 7.99463 91.3641 10.4245 91.3641 13.4255Z" fill="url(#paint1_linear_12_3232)"/>
<path d="M91.3641 20.156H0V32.6456H91.3641V20.156Z" fill="url(#paint2_linear_12_3232)"/>
<path d="M79.1066 38.6719H61.1982V45.0261H79.1066V38.6719Z" fill="#0F4C85"/>
<path d="M55.4498 38.7329H12.3799V45.0871H55.4498V38.7329Z" fill="#0F4C85"/>
<path d="M58.7665 74.5493H30.2881V77.7203H58.7665V74.5493Z" fill="url(#paint3_linear_12_3232)"/>
<path opacity="0.8" d="M111.253 32.9859V33.1803C108.301 34.9056 104.851 35.8896 101.181 35.8896C99.9786 35.8896 98.8001 35.7803 97.6581 35.5859C95.4104 35.185 93.2842 34.4195 91.3646 33.3261C88.8132 31.8925 86.6142 29.9121 84.9133 27.5551C83.6376 25.7934 82.6535 23.8252 82.0095 21.6991C81.4385 19.8524 81.1348 17.8841 81.1348 15.843C81.1348 13.0608 81.7058 10.4122 82.7264 8.00659H85.9338C88.9347 8.00659 91.3646 10.4365 91.3646 13.4374V27.5673H105.823C108.823 27.5551 111.253 29.985 111.253 32.9859Z" fill="url(#paint4_linear_12_3232)"/>
<path d="M101.169 31.6618C109.912 31.6618 116.999 24.5741 116.999 15.831C116.999 7.0879 109.912 0.000244141 101.169 0.000244141C92.4256 0.000244141 85.3379 7.0879 85.3379 15.831C85.3379 24.5741 92.4256 31.6618 101.169 31.6618Z" fill="#36C481"/>
<path d="M97.4279 23.8376L92.1186 18.662C91.584 18.1396 91.5719 17.2769 92.0943 16.7302C92.6167 16.1956 93.4793 16.1835 94.0261 16.7059L97.4036 19.9985L108.314 9.08819C108.848 8.55361 109.711 8.55361 110.246 9.08819C110.78 9.62277 110.78 10.4854 110.246 11.0199L97.4279 23.8376Z" fill="white"/>
<path d="M89.8817 74.5493H61.4033V77.7203H89.8817V74.5493Z" fill="url(#paint5_linear_12_3232)"/>
<path d="M23.9948 49.303H12.3799V50.7245H23.9948V49.303Z" fill="white"/>
<path d="M55.4255 49.303H26.4004V50.7245H55.4255V49.303Z" fill="white"/>
<path d="M55.4376 54.8916H12.3799V56.3131H55.4376V54.8916Z" fill="white"/>
<defs>
<linearGradient id="paint0_linear_12_3232" x1="19.8828" y1="54.9962" x2="111.248" y2="54.9962" gradientUnits="userSpaceOnUse">
<stop stop-color="#0181F8"/>
<stop offset="1" stop-color="#95CCFF"/>
</linearGradient>
<linearGradient id="paint1_linear_12_3232" x1="0" y1="35.4417" x2="91.3648" y2="35.4417" gradientUnits="userSpaceOnUse">
<stop stop-color="#0181F8"/>
<stop offset="1" stop-color="#B1DAFF"/>
</linearGradient>
<linearGradient id="paint2_linear_12_3232" x1="88.4541" y1="26.6228" x2="3.00504" y2="26.1846" gradientUnits="userSpaceOnUse">
<stop stop-color="white"/>
<stop offset="1" stop-color="#DADBDE"/>
</linearGradient>
<linearGradient id="paint3_linear_12_3232" x1="30.29" y1="76.1393" x2="58.7731" y2="76.1393" gradientUnits="userSpaceOnUse">
<stop stop-color="#0181F8"/>
<stop offset="1" stop-color="#A6CFFF"/>
</linearGradient>
<linearGradient id="paint4_linear_12_3232" x1="105.357" y1="36.9597" x2="79.2836" y2="9.57214" gradientUnits="userSpaceOnUse">
<stop stop-color="#0181F8"/>
<stop offset="1" stop-color="#DADBDE"/>
</linearGradient>
<linearGradient id="paint5_linear_12_3232" x1="61.4027" y1="76.1393" x2="89.8857" y2="76.1393" gradientUnits="userSpaceOnUse">
<stop stop-color="#0181F8"/>
<stop offset="1" stop-color="#B6DCFF"/>
</linearGradient>
</defs>
</svg>
