<svg width="87" height="70" viewBox="0 0 87 70" fill="none" xmlns="http://www.w3.org/2000/svg">
<path d="M74.3546 20.8854V7.76592C74.3546 3.4809 70.8737 0 66.5886 0H7.76592C3.4809 0 0 3.4809 0 7.76592V20.8854C0 21.9979 0.903276 22.9012 2.01584 22.9012H72.3387C73.4513 22.9012 74.3546 21.9979 74.3546 20.8854Z" fill="url(#paint0_linear_12_3251)"/>
<path d="M10.4986 57.9525H77.5279C80.3478 57.9525 82.6281 55.6722 82.6281 52.8523V11.0265C82.6281 8.20651 80.3478 5.92627 77.5279 5.92627H10.4986C7.67865 5.92627 5.39844 8.20651 5.39844 11.0265V52.8523C5.39844 55.6722 7.68967 57.9525 10.4986 57.9525Z" fill="#0F4C85"/>
<path d="M14.8707 61.7088H81.8999C84.7199 61.7088 87.0001 59.4286 87.0001 56.6086V14.7828C87.0001 11.9629 84.7199 9.68262 81.8999 9.68262H14.8707C12.0507 9.68262 9.77051 11.9629 9.77051 14.7828V56.6086C9.77051 59.4176 12.0507 61.7088 14.8707 61.7088Z" fill="#36C481"/>
<path d="M77.9897 22.8021V63.9009C77.9897 67.0734 75.4121 69.651 72.2396 69.651H5.75008C2.57762 69.651 0 67.0734 0 63.9009V9.67163C0 9.67163 1.21172 16.7326 9.48435 17.052H72.2396C75.4231 17.052 77.9897 19.6297 77.9897 22.8021Z" fill="url(#paint1_linear_12_3251)"/>
<path d="M67.9668 65.6634H66.006V65.0355H67.9668V65.6634ZM64.0342 65.6634H62.0735V65.0355H64.0342V65.6634ZM60.1017 65.6634H58.1409V65.0355H60.1017V65.6634ZM56.1802 65.6634H54.2194V65.0355H56.1802V65.6634ZM52.2477 65.6634H50.2869V65.0355H52.2477V65.6634ZM48.3261 65.6634H46.3654V65.0355H48.3261V65.6634ZM44.3936 65.6634H42.4328V65.0355H44.3936V65.6634ZM40.4611 65.6634H38.5003V65.0355H40.4611V65.6634ZM36.5396 65.6634H34.5788V65.0355H36.5396V65.6634ZM32.607 65.6634H30.6463V65.0355H32.607V65.6634ZM28.6855 65.6634H26.7248V65.0355H28.6855V65.6634ZM24.753 65.6634H22.7922V65.0355H24.753V65.6634ZM20.8205 65.6634H18.8597V65.0355H20.8205V65.6634ZM16.8989 65.6634H14.9382V65.0355H16.8989V65.6634ZM12.9664 65.6634H11.0056V65.0355H12.9664V65.6634ZM9.0449 65.6634H7.08414V65.0355H9.0449V65.6634ZM5.11235 65.6634H3.15161V65.0355H5.11235V65.6634ZM69.9496 65.6524L69.9165 65.0245C70.5334 64.9914 71.1282 64.8262 71.668 64.5398L71.9544 65.0906C71.3265 65.4321 70.6545 65.6193 69.9496 65.6524ZM73.5516 63.7797L73.0669 63.3942C73.4525 62.9095 73.7169 62.3588 73.8711 61.7639L74.4769 61.9181C74.3007 62.5901 73.9922 63.218 73.5516 63.7797ZM74.6201 59.8803H73.9922V57.9195H74.6201V59.8803ZM74.6201 55.9477H73.9922V53.987H74.6201V55.9477ZM74.6201 52.0262H73.9922V50.0655H74.6201V52.0262ZM74.6201 48.0937H73.9922V46.1329H74.6201V48.0937ZM74.6201 44.1722H73.9922V42.2114H74.6201V44.1722ZM74.6201 40.2396H73.9922V38.2789H74.6201V40.2396ZM74.6201 36.3071H73.9922V34.3463H74.6201V36.3071ZM74.6201 32.3856H73.9922V30.4249H74.6201V32.3856ZM74.6201 28.453H73.9922V26.4923H74.6201V28.453ZM73.8821 24.6086C73.7499 24.0138 73.4855 23.452 73.111 22.9563L73.6067 22.5818C74.0363 23.1436 74.3337 23.7825 74.4879 24.4655L73.8821 24.6086ZM71.7451 21.7667C71.2053 21.4693 70.6215 21.293 70.0046 21.2489L70.0597 20.632C70.7647 20.6871 71.4367 20.8854 72.0535 21.2269L71.7451 21.7667ZM68.0659 21.2269H66.0941V20.599H68.0549V21.2269H68.0659ZM64.1334 21.2269H62.1726V20.599H64.1334V21.2269ZM60.2008 21.2269H58.2401V20.599H60.2008V21.2269ZM56.2793 21.2269H54.3186V20.599H56.2793V21.2269ZM52.3468 21.2269H50.386V20.599H52.3468V21.2269ZM48.4253 21.2269H46.4645V20.599H48.4253V21.2269ZM44.4927 21.2269H42.532V20.599H44.4927V21.2269ZM40.5602 21.2269H38.5994V20.599H40.5602V21.2269ZM36.6387 21.2269H34.6779V20.599H36.6387V21.2269ZM32.7062 21.2269H30.7454V20.599H32.7062V21.2269ZM28.7847 21.2269H26.8239V20.599H28.7847V21.2269ZM24.8521 21.2269H22.8914V20.599H24.8521V21.2269ZM20.9196 21.2269H18.9588V20.599H20.9196V21.2269ZM16.9981 21.2269H15.0373V20.599H16.9981V21.2269ZM13.0656 21.2269H11.1048V20.599H13.0656V21.2269ZM9.12201 21.2049C8.45006 21.1608 7.78912 21.0727 7.12819 20.9295L7.26037 20.3236C7.88826 20.4558 8.52717 20.5439 9.15506 20.588L9.12201 21.2049ZM5.20048 20.3787C4.5726 20.1474 3.95575 19.872 3.37192 19.5415L3.66934 18.9907C4.23113 19.2992 4.81495 19.5636 5.40979 19.7839L5.20048 20.3787ZM1.68655 18.451C1.43319 18.2637 1.17984 18.0544 0.948516 17.8451C0.69516 17.6248 0.430788 17.3825 0.177432 17.1291L0.618052 16.6775C0.860392 16.9198 1.11373 17.1512 1.36708 17.3715C1.59841 17.5698 1.82975 17.768 2.07209 17.9443L1.68655 18.451ZM0.276561 65.6634H1.17983V65.0355H0.111328L0.276561 65.6634Z" fill="white"/>
<path d="M77.9887 31.5042V55.4628H62.4348C57.9515 55.4628 54.3164 51.8277 54.3164 47.3444V39.6226C54.3164 35.1393 57.9515 31.5042 62.4348 31.5042H77.9887Z" fill="#0F4C85"/>
<path d="M65.5858 47.2124C67.6482 47.2124 69.3201 45.5406 69.3201 43.4782C69.3201 41.4158 67.6482 39.7439 65.5858 39.7439C63.5234 39.7439 61.8516 41.4158 61.8516 43.4782C61.8516 45.5406 63.5234 47.2124 65.5858 47.2124Z" fill="white"/>
<defs>
<linearGradient id="paint0_linear_12_3251" x1="0" y1="11.4498" x2="74.3516" y2="11.4498" gradientUnits="userSpaceOnUse">
<stop stop-color="#DBAE1E"/>
<stop offset="1" stop-color="#FFE07E"/>
</linearGradient>
<linearGradient id="paint1_linear_12_3251" x1="0" y1="39.667" x2="77.9925" y2="39.667" gradientUnits="userSpaceOnUse">
<stop stop-color="#FED81D"/>
<stop offset="1" stop-color="#FFE563"/>
</linearGradient>
</defs>
</svg>
