<svg width="124" height="87" viewBox="0 0 124 87" fill="none" xmlns="http://www.w3.org/2000/svg">
<path d="M97.0566 5.76922V52.5422C97.0566 55.7301 94.4753 58.3114 91.2874 58.3114H5.76919C2.58129 58.3114 0 55.7301 0 52.5422V5.76922C0 2.58132 2.58129 0 5.76919 0H91.2874C94.4753 0 97.0566 2.58132 97.0566 5.76922Z" fill="url(#paint0_linear_12_3533)"/>
<path d="M97.0566 12.9194H0V26.1873H97.0566V12.9194Z" fill="url(#paint1_linear_12_3533)"/>
<path d="M58.9058 32.6533H13.1523V39.4034H58.9058V32.6533Z" fill="#0F4C85"/>
<path d="M25.4909 43.8818H13.1523V45.3919H25.4909V43.8818Z" fill="white"/>
<path d="M58.8785 43.8818H28.0449V45.3919H58.8785V43.8818Z" fill="white"/>
<path d="M58.8928 49.8188H13.1523V51.3289H58.8928V49.8188Z" fill="white"/>
<path d="M91.4388 86.9999C109.253 86.9999 123.694 72.5588 123.694 54.7448C123.694 36.9308 109.253 22.4897 91.4388 22.4897C73.6248 22.4897 59.1836 36.9308 59.1836 54.7448C59.1836 72.5588 73.6248 86.9999 91.4388 86.9999Z" fill="#36C481"/>
<path d="M89.3126 70.8875V68.4297C87.401 68.369 85.459 67.9745 83.9418 67.3676C82.9101 66.9732 82.3942 65.8505 82.6977 64.7884C83.0314 63.605 84.3363 62.9376 85.4893 63.3624C86.8851 63.9086 88.5237 64.2727 90.2229 64.2727C92.9842 64.2727 94.8654 62.9071 94.8654 60.8134C94.8654 58.8411 93.318 57.5668 90.0712 56.3834C85.459 54.7145 82.4854 52.6207 82.4854 48.5243C82.4854 44.7617 85.1252 41.8489 89.5553 41.0599V38.5717C89.5553 37.5704 90.3746 36.7815 91.3455 36.7815C92.3469 36.7815 93.1358 37.6007 93.1358 38.5717V40.8475C94.835 40.9082 96.1702 41.1813 97.2929 41.5151C98.3549 41.8489 98.9618 43.0019 98.6583 44.0943C98.3246 45.217 97.1109 45.8541 95.9882 45.49C94.9565 45.1259 93.6517 44.8529 92.0435 44.8529C88.9788 44.8529 87.8864 46.4306 87.8864 47.9175C87.8864 49.7077 89.4643 50.7091 93.1965 52.2263C98.1122 54.0772 100.297 56.4441 100.297 60.328C100.297 64.0603 97.7177 67.3373 92.8931 68.1262V70.8571C92.8931 71.8585 92.0739 72.6474 91.1029 72.6474C90.1319 72.6777 89.3126 71.8888 89.3126 70.8875Z" fill="white"/>
<path d="M91.4693 81.6596C90.5894 81.6596 89.7095 81.6293 88.8295 81.5382L88.9205 80.6885C89.7701 80.7796 90.6198 80.81 91.4391 80.81L91.4693 81.6596ZM94.0789 81.5382L93.9879 80.6885C94.8375 80.5975 95.6871 80.4762 96.5064 80.3245L96.6581 81.174C95.8388 81.3258 94.9589 81.4472 94.0789 81.5382ZM86.22 81.174C85.3704 80.992 84.4904 80.7796 83.6712 80.5368L83.9138 79.7176C84.7331 79.9604 85.5525 80.1728 86.4021 80.3245L86.22 81.174ZM99.2677 80.5066L99.025 79.6872C99.8442 79.4445 100.663 79.1411 101.422 78.8377L101.756 79.6265C100.937 79.9603 100.117 80.2638 99.2677 80.5066ZM81.1526 79.6265C80.3333 79.2927 79.5444 78.8983 78.7555 78.5039L79.15 77.7453C79.9086 78.1398 80.6671 78.5039 81.456 78.8377L81.1526 79.6265ZM104.153 78.4735L103.758 77.7149C104.517 77.3205 105.245 76.8654 105.943 76.4102L106.429 77.1081C105.67 77.6239 104.912 78.079 104.153 78.4735ZM76.5101 77.1384C75.7818 76.6529 75.0536 76.137 74.386 75.5605L74.9322 74.893C75.5997 75.4392 76.2674 75.9551 76.9956 76.4102L76.5101 77.1384ZM108.522 75.5605L107.976 74.893C108.644 74.3469 109.281 73.7703 109.857 73.1634L110.464 73.7703C109.857 74.4075 109.19 74.984 108.522 75.5605ZM72.4137 73.8006C71.7765 73.1938 71.2 72.5263 70.6235 71.8587L71.2909 71.3124C71.8371 71.98 72.4137 72.6173 73.0206 73.1938L72.4137 73.8006ZM112.255 71.8283L111.587 71.2821C112.133 70.6145 112.649 69.947 113.104 69.2188L113.802 69.7043C113.347 70.4325 112.801 71.1304 112.255 71.8283ZM69.0759 69.7347C68.5904 69.0064 68.1353 68.2478 67.7105 67.4589L68.4691 67.0643C68.8635 67.8229 69.3186 68.5512 69.7738 69.2491L69.0759 69.7347ZM115.198 67.4285L114.439 67.034C114.834 66.2754 115.198 65.5169 115.532 64.728L116.321 65.0616C115.987 65.8506 115.592 66.6699 115.198 67.4285ZM66.5575 65.092C66.2237 64.2727 65.9202 63.4536 65.6774 62.6039L66.4967 62.3611C66.7395 63.1804 67.0429 63.9693 67.3767 64.7582L66.5575 65.092ZM117.201 62.5736L116.381 62.3307C116.624 61.5115 116.836 60.6923 116.988 59.8427L117.838 59.9944C117.686 60.8743 117.443 61.724 117.201 62.5736ZM65.0403 60.055C64.8583 59.2054 64.7368 58.3255 64.6458 57.4456L65.4955 57.3544C65.5865 58.2041 65.7078 59.0538 65.8595 59.873L65.0403 60.055ZM118.232 57.3848L117.383 57.2938C117.474 56.4442 117.504 55.5945 117.504 54.7449V54.6539H118.354V54.7449C118.354 55.6248 118.323 56.5049 118.232 57.3848ZM65.374 54.8056H64.5244V54.7449C64.5244 53.8649 64.5547 53.0153 64.6458 52.1657L65.4955 52.2568C65.4044 53.0761 65.374 53.9256 65.374 54.7752V54.8056ZM117.352 52.1051C117.261 51.2555 117.14 50.4058 116.958 49.5865L117.808 49.4045C117.99 50.2542 118.111 51.134 118.202 52.014L117.352 52.1051ZM65.8595 49.708L65.0099 49.5563C65.192 48.7066 65.4044 47.8266 65.6472 47.0073L66.4664 47.2501C66.2236 48.0391 66.0112 48.8887 65.8595 49.708ZM116.351 47.0984C116.108 46.2791 115.805 45.4902 115.471 44.7013L116.26 44.3675C116.594 45.1868 116.897 46.006 117.17 46.8556L116.351 47.0984ZM67.3161 44.8227L66.5271 44.4888C66.8609 43.6696 67.2249 42.8807 67.6497 42.0917L68.4083 42.4861C68.0139 43.2447 67.6498 44.0337 67.3161 44.8227ZM114.379 42.3952C113.984 41.6366 113.529 40.9083 113.044 40.2104L113.742 39.7249C114.227 40.4531 114.682 41.2118 115.107 41.9704L114.379 42.3952ZM69.7435 40.3015L69.0456 39.816C69.5311 39.0877 70.047 38.3595 70.6235 37.6919L71.2909 38.2381C70.7144 38.9056 70.1987 39.6036 69.7435 40.3015ZM111.526 38.1471C110.98 37.4795 110.404 36.8423 109.797 36.2657L110.404 35.6589C111.011 36.2657 111.617 36.9333 112.194 37.6008L111.526 38.1471ZM72.9598 36.3569L72.353 35.75C72.9598 35.1431 73.6275 34.5361 74.2951 33.9596L74.8412 34.6272C74.204 35.1734 73.5667 35.75 72.9598 36.3569ZM107.916 34.5363C107.248 33.9901 106.55 33.4742 105.852 33.0191L106.338 32.3211C107.066 32.8066 107.794 33.3225 108.462 33.899L107.916 34.5363ZM76.9045 33.1101L76.4191 32.4122C77.1473 31.9267 77.9059 31.4716 78.6949 31.0468L79.0893 31.8053C78.361 32.1998 77.6024 32.6246 76.9045 33.1101ZM103.667 31.7142C102.909 31.3198 102.15 30.9556 101.361 30.6218L101.695 29.833C102.514 30.1668 103.303 30.5308 104.092 30.9556L103.667 31.7142ZM81.3954 30.6826L81.0616 29.8936C81.8809 29.5598 82.7002 29.2564 83.5498 28.9833L83.7925 29.8026C83.0036 30.0757 82.1843 30.3488 81.3954 30.6826ZM98.9339 29.7723C98.1146 29.5295 97.2954 29.3171 96.4458 29.1654L96.5975 28.3158C97.4471 28.4979 98.327 28.7102 99.1463 28.9529L98.9339 29.7723ZM86.2807 29.1958L86.0986 28.3461C86.9483 28.164 87.8282 28.0427 88.7082 27.9517L88.7992 28.8012C87.9799 28.8923 87.1303 29.0137 86.2807 29.1958ZM93.9272 28.8012C93.1079 28.7102 92.2584 28.6799 91.4391 28.6799H91.3784V27.8303H91.4391C92.2887 27.8303 93.1687 27.8606 94.0183 27.9517L93.9272 28.8012Z" fill="white"/>
<defs>
<linearGradient id="paint0_linear_12_3533" x1="0" y1="29.1571" x2="97.0573" y2="29.1571" gradientUnits="userSpaceOnUse">
<stop stop-color="#0181F8"/>
<stop offset="1" stop-color="#B1DAFF"/>
</linearGradient>
<linearGradient id="paint1_linear_12_3533" x1="93.9653" y1="19.7892" x2="3.19227" y2="19.3237" gradientUnits="userSpaceOnUse">
<stop stop-color="white"/>
<stop offset="1" stop-color="#DADBDE"/>
</linearGradient>
</defs>
</svg>
