<svg width="1254" height="652" viewBox="0 0 1254 652" fill="none" xmlns="http://www.w3.org/2000/svg">
<path d="M328.83 278.296C344.438 268.941 361.406 273.752 369.369 287.544C377.555 301.723 373.163 318.695 356.981 327.694" fill="#FF6B00"/>
<path d="M1192 345L1180 365.785L1241.49 401.285L1253.49 380.5L1192 345Z" fill="#22DA4A"/>
<path d="M796.192 133L787 142.192L839.326 194.518L848.518 185.326L796.192 133Z" fill="#AA0BF0"/>
<path d="M4.05346e-07 618.008L2.38454e-09 651.8L30.9914 652C31.3648 631.605 19.603 617.608 4.05346e-07 618.008Z" fill="#FFE500"/>
<path d="M1096.35 0.33872C1100.44 15.5803 1092.53 28.9522 1078.79 32.6355C1064.55 36.4504 1051.05 29.2681 1047 13.1987" fill="#0181F8"/>
<path d="M597 616C597 608.82 591.404 603 584.5 603C577.596 603 572 608.82 572 616C572 623.18 577.596 629 584.5 629C591.404 629 597 623.18 597 616Z" fill="#F10E0E"/>
<path d="M188 500.078L204.252 517.738L256.497 469.66L240.245 452L188 500.078Z" fill="#22DA4A"/>
</svg>
