<svg width="124" height="84" viewBox="0 0 124 84" fill="none" xmlns="http://www.w3.org/2000/svg">
<path d="M65.4527 71.8875C72.7961 71.8875 78.7492 63.8538 78.7492 53.9438C78.7492 44.0337 72.7961 36 65.4527 36C58.1093 36 52.1562 44.0337 52.1562 53.9438C52.1562 63.8538 58.1093 71.8875 65.4527 71.8875Z" fill="url(#paint0_linear_203_80)"/>
<path d="M92.1724 72.0164C99.5159 72.0164 105.469 63.9827 105.469 54.0727C105.469 44.1626 99.5159 36.1289 92.1724 36.1289C84.829 36.1289 78.876 44.1626 78.876 54.0727C78.876 63.9827 84.829 72.0164 92.1724 72.0164Z" fill="url(#paint1_linear_203_80)"/>
<path d="M37.3072 71.8875C44.6506 71.8875 50.6036 63.8538 50.6036 53.9438C50.6036 44.0337 44.6506 36 37.3072 36C29.9638 36 24.0107 44.0337 24.0107 53.9438C24.0107 63.8538 29.9638 71.8875 37.3072 71.8875Z" fill="url(#paint2_linear_203_80)"/>
<path d="M17.942 71.8875C25.2854 71.8875 31.2384 63.8538 31.2384 53.9438C31.2384 44.0337 25.2854 36 17.942 36C10.5985 36 4.64551 44.0337 4.64551 53.9438C4.64551 63.8538 10.5985 71.8875 17.942 71.8875Z" fill="url(#paint3_linear_203_80)"/>
<path d="M74.7437 71.8875C82.0871 71.8875 88.0402 63.8538 88.0402 53.9438C88.0402 44.0337 82.0871 36 74.7437 36C67.4003 36 61.4473 44.0337 61.4473 53.9438C61.4473 63.8538 67.4003 71.8875 74.7437 71.8875Z" fill="url(#paint4_linear_203_80)"/>
<path d="M46.3463 71.8875C53.6897 71.8875 59.6427 63.8538 59.6427 53.9438C59.6427 44.0337 53.6897 36 46.3463 36C39.0028 36 33.0498 44.0337 33.0498 53.9438C33.0498 63.8538 39.0028 71.8875 46.3463 71.8875Z" fill="url(#paint5_linear_203_80)"/>
<path d="M112.179 62.4639V66.0784L99.2697 83.1186H88.9424L87.9097 80.0204H83.7787L81.4551 83.1186H63.124L60.5422 79.7622H52.7967L50.473 83.1186H36.7893L34.2075 79.7622H26.2038L23.622 83.1186H15.6183L4 69.1766V62.4639H112.179Z" fill="#B68649"/>
<path d="M112.177 62.4639V66.0784L99.2674 83.1186H88.94L87.9073 80.0204H83.7764L81.4527 83.1186H74.4043L84.3702 62.4639H112.177Z" fill="url(#paint6_linear_203_80)"/>
<path d="M115.408 57.9458H0V64.1422H115.408V57.9458Z" fill="url(#paint7_linear_203_80)"/>
<path d="M115.41 57.9458H80.8135V64.1422H115.41V57.9458Z" fill="#B68649"/>
<path d="M100 48C113.255 48 124 37.2548 124 24C124 10.7451 113.255 0 100 0C86.7451 0 76 10.7451 76 24C76 37.2548 86.7451 48 100 48Z" fill="#28C079"/>
<path d="M94.3024 36.1112L86.2553 28.2649C85.4342 27.4621 85.416 26.1665 86.2189 25.3454C87.0217 24.5243 88.3173 24.506 89.1384 25.3089L94.2659 30.2904L110.798 13.7584C111.601 12.9555 112.915 12.9555 113.717 13.7584C114.52 14.5613 114.52 15.8751 113.717 16.678L94.3024 36.1112Z" fill="white"/>
<defs>
<linearGradient id="paint0_linear_203_80" x1="52.1562" y1="53.9438" x2="78.7492" y2="53.9438" gradientUnits="userSpaceOnUse">
<stop stop-color="#EEC38B"/>
<stop offset="1" stop-color="#FFE9CE"/>
</linearGradient>
<linearGradient id="paint1_linear_203_80" x1="78.876" y1="54.0727" x2="105.469" y2="54.0727" gradientUnits="userSpaceOnUse">
<stop stop-color="#E7B473"/>
<stop offset="1" stop-color="#FFE5C2"/>
</linearGradient>
<linearGradient id="paint2_linear_203_80" x1="24.0107" y1="53.9438" x2="50.6037" y2="53.9438" gradientUnits="userSpaceOnUse">
<stop stop-color="#EEC38B"/>
<stop offset="1" stop-color="#FFE9CE"/>
</linearGradient>
<linearGradient id="paint3_linear_203_80" x1="4.64551" y1="53.9438" x2="31.2384" y2="53.9438" gradientUnits="userSpaceOnUse">
<stop stop-color="white"/>
<stop offset="1" stop-color="#DADBDE"/>
</linearGradient>
<linearGradient id="paint4_linear_203_80" x1="61.4473" y1="53.9438" x2="88.0402" y2="53.9438" gradientUnits="userSpaceOnUse">
<stop stop-color="white"/>
<stop offset="1" stop-color="#DADBDE"/>
</linearGradient>
<linearGradient id="paint5_linear_203_80" x1="33.0498" y1="53.9438" x2="59.6427" y2="53.9438" gradientUnits="userSpaceOnUse">
<stop stop-color="white"/>
<stop offset="1" stop-color="#DADBDE"/>
</linearGradient>
<linearGradient id="paint6_linear_203_80" x1="74.3992" y1="72.7912" x2="112.177" y2="72.7912" gradientUnits="userSpaceOnUse">
<stop stop-color="#B68649"/>
<stop offset="1" stop-color="#E9B879"/>
</linearGradient>
<linearGradient id="paint7_linear_203_80" x1="-1.94583" y1="61.2298" x2="80.9311" y2="60.9716" gradientUnits="userSpaceOnUse">
<stop stop-color="#B68649"/>
<stop offset="1" stop-color="#E9B777"/>
</linearGradient>
</defs>
</svg>
