<svg width="1037" height="781" viewBox="0 0 1037 781" fill="none" xmlns="http://www.w3.org/2000/svg">
<path d="M1027.33 61.5186L1036.52 52.3262L984.194 0.000266552L975.001 9.19265L1027.33 61.5186Z" fill="#AA0BF0"/>
<path d="M107 89.0084L107 122.8L137.991 123C138.365 102.605 126.603 88.6084 107 89.0084Z" fill="#FFE500"/>
<path d="M0.000244141 763.078L16.252 780.738L68.4967 732.66L52.2449 715L0.000244141 763.078Z" fill="#22DA4A"/>
<path d="M518.94 648.317C534.647 662.574 535.548 683.325 522.826 697.342C509.65 711.859 489.269 713.446 473.003 698.226" fill="#0181F8"/>
<path d="M906.999 430C918.597 430 927.999 421.046 927.999 410C927.999 398.954 918.597 390 906.999 390C895.401 390 885.999 398.954 885.999 410C885.999 421.046 895.401 430 906.999 430Z" fill="#F10E0E"/>
</svg>
