<svg width="256" height="243" viewBox="0 0 256 243" fill="none" xmlns="http://www.w3.org/2000/svg">
<path d="M171.633 45.3546L171.429 124.05L145.47 123.973L111.604 123.897L111.758 65.8572L111.809 45.2016L149.958 45.0486L171.633 45.3546Z" fill="url(#paint0_linear_205_80)"/>
<path d="M111.809 45.176L122.723 28.9065L159.699 29.0085L149.881 45.278L111.809 45.176Z" fill="url(#paint1_linear_205_80)"/>
<path d="M159.701 29.0089L171.635 45.3549L149.883 45.2784L159.701 29.0089Z" fill="#B1BEE3"/>
<path d="M171.635 45.3549L171.431 124.05L149.679 123.999L149.883 45.2784L171.635 45.3549Z" fill="url(#paint2_linear_205_80)"/>
<path d="M122.723 28.9069L159.699 29.0089V28.2439C159.699 25.2348 157.276 22.7867 154.267 22.7867L128.18 22.7102C125.171 22.7102 122.723 25.1328 122.723 28.1419V28.9069Z" fill="url(#paint3_linear_205_80)"/>
<path d="M111.76 68.9689L149.807 69.0709L149.782 83.1728L111.709 83.0708L111.76 68.9689Z" fill="url(#paint4_linear_205_80)"/>
<path d="M171.556 69.1216L171.53 83.2235L149.778 83.1725L149.804 69.0706L171.556 69.1216Z" fill="url(#paint5_linear_205_80)"/>
<path d="M101.279 34.9243H79.3486V87.2009H101.279V34.9243Z" fill="url(#paint6_linear_205_80)"/>
<path d="M97.0968 13.1215H90.4411C81.8473 13.1215 74.9111 20.0832 74.9111 28.6514V39.7697H88.1715C91.2061 39.7697 93.6542 42.2178 93.6542 45.2524C93.6542 48.287 91.2061 50.7351 88.1715 50.7351H74.9111V66.5455H88.1715C91.2061 66.5455 93.6542 68.9936 93.6542 72.0282C93.6542 75.0628 91.2061 77.5109 88.1715 77.5109H74.9111V107.984H112.652V28.6514C112.627 20.0832 105.665 13.1215 97.0968 13.1215Z" fill="url(#paint7_linear_205_80)"/>
<path d="M34.9991 46.7825C34.9991 46.7825 -4.01705 31.584 4.5002 20.1342C13.0429 8.65885 36.5802 43.3144 36.5802 43.3144L34.9991 46.7825Z" fill="#3BC49A"/>
<path d="M38.4945 44.1813C38.4945 44.1813 40.5091 2.33454 26.5857 5.47113C12.6113 8.60772 34.6949 44.2068 34.6949 44.2068L38.4945 44.1813Z" fill="#3BC49A"/>
<path d="M37.6541 47.1395C37.6541 47.1395 20.2882 -9.14061 4.14618 1.2892C-10.4913 10.7755 33.9055 48.2616 33.9055 48.2616L37.6541 47.1395Z" fill="#44D0A7"/>
<path d="M90.5939 122.698C89.6503 122.596 88.6813 122.188 87.7888 121.423L81.7706 116.297L81.7451 116.272L68.9947 105.383L66.6486 103.369L49.6652 88.8841L46.3755 86.079L35.3592 76.6947C34.2627 75.7512 33.2427 74.7057 32.3246 73.6091C31.5596 72.6911 30.8455 71.7221 30.2335 70.7021C27.0714 65.6274 25.8219 59.5582 27.148 53.6421C28.27 48.6694 30.8711 44.7168 34.3137 42.0137C34.6707 41.7332 35.0532 41.4527 35.4357 41.1977C40.5359 37.7551 47.1916 36.8116 53.6178 38.9536C55.2243 39.4891 56.7289 40.2287 58.1314 41.1212C62.0585 43.5948 65.1441 47.3179 67.0311 51.6275L68.6122 55.1211L70.2697 58.7932L78.5575 77.0517L80.062 80.3668L89.8288 101.864L90.7214 103.853L95.949 115.379C97.8361 119.434 94.266 123.157 90.5939 122.698Z" fill="url(#paint8_linear_205_80)"/>
<path opacity="0.1" d="M81.7675 116.272L35.3562 76.6945C28.675 70.9824 25.2069 62.1336 27.1194 53.6419C28.2414 48.6692 30.8425 44.7166 34.2852 42.0135C34.6422 41.733 35.0246 41.4525 35.4072 41.1975C36.0447 64.4287 66.1611 99.5942 81.7675 116.272Z" fill="black"/>
<path opacity="0.1" d="M58.1258 41.1214L44.1514 50.0722L53.6122 38.9794C55.2187 39.5149 56.7232 40.2289 58.1258 41.1214Z" fill="black"/>
<path opacity="0.1" d="M45.4545 61.0881L32.3216 73.6345C31.5566 72.7165 30.8425 71.7474 30.2305 70.7274L45.4545 61.0881Z" fill="black"/>
<path opacity="0.1" d="M70.2929 58.8186L57.6445 66.6218L68.6099 55.121L70.2929 58.8186Z" fill="black"/>
<path opacity="0.1" d="M59.8924 78.4799L49.6666 88.8842L46.377 86.1046L59.8924 78.4799Z" fill="black"/>
<path opacity="0.1" d="M80.0844 80.4176L71.3887 84.4467L78.5799 77.077L80.0844 80.4176Z" fill="black"/>
<path opacity="0.1" d="M77.1273 96.6108L68.9925 105.383L66.6465 103.394L77.1273 96.6108Z" fill="black"/>
<path opacity="0.1" d="M90.7754 103.878L85.1143 106.989L89.8829 101.915L90.7754 103.878Z" fill="black"/>
<path d="M24.2894 72.156C24.2894 72.156 -3.76146 61.2161 2.35872 53.0049C8.5044 44.7426 25.4114 69.6824 25.4114 69.6824L24.2894 72.156Z" fill="#3BC49A"/>
<path d="M26.8159 70.269C26.8159 70.269 28.2694 40.2036 18.2731 42.4477C8.22584 44.6917 24.1128 70.2945 24.1128 70.2945L26.8159 70.269Z" fill="#3BC49A"/>
<path d="M26.2039 72.4109C26.2039 72.4109 13.7085 31.9412 2.13114 39.4639C-8.40067 46.2726 23.5263 73.2269 23.5263 73.2269L26.2039 72.4109Z" fill="#44D0A7"/>
<path d="M64.2527 126.702C63.5642 126.626 62.8756 126.32 62.2381 125.784L57.903 122.086C57.903 122.086 57.903 122.086 57.8775 122.086L48.6972 114.258L47.0142 112.804L34.7993 102.4L32.4533 100.385L24.548 93.6276C23.7575 92.9391 23.018 92.1996 22.355 91.409C21.7939 90.746 21.2839 90.0575 20.8504 89.318C18.5809 85.6714 17.6628 81.3107 18.6318 77.0521C19.4223 73.482 21.3094 70.6514 23.783 68.6879C24.038 68.4839 24.3185 68.2799 24.599 68.1014C28.2711 65.6278 33.0653 64.9393 37.6554 66.4948C38.8029 66.8773 39.8995 67.4128 40.894 68.0504C43.7246 69.8354 45.9177 72.513 47.2947 75.5986L48.4422 78.1232L49.6408 80.7752L55.6079 93.9081L56.7045 96.3052L63.7172 111.759L64.3547 113.187L68.1033 121.474C69.4548 124.356 66.9048 127.034 64.2527 126.702Z" fill="url(#paint9_linear_205_80)"/>
<path opacity="0.1" d="M57.9035 122.087L24.5486 93.6277C19.7289 89.5221 17.2553 83.1469 18.6323 77.0522C19.4229 73.4821 21.31 70.6515 23.7835 68.688C24.0385 68.4839 24.319 68.2799 24.5995 68.1014C25.0586 84.8299 46.7087 110.101 57.9035 122.087Z" fill="black"/>
<path opacity="0.1" d="M40.9184 68.0758L30.8711 74.502L37.6543 66.5203C38.8274 66.9028 39.8984 67.4383 40.9184 68.0758Z" fill="black"/>
<path opacity="0.1" d="M31.7914 82.4326L22.3561 91.4344C21.7951 90.7714 21.2851 90.0828 20.8516 89.3433L31.7914 82.4326Z" fill="black"/>
<path opacity="0.1" d="M49.6369 80.775L40.5586 86.4107L48.4384 78.1484L49.6369 80.775Z" fill="black"/>
<path opacity="0.1" d="M42.1943 94.928L34.8246 102.4L32.4785 100.411L42.1943 94.928Z" fill="black"/>
<path opacity="0.1" d="M56.7028 96.3054L50.4551 99.2125L55.6062 93.9338L56.7028 96.3054Z" fill="black"/>
<path opacity="0.1" d="M54.5579 107.959L48.7182 114.258L47.0352 112.83L54.5579 107.959Z" fill="black"/>
<path opacity="0.1" d="M64.377 113.186L60.2969 115.405L63.714 111.758L64.377 113.186Z" fill="black"/>
<path d="M174.846 82.9936V242.118H12.6611V82.8661L15.0837 89.2413L21.7139 81.0811L28.0891 89.4963L34.9743 81.0811L35.9943 82.3816L38.1619 85.1612L41.3495 89.2413L47.9797 81.0811L54.6099 88.9863L60.9851 81.0811L67.8703 89.4963L74.2454 81.0811L80.6206 89.2413L87.2508 81.0811L93.626 88.9863L100.001 81.0811L106.631 88.9863L113.262 81.0811L119.892 88.9863L126.267 81.0811L132.642 88.9863L139.527 81.0811L146.158 88.9863L152.788 81.0811L159.163 89.2413L165.793 81.0811L172.168 88.4763L174.846 82.9936Z" fill="url(#paint10_linear_205_80)"/>
<path d="M38.1619 85.1612V242.118H12.6611V82.8661L15.0837 89.2413L21.7139 81.0811L28.0891 89.4963L34.9743 81.0811L35.9943 82.3816L38.1619 85.1612Z" fill="#EECA9D"/>
<path d="M60.9829 81.0811V242.118H35.9922V82.3816L41.3473 89.2413L47.9775 81.0811L54.6077 88.9863L60.9829 81.0811Z" fill="url(#paint11_linear_205_80)"/>
<path d="M60.9851 242.119H12.6611V242.017L36.1218 210.498L60.9851 242.119Z" fill="#E1AF72"/>
<path d="M143.482 231.026C150.735 231.026 156.614 223.091 156.614 213.303C156.614 203.514 150.735 195.58 143.482 195.58C136.228 195.58 130.349 203.514 130.349 213.303C130.349 223.091 136.228 231.026 143.482 231.026Z" fill="url(#paint12_linear_205_80)"/>
<path d="M169.874 231.153C177.127 231.153 183.007 223.218 183.007 213.43C183.007 203.642 177.127 195.707 169.874 195.707C162.621 195.707 156.741 203.642 156.741 213.43C156.741 223.218 162.621 231.153 169.874 231.153Z" fill="url(#paint13_linear_205_80)"/>
<path d="M115.686 231.026C122.939 231.026 128.819 223.091 128.819 213.303C128.819 203.514 122.939 195.58 115.686 195.58C108.433 195.58 102.553 203.514 102.553 213.303C102.553 223.091 108.433 231.026 115.686 231.026Z" fill="url(#paint14_linear_205_80)"/>
<path d="M96.5548 231.026C103.808 231.026 109.688 223.091 109.688 213.303C109.688 203.514 103.808 195.58 96.5548 195.58C89.3017 195.58 83.4219 203.514 83.4219 213.303C83.4219 223.091 89.3017 231.026 96.5548 231.026Z" fill="url(#paint15_linear_205_80)"/>
<path d="M152.66 231.026C159.913 231.026 165.793 223.091 165.793 213.303C165.793 203.514 159.913 195.58 152.66 195.58C145.407 195.58 139.527 203.514 139.527 213.303C139.527 223.091 145.407 231.026 152.66 231.026Z" fill="url(#paint16_linear_205_80)"/>
<path d="M124.609 231.026C131.863 231.026 137.742 223.091 137.742 213.303C137.742 203.514 131.863 195.58 124.609 195.58C117.356 195.58 111.477 203.514 111.477 213.303C111.477 223.091 117.356 231.026 124.609 231.026Z" fill="url(#paint17_linear_205_80)"/>
<path d="M189.634 221.718V225.288L176.884 242.118H166.684L165.664 239.058H161.583L159.288 242.118H141.183L138.633 238.803H130.983L128.687 242.118H115.172L112.622 238.803H104.717L102.167 242.118H94.2615L82.7861 228.348V221.718H189.634Z" fill="#B68649"/>
<path d="M189.634 221.718V225.288L176.883 242.118H166.683L165.663 239.058H161.583L159.288 242.118H152.326L162.169 221.718H189.634Z" fill="url(#paint18_linear_205_80)"/>
<path d="M192.823 217.255H78.835V223.376H192.823V217.255Z" fill="url(#paint19_linear_205_80)"/>
<path d="M192.824 217.255H158.653V223.376H192.824V217.255Z" fill="#B68649"/>
<path d="M199.5 123C230.704 123 256 97.704 256 66.4999C256 35.2959 230.704 10 199.5 10C168.296 10 143 35.2959 143 66.4999C143 97.704 168.296 123 199.5 123Z" fill="#28C079"/>
<path d="M186.087 95.0117L167.143 76.5402C165.21 74.6501 165.167 71.6001 167.057 69.6671C168.947 67.734 171.997 67.6911 173.93 69.5812L186.001 81.3084L224.92 42.3894C226.81 40.4993 229.903 40.4993 231.793 42.3894C233.683 44.2795 233.683 47.3724 231.793 49.2625L186.087 95.0117Z" fill="white"/>
<defs>
<linearGradient id="paint0_linear_205_80" x1="112.976" y1="83.6642" x2="156.792" y2="85.1248" gradientUnits="userSpaceOnUse">
<stop stop-color="#F3F7FF"/>
<stop offset="1" stop-color="#BCCBF9"/>
</linearGradient>
<linearGradient id="paint1_linear_205_80" x1="119.863" y1="37.097" x2="167.763" y2="37.0923" gradientUnits="userSpaceOnUse">
<stop stop-color="#91A1D2"/>
<stop offset="0.666667" stop-color="#DEE6FF"/>
</linearGradient>
<linearGradient id="paint2_linear_205_80" x1="149.673" y1="84.6663" x2="171.629" y2="84.6663" gradientUnits="userSpaceOnUse">
<stop stop-color="#B0BFE9"/>
<stop offset="1" stop-color="#EEF2FF"/>
</linearGradient>
<linearGradient id="paint3_linear_205_80" x1="122.737" y1="25.7965" x2="159.716" y2="25.894" gradientUnits="userSpaceOnUse">
<stop stop-color="#B8CAFF"/>
<stop offset="1" stop-color="#9BB1F4"/>
</linearGradient>
<linearGradient id="paint4_linear_205_80" x1="111.712" y1="76.075" x2="149.817" y2="76.0713" gradientUnits="userSpaceOnUse">
<stop stop-color="#90A5E2"/>
<stop offset="1" stop-color="#C2CBE4"/>
<stop offset="1" stop-color="#C6D1F2"/>
<stop offset="1" stop-color="#F5F8FF"/>
</linearGradient>
<linearGradient id="paint5_linear_205_80" x1="149.777" y1="76.1536" x2="171.565" y2="76.1515" gradientUnits="userSpaceOnUse">
<stop stop-color="#8AA5F6"/>
<stop offset="1" stop-color="#DADBDE"/>
</linearGradient>
<linearGradient id="paint6_linear_205_80" x1="95.303" y1="61.0626" x2="75.4134" y2="61.0626" gradientUnits="userSpaceOnUse">
<stop stop-color="#C48F40"/>
<stop offset="1" stop-color="#DADBDE"/>
</linearGradient>
<linearGradient id="paint7_linear_205_80" x1="119.146" y1="118.748" x2="78.5959" y2="35.3519" gradientUnits="userSpaceOnUse">
<stop stop-color="#F7CF95"/>
<stop offset="1" stop-color="#D3A35B"/>
</linearGradient>
<linearGradient id="paint8_linear_205_80" x1="19.8911" y1="57.354" x2="91.3785" y2="89.5472" gradientUnits="userSpaceOnUse">
<stop stop-color="#FF7A00"/>
<stop offset="1" stop-color="#FFC28A"/>
</linearGradient>
<linearGradient id="paint9_linear_205_80" x1="13.4384" y1="79.7342" x2="64.8224" y2="102.874" gradientUnits="userSpaceOnUse">
<stop stop-color="#FF6B00"/>
<stop offset="1" stop-color="#FF9F47"/>
</linearGradient>
<linearGradient id="paint10_linear_205_80" x1="12.6611" y1="161.6" x2="174.846" y2="161.6" gradientUnits="userSpaceOnUse">
<stop stop-color="#D08E3E"/>
<stop offset="1" stop-color="#FFEBD3"/>
</linearGradient>
<linearGradient id="paint11_linear_205_80" x1="49.0024" y1="220.549" x2="47.6016" y2="60.1628" gradientUnits="userSpaceOnUse">
<stop stop-color="#D5A161"/>
</linearGradient>
<linearGradient id="paint12_linear_205_80" x1="130.349" y1="213.303" x2="156.614" y2="213.303" gradientUnits="userSpaceOnUse">
<stop stop-color="#EEC38B"/>
<stop offset="1" stop-color="#FFE9CE"/>
</linearGradient>
<linearGradient id="paint13_linear_205_80" x1="156.741" y1="213.43" x2="183.007" y2="213.43" gradientUnits="userSpaceOnUse">
<stop stop-color="#E7B473"/>
<stop offset="1" stop-color="#FFE5C2"/>
</linearGradient>
<linearGradient id="paint14_linear_205_80" x1="102.553" y1="213.303" x2="128.819" y2="213.303" gradientUnits="userSpaceOnUse">
<stop stop-color="#EEC38B"/>
<stop offset="1" stop-color="#FFE9CE"/>
</linearGradient>
<linearGradient id="paint15_linear_205_80" x1="83.4219" y1="213.303" x2="109.688" y2="213.303" gradientUnits="userSpaceOnUse">
<stop stop-color="white"/>
<stop offset="1" stop-color="#DADBDE"/>
</linearGradient>
<linearGradient id="paint16_linear_205_80" x1="139.527" y1="213.303" x2="165.793" y2="213.303" gradientUnits="userSpaceOnUse">
<stop stop-color="white"/>
<stop offset="1" stop-color="#DADBDE"/>
</linearGradient>
<linearGradient id="paint17_linear_205_80" x1="111.477" y1="213.303" x2="137.742" y2="213.303" gradientUnits="userSpaceOnUse">
<stop stop-color="white"/>
<stop offset="1" stop-color="#DADBDE"/>
</linearGradient>
<linearGradient id="paint18_linear_205_80" x1="152.321" y1="231.918" x2="189.634" y2="231.918" gradientUnits="userSpaceOnUse">
<stop stop-color="#B68649"/>
<stop offset="1" stop-color="#E9B879"/>
</linearGradient>
<linearGradient id="paint19_linear_205_80" x1="76.9131" y1="220.499" x2="158.77" y2="220.244" gradientUnits="userSpaceOnUse">
<stop stop-color="#B68649"/>
<stop offset="1" stop-color="#E9B777"/>
</linearGradient>
</defs>
</svg>
