<svg width="93" height="98" viewBox="0 0 93 98" fill="none" xmlns="http://www.w3.org/2000/svg">
<path d="M59.0045 45.0863C59.0045 45.0863 84.055 50.8294 83.6807 42.0785C83.3023 33.3058 59.3982 42.7803 59.3982 42.7803L59.0045 45.0863Z" fill="#3BC49A"/>
<path d="M58.1279 42.561C58.1279 42.561 71.5406 20.6214 77.5272 27.0168C83.5397 33.4298 60.0481 43.8847 60.0481 43.8847L58.1279 42.561Z" fill="#3BC49A"/>
<path d="M57.534 44.353C57.534 44.353 85.7647 21.7713 90.3618 32.6347C94.5205 42.5 59.05 46.2158 59.05 46.2158L57.534 44.353Z" fill="#44D0A7"/>
<path d="M4.59279 64.4499C5.10699 64.7236 5.73969 64.8508 6.45671 64.7703L11.2802 64.2441L11.3019 64.24L21.5312 63.1103L23.4172 62.8969L37.0359 61.4021L39.6736 61.1128L48.5036 60.1488C49.3858 60.048 50.2643 59.8691 51.1086 59.6291C51.8136 59.4269 52.5104 59.1813 53.173 58.8746C56.5289 57.3891 59.2569 54.7389 60.6245 51.2779C61.7702 48.3664 61.8132 45.4625 60.998 42.9026C60.9135 42.637 60.816 42.3627 60.7098 42.1013C59.3081 38.5942 56.2546 35.8192 52.2533 34.6899C51.2529 34.4076 50.234 34.264 49.2141 34.2333C46.3671 34.1344 43.5163 34.9602 41.0716 36.4971L39.0638 37.7253L36.9556 39.0178L26.4496 45.4283L24.5422 46.5923L12.1681 54.1368L11.0289 54.8387L4.39876 58.8871C2.04205 60.2946 2.5702 63.4162 4.59279 64.4499Z" fill="url(#paint0_linear_12_687)"/>
<path opacity="0.1" d="M11.2901 64.2322L48.5047 60.1498C53.8671 59.5546 58.6802 56.2586 60.6386 51.2878C61.7843 48.3762 61.8273 45.4723 61.012 42.9125C60.9275 42.6469 60.8301 42.3725 60.7239 42.1111C52.3864 53.6852 24.9662 61.149 11.2901 64.2322Z" fill="black"/>
<path opacity="0.1" d="M49.2164 34.2351L53.2232 43.5999L52.2468 34.7047C51.2464 34.4223 50.2363 34.2658 49.2164 34.2351Z" fill="black"/>
<path opacity="0.1" d="M48.7613 48.7425L51.1006 59.6423C51.8057 59.4402 52.5025 59.1945 53.1651 58.8878L48.7613 48.7425Z" fill="black"/>
<path opacity="0.1" d="M36.935 39.0233L40.6645 47.348L39.065 37.7267L36.935 39.0233Z" fill="black"/>
<path opacity="0.1" d="M35.4334 52.5926L37.0358 61.4021L39.6647 61.1258L35.4334 52.5926Z" fill="black"/>
<path opacity="0.1" d="M24.5126 46.6103L27.5373 51.6555L26.4288 45.4334L24.5126 46.6103Z" fill="black"/>
<path opacity="0.1" d="M20.4271 55.8508L21.5309 63.1105L23.4081 62.91L20.4271 55.8508Z" fill="black"/>
<path opacity="0.1" d="M10.9935 54.834L12.7944 58.3663L12.124 54.1451L10.9935 54.834Z" fill="black"/>
<path d="M55.6899 61.6634C55.6899 61.6634 73.7045 65.7859 73.43 59.506C73.1601 53.1915 55.9736 60.0206 55.9736 60.0206L55.6899 61.6634Z" fill="#3BC49A"/>
<path d="M55.0557 59.8328C55.0557 59.8328 64.6891 44.0678 68.9899 48.6554C73.3166 53.2606 56.4192 60.7782 56.4192 60.7782L55.0557 59.8328Z" fill="#3BC49A"/>
<path d="M54.6289 61.1322C54.6289 61.1322 74.933 44.897 78.2156 52.7099C81.2136 59.7996 55.7068 62.4702 55.7068 62.4702L54.6289 61.1322Z" fill="#44D0A7"/>
<path d="M16.585 75.57C16.9609 75.7687 17.416 75.8508 17.9244 75.7989L21.4008 75.4171C21.4008 75.4171 21.4008 75.4171 21.4137 75.4259L28.775 74.6183L30.1308 74.4609L39.9211 73.3925L41.8071 73.179L48.1516 72.4753C48.7904 72.3985 49.421 72.2781 50.0303 72.1055C50.5438 71.9624 51.0402 71.7888 51.5154 71.5629C53.9256 70.4945 55.8959 68.5974 56.873 66.1011C57.7032 64.016 57.7216 61.928 57.1432 60.0778C57.0841 59.8863 57.012 59.686 56.9312 59.4986C55.9202 56.9761 53.7239 54.9727 50.857 54.179C50.1424 53.9774 49.401 53.871 48.6762 53.8516C46.6234 53.7814 44.5864 54.3842 42.8229 55.4756L41.3694 56.3615L39.8461 57.2944L32.2864 61.9033L30.9028 62.742L22.0117 68.1683L21.1955 68.6733L16.4334 71.5877C14.7533 72.5844 15.1242 74.8234 16.585 75.57Z" fill="url(#paint1_linear_12_687)"/>
<path opacity="0.1" d="M21.4004 75.4176L48.1511 72.4757C52.0143 72.054 55.4692 69.6707 56.8726 66.1016C57.7028 64.0164 57.7212 61.9284 57.1427 60.0782C57.0837 59.8867 57.0116 59.6864 56.9308 59.499C50.9271 67.8334 31.2182 73.1946 21.4004 75.4176Z" fill="black"/>
<path opacity="0.1" d="M48.6546 53.8555L51.5386 60.5839L50.8483 54.1918C50.1208 53.9813 49.3923 53.8837 48.6546 53.8555Z" fill="black"/>
<path opacity="0.1" d="M48.3362 64.2931L50.0211 72.1179C50.5346 71.9748 51.031 71.8012 51.5062 71.5753L48.3362 64.2931Z" fill="black"/>
<path opacity="0.1" d="M39.8464 57.2946L42.5112 63.2873L41.3609 56.3746L39.8464 57.2946Z" fill="black"/>
<path opacity="0.1" d="M38.7442 67.0483L39.9083 73.3838L41.7855 73.1833L38.7442 67.0483Z" fill="black"/>
<path opacity="0.1" d="M30.9027 62.7426L33.0717 66.3737L32.2775 61.9169L30.9027 62.7426Z" fill="black"/>
<path opacity="0.1" d="M27.9709 69.3981L28.7628 74.6103L30.1099 74.4659L27.9709 69.3981Z" fill="black"/>
<path opacity="0.1" d="M21.1826 68.6642L22.4886 71.198L22.0118 68.1679L21.1826 68.6642Z" fill="black"/>
<defs>
<linearGradient id="paint0_linear_12_687" x1="63.0282" y1="55.6657" x2="15.6302" y2="47.3493" gradientUnits="userSpaceOnUse">
<stop stop-color="#FF7A00"/>
<stop offset="1" stop-color="#FFC28A"/>
</linearGradient>
<linearGradient id="paint1_linear_12_687" x1="58.5844" y1="69.2543" x2="24.5154" y2="63.2765" gradientUnits="userSpaceOnUse">
<stop stop-color="#FF6B00"/>
<stop offset="1" stop-color="#FF9F47"/>
</linearGradient>
</defs>
</svg>
