<svg width="86" height="36" viewBox="0 0 86 36" fill="none" xmlns="http://www.w3.org/2000/svg">
<path d="M48.772 26.7427C54.2442 26.7427 58.6803 20.7562 58.6803 13.3714C58.6803 5.98656 54.2442 0 48.772 0C43.2999 0 38.8638 5.98656 38.8638 13.3714C38.8638 20.7562 43.2999 26.7427 48.772 26.7427Z" fill="url(#paint0_linear_12_725)"/>
<path d="M68.6861 26.8389C74.1583 26.8389 78.5944 20.8524 78.5944 13.4676C78.5944 6.08276 74.1583 0.0961914 68.6861 0.0961914C63.2139 0.0961914 58.7778 6.08276 58.7778 13.4676C58.7778 20.8524 63.2139 26.8389 68.6861 26.8389Z" fill="url(#paint1_linear_12_725)"/>
<path d="M27.8013 26.7427C33.2735 26.7427 37.7096 20.7562 37.7096 13.3714C37.7096 5.98656 33.2735 0 27.8013 0C22.3292 0 17.8931 5.98656 17.8931 13.3714C17.8931 20.7562 22.3292 26.7427 27.8013 26.7427Z" fill="url(#paint2_linear_12_725)"/>
<path d="M13.3707 26.7427C18.8429 26.7427 23.279 20.7562 23.279 13.3714C23.279 5.98656 18.8429 0 13.3707 0C7.89849 0 3.4624 5.98656 3.4624 13.3714C3.4624 20.7562 7.89849 26.7427 13.3707 26.7427Z" fill="url(#paint3_linear_12_725)"/>
<path d="M55.6973 26.7427C61.1695 26.7427 65.6056 20.7562 65.6056 13.3714C65.6056 5.98656 61.1695 0 55.6973 0C50.2251 0 45.7891 5.98656 45.7891 13.3714C45.7891 20.7562 50.2251 26.7427 55.6973 26.7427Z" fill="url(#paint4_linear_12_725)"/>
<path d="M34.5343 26.7427C40.0064 26.7427 44.4425 20.7562 44.4425 13.3714C44.4425 5.98656 40.0064 0 34.5343 0C29.0621 0 24.626 5.98656 24.626 13.3714C24.626 20.7562 29.0621 26.7427 34.5343 26.7427Z" fill="url(#paint5_linear_12_725)"/>
<path d="M83.593 19.7202V22.4137L73.9733 35.1117H66.2775L65.5079 32.803H62.4296L60.6981 35.1117H47.0381L45.1142 32.6106H39.3424L37.6109 35.1117H27.414L25.49 32.6106H19.5258L17.6019 35.1117H11.6377L2.97998 24.7225V19.7202H83.593Z" fill="#B68649"/>
<path d="M83.5945 19.7202V22.4137L73.9748 35.1117H66.279L65.5095 32.803H62.4312L60.6996 35.1117H55.4473L62.8737 19.7202H83.5945Z" fill="url(#paint6_linear_12_725)"/>
<path d="M86 16.3535H0V20.971H86V16.3535Z" fill="url(#paint7_linear_12_725)"/>
<path d="M86 16.3535H60.2192V20.971H86V16.3535Z" fill="#B68649"/>
<defs>
<linearGradient id="paint0_linear_12_725" x1="38.8638" y1="13.3714" x2="58.6803" y2="13.3714" gradientUnits="userSpaceOnUse">
<stop stop-color="#EEC38B"/>
<stop offset="1" stop-color="#FFE9CE"/>
</linearGradient>
<linearGradient id="paint1_linear_12_725" x1="58.7778" y1="13.4676" x2="78.5944" y2="13.4676" gradientUnits="userSpaceOnUse">
<stop stop-color="#E7B473"/>
<stop offset="1" stop-color="#FFE5C2"/>
</linearGradient>
<linearGradient id="paint2_linear_12_725" x1="17.8931" y1="13.3714" x2="37.7096" y2="13.3714" gradientUnits="userSpaceOnUse">
<stop stop-color="#EEC38B"/>
<stop offset="1" stop-color="#FFE9CE"/>
</linearGradient>
<linearGradient id="paint3_linear_12_725" x1="3.4624" y1="13.3714" x2="23.279" y2="13.3714" gradientUnits="userSpaceOnUse">
<stop stop-color="white"/>
<stop offset="1" stop-color="#DADBDE"/>
</linearGradient>
<linearGradient id="paint4_linear_12_725" x1="45.7891" y1="13.3714" x2="65.6056" y2="13.3714" gradientUnits="userSpaceOnUse">
<stop stop-color="white"/>
<stop offset="1" stop-color="#DADBDE"/>
</linearGradient>
<linearGradient id="paint5_linear_12_725" x1="24.626" y1="13.3714" x2="44.4425" y2="13.3714" gradientUnits="userSpaceOnUse">
<stop stop-color="white"/>
<stop offset="1" stop-color="#DADBDE"/>
</linearGradient>
<linearGradient id="paint6_linear_12_725" x1="55.4435" y1="27.416" x2="83.5945" y2="27.416" gradientUnits="userSpaceOnUse">
<stop stop-color="#B68649"/>
<stop offset="1" stop-color="#E9B879"/>
</linearGradient>
<linearGradient id="paint7_linear_12_725" x1="-1.44999" y1="18.8007" x2="60.3084" y2="18.6083" gradientUnits="userSpaceOnUse">
<stop stop-color="#B68649"/>
<stop offset="1" stop-color="#E9B777"/>
</linearGradient>
</defs>
</svg>
