<svg width="276" height="169" viewBox="0 0 276 169" fill="none" xmlns="http://www.w3.org/2000/svg">
<path d="M45.9896 153.061C45.9896 153.061 45.4412 161.858 45.2757 163.116C45.1626 163.939 46.0418 164.487 46.6469 164.6C47.2519 164.713 63.6752 164.6 65.103 164.6C66.5307 164.6 64.8853 161.906 62.4913 161.249C60.0972 160.591 55.0174 156.961 54.4124 153.888C53.8073 150.815 47.4913 151.633 45.9896 153.061Z" fill="#FED81D"/>
<path d="M4.49825 149.391C4.49825 149.391 0.767863 156.295 0.145407 157.248C-0.255056 157.871 0.24987 158.646 0.698214 158.959C1.14656 159.272 14.4793 165.327 15.6328 165.854C16.7863 166.381 16.4642 163.595 14.7623 162.158C13.0603 160.722 10.3267 155.903 10.9884 153.191C11.65 150.48 6.24375 148.795 4.49825 149.391Z" fill="#FED81D"/>
<path d="M60.6761 69.7909L32.2172 60.6499C32.2172 60.6499 22.1708 104.662 21.2915 106.024C20.4122 107.386 2.63956 150.602 2.7919 150.902C2.94426 151.202 12.3203 155.255 12.3203 155.255C12.3203 155.255 29.9493 125.925 33.4403 120.493C36.2697 116.092 44.0613 90.8238 44.0613 90.8238L44.4965 155.246L56.0534 155.681C56.0534 155.681 60.8676 69.2207 60.6761 69.7909Z" fill="#683F1D"/>
<path d="M47.3521 84.9736C46.142 84.9736 45.698 85.6744 45.3802 86.5015C45.0624 87.3285 44.0743 90.8195 44.0743 90.8195" stroke="#91613D" stroke-width="0.71" stroke-linecap="round" stroke-linejoin="round"/>
<path d="M51.9707 68.2456C51.9707 68.3849 49.0325 79.9156 48.5189 80.0549C47.8665 80.1273 47.2081 80.1273 46.5558 80.0549" stroke="#91613D" stroke-width="0.71" stroke-linecap="round" stroke-linejoin="round"/>
<path d="M49.084 67.1357C48.5529 70.0826 46.8162 77.7175 46.8162 77.7175" stroke="#91613D" stroke-width="0.71" stroke-linecap="round" stroke-linejoin="round"/>
<path d="M69.355 57.0326C69.5248 57.7987 72.3367 57.655 72.624 57.5462L71.4357 54.521C71.4357 54.521 69.1853 55.2087 69.355 57.0326Z" fill="#83ADDF"/>
<path d="M69.6862 53.6377C72.1673 61.2595 72.25 68.2153 81.108 65.164C89.9661 62.1126 80.5073 43.9961 80.5073 43.9961L69.6862 53.6377Z" fill="#FEBD9D"/>
<path d="M31.3594 59.1526C31.2767 62.5783 36.413 64.8113 41.1098 66.4044C42.4156 66.8397 43.6649 67.2358 44.7749 67.584C49.9025 69.212 59.1393 71.3928 60.6889 70.8182C61.9033 70.3612 65.8209 59.8186 67.4358 55.3438C67.8711 54.1294 68.1453 53.3633 68.1453 53.3633L69.3554 57.0197C70.313 56.0795 72.2152 55 74.3525 53.9727C78.775 51.8442 84.1855 49.9333 84.1855 49.9333C84.1855 49.9333 82.6229 41.8021 81.1081 36.4394C80.7903 35.3077 80.4726 34.2978 80.1722 33.5143C78.4311 28.9961 76.3678 27.4726 74.4352 27.4726C72.5025 27.4726 71.7408 27.0155 68.1453 25.3397C68.1453 25.3397 65.8949 23.333 61.5464 22.9543C57.1979 22.5756 50.9167 20.6647 45.8761 19.7506C45.633 19.7046 45.3874 19.6726 45.1405 19.6548C41.9673 19.4154 40.5004 21.7181 39.4818 24.3037C39.2816 24.813 39.1031 25.331 38.929 25.8489L38.4458 27.3202C38.1237 28.2604 37.4925 30.5892 36.7308 33.5927C34.6153 42.0633 31.4377 55.9271 31.3594 59.1526Z" fill="#FED81D"/>
<path d="M39.5121 24.2905C43.2773 23.3895 47.7477 23.9945 50.4943 26.5888C51.2536 27.2946 51.8635 28.1458 52.2877 29.0917C56.0007 37.2968 61.5332 40.8444 66.9307 36.6047C71.2313 33.2182 76.1674 32.3346 81.1079 36.4262C80.7902 35.2945 80.4724 34.2846 80.172 33.5011C78.4309 28.9829 76.3677 27.4594 74.435 27.4594C72.5023 27.4594 71.7406 27.0023 68.1451 25.3265C68.1451 25.3265 65.8947 23.3198 61.5462 22.9411C57.1977 22.5624 50.9166 20.6515 45.876 19.7374C45.6328 19.6914 45.3872 19.6594 45.1403 19.6417C41.9584 19.4023 40.5133 21.7049 39.5121 24.2905Z" fill="#FFE05C"/>
<path d="M68.1454 53.3635L69.3555 57.0199C70.3131 56.0797 72.2153 55.0002 74.3525 53.9729C71.7408 54.0513 69.6253 52.2318 71.4535 50.5429C73.2817 48.854 73.5864 45.4588 72.2762 42.8862L68.1454 53.3635Z" fill="#FCC71F"/>
<path d="M68.1449 53.3633L72.2758 42.8817L73.4902 39.8042" fill="#FCC71F"/>
<path d="M68.1449 53.3633L72.2758 42.8817L73.4902 39.8042" stroke="#F7AD2B" stroke-width="0.71" stroke-linecap="round" stroke-linejoin="round"/>
<path d="M31.3591 59.1525C31.2764 62.5782 36.4127 64.8112 41.1094 66.4044C41.6318 62.2082 37.0352 62.5173 35.4029 58.0774C32.4647 50.0812 38.5282 52.2794 41.9321 42.8816L40.9049 31.1289L38.9678 25.8271L38.4847 27.2984C38.1626 28.2386 37.5314 30.5674 36.7696 33.5709C34.615 42.0633 31.4374 55.9271 31.3591 59.1525Z" fill="#FED81D"/>
<path d="M59.3219 22.9413C59.5336 24.2108 60.083 25.3999 60.9124 26.3841C61.7418 27.3682 62.8207 28.111 64.036 28.5347C68.2931 30.0713 70.2258 28.1256 70.3738 26.2495C70.3738 26.1189 70.3955 25.984 70.4042 25.849C70.5479 23.7597 70.5435 21.4091 70.9135 17.2783C70.9639 16.5686 70.917 15.8554 70.7742 15.1584C69.9733 10.8448 66.2212 5.96957 63.5354 12.8819C59.7833 22.567 59.3219 22.9413 59.3219 22.9413Z" fill="#FEBD9D"/>
<path d="M70.4042 25.8493C70.5479 23.7599 70.5435 21.4094 70.9135 17.2785C70.9639 16.5689 70.917 15.8557 70.7742 15.1587C68.4411 15.2849 65.4507 16.2338 65.2113 18.4277C64.8544 21.7097 65.5116 25.4532 70.4042 25.8493Z" fill="#F4A789"/>
<path d="M40.9051 56.8674C40.9704 58.1428 44.666 58.0775 44.666 58.0775L43.5125 51.6919C42.638 52.2251 41.9303 52.9925 41.4694 53.9072C41.0086 54.8219 40.8131 55.8473 40.9051 56.8674Z" fill="#FCC71F"/>
<path d="M55.4521 49.2236C57.2672 57.5245 60.1836 62.8306 56.5795 67.1356C52.9753 71.4406 47.1773 68.5982 45.262 63.6141C43.3468 58.6301 41.9321 51.1694 41.9321 51.1694L55.4521 49.2236Z" fill="#FEBD9D"/>
<path d="M36.7611 33.5797C37.562 42.0678 40.9093 56.8675 40.9093 56.8675C40.9093 56.8675 43.3905 53.3852 56.5796 52.0401C56.5796 52.0401 54.3596 36.1218 50.4856 26.5891C48.9621 22.8108 47.1818 20.038 45.1795 19.6506H45.1447C40.1519 18.693 38.1148 21.148 37.2181 25.0743C36.9004 26.5611 36.6982 28.0702 36.6131 29.5882C36.5632 30.9205 36.6127 32.2547 36.7611 33.5797Z" fill="#FED81D"/>
<path d="M37.2267 25.0654C37.9621 24.7353 38.7273 24.4758 39.5119 24.2906C43.2771 23.3896 47.7475 23.9946 50.4941 26.5889C48.9706 22.8107 47.1903 20.0379 45.188 19.6505H45.1532C40.1605 18.6842 38.1234 21.1392 37.2267 25.0654Z" fill="#FFE05C"/>
<path d="M37.0139 35.8169C38.0977 44.4268 40.9097 56.8673 40.9097 56.8673" stroke="#F7AD2B" stroke-width="0.71" stroke-linecap="round" stroke-linejoin="round"/>
<path d="M56.5669 52.0401C56.5669 52.0401 51.7788 32.8876 50.3336 32.2129" stroke="#F7AD2B" stroke-width="0.71" stroke-linecap="round" stroke-linejoin="round"/>
<path d="M62.3787 12.7689C62.5102 13.9435 62.7255 15.1072 63.0229 16.2511C64.7118 22.9241 71.3673 24.7305 73.9616 21.0872C74.7625 19.9598 74.9845 17.7877 74.7103 15.4067C74.617 14.6073 74.4716 13.8148 74.275 13.0344C73.86 11.1738 73.1107 9.40401 72.0638 7.81097C71.1323 6.47464 69.9831 5.53007 68.6555 5.29937C65.7565 4.79444 63.6192 5.66501 62.7269 8.12002C62.4489 8.95266 62.302 9.82348 62.2916 10.7013C62.2742 11.3916 62.3033 12.0824 62.3787 12.7689Z" fill="#FEBD9D"/>
<path d="M62.3788 12.7689C63.0389 13.1441 63.7272 13.4672 64.4377 13.7352C65.1864 13.9703 65.7871 13.8179 65.7435 13.2608C65.7 12.7036 65.4388 10.4358 67.1974 9.2866C68.9559 8.13745 64.22 7.75439 64.22 7.75439L62.7531 8.1418C62.4751 8.97444 62.3282 9.84526 62.3178 10.723C62.2927 11.4056 62.3131 12.089 62.3788 12.7689Z" fill="#DD6819"/>
<path d="M69.6089 12.399C69.3853 12.399 69.204 12.2177 69.204 11.9942C69.204 11.7706 69.3853 11.5894 69.6089 11.5894C69.8324 11.5894 70.0137 11.7706 70.0137 11.9942C70.0137 12.2177 69.8324 12.399 69.6089 12.399Z" fill="#683F1D"/>
<path d="M72.7734 11.8111C72.7734 11.9184 72.7308 12.0214 72.6549 12.0973C72.579 12.1732 72.476 12.2159 72.3686 12.2159C72.2613 12.2159 72.1583 12.1732 72.0824 12.0973C72.0065 12.0214 71.9638 11.9184 71.9638 11.8111C71.9638 11.7037 72.0065 11.6007 72.0824 11.5248C72.1583 11.4489 72.2613 11.4062 72.3686 11.4062C72.476 11.4062 72.579 11.4489 72.6549 11.5248C72.7308 11.6007 72.7734 11.7037 72.7734 11.8111Z" fill="#683F1D"/>
<path d="M62.2871 10.7231C64.8988 9.96572 69.6347 8.5467 72.0723 7.83283C71.1408 6.49651 69.9916 5.55194 68.664 5.32123C64.9118 4.66831 62.4177 6.32674 62.2871 10.7231Z" fill="#DD6819"/>
<path d="M64.4375 13.7354C64.2242 12.3207 61.9999 11.1455 60.7985 12.2511C59.2881 13.644 60.4285 16.3819 63.2492 16.6649C63.3754 16.6649 64.4375 13.7354 64.4375 13.7354Z" fill="#FEBD9D"/>
<path d="M62.1569 16.4077C62.7991 16.7036 63.5196 16.7845 64.2114 16.6384" stroke="#EF8A66" stroke-width="0.71" stroke-linecap="round" stroke-linejoin="round"/>
<path d="M64.0371 14.8106C63.8499 13.9008 62.518 12.8257 61.5473 13.2609" stroke="#EF8A66" stroke-width="0.71" stroke-linecap="round" stroke-linejoin="round"/>
<path d="M63.6973 14.1182C62.5742 13.0517 61.1987 15.0105 62.8267 15.424" stroke="#EF8A66" stroke-width="0.71" stroke-linecap="round" stroke-linejoin="round"/>
<path d="M72.6644 15.141C72.8864 13.9353 72.6644 13.2867 71.9635 12.908C71.2627 12.5293 70.5402 11.9678 70.6969 10.897" stroke="#EF8A66" stroke-width="0.71" stroke-linecap="round" stroke-linejoin="round"/>
<path d="M70.1096 9.80453C70.2228 10.4923 67.9811 11.019 67.881 10.5053C67.7809 9.99171 69.9268 8.65538 70.1096 9.80453Z" fill="#DD6819"/>
<path d="M73.1826 10.1962C73.1826 10.4704 71.0453 10.5749 71.1063 9.65206C71.1672 8.72926 73.2479 9.51713 73.1826 10.1962Z" fill="#DD6819"/>
<path d="M71.7109 16.3032C70.6097 16.5296 69.3386 16.1465 69.0426 14.6187" stroke="#EF8A66" stroke-width="0.71" stroke-linecap="round" stroke-linejoin="round"/>
<path d="M64.8379 13.3915C64.5854 13.9922 65.1557 14.7975 66.1046 15.198C67.0535 15.5984 68.0285 15.433 68.281 14.8323C68.5335 14.2316 67.9632 13.422 67.0143 13.0259C66.0654 12.6298 65.0904 12.7908 64.8379 13.3915Z" fill="#F4AF90"/>
<path d="M73.496 15.1454C73.6513 15.3019 73.8486 15.4102 74.064 15.4573C74.2795 15.5044 74.504 15.4883 74.7104 15.4109C74.6171 14.6115 74.4717 13.819 74.2752 13.0386C74.2603 13.0462 74.247 13.0566 74.236 13.069C73.4307 13.7002 73.0955 14.6274 73.496 15.1454Z" fill="#F4AF90"/>
<path d="M147.657 2H84.6925C82.1521 2 80.0928 4.05937 80.0928 6.59972V160.595C80.0928 163.135 82.1521 165.195 84.6925 165.195H147.657C150.197 165.195 152.257 163.135 152.257 160.595V6.59972C152.257 4.05937 150.197 2 147.657 2Z" fill="white" stroke="#F1B104" stroke-width="3" stroke-linecap="round" stroke-linejoin="round"/>
<path d="M147.586 44.6592H84.9805" stroke="#F1B104" stroke-width="3" stroke-linecap="round" stroke-linejoin="round"/>
<path d="M89.9321 78.8201L92.7355 65.1012C92.7763 64.9025 92.8566 64.7141 92.9716 64.5471C93.0867 64.3801 93.2341 64.238 93.4052 64.1291C93.5763 64.0203 93.7675 63.9469 93.9675 63.9134C94.1675 63.88 94.3722 63.887 94.5694 63.9342C94.7667 63.9815 94.9526 64.068 95.1158 64.1886C95.279 64.3092 95.4163 64.4614 95.5195 64.6361C95.6227 64.8109 95.6897 65.0046 95.7164 65.2058C95.7432 65.4069 95.7292 65.6114 95.6753 65.8071L91.9401 79.3022C91.8682 79.5608 91.6988 79.7814 91.4674 79.9175C91.2361 80.0535 90.961 80.0945 90.7001 80.0316C90.4404 79.9679 90.2154 79.8062 90.0723 79.5804C89.9291 79.3546 89.8789 79.0821 89.9321 78.8201Z" fill="#FFE6AA" stroke="#F1B104" stroke-width="3" stroke-linecap="round" stroke-linejoin="round"/>
<path d="M104.606 14.1553H95.2153V23.546H104.606V14.1553Z" stroke="#F1B104" stroke-width="3" stroke-linecap="round" stroke-linejoin="round"/>
<path d="M103.706 14.9702H96.1177V21.3762H103.706V14.9702Z" fill="#FFE6AA"/>
<path d="M125.449 14.1553H112.5V33.0603H125.449V14.1553Z" fill="#EBF4F7"/>
<path d="M115.523 18.5098H114.438V19.0758H115.523V18.5098Z" fill="#F1B104"/>
<path d="M123.512 18.5098H116.54V19.0758H123.512V18.5098Z" fill="#F1B104"/>
<path d="M115.523 20.1846H114.438V20.7506H115.523V20.1846Z" fill="#F1B104"/>
<path d="M123.512 20.1846H116.54V20.7506H123.512V20.1846Z" fill="#F1B104"/>
<path d="M115.523 21.8594H114.438V22.4254H115.523V21.8594Z" fill="#F1B104"/>
<path d="M123.512 21.8594H116.54V22.4254H123.512V21.8594Z" fill="#F1B104"/>
<path d="M115.523 23.5322H114.438V24.0983H115.523V23.5322Z" fill="#F1B104"/>
<path d="M123.512 23.5322H116.54V24.0983H123.512V23.5322Z" fill="#F1B104"/>
<path d="M115.523 26.8804H114.438V27.4464H115.523V26.8804Z" fill="#F1B104"/>
<path d="M123.512 26.8804H116.54V27.4464H123.512V26.8804Z" fill="#F1B104"/>
<path d="M115.523 25.2075H114.438V25.7735H115.523V25.2075Z" fill="#F1B104"/>
<path d="M123.512 25.2075H116.54V25.7735H123.512V25.2075Z" fill="#F1B104"/>
<path d="M119.233 13.4771H118.333V14.9704H119.233V13.4771Z" fill="#F1B104"/>
<path d="M47.6636 67.5697C49.3655 72.5754 61.7276 72.5232 66.6986 73.1021C71.4867 73.6549 83.7966 74.8433 83.7966 74.8433C83.7966 74.8433 89.3116 77.32 92.3543 77.7597C95.3969 78.1993 95.4013 77.2069 95.4578 76.2188C95.5144 75.2307 96.1021 74.9129 95.8409 74.1337C95.5797 73.3546 96.7115 72.5841 96.5025 71.5438C96.2936 70.5035 97.878 71.596 97.9303 69.7809C97.9825 67.9658 93.0159 68.1312 91.3749 67.9658L91.5882 66.6599C91.5882 66.6599 89.8993 66.1245 89.1332 66.2246C88.3671 66.3247 86.1602 67.2824 85.2156 66.9515C84.271 66.6207 65.8367 59.5517 62.2282 58.3112C57.2529 56.6266 43.9288 56.5787 47.6636 67.5697Z" fill="#FEBD9D"/>
<path d="M62.2324 58.3287C59.3858 57.4662 56.3792 57.2682 53.444 57.7498" stroke="#EF8A66" stroke-width="0.71" stroke-linecap="round" stroke-linejoin="round"/>
<path d="M92.3543 77.7467C95.4013 78.182 95.4013 77.1939 95.4578 76.2058C95.5144 75.2177 96.1021 74.9 95.8409 74.1208C95.5797 73.3416 96.7115 72.5712 96.5025 71.5309C96.2936 70.4905 97.878 71.5831 97.9303 69.768C97.9825 67.9528 93.0159 68.1182 91.3749 67.9528L91.5882 66.647C91.5882 66.647 89.8993 66.1116 89.1332 66.2117" stroke="#EF8A66" stroke-width="0.71" stroke-linecap="round" stroke-linejoin="round"/>
<path d="M91.375 67.9526C90.474 67.9831 88.8112 67.9526 88.8112 67.9526" stroke="#EF8A66" stroke-width="0.71" stroke-linecap="round" stroke-linejoin="round"/>
<path d="M82.8696 66.0769L71.5043 61.7632" stroke="#EF8A66" stroke-width="0.71" stroke-linecap="round" stroke-linejoin="round"/>
<path d="M139.833 78.2959C139.833 81.6482 137.978 84.5071 135.364 85.6258H130.483C127.874 84.5034 126.019 81.6482 126.019 78.2959C126.019 75.3425 127.461 72.7712 129.59 71.4317C129.787 71.3099 129.949 71.14 130.061 70.9381C130.174 70.7362 130.233 70.509 130.234 70.2778C130.234 70.0488 130.176 69.8234 130.066 69.6227C129.956 69.4219 129.797 69.2523 129.603 69.1295L128.917 68.6916C128.874 68.6643 128.842 68.6238 128.824 68.5763C128.806 68.5288 128.805 68.4769 128.819 68.4283C128.834 68.3798 128.863 68.3373 128.904 68.3071C128.945 68.277 128.994 68.2609 129.045 68.2612H135.419C135.482 68.2608 135.543 68.2739 135.6 68.2996C135.657 68.3253 135.707 68.3629 135.748 68.41C135.789 68.457 135.819 68.5124 135.837 68.5722C135.854 68.632 135.859 68.6949 135.85 68.7566L135.625 70.2778C135.625 70.5089 135.684 70.736 135.797 70.9379C135.909 71.1398 136.071 71.3098 136.267 71.4317C138.389 72.7712 139.833 75.3425 139.833 78.2959Z" fill="white"/>
<path d="M138.892 78.3349C138.892 81.7595 137.002 84.6814 134.343 85.8242H129.377C126.719 84.6833 124.828 81.7595 124.828 78.3349C124.828 75.3165 126.296 72.6895 128.464 71.326C128.664 71.2007 128.829 71.0267 128.943 70.8203C129.057 70.6139 129.117 70.3819 129.117 70.1461V70.1461C129.117 69.9127 129.059 69.683 128.947 69.4781C128.835 69.2733 128.674 69.0998 128.477 68.9736L127.778 68.5265C127.734 68.4987 127.7 68.4573 127.682 68.4086C127.664 68.36 127.662 68.3066 127.676 68.2568C127.691 68.2069 127.721 68.1631 127.763 68.1321C127.805 68.1011 127.856 68.0846 127.908 68.085H134.401C134.464 68.0848 134.527 68.0984 134.585 68.1247C134.643 68.1511 134.694 68.1897 134.736 68.2378C134.778 68.2858 134.808 68.3423 134.826 68.4034C134.844 68.4644 134.848 68.5286 134.839 68.5914L134.609 70.1461C134.608 70.3825 134.667 70.6153 134.78 70.8227C134.894 71.0301 135.058 71.2052 135.258 71.3315C137.425 72.6895 138.892 75.3183 138.892 78.3349Z" stroke="#F1B104" stroke-width="3" stroke-miterlimit="10"/>
<path d="M136.557 72.4443H137.707C138.7 72.4443 139.652 72.8388 140.355 73.5409C141.057 74.243 141.451 75.1952 141.451 76.1881V77.8244C141.451 78.5857 141.148 79.3157 140.609 79.8539C140.071 80.392 139.341 80.6943 138.579 80.6943V80.6943" stroke="#F1B104" stroke-width="3" stroke-miterlimit="10"/>
<path d="M178.151 70.5933C179.19 69.2531 180.396 68.0666 181.737 67.066C186.836 63.2767 187.58 59.8323 185.861 57.4864C184.141 55.1405 182.232 55.9017 181.02 57.1227C179.808 58.3437 177.104 62.1311 178.151 70.5933Z" fill="#AEA61F"/>
<path d="M182.513 70.7553C182.513 70.7553 185.289 67.6822 190.599 69.4922C195.908 71.3023 192.622 76.538 189.003 76.4444C185.385 76.3507 186.885 71.1389 182.513 70.7553Z" fill="#AEA61F"/>
<path d="M175.825 68.9212C175.825 68.9212 174.706 63.0296 170.568 61.71C166.429 60.3905 163.536 63.4997 164.865 66.2331C166.195 68.9666 173.523 65.5343 175.825 68.9212Z" fill="#AEA61F"/>
<path d="M177.658 77.6994C177.658 77.6994 176.06 68.3727 182.931 61.8149" stroke="#9F9300" stroke-width="3" stroke-miterlimit="10"/>
<path d="M177.497 76.0274C177.497 76.0274 182.317 66.2557 189.201 72.9194" stroke="#9F9300" stroke-width="3" stroke-miterlimit="10"/>
<path d="M177.49 75.1915C177.49 75.1915 178.023 66.2968 169.555 64.3232" stroke="#9F9300" stroke-width="3" stroke-miterlimit="10"/>
<path d="M172.899 77.6997H183.349V81.0429C183.349 82.2627 182.885 83.4324 182.059 84.2949C181.233 85.1574 180.112 85.6419 178.944 85.6419H177.304C176.136 85.6419 175.015 85.1574 174.189 84.2949C173.363 83.4324 172.899 82.2627 172.899 81.0429V77.6997Z" fill="#F1B104"/>
<path d="M215.465 86.0596H113.613C112.65 86.0596 111.87 86.8402 111.87 87.8033V88.4497C111.87 89.4127 112.65 90.1934 113.613 90.1934H215.465C216.428 90.1934 217.209 89.4127 217.209 88.4497V87.8033C217.209 86.8402 216.428 86.0596 215.465 86.0596Z" fill="white" stroke="#F1B104" stroke-width="3" stroke-miterlimit="10"/>
<path d="M212.26 90.1934H208.274V166.546H212.26V90.1934Z" fill="white" stroke="#F1B104" stroke-width="3" stroke-miterlimit="10"/>
<path d="M120.804 90.1934H116.82V166.546H120.804V90.1934Z" fill="white" stroke="#F1B104" stroke-width="3" stroke-miterlimit="10"/>
<path d="M116.82 90.1934H120.804V91.8979L116.82 91.4726V90.1934Z" fill="#F1B104"/>
<path d="M212.26 90.1934V92.0051L208.274 91.4726V90.1934H212.26Z" fill="#F1B104"/>
<path d="M239.299 153.418C239.299 156.28 240.039 160.608 238.408 160.608H222.981C222.387 160.608 222.548 158.651 224.186 158.208C225.825 157.764 230.024 154.559 230.421 153.418H239.299Z" fill="#683F1D"/>
<path d="M228.217 78.4104L228.267 153.801H238.365V74.5474L228.217 78.4104Z" fill="#C3DCF8"/>
<path d="M235.271 79.9487C235.174 82.356 235.925 83.5006 236.626 83.6902" stroke="#83ADDF" stroke-width="0.75" stroke-linecap="round" stroke-linejoin="round"/>
<path d="M247.993 155.811C247.993 158.791 248.758 163.258 247.066 163.258H231.095C230.476 163.258 230.645 161.234 232.34 160.754C234.036 160.275 238.389 156.977 238.779 155.797L247.993 155.811Z" fill="#683F1D"/>
<path d="M232.339 160.769C234.034 160.308 238.387 156.992 238.777 155.812" stroke="#91613D" stroke-width="0.75" stroke-linecap="round" stroke-linejoin="round"/>
<path d="M255.035 78.4104C254.76 90.7079 249.538 156.334 249.538 156.334C249.538 156.334 237.419 156.087 237.419 156.334V77.2837L255.035 78.4104Z" fill="#C3DCF8"/>
<path d="M237.419 156.334V86.312" stroke="#83ADDF" stroke-width="0.75" stroke-linecap="round" stroke-linejoin="round"/>
<path d="M247.108 35.3766C246.947 35.3874 246.785 35.3874 246.625 35.3766C244.142 35.1548 242.69 32.4471 242.332 30.3689C241.975 28.1584 240.798 27.7828 240.086 27.1103C239.374 26.4379 238.423 25.422 238.974 23.7373C239.524 22.0526 240.462 18.7725 237.575 18.7082C236.112 18.6724 235.264 17.4634 234.789 16.2794C234.502 15.5375 234.309 14.7624 234.216 13.9723C239.013 11.6116 241.299 12.9601 243.284 14.9452C245.269 16.9304 244.174 18.8226 245.233 21.4016C246.306 24.0449 250.552 24.3525 250.777 28.1977C251.003 32.0429 249.88 35.2621 247.108 35.3766Z" fill="#604730"/>
<path d="M247.254 33.2019C247.104 33.9392 246.893 34.663 246.625 35.3659C244.142 35.1441 242.69 32.4364 242.332 30.3582C241.975 28.1477 240.798 27.7721 240.086 27.0996C239.374 26.4272 238.423 25.4113 238.974 23.7266C239.524 22.0419 240.462 18.7618 237.575 18.6975C236.112 18.6617 235.264 17.4527 234.789 16.2687C239.607 14.0797 242.093 15.353 242.497 17.2345C242.933 19.2447 239.7 21.8559 242.497 24.3418C245.294 26.8278 248.706 26.4522 247.254 33.2019Z" fill="#473526"/>
<path d="M232.86 42.1082C228.925 42.3228 226.865 39.726 226.997 38.0377C227.065 37.2078 227.223 35.1296 227.394 32.7295C227.548 30.612 227.716 28.2369 227.849 26.2267C227.87 25.8976 227.891 25.5757 227.909 25.2681C228.339 18.4397 234.988 16.4259 235.725 24.3488C235.965 26.917 237.088 30.941 237.814 34.3642C238.565 37.866 236.798 41.8936 232.86 42.1082Z" fill="#FEBD9D"/>
<path d="M227.381 32.7297C227.535 30.6121 227.703 28.2371 227.836 26.2268L232.217 25.1108C233.262 28.8094 231.895 32.6009 227.381 32.7297Z" fill="#F4A789"/>
<path d="M256.225 40.9743C256.189 42.3049 256.081 43.6927 255.928 45.0949C255.538 48.6718 254.855 52.3811 254.386 55.4894C254.028 57.8824 253.789 59.9283 253.91 61.3126C254.107 63.584 254.322 66.678 254.508 69.5753C254.805 74.1931 255.033 78.4103 255.033 78.4103H228.207C228.207 78.4103 217.261 62.2605 215.623 54.9993C214.775 51.2472 214.596 48.1031 214.908 45.4669C215.134 43.2806 215.852 41.1739 217.007 39.3038C219.017 36.149 223.803 34.1388 227.38 33.0621C227.259 35.1796 226.779 38.313 231.218 37.8731C235.657 37.4331 237.471 34.1101 237.063 31.0054C243.265 29.8357 251.521 29.2706 254.057 31.9962C254.411 32.382 254.713 32.8125 254.955 33.2767C255.383 34.1076 255.69 34.9953 255.867 35.9129C256.178 37.5809 256.298 39.279 256.225 40.9743Z" fill="#FED81D"/>
<path d="M255.863 35.9236C251.929 36.1347 247.833 37.8337 246.51 41.6467C246.411 41.9312 246.33 42.2215 246.267 42.5159C246.137 43.1318 245.941 43.7316 245.68 44.3044C243.176 49.8879 235.4 50.2063 229.323 46.3039C224.222 43.031 221.278 41.2711 214.918 45.4597C215.143 43.2768 215.857 41.1726 217.007 39.3038C219.018 36.149 223.804 34.1388 227.38 33.0621C227.259 35.1796 226.78 38.313 231.218 37.8731C235.657 37.4331 237.471 34.1101 237.063 31.0054C243.266 29.8357 251.521 29.2706 254.057 31.9962C254.411 32.382 254.713 32.8125 254.955 33.2767C255.383 34.1111 255.688 35.0025 255.863 35.9236Z" fill="#FFE05C"/>
<path d="M222.931 42.1191L224.165 48.3108" stroke="#F7AD2B" stroke-width="0.75" stroke-linecap="round" stroke-linejoin="round"/>
<path d="M253.91 61.3126C254.106 63.584 254.321 66.678 254.507 69.5753C252.744 68.1696 250.029 65.4761 251.241 62.9616C252.983 59.3489 251.957 57.2993 249.607 55.586C247.257 53.8726 247.067 52.517 248.934 46.9406C250.801 41.3641 255.927 45.0913 255.927 45.0913C255.537 48.6682 254.854 52.3775 254.385 55.4858C254.024 57.8823 253.788 59.9283 253.91 61.3126Z" fill="#FCC71F"/>
<path d="M275.403 64.8113C275.403 68.6958 272.671 71.8936 269.158 72.3228C268.902 72.3546 268.644 72.3701 268.386 72.3693C264.508 72.3693 261.368 68.9927 261.368 64.8256C261.368 60.6585 264.508 57.2783 268.386 57.2783C269.84 57.2811 271.254 57.7611 272.41 58.6447C273.35 59.3722 274.11 60.3073 274.629 61.3771C275.149 62.4468 275.414 63.6222 275.403 64.8113Z" fill="#FED81D"/>
<path d="M275.404 64.8111C275.404 68.6957 272.671 71.8934 269.158 72.3227C268.693 66.9859 269.906 61.8566 272.41 58.6445C273.35 59.372 274.11 60.3071 274.629 61.3769C275.149 62.4467 275.414 63.622 275.404 64.8111Z" fill="#FCC71F"/>
<path d="M256.942 37.8269C256.943 38.9165 256.699 39.9924 256.227 40.9746C255.599 42.2593 254.622 43.3409 253.407 44.0951C252.192 44.8493 250.789 45.2455 249.359 45.2383C248.757 45.2394 248.157 45.1698 247.571 45.0308C246.91 44.8779 246.272 44.6373 245.675 44.3154C244.499 43.6879 243.514 42.7538 242.826 41.612C242.138 40.4703 241.771 39.1636 241.766 37.8305C241.794 35.8426 242.609 33.947 244.032 32.5592C245.456 31.1713 247.371 30.4043 249.359 30.4262C251.055 30.4213 252.705 30.9799 254.049 32.0144C254.841 32.624 255.503 33.3867 255.995 34.2571C256.29 34.7769 256.519 35.3322 256.674 35.9097C256.85 36.5336 256.94 37.1786 256.942 37.8269Z" fill="#FED81D"/>
<path d="M257.428 35.9205C257.178 35.9205 256.924 35.9026 256.666 35.9026C256.409 35.9026 256.123 35.9026 255.851 35.924C251.916 36.1351 247.821 37.8341 246.497 41.6471C246.399 41.9316 246.317 42.2219 246.254 42.5163C246.125 43.1322 245.928 43.732 245.667 44.3048C244.491 43.6773 243.507 42.7431 242.818 41.6014C242.13 40.4597 241.764 39.153 241.758 37.8198C241.789 35.8326 242.606 33.9387 244.031 32.5529C245.456 31.1671 247.371 30.4024 249.359 30.4263C251.055 30.4214 252.704 30.98 254.048 32.0145C254.84 32.6241 255.502 33.3868 255.994 34.2572C256.377 34.6507 256.863 35.2194 257.428 35.9205Z" fill="#FFE05C"/>
<path d="M270.305 68.4489C268.009 68.5956 264.861 67.197 260.966 62.9619C258.655 60.4581 256.401 57.9542 254.384 55.4897C251.437 51.9128 248.986 48.386 247.588 45.0308C247.118 43.9453 246.758 42.8153 246.515 41.6578C245.971 39.2561 246.3 36.7393 247.441 34.5576C248.479 32.6082 251.687 30.7768 254.953 33.2878C255.329 33.5779 255.68 33.8998 256.001 34.25C256.359 34.6506 256.863 35.2193 257.432 35.9204C260 39.0431 264.31 44.8126 267.987 50.2281C271.442 55.3431 274.333 60.1576 274.669 62.175C275.134 64.9113 273.581 68.2414 270.305 68.4489Z" fill="#FED81D"/>
<path d="M257.427 35.9204C257.177 35.9204 256.923 35.9025 256.665 35.9025C256.408 35.9025 256.122 35.9025 255.85 35.924C251.915 36.135 247.82 37.834 246.496 41.647C245.953 39.2454 246.281 36.7286 247.423 34.5469C248.46 32.5974 251.669 30.7661 254.934 33.277C255.311 33.5671 255.661 33.8891 255.982 34.2392C256.376 34.6506 256.862 35.2193 257.427 35.9204Z" fill="#FFE05C"/>
<path d="M260.97 62.9765C258.659 60.4726 256.406 57.9688 254.388 55.5043C251.441 51.9274 248.991 48.4005 247.592 45.0454C247.122 43.9599 246.763 42.8299 246.519 41.6724" stroke="#F7AD2B" stroke-width="0.75" stroke-linecap="round" stroke-linejoin="round"/>
<path d="M270.305 68.449C270.971 67.8223 271.552 67.1103 272.032 66.3315C274.676 62.1894 265.104 55.6866 267.991 50.2354C271.446 55.3503 274.336 60.1649 274.672 62.1823C275.134 64.9114 273.581 68.2416 270.305 68.449Z" fill="#FCC71F"/>
<path d="M240.499 39.3804L240.456 55.9633L234.986 55.9472L227.85 55.9311L227.882 43.7008L227.893 39.3482L235.931 39.3159L240.499 39.3804Z" fill="url(#paint0_linear_12_736)"/>
<path d="M227.893 39.3429L230.193 35.9146L237.985 35.936L235.916 39.3644L227.893 39.3429Z" fill="url(#paint1_linear_12_736)"/>
<path d="M237.984 35.936L240.499 39.3805L235.915 39.3644L237.984 35.936Z" fill="#B1BEE3"/>
<path d="M240.499 39.3804L240.456 55.9633L235.873 55.9525L235.916 39.3643L240.499 39.3804Z" fill="url(#paint2_linear_12_736)"/>
<path d="M230.192 35.9147L237.984 35.9362V35.775C237.984 35.1409 237.474 34.625 236.84 34.625L231.342 34.6089C230.708 34.6089 230.192 35.1194 230.192 35.7535V35.9147Z" fill="url(#paint3_linear_12_736)"/>
<path d="M227.882 44.3564L235.9 44.3779L235.894 47.3495L227.872 47.328L227.882 44.3564Z" fill="url(#paint4_linear_12_736)"/>
<path d="M240.483 44.3887L240.477 47.3603L235.894 47.3495L235.899 44.3779L240.483 44.3887Z" fill="url(#paint5_linear_12_736)"/>
<path d="M225.675 37.1826H221.054V48.1985H225.675V37.1826Z" fill="url(#paint6_linear_12_736)"/>
<path d="M224.793 32.5884H223.391C221.58 32.5884 220.118 34.0554 220.118 35.8609V38.2038H222.912C223.552 38.2038 224.068 38.7196 224.068 39.3591C224.068 39.9986 223.552 40.5144 222.912 40.5144H220.118V43.846H222.912C223.552 43.846 224.068 44.3619 224.068 45.0014C224.068 45.6408 223.552 46.1567 222.912 46.1567H220.118V52.5781H228.071V35.8609C228.066 34.0554 226.599 32.5884 224.793 32.5884Z" fill="url(#paint7_linear_12_736)"/>
<path d="M211.707 39.6819C211.707 39.6819 203.486 36.4793 205.281 34.0665C207.081 31.6484 212.041 38.9511 212.041 38.9511L211.707 39.6819Z" fill="#3BC49A"/>
<path d="M212.444 39.1339C212.444 39.1339 212.869 30.3158 209.935 30.9768C206.99 31.6377 211.643 39.1393 211.643 39.1393L212.444 39.1339Z" fill="#3BC49A"/>
<path d="M212.266 39.7571C212.266 39.7571 208.607 27.8976 205.205 30.0954C202.121 32.0944 211.476 39.9935 211.476 39.9935L212.266 39.7571Z" fill="#44D0A7"/>
<path d="M223.422 55.6788C223.223 55.6573 223.019 55.5714 222.831 55.4101L221.563 54.3301L221.558 54.3247L218.871 52.0302L218.376 51.6056L214.798 48.5535L214.104 47.9624L211.783 45.9849C211.552 45.7861 211.337 45.5657 211.144 45.3347C210.982 45.1412 210.832 44.937 210.703 44.7221C210.037 43.6527 209.773 42.3738 210.053 41.1272C210.289 40.0793 210.837 39.2464 211.563 38.6768C211.638 38.6177 211.719 38.5586 211.799 38.5048C212.874 37.7794 214.276 37.5806 215.631 38.032C215.969 38.1448 216.286 38.3006 216.582 38.4887C217.409 39.01 218.059 39.7945 218.457 40.7026L218.79 41.4388L219.14 42.2126L220.886 46.0601L221.203 46.7587L223.261 51.2886L223.449 51.7077L224.551 54.1366C224.948 54.991 224.196 55.7756 223.422 55.6788Z" fill="url(#paint8_linear_12_736)"/>
<path opacity="0.1" d="M221.562 54.3247L211.782 45.9849C210.374 44.7812 209.644 42.9166 210.047 41.1272C210.283 40.0793 210.831 39.2464 211.557 38.6768C211.632 38.6177 211.712 38.5586 211.793 38.5049C211.927 43.4002 218.274 50.8104 221.562 54.3247Z" fill="black"/>
<path opacity="0.1" d="M216.58 38.489L213.636 40.3751L215.629 38.0376C215.968 38.1504 216.285 38.3009 216.58 38.489Z" fill="black"/>
<path opacity="0.1" d="M213.911 42.6963L211.143 45.3401C210.982 45.1466 210.832 44.9424 210.703 44.7275L213.911 42.6963Z" fill="black"/>
<path opacity="0.1" d="M219.144 42.2181L216.479 43.8625L218.79 41.439L219.144 42.2181Z" fill="black"/>
<path opacity="0.1" d="M216.952 46.3613L214.798 48.5538L214.104 47.968L216.952 46.3613Z" fill="black"/>
<path opacity="0.1" d="M221.208 46.7694L219.375 47.6184L220.891 46.0654L221.208 46.7694Z" fill="black"/>
<path opacity="0.1" d="M220.585 50.1816L218.871 52.0302L218.376 51.611L220.585 50.1816Z" fill="black"/>
<path opacity="0.1" d="M223.46 51.7131L222.267 52.3687L223.272 51.2993L223.46 51.7131Z" fill="black"/>
<path d="M209.448 45.0288C209.448 45.0288 203.537 42.7235 204.827 40.9932C206.122 39.2521 209.684 44.5075 209.684 44.5075L209.448 45.0288Z" fill="#3BC49A"/>
<path d="M209.982 44.631C209.982 44.631 210.288 38.2955 208.181 38.7684C206.064 39.2413 209.412 44.6363 209.412 44.6363L209.982 44.631Z" fill="#3BC49A"/>
<path d="M209.852 45.0825C209.852 45.0825 207.219 36.5546 204.779 38.1398C202.56 39.5746 209.288 45.2545 209.288 45.2545L209.852 45.0825Z" fill="#44D0A7"/>
<path d="M217.869 56.5228C217.724 56.5067 217.579 56.4422 217.445 56.3294L216.531 55.5502C216.531 55.5502 216.531 55.5502 216.526 55.5502L214.591 53.9005L214.237 53.5942L211.663 51.4018L211.168 50.9773L209.503 49.5533C209.336 49.4082 209.18 49.2524 209.041 49.0858C208.922 48.9461 208.815 48.801 208.723 48.6452C208.245 47.8767 208.052 46.9579 208.256 46.0605C208.423 45.3082 208.82 44.7117 209.341 44.2979C209.395 44.2549 209.454 44.212 209.513 44.1743C210.287 43.6531 211.297 43.508 212.265 43.8358C212.506 43.9164 212.738 44.0293 212.947 44.1636C213.544 44.5397 214.006 45.104 214.296 45.7542L214.538 46.2862L214.79 46.845L216.048 49.6124L216.279 50.1175L217.756 53.3739L217.891 53.6748L218.681 55.4213C218.966 56.0285 218.428 56.5927 217.869 56.5228Z" fill="url(#paint9_linear_12_736)"/>
<path opacity="0.1" d="M216.531 55.5502L209.503 49.5533C208.487 48.6881 207.966 47.3447 208.256 46.0604C208.423 45.3081 208.82 44.7117 209.341 44.2979C209.395 44.2549 209.454 44.2119 209.513 44.1743C209.61 47.6994 214.172 53.0246 216.531 55.5502Z" fill="black"/>
<path opacity="0.1" d="M212.952 44.1691L210.835 45.5232L212.264 43.8413C212.512 43.9219 212.737 44.0348 212.952 44.1691Z" fill="black"/>
<path opacity="0.1" d="M211.029 47.1943L209.041 49.0912C208.922 48.9515 208.815 48.8064 208.724 48.6506L211.029 47.1943Z" fill="black"/>
<path opacity="0.1" d="M214.79 46.845L212.877 48.0325L214.537 46.2915L214.79 46.845Z" fill="black"/>
<path opacity="0.1" d="M213.221 49.8276L211.668 51.4021L211.173 50.983L213.221 49.8276Z" fill="black"/>
<path opacity="0.1" d="M216.279 50.1174L214.962 50.73L216.048 49.6177L216.279 50.1174Z" fill="black"/>
<path opacity="0.1" d="M215.827 52.5732L214.596 53.9005L214.242 53.5996L215.827 52.5732Z" fill="black"/>
<path opacity="0.1" d="M217.896 53.6749L217.037 54.1424L217.757 53.374L217.896 53.6749Z" fill="black"/>
<path d="M241.177 47.3122V80.8434H207V47.2853L207.511 48.6287L208.908 46.9092L210.252 48.6825L211.702 46.9092L211.917 47.1832L212.374 47.769L213.046 48.6287L214.443 46.9092L215.84 48.575L217.183 46.9092L218.634 48.6825L219.978 46.9092L221.321 48.6287L222.718 46.9092L224.062 48.575L225.405 46.9092L226.802 48.575L228.199 46.9092L229.596 48.575L230.94 46.9092L232.283 48.575L233.734 46.9092L235.131 48.575L236.528 46.9092L237.872 48.6287L239.269 46.9092L240.612 48.4675L241.177 47.3122Z" fill="url(#paint10_linear_12_736)"/>
<path d="M212.374 47.769V80.8434H207V47.2853L207.511 48.6287L208.908 46.9092L210.252 48.6825L211.702 46.9092L211.917 47.1832L212.374 47.769Z" fill="#EECA9D"/>
<path d="M217.183 46.9092V80.8434H211.917V47.1832L213.045 48.6287L214.443 46.9092L215.84 48.575L217.183 46.9092Z" fill="url(#paint11_linear_12_736)"/>
<path d="M217.183 80.8434H207V80.8219L211.944 74.1802L217.183 80.8434Z" fill="#E1AF72"/>
<path d="M234.567 78.5059C236.096 78.5059 237.335 76.8339 237.335 74.7713C237.335 72.7087 236.096 71.0366 234.567 71.0366C233.039 71.0366 231.8 72.7087 231.8 74.7713C231.8 76.8339 233.039 78.5059 234.567 78.5059Z" fill="url(#paint12_linear_12_736)"/>
<path d="M240.129 78.5328C241.658 78.5328 242.897 76.8607 242.897 74.7981C242.897 72.7355 241.658 71.0635 240.129 71.0635C238.601 71.0635 237.362 72.7355 237.362 74.7981C237.362 76.8607 238.601 78.5328 240.129 78.5328Z" fill="url(#paint13_linear_12_736)"/>
<path d="M228.71 78.5059C230.238 78.5059 231.477 76.8339 231.477 74.7713C231.477 72.7087 230.238 71.0366 228.71 71.0366C227.181 71.0366 225.942 72.7087 225.942 74.7713C225.942 76.8339 227.181 78.5059 228.71 78.5059Z" fill="url(#paint14_linear_12_736)"/>
<path d="M224.68 78.5059C226.208 78.5059 227.447 76.8339 227.447 74.7713C227.447 72.7087 226.208 71.0366 224.68 71.0366C223.151 71.0366 221.912 72.7087 221.912 74.7713C221.912 76.8339 223.151 78.5059 224.68 78.5059Z" fill="url(#paint15_linear_12_736)"/>
<path d="M236.501 78.5059C238.03 78.5059 239.269 76.8339 239.269 74.7713C239.269 72.7087 238.03 71.0366 236.501 71.0366C234.973 71.0366 233.734 72.7087 233.734 74.7713C233.734 76.8339 234.973 78.5059 236.501 78.5059Z" fill="url(#paint16_linear_12_736)"/>
<path d="M230.59 78.5059C232.119 78.5059 233.358 76.8339 233.358 74.7713C233.358 72.7087 232.119 71.0366 230.59 71.0366C229.062 71.0366 227.823 72.7087 227.823 74.7713C227.823 76.8339 229.062 78.5059 230.59 78.5059Z" fill="url(#paint17_linear_12_736)"/>
<path d="M244.293 76.5444V77.2967L241.606 80.8433H239.456L239.242 80.1985H238.382L237.898 80.8433H234.083L233.546 80.1447H231.933L231.45 80.8433H228.602L228.064 80.1447H226.399L225.861 80.8433H224.195L221.777 77.9416V76.5444H244.293Z" fill="#B68649"/>
<path d="M244.293 76.5444V77.2967L241.606 80.8433H239.457L239.242 80.1985H238.382L237.899 80.8433H236.432L238.506 76.5444H244.293Z" fill="url(#paint18_linear_12_736)"/>
<path d="M244.965 75.604H220.945V76.8937H244.965V75.604Z" fill="url(#paint19_linear_12_736)"/>
<path d="M244.965 75.604H237.765V76.8937H244.965V75.604Z" fill="#B68649"/>
<path d="M237.176 22.2207L236.614 22.1455L235.563 22.0096L233.921 21.795L224.421 20.5538C223.058 19.2304 222.55 18.8762 222.343 18.3719C222.248 18.1056 222.199 17.8248 222.2 17.5421C222.132 16.3331 222.232 12.9493 226.338 11.7224C226.714 11.6107 227.096 11.5235 227.483 11.4613C229.285 11.2088 231.121 11.3765 232.848 11.9513C232.848 11.9513 233.338 11.1036 235.742 12.5916C238.145 14.0796 240.878 18.2825 237.176 22.2207Z" fill="#604730"/>
<path d="M236.615 22.1456C236.558 22.6857 236.5 23.0112 236.5 23.0112L235.488 22.7429C235.52 22.4925 235.545 22.2493 235.563 22.0275C236.211 14.4802 231.629 11.9227 227.483 11.4828C229.285 11.2303 231.122 11.398 232.848 11.9728C237.04 13.8936 236.847 19.8957 236.615 22.1456Z" fill="white"/>
<path d="M233.92 21.7951L224.42 20.554C223.057 19.2305 222.549 18.8764 222.342 18.372C223.247 14.6771 225.429 12.7455 228.848 12.649C233.001 12.5524 234.117 15.9934 234.45 18.5688C234.533 19.6711 234.352 20.7774 233.92 21.7951Z" fill="#473526"/>
<path d="M234.462 24.0126C231.69 27.7934 227.773 29.7357 225.648 28.5017C224.25 27.679 223.567 25.5436 223.445 23.0862C223.404 22.2513 223.424 21.4146 223.502 20.5824C223.545 20.0959 223.609 19.613 223.688 19.1337C224.328 15.2814 226.907 12.6488 231.321 13.6968C231.321 13.6968 230.069 16.7694 232.062 18.726C234.054 20.6825 235.639 20.45 235.639 20.45C235.639 20.45 237.027 20.2211 237.585 21.1654C238.876 23.376 236.275 25.1108 234.462 24.0126Z" fill="#FEBD9D"/>
<path d="M227.483 19.4664C227.482 19.5523 227.507 19.6364 227.554 19.7081C227.602 19.7799 227.669 19.8359 227.748 19.8691C227.828 19.9023 227.915 19.9112 227.999 19.8946C228.084 19.878 228.161 19.8367 228.222 19.776C228.282 19.7152 228.324 19.6378 228.34 19.5535C228.357 19.4692 228.348 19.3819 228.315 19.3026C228.282 19.2234 228.226 19.1559 228.154 19.1086C228.082 19.0613 227.998 19.0364 227.912 19.0371C227.799 19.0381 227.69 19.0836 227.61 19.1639C227.529 19.2442 227.484 19.3528 227.483 19.4664Z" fill="#683F1D"/>
<path d="M224.765 19.5738C224.764 19.6595 224.789 19.7435 224.836 19.8152C224.883 19.8868 224.95 19.9429 225.029 19.9762C225.108 20.0095 225.196 20.0186 225.28 20.0023C225.364 19.986 225.441 19.945 225.502 19.8846C225.563 19.8243 225.605 19.7472 225.622 19.6631C225.639 19.579 225.63 19.4918 225.598 19.4125C225.565 19.3333 225.51 19.2654 225.438 19.2177C225.367 19.17 225.283 19.1445 225.197 19.1445C225.083 19.1445 224.974 19.1896 224.893 19.27C224.812 19.3504 224.766 19.4596 224.765 19.5738Z" fill="#683F1D"/>
<path d="M234.786 21.1619C234.934 20.9256 235.143 20.7323 235.389 20.6012C235.636 20.4701 235.912 20.4057 236.191 20.4144" stroke="#EF8A66" stroke-width="0.75" stroke-linecap="round" stroke-linejoin="round"/>
<path d="M235.041 22.5567C235.309 21.5552 236.44 21.0079 237.187 21.8092" stroke="#EF8A66" stroke-width="0.75" stroke-linecap="round" stroke-linejoin="round"/>
<path d="M235.216 22.1241C236.361 21.3229 237.109 23.4583 235.105 23.1185" stroke="#EF8A66" stroke-width="0.75" stroke-linecap="round" stroke-linejoin="round"/>
<path d="M226.563 23.9159C226.751 23.955 226.945 23.9552 227.132 23.9166C227.32 23.878 227.497 23.8014 227.654 23.6915C227.811 23.5815 227.944 23.4406 228.044 23.2775C228.144 23.1143 228.21 22.9323 228.237 22.7427" stroke="#EF8A66" stroke-width="0.75" stroke-linecap="round" stroke-linejoin="round"/>
<path d="M225.44 22.414C224.689 22.0277 224.682 21.4017 225.39 21.0083C226.098 20.6148 226.703 20.089 226.563 18.6904" stroke="#EF8A66" stroke-width="0.75" stroke-linecap="round" stroke-linejoin="round"/>
<path d="M223.422 17.5956C223.576 18.0642 226.222 18.1643 226.094 16.9947C225.997 16.1183 223.229 17.0054 223.422 17.5956Z" fill="#604730"/>
<path d="M227.4 17.1914C227.157 17.9783 230.044 19.0192 230.301 18.429C230.526 17.9068 227.851 15.7177 227.4 17.1914Z" fill="#604730"/>
<path d="M228.42 21.9665C228.699 22.6819 229.872 22.9252 231.038 22.478C232.204 22.0309 232.926 21.083 232.651 20.3569C232.376 19.6308 231.202 19.3983 230.033 19.8419C228.863 20.2854 228.144 21.2369 228.42 21.9665Z" fill="#F4AF90"/>
<path d="M224.379 22.4962C224.284 22.6638 224.149 22.8054 223.986 22.9084C223.823 23.0114 223.637 23.0725 223.445 23.0864C223.404 22.2514 223.424 21.4147 223.502 20.5825C224.275 21.1262 224.658 21.9167 224.379 22.4962Z" fill="#F4AF90"/>
<path d="M246.452 73.9683C245.981 74.3277 245.433 74.5737 244.851 74.6873C244.269 74.8008 243.669 74.7787 243.097 74.6228C242.024 74.3438 240.049 75.8962 238.311 76.7046C236.573 77.513 235.092 77.9172 235.918 79.1906C235.918 79.1906 233.618 79.7486 232.842 80.1527C232.066 80.5569 232.842 81.3331 233.679 81.3331C234.516 81.3331 238.962 80.9754 240.361 80.9075C241.759 80.8395 248.945 78.8829 248.945 78.8829L246.452 73.9683Z" fill="#FEBD9D"/>
<path d="M238.311 76.7046C236.569 77.513 235.092 77.9172 235.918 79.1905C235.918 79.1905 233.618 79.7485 232.842 80.1527C232.066 80.5569 232.842 81.3331 233.679 81.3331C233.983 81.3331 234.752 81.2866 235.682 81.2258" stroke="#EF8A66" stroke-width="0.75" stroke-linecap="round" stroke-linejoin="round"/>
<path d="M269.469 72.4231C268.646 72.7522 267.698 73.1385 266.665 73.5677C259.801 76.4042 249.36 80.9076 249.36 80.9076L245.532 73.861C247.678 72.2335 251.706 68.932 254.292 66.2923C256.878 63.6525 261.628 57.4823 268.174 60.0005C269.678 60.5532 271.016 61.4802 272.062 62.6939C274.777 65.9489 274.165 70.5345 269.469 72.4231Z" fill="#FED81D"/>
<path d="M269.469 72.4231C268.647 72.7521 267.699 73.1384 266.665 73.5677C267.824 68.5922 269.391 70.4701 272.03 66.3316C272.717 65.2585 272.581 64.0245 272.055 62.6938C274.777 65.9488 274.166 70.5345 269.469 72.4231Z" fill="#FCC71F"/>
<path d="M245.532 73.8608C247.678 72.2297 251.71 68.9318 254.296 66.292C256.882 63.6523 261.628 57.4785 268.178 60.0002" stroke="#F7AD2B" stroke-width="0.75" stroke-linecap="round" stroke-linejoin="round"/>
<path d="M247.987 73.564L250.598 78.8828" stroke="#F7AD2B" stroke-width="0.75" stroke-linecap="round" stroke-linejoin="round"/>
<path d="M235.918 79.1906C237.706 78.79 240.479 78.6541 241.33 78.2964" stroke="#EF8A66" stroke-width="0.75" stroke-linecap="round" stroke-linejoin="round"/>
<path d="M206.463 72.6954C205.676 72.3735 204.989 73.3929 205.783 74.1262C206.577 74.8594 207.886 75.0776 208.122 74.4839C208.358 73.8901 207.328 73.0495 206.463 72.6954Z" fill="#FEBD9D" stroke="#EF8A66" stroke-width="0.75" stroke-linecap="round" stroke-linejoin="round"/>
<path d="M206.337 70.9604C205.435 70.6027 204.645 71.758 205.561 72.5879C206.476 73.4177 207.968 73.661 208.24 73.0064C208.512 72.3518 207.328 71.3646 206.337 70.9604Z" fill="#FEBD9D" stroke="#EF8A66" stroke-width="0.75" stroke-linecap="round" stroke-linejoin="round"/>
<path d="M206.402 69.1111C205.497 68.7069 205.004 70.084 205.916 70.9961C206.828 71.9082 208.48 72.3374 208.752 71.6006C209.024 70.8637 207.393 69.5582 206.402 69.1111Z" fill="#FEBD9D" stroke="#EF8A66" stroke-width="0.75" stroke-linecap="round" stroke-linejoin="round"/>
<path d="M206.882 66.7754V67.9057C206.882 67.9057 208.695 69.2256 208.728 70.0304C208.76 70.8352 207.855 70.9675 206.882 70.4203C205.909 69.873 204.925 68.8071 205.262 67.8556C205.598 66.9042 206.882 66.7754 206.882 66.7754Z" fill="#FEBD9D" stroke="#EF8A66" stroke-width="0.75" stroke-linecap="round" stroke-linejoin="round"/>
<path d="M207.178 67.9058C206.986 67.7624 206.749 67.6904 206.509 67.7019" stroke="#EF8A66" stroke-width="0.75" stroke-linecap="round" stroke-linejoin="round"/>
<defs>
<linearGradient id="paint0_linear_12_736" x1="228.139" y1="47.4531" x2="237.372" y2="47.7609" gradientUnits="userSpaceOnUse">
<stop stop-color="#F3F7FF"/>
<stop offset="1" stop-color="#BCCBF9"/>
</linearGradient>
<linearGradient id="paint1_linear_12_736" x1="229.59" y1="37.6405" x2="239.684" y2="37.6395" gradientUnits="userSpaceOnUse">
<stop stop-color="#91A1D2"/>
<stop offset="0.666667" stop-color="#DEE6FF"/>
</linearGradient>
<linearGradient id="paint2_linear_12_736" x1="235.871" y1="47.6642" x2="240.498" y2="47.6642" gradientUnits="userSpaceOnUse">
<stop stop-color="#B0BFE9"/>
<stop offset="1" stop-color="#EEF2FF"/>
</linearGradient>
<linearGradient id="paint3_linear_12_736" x1="230.195" y1="35.2592" x2="237.988" y2="35.2798" gradientUnits="userSpaceOnUse">
<stop stop-color="#B8CAFF"/>
<stop offset="1" stop-color="#9BB1F4"/>
</linearGradient>
<linearGradient id="paint4_linear_12_736" x1="227.872" y1="45.8539" x2="235.902" y2="45.8531" gradientUnits="userSpaceOnUse">
<stop stop-color="#90A5E2"/>
<stop offset="1" stop-color="#C2CBE4"/>
<stop offset="1" stop-color="#C6D1F2"/>
<stop offset="1" stop-color="#F5F8FF"/>
</linearGradient>
<linearGradient id="paint5_linear_12_736" x1="235.893" y1="45.8705" x2="240.484" y2="45.87" gradientUnits="userSpaceOnUse">
<stop stop-color="#8AA5F6"/>
<stop offset="1" stop-color="#DADBDE"/>
</linearGradient>
<linearGradient id="paint6_linear_12_736" x1="224.416" y1="42.6905" x2="220.224" y2="42.6905" gradientUnits="userSpaceOnUse">
<stop stop-color="#C48F40"/>
<stop offset="1" stop-color="#DADBDE"/>
</linearGradient>
<linearGradient id="paint7_linear_12_736" x1="229.439" y1="54.8462" x2="220.895" y2="37.2728" gradientUnits="userSpaceOnUse">
<stop stop-color="#F7CF95"/>
<stop offset="1" stop-color="#D3A35B"/>
</linearGradient>
<linearGradient id="paint8_linear_12_736" x1="208.524" y1="41.9093" x2="223.588" y2="48.6932" gradientUnits="userSpaceOnUse">
<stop stop-color="#FF7A00"/>
<stop offset="1" stop-color="#FFC28A"/>
</linearGradient>
<linearGradient id="paint9_linear_12_736" x1="207.162" y1="46.6256" x2="217.989" y2="51.5018" gradientUnits="userSpaceOnUse">
<stop stop-color="#FF6B00"/>
<stop offset="1" stop-color="#FF9F47"/>
</linearGradient>
<linearGradient id="paint10_linear_12_736" x1="207" y1="63.8763" x2="241.177" y2="63.8763" gradientUnits="userSpaceOnUse">
<stop stop-color="#D08E3E"/>
<stop offset="1" stop-color="#FFEBD3"/>
</linearGradient>
<linearGradient id="paint11_linear_12_736" x1="214.659" y1="76.2983" x2="214.363" y2="42.5012" gradientUnits="userSpaceOnUse">
<stop stop-color="#D5A161"/>
</linearGradient>
<linearGradient id="paint12_linear_12_736" x1="231.8" y1="74.7713" x2="237.335" y2="74.7713" gradientUnits="userSpaceOnUse">
<stop stop-color="#EEC38B"/>
<stop offset="1" stop-color="#FFE9CE"/>
</linearGradient>
<linearGradient id="paint13_linear_12_736" x1="237.362" y1="74.7981" x2="242.897" y2="74.7981" gradientUnits="userSpaceOnUse">
<stop stop-color="#E7B473"/>
<stop offset="1" stop-color="#FFE5C2"/>
</linearGradient>
<linearGradient id="paint14_linear_12_736" x1="225.942" y1="74.7713" x2="231.477" y2="74.7713" gradientUnits="userSpaceOnUse">
<stop stop-color="#EEC38B"/>
<stop offset="1" stop-color="#FFE9CE"/>
</linearGradient>
<linearGradient id="paint15_linear_12_736" x1="221.912" y1="74.7713" x2="227.447" y2="74.7713" gradientUnits="userSpaceOnUse">
<stop stop-color="white"/>
<stop offset="1" stop-color="#DADBDE"/>
</linearGradient>
<linearGradient id="paint16_linear_12_736" x1="233.734" y1="74.7713" x2="239.269" y2="74.7713" gradientUnits="userSpaceOnUse">
<stop stop-color="white"/>
<stop offset="1" stop-color="#DADBDE"/>
</linearGradient>
<linearGradient id="paint17_linear_12_736" x1="227.823" y1="74.7713" x2="233.358" y2="74.7713" gradientUnits="userSpaceOnUse">
<stop stop-color="white"/>
<stop offset="1" stop-color="#DADBDE"/>
</linearGradient>
<linearGradient id="paint18_linear_12_736" x1="236.431" y1="78.6939" x2="244.293" y2="78.6939" gradientUnits="userSpaceOnUse">
<stop stop-color="#B68649"/>
<stop offset="1" stop-color="#E9B879"/>
</linearGradient>
<linearGradient id="paint19_linear_12_736" x1="220.54" y1="76.2875" x2="237.79" y2="76.2338" gradientUnits="userSpaceOnUse">
<stop stop-color="#B68649"/>
<stop offset="1" stop-color="#E9B777"/>
</linearGradient>
</defs>
</svg>
