<svg width="40" height="67" viewBox="0 0 40 67" fill="none" xmlns="http://www.w3.org/2000/svg">
<path d="M39.5222 14.909L39.3879 66.721L22.2963 66.6706L0 66.6203L0.100753 28.4076L0.134323 14.8083L25.2512 14.7075L39.5222 14.909Z" fill="url(#paint0_linear_12_717)"/>
<path d="M0.134766 14.7912L7.32063 4.07959L31.6652 4.14675L25.2013 14.8584L0.134766 14.7912Z" fill="url(#paint1_linear_12_717)"/>
<path d="M31.6646 4.14697L39.522 14.909L25.2007 14.8586L31.6646 4.14697Z" fill="#B1BEE3"/>
<path d="M39.5235 14.9088L39.3892 66.7208L25.0679 66.6872L25.2022 14.8584L39.5235 14.9088Z" fill="url(#paint2_linear_12_717)"/>
<path d="M7.31885 4.07982L31.6634 4.14697V3.64329C31.6634 1.66215 30.0684 0.0503661 28.0873 0.0503661L10.9118 0C8.93061 0 7.31885 1.59499 7.31885 3.57613V4.07982Z" fill="url(#paint3_linear_12_717)"/>
<path d="M0.100506 30.4561L25.1502 30.5232L25.1334 39.8077L0.0668945 39.7406L0.100506 30.4561Z" fill="url(#paint4_linear_12_717)"/>
<path d="M39.471 30.5565L39.4542 39.8411L25.1328 39.8075L25.1496 30.5229L39.471 30.5565Z" fill="url(#paint5_linear_12_717)"/>
<defs>
<linearGradient id="paint0_linear_12_717" x1="0.902882" y1="40.1316" x2="29.7508" y2="41.0932" gradientUnits="userSpaceOnUse">
<stop stop-color="#F3F7FF"/>
<stop offset="1" stop-color="#BCCBF9"/>
</linearGradient>
<linearGradient id="paint1_linear_12_717" x1="5.43776" y1="9.47211" x2="36.9743" y2="9.46905" gradientUnits="userSpaceOnUse">
<stop stop-color="#91A1D2"/>
<stop offset="0.666667" stop-color="#DEE6FF"/>
</linearGradient>
<linearGradient id="paint2_linear_12_717" x1="25.0639" y1="40.7909" x2="39.5198" y2="40.7909" gradientUnits="userSpaceOnUse">
<stop stop-color="#B0BFE9"/>
<stop offset="1" stop-color="#EEF2FF"/>
</linearGradient>
<linearGradient id="paint3_linear_12_717" x1="7.32839" y1="2.03201" x2="31.6749" y2="2.09616" gradientUnits="userSpaceOnUse">
<stop stop-color="#B8CAFF"/>
<stop offset="1" stop-color="#9BB1F4"/>
</linearGradient>
<linearGradient id="paint4_linear_12_717" x1="0.0688473" y1="35.1347" x2="25.1568" y2="35.1322" gradientUnits="userSpaceOnUse">
<stop stop-color="#90A5E2"/>
<stop offset="1" stop-color="#C2CBE4"/>
<stop offset="1" stop-color="#C6D1F2"/>
<stop offset="1" stop-color="#F5F8FF"/>
</linearGradient>
<linearGradient id="paint5_linear_12_717" x1="25.132" y1="35.1863" x2="39.4768" y2="35.1849" gradientUnits="userSpaceOnUse">
<stop stop-color="#8AA5F6"/>
<stop offset="1" stop-color="#DADBDE"/>
</linearGradient>
</defs>
</svg>
