<svg width="127" height="127" viewBox="0 0 127 127" fill="none" xmlns="http://www.w3.org/2000/svg">
<path d="M63.4999 127C98.57 127 127 98.57 127 63.4999C127 28.4299 98.57 0 63.4999 0C28.4299 0 0 28.4299 0 63.4999C0 98.57 28.4299 127 63.4999 127Z" fill="#28C079"/>
<path d="M48.4238 95.5442L27.1327 74.7842C24.9601 72.6599 24.9119 69.2321 27.0362 67.0595C29.1604 64.8869 32.5883 64.8387 34.7608 66.963L48.3273 80.1432L92.068 36.4023C94.1923 34.278 97.6684 34.278 99.7927 36.4023C101.917 38.5266 101.917 42.0027 99.7927 44.1269L48.4238 95.5442Z" fill="white"/>
</svg>
