<svg width="1049" height="418" viewBox="0 0 1049 418" fill="none" xmlns="http://www.w3.org/2000/svg">
<path d="M973.338 199.057L976.703 211.614L1048.18 192.461L1044.82 179.904L973.338 199.057Z" fill="#AA0BF0"/>
<path d="M970.519 9.19239L961.326 0L909 52.3259L918.193 61.5183L970.519 9.19239Z" fill="#39CCEC"/>
<path d="M0.636157 223.001L0.896484 235.999L74.8816 234.517L74.6213 221.52L0.636157 223.001Z" fill="#AA0BF0"/>
<path d="M57 373L63.5 384.258L127.586 347.258L121.086 336L57 373Z" fill="#39CCEC"/>
<path d="M60.9706 17.9999L44 34.9705L94.2046 85.175L111.175 68.2045L60.9706 17.9999Z" fill="#22DA4A"/>
<path d="M967.971 350L951 366.97L1001.2 417.175L1018.18 400.204L967.971 350Z" fill="#22DA4A"/>
</svg>
