<svg width="318" height="2329" viewBox="0 0 318 2329" fill="none" xmlns="http://www.w3.org/2000/svg">
<path d="M8.31227 0.00018265L0 14.3975L42.592 38.9879L50.9042 24.5907L8.31227 0.00018265Z" fill="#22DA4A"/>
<path d="M17.3675 657L11 663.367L47.2456 699.613L53.6131 693.245L17.3675 657Z" fill="#AA0BF0"/>
<path d="M311.924 283.26C315.063 294.973 308.988 305.248 298.424 308.079C287.484 311.01 277.109 305.491 274.002 293.143" fill="#0181F8"/>
<path d="M38.1933 1638.56C49.0046 1632.08 60.7583 1635.41 66.2741 1644.97C71.9445 1654.79 68.9025 1666.54 57.6935 1672.78" fill="#FF6B00"/>
<path d="M36.3675 2286L30 2292.37L66.2456 2328.61L72.6131 2322.25L36.3675 2286Z" fill="#AA0BF0"/>
<path d="M267 1937.01L267 1960.86L287.994 1961C288.247 1946.6 280.279 1936.72 267 1937.01Z" fill="#FFE500"/>
<path d="M262.312 954L254 968.397L296.592 992.987L304.904 978.59L262.312 954Z" fill="#22DA4A"/>
<path d="M241 1174.5C241 1168.7 236.523 1164 231 1164C225.477 1164 221 1168.7 221 1174.5C221 1180.3 225.477 1185 231 1185C236.523 1185 241 1180.3 241 1174.5Z" fill="#F10E0E"/>
<path d="M61.6136 1442.37L55.2461 1436L19.0005 1472.25L25.368 1478.61L61.6136 1442.37Z" fill="#AA0BF0"/>
</svg>
