<svg width="161" height="99" viewBox="0 0 161 99" fill="none" xmlns="http://www.w3.org/2000/svg">
<path d="M160.439 84.9131V13.9304C152.844 13.9304 146.686 7.77261 146.686 0.177457C146.686 0.12422 146.686 0.0532371 146.686 0H13.9304C13.9304 0.0532371 13.9304 0.12422 13.9304 0.177457C13.9304 7.77261 7.77261 13.9304 0.177457 13.9304C0.12422 13.9304 0.0532371 13.9304 0 13.9304V84.9309C0.0532371 84.9309 0.12422 84.9309 0.177457 84.9309C7.77261 84.9309 13.9304 91.0886 13.9304 98.6838H146.668C146.686 91.0709 152.844 84.9131 160.439 84.9131Z" fill="url(#paint0_linear_6_9763)"/>
<path d="M21.1376 20.3721H16.7012V29.4224H21.1376V20.3721Z" fill="white"/>
<path d="M21.1376 36.6094H16.7012V45.6597H21.1376V36.6094Z" fill="white"/>
<path d="M21.1376 52.9353H16.7012V61.9856H21.1376V52.9353Z" fill="white"/>
<path d="M21.1376 69.2615H16.7012V78.3118H21.1376V69.2615Z" fill="white"/>
<path d="M143.761 20.3721H139.324V29.4224H143.761V20.3721Z" fill="white"/>
<path d="M143.761 36.6094H139.324V45.6597H143.761V36.6094Z" fill="white"/>
<path d="M143.761 52.9353H139.324V61.9856H143.761V52.9353Z" fill="white"/>
<path d="M143.761 69.2615H139.324V78.3118H143.761V69.2615Z" fill="white"/>
<path d="M80.2294 92.455C104.045 92.455 123.351 73.1486 123.351 49.333C123.351 25.5173 104.045 6.21094 80.2294 6.21094C56.4138 6.21094 37.1074 25.5173 37.1074 49.333C37.1074 73.1486 56.4138 92.455 80.2294 92.455Z" fill="white"/>
<path d="M80.2287 88.5509C101.888 88.5509 119.447 70.9924 119.447 49.333C119.447 27.6735 101.888 10.115 80.2287 10.115C58.5692 10.115 41.0107 27.6735 41.0107 49.333C41.0107 70.9924 58.5692 88.5509 80.2287 88.5509Z" fill="#28C079"/>
<path d="M59.4311 47.8067C57.621 45.7127 56.6982 42.9622 56.6982 39.5728C56.6982 36.1833 57.6033 33.4328 59.4311 31.3388C61.2412 29.2448 63.6368 28.1978 66.6003 28.1978C69.5639 28.1978 71.9596 29.227 73.8051 31.3032C75.6329 33.3795 76.5557 36.1301 76.5557 39.5728C76.5557 43.0154 75.6329 45.766 73.8051 47.8423C71.9773 49.9185 69.5639 50.9478 66.6003 50.9478C63.6368 50.9478 61.2589 49.9007 59.4311 47.8067ZM70.3624 44.8965C71.2497 43.6365 71.6933 41.8619 71.6933 39.5728C71.6933 37.2836 71.2497 35.509 70.3624 34.2491C69.4751 32.9891 68.2152 32.3502 66.6003 32.3502C65.0565 32.3502 63.832 32.9891 62.8915 34.2668C61.9687 35.5445 61.5073 37.3191 61.5073 39.5728C61.5073 41.8265 61.9687 43.5833 62.8915 44.8787C63.8143 46.1564 65.0565 46.7952 66.6003 46.7952C68.2152 46.7952 69.4751 46.1564 70.3624 44.8965ZM92.7397 28.6059C94.674 28.6059 95.8097 30.7709 94.7273 32.3502L69.6881 69.0128C69.2444 69.6694 68.4991 70.0598 67.7006 70.0598C65.7663 70.0598 64.6306 67.8948 65.7131 66.3155L90.7522 29.6529C91.2136 28.9963 91.9589 28.6059 92.7397 28.6059ZM86.6175 67.3448C84.8074 65.2508 83.8846 62.5002 83.8846 59.1108C83.8846 55.7213 84.7897 52.9707 86.6175 50.8767C88.4275 48.7827 90.8232 47.7358 93.7867 47.7358C96.7503 47.7358 99.1459 48.7827 100.991 50.8767C102.819 52.9707 103.742 55.7213 103.742 59.1108C103.742 62.5002 102.819 65.2508 100.991 67.3448C99.1637 69.4387 96.7503 70.4857 93.7867 70.4857C90.8232 70.4857 88.4453 69.4387 86.6175 67.3448ZM97.5133 64.4167C98.4184 63.139 98.8797 61.3645 98.8797 59.1108C98.8797 56.8571 98.4184 55.1002 97.5133 53.8047C96.6083 52.5271 95.3661 51.8882 93.7867 51.8882C92.2074 51.8882 90.9652 52.5271 90.0601 53.7871C89.1551 55.047 88.6937 56.8216 88.6937 59.1108C88.6937 61.4 89.1551 63.1745 90.0601 64.4345C90.9652 65.6944 92.2074 66.3332 93.7867 66.3332C95.3661 66.3332 96.6083 65.6944 97.5133 64.4167Z" fill="white"/>
<defs>
<linearGradient id="paint0_linear_6_9763" x1="0.0138061" y1="49.3418" x2="160.435" y2="49.3418" gradientUnits="userSpaceOnUse">
<stop stop-color="#FFDA25"/>
<stop offset="1" stop-color="#FFE77B"/>
</linearGradient>
</defs>
</svg>
