<svg width="88" height="98" viewBox="0 0 88 98" fill="none" xmlns="http://www.w3.org/2000/svg">
<path d="M39.1303 1.75366L0 36.612L43.7057 83.5027L87.4113 36.612L48.281 1.75366C45.6773 -0.584554 41.734 -0.584554 39.1303 1.75366Z" fill="#568ABA"/>
<path d="M80.3907 77.7576H6.68164V16.0737C6.68164 14.958 7.58429 14.0586 8.68416 14.0586H78.3756C79.4897 14.0586 80.3907 14.9596 80.3907 16.0737V77.7576Z" fill="white" stroke="#568ABA"/>
<path d="M87.4239 36.612V92.8682C87.4239 95.3202 85.427 97.3172 82.975 97.3172H4.44892C1.99696 97.3172 0 95.3202 0 92.8682V36.5994L35.4903 63.6974L43.7183 69.979L51.9084 63.7227L87.4239 36.612Z" fill="url(#paint0_linear_6_9650)"/>
<path d="M87.424 90.4036V92.8809C87.424 95.3328 85.427 97.3298 82.975 97.3298H4.44892C1.99696 97.3298 0 95.3328 0 92.8809V90.1255L35.4903 63.71L43.7183 57.5928L51.9084 63.7353L87.424 90.4036Z" fill="url(#paint1_linear_6_9650)"/>
<path d="M59.0112 32.5297C58.9733 28.0049 55.2574 24.3396 50.72 24.3649C47.7499 24.3775 45.1462 25.97 43.7054 28.3462C42.2645 25.97 39.6735 24.3775 36.6907 24.3649C32.166 24.3396 28.4375 28.0049 28.3995 32.5297C28.3869 34.7794 29.259 36.8143 30.6998 38.3183C30.8642 38.4826 31.0158 38.6469 31.1675 38.8239L42.4288 51.5766C43.0987 52.335 44.2741 52.335 44.9314 51.5766L56.1927 38.8239C56.3444 38.6469 56.5087 38.4826 56.6604 38.3183C58.1391 36.8269 59.0238 34.7794 59.0112 32.5297Z" fill="#E51715"/>
<defs>
<linearGradient id="paint0_linear_6_9650" x1="-0.000695145" y1="66.9655" x2="87.42" y2="66.9655" gradientUnits="userSpaceOnUse">
<stop stop-color="#96C0E7"/>
<stop offset="1" stop-color="#DFF2FF"/>
</linearGradient>
<linearGradient id="paint1_linear_6_9650" x1="-0.000695145" y1="77.456" x2="87.42" y2="77.456" gradientUnits="userSpaceOnUse">
<stop stop-color="#93BEE5"/>
<stop offset="1" stop-color="#CEEDFF"/>
</linearGradient>
</defs>
</svg>
