<svg width="118" height="129" viewBox="0 0 118 129" fill="none" xmlns="http://www.w3.org/2000/svg">
<path d="M53.3381 129H109.635C113.836 129 117.226 125.595 117.226 121.41V7.59014C117.226 3.38932 113.82 0 109.635 0H53.3381C49.1373 0 45.748 3.40524 45.748 7.59014V121.41C45.748 125.595 49.1373 129 53.3381 129Z" fill="url(#paint0_linear_6_9660)"/>
<path d="M54.5325 126.756H108.459C112.15 126.756 115.126 123.765 115.126 120.089V8.91084C115.126 5.21921 112.135 2.24365 108.459 2.24365H54.5325C50.8409 2.24365 47.8653 5.23512 47.8653 8.91084V120.089C47.8494 123.765 50.8409 126.756 54.5325 126.756Z" fill="#5C6374"/>
<path d="M106.963 5.02832H98.9432C98.8159 7.55836 96.7155 9.57922 94.1536 9.57922H68.4714C65.9095 9.57922 63.8091 7.57427 63.6818 5.02832H55.6621C52.6706 5.02832 50.252 7.44697 50.252 10.4385V119.262C50.252 122.253 52.6706 124.672 55.6621 124.672H106.963C109.954 124.672 112.373 122.253 112.373 119.262V10.4385C112.373 7.44697 109.954 5.02832 106.963 5.02832Z" fill="white"/>
<path d="M84.4148 5.37842H74.8516V6.66732H84.4148V5.37842Z" fill="white"/>
<path d="M86.8973 7.03306C87.4597 7.03306 87.9157 6.57714 87.9157 6.0147C87.9157 5.45227 87.4597 4.99634 86.8973 4.99634C86.3349 4.99634 85.8789 5.45227 85.8789 6.0147C85.8789 6.57714 86.3349 7.03306 86.8973 7.03306Z" fill="white"/>
<path d="M97.5894 22.1816C97.0484 22.1816 96.6028 22.5317 96.4596 23.025C96.3164 22.5317 95.855 22.1816 95.3299 22.1816C94.6775 22.1816 94.1523 22.7067 94.1523 23.3591C94.1523 23.566 94.216 23.7728 94.3115 23.9478C94.3592 24.0274 94.4069 24.0911 94.4706 24.1547L96.4278 26.7962L98.4327 24.1865C98.5123 24.107 98.5759 24.0275 98.6396 23.932C98.735 23.7569 98.7987 23.5501 98.7987 23.3432C98.7669 22.7226 98.2418 22.1816 97.5894 22.1816Z" fill="#44D0A7"/>
<path d="M57.3848 90.3107V33.7563H105.426V90.3107H57.3848Z" stroke="black"/>
<path d="M82.2714 56.8197H81.2815C81.2815 56.8197 81.2733 56.4597 81.2079 55.8952C81.077 54.6844 80.7252 52.5246 79.7844 50.9047C79.6207 50.6266 79.768 50.2666 80.0789 50.1684L80.807 49.9557C81.0688 49.8821 81.347 50.0293 81.4288 50.2911C81.6988 51.1665 82.2141 53.1954 82.2632 55.9034C82.2796 56.1979 82.2796 56.5088 82.2714 56.8197Z" fill="#502522"/>
<path opacity="0.08" d="M82.2716 56.8195H81.2816C81.2816 56.8195 81.2735 56.4595 81.208 55.895C81.5025 55.9114 81.8625 55.9277 82.2716 55.9032C82.2797 56.1977 82.2797 56.5086 82.2716 56.8195Z" fill="black"/>
<path d="M86.9761 73.7381C86.3216 74.1144 85.0372 74.5726 83.1473 74.1226C83.0164 74.0899 82.8692 74.0572 82.7056 74.0244C82.3456 73.959 81.9201 73.9017 81.4538 73.8935C80.7666 73.8935 80.1694 74.0163 79.7522 74.1144C77.8623 74.5644 76.5778 74.1062 75.9234 73.7299C70.6547 70.7111 69.6812 62.5217 71.1947 58.9466C73.1091 54.447 76.9869 54.9378 78.8358 55.8541C79.793 56.3286 81.1838 56.3859 81.4456 56.3941C81.7074 56.3859 83.0982 56.3286 84.0554 55.8541C84.5463 55.6087 85.1844 55.396 85.888 55.2978C87.8269 55.0278 90.2895 55.6414 91.6966 58.9466C93.2183 62.5299 92.2447 70.7274 86.9761 73.7381Z" fill="url(#paint1_linear_6_9660)"/>
<path d="M89.4223 47.7385C89.4223 47.7385 89.4223 56.5496 82.0511 55.2325H82.0429C82.0429 55.2325 79.7358 48.9821 89.365 47.7467C89.3814 47.7467 89.3977 47.7385 89.4223 47.7385Z" fill="#28C079"/>
<path opacity="0.08" d="M89.421 47.7385C89.421 47.7385 89.421 56.5496 82.0498 55.2325C84.1524 53.3262 88.0302 49.1784 89.3637 47.7467C89.3801 47.7467 89.3964 47.7385 89.421 47.7385Z" fill="black"/>
<path opacity="0.08" d="M86.9756 73.7382C86.3211 74.1145 85.0367 74.5727 83.1469 74.1227C83.016 74.09 82.8687 74.0573 82.7051 74.0246C91.0335 72.6256 89.4136 58.7422 85.8957 55.3061C87.8347 55.0361 90.2972 55.6497 91.7043 58.9549C93.2178 62.53 92.2443 70.7276 86.9756 73.7382Z" fill="black"/>
<g opacity="0.8">
<path d="M72.6273 61.2865C72.3655 61.2538 72.1856 61.0083 72.2346 60.7547C72.521 59.2003 73.2982 58.2267 73.7727 57.7522C73.969 57.5559 74.2963 57.5804 74.4599 57.8177L74.689 58.1449L74.4354 57.7768L74.4599 57.8177C74.5826 57.9977 74.5662 58.2431 74.4108 58.3985C74.2799 58.5213 74.1245 58.7012 73.9608 58.9221C73.5354 59.5112 73.2573 60.182 73.1182 60.9265C73.0773 61.1556 72.8646 61.311 72.6273 61.2865Z" fill="#FFA7A7"/>
</g>
<path d="M104.449 95.1072C103.908 95.1072 103.462 95.4572 103.319 95.9505C103.176 95.4572 102.714 95.1072 102.189 95.1072C101.537 95.1072 101.012 95.6323 101.012 96.2847C101.012 96.4915 101.075 96.6984 101.171 96.8734C101.219 96.953 101.266 97.0166 101.33 97.0803L103.287 99.7217L105.292 97.1121C105.372 97.0326 105.435 96.953 105.499 96.8575C105.594 96.6825 105.658 96.4756 105.658 96.2687C105.626 95.6322 105.101 95.1072 104.449 95.1072Z" fill="#28C079"/>
<path d="M90.8758 26.3346L89.9688 25.1094C90.3666 24.7275 90.5894 24.1547 90.478 23.5342C90.3507 22.8022 89.762 22.1975 89.03 22.0702C87.8207 21.8633 86.7705 22.8976 86.9773 24.1229C87.0887 24.8548 87.6775 25.4436 88.4094 25.5868C88.8232 25.6664 89.221 25.5868 89.5551 25.4118L90.4621 26.637C90.5417 26.7484 90.7008 26.7802 90.8122 26.6847C90.9395 26.6052 90.9713 26.446 90.8758 26.3346ZM87.4865 24.0911C87.3115 23.2 88.0912 22.4202 88.9823 22.5953C89.4755 22.6907 89.8893 23.0886 89.9847 23.5978C90.1598 24.4889 89.3801 25.2685 88.489 25.0935C87.9798 24.9821 87.582 24.5844 87.4865 24.0911Z" fill="url(#paint2_linear_6_9660)"/>
<path d="M105.307 23.5183H104.734C104.718 22.6909 104.304 22.2454 103.779 22.2454C103.254 22.2454 102.856 22.6909 102.824 23.5183H102.379L101.997 26.828H105.689L105.307 23.5183ZM103.795 22.6272C104.05 22.6272 104.352 22.8818 104.368 23.5183H103.222C103.238 22.8818 103.525 22.6272 103.795 22.6272Z" fill="url(#paint3_linear_6_9660)"/>
<path d="M61.8517 22.3882H56.6484V23.1202H61.8517V22.3882Z" fill="#5C6374"/>
<path d="M61.8517 24.2979H56.6484V25.0298H61.8517V24.2979Z" fill="#5C6374"/>
<path d="M61.8517 26.2073H56.6484V26.9393H61.8517V26.2073Z" fill="#5C6374"/>
<path d="M87.0727 95.7434H56.585V97.0323H87.0727V95.7434Z" fill="#5C6374"/>
<path d="M72.5288 98.7031H56.6484V99.992H72.5288V98.7031Z" fill="#5C6374"/>
<path d="M72.5288 101.663H56.6484V102.952H72.5288V101.663Z" fill="#5C6374"/>
<path d="M100.04 109.046H60.6572V117.559H100.04V109.046Z" fill="#28C079"/>
<path d="M0.5 75.1624V54.5537H54.0628V75.1624H0.5Z" fill="#28C079" stroke="white"/>
<path d="M7.38296 64.858C9.50967 64.858 11.2337 63.134 11.2337 61.0073C11.2337 58.8806 9.50967 57.1565 7.38296 57.1565C5.25626 57.1565 3.53223 58.8806 3.53223 61.0073C3.53223 63.134 5.25626 64.858 7.38296 64.858Z" fill="white"/>
<path d="M16.1514 58.9546L16.8197 60.3071L18.3154 60.514L17.2334 61.5801L17.488 63.06L16.1514 62.3599L14.8148 63.06L15.0693 61.5801L13.9873 60.514L15.4831 60.3071L16.1514 58.9546Z" fill="white"/>
<path d="M22.7861 58.9546L23.4544 60.3071L24.9502 60.514L23.8681 61.5801L24.1227 63.06L22.7861 62.3599L21.4495 63.06L21.7041 61.5801L20.6221 60.514L22.1178 60.3071L22.7861 58.9546Z" fill="white"/>
<path d="M29.4209 58.9546L30.0892 60.3071L31.5849 60.514L30.5029 61.5801L30.7575 63.06L29.4209 62.3599L28.0843 63.06L28.3389 61.5801L27.2568 60.514L28.7526 60.3071L29.4209 58.9546Z" fill="white"/>
<path d="M35.8496 58.9546L36.5179 60.3071L38.0136 60.514L36.9317 61.5801L37.1862 63.06L35.8496 62.3599L34.513 63.06L34.7676 61.5801L33.6855 60.514L35.1813 60.3071L35.8496 58.9546Z" fill="white"/>
<path d="M42.2627 58.9546L42.931 60.3071L44.4267 60.514L43.3447 61.5801L43.5993 63.06L42.2627 62.3599L40.9261 63.06L41.1807 61.5801L40.0986 60.514L41.5944 60.3071L42.2627 58.9546Z" fill="white"/>
<path d="M50.9347 71.175H3.4209V72.8935H50.9347V71.175Z" fill="white"/>
<path d="M27.0664 67.2131H3.53223V68.9316H27.0664V67.2131Z" fill="white"/>
<path d="M62.2651 92.4656H15.0537V128.682H62.2651V92.4656Z" fill="url(#paint4_linear_6_9660)"/>
<path opacity="0.4" d="M62.2502 92.4656V105.482H33.7515L25.1748 92.4656H62.2502Z" fill="#B98E59"/>
<path d="M27.4652 92.4656H15.0537V128.682H27.4652V92.4656Z" fill="url(#paint5_linear_6_9660)"/>
<path d="M62.2651 125.754H15.0537V128.682H62.2651V125.754Z" fill="url(#paint6_linear_6_9660)"/>
<path d="M27.4652 125.754H15.0537V128.682H21.2595H27.4652V125.754Z" fill="#AF844D"/>
<path d="M69.6152 103.62H34.672L27.4639 92.4337H31.3782L47.9906 92.4178L62.2479 92.4019L69.6152 103.62Z" fill="url(#paint7_linear_6_9660)"/>
<path d="M27.4652 92.4656V95.7116L21.1322 105.482H15.0537V92.4656H27.4652Z" fill="#AF844D"/>
<path d="M20.1621 103.652H7.71875L15.0861 92.4336H27.4658L20.1621 103.652Z" fill="url(#paint8_linear_6_9660)"/>
<path d="M41.1509 115.013H31.1104V119.914H41.1509V115.013Z" fill="white"/>
<path d="M41.1509 121.091H31.1104V122.73H41.1509V121.091Z" fill="white"/>
<path d="M50.6334 121.091H42.916V122.73H50.6334V121.091Z" fill="white"/>
<path opacity="0.6" d="M24.1729 117.464H17.5693V121.903H24.1729V117.464Z" fill="#9E7643"/>
<path d="M24.5547 19.2288L24.5558 19.2288C27.7775 19.1995 30.4173 21.8067 30.4479 25.0323C30.4473 26.6323 29.8321 28.0835 28.8374 29.1544C28.7001 29.2922 28.5663 29.4431 28.4562 29.5688C28.4559 29.5692 28.4556 29.5695 28.4553 29.5699L19.7545 39.416C19.7543 39.4162 19.7541 39.4164 19.7539 39.4166C19.4244 39.7853 18.8711 39.7762 18.5645 39.4217L18.5646 39.4217L18.561 39.4177L9.85707 29.5681L9.8561 29.567C9.84336 29.5526 9.83062 29.5383 9.81786 29.5239C9.70843 29.4006 9.59794 29.2761 9.47389 29.1517C8.44755 28.0796 7.8196 26.6298 7.83423 25.0346L7.83424 25.0346C7.86355 21.8251 10.5032 19.2141 13.7287 19.2288V19.2288H13.7309C15.8367 19.2288 17.6849 20.3692 18.714 22.0598L19.1442 22.7665L19.5698 22.057C20.5802 20.373 22.4419 19.2434 24.5547 19.2288Z" fill="#28C079" stroke="white"/>
<defs>
<linearGradient id="paint0_linear_6_9660" x1="45.7412" y1="64.496" x2="117.233" y2="64.496" gradientUnits="userSpaceOnUse">
<stop stop-color="#C5C9CC"/>
<stop offset="1" stop-color="#DADBDE"/>
</linearGradient>
<linearGradient id="paint1_linear_6_9660" x1="73.5248" y1="71.1605" x2="89.365" y2="56.5802" gradientUnits="userSpaceOnUse">
<stop stop-color="#DC0000"/>
<stop offset="1" stop-color="#FF574D"/>
<stop offset="1" stop-color="#FF574D"/>
</linearGradient>
<linearGradient id="paint2_linear_6_9660" x1="86.9556" y1="24.4028" x2="90.9333" y2="24.4028" gradientUnits="userSpaceOnUse">
<stop stop-color="#C5C9CC"/>
<stop offset="1" stop-color="#DADBDE"/>
</linearGradient>
<linearGradient id="paint3_linear_6_9660" x1="102.009" y1="24.5334" x2="105.693" y2="24.5334" gradientUnits="userSpaceOnUse">
<stop stop-color="#C5C9CC"/>
<stop offset="1" stop-color="#DADBDE"/>
</linearGradient>
<linearGradient id="paint4_linear_6_9660" x1="15.0501" y1="110.571" x2="62.2547" y2="110.571" gradientUnits="userSpaceOnUse">
<stop stop-color="#BF9055"/>
<stop offset="1" stop-color="#FBE3C6"/>
</linearGradient>
<linearGradient id="paint5_linear_6_9660" x1="28.3856" y1="110.571" x2="14.7177" y2="110.571" gradientUnits="userSpaceOnUse">
<stop stop-color="#B68649"/>
<stop offset="1" stop-color="#EBC393"/>
</linearGradient>
<linearGradient id="paint6_linear_6_9660" x1="15.0501" y1="127.221" x2="62.2547" y2="127.221" gradientUnits="userSpaceOnUse">
<stop stop-color="#D4A060"/>
<stop offset="1" stop-color="#ECCEAA"/>
</linearGradient>
<linearGradient id="paint7_linear_6_9660" x1="27.4633" y1="98.0104" x2="69.6144" y2="98.0104" gradientUnits="userSpaceOnUse">
<stop stop-color="#E6B881"/>
<stop offset="1" stop-color="#FFEBD3"/>
</linearGradient>
<linearGradient id="paint8_linear_6_9660" x1="7.71875" y1="98.0395" x2="27.4652" y2="98.0395" gradientUnits="userSpaceOnUse">
<stop stop-color="#ECC392"/>
<stop offset="1" stop-color="#D6AA75"/>
</linearGradient>
</defs>
</svg>
