<svg width="1027" height="726" viewBox="0 0 1027 726" fill="none" xmlns="http://www.w3.org/2000/svg">
<path d="M190 216.008L190 249.8L220.991 250C221.365 229.605 209.603 215.608 190 216.008Z" fill="#FFE500"/>
<path d="M1017.33 61.5181L1026.52 52.3257L974.192 -0.000221729L964.999 9.19217L1017.33 61.5181Z" fill="#AA0BF0"/>
<path d="M756.353 213.338C760.437 228.58 752.532 241.952 738.785 245.635C724.548 249.45 711.047 242.268 707.004 226.198" fill="#0181F8"/>
<path d="M732 440C732 432.82 726.404 427 719.5 427C712.596 427 707 432.82 707 440C707 447.179 712.596 453 719.5 453C726.404 453 732 447.179 732 440Z" fill="#F10E0E"/>
<path d="M0.000244141 708.078L16.252 725.738L68.4967 677.66L52.2449 660L0.000244141 708.078Z" fill="#22DA4A"/>
</svg>
