<svg width="79" height="74" viewBox="0 0 79 74" fill="none" xmlns="http://www.w3.org/2000/svg">
<path d="M76.9434 4.26951V18.1382C76.9434 20.5029 75.0292 22.4171 72.6646 22.4171H69.7182V28.507C69.7182 29.2107 68.8549 29.5485 68.3764 29.0324L62.3146 22.4265H45.3775C43.0129 22.4265 41.0986 20.5123 41.0986 18.1476V4.27888C41.0986 1.91425 43.0129 3.43511e-05 45.3775 3.43511e-05H72.6646C75.0292 -0.00934911 76.9434 1.90488 76.9434 4.26951Z" fill="#28C079"/>
<path d="M71.3705 6.51221H46.6826V8.85807H71.3705V6.51221Z" fill="white"/>
<path d="M71.3702 12.8931H57.8018V15.2389H71.3702V12.8931Z" fill="white"/>
<path opacity="0.6" d="M61.3669 15.9423V22.4169H41.0986V7.91943H53.344C57.773 7.91943 61.3669 11.5133 61.3669 15.9423Z" fill="url(#paint0_linear_6_9730)"/>
<path d="M59.3034 17.0685V57.042C59.3034 61.0018 56.0943 64.2204 52.1251 64.2204H7.17834C3.21853 64.2204 0 61.0112 0 57.042V17.0685C0 13.1087 3.20914 9.89014 7.17834 9.89014H52.1251C56.0943 9.89014 59.3034 13.0993 59.3034 17.0685Z" fill="url(#paint1_linear_6_9730)"/>
<path d="M38.9223 43.9239L35.4411 47.3207C34.8593 47.8837 33.9304 47.8743 33.3673 47.2926L18.3913 31.9224C17.8283 31.3407 17.8377 30.4117 18.4195 29.8487L21.8726 26.4894C22.4638 25.9077 22.4825 24.96 21.9007 24.3594L17.6501 19.9961C17.0683 19.4049 16.1205 19.3862 15.52 19.9679L13.2492 22.1824C9.9744 25.3728 9.9087 30.6088 13.0991 33.8742L31.2842 52.5379C34.4746 55.8127 39.7106 55.8784 42.976 52.6881L45.2843 50.436C45.8755 49.8543 45.8942 48.9065 45.3125 48.306L41.0618 43.9427C40.4706 43.3609 39.5229 43.3421 38.9223 43.9239Z" fill="#9E881E"/>
<path opacity="0.8" d="M59.3035 42.1318V57.0515C59.3035 61.0114 56.0944 64.2299 52.1251 64.2299H47.3865C46.8423 62.5409 46.542 60.7486 46.542 58.8813C46.542 50.8772 51.9469 44.1399 59.3035 42.1318Z" fill="url(#paint2_linear_6_9730)"/>
<path d="M30.5904 33.1145C31.5492 33.1145 32.3264 32.3373 32.3264 31.3785C32.3264 30.4198 31.5492 29.6426 30.5904 29.6426C29.6317 29.6426 28.8545 30.4198 28.8545 31.3785C28.8545 32.3373 29.6317 33.1145 30.5904 33.1145Z" fill="white"/>
<path d="M36.3141 33.1145C37.2728 33.1145 38.05 32.3373 38.05 31.3785C38.05 30.4198 37.2728 29.6426 36.3141 29.6426C35.3553 29.6426 34.5781 30.4198 34.5781 31.3785C34.5781 32.3373 35.3553 33.1145 36.3141 33.1145Z" fill="white"/>
<path d="M42.1324 33.1145C43.0912 33.1145 43.8684 32.3373 43.8684 31.3785C43.8684 30.4198 43.0912 29.6426 42.1324 29.6426C41.1737 29.6426 40.3965 30.4198 40.3965 31.3785C40.3965 32.3373 41.1737 33.1145 42.1324 33.1145Z" fill="white"/>
<path d="M63.9575 73.585C72.042 73.585 78.5957 67.0312 78.5957 58.9468C78.5957 50.8623 72.042 44.3086 63.9575 44.3086C55.8731 44.3086 49.3193 50.8623 49.3193 58.9468C49.3193 67.0312 55.8731 73.585 63.9575 73.585Z" fill="#28C079"/>
<path d="M62.6628 63.5826C62.6628 64.0517 62.2781 64.4364 61.809 64.4364H55.6346C55.1185 64.4364 54.6963 64.0142 54.6963 63.4981C54.6963 63.2447 54.7995 62.9914 54.9872 62.8131L58.9845 59.0128C59.4725 58.553 59.7915 58.1495 59.9604 57.8023C60.1293 57.4552 60.2138 57.1174 60.2138 56.7796C60.2138 56.2729 60.0448 55.8881 59.707 55.6254C59.3692 55.3532 58.8719 55.2219 58.2057 55.2219C57.3799 55.2219 56.695 55.4377 56.1601 55.86C55.8411 56.1133 55.3813 56.1321 55.0622 55.8787C54.6024 55.5222 54.6025 54.8184 55.0716 54.4712C55.3437 54.2742 55.644 54.0959 55.9724 53.9457C56.6856 53.6361 57.4926 53.4766 58.3746 53.4766C59.5476 53.4766 60.4859 53.7581 61.1803 54.3117C61.884 54.8653 62.2312 55.6254 62.2312 56.5825C62.2312 57.1737 62.1092 57.7179 61.8652 58.234C61.6213 58.7501 61.1428 59.3318 60.4484 59.9981L57.5582 62.7474H61.809C62.2875 62.7286 62.6628 63.1134 62.6628 63.5826Z" fill="white"/>
<path d="M72.375 61.969H71.3147V63.4515C71.3147 63.9864 70.8831 64.4274 70.3389 64.4274C69.804 64.4274 69.363 63.9958 69.363 63.4515V61.969H64.4742C63.9018 61.969 63.4326 61.4998 63.4326 60.9274C63.4326 60.7022 63.5077 60.477 63.6484 60.2987L68.4997 53.9555C68.6592 53.7397 68.9125 53.6177 69.1847 53.6177C69.8884 53.6177 70.2919 54.4247 69.8697 54.9971L65.8911 60.2799H69.4286V59.0413C69.4286 58.5252 69.8509 58.103 70.367 58.103C70.8831 58.103 71.3053 58.5252 71.3053 59.0413V60.2799H72.375C72.8442 60.2799 73.2289 60.6647 73.2289 61.1338C73.2289 61.5936 72.8442 61.969 72.375 61.969Z" fill="white"/>
<defs>
<linearGradient id="paint0_linear_6_9730" x1="55.6316" y1="10.303" x2="44.6277" y2="22.4799" gradientUnits="userSpaceOnUse">
<stop stop-color="#189259"/>
<stop offset="1" stop-color="#09AE61"/>
</linearGradient>
<linearGradient id="paint1_linear_6_9730" x1="0" y1="37.0552" x2="59.3034" y2="37.0552" gradientUnits="userSpaceOnUse">
<stop stop-color="#FED81D"/>
<stop offset="1" stop-color="#FFE884"/>
</linearGradient>
<linearGradient id="paint2_linear_6_9730" x1="46.542" y1="53.1748" x2="59.3035" y2="53.1748" gradientUnits="userSpaceOnUse">
<stop stop-color="#CDAE1A"/>
<stop offset="1" stop-color="#FFE674"/>
</linearGradient>
</defs>
</svg>
