<svg width="1031" height="723" viewBox="0 0 1031 723" fill="none" xmlns="http://www.w3.org/2000/svg">
<path d="M716.064 324.09L709.853 347.272L778.433 365.648L784.645 342.466L716.064 324.09Z" fill="#22DA4A"/>
<path d="M1021.33 61.5183L1030.52 52.3259L978.194 2.24113e-05L969.001 9.19241L1021.33 61.5183Z" fill="#AA0BF0"/>
<path d="M314 126.008L314 159.8L344.991 160C345.365 139.605 333.603 125.608 314 126.008Z" fill="#FFE500"/>
<path d="M0.000244141 654.078L16.252 671.739L68.4967 623.661L52.2449 606L0.000244141 654.078Z" fill="#22DA4A"/>
<path d="M512.939 648.317C528.646 662.574 529.547 683.325 516.825 697.341C503.649 711.859 483.268 713.446 467.002 698.226" fill="#0181F8"/>
<path d="M707.999 75C719.597 75 728.999 66.0457 728.999 55C728.999 43.9543 719.597 35 707.999 35C696.401 35 686.999 43.9543 686.999 55C686.999 66.0457 696.401 75 707.999 75Z" fill="#F10E0E"/>
</svg>
