<svg width="101" height="85" viewBox="0 0 101 85" fill="none" xmlns="http://www.w3.org/2000/svg">
<path d="M35.3186 27.356H32.3365C32.3365 27.356 32.3119 26.2717 32.1148 24.5711C31.7204 20.9237 30.6607 14.4174 27.8266 9.53768C27.3337 8.69975 27.7773 7.61537 28.7138 7.31963L30.9072 6.67886C31.6958 6.45705 32.5338 6.90066 32.7802 7.68931C33.5935 10.3263 35.1461 16.4383 35.294 24.5958C35.3432 25.483 35.3433 26.4195 35.3186 27.356Z" fill="#502522"/>
<path opacity="0.08" d="M35.3171 27.3562H32.3351C32.3351 27.3562 32.3104 26.2718 32.1133 24.5713C33.0005 24.6206 34.0849 24.6699 35.3171 24.5959C35.3418 25.4831 35.3418 26.4197 35.3171 27.3562Z" fill="black"/>
<path d="M49.4887 78.3217C47.5171 79.4553 43.6479 80.8355 37.9549 79.48C37.5606 79.3814 37.117 79.2828 36.6241 79.1842C35.5397 78.9871 34.2581 78.8146 32.8533 78.7899C30.7831 78.7899 28.9841 79.1596 27.7272 79.4553C22.0342 80.8108 18.1649 79.4307 16.1932 78.297C0.321856 69.203 -2.61085 44.5333 1.94848 33.7635C7.71541 20.2087 19.3971 21.6874 24.9669 24.4476C27.8504 25.8771 32.04 26.0496 32.8286 26.0742C33.6173 26.0496 37.807 25.8771 40.6905 24.4476C42.1692 23.7083 44.0915 23.0675 46.211 22.7718C52.0518 21.9585 59.47 23.8069 63.7089 33.7635C68.2929 44.558 65.3601 69.2523 49.4887 78.3217Z" fill="url(#paint0_linear_6_9746)"/>
<path d="M56.8575 0C56.8575 0 56.8576 26.5427 34.6525 22.5748H34.6278C34.6278 22.5748 27.6779 3.74604 56.6851 0.0246465C56.7344 0.0246465 56.7836 0 56.8575 0Z" fill="#28C079"/>
<path opacity="0.08" d="M56.8574 0C56.8574 0 56.8575 26.5427 34.6523 22.5748C40.9861 16.8326 52.6678 4.33753 56.685 0.0246465C56.7343 0.0246465 56.7835 0 56.8574 0Z" fill="black"/>
<path opacity="0.08" d="M49.4877 78.3219C47.5161 79.4556 43.6469 80.8357 37.9539 79.4802C37.5595 79.3816 37.1159 79.2831 36.623 79.1845C61.7117 74.9702 56.832 33.1476 46.2346 22.7967C52.0755 21.9834 59.4936 23.8318 63.7326 33.7884C68.2919 44.5582 65.3591 69.2525 49.4877 78.3219Z" fill="black"/>
<g opacity="0.8">
<path d="M6.26194 40.8122C5.4733 40.7136 4.93116 39.9743 5.07903 39.2103C5.94161 34.5277 8.28283 31.595 9.71225 30.1656C10.3037 29.5741 11.2895 29.648 11.7824 30.3627L12.4725 31.3485L11.7085 30.2395L11.7824 30.3627C12.1521 30.9049 12.1028 31.6443 11.6345 32.1125C11.2402 32.4822 10.7719 33.0244 10.279 33.6898C8.99749 35.4642 8.15961 37.4851 7.74064 39.7278C7.61742 40.4179 6.97665 40.8861 6.26194 40.8122Z" fill="#FFA7A7"/>
</g>
<circle cx="40.9024" cy="55.6441" r="6.65827" fill="#9E332C"/>
<path fill-rule="evenodd" clip-rule="evenodd" d="M89.9966 54.4963C89.0368 54.3976 88.4125 54.7801 88.1387 55.1908C87.9467 55.4789 87.5918 56.5651 87.404 59.3443C87.3352 60.3626 87.2941 61.4308 87.249 62.6057C87.2386 62.8747 87.2281 63.1494 87.2169 63.4302C87.1588 64.8941 87.0856 66.4867 86.9353 68.0736C86.6448 71.1415 86.0266 74.771 84.2109 77.8421C82.2165 81.2158 78.9601 83.6029 74.3208 84.1951C69.4342 84.8189 65.0589 83.4843 61.8873 79.7442C59.0419 76.3887 57.6339 71.6154 56.8829 66.3579C56.6683 64.8561 56.1168 63.9433 55.4568 63.2851C54.7319 62.562 53.6539 61.9338 52.1469 61.43C49.6393 60.5919 46.9364 60.3572 44.2207 60.1214C43.4217 60.052 42.6216 59.9825 41.8251 59.8976C39.2133 59.619 37.3219 57.2758 37.6005 54.6641C37.8791 52.0523 40.2222 50.1608 42.834 50.4394C43.2799 50.487 43.8226 50.5322 44.4397 50.5836C47.2008 50.8137 51.4495 51.1678 55.1622 52.4088C57.5491 53.2066 60.0826 54.4645 62.1741 56.5506C64.3305 58.7014 65.8002 61.5208 66.2991 65.0128C66.9748 69.7427 68.0637 72.3208 69.1419 73.5923C69.8939 74.479 70.869 75.0467 73.1163 74.7599C74.7786 74.5477 75.489 73.9048 76.023 73.0015C76.7358 71.7957 77.2079 69.9013 77.4658 67.1769C77.5898 65.8678 77.6553 64.4971 77.7126 63.053C77.7225 62.8038 77.7322 62.5507 77.742 62.2948C77.7873 61.1129 77.8347 59.8734 77.9138 58.7031C78.0875 56.1319 78.4489 52.5779 80.2244 49.9146C82.8041 46.0451 87.1735 44.644 90.9696 45.0344C94.7717 45.4253 98.7726 47.6944 100.494 52.0464C101.46 54.4889 100.263 57.2521 97.8205 58.2181C95.378 59.1842 92.6148 57.9873 91.6487 55.5448C91.4677 55.087 90.9504 54.5944 89.9966 54.4963Z" fill="url(#paint1_linear_6_9746)"/>
<path d="M96.0694 53.9795C96.0694 54.6362 95.537 55.1685 94.8804 55.1685C94.2237 55.1685 93.6914 54.6362 93.6914 53.9795C93.6914 53.3229 94.2237 52.7905 94.8804 52.7905C95.537 52.7905 96.0694 53.3229 96.0694 53.9795Z" fill="white"/>
<path d="M96.0703 53.9797C96.0703 54.3737 95.7509 54.6931 95.3569 54.6931C94.9629 54.6931 94.6436 54.3737 94.6436 53.9797C94.6436 53.5858 94.9629 53.2664 95.3569 53.2664C95.7509 53.2664 96.0703 53.5858 96.0703 53.9797Z" fill="black"/>
<circle cx="98.2105" cy="53.9795" r="1.18898" fill="white"/>
<path d="M99.4004 53.9797C99.4004 54.3737 99.081 54.6931 98.687 54.6931C98.293 54.6931 97.9736 54.3737 97.9736 53.9797C97.9736 53.5858 98.293 53.2664 98.687 53.2664C99.081 53.2664 99.4004 53.5858 99.4004 53.9797Z" fill="black"/>
<defs>
<linearGradient id="paint0_linear_6_9746" x1="8.96772" y1="70.5568" x2="56.6851" y2="26.6351" gradientUnits="userSpaceOnUse">
<stop stop-color="#DC0000"/>
<stop offset="1" stop-color="#FF574D"/>
<stop offset="1" stop-color="#FF574D"/>
</linearGradient>
<linearGradient id="paint1_linear_6_9746" x1="42.3295" y1="59.9244" x2="85.8461" y2="50.8882" gradientUnits="userSpaceOnUse">
<stop stop-color="#188351"/>
<stop offset="1" stop-color="#28C079"/>
</linearGradient>
</defs>
</svg>
