<svg width="170" height="222" viewBox="0 0 170 222" fill="none" xmlns="http://www.w3.org/2000/svg">
<path d="M100.958 6.38375L0 0V209.009H100.958V6.38375Z" fill="#F3E8CB"/>
<path d="M91.2633 17.5123L8.03809 11.8218V198.133H91.2633V17.5123Z" stroke="white"/>
<circle cx="17.3243" cy="94.8163" r="5.67445" fill="#C4B07D"/>
<path d="M108.173 101.282C109.119 119.308 110.746 175.603 111.37 197.365C111.521 202.798 111.611 206.08 111.611 206.08C111.611 206.08 119.148 208.042 125.111 206.08L125.154 197.592L125.3 167.555L125.475 133.088L125.537 119.455L125.636 99.2585C124.974 87.1105 108.173 86.212 108.173 101.282Z" fill="#93BEE5"/>
<path d="M125.301 167.555L125.476 133.088L125.537 119.455C124.435 119.171 123.088 119.422 121.452 120.339C116.756 122.954 116.912 135.495 120.161 139.968C123.211 144.191 115.03 159.115 125.301 167.555Z" fill="#83ADDF"/>
<path d="M123.999 204.898L124.472 215.991H101.774C101.774 215.991 101.368 213.854 104.725 212.431C108.082 211.007 115.261 204.997 115.412 204.898C115.563 204.799 123.999 204.898 123.999 204.898Z" fill="#683F1D"/>
<path d="M111.37 197.365C111.521 202.798 111.611 206.08 111.611 206.08C111.611 206.08 119.149 208.042 125.112 206.08L125.154 197.592C120.578 198.27 115.922 198.194 111.37 197.365Z" fill="#C3DCF8"/>
<path d="M120.813 115.875C120.813 116.523 120.851 117.166 120.87 117.809C120.87 117.88 120.87 117.951 120.87 118.022C120.87 118.206 120.87 118.381 120.87 118.566C120.87 118.977 120.908 119.379 120.922 119.786C120.96 120.684 121.007 121.578 121.059 122.476C121.059 122.803 121.097 123.129 121.116 123.451C121.144 123.871 121.168 124.297 121.196 124.718C121.234 125.299 121.276 125.872 121.319 126.458C121.347 126.794 121.371 127.134 121.399 127.475C121.456 128.189 121.513 128.893 121.579 129.612C121.626 130.113 121.674 130.619 121.716 131.13C121.749 131.466 121.787 131.797 121.82 132.132C121.863 132.553 121.905 132.979 121.953 133.409C121.981 133.698 122.009 133.986 122.042 134.275C122.071 134.487 122.09 134.705 122.113 134.922L122.241 136.01C122.288 136.417 122.34 136.828 122.392 137.244C122.43 137.556 122.468 137.878 122.511 138.19C122.553 138.502 122.591 138.824 122.634 139.136C122.709 139.722 122.785 140.313 122.87 140.914C123.078 142.465 123.31 144.058 123.56 145.704C123.636 146.177 123.712 146.687 123.792 147.189C125.896 160.599 134.337 186.735 139.047 200.93C140.343 204.836 141.359 207.834 141.884 209.442C141.884 209.442 151.285 209.622 155.947 205.858C155.947 205.858 154.85 202.117 153.323 196.769C149.909 184.815 144.315 164.836 143.941 160.831C143.761 158.831 143.468 151.913 143.189 143.689C142.636 128.004 142.054 107.59 142.054 107.59C141.96 100.53 138.03 96.4165 133.543 95.1019C127.977 93.4611 121.565 96.1328 120.647 102.8C120.657 107.444 120.685 111.719 120.813 115.875Z" fill="#93BEE5"/>
<path d="M120.871 117.809C121.243 127.659 122.229 137.476 123.821 147.203" stroke="white" stroke-width="0.75" stroke-linecap="round" stroke-linejoin="round"/>
<path d="M134.678 116.991C138.985 118.41 140.995 122.301 138.508 127.546C136.408 131.957 137.397 139.164 143.213 143.67C142.66 127.985 142.078 107.572 142.078 107.572C141.983 100.512 138.054 96.3976 133.566 95.083C131.377 96.1422 129.495 98.743 128.8 103.443C127.968 109.151 129.731 115.383 134.678 116.991Z" fill="#83ADDF"/>
<path d="M121.443 116.282C120.181 115.426 119.68 115.308 119.552 114.863C119.424 114.419 119.315 108.952 119.315 108.952" stroke="white" stroke-width="0.75" stroke-linecap="round" stroke-linejoin="round"/>
<path d="M118.439 116.996C119.919 117.28 120.865 117.658 120.879 118.022" stroke="white" stroke-width="0.75" stroke-linecap="round" stroke-linejoin="round"/>
<path d="M122.308 110.546C122.241 112.504 122.308 114.802 122.308 114.802" stroke="white" stroke-width="0.75" stroke-linecap="round" stroke-linejoin="round"/>
<path d="M140.178 107.439C140.363 111.066 140.178 116.258 140.178 116.258C140.178 116.258 136.097 113.454 136.84 107.439" stroke="white" stroke-width="0.75" stroke-linecap="round" stroke-linejoin="round"/>
<path d="M153.11 204.094L157.201 214.417L135.765 221.902C135.765 221.902 134.678 220.011 137.378 217.566C140.078 215.121 144.863 207.078 144.986 206.931C145.109 206.785 153.11 204.094 153.11 204.094Z" fill="#683F1D"/>
<path d="M139.075 200.945C140.371 204.851 141.388 207.849 141.912 209.456C141.912 209.456 151.313 209.636 155.976 205.872C155.976 205.872 154.879 202.131 153.351 196.783C149.393 198.67 143.156 200.245 139.075 200.945Z" fill="#C3DCF8"/>
<path d="M91.5552 84.9826L92.0281 84.6232C96.5724 80.9727 110.858 68.9003 110.858 68.9003C110.721 70.021 110.205 74.3714 109.581 79.677C108.323 90.2929 106.621 104.739 106.621 104.739C115.648 106.824 122.514 107.884 127.678 108.342C138.89 109.354 142.1 107.586 142.1 107.586C142.1 107.586 143.292 103.079 144.867 96.8942C145.042 96.1944 145.231 95.4756 145.415 94.7285C146.678 89.7491 148.115 83.9707 149.368 78.6509C150.546 73.6573 151.558 69.08 152.111 65.9637C152.364 64.7526 152.511 63.5216 152.551 62.2848C152.406 60.5086 151.581 58.8569 150.248 57.6743C149.039 56.5519 147.642 55.6521 146.12 55.0168C150.754 51.9668 147.482 43.0342 139.343 44.8737C138.024 45.1716 136.615 45.0771 134.558 44.7224C133.281 44.4954 131.749 44.1739 129.829 43.7767L128.411 43.4835C126.756 43.143 125.38 42.8971 124.24 42.7363C118.769 41.9656 118.66 43.0674 118.821 44.5758C118.821 44.5758 112.536 42.7505 108.493 47.2948C107.188 48.7607 105.926 50.2361 104.673 51.7398C99.3197 58.1708 94.1655 65.0558 86.538 73.6715C77.0995 84.2875 87.6115 88.1225 91.5552 84.9826Z" fill="#28C079"/>
<path d="M117.029 102.488C118.41 103.557 122.803 106.125 127.655 108.328C138.866 109.34 142.077 107.572 142.077 107.572C142.077 107.572 143.269 103.065 144.843 96.88C145.018 96.1802 145.208 95.4614 145.392 94.7143C146.655 89.735 148.092 83.9565 149.345 78.6367C148.456 75.4401 146.782 72.9622 144.016 71.7753C133.755 67.4202 129.768 73.6668 130.52 78.5421C131.272 83.4174 130.27 87.9711 122.306 89.0493C114.343 90.1274 113.904 100.077 117.029 102.488Z" fill="#1F9B61"/>
<path d="M92.0049 84.6231C96.5492 80.9726 110.835 68.9002 110.835 68.9002C110.835 68.9002 111.487 63.1926 111.932 58.9415C108.324 59.788 105.633 62.1334 106.423 65.5617C107.368 69.6662 102.985 73.6005 98.9939 73.1938C95.3008 72.8061 90.3971 81.2847 92.0049 84.6231Z" fill="#1F9B61"/>
<path d="M104.639 51.7303C108.957 51.8296 112.735 54.3784 114.797 59.9772C116.31 64.1006 118.447 66.5974 121.024 67.6708C124.765 69.2265 129.432 67.789 134.501 63.9729C135.64 63.0904 136.941 62.441 138.331 62.0621C139.721 61.6832 141.172 61.5821 142.601 61.7646C145.793 62.1287 149.037 63.7034 152.087 65.959C152.34 64.7478 152.488 63.5168 152.527 62.2801C152.382 60.5039 151.557 58.8521 150.224 57.6696C149.015 56.5471 147.618 55.6474 146.096 55.012C150.73 51.962 147.458 43.0295 139.32 44.869C138 45.1669 136.591 45.0723 134.534 44.7176C133.257 44.4907 131.725 44.1691 129.805 43.7719L128.387 43.4787C126.732 43.1383 125.356 42.8924 124.216 42.7316C118.745 41.9608 118.636 43.0626 118.797 44.571C118.797 44.571 112.513 42.7458 108.47 47.2901C107.155 48.7512 105.892 50.2266 104.639 51.7303Z" fill="#2BDA88"/>
<path d="M110.816 68.9003C110.816 68.9003 111.468 63.1927 111.913 58.9416C112.003 58.0763 112.083 57.2724 112.149 56.5773" stroke="#145C3B" stroke-width="0.75" stroke-linecap="round" stroke-linejoin="round"/>
<path d="M123.27 56.5867C121.005 60.8851 119.279 85.5736 119.132 88.7419C118.986 91.9101 117.104 91.4467 117.028 94.596C117.019 95.5406 117.208 96.4765 117.584 97.3433C117.959 98.21 118.513 98.9882 119.208 99.6274" stroke="#145C3B" stroke-width="0.75" stroke-linecap="round" stroke-linejoin="round"/>
<path d="M124.415 52.4112C127.341 50.6574 130.536 49.3984 133.872 48.685C133.872 48.685 135.078 41.592 135.792 36.9058C137.102 28.3043 128.377 29.0845 126.514 35.8608C126.42 36.2202 126.282 36.6647 126.122 37.1706C125.356 39.5634 124.017 43.2848 123.284 45.304C122.968 46.1741 122.76 46.7226 122.76 46.7226C125.001 48.9073 124.415 52.4112 124.415 52.4112Z" fill="#FEBD9D"/>
<path d="M123.27 45.304C127.625 46.8929 130.869 44.4434 130.869 39.9275L127.488 37.4165L126.122 37.1707C125.355 39.5634 124.017 43.2943 123.27 45.304Z" fill="#F4A789"/>
<path d="M139.32 47.9096C136.143 47.9758 131.206 48.7182 124.415 52.4113C124.415 52.4113 125.475 47.8292 120.841 45.1906" stroke="#145C3B" stroke-width="0.75" stroke-linecap="round" stroke-linejoin="round"/>
<path d="M136.648 83.1242C138.079 88.3735 140.919 93.1308 144.862 96.88C148.011 84.5429 152.702 65.5287 152.546 62.2801C152.314 57.4048 146.115 55.0121 146.115 55.0121C136.468 57.5467 133.65 72.3759 136.648 83.1242Z" fill="#F9F9F9" stroke="#DDDDDD" stroke-linecap="round" stroke-linejoin="round"/>
<path d="M163.74 80.5565C164.686 75.4211 164.979 73.8654 163.991 71.9171C163.003 69.9689 160.208 67.9356 158.572 68.9239C156.936 69.9122 155.437 75.5441 155.437 75.5441L157.385 76.6742C157.385 76.6742 158.331 69.496 160.293 70.2101C162.255 70.9241 163.684 73.3736 162.61 78.2489L163.74 80.5565Z" fill="#EDEDED" stroke="#DDDDDD" stroke-width="0.75" stroke-linecap="round" stroke-linejoin="round"/>
<path d="M140.257 104.262C142.125 109.335 146.49 119.937 149.908 120.429C152.265 120.753 154.657 120.713 157.002 120.311C158.113 120.089 158.988 119.748 159.389 119.289C161.256 117.046 162.787 114.544 163.934 111.861C165.073 108.948 168.01 96.0667 167.603 91.6643C167.197 87.2618 164.506 74.5038 155.455 69.3022C151.095 66.7913 148.608 74.116 145.099 82.4291C142.404 88.827 139.898 95.2959 139.718 100.252C139.637 101.611 139.821 102.972 140.257 104.262Z" fill="#F9F9F9" stroke="#DDDDDD" stroke-linecap="round" stroke-linejoin="round"/>
<path d="M140.258 104.262C142.126 109.335 146.491 119.937 149.909 120.429C152.266 120.753 154.658 120.713 157.002 120.311C159.267 115.998 159.887 114.75 159.409 111.846C158.932 108.943 154.997 101.892 153.461 100.838C152.042 99.8922 144.452 97.9771 139.747 100.256C139.658 101.612 139.832 102.972 140.258 104.262Z" fill="#EDEDED" stroke="#DDDDDD" stroke-width="0.75" stroke-linecap="round" stroke-linejoin="round"/>
<path d="M161.011 78.5752C159.843 83.3843 158.49 88.8885 157.918 90.1369C157.346 91.3853 155.166 96.88 155.166 96.88" fill="#F9F9F9"/>
<path d="M161.011 78.5752C159.843 83.3843 158.49 88.8885 157.918 90.1369C157.346 91.3853 155.166 96.88 155.166 96.88" stroke="#DDDDDD" stroke-width="0.75" stroke-linecap="round" stroke-linejoin="round"/>
<path d="M156.656 89.5647C153.715 87.9475 147.899 87.3895 146.154 87.4604L156.656 89.5647Z" fill="#F9F9F9"/>
<path d="M156.656 89.5647C153.715 87.9475 147.899 87.3895 146.154 87.4604" stroke="#DDDDDD" stroke-width="0.75" stroke-linecap="round" stroke-linejoin="round"/>
<path d="M168.743 96.2558C168.246 97.1164 166.747 95.7545 165.565 93.8914C164.383 92.0283 161.12 85.446 161.21 83.7247C161.3 82.0035 162.482 80.0931 161.891 77.6389C161.3 75.1847 155.398 69.5008 153.313 68.8955C153.749 68.673 154.231 68.557 154.72 68.557C155.209 68.557 155.691 68.673 156.127 68.8955C157.668 69.6521 165.206 76.731 167.291 84.0841C169.377 91.4372 169.249 95.3857 168.743 96.2558Z" fill="#EDEDED" stroke="#DDDDDD" stroke-width="0.75" stroke-linecap="round" stroke-linejoin="round"/>
<path d="M164.207 86.3917L162.953 84.713L161.01 90.534L162.306 92.1891L164.207 86.3917Z" fill="#DDDDDD" stroke="#DDDDDD" stroke-linecap="round" stroke-linejoin="round"/>
<path d="M168.473 94.4541L167.499 93.1443L165.981 97.6838L166.993 98.9748L168.473 94.4541Z" fill="#DDDDDD" stroke="#DDDDDD" stroke-linecap="round" stroke-linejoin="round"/>
<path d="M143.071 98.5161C143.908 97.2949 144.683 96.0323 145.393 94.7331C149.001 88.1933 152.538 78.9298 153.488 73.3546C153.823 71.4521 154.033 69.5297 154.117 67.5998C154.297 62.9136 153.417 58.8706 150.225 57.6695C148.301 56.9649 145.582 57.7452 142.612 61.7693C140.148 65.1078 137.505 70.6829 134.989 79.4878C127.187 106.716 137.581 106.432 143.071 98.5161Z" fill="#28C079"/>
<path d="M142.603 61.7646C145.794 62.1287 149.038 63.7033 152.088 65.9589C152.774 66.4696 153.455 67.0087 154.117 67.5809C154.297 62.8947 153.417 58.8517 150.225 57.6506C148.291 56.9602 145.572 57.7405 142.603 61.7646Z" fill="#2BDA88"/>
<path d="M112.387 116.811C111.669 117.176 110.141 115.866 109.219 113.166C109.219 113.166 113.139 111.236 113.224 111.236C113.309 111.236 114.26 115.464 112.387 116.811Z" fill="#145C3B"/>
<path d="M110.457 104.422C106.934 105.794 106.059 106.129 105.255 106.2C104.452 106.271 101.473 105.888 100.759 106.2C100.044 106.512 99.4676 107.619 99.4676 107.619C99.4676 107.619 96.4932 107.278 95.7603 107.765C95.0273 108.253 95.1077 109.657 95.6988 110.026C96.2899 110.395 96.8857 110.688 96.7107 111.7C96.5358 112.712 96.6776 113.203 97.0228 113.516C97.368 113.828 96.3986 114.386 97.1268 115.573C97.8551 116.759 97.1647 117.596 98.2476 118.017C99.3304 118.438 113.876 114.598 114.571 113.899C115.266 113.199 114.486 102.876 110.457 104.422Z" fill="#FEBD9D"/>
<path d="M103.119 106.115C102.13 106.063 101.123 106.035 100.754 106.2C100.054 106.517 99.4634 107.619 99.4634 107.619C99.4634 107.619 96.489 107.278 95.7561 107.765C95.0231 108.253 95.1035 109.657 95.6946 110.026C96.2857 110.395 96.8815 110.688 96.7065 111.7C96.5316 112.712 96.6734 113.203 97.0186 113.516C97.3638 113.828 96.3944 114.386 97.1227 115.573C97.8509 116.759 97.1605 117.596 98.2434 118.017C98.5129 118.121 99.6194 117.961 101.137 117.648" stroke="#EF8A66" stroke-width="0.75" stroke-linecap="round" stroke-linejoin="round"/>
<path d="M99.4691 107.605C100.589 107.628 101.709 107.576 102.822 107.449" stroke="#EF8A66" stroke-width="0.75" stroke-linecap="round" stroke-linejoin="round"/>
<path d="M141.734 89.8534C138.173 85.2665 133.222 87.7538 124.398 93.2249C118.72 96.7943 113.298 100.757 108.174 105.085C108.174 105.085 112.974 111 112.387 116.812C112.387 116.812 136.352 105.373 139.885 101.845C142.67 99.0649 144.443 93.3432 141.734 89.8534Z" fill="#2BDA88"/>
<path d="M138.532 87.6117C135.255 86.8078 130.876 89.2195 124.398 93.2247C118.72 96.794 113.298 100.757 108.174 105.084" stroke="#145C3B" stroke-width="0.75" stroke-linecap="round" stroke-linejoin="round"/>
<path d="M125.223 42.3485C128.505 43.4598 132.945 42.4857 135.849 37.7333C137.636 34.9357 138.403 31.6067 138.019 28.309C137.835 26.5546 136.402 22.5352 131.787 23.8782C127.654 25.0698 125.706 27.6612 124.448 31.1131C124.296 31.5198 124.154 31.9406 124.022 32.3757C123.819 33.0519 123.62 33.747 123.455 34.4421C122.613 37.913 122.49 41.4028 125.223 42.3485Z" fill="#FEBD9D"/>
<path d="M130.534 33.7423C130.856 34.7211 132.378 35.0947 133.925 34.5793C135.471 34.0638 136.464 32.8533 136.138 31.8745C135.811 30.8956 134.293 30.5221 132.742 31.0375C131.191 31.5529 130.203 32.7635 130.534 33.7423Z" fill="#F4AF90"/>
<path d="M123.455 34.4185C123.696 34.4735 123.947 34.4705 124.187 34.4097C124.427 34.3489 124.649 34.232 124.835 34.0686C125.474 33.4255 125.308 32.1771 124.448 31.0895C124.296 31.4961 124.154 31.917 124.022 32.352C123.819 33.0282 123.62 33.7234 123.455 34.4185Z" fill="#F4AF90"/>
<path d="M127.115 30.2478C127.116 30.367 127.082 30.4837 127.016 30.5832C126.95 30.6827 126.857 30.7604 126.747 30.8064C126.637 30.8525 126.516 30.8648 126.399 30.8418C126.282 30.8187 126.174 30.7614 126.09 30.6772C126.006 30.5929 125.948 30.4855 125.925 30.3685C125.902 30.2516 125.915 30.1305 125.961 30.0205C126.007 29.9106 126.085 29.8169 126.184 29.7512C126.283 29.6856 126.4 29.6511 126.519 29.652C126.677 29.652 126.829 29.7148 126.941 29.8265C127.052 29.9382 127.115 30.0898 127.115 30.2478Z" fill="#683F1D"/>
<path d="M130.179 30.9098C130.18 31.0288 130.145 31.1453 130.08 31.2447C130.014 31.3441 129.921 31.4218 129.811 31.468C129.702 31.5142 129.581 31.5267 129.464 31.5041C129.347 31.4814 129.24 31.4246 129.155 31.3408C129.071 31.257 129.013 31.15 128.99 31.0334C128.966 30.9168 128.978 30.7958 129.023 30.6858C129.068 30.5758 129.145 30.4817 129.244 30.4155C129.343 30.3493 129.459 30.314 129.578 30.314C129.737 30.314 129.889 30.3766 130.001 30.4882C130.114 30.5998 130.177 30.7513 130.179 30.9098Z" fill="#683F1D"/>
<path d="M125.427 25.3772C126.107 26.0771 127.006 25.3772 127.006 25.3772C126.897 26.4033 129.205 27.2687 130.865 27.4436C132.524 27.6186 131.81 26.0818 133.092 25.5096C134.373 24.9374 136.137 26.3277 136.137 26.3277C136.137 26.3277 133.446 28.1482 133.3 30.5835C133.198 31.9992 133.621 33.4029 134.487 34.5272L137.428 35.1514C138.487 34.6513 139.459 33.9857 140.308 33.1796C141.882 31.6617 142.781 29.7607 142.351 27.8976C141.698 25.0604 138.865 24.5875 138.865 24.5875C138.809 23.716 138.527 22.8743 138.046 22.1453C137.565 21.4164 136.902 20.8255 136.123 20.431C133.896 19.2062 131.555 19.4852 130.694 20.1567C129.834 20.8282 129.578 20.9937 127.985 21.3105H127.914C127.701 21.3302 127.494 21.3928 127.307 21.4947C127.119 21.5965 126.953 21.7354 126.821 21.9029C126.688 22.0705 126.591 22.2632 126.535 22.4694C126.479 22.6757 126.465 22.8911 126.495 23.1027C126.495 23.1027 124.746 24.6679 125.427 25.3772Z" fill="#BF8228"/>
<path d="M125.427 25.3772C126.108 26.0771 127.006 25.3772 127.006 25.3772C126.897 26.4034 129.205 27.2687 130.865 27.4437C132.525 27.6187 131.811 26.0818 133.092 25.5097C134.374 24.9375 136.137 26.3277 136.137 26.3277C136.137 26.3277 133.447 28.1483 133.3 30.5836C133.198 31.9992 133.621 33.4029 134.487 34.5273L137.428 35.1515C138.487 34.6514 139.459 33.9857 140.308 33.1796C137.291 32.0163 138.355 29.3399 138.568 27.3775C138.866 24.6065 137.301 22.313 133.839 23.5945C131.844 24.318 129.583 22.871 127.966 21.3484H127.895C127.682 21.3681 127.476 21.4307 127.288 21.5326C127.1 21.6344 126.935 21.7733 126.802 21.9408C126.67 22.1084 126.572 22.3011 126.516 22.5073C126.46 22.7135 126.447 22.929 126.477 23.1406C126.477 23.1406 124.746 24.6679 125.427 25.3772Z" fill="#B57724"/>
<path d="M127.006 25.3725C127.347 24.3275 127.531 24.3417 128.685 24.2187C129.839 24.0958 131.267 23.9303 131.645 23.1689" stroke="#9B621F" stroke-width="0.75" stroke-linecap="round" stroke-linejoin="round"/>
<path d="M126.514 23.15C127.456 22.7468 128.487 22.6015 129.503 22.7292" stroke="#9B621F" stroke-width="0.75" stroke-linecap="round" stroke-linejoin="round"/>
<path d="M132.247 29.789C132.398 30.3707 128.998 29.5762 129.547 28.3704C130.095 27.1646 131.973 28.7534 132.247 29.789Z" fill="#BF8228"/>
<path d="M128.372 27.9591C128.476 28.7015 125.856 28.7771 125.852 28.1624C125.847 27.5477 128.221 26.8573 128.372 27.9591Z" fill="#BF8228"/>
<path d="M128.665 29.5054C128.154 31.1746 127.048 31.4583 126.381 31.8981C125.714 32.3379 125.851 33.7045 125.851 33.7045" stroke="#EF8A66" stroke-width="0.75" stroke-linecap="round" stroke-linejoin="round"/>
<path d="M129.649 34.0734C128.968 35.1988 127.966 35.8514 126.859 35.492" stroke="#EF8A66" stroke-width="0.75" stroke-linecap="round" stroke-linejoin="round"/>
<path d="M134.501 34.5367C135.073 32.2574 138.757 31.0469 139.267 34.2671C139.707 37.0523 137.087 37.284 135.711 37.1895L134.501 34.5367Z" fill="#FEBD9D"/>
<path d="M138.113 34.1348C136.61 33.4066 135.56 34.6881 135.375 35.369" stroke="#EF8A66" stroke-width="0.75" stroke-linecap="round" stroke-linejoin="round"/>
<path d="M135.57 34.9339C136.814 33.1039 138.407 35.9033 136.274 36.1208" stroke="#EF8A66" stroke-width="0.75" stroke-linecap="round" stroke-linejoin="round"/>
<path d="M136.146 37.2037C135.756 37.2123 135.368 37.1564 134.997 37.0382" stroke="#EF8A66" stroke-width="0.75" stroke-linecap="round" stroke-linejoin="round"/>
<path d="M109.359 56.9075L109.306 77.3641L102.558 77.3442L93.7549 77.3244L93.7947 62.2371L93.8079 56.8678L103.725 56.828L109.359 56.9075Z" fill="url(#paint0_linear_12_1266)"/>
<path d="M93.8081 56.8612L96.6452 52.632L106.257 52.6585L103.705 56.8877L93.8081 56.8612Z" fill="url(#paint1_linear_12_1266)"/>
<path d="M106.257 52.6584L109.359 56.9075L103.705 56.8876L106.257 52.6584Z" fill="#B1BEE3"/>
<path d="M109.359 56.9076L109.306 77.3642L103.652 77.3509L103.705 56.8877L109.359 56.9076Z" fill="url(#paint2_linear_12_1266)"/>
<path d="M96.6445 52.6319L106.256 52.6584V52.4596C106.256 51.6774 105.627 51.041 104.844 51.041L98.0631 51.0211C97.2809 51.0211 96.6445 51.6509 96.6445 52.4331V52.6319Z" fill="url(#paint3_linear_12_1266)"/>
<path d="M93.795 63.0459L103.685 63.0724L103.679 66.7382L93.7817 66.7116L93.795 63.0459Z" fill="url(#paint4_linear_12_1266)"/>
<path d="M109.339 63.0856L109.333 66.7514L103.678 66.7381L103.685 63.0724L109.339 63.0856Z" fill="url(#paint5_linear_12_1266)"/>
<path d="M91.0738 54.1962H85.373V67.7853H91.0738V54.1962Z" fill="url(#paint6_linear_12_1266)"/>
<path d="M89.9858 48.5286H88.2557C86.0218 48.5286 84.2188 50.3382 84.2188 52.5655V55.4557H87.6657C88.4546 55.4557 89.0909 56.0921 89.0909 56.8809C89.0909 57.6697 88.4546 58.3061 87.6657 58.3061H84.2188V62.416H87.6657C88.4546 62.416 89.0909 63.0523 89.0909 63.8412C89.0909 64.63 88.4546 65.2664 87.6657 65.2664H84.2188V73.1878H94.0294V52.5655C94.0228 50.3382 92.2131 48.5286 89.9858 48.5286Z" fill="url(#paint7_linear_12_1266)"/>
<path d="M73.8428 57.2786C73.8428 57.2786 63.7007 53.3278 65.9147 50.3515C68.1354 47.3685 74.2538 56.3771 74.2538 56.3771L73.8428 57.2786Z" fill="#3BC49A"/>
<path d="M74.7511 56.6024C74.7511 56.6024 75.2748 45.7245 71.6554 46.5399C68.0228 47.3552 73.7634 56.6091 73.7634 56.6091L74.7511 56.6024Z" fill="#3BC49A"/>
<path d="M74.5326 57.3714C74.5326 57.3714 70.0184 42.7416 65.8223 45.4528C62.0174 47.9187 73.5582 57.6631 73.5582 57.6631L74.5326 57.3714Z" fill="#44D0A7"/>
<path d="M88.2948 77.0126C88.0495 76.9861 87.7976 76.88 87.5656 76.6812L86.0012 75.3488L85.9945 75.3421L82.6801 72.5116L82.0703 71.988L77.6555 68.2228L76.8003 67.4936L73.9367 65.0542C73.6517 64.8089 73.3865 64.5372 73.1479 64.2521C72.949 64.0135 72.7634 63.7616 72.6043 63.4964C71.7823 62.1773 71.4575 60.5996 71.8022 59.0617C72.0939 57.7691 72.77 56.7416 73.6649 56.039C73.7577 55.9661 73.8572 55.8932 73.9566 55.8269C75.2824 54.932 77.0125 54.6867 78.6829 55.2435C79.1006 55.3827 79.4917 55.575 79.8562 55.807C80.8771 56.45 81.6792 57.4178 82.1697 58.5381L82.5807 59.4462L83.0116 60.4008L85.1659 65.147L85.557 66.0088L88.0959 71.5969L88.3279 72.1139L89.6868 75.1101C90.1773 76.1641 89.2493 77.1319 88.2948 77.0126Z" fill="url(#paint8_linear_12_1266)"/>
<path opacity="0.1" d="M86.0007 75.3422L73.9362 65.0542C72.1994 63.5694 71.2979 61.2692 71.7951 59.0618C72.0867 57.7692 72.7629 56.7417 73.6578 56.039C73.7506 55.9661 73.85 55.8932 73.9494 55.8269C74.1152 61.8658 81.9438 71.0069 86.0007 75.3422Z" fill="black"/>
<path opacity="0.1" d="M79.8548 55.8071L76.2222 58.1338L78.6815 55.2502C79.0991 55.3894 79.4902 55.5751 79.8548 55.8071Z" fill="black"/>
<path opacity="0.1" d="M76.5619 60.9974L73.1481 64.2588C72.9492 64.0202 72.7636 63.7683 72.6045 63.5031L76.5619 60.9974Z" fill="black"/>
<path opacity="0.1" d="M83.0169 60.4075L79.729 62.4359L82.5794 59.4463L83.0169 60.4075Z" fill="black"/>
<path opacity="0.1" d="M80.3141 65.5182L77.6559 68.2228L76.8008 67.5002L80.3141 65.5182Z" fill="black"/>
<path opacity="0.1" d="M85.5627 66.0221L83.3022 67.0694L85.1716 65.1537L85.5627 66.0221Z" fill="black"/>
<path opacity="0.1" d="M84.7943 70.2313L82.6797 72.5116L82.0698 71.9946L84.7943 70.2313Z" fill="black"/>
<path opacity="0.1" d="M88.3412 72.1205L86.8696 72.9292L88.1092 71.6101L88.3412 72.1205Z" fill="black"/>
<path d="M71.0582 63.8743C71.0582 63.8743 63.7665 61.0306 65.3574 58.8961C66.9549 56.7483 71.3499 63.2313 71.3499 63.2313L71.0582 63.8743Z" fill="#3BC49A"/>
<path d="M71.7154 63.3838C71.7154 63.3838 72.0932 55.5684 69.4947 56.1517C66.883 56.735 71.0127 63.3904 71.0127 63.3904L71.7154 63.3838Z" fill="#3BC49A"/>
<path d="M71.5557 63.9406C71.5557 63.9406 68.3076 53.4207 65.2981 55.3762C62.5604 57.1461 70.8597 64.1527 70.8597 64.1527L71.5557 63.9406Z" fill="#44D0A7"/>
<path d="M81.4468 78.0534C81.2678 78.0335 81.0888 77.954 80.9231 77.8148L79.7962 76.8536C79.7962 76.8536 79.7962 76.8536 79.7896 76.8536L77.4032 74.8185L76.9657 74.4407L73.7905 71.7361L73.1806 71.2124L71.1257 69.4558C70.9202 69.2768 70.728 69.0846 70.5556 68.8791C70.4098 68.7067 70.2772 68.5278 70.1645 68.3355C69.5745 67.3876 69.3359 66.2541 69.5878 65.1471C69.7933 64.219 70.2838 63.4832 70.9268 62.9728C70.9931 62.9198 71.066 62.8667 71.1389 62.8203C72.0935 62.1773 73.3397 61.9984 74.5329 62.4027C74.8312 62.5022 75.1162 62.6414 75.3748 62.8071C76.1106 63.2711 76.6806 63.9671 77.0386 64.7692L77.3369 65.4255L77.6485 66.1149L79.1996 69.5287L79.4846 70.1518L81.3076 74.1689L81.4733 74.5401L82.4477 76.6945C82.799 77.4435 82.1362 78.1396 81.4468 78.0534Z" fill="url(#paint9_linear_12_1266)"/>
<path opacity="0.1" d="M79.795 76.8535L71.1246 69.4558C69.8717 68.3885 69.2287 66.7313 69.5867 65.147C69.7921 64.219 70.2827 63.4832 70.9257 62.9728C70.992 62.9197 71.0649 62.8667 71.1378 62.8203C71.2571 67.1688 76.885 73.738 79.795 76.8535Z" fill="black"/>
<path opacity="0.1" d="M75.3813 62.8138L72.7695 64.4842L74.5328 62.4094C74.8377 62.5089 75.1161 62.6481 75.3813 62.8138Z" fill="black"/>
<path opacity="0.1" d="M73.0073 66.5458L70.5547 68.8858C70.4088 68.7134 70.2763 68.5344 70.1636 68.3422L73.0073 66.5458Z" fill="black"/>
<path opacity="0.1" d="M77.647 66.1149L75.2871 67.5799L77.3354 65.4321L77.647 66.1149Z" fill="black"/>
<path opacity="0.1" d="M75.7116 69.7938L73.7959 71.7361L73.186 71.219L75.7116 69.7938Z" fill="black"/>
<path opacity="0.1" d="M79.4844 70.1519L77.8604 70.9076L79.1994 69.5354L79.4844 70.1519Z" fill="black"/>
<path opacity="0.1" d="M78.9267 73.1812L77.4087 74.8185L76.9712 74.4473L78.9267 73.1812Z" fill="black"/>
<path opacity="0.1" d="M81.4791 74.5402L80.4185 75.1169L81.3067 74.1689L81.4791 74.5402Z" fill="black"/>
<path d="M110.195 66.6916V108.056H68.0361V66.6585L68.6659 68.3157L70.3894 66.1945L72.0466 68.382L73.8364 66.1945L74.1015 66.5325L74.665 67.2551L75.4936 68.3157L77.2171 66.1945L78.9406 68.2494L80.5978 66.1945L82.3876 68.382L84.0448 66.1945L85.702 68.3157L87.4255 66.1945L89.0827 68.2494L90.7399 66.1945L92.4634 68.2494L94.1869 66.1945L95.9104 68.2494L97.5676 66.1945L99.2248 68.2494L101.015 66.1945L102.738 68.2494L104.462 66.1945L106.119 68.3157L107.842 66.1945L109.499 68.1168L110.195 66.6916Z" fill="url(#paint10_linear_12_1266)"/>
<path d="M74.665 67.2551V108.056H68.0361V66.6585L68.6659 68.3157L70.3894 66.1945L72.0466 68.382L73.8364 66.1945L74.1015 66.5325L74.665 67.2551Z" fill="#EECA9D"/>
<path d="M80.5988 66.1945V108.056H74.1025V66.5325L75.4946 68.3157L77.2181 66.1945L78.9416 68.2494L80.5988 66.1945Z" fill="url(#paint11_linear_12_1266)"/>
<path d="M80.5978 108.056H68.0361V108.029L74.1347 99.8358L80.5978 108.056Z" fill="#E1AF72"/>
<path d="M102.043 105.172C103.928 105.172 105.457 103.109 105.457 100.565C105.457 98.0205 103.928 95.9579 102.043 95.9579C100.157 95.9579 98.6289 98.0205 98.6289 100.565C98.6289 103.109 100.157 105.172 102.043 105.172Z" fill="url(#paint12_linear_12_1266)"/>
<path d="M108.904 105.205C110.789 105.205 112.317 103.143 112.317 100.598C112.317 98.0537 110.789 95.9911 108.904 95.9911C107.018 95.9911 105.49 98.0537 105.49 100.598C105.49 103.143 107.018 105.205 108.904 105.205Z" fill="url(#paint13_linear_12_1266)"/>
<path d="M94.8172 105.172C96.7026 105.172 98.231 103.109 98.231 100.565C98.231 98.0205 96.7026 95.9579 94.8172 95.9579C92.9318 95.9579 91.4033 98.0205 91.4033 100.565C91.4033 103.109 92.9318 105.172 94.8172 105.172Z" fill="url(#paint14_linear_12_1266)"/>
<path d="M89.8455 105.172C91.7309 105.172 93.2593 103.109 93.2593 100.565C93.2593 98.0205 91.7309 95.9579 89.8455 95.9579C87.9601 95.9579 86.4316 98.0205 86.4316 100.565C86.4316 103.109 87.9601 105.172 89.8455 105.172Z" fill="url(#paint15_linear_12_1266)"/>
<path d="M104.428 105.172C106.314 105.172 107.842 103.109 107.842 100.565C107.842 98.0205 106.314 95.9579 104.428 95.9579C102.543 95.9579 101.015 98.0205 101.015 100.565C101.015 103.109 102.543 105.172 104.428 105.172Z" fill="url(#paint16_linear_12_1266)"/>
<path d="M97.137 105.172C99.0224 105.172 100.551 103.109 100.551 100.565C100.551 98.0205 99.0224 95.9579 97.137 95.9579C95.2516 95.9579 93.7231 98.0205 93.7231 100.565C93.7231 103.109 95.2516 105.172 97.137 105.172Z" fill="url(#paint17_linear_12_1266)"/>
<path d="M114.039 102.752V103.68L110.725 108.056H108.074L107.808 107.26H106.748L106.151 108.056H101.445L100.782 107.194H98.7931L98.1965 108.056H94.6833L94.0204 107.194H91.9654L91.3026 108.056H89.2476L86.2646 104.476V102.752H114.039Z" fill="#B68649"/>
<path d="M114.04 102.752V103.68L110.726 108.056H108.074L107.809 107.26H106.749L106.152 108.056H104.342L106.901 102.752H114.04Z" fill="url(#paint18_linear_12_1266)"/>
<path d="M114.869 101.592H85.2383V103.183H114.869V101.592Z" fill="url(#paint19_linear_12_1266)"/>
<path d="M114.869 101.592H105.987V103.183H114.869V101.592Z" fill="#B68649"/>
<defs>
<linearGradient id="paint0_linear_12_1266" x1="94.1114" y1="66.866" x2="105.501" y2="67.2457" gradientUnits="userSpaceOnUse">
<stop stop-color="#F3F7FF"/>
<stop offset="1" stop-color="#BCCBF9"/>
</linearGradient>
<linearGradient id="paint1_linear_12_1266" x1="95.9018" y1="54.761" x2="108.353" y2="54.7598" gradientUnits="userSpaceOnUse">
<stop stop-color="#91A1D2"/>
<stop offset="0.666667" stop-color="#DEE6FF"/>
</linearGradient>
<linearGradient id="paint2_linear_12_1266" x1="103.65" y1="67.1264" x2="109.358" y2="67.1264" gradientUnits="userSpaceOnUse">
<stop stop-color="#B0BFE9"/>
<stop offset="1" stop-color="#EEF2FF"/>
</linearGradient>
<linearGradient id="paint3_linear_12_1266" x1="96.6483" y1="51.8234" x2="106.261" y2="51.8487" gradientUnits="userSpaceOnUse">
<stop stop-color="#B8CAFF"/>
<stop offset="1" stop-color="#9BB1F4"/>
</linearGradient>
<linearGradient id="paint4_linear_12_1266" x1="93.7825" y1="64.8931" x2="103.688" y2="64.8922" gradientUnits="userSpaceOnUse">
<stop stop-color="#90A5E2"/>
<stop offset="1" stop-color="#C2CBE4"/>
<stop offset="1" stop-color="#C6D1F2"/>
<stop offset="1" stop-color="#F5F8FF"/>
</linearGradient>
<linearGradient id="paint5_linear_12_1266" x1="103.678" y1="64.9136" x2="109.342" y2="64.913" gradientUnits="userSpaceOnUse">
<stop stop-color="#8AA5F6"/>
<stop offset="1" stop-color="#DADBDE"/>
</linearGradient>
<linearGradient id="paint6_linear_12_1266" x1="89.5203" y1="60.9907" x2="84.3501" y2="60.9907" gradientUnits="userSpaceOnUse">
<stop stop-color="#C48F40"/>
<stop offset="1" stop-color="#DADBDE"/>
</linearGradient>
<linearGradient id="paint7_linear_12_1266" x1="95.7175" y1="75.9857" x2="85.1766" y2="54.3073" gradientUnits="userSpaceOnUse">
<stop stop-color="#F7CF95"/>
<stop offset="1" stop-color="#D3A35B"/>
</linearGradient>
<linearGradient id="paint8_linear_12_1266" x1="69.9158" y1="60.0266" x2="88.4987" y2="68.3951" gradientUnits="userSpaceOnUse">
<stop stop-color="#FF7A00"/>
<stop offset="1" stop-color="#FFC28A"/>
</linearGradient>
<linearGradient id="paint9_linear_12_1266" x1="68.2378" y1="65.8443" x2="81.5949" y2="71.8594" gradientUnits="userSpaceOnUse">
<stop stop-color="#FF6B00"/>
<stop offset="1" stop-color="#FF9F47"/>
</linearGradient>
<linearGradient id="paint10_linear_12_1266" x1="68.0361" y1="87.125" x2="110.195" y2="87.125" gradientUnits="userSpaceOnUse">
<stop stop-color="#D08E3E"/>
<stop offset="1" stop-color="#FFEBD3"/>
</linearGradient>
<linearGradient id="paint11_linear_12_1266" x1="77.4845" y1="102.449" x2="77.1204" y2="60.7568" gradientUnits="userSpaceOnUse">
<stop stop-color="#D5A161"/>
</linearGradient>
<linearGradient id="paint12_linear_12_1266" x1="98.6289" y1="100.565" x2="105.457" y2="100.565" gradientUnits="userSpaceOnUse">
<stop stop-color="#EEC38B"/>
<stop offset="1" stop-color="#FFE9CE"/>
</linearGradient>
<linearGradient id="paint13_linear_12_1266" x1="105.49" y1="100.598" x2="112.317" y2="100.598" gradientUnits="userSpaceOnUse">
<stop stop-color="#E7B473"/>
<stop offset="1" stop-color="#FFE5C2"/>
</linearGradient>
<linearGradient id="paint14_linear_12_1266" x1="91.4033" y1="100.565" x2="98.231" y2="100.565" gradientUnits="userSpaceOnUse">
<stop stop-color="#EEC38B"/>
<stop offset="1" stop-color="#FFE9CE"/>
</linearGradient>
<linearGradient id="paint15_linear_12_1266" x1="86.4316" y1="100.565" x2="93.2593" y2="100.565" gradientUnits="userSpaceOnUse">
<stop stop-color="white"/>
<stop offset="1" stop-color="#DADBDE"/>
</linearGradient>
<linearGradient id="paint16_linear_12_1266" x1="101.015" y1="100.565" x2="107.842" y2="100.565" gradientUnits="userSpaceOnUse">
<stop stop-color="white"/>
<stop offset="1" stop-color="#DADBDE"/>
</linearGradient>
<linearGradient id="paint17_linear_12_1266" x1="93.7231" y1="100.565" x2="100.551" y2="100.565" gradientUnits="userSpaceOnUse">
<stop stop-color="white"/>
<stop offset="1" stop-color="#DADBDE"/>
</linearGradient>
<linearGradient id="paint18_linear_12_1266" x1="104.341" y1="105.404" x2="114.04" y2="105.404" gradientUnits="userSpaceOnUse">
<stop stop-color="#B68649"/>
<stop offset="1" stop-color="#E9B879"/>
</linearGradient>
<linearGradient id="paint19_linear_12_1266" x1="84.7387" y1="102.436" x2="106.017" y2="102.369" gradientUnits="userSpaceOnUse">
<stop stop-color="#B68649"/>
<stop offset="1" stop-color="#E9B777"/>
</linearGradient>
</defs>
</svg>
