<svg width="299" height="179" viewBox="0 0 299 179" fill="none" xmlns="http://www.w3.org/2000/svg">
<path d="M163.526 157.899H220.28C220.28 157.899 218.301 150.008 210.255 150.856C210.255 150.856 199.048 134.945 183.909 148.62C183.934 148.62 167.613 143.813 163.526 157.899Z" fill="#2BDA88"/>
<path d="M58.166 0H193.266V144.43H58.166V0Z" fill="url(#paint0_linear_12_978)"/>
<path d="M71.5294 53.5928H134.864V112.326H71.5294V53.5928Z" fill="white"/>
<path d="M84.8718 56.3687C84.8718 63.6686 90.7837 69.5805 98.0836 69.5805C105.384 69.5805 111.295 63.6686 111.295 56.3687H84.8718Z" fill="#28C079"/>
<path d="M131.137 53.5928H134.864V112.326H131.137V53.5928Z" fill="#A0A9AE"/>
<path d="M111.322 56.3687C111.322 63.6686 117.234 69.5805 124.534 69.5805C131.834 69.5805 137.771 63.6686 137.771 56.3687H111.322Z" fill="#E6EAEC"/>
<path d="M60.5813 19.4065H85.5654V56.5743H60.5813V19.4065Z" fill="#505767"/>
<path d="M87.3687 19.4065H60.9194L84.7983 56.5743H111.248L87.3687 19.4065Z" fill="#2BDA88"/>
<path d="M113.813 19.4065H87.3642L111.243 56.5743H137.692L113.813 19.4065Z" fill="white"/>
<path d="M139.468 53.5928H181.545V146.512H139.468V53.5928Z" fill="white"/>
<path d="M137.77 56.3687C137.77 63.6686 143.682 69.5805 150.982 69.5805C158.282 69.5805 164.194 63.6686 164.194 56.3687H137.77Z" fill="#28C079"/>
<path d="M140.265 19.4065H113.816L137.695 56.5743H164.144L140.265 19.4065Z" fill="#2BDA88"/>
<path d="M178.126 53.5928H181.545V146.512H178.126V53.5928Z" fill="#A0A9AE"/>
<path d="M164.222 56.3687C164.222 63.6686 170.134 69.5805 177.434 69.5805C184.734 69.5805 190.646 63.6686 190.646 56.3687H164.222Z" fill="#E6EAEC"/>
<path d="M166.711 19.4065H140.262L164.141 56.5743H190.59L166.711 19.4065Z" fill="white"/>
<path d="M193.083 19.4065H166.633L190.512 56.5743H216.807C216.884 56.5743 216.91 56.4972 216.884 56.4458L193.083 19.4065Z" fill="#2BDA88"/>
<path d="M190.387 56.3687C190.387 63.6686 196.299 69.5805 203.599 69.5805C210.899 69.5805 216.811 63.6686 216.811 56.3687H190.387Z" fill="#28C079"/>
<path d="M145.071 104.872H149.132C151.42 104.872 153.296 102.995 153.296 100.708V83.6147C153.296 81.3271 151.42 79.4507 149.132 79.4507H145.071V81.4299H149.132C150.34 81.4299 151.317 82.4066 151.317 83.6147V100.708C151.317 101.916 150.34 102.893 149.132 102.893H145.071V104.872Z" fill="#5C6374"/>
<path d="M0.973498 33.8521H15.0078V36.7052H0.973498V33.8521Z" fill="white"/>
<path d="M0.847522 45.573H14.8818V48.4261H0.847522V45.573Z" fill="white"/>
<path d="M58.1647 140.806H196.22V152.193H58.1647V140.806Z" fill="url(#paint1_linear_12_978)"/>
<path d="M57.9612 150.676H138.389V157.899H57.9612V150.676Z" fill="#5C6374"/>
<path d="M135.971 150.676H281.712V157.899H135.971V150.676Z" fill="#5C6374"/>
<path d="M245.696 52.3071C245.696 52.3071 242.584 51.5644 240.948 52.0399C239.313 52.5154 239.48 53.5232 240.83 54.0615C242.18 54.5999 245.485 55.2406 245.485 55.2406L245.696 52.3071Z" fill="#28C079"/>
<path d="M245.022 56.0589C245.022 56.0589 245.106 56.2523 245.258 56.5803C245.409 56.9083 245.556 57.1985 245.775 57.6106C245.922 57.8966 246.086 58.2036 246.271 58.5274C246.381 58.725 246.498 58.9479 246.625 59.1371L246.746 59.3348C247.024 59.7931 247.331 60.2683 247.667 60.7351C247.903 61.0631 248.151 61.3911 248.412 61.7065C250.456 64.1834 252.171 63.1447 252.171 63.1447C252.65 63.5615 253.048 64.0634 253.345 64.625C253.76 65.3943 254.06 66.2203 254.236 67.0767C259.06 70.5923 262.121 65.9581 260.687 61.8369C258.736 59.9991 256.995 57.9497 255.498 55.7266C257.054 53.6576 254.463 51.8536 253.273 53.0395L250.695 51.8452C245.262 50.407 245.022 56.0589 245.022 56.0589Z" fill="#FEBD9D"/>
<path d="M254.802 53.561C254.121 53.561 253.541 53.8386 253.671 54.8857" stroke="#EF8A66" stroke-width="0.75" stroke-linecap="round" stroke-linejoin="round"/>
<path d="M254.121 55.3819C255.109 54.768 254.242 53.9606 253.7 54.4694" stroke="#EF8A66" stroke-width="0.75" stroke-linecap="round" stroke-linejoin="round"/>
<path d="M249.282 60.6132C249.993 60.3903 250.3 59.4904 250.123 58.7124C252.015 60.0329 250.602 61.5972 249.282 60.6132Z" fill="white" stroke="#EF8A66" stroke-width="0.75" stroke-linecap="round" stroke-linejoin="round"/>
<path d="M248.794 59.5156C248.155 59.5156 247.595 59.6249 247.444 58.418C247.407 58.0743 247.286 57.7449 247.094 57.4578C246.901 57.1707 246.642 56.9346 246.338 56.7695" stroke="#EF8A66" stroke-width="0.75" stroke-linecap="round" stroke-linejoin="round"/>
<path d="M255.498 55.7268C255.266 56.0517 254.94 56.2982 254.564 56.4333" stroke="#EF8A66" stroke-width="0.75" stroke-linecap="round" stroke-linejoin="round"/>
<path d="M248.844 57.274C248.844 57.3572 248.82 57.4385 248.773 57.5077C248.727 57.5768 248.661 57.6307 248.585 57.6626C248.508 57.6944 248.423 57.7027 248.342 57.6865C248.26 57.6703 248.185 57.6302 248.126 57.5714C248.068 57.5126 248.027 57.4377 248.011 57.3561C247.995 57.2745 248.003 57.19 248.035 57.1131C248.067 57.0363 248.121 56.9706 248.19 56.9244C248.259 56.8782 248.341 56.8535 248.424 56.8535C248.535 56.8535 248.642 56.8978 248.721 56.9767C248.8 57.0555 248.844 57.1625 248.844 57.274Z" fill="#683F1D"/>
<path d="M246.272 58.5358C246.381 58.7334 246.499 58.9563 246.625 59.1456H246.655C246.766 59.1456 246.873 59.1013 246.952 59.0224C247.031 58.9435 247.075 58.8366 247.075 58.725C247.075 58.6135 247.031 58.5065 246.952 58.4277C246.873 58.3488 246.766 58.3045 246.655 58.3045C246.576 58.3032 246.498 58.3242 246.43 58.3651C246.362 58.406 246.308 58.4652 246.272 58.5358Z" fill="#683F1D"/>
<path d="M249.005 55.1716C249.207 55.7814 247.323 56.4332 247.041 55.8024C246.759 55.1716 248.748 54.3768 249.005 55.1716Z" fill="#604730"/>
<path d="M245.257 56.5804C245.383 56.8453 245.556 57.1986 245.774 57.6107C246.149 57.1901 246.493 56.6351 246.372 56.4206C246.178 56.08 245.652 56.3197 245.257 56.5804Z" fill="#604730"/>
<path d="M252.171 63.1616C252.65 63.5784 253.048 64.0803 253.344 64.6419C255.783 62.8042 254.232 60.71 254.232 60.71C253.806 61.7154 253.088 62.5696 252.171 63.1616V63.1616Z" fill="#F4A789"/>
<path d="M242.527 55.6594C242.56 56.3449 243.191 57.0303 244.255 57.0471C245.243 57.0471 245.971 55.9327 245.807 54.8352C245.807 54.8352 247.489 55.2263 247.771 53.0353C247.771 53.0353 249.141 54.1539 249.873 52.3372C250.701 53.069 251.459 53.8772 252.136 54.7511C252.977 55.9285 253.397 55.7645 253.422 55.2641C253.448 54.7637 252.922 53.9352 252.859 53.8343C252.313 53.5004 251.857 53.0385 251.53 52.4886C250.462 50.8948 249.364 49.9108 248.418 51.0883C247.472 52.2657 245.989 51.6056 245.49 52.6031C245.095 53.9698 244.676 55.9874 242.527 55.6594Z" fill="#473526"/>
<path d="M250.458 57.9345C251.017 58.0901 251.627 57.6275 251.825 56.9084C252.022 56.1893 251.728 55.4786 251.169 55.3272C250.609 55.1758 249.995 55.6342 249.802 56.3533C249.609 57.0724 249.911 57.7831 250.458 57.9345Z" fill="#F4AF90"/>
<path d="M246.747 59.3347C247.024 59.7931 247.331 60.2683 247.668 60.7351C247.705 60.6597 247.729 60.5787 247.739 60.4954C247.739 60.2155 247.639 59.945 247.457 59.7323C247.275 59.5197 247.023 59.3787 246.747 59.3347V59.3347Z" fill="#F4AF90"/>
<path d="M238.732 113.015C239.351 118.688 243.564 115.959 249.447 115.177L252.711 115.046L274.414 114.205L276.227 114.134L269.919 96.3455C255.97 100.483 237.95 105.791 238.732 113.015Z" fill="#4A3320"/>
<path d="M252.712 115.046L274.416 114.205L273.768 109.462L270.803 101.85C270.803 101.85 265.799 101.547 267.321 105.925C268.844 110.303 268.234 113.406 260.328 111.341C255.551 110.084 253.549 112.746 252.712 115.046Z" fill="#3A2819"/>
<path d="M264.42 89.6548C268.117 94.4698 270.119 104.903 270.581 111.165C270.913 115.673 271.59 127.284 273.285 136.994C279.135 149.538 287.196 143.613 286.742 134.773V134.727C285.956 128.251 286.321 122.708 287.041 120.391C288.016 117.313 290.426 107.052 290.825 102.843C291.725 93.5909 289.644 85.7018 286.62 81.198L264.42 89.6548Z" fill="#4A3320"/>
<path d="M270.804 114.336C270.715 113.074 270.64 112.01 270.581 111.182C270.285 107.56 269.703 103.967 268.84 100.437" stroke="white" stroke-width="0.75" stroke-linecap="round" stroke-linejoin="round"/>
<path d="M284.4 87.8928C287.807 110.803 281.255 119.432 282.252 132.267C282.611 135.804 283.259 139.306 284.19 142.738" stroke="white" stroke-width="0.75" stroke-linecap="round" stroke-linejoin="round"/>
<path d="M285.362 98.7255C282.868 96.0801 281.42 92.6191 281.287 88.9861" stroke="white" stroke-width="0.75" stroke-linecap="round" stroke-linejoin="round"/>
<path d="M270.476 93.1157C270.476 93.1157 271.544 98.0359 271.973 99.4236C271.973 99.4236 270.476 99.6633 269.942 98.7214C269.408 97.7794 268.407 93.675 268.407 93.675" stroke="white" stroke-width="0.75" stroke-linecap="round" stroke-linejoin="round"/>
<path d="M245.596 71.7025L247.74 80.8279C248.329 83.8431 248.489 86.2948 248.821 88.0778C249.279 90.5674 250.083 91.8289 252.778 91.686L252.888 91.6565L253.274 91.5514L253.531 91.4757L253.867 91.3622C254.015 91.3075 254.158 91.2528 254.288 91.1939C254.532 91.0958 254.77 90.9849 255.003 90.8617L255.255 90.7229C255.629 90.5135 255.982 90.2699 256.311 89.9954C256.375 89.9457 256.437 89.8923 256.496 89.8356C256.982 89.4101 257.401 88.9123 257.736 88.3596C257.83 88.21 257.915 88.0555 257.993 87.897C258.197 87.4948 258.358 87.0719 258.472 86.6354C258.493 86.5597 258.51 86.4882 258.527 86.4167C258.544 86.3453 258.565 86.2485 258.577 86.1686C258.59 86.0887 258.603 86.0257 258.615 85.9542C258.674 85.5858 258.689 85.2118 258.661 84.8398C258.518 83.3006 256.613 67.4215 256.613 67.4215L255.915 65.6974L254.982 63.3887L245.596 71.7025Z" fill="#C3DCF8"/>
<path d="M248.821 88.0777C249.279 90.5672 250.083 91.8288 252.778 91.6858L252.896 91.6564L253.283 91.5513L253.539 91.4756L253.876 91.362C254.023 91.3074 254.166 91.2527 254.296 91.1938C254.54 91.0957 254.779 90.9848 255.011 90.8616L255.263 90.7228C255.637 90.5134 255.99 90.2698 256.319 89.9953C256.384 89.9456 256.445 89.8922 256.504 89.8355C256.991 89.41 257.409 88.9122 257.745 88.3595C257.838 88.2098 257.924 88.0554 258.001 87.8969C258.205 87.4947 258.366 87.0718 258.48 86.6353C258.501 86.5596 258.518 86.4881 258.535 86.4166C258.552 86.3451 258.573 86.2484 258.586 86.1685C258.598 86.0886 258.611 86.0256 258.623 85.9541C258.682 85.5856 258.698 85.2117 258.67 84.8397C258.527 83.3005 256.622 67.4214 256.622 67.4214L255.924 65.6973C254.414 68.5863 252.627 73.2668 254.708 76.4501C257.913 81.3535 257.442 89.3099 251.088 88.2754C250.338 88.1513 249.58 88.0852 248.821 88.0777Z" fill="#F0F0F0"/>
<path d="M251.823 64.4736C253.455 65.7715 254.971 67.208 256.356 68.7672" stroke="#83ADDF" stroke-width="0.75" stroke-linecap="round" stroke-linejoin="round"/>
<path d="M251.821 76.2316C252.382 76.669 252.943 77.14 253.504 77.6446C258.869 82.5185 263.743 90.2604 265.119 91.1015C267.099 92.2874 271.742 91.6061 276.195 90.4749C279.546 89.6418 282.83 88.558 286.019 87.2326C288.714 85.971 289.383 85.1931 288.933 84.1922C288.483 83.1913 285.804 76.9381 285.804 76.9381L286.464 76.2863L293.769 69.0869C289.442 65.8236 283.777 62.1776 278.575 60.1507C275.047 58.7797 271.738 58.1574 269.202 58.8891L251.821 76.2316Z" fill="#D0D0D0"/>
<path d="M251.824 76.2316C252.385 76.6689 252.945 77.1399 253.506 77.6446C259.15 77.7371 264.532 81.5807 269.289 77.4511C275.176 72.3417 269.848 68.557 273.494 63.5737C274.779 61.9208 276.554 60.7167 278.565 60.1338C275.037 58.7629 271.728 58.1405 269.192 58.8722L251.824 76.2316Z" fill="#E7E7E7"/>
<path d="M276.192 90.4664C279.543 89.6334 282.827 88.5496 286.015 87.2242C288.711 85.9626 289.379 85.1846 288.929 84.1838C288.479 83.1829 285.801 76.9297 285.801 76.9297L286.461 76.2779C284.358 74.0659 281.444 70.996 281.284 70.811C281.028 70.5082 274.875 72.5604 274.875 72.5604C274.875 72.5604 275.081 79.4444 280.712 80.1005C286.343 80.7565 285.338 85.2393 280.346 85.8491C277.138 86.2317 276.347 88.7213 276.192 90.4664Z" fill="#F0F0F0"/>
<path d="M293.367 68.7799C302.286 73.9566 294.721 91.6397 275.061 73.9818C272.988 64.0447 284.157 62.7958 293.367 68.7799Z" fill="#F0F0F0"/>
<path d="M294.909 170.051C294.909 170.051 298.694 174.992 298.156 179H280.132C280.132 179 288.147 174.315 288.563 170.884L294.909 170.051Z" fill="#683F1D"/>
<path d="M273.1 135.934C273.159 136.296 273.218 136.653 273.281 137.006C273.937 140.791 274.749 144.265 275.754 146.935C279.349 156.481 285.426 171.414 285.426 171.414L297.011 170.451C296.17 168.193 291.965 158.6 287.932 141.405C287.417 139.211 287.025 136.99 286.759 134.752C286.738 134.592 286.721 134.428 286.704 134.269C285.834 129.058 274.803 124.041 273.1 135.934Z" fill="#3A2819"/>
<path d="M282.139 129.226C282.139 130.219 282.16 131.228 282.24 132.267C283.241 145.11 293.384 170.253 293.464 170.749" stroke="white" stroke-width="0.75" stroke-linecap="round" stroke-linejoin="round"/>
<path d="M250.839 143.032C250.839 143.032 252.554 147.978 252.037 151.985H236.057C236.057 151.985 244.068 147.301 244.468 143.865L250.839 143.032Z" fill="#683F1D"/>
<path d="M238.595 116.388C239.912 126.236 242.431 144.428 242.431 144.428H252.897L249.445 115.176C249.399 110.084 245.942 104.663 242.41 107.035C237.544 110.324 238.339 114.466 238.595 116.388Z" fill="#4A3320"/>
<path d="M228.351 57.7449C228.351 57.7449 222.908 55.6247 224.096 54.0273C225.288 52.4265 228.572 57.2611 228.572 57.2611L228.351 57.7449Z" fill="#3BC49A"/>
<path d="M228.838 57.3822C228.838 57.3822 229.119 51.5443 227.176 51.9819C225.227 52.4195 228.308 57.3858 228.308 57.3858L228.838 57.3822Z" fill="#3BC49A"/>
<path d="M228.72 57.7948C228.72 57.7948 226.297 49.9433 224.045 51.3984C222.003 52.7218 228.197 57.9513 228.197 57.9513L228.72 57.7948Z" fill="#44D0A7"/>
<path d="M236.107 68.3357C235.975 68.3215 235.84 68.2646 235.715 68.1579L234.876 67.4428L234.872 67.4392L233.094 65.9202L232.766 65.6391L230.397 63.6185L229.938 63.2271L228.401 61.918C228.248 61.7863 228.106 61.6405 227.978 61.4875C227.871 61.3594 227.772 61.2243 227.686 61.082C227.245 60.374 227.071 59.5273 227.256 58.702C227.412 58.0083 227.775 57.4568 228.255 57.0797C228.305 57.0406 228.359 57.0015 228.412 56.9659C229.123 56.4856 230.052 56.354 230.948 56.6528C231.173 56.7276 231.382 56.8307 231.578 56.9552C232.126 57.3003 232.556 57.8197 232.82 58.4209L233.04 58.9083L233.271 59.4206L234.428 61.9678L234.638 62.4303L236 65.4292L236.125 65.7067L236.854 67.3147C237.117 67.8804 236.619 68.3998 236.107 68.3357Z" fill="url(#paint2_linear_12_978)"/>
<path opacity="0.1" d="M234.873 67.4394L228.398 61.9181C227.466 61.1212 226.982 59.8868 227.249 58.7021C227.406 58.0084 227.769 57.457 228.249 57.0799C228.299 57.0408 228.352 57.0016 228.405 56.9661C228.494 60.207 232.696 65.1128 234.873 67.4394Z" fill="black"/>
<path opacity="0.1" d="M231.576 56.9553L229.627 58.204L230.947 56.6565C231.171 56.7312 231.381 56.8308 231.576 56.9553Z" fill="black"/>
<path opacity="0.1" d="M229.808 59.741L227.976 61.4913C227.87 61.3632 227.77 61.228 227.685 61.0857L229.808 59.741Z" fill="black"/>
<path opacity="0.1" d="M233.273 59.4243L231.509 60.5129L233.039 58.9084L233.273 59.4243Z" fill="black"/>
<path opacity="0.1" d="M231.821 62.167L230.394 63.6185L229.936 63.2307L231.821 62.167Z" fill="black"/>
<path opacity="0.1" d="M234.64 62.4375L233.427 62.9996L234.43 61.9714L234.64 62.4375Z" fill="black"/>
<path opacity="0.1" d="M234.227 64.6965L233.092 65.9203L232.765 65.6428L234.227 64.6965Z" fill="black"/>
<path opacity="0.1" d="M236.131 65.7102L235.341 66.1442L236.006 65.4363L236.131 65.7102Z" fill="black"/>
<path d="M226.855 61.2849C226.855 61.2849 222.942 59.7587 223.796 58.6132C224.653 57.4606 227.012 60.9398 227.012 60.9398L226.855 61.2849Z" fill="#3BC49A"/>
<path d="M227.208 61.0217C227.208 61.0217 227.41 56.8274 226.016 57.1405C224.614 57.4535 226.831 61.0253 226.831 61.0253L227.208 61.0217Z" fill="#3BC49A"/>
<path d="M227.123 61.3204C227.123 61.3204 225.38 55.6746 223.765 56.7241C222.295 57.6739 226.749 61.4342 226.749 61.4342L227.123 61.3204Z" fill="#44D0A7"/>
<path d="M232.431 68.8943C232.335 68.8837 232.239 68.841 232.15 68.7663L231.545 68.2504C231.545 68.2504 231.545 68.2504 231.542 68.2504L230.261 67.1583L230.026 66.9555L228.322 65.504L227.995 65.223L226.892 64.2802C226.782 64.1842 226.678 64.081 226.586 63.9707C226.508 63.8782 226.437 63.7822 226.376 63.679C226.059 63.1703 225.931 62.562 226.067 61.9678C226.177 61.4698 226.44 61.0749 226.785 60.801C226.821 60.7725 226.86 60.7441 226.899 60.7192C227.411 60.3741 228.08 60.278 228.72 60.495C228.881 60.5484 229.034 60.6231 229.172 60.712C229.567 60.9611 229.873 61.3346 230.065 61.7651L230.225 62.1173L230.393 62.4872L231.225 64.3194L231.378 64.6538L232.356 66.8096L232.445 67.0089L232.968 68.165C233.157 68.567 232.801 68.9406 232.431 68.8943Z" fill="url(#paint3_linear_12_978)"/>
<path opacity="0.1" d="M231.545 68.2505L226.891 64.2803C226.219 63.7076 225.874 62.8182 226.066 61.9679C226.176 61.4699 226.44 61.075 226.785 60.8011C226.82 60.7726 226.859 60.7441 226.898 60.7192C226.962 63.053 229.983 66.5785 231.545 68.2505Z" fill="black"/>
<path opacity="0.1" d="M229.176 60.7155L227.774 61.612L228.72 60.4985C228.884 60.5519 229.033 60.6266 229.176 60.7155Z" fill="black"/>
<path opacity="0.1" d="M227.902 62.7185L226.586 63.9743C226.508 63.8818 226.436 63.7858 226.376 63.6826L227.902 62.7185Z" fill="black"/>
<path opacity="0.1" d="M230.391 62.4873L229.125 63.2735L230.224 62.1208L230.391 62.4873Z" fill="black"/>
<path opacity="0.1" d="M229.353 64.4617L228.325 65.504L227.998 65.2265L229.353 64.4617Z" fill="black"/>
<path opacity="0.1" d="M231.377 64.6538L230.505 65.0594L231.224 64.323L231.377 64.6538Z" fill="black"/>
<path opacity="0.1" d="M231.079 66.2795L230.264 67.1582L230.029 66.959L231.079 66.2795Z" fill="black"/>
<path opacity="0.1" d="M232.448 67.009L231.879 67.3185L232.356 66.8098L232.448 67.009Z" fill="black"/>
<path d="M234.879 57.7452C234.879 57.7452 229.436 55.6249 230.624 54.0276C231.816 52.4267 235.099 57.2614 235.099 57.2614L234.879 57.7452Z" fill="#3BC49A"/>
<path d="M235.366 57.3822C235.366 57.3822 235.647 51.5443 233.705 51.9819C231.755 52.4195 234.836 57.3858 234.836 57.3858L235.366 57.3822Z" fill="#3BC49A"/>
<path d="M235.248 57.795C235.248 57.795 232.826 49.9436 230.574 51.3986C228.532 52.722 234.725 57.9515 234.725 57.9515L235.248 57.795Z" fill="#44D0A7"/>
<path d="M242.634 68.336C242.503 68.3217 242.367 68.2648 242.243 68.1581L241.403 67.443L241.4 67.4395L239.621 65.9204L239.294 65.6394L236.924 63.6187L236.465 63.2274L234.929 61.9182C234.776 61.7866 234.633 61.6407 234.505 61.4878C234.399 61.3597 234.299 61.2245 234.214 61.0822C233.772 60.3743 233.598 59.5276 233.783 58.7022C233.94 58.0085 234.302 57.4571 234.783 57.08C234.833 57.0409 234.886 57.0017 234.939 56.9662C235.651 56.4859 236.579 56.3543 237.476 56.6531C237.7 56.7278 237.91 56.831 238.105 56.9555C238.653 57.3006 239.084 57.82 239.347 58.4212L239.568 58.9086L239.799 59.4208L240.955 61.968L241.165 62.4305L242.527 65.4295L242.652 65.707L243.381 67.315C243.644 67.8806 243.146 68.4 242.634 68.336Z" fill="url(#paint4_linear_12_978)"/>
<path opacity="0.1" d="M241.401 67.4396L234.927 61.9184C233.995 61.1215 233.511 59.887 233.778 58.7024C233.934 58.0087 234.297 57.4572 234.777 57.0801C234.827 57.041 234.88 57.0019 234.934 56.9663C235.023 60.2072 239.224 65.113 241.401 67.4396Z" fill="black"/>
<path opacity="0.1" d="M238.105 56.9556L236.155 58.2043L237.475 56.6567C237.699 56.7314 237.909 56.8311 238.105 56.9556Z" fill="black"/>
<path opacity="0.1" d="M236.337 59.741L234.505 61.4913C234.398 61.3632 234.298 61.228 234.213 61.0857L236.337 59.741Z" fill="black"/>
<path opacity="0.1" d="M239.802 59.4243L238.037 60.5129L239.567 58.9084L239.802 59.4243Z" fill="black"/>
<path opacity="0.1" d="M238.349 62.1672L236.923 63.6187L236.464 63.2309L238.349 62.1672Z" fill="black"/>
<path opacity="0.1" d="M241.167 62.4375L239.954 62.9996L240.957 61.9714L241.167 62.4375Z" fill="black"/>
<path opacity="0.1" d="M240.755 64.6965L239.62 65.9203L239.293 65.6428L240.755 64.6965Z" fill="black"/>
<path opacity="0.1" d="M242.659 65.7105L241.869 66.1445L242.534 65.4365L242.659 65.7105Z" fill="black"/>
<path d="M233.383 61.2849C233.383 61.2849 229.47 59.7587 230.324 58.6132C231.181 57.4606 233.54 60.9398 233.54 60.9398L233.383 61.2849Z" fill="#3BC49A"/>
<path d="M233.736 61.0217C233.736 61.0217 233.939 56.8274 232.544 57.1405C231.143 57.4535 233.359 61.0253 233.359 61.0253L233.736 61.0217Z" fill="#3BC49A"/>
<path d="M233.652 61.3204C233.652 61.3204 231.909 55.6746 230.294 56.7241C228.825 57.6739 233.279 61.4342 233.279 61.4342L233.652 61.3204Z" fill="#44D0A7"/>
<path d="M238.959 68.8943C238.863 68.8837 238.767 68.841 238.678 68.7663L238.073 68.2504C238.073 68.2504 238.073 68.2504 238.07 68.2504L236.789 67.1583L236.554 66.9555L234.85 65.504L234.523 65.223L233.42 64.2802C233.31 64.1842 233.207 64.081 233.114 63.9707C233.036 63.8782 232.965 63.7822 232.904 63.679C232.588 63.1703 232.46 62.562 232.595 61.9678C232.705 61.4698 232.968 61.0749 233.314 60.801C233.349 60.7725 233.388 60.7441 233.427 60.7192C233.94 60.3741 234.608 60.278 235.249 60.495C235.409 60.5484 235.562 60.6231 235.701 60.712C236.096 60.9611 236.401 61.3346 236.594 61.7651L236.754 62.1173L236.921 62.4872L237.753 64.3194L237.906 64.6538L238.885 66.8096L238.974 67.0089L239.496 68.165C239.685 68.567 239.329 68.9406 238.959 68.8943Z" fill="url(#paint5_linear_12_978)"/>
<path opacity="0.1" d="M238.074 68.2505L233.421 64.2803C232.748 63.7076 232.403 62.8182 232.595 61.9679C232.706 61.4699 232.969 61.075 233.314 60.8011C233.349 60.7726 233.389 60.7441 233.428 60.7192C233.492 63.053 236.512 66.5785 238.074 68.2505Z" fill="black"/>
<path opacity="0.1" d="M235.704 60.7155L234.302 61.612L235.249 60.4985C235.412 60.5519 235.562 60.6266 235.704 60.7155Z" fill="black"/>
<path opacity="0.1" d="M234.431 62.7185L233.115 63.9743C233.037 63.8818 232.966 63.7858 232.905 63.6826L234.431 62.7185Z" fill="black"/>
<path opacity="0.1" d="M236.921 62.4873L235.654 63.2735L236.754 62.1208L236.921 62.4873Z" fill="black"/>
<path opacity="0.1" d="M235.882 64.4617L234.854 65.504L234.527 65.2265L235.882 64.4617Z" fill="black"/>
<path opacity="0.1" d="M237.905 64.6538L237.034 65.0594L237.752 64.323L237.905 64.6538Z" fill="black"/>
<path opacity="0.1" d="M237.607 66.2795L236.792 67.1582L236.558 66.959L237.607 66.2795Z" fill="black"/>
<path opacity="0.1" d="M238.977 67.0088L238.408 67.3183L238.885 66.8096L238.977 67.0088Z" fill="black"/>
<path d="M230.463 92.2871C230.463 92.2871 234.668 92.4385 239.601 92.4385C243.667 92.4385 248.222 92.3376 251.279 91.9591C251.514 91.9297 251.742 91.8961 251.964 91.854C252.065 91.854 252.166 91.8204 252.263 91.7993C252.36 91.7783 252.431 91.7699 252.515 91.7489C252.662 91.7194 252.805 91.6816 252.936 91.6479L253.356 91.526L253.453 91.4966L253.811 91.3746L253.874 91.3536L254.294 91.1938C254.31 91.1902 254.324 91.183 254.336 91.1728C259.105 88.1365 259.248 84.8018 256.645 82.7622C254.816 81.3072 251.624 80.4914 247.725 80.8488L231.19 84.1584L230.463 92.2871Z" fill="#C3DCF8"/>
<path d="M239.601 92.4388C243.667 92.4388 248.222 92.3379 251.279 91.9594C251.514 91.9299 251.742 91.8963 251.964 91.8542C252.065 91.8542 252.166 91.8206 252.263 91.7996C252.36 91.7786 252.431 91.7701 252.515 91.7491C252.662 91.7197 252.805 91.6818 252.936 91.6482L253.356 91.5262L253.453 91.4968L253.811 91.3748L253.874 91.3538L254.294 91.194C254.31 91.1904 254.324 91.1832 254.336 91.173C259.105 88.1368 259.248 84.802 256.645 82.7625C256.687 86.1267 255.009 88.9316 251.086 88.2924C245.711 87.3925 241.064 89.5287 239.601 92.4388Z" fill="#A7CAF0"/>
<path d="M247.737 80.8406C248.851 80.6535 249.974 80.523 251.101 80.4495" stroke="#83ADDF" stroke-width="0.75" stroke-linecap="round" stroke-linejoin="round"/>
<path d="M265.014 63.3887H252.156V92.4617H265.014V63.3887Z" fill="#E1B074" stroke="#55442F" stroke-linecap="round" stroke-linejoin="round"/>
<path d="M252.157 63.3887H223.693V92.4617H252.157V63.3887Z" fill="#F3D3AB" stroke="#87663D" stroke-linecap="round" stroke-linejoin="round"/>
<path d="M248.022 72.1211H219.554L223.693 63.3887H252.156L248.022 72.1211Z" fill="#FFE9CE" stroke="#87663D" stroke-linecap="round" stroke-linejoin="round"/>
<path d="M269.161 72.1251H256.29L252.156 63.3887H265.026L269.161 72.1251Z" fill="#EECA9D" stroke="#55442F" stroke-linecap="round" stroke-linejoin="round"/>
<path d="M222.884 84.3504C221.996 83.9874 221.222 85.1369 222.117 85.9638C223.013 86.7906 224.489 87.0367 224.755 86.3671C225.022 85.6976 223.86 84.7497 222.884 84.3504Z" fill="#FEBD9D" stroke="#EF8A66" stroke-width="0.75" stroke-linecap="round" stroke-linejoin="round"/>
<path d="M222.745 82.3942C221.728 81.9909 220.837 83.2937 221.869 84.2294C222.902 85.1652 224.584 85.4395 224.89 84.7013C225.197 83.9632 223.862 82.85 222.745 82.3942Z" fill="#FEBD9D" stroke="#EF8A66" stroke-width="0.75" stroke-linecap="round" stroke-linejoin="round"/>
<path d="M222.816 80.3088C221.795 79.853 221.239 81.4059 222.267 82.4344C223.296 83.4629 225.159 83.9469 225.466 83.116C225.772 82.2852 223.933 80.813 222.816 80.3088Z" fill="#FEBD9D" stroke="#EF8A66" stroke-width="0.75" stroke-linecap="round" stroke-linejoin="round"/>
<path d="M223.69 77.675V78.9496C223.69 78.9496 225.735 80.438 225.771 81.3455C225.808 82.253 224.787 82.4022 223.69 81.7851C222.593 81.168 221.484 79.966 221.863 78.8931C222.242 77.8203 223.69 77.675 223.69 77.675Z" fill="#FEBD9D" stroke="#EF8A66" stroke-width="0.75" stroke-linecap="round" stroke-linejoin="round"/>
<path d="M223.692 78.9498C223.475 78.7881 223.208 78.7069 222.938 78.7198" stroke="#EF8A66" stroke-width="0.75" stroke-linecap="round" stroke-linejoin="round"/>
<path d="M269.546 72.5352C269.148 70.8293 269.195 69.0499 269.68 67.3669L273.385 69.1332C273.385 69.1332 272.035 72.8338 269.546 72.5352Z" fill="#808080"/>
<path d="M273.435 62.6611C272.394 62.5566 271.362 62.3853 270.344 62.148C270.121 62.0219 268.523 60.7435 267.821 60.2809C267.118 59.8183 264.263 57.9722 263.994 58.1446C263.725 58.317 263.628 59.1539 264.141 59.7679C264.141 59.7679 261.025 58.4432 259.679 58.2834C258.582 58.153 258.796 59.1875 259.532 59.6627C258.355 59.1413 256.954 59.6627 258.548 60.7982C257.471 60.6131 256.912 61.4416 258.598 62.6611C257.665 62.148 257.03 62.8461 257.888 63.7166C259.284 65.138 262.156 66.2398 263.064 66.5846C263.973 66.9294 269.73 68.2078 271.963 69.4694C271.963 69.4694 273.885 66.0169 273.435 62.6611Z" fill="#FEBD9D"/>
<path d="M267.817 60.2809C267.106 59.8183 264.259 57.9722 263.99 58.1446C263.721 58.317 263.624 59.1539 264.137 59.7679C264.137 59.7679 261.021 58.4432 259.675 58.2834C258.578 58.153 258.792 59.1875 259.528 59.6627C258.351 59.1413 256.95 59.6627 258.544 60.7982C257.468 60.6131 256.908 61.4416 258.595 62.6611C257.661 62.148 257.026 62.8461 257.884 63.7166" stroke="#EF8A66" stroke-width="0.75" stroke-linecap="round" stroke-linejoin="round"/>
<path d="M264.136 59.7678L265.747 60.5584" stroke="#EF8A66" stroke-width="0.75" stroke-linecap="round" stroke-linejoin="round"/>
<path d="M259.527 59.6628L262.824 61.1936" stroke="#EF8A66" stroke-width="0.75" stroke-linecap="round" stroke-linejoin="round"/>
<path d="M258.545 60.7983L262.124 62.6613" stroke="#EF8A66" stroke-width="0.75" stroke-linecap="round" stroke-linejoin="round"/>
<path d="M258.593 62.6611L261.398 64.2549" stroke="#EF8A66" stroke-width="0.75" stroke-linecap="round" stroke-linejoin="round"/>
<path d="M271.782 61.5129C277.539 62.0975 287.926 63.8216 295.714 69.4567C298.729 71.635 298.683 80.8109 290.453 80.0498C282.223 79.2886 269.532 72.535 269.532 72.535C269.532 72.535 272.795 71.8159 271.782 61.5129Z" fill="#E6E6E6"/>
<path d="M285.36 79.0405C277.837 76.9379 269.544 72.535 269.544 72.535C269.544 72.535 272.795 71.8159 271.794 61.5129C276.197 61.939 280.546 62.8141 284.771 64.1244" stroke="#808080" stroke-width="0.75" stroke-linecap="round" stroke-linejoin="round"/>
<path d="M245.691 52.3091C247.407 52.5903 250.531 53.0738 252.135 53.3323C251.965 52.3046 251.561 51.4433 250.858 50.9449C248.872 49.5359 246.976 49.8072 245.691 52.3091Z" fill="#2BDA88"/>
<defs>
<linearGradient id="paint0_linear_12_978" x1="193.275" y1="72.212" x2="58.1701" y2="72.212" gradientUnits="userSpaceOnUse">
<stop stop-color="#C5C9CC"/>
<stop offset="1" stop-color="#DADBDE"/>
</linearGradient>
<linearGradient id="paint1_linear_12_978" x1="196.232" y1="146.503" x2="58.1688" y2="146.503" gradientUnits="userSpaceOnUse">
<stop stop-color="#6A6F79"/>
<stop offset="1" stop-color="#DADBDE"/>
</linearGradient>
<linearGradient id="paint2_linear_12_978" x1="226.243" y1="59.2198" x2="236.216" y2="63.711" gradientUnits="userSpaceOnUse">
<stop stop-color="#FF7A00"/>
<stop offset="1" stop-color="#FFC28A"/>
</linearGradient>
<linearGradient id="paint3_linear_12_978" x1="225.342" y1="62.342" x2="232.51" y2="65.5702" gradientUnits="userSpaceOnUse">
<stop stop-color="#FF6B00"/>
<stop offset="1" stop-color="#FF9F47"/>
</linearGradient>
<linearGradient id="paint4_linear_12_978" x1="232.771" y1="59.2201" x2="242.744" y2="63.7112" gradientUnits="userSpaceOnUse">
<stop stop-color="#FF7A00"/>
<stop offset="1" stop-color="#FFC28A"/>
</linearGradient>
<linearGradient id="paint5_linear_12_978" x1="231.87" y1="62.342" x2="239.039" y2="65.5702" gradientUnits="userSpaceOnUse">
<stop stop-color="#FF6B00"/>
<stop offset="1" stop-color="#FF9F47"/>
</linearGradient>
</defs>
</svg>
