<svg width="953" height="729" viewBox="0 0 953 729" fill="none" xmlns="http://www.w3.org/2000/svg">
<path d="M451.279 15.246C466.887 5.89108 483.855 10.7028 491.818 24.4947C500.004 38.6733 495.612 55.6452 479.43 64.6441" fill="#FF6B00"/>
<path d="M795 172.008L795 205.8L825.991 206C826.365 185.605 814.603 171.609 795 172.008Z" fill="#FFE500"/>
<path d="M891 121.326L900.192 130.519L952.518 78.1927L943.326 69.0003L891 121.326Z" fill="#AA0BF0"/>
<path d="M219.353 201.339C223.437 216.58 215.532 229.952 201.785 233.636C187.548 237.451 174.047 230.268 170.004 214.199" fill="#0181F8"/>
<path d="M687 391C687 383.82 681.404 378 674.5 378C667.596 378 662 383.82 662 391C662 398.18 667.596 404 674.5 404C681.404 404 687 398.18 687 391Z" fill="#F10E0E"/>
<path d="M0.000244141 711.078L16.252 728.738L68.4967 680.66L52.2449 663L0.000244141 711.078Z" fill="#22DA4A"/>
</svg>
