<svg width="313" height="203" viewBox="0 0 313 203" fill="none" xmlns="http://www.w3.org/2000/svg">
<path d="M163.704 200.885H149.823C149.823 200.885 149.768 198.049 149.674 194.212C149.511 187.683 148.836 175.696 147.929 161.845C147.369 153.274 158.712 152.922 158.583 162.44C158.32 181.239 158.087 194.212 158.087 194.212L164.398 198.778C164.6 198.921 164.752 199.126 164.83 199.362C164.907 199.598 164.907 199.852 164.83 200.088C164.752 200.324 164.601 200.528 164.398 200.672C164.195 200.815 163.952 200.89 163.704 200.885Z" fill="#FFB3A4"/>
<path d="M145.139 163.546C150.334 164.141 159.48 164.086 159.426 163.927C159.371 163.769 159.099 122.935 158.885 120.997C158.672 119.058 148.277 120.337 147.736 120.997C147.196 121.656 145.139 163.546 145.139 163.546Z" fill="#4A3320"/>
<path d="M163.705 200.885H149.825C149.825 200.885 149.77 198.049 149.676 194.212H158.103L164.399 198.778C164.602 198.921 164.753 199.126 164.831 199.362C164.909 199.598 164.909 199.852 164.831 200.088C164.753 200.324 164.602 200.528 164.399 200.672C164.197 200.815 163.953 200.89 163.705 200.885Z" fill="#FED81D"/>
<path d="M129.7 193.414C134.161 184.744 138.216 176.257 141.86 169.445C142.903 167.234 143.776 164.947 144.473 162.604C144.71 161.474 145.295 156.705 140.72 155.931C136.144 155.158 134.697 157.914 133.328 161.915C132.694 163.764 127.018 179.449 123.186 188.075L129.7 193.414Z" fill="#FFB3A4"/>
<path d="M129.829 202.129L119.091 193.325C119.091 193.325 120.846 191.099 123.205 188.07L129.7 193.414L131.683 200.934C131.745 201.171 131.731 201.421 131.642 201.649C131.553 201.877 131.395 202.072 131.189 202.204C130.983 202.337 130.741 202.401 130.497 202.387C130.252 202.374 130.018 202.283 129.829 202.129Z" fill="#FED81D"/>
<path d="M134.731 122.801C134.731 122.801 132.852 144.232 128.936 161.563C128.936 161.563 135.579 166.411 146.401 164.537C146.614 163.942 149.469 148.733 150.595 142.814C151.72 136.895 152.226 134.852 153.654 133.831C155.081 132.81 154.883 122.112 154.675 121.646C154.467 121.18 141.017 112.267 134.731 122.801Z" fill="#4A3320"/>
<path d="M152.796 131.407C153.743 130.773 154.645 130.034 154.695 129.191C154.744 128.348 154.819 124.536 154.819 124.536" stroke="#7A583F" stroke-opacity="0.99" stroke-width="0.75" stroke-linecap="round" stroke-linejoin="round"/>
<path d="M152.284 124.536C152.16 125.736 151.947 130.877 151.947 130.877" stroke="#7A583F" stroke-opacity="0.99" stroke-width="0.75" stroke-linecap="round" stroke-linejoin="round"/>
<path d="M146.402 164.572C146.616 163.977 149.471 148.768 150.596 142.849C151.722 136.93 152.227 134.887 153.655 133.866" stroke="#7A583F" stroke-opacity="0.99" stroke-width="0.75" stroke-linecap="round" stroke-linejoin="round"/>
<path d="M175.307 99.8633C175.431 97.9249 175.758 95.828 176.09 95.1686C176.422 94.5093 178.108 92.105 178.807 91.8472C179.506 91.5894 179.714 93.1212 178.683 94.7225V95.1538C179.5 94.2005 180.246 93.1881 180.914 92.1248C181.737 90.7219 182.48 90.1419 182.931 90.5484C183.382 90.9549 181.86 94.43 181.409 94.9654L181.737 95.1439C181.737 95.1439 184.647 91.5051 185.172 91.178C185.802 90.7615 186.268 91.7728 185.732 92.7197C185.732 92.7197 186.555 92.1843 186.882 92.6751C187.21 93.1659 184.785 97.2904 184.785 97.2904C184.785 97.2904 187.348 94.4597 188.013 95.1637C188.677 95.8676 183.715 101.455 181.043 103.859C181.043 103.859 176.259 111.26 173.686 114.339C170.32 118.364 164.762 120.526 162.552 117.963C159.815 114.745 163.791 109.575 175.307 99.8633Z" fill="#FFB3A4"/>
<path d="M176.085 95.1686C176.413 94.5093 178.103 92.105 178.802 91.8472C179.501 91.5894 179.709 93.1212 178.678 94.7225V95.1538C179.495 94.2005 180.241 93.1881 180.909 92.1248C181.732 90.7219 182.476 90.1419 182.927 90.5484C183.378 90.9549 181.856 94.43 181.405 94.9654L181.732 95.1439C181.732 95.1439 184.642 91.5051 185.167 91.178C185.797 90.7615 186.263 91.7728 185.728 92.7197C185.728 92.7197 186.55 92.1843 186.878 92.6751C187.205 93.1659 184.781 97.2904 184.781 97.2904C184.781 97.2904 187.344 94.4597 188.008 95.1637C188.335 95.5157 187.264 97.0921 185.772 98.8768" stroke="#934735" stroke-width="0.75" stroke-linecap="round" stroke-linejoin="round"/>
<path d="M178.678 94.7225C179.045 96.8096 178.911 99.6799 178.678 99.903" stroke="#934735" stroke-width="0.75" stroke-linecap="round" stroke-linejoin="round"/>
<path d="M180.821 94.425C181.495 94.8316 183.424 97.7663 183.424 97.7663" stroke="#934735" stroke-width="0.75" stroke-linecap="round" stroke-linejoin="round"/>
<path d="M184.77 97.2706L183.907 98.3811" stroke="#934735" stroke-width="0.75" stroke-linecap="round" stroke-linejoin="round"/>
<path d="M182.856 96.9285C182.821 96.8789 185.716 92.6998 185.716 92.6998" stroke="#934735" stroke-width="0.75" stroke-linecap="round" stroke-linejoin="round"/>
<path d="M165.891 106.63C168.796 115.722 167.755 121.19 160.661 117.814C158.767 116.104 158.871 108.395 158.871 108.395L165.891 106.63Z" fill="#E19080"/>
<path d="M149.078 96.0859C144.528 96.5817 143.13 92.0754 143.501 89.9289C143.873 87.7823 143.834 84.8228 143.997 81.189C144.349 73.8967 151.76 73.3216 152.826 81.4517C152.926 82.2425 152.967 83.0395 152.95 83.8363C152.938 85.189 153.004 86.5413 153.148 87.8864C153.258 88.977 153.401 90.0478 153.56 91.0492C153.922 93.2949 153.634 95.5753 149.078 96.0859Z" fill="#E19080"/>
<path d="M153.159 87.8865C148.698 88.5557 147.989 86.0324 148.172 82.2053L152.837 81.4518C152.937 82.2425 152.978 83.0395 152.961 83.8363C152.949 85.1891 153.015 86.5414 153.159 87.8865Z" fill="#C77464"/>
<path d="M160.674 110.73C160.674 110.73 160.327 116.877 160.55 117.571C160.774 118.265 161.592 122.206 158.31 122.806C155.028 123.406 135.897 123.624 134.732 122.806C134.089 122.291 133.613 121.596 133.366 120.809C133.119 120.022 133.111 119.18 133.344 118.389C133.91 116.847 133.468 114.483 133.156 113.065C133.111 112.867 133.032 112.307 132.923 111.479C132.477 108.008 131.629 99.7941 131.614 94.3063C131.614 91.6789 131.793 89.6761 132.303 89.106C133.791 87.4403 135.084 87.0437 136.403 86.9694C136.701 86.9694 137.003 86.9694 137.305 86.9694C138.946 86.9991 142.516 87.3461 143.75 87.3808C144.274 88.5148 145.086 89.4923 146.104 90.2165C147.122 90.9408 148.312 91.3867 149.555 91.5103C151.855 91.7929 153.095 90.4693 153.848 88.5359C153.848 88.5359 156.679 88.0402 158.726 88.5954C160.422 89.0663 161.701 90.2462 162.563 92.0358C162.755 92.4294 162.92 92.8351 163.059 93.2504C163.941 95.7291 165.989 106.66 165.865 106.66C165.741 106.66 160.674 110.73 160.674 110.73Z" fill="#FED81D"/>
<path d="M137.414 99.3478C139.943 98.8918 143.442 101.435 142.659 104.226C141.876 107.017 144.865 108.192 147.26 106.63C149.654 105.069 152.286 111.032 152.286 111.032L144.573 113.471L140.071 113.749L137.072 113.194L137.414 99.3478Z" fill="#FCC71F"/>
<path d="M160.678 110.73C160.678 110.73 161.302 99.447 161.045 97.2708" stroke="#83ADDF" stroke-width="0.75" stroke-linecap="round" stroke-linejoin="round"/>
<path d="M162.588 92.0061C161.842 91.9506 161.097 92.1108 160.44 92.4677C159.783 92.8247 159.243 93.3631 158.885 94.0188C155.499 99.4323 151.424 105.341 145.143 98.8572C144.087 97.7397 142.947 96.7055 141.732 95.7638C138.668 93.4487 135.57 92.606 131.614 94.3064C130.42 94.8375 129.283 95.4903 128.223 96.2546C128.635 90.9552 130.672 87.2917 135.595 86.9546C135.864 86.9295 136.134 86.9295 136.403 86.9546C136.7 86.9546 137.003 86.9546 137.305 86.9546C138.946 86.9843 142.515 87.3313 143.75 87.366C144.274 88.5 145.086 89.4775 146.104 90.2017C147.122 90.926 148.311 91.3719 149.555 91.4955C151.855 91.7781 153.094 90.4545 153.848 88.5211C153.848 88.5211 156.679 88.0254 158.726 88.5806C160.436 89.0367 161.71 90.2116 162.588 92.0061Z" fill="#FFE05C"/>
<path d="M143.141 86.7909C143.83 86.2109 144.311 87.0487 144.747 87.6634C145.183 88.2781 146.963 90.6725 149.481 90.6924C152 90.7122 153.065 88.4368 153.447 87.941C153.829 87.4453 154.934 88.0402 154.657 89.1258C154.379 90.2115 152.818 92.4473 149.204 92.4473C145.069 92.4473 141.892 87.8419 143.141 86.7909Z" fill="white"/>
<path d="M140.692 108.658C144.108 117.487 141.247 122.538 135.978 120.555C131.684 118.964 130.693 113.298 130.068 109.723L140.692 108.658Z" fill="#E19080"/>
<path d="M142.094 101.425C142.106 104.03 141.972 106.633 141.692 109.223C140.214 109.74 138.706 110.165 137.176 110.497C135.768 110.839 134.256 111.186 132.942 111.488C130.935 111.934 129.393 112.257 129.393 112.257C128.699 108.021 128.291 103.743 128.173 99.4517C128.141 98.3887 128.164 97.3247 128.243 96.2641C128.654 90.9647 130.692 87.3012 135.615 86.9641C135.883 86.9391 136.154 86.9391 136.423 86.9641C139.704 87.3161 141.157 91.272 141.742 95.7585C141.974 97.6383 142.092 99.5306 142.094 101.425Z" fill="#FED81D"/>
<path d="M142.094 101.425C142.106 104.03 141.972 106.633 141.692 109.223C141.692 109.223 139.085 100.299 138.867 99.5955C138.867 99.5161 138.822 99.4368 138.797 99.3674C140.114 99.6198 141.289 100.353 142.094 101.425Z" fill="#FCC71F"/>
<path d="M141.673 109.223C141.673 109.223 139.065 100.299 138.847 99.5955C138.847 99.5162 138.803 99.4368 138.778 99.3674C138.581 98.752 138.209 98.2074 137.707 97.8009" stroke="#D6A91C" stroke-width="0.75" stroke-linecap="round" stroke-linejoin="round"/>
<path d="M141.732 95.7635C138.669 93.4484 135.57 92.6056 131.614 94.306C130.42 94.8371 129.284 95.49 128.224 96.2542C128.635 90.9548 130.673 87.2913 135.595 86.9542C135.864 86.9292 136.135 86.9292 136.403 86.9542C139.695 87.321 141.148 91.277 141.732 95.7635Z" fill="#FFE05C"/>
<path d="M142.817 77.451C141.469 73.9808 140.135 68.5277 143.665 65.8606C148.126 62.5045 151.597 66.287 151.597 66.287C151.597 66.287 154.987 73.024 149.668 76.514C144.349 80.004 142.817 77.451 142.817 77.451Z" fill="#604730"/>
<path d="M152.817 85.254C147.696 85.9381 144.002 81.2088 144.002 81.2088C139.357 80.7428 140.755 75.0467 144.454 76.9206C144.845 77.114 145.554 75.3491 145.604 74.0255C145.653 72.7019 145.752 72.454 145.163 72.0128C144.573 71.5716 143.814 71.1056 144.379 69.9555C144.944 68.8054 146.268 68.1857 147.002 68.4088C147.735 68.6319 149.946 68.7013 150.655 67.8437C150.868 67.565 151.016 67.2423 151.088 66.8993C151.16 66.5562 151.154 66.2014 151.072 65.8607C151.072 65.8607 153.892 67.7247 155.98 73.2968C156.069 73.5397 156.158 73.7925 156.237 74.0206C156.64 75.1502 156.95 76.3108 157.164 77.4907C157.863 81.412 157.006 84.6789 152.817 85.254Z" fill="#FFB3A4"/>
<path d="M149.721 74.4618C149.721 74.5806 149.757 74.6968 149.823 74.7956C149.889 74.8943 149.983 74.9712 150.093 75.0164C150.203 75.0617 150.323 75.0733 150.44 75.0497C150.556 75.0262 150.663 74.9686 150.747 74.8842C150.831 74.7998 150.887 74.6924 150.91 74.5758C150.933 74.4591 150.92 74.3383 150.874 74.2288C150.828 74.1193 150.75 74.0259 150.651 73.9606C150.551 73.8953 150.435 73.861 150.316 73.862C150.238 73.862 150.16 73.8775 150.087 73.9077C150.015 73.9379 149.949 73.9822 149.894 74.0379C149.838 74.0937 149.795 74.1599 149.765 74.2326C149.735 74.3054 149.721 74.3833 149.721 74.4618Z" fill="#4A3320"/>
<path d="M153.145 73.2669C153.144 73.3858 153.178 73.5022 153.243 73.6015C153.309 73.7008 153.402 73.7784 153.511 73.8246C153.621 73.8708 153.742 73.8834 153.858 73.8608C153.975 73.8382 154.082 73.7815 154.167 73.6978C154.251 73.6141 154.309 73.5072 154.332 73.3907C154.356 73.2742 154.344 73.1534 154.299 73.0435C154.254 72.9336 154.177 72.8396 154.078 72.7735C153.979 72.7073 153.863 72.672 153.744 72.672C153.666 72.6714 153.588 72.6863 153.515 72.7159C153.442 72.7455 153.376 72.7892 153.321 72.8445C153.265 72.8998 153.221 72.9656 153.19 73.0381C153.16 73.1106 153.145 73.1884 153.145 73.2669Z" fill="#4A3320"/>
<path d="M147.046 72.8606C147.368 73.738 149.926 71.6262 149.237 70.7041C148.548 69.782 146.659 71.8195 147.046 72.8606Z" fill="#604730"/>
<path d="M151.333 69.7819C151.066 70.823 153.708 70.7189 153.743 70.2777C153.777 69.8364 151.621 68.6516 151.333 69.7819Z" fill="#604730"/>
<path d="M143.484 81.1096C144.106 81.1514 144.729 81.0757 145.323 80.8865" stroke="#934735" stroke-width="0.75" stroke-linecap="round" stroke-linejoin="round"/>
<path d="M142.151 78.6656C142.275 77.9021 144.213 77.4907 144.853 78.9878" stroke="#934735" stroke-width="0.75" stroke-linecap="round" stroke-linejoin="round"/>
<path d="M144.6 78.5664C143.003 77.9814 142.617 80.1924 144.729 79.8206" stroke="#934735" stroke-width="0.75" stroke-linecap="round" stroke-linejoin="round"/>
<path d="M151.534 72.672C151.316 73.6635 151.796 74.3476 152.451 74.4616C153.308 74.6103 154.32 75.0268 153.655 76.4842" stroke="#934735" stroke-width="0.75" stroke-linecap="round" stroke-linejoin="round"/>
<path d="M150.18 77.9813C151.528 78.4374 153.744 78.1648 153.744 78.1648C153.744 78.1648 153.427 80.232 151.959 80.1031C150.492 79.9742 150.18 77.9813 150.18 77.9813Z" fill="white" stroke="#934735" stroke-width="0.75" stroke-linecap="round" stroke-linejoin="round"/>
<path d="M149.956 77.451C149.549 78.2987 148.32 78.5466 147.209 78.0112C146.099 77.4758 145.534 76.3603 145.94 75.5325C146.347 74.7046 147.576 74.4418 148.687 74.9772C149.797 75.5126 150.362 76.6082 149.956 77.451Z" fill="#E39886"/>
<path d="M157.165 77.4806C156.426 78.0358 155.514 78.13 154.934 77.6442C154.215 77.0493 154.265 75.7951 155.053 74.8482C155.362 74.4653 155.773 74.1768 156.238 74.0154C156.64 75.1435 156.95 76.3023 157.165 77.4806Z" fill="#E39886"/>
<path d="M135.676 120.451C140.297 122.479 144.144 120.58 149.73 118.374C155.317 116.168 161.712 112.976 161.712 112.976C161.712 112.976 166.913 110.353 168.702 109.233C170.492 108.112 170.561 107.468 170.333 107.2C170.105 106.933 167.676 107.884 167.22 108.073C168.204 107.113 169.119 106.084 169.957 104.994C170.705 103.869 170.413 103.096 169.193 103.7C169.193 103.7 170.259 102.372 169.535 101.876C168.811 101.38 164.028 105.53 164.028 105.53C164.028 105.53 167.865 102.03 167.18 100.929C166.496 99.8286 160.949 104.895 160.949 104.895C160.949 104.895 161.747 101.395 160.89 101.132C160.032 100.87 159.402 102.327 158.703 103.497C158.004 104.667 156.839 107.557 156.121 107.86C155.402 108.162 141.367 109.481 137.149 112.708C133.232 115.727 132.875 119.207 135.676 120.451Z" fill="#FFB3A4"/>
<path d="M156.819 115.305C159.635 114.007 161.712 112.966 161.712 112.966C161.712 112.966 166.913 110.343 168.702 109.223C170.492 108.102 170.561 107.458 170.333 107.19C170.105 106.923 167.676 107.874 167.22 108.063C168.204 107.103 169.119 106.074 169.956 104.984C170.705 103.859 170.412 103.086 169.193 103.69C169.193 103.69 170.259 102.362 169.535 101.866C168.811 101.37 164.027 105.52 164.027 105.52C164.027 105.52 167.864 102.02 167.18 100.919C166.496 99.8186 160.949 104.885 160.949 104.885C160.949 104.885 161.747 101.385 160.889 101.122C160.032 100.86 159.402 102.317 158.703 103.487" stroke="#934735" stroke-width="0.75" stroke-linecap="round" stroke-linejoin="round"/>
<path d="M139.383 112.723C140.245 111.161 142.179 110.517 142.883 110.333" stroke="#934735" stroke-width="0.75" stroke-linecap="round" stroke-linejoin="round"/>
<path d="M165.665 107.066C166.419 106.407 169.195 103.695 169.195 103.695" stroke="#934735" stroke-width="0.75" stroke-linecap="round" stroke-linejoin="round"/>
<path d="M166.323 108.791L167.22 108.063" stroke="#934735" stroke-width="0.75" stroke-linecap="round" stroke-linejoin="round"/>
<path d="M57.4693 184.817C57.4693 184.817 56.7839 195.81 56.5772 197.382C56.4358 198.411 57.5346 199.096 58.2906 199.237C59.0467 199.379 79.5695 199.237 81.3536 199.237C83.1378 199.237 81.0817 195.87 78.09 195.049C75.0983 194.228 68.7506 189.691 67.9945 185.851C67.2384 182.011 59.3459 183.033 57.4693 184.817Z" fill="#FED81D"/>
<path d="M5.62138 180.232C5.62138 180.232 0.959831 188.859 0.181999 190.05C-0.318424 190.828 0.312538 191.796 0.872795 192.188C1.43305 192.579 18.0939 200.146 19.5353 200.804C20.9768 201.462 20.5742 197.981 18.4474 196.186C16.3206 194.391 12.9047 188.369 13.7315 184.981C14.5583 181.592 7.80258 179.487 5.62138 180.232Z" fill="#FED81D"/>
<path d="M75.8241 80.7621L40.2614 69.3394C40.2614 69.3394 27.7073 124.337 26.6085 126.039C25.5098 127.742 3.30078 181.744 3.49116 182.12C3.68153 182.495 15.398 187.559 15.398 187.559C15.398 187.559 37.4275 150.908 41.7899 144.12C45.3255 138.621 55.062 107.045 55.062 107.045L55.6059 187.548L70.0475 188.092C70.0475 188.092 76.0634 80.0495 75.8241 80.7621Z" fill="#683F1D"/>
<path d="M59.1724 99.7346C57.6602 99.7346 57.1054 100.61 56.7083 101.644C56.3112 102.677 55.0765 107.04 55.0765 107.04" stroke="#91613D" stroke-width="0.71" stroke-linecap="round" stroke-linejoin="round"/>
<path d="M64.9438 78.8311C64.9438 79.0051 61.2723 93.414 60.6304 93.5881C59.8152 93.6786 58.9925 93.6786 58.1773 93.5881" stroke="#91613D" stroke-width="0.71" stroke-linecap="round" stroke-linejoin="round"/>
<path d="M61.3384 77.444C60.6748 81.1264 58.5045 90.6671 58.5045 90.6671" stroke="#91613D" stroke-width="0.71" stroke-linecap="round" stroke-linejoin="round"/>
<path d="M86.667 64.8193C86.8791 65.7766 90.393 65.5971 90.752 65.4611L89.267 61.6808C89.267 61.6808 86.4548 62.5402 86.667 64.8193Z" fill="#83ADDF"/>
<path d="M87.0797 60.5766C90.1802 70.1009 90.2835 78.7931 101.353 74.9801C112.422 71.167 100.602 48.5283 100.602 48.5283L87.0797 60.5766Z" fill="#FEBD9D"/>
<path d="M39.1844 67.4681C39.0811 71.7489 45.4995 74.5393 51.3686 76.5302C53.0004 77.0741 54.5616 77.5691 55.9486 78.0042C62.3562 80.0385 73.8986 82.7637 75.835 82.0457C77.3526 81.4746 82.248 68.3004 84.266 62.7087C84.81 61.1911 85.1527 60.2338 85.1527 60.2338L86.6648 64.8028C87.8615 63.6279 90.2385 62.279 92.9092 60.9953C98.4356 58.3354 105.197 55.9475 105.197 55.9475C105.197 55.9475 103.244 45.7867 101.351 39.0854C100.954 37.6712 100.557 36.4092 100.182 35.4302C98.0059 29.7841 95.4276 27.8803 93.0126 27.8803C90.5975 27.8803 89.6456 27.3092 85.1527 25.215C85.1527 25.215 82.3405 22.7074 76.9065 22.2342C71.4726 21.761 63.6236 19.3731 57.3248 18.2308C57.0209 18.1733 56.714 18.1333 56.4055 18.1112C52.4402 17.812 50.6071 20.6894 49.3343 23.9204C49.0841 24.5568 48.8611 25.2041 48.6435 25.8514L48.0397 27.6899C47.6372 28.8648 46.8485 31.7749 45.8966 35.5281C43.2531 46.1131 39.2823 63.4375 39.1844 67.4681Z" fill="#FED81D"/>
<path d="M49.3733 23.9042C54.0784 22.7782 59.6646 23.5343 63.0968 26.7762C64.0457 27.6582 64.8078 28.7218 65.3379 29.9038C69.9777 40.1571 76.8911 44.5902 83.636 39.2922C89.0101 35.0604 95.1783 33.9562 101.352 39.0692C100.955 37.6549 100.558 36.393 100.183 35.4139C98.0068 29.7678 95.4286 27.8641 93.0135 27.8641C90.5984 27.8641 89.6465 27.2929 85.1536 25.1988C85.1536 25.1988 82.3414 22.6912 76.9075 22.218C71.4735 21.7447 63.6245 19.3569 57.3257 18.2146C57.0218 18.1571 56.7149 18.1171 56.4064 18.0949C52.4302 17.7958 50.6243 20.6732 49.3733 23.9042Z" fill="#FFE05C"/>
<path d="M85.1526 60.2338L86.6648 64.8029C87.8614 63.628 90.2384 62.279 92.9092 60.9953C89.6455 61.0933 87.002 58.8196 89.2865 56.7091C91.5711 54.5986 91.9518 50.3559 90.3146 47.1412L85.1526 60.2338Z" fill="#FCC71F"/>
<path d="M85.1544 60.2338L90.3164 47.1358L91.834 43.2902" fill="#FCC71F"/>
<path d="M85.1544 60.2338L90.3164 47.1358L91.834 43.2902" stroke="#F7AD2B" stroke-width="0.71" stroke-linecap="round" stroke-linejoin="round"/>
<path d="M39.1876 67.4681C39.0843 71.7489 45.5028 74.5393 51.3719 76.5302C52.0246 71.2866 46.2806 71.6728 44.2408 66.1246C40.5692 56.1325 48.1463 58.8794 52.3999 47.1357L51.1162 32.4494L48.6957 25.8242L48.0919 27.6627C47.6894 28.8376 46.9007 31.7477 45.9488 35.5009C43.2563 46.1131 39.2855 63.4376 39.1876 67.4681Z" fill="#FED81D"/>
<path d="M74.1277 22.2179C74.3923 23.8043 75.0788 25.2903 76.1152 26.52C77.1517 27.7498 78.4999 28.6781 80.0185 29.2076C85.3382 31.1277 87.7533 28.6963 87.9383 26.3519C87.9383 26.1887 87.9655 26.0201 87.9763 25.8515C88.1558 23.2406 88.1504 20.3033 88.6127 15.1413C88.6757 14.2545 88.6171 13.3633 88.4387 12.4923C87.4378 7.1019 82.7491 1.0098 79.393 9.64754C74.7042 21.7502 74.1277 22.2179 74.1277 22.2179Z" fill="#FEBD9D"/>
<path d="M87.9763 25.8514C88.1558 23.2405 88.1504 20.3033 88.6127 15.1413C88.6757 14.2545 88.6171 13.3633 88.4387 12.4923C85.5232 12.6501 81.7863 13.8358 81.4871 16.5773C81.0411 20.6786 81.8625 25.3565 87.9763 25.8514Z" fill="#F4A789"/>
<path d="M51.1138 64.6126C51.1954 66.2063 55.8135 66.1247 55.8135 66.1247L54.372 58.1451C53.2792 58.8114 52.3948 59.7703 51.819 60.9134C51.2432 62.0564 50.9989 63.3378 51.1138 64.6126Z" fill="#FCC71F"/>
<path d="M69.2943 55.0609C71.5625 65.4338 75.2069 72.0644 70.7031 77.444C66.1993 82.8235 58.9541 79.2716 56.5607 73.0435C54.1674 66.8154 52.3996 57.4923 52.3996 57.4923L69.2943 55.0609Z" fill="#FEBD9D"/>
<path d="M45.9347 35.5118C46.9355 46.1186 51.1184 64.6125 51.1184 64.6125C51.1184 64.6125 54.2189 60.261 70.7002 58.5802C70.7002 58.5802 67.9261 38.6884 63.0851 26.7762C61.1813 22.0548 58.9566 18.5899 56.4544 18.1058H56.4109C50.172 16.9091 47.6263 19.9769 46.5058 24.8833C46.1088 26.7412 45.8561 28.627 45.7497 30.5239C45.6875 32.1888 45.7493 33.8561 45.9347 35.5118Z" fill="#FED81D"/>
<path d="M46.5179 24.8724C47.437 24.4598 48.3932 24.1356 49.3736 23.9041C54.0787 22.7782 59.6649 23.5343 63.0972 26.7761C61.1934 22.0548 58.9687 18.5899 56.4666 18.1058H56.423C50.1841 16.8982 47.6384 19.966 46.5179 24.8724Z" fill="#FFE05C"/>
<path d="M46.2529 38.3076C47.6073 49.0667 51.1211 64.6125 51.1211 64.6125" stroke="#F7AD2B" stroke-width="0.71" stroke-linecap="round" stroke-linejoin="round"/>
<path d="M70.6841 58.5802C70.6841 58.5802 64.7008 34.6469 62.8949 33.8038" stroke="#F7AD2B" stroke-width="0.71" stroke-linecap="round" stroke-linejoin="round"/>
<path d="M77.9542 9.50612C78.1186 10.9739 78.3876 12.4282 78.7592 13.8576C80.8697 22.1962 89.1865 24.4536 92.4284 19.9008C93.4293 18.492 93.7067 15.7777 93.364 12.8024C93.2473 11.8035 93.0656 10.8132 92.82 9.83792C92.3014 7.51294 91.3652 5.30136 90.0568 3.31066C88.8928 1.64077 87.4568 0.460421 85.7978 0.172134C82.1752 -0.458835 79.5044 0.629048 78.3894 3.69686C78.0419 4.73734 77.8584 5.82553 77.8454 6.92241C77.8236 7.78511 77.86 8.6483 77.9542 9.50612Z" fill="#FEBD9D"/>
<path d="M77.9533 9.50616C78.7781 9.97509 79.6383 10.3788 80.5261 10.7137C81.4617 11.0074 82.2123 10.8171 82.1579 10.1208C82.1035 9.42458 81.7771 6.59065 83.9746 5.15466C86.1722 3.71866 80.2541 3.23999 80.2541 3.23999L78.421 3.7241C78.0736 4.76458 77.8901 5.85277 77.8771 6.94965C77.8457 7.80257 77.8711 8.65663 77.9533 9.50616Z" fill="#DD6819"/>
<path d="M86.9888 9.04383C86.7094 9.04383 86.4829 8.81734 86.4829 8.53796C86.4829 8.25858 86.7094 8.0321 86.9888 8.0321C87.2682 8.0321 87.4946 8.25858 87.4946 8.53796C87.4946 8.81734 87.2682 9.04383 86.9888 9.04383Z" fill="#683F1D"/>
<path d="M90.9443 8.30946C90.9443 8.44362 90.891 8.57229 90.7962 8.66715C90.7013 8.76202 90.5726 8.81531 90.4385 8.81531C90.3043 8.81531 90.1756 8.76202 90.0808 8.66715C89.9859 8.57229 89.9326 8.44362 89.9326 8.30946C89.9326 8.17529 89.9859 8.04663 90.0808 7.95176C90.1756 7.85689 90.3043 7.80359 90.4385 7.80359C90.5726 7.80359 90.7013 7.85689 90.7962 7.95176C90.891 8.04663 90.9443 8.17529 90.9443 8.30946Z" fill="#683F1D"/>
<path d="M77.8416 6.94962C81.1052 6.00317 87.0233 4.22993 90.0693 3.33787C88.9053 1.66798 87.4693 0.48763 85.8103 0.199342C81.1216 -0.616565 78.0048 1.45584 77.8416 6.94962Z" fill="#DD6819"/>
<path d="M80.5264 10.7137C80.2598 8.9459 77.4803 7.47726 75.979 8.85887C74.0916 10.5995 75.5167 14.0208 79.0414 14.3744C79.1992 14.3744 80.5264 10.7137 80.5264 10.7137Z" fill="#FEBD9D"/>
<path d="M77.6753 14.0535C78.4778 14.4233 79.3782 14.5244 80.2427 14.3418" stroke="#EF8A66" stroke-width="0.71" stroke-linecap="round" stroke-linejoin="round"/>
<path d="M80.0283 12.0571C79.7944 10.9203 78.13 9.57676 76.917 10.1207" stroke="#EF8A66" stroke-width="0.71" stroke-linecap="round" stroke-linejoin="round"/>
<path d="M79.6021 11.1924C78.1987 9.85972 76.4798 12.3074 78.5142 12.8242" stroke="#EF8A66" stroke-width="0.71" stroke-linecap="round" stroke-linejoin="round"/>
<path d="M90.8088 12.4706C91.0862 10.9639 90.8088 10.1535 89.933 9.68024C89.0573 9.20701 88.1543 8.50532 88.3502 7.16724" stroke="#EF8A66" stroke-width="0.71" stroke-linecap="round" stroke-linejoin="round"/>
<path d="M87.6145 5.80188C87.7559 6.6613 84.9546 7.31947 84.8295 6.67762C84.7044 6.03577 87.386 4.36588 87.6145 5.80188Z" fill="#DD6819"/>
<path d="M91.4542 6.29147C91.4542 6.63415 88.7834 6.7647 88.8596 5.61155C88.9357 4.4584 91.5358 5.44293 91.4542 6.29147Z" fill="#DD6819"/>
<path d="M89.6172 13.9229C88.241 14.2058 86.6527 13.7271 86.2828 11.8179" stroke="#EF8A66" stroke-width="0.71" stroke-linecap="round" stroke-linejoin="round"/>
<path d="M81.0285 10.284C80.713 11.0346 81.4255 12.0409 82.6113 12.5413C83.7971 13.0418 85.0155 12.8351 85.331 12.0844C85.6465 11.3338 84.9339 10.3221 83.7481 9.82708C82.5624 9.33209 81.3439 9.53336 81.0285 10.284Z" fill="#F4AF90"/>
<path d="M91.8462 12.4759C92.0403 12.6715 92.2868 12.8069 92.556 12.8658C92.8252 12.9246 93.1057 12.9045 93.3638 12.8077C93.2471 11.8088 93.0654 10.8185 92.8198 9.84326C92.8013 9.85282 92.7847 9.86573 92.7709 9.88134C91.7646 10.6701 91.3458 11.8286 91.8462 12.4759Z" fill="#F4AF90"/>
<path d="M133.578 35.0236L127.836 56.2294L120.842 54.3331L111.716 51.8656L115.95 36.226L117.457 30.6598L127.755 33.3749L133.578 35.0236Z" fill="url(#paint0_linear_12_1389)"/>
<path d="M117.46 30.653L121.579 27.0545L131.542 29.7536L127.719 33.4314L117.46 30.653Z" fill="url(#paint1_linear_12_1389)"/>
<path d="M131.541 29.7536L133.578 35.0236L127.718 33.4313L131.541 29.7536Z" fill="#B1BEE3"/>
<path d="M133.579 35.0238L127.838 56.2296L121.976 54.6442L127.719 33.4315L133.579 35.0238Z" fill="url(#paint2_linear_12_1389)"/>
<path d="M121.579 27.0543L131.543 29.7534L131.598 29.5471C131.815 28.7357 131.339 27.9006 130.527 27.6831L123.498 25.7776C122.687 25.5602 121.852 26.0366 121.634 26.848L121.579 27.0543Z" fill="url(#paint3_linear_12_1389)"/>
<path d="M115.727 37.0648L125.979 39.8414L124.953 43.6422L114.694 40.8638L115.727 37.0648Z" fill="url(#paint4_linear_12_1389)"/>
<path d="M131.839 41.4266L130.814 45.2274L124.952 43.642L125.978 39.8412L131.839 41.4266Z" fill="url(#paint5_linear_12_1389)"/>
<path d="M115.364 27.1278L109.45 25.5432L105.673 39.6398L111.587 41.2244L115.364 27.1278Z" fill="url(#paint6_linear_12_1389)"/>
<path d="M115.81 20.9463L114.015 20.4654C111.698 19.8444 109.325 21.2205 108.706 23.531L107.902 26.5291L111.478 27.4872C112.296 27.7065 112.779 28.5435 112.56 29.3618C112.341 30.1801 111.504 30.6633 110.686 30.4441L107.11 29.486L105.968 33.7493L109.543 34.7074C110.362 34.9267 110.845 35.7637 110.626 36.582C110.406 37.4003 109.569 37.8836 108.751 37.6643L105.175 36.7062L102.973 44.9235L113.151 47.6504L118.883 26.2579C119.495 23.9456 118.121 21.5653 115.81 20.9463Z" fill="url(#paint7_linear_12_1389)"/>
<path d="M131.726 45.4053L120.229 88.3141L76.4948 76.5956L88.0014 33.6525L88.194 35.5466L90.5715 33.8252L91.6826 36.5551L94.1472 34.7834L94.3283 35.2078L94.712 36.1139L95.2767 37.4444L97.6542 35.723L98.8709 38.3338L101.161 36.6627L102.41 39.4294L104.737 37.6208L105.866 40.2819L108.244 38.5605L109.392 41.1528L111.682 39.4818L112.899 42.0925L115.258 40.4399L116.474 43.0507L118.765 41.3796L119.913 43.9719L122.34 42.3377L123.557 44.9485L125.916 43.2958L127.046 45.9569L129.423 44.2355L130.608 46.6903L131.726 45.4053Z" fill="url(#paint8_linear_12_1389)"/>
<path d="M94.712 36.1139L83.3712 78.4381L76.4948 76.5956L88.0014 33.6525L88.194 35.5466L90.5715 33.8252L91.6826 36.5551L94.1472 34.7834L94.3283 35.2078L94.712 36.1139Z" fill="#EECA9D"/>
<path d="M101.162 36.6629L89.5267 80.0873L82.7878 78.2817L94.3294 35.2079L95.2778 37.4446L97.6552 35.7232L98.8719 38.3339L101.162 36.6629Z" fill="url(#paint9_linear_12_1389)"/>
<path d="M89.5253 80.0872L76.4946 76.5956L76.5019 76.5681L85.1056 69.764L89.5253 80.0872Z" fill="#E1AF72"/>
<path d="M60.2348 78.314C62.3616 84.5693 77.8094 84.504 84.0212 85.2275C90.0045 85.9183 105.387 87.4032 105.387 87.4032C105.387 87.4032 112.279 90.4982 116.081 91.0476C119.883 91.597 119.889 90.3568 119.959 89.1221C120.03 87.8873 120.764 87.4903 120.438 86.5166C120.112 85.543 121.526 84.5802 121.265 83.2802C121.004 81.9802 122.984 83.3454 123.049 81.0772C123.114 78.809 116.908 79.0157 114.857 78.809L115.124 77.1772C115.124 77.1772 113.013 76.5082 112.056 76.6333C111.098 76.7584 108.341 77.955 107.16 77.5416C105.98 77.1282 82.9442 68.2947 78.435 66.7445C72.2178 64.6394 55.5678 64.5796 60.2348 78.314Z" fill="#FEBD9D"/>
<path d="M78.4414 66.7663C74.8842 65.6885 71.1272 65.441 67.4593 66.0429" stroke="#EF8A66" stroke-width="0.71" stroke-linecap="round" stroke-linejoin="round"/>
<path d="M116.081 91.0314C119.889 91.5753 119.889 90.3406 119.959 89.1059C120.03 87.8711 120.764 87.474 120.438 86.5004C120.112 85.5267 121.526 84.564 121.265 83.264C121.004 81.9639 122.984 83.3292 123.049 81.061C123.114 78.7928 116.908 78.9995 114.857 78.7928L115.124 77.161C115.124 77.161 113.013 76.4919 112.056 76.617" stroke="#EF8A66" stroke-width="0.71" stroke-linecap="round" stroke-linejoin="round"/>
<path d="M114.856 78.7927C113.73 78.8308 111.652 78.7927 111.652 78.7927" stroke="#EF8A66" stroke-width="0.71" stroke-linecap="round" stroke-linejoin="round"/>
<path d="M104.23 76.4483L90.0277 71.0579" stroke="#EF8A66" stroke-width="0.71" stroke-linecap="round" stroke-linejoin="round"/>
<path d="M267.478 190.745C267.478 194.309 268.4 199.699 266.369 199.699H247.156C246.416 199.699 246.617 197.262 248.657 196.71C250.697 196.157 255.927 192.166 256.422 190.745H267.478Z" fill="#683F1D"/>
<path d="M253.678 97.3288L253.74 191.222H266.316V92.5177L253.678 97.3288Z" fill="#C3DCF8"/>
<path d="M262.463 99.2444C262.342 102.242 263.278 103.668 264.151 103.904" stroke="#83ADDF" stroke-width="0.75" stroke-linecap="round" stroke-linejoin="round"/>
<path d="M278.313 193.725C278.313 197.436 279.266 203 277.159 203H257.269C256.498 203 256.708 200.479 258.819 199.882C260.931 199.285 266.352 195.177 266.838 193.707L278.313 193.725Z" fill="#683F1D"/>
<path d="M258.818 199.9C260.929 199.325 266.351 195.195 266.836 193.725" stroke="#91613D" stroke-width="0.75" stroke-linecap="round" stroke-linejoin="round"/>
<path d="M287.081 97.3289C286.738 112.644 280.234 194.376 280.234 194.376C280.234 194.376 265.142 194.068 265.142 194.376V95.9257L287.081 97.3289Z" fill="#C3DCF8"/>
<path d="M265.142 194.376V107.169" stroke="#83ADDF" stroke-width="0.75" stroke-linecap="round" stroke-linejoin="round"/>
<path d="M277.208 43.7337C277.008 43.7471 276.807 43.7471 276.607 43.7337C273.515 43.4575 271.707 40.0853 271.261 37.497C270.816 34.744 269.35 34.2763 268.464 33.4388C267.577 32.6013 266.392 31.3361 267.078 29.2379C267.764 27.1398 268.931 23.0547 265.336 22.9746C263.514 22.93 262.459 21.4243 261.866 19.9498C261.509 19.0258 261.269 18.0604 261.153 17.0765C267.127 14.1363 269.974 15.8158 272.446 18.2882C274.919 20.7606 273.555 23.1171 274.874 26.329C276.21 29.621 281.498 30.0042 281.779 34.793C282.059 39.5819 280.661 43.5911 277.208 43.7337Z" fill="#604730"/>
<path d="M277.391 41.0251C277.203 41.9434 276.941 42.8448 276.606 43.7203C273.515 43.4441 271.706 40.0718 271.261 37.4836C270.815 34.7306 269.35 34.2628 268.463 33.4253C267.577 32.5878 266.392 31.3227 267.078 29.2245C267.764 27.1263 268.931 23.0413 265.336 22.9611C263.514 22.9166 262.458 21.4109 261.866 19.9363C267.866 17.21 270.962 18.7959 271.466 21.1391C272.009 23.6427 267.982 26.8947 271.466 29.9907C274.949 33.0868 279.199 32.619 277.391 41.0251Z" fill="#473526"/>
<path d="M259.468 52.1175C254.568 52.3848 252.002 49.1506 252.167 47.048C252.251 46.0145 252.447 43.4263 252.661 40.4371C252.853 37.7999 253.062 34.842 253.227 32.3384C253.254 31.9285 253.28 31.5276 253.303 31.1445C253.837 22.6404 262.119 20.1324 263.036 29.9996C263.335 33.1982 264.733 38.2097 265.638 42.4729C266.573 46.8341 264.373 51.8502 259.468 52.1175Z" fill="#FEBD9D"/>
<path d="M252.644 40.4372C252.835 37.8 253.044 34.8421 253.209 32.3385L258.666 30.9486C259.967 35.5548 258.265 40.2769 252.644 40.4372Z" fill="#F4A789"/>
<path d="M288.566 50.7054C288.521 52.3626 288.387 54.091 288.196 55.8373C287.71 60.292 286.859 64.9116 286.276 68.7828C285.83 71.763 285.532 74.3111 285.683 76.0351C285.928 78.8639 286.196 82.7172 286.427 86.3256C286.797 92.0766 287.082 97.3288 287.082 97.3288H253.671C253.671 97.3288 240.04 77.2156 238 68.1725C236.944 63.4994 236.721 59.5837 237.109 56.3006C237.391 53.5778 238.285 50.954 239.724 48.625C242.227 44.6959 248.188 42.1924 252.642 40.8515C252.491 43.4887 251.894 47.3911 257.422 46.8431C262.951 46.2952 265.209 42.1567 264.701 38.29C272.426 36.8333 282.708 36.1294 285.866 39.524C286.307 40.0045 286.683 40.5406 286.984 41.1188C287.517 42.1535 287.899 43.2591 288.12 44.4019C288.508 46.4793 288.657 48.5941 288.566 50.7054Z" fill="#FED81D"/>
<path d="M288.116 44.4153C283.216 44.6781 278.115 46.7941 276.467 51.5429C276.344 51.8972 276.243 52.2587 276.164 52.6254C276.003 53.3924 275.758 54.1394 275.433 54.8528C272.315 61.8066 262.63 62.2031 255.062 57.343C248.709 53.2669 245.043 51.0751 237.123 56.2916C237.402 53.573 238.292 50.9525 239.724 48.625C242.228 44.6959 248.188 42.1924 252.643 40.8515C252.491 43.4887 251.894 47.3911 257.423 46.8431C262.951 46.2952 265.21 42.1567 264.702 38.29C272.426 36.8333 282.708 36.1294 285.866 39.524C286.307 40.0045 286.683 40.5406 286.985 41.1188C287.517 42.158 287.898 43.2681 288.116 44.4153Z" fill="#FFE05C"/>
<path d="M247.099 52.1309L248.636 59.842" stroke="#F7AD2B" stroke-width="0.75" stroke-linecap="round" stroke-linejoin="round"/>
<path d="M285.681 76.0351C285.926 78.8638 286.193 82.7172 286.425 86.3255C284.229 84.5748 280.848 81.2204 282.358 78.0887C284.527 73.5894 283.249 71.0368 280.322 68.903C277.395 66.7692 277.159 65.0808 279.484 58.1359C281.81 51.1909 288.194 55.8328 288.194 55.8328C287.708 60.2875 286.857 64.9071 286.274 68.7783C285.824 71.7629 285.53 74.3111 285.681 76.0351Z" fill="#FCC71F"/>
<path d="M312.449 80.3918C312.449 85.2297 309.046 89.2122 304.671 89.7468C304.352 89.7863 304.031 89.8057 303.709 89.8047C298.88 89.8047 294.969 85.5994 294.969 80.4096C294.969 75.2199 298.88 71.0101 303.709 71.0101C305.521 71.0136 307.281 71.6114 308.721 72.7118C309.892 73.6178 310.838 74.7825 311.485 76.1148C312.132 77.4471 312.462 78.9109 312.449 80.3918Z" fill="#FED81D"/>
<path d="M312.451 80.3919C312.451 85.2298 309.048 89.2123 304.673 89.7469C304.094 83.1004 305.604 76.7123 308.722 72.7119C309.894 73.6179 310.84 74.7826 311.487 76.1148C312.134 77.4471 312.464 78.911 312.451 80.3919Z" fill="#FCC71F"/>
<path d="M289.459 46.7853C289.46 48.1424 289.155 49.4822 288.568 50.7055C287.786 52.3055 286.568 53.6525 285.056 54.5918C283.543 55.5311 281.795 56.0246 280.015 56.0156C279.265 56.017 278.517 55.9303 277.787 55.7572C276.964 55.5668 276.17 55.2672 275.426 54.8662C273.961 54.0847 272.735 52.9213 271.878 51.4994C271.021 50.0775 270.564 48.4501 270.557 46.7898C270.592 44.3141 271.608 41.9533 273.38 40.2248C275.153 38.4963 277.539 37.5411 280.015 37.5684C282.127 37.5623 284.181 38.258 285.855 39.5464C286.842 40.3056 287.666 41.2554 288.278 42.3395C288.646 42.9868 288.931 43.6784 289.125 44.3976C289.344 45.1747 289.456 45.9779 289.459 46.7853Z" fill="#FED81D"/>
<path d="M290.065 44.4109C289.753 44.4109 289.436 44.3886 289.116 44.3886C288.795 44.3886 288.439 44.3886 288.1 44.4154C283.2 44.6782 278.099 46.7942 276.451 51.543C276.328 51.8973 276.227 52.2588 276.148 52.6255C275.987 53.3925 275.742 54.1395 275.417 54.8529C273.952 54.0714 272.726 52.9079 271.869 51.486C271.012 50.0641 270.556 48.4367 270.548 46.7764C270.587 44.3015 271.605 41.9427 273.379 40.2169C275.154 38.491 277.54 37.5387 280.015 37.5684C282.127 37.5622 284.181 38.258 285.855 39.5463C286.842 40.3055 287.666 41.2554 288.278 42.3395C288.755 42.8295 289.361 43.5378 290.065 44.4109Z" fill="#FFE05C"/>
<path d="M306.104 84.9224C303.244 85.105 299.324 83.3632 294.472 78.0888C291.595 74.9705 288.788 71.8522 286.276 68.7828C282.605 64.3281 279.553 59.9357 277.812 55.7572C277.226 54.4053 276.779 52.9979 276.475 51.5563C275.798 48.5653 276.207 45.4308 277.629 42.7137C278.921 40.2858 282.917 38.005 286.984 41.1322C287.453 41.4935 287.889 41.8944 288.289 42.3305C288.735 42.8295 289.363 43.5378 290.071 44.4109C293.27 48.2999 298.638 55.4854 303.217 62.2299C307.52 68.6002 311.12 74.5963 311.538 77.1088C312.118 80.5167 310.184 84.664 306.104 84.9224Z" fill="#FED81D"/>
<path d="M290.062 44.411C289.751 44.411 289.434 44.3887 289.114 44.3887C288.793 44.3887 288.437 44.3887 288.098 44.4154C283.198 44.6783 278.097 46.7943 276.449 51.543C275.772 48.5519 276.181 45.4175 277.603 42.7003C278.894 40.2725 282.89 37.9917 286.958 41.1189C287.426 41.4802 287.863 41.8811 288.263 42.3172C288.753 42.8295 289.359 43.5378 290.062 44.411Z" fill="#FFE05C"/>
<path d="M294.475 78.1067C291.597 74.9884 288.791 71.8701 286.278 68.8007C282.608 64.346 279.556 59.9536 277.814 55.775C277.229 54.4232 276.781 53.0158 276.478 51.5742" stroke="#F7AD2B" stroke-width="0.75" stroke-linecap="round" stroke-linejoin="round"/>
<path d="M306.103 84.9224C306.933 84.1418 307.656 83.2551 308.254 82.2851C311.546 77.1265 299.625 69.0278 303.22 62.2388C307.524 68.6091 311.123 74.6052 311.542 77.1176C312.117 80.5166 310.183 84.664 306.103 84.9224Z" fill="#FCC71F"/>
<path d="M268.977 48.7202L268.924 69.3728L262.111 69.3527L253.224 69.3326L253.264 54.1008L253.277 48.68L263.289 48.6399L268.977 48.7202Z" fill="url(#paint10_linear_12_1389)"/>
<path d="M253.279 48.6734L256.144 44.4037L265.848 44.4305L263.271 48.7002L253.279 48.6734Z" fill="url(#paint11_linear_12_1389)"/>
<path d="M265.846 44.4304L268.978 48.7202L263.27 48.7001L265.846 44.4304Z" fill="#B1BEE3"/>
<path d="M268.978 48.7204L268.925 69.373L263.216 69.3596L263.27 48.7003L268.978 48.7204Z" fill="url(#paint12_linear_12_1389)"/>
<path d="M256.141 44.4037L265.845 44.4305V44.2297C265.845 43.44 265.209 42.7975 264.42 42.7975L257.573 42.7775C256.784 42.7775 256.141 43.4132 256.141 44.2029V44.4037Z" fill="url(#paint13_linear_12_1389)"/>
<path d="M253.261 54.9175L263.246 54.9442L263.24 58.6451L253.248 58.6184L253.261 54.9175Z" fill="url(#paint14_linear_12_1389)"/>
<path d="M268.956 54.9575L268.949 58.6583L263.241 58.645L263.247 54.9441L268.956 54.9575Z" fill="url(#paint15_linear_12_1389)"/>
<path d="M250.514 45.9829H244.758V59.7022H250.514V45.9829Z" fill="url(#paint16_linear_12_1389)"/>
<path d="M249.416 40.261H247.669C245.414 40.261 243.594 42.088 243.594 44.3366V47.2545H247.074C247.87 47.2545 248.513 47.897 248.513 48.6933C248.513 49.4897 247.87 50.1322 247.074 50.1322H243.594V54.2815H247.074C247.87 54.2815 248.513 54.9239 248.513 55.7203C248.513 56.5167 247.87 57.1592 247.074 57.1592H243.594V65.1565H253.498V44.3366C253.492 42.088 251.665 40.261 249.416 40.261Z" fill="url(#paint17_linear_12_1389)"/>
<path d="M233.121 49.095C233.121 49.095 222.881 45.1064 225.116 42.1015C227.358 39.09 233.535 48.1849 233.535 48.1849L233.121 49.095Z" fill="#3BC49A"/>
<path d="M234.041 48.4124C234.041 48.4124 234.57 37.4303 230.915 38.2534C227.248 39.0766 233.044 48.4191 233.044 48.4191L234.041 48.4124Z" fill="#3BC49A"/>
<path d="M233.817 49.1887C233.817 49.1887 229.259 34.4187 225.023 37.1558C221.182 39.6454 232.833 49.4831 232.833 49.4831L233.817 49.1887Z" fill="#44D0A7"/>
<path d="M247.712 69.0181C247.465 68.9914 247.21 68.8843 246.976 68.6835L245.397 67.3383L245.39 67.3316L242.044 64.474L241.428 63.9453L236.971 60.1441L236.108 59.4079L233.217 56.9451C232.929 56.6975 232.661 56.4231 232.42 56.1353C232.22 55.8944 232.032 55.6401 231.872 55.3724C231.042 54.0406 230.714 52.4479 231.062 50.8952C231.356 49.5902 232.039 48.5529 232.942 47.8435C233.036 47.7699 233.136 47.6963 233.237 47.6294C234.575 46.7259 236.322 46.4783 238.008 47.0404C238.43 47.181 238.825 47.3751 239.193 47.6093C240.224 48.2584 241.033 49.2355 241.529 50.3665L241.944 51.2834L242.379 52.2471L244.554 57.0388L244.948 57.9088L247.512 63.5505L247.746 64.0725L249.118 67.0974C249.613 68.1615 248.676 69.1386 247.712 69.0181Z" fill="url(#paint18_linear_12_1389)"/>
<path opacity="0.1" d="M245.396 67.3317L233.216 56.9451C231.462 55.4461 230.552 53.1238 231.054 50.8953C231.349 49.5903 232.031 48.5529 232.935 47.8435C233.028 47.7699 233.129 47.6963 233.229 47.6294C233.397 53.7261 241.3 62.9549 245.396 67.3317Z" fill="black"/>
<path opacity="0.1" d="M239.191 47.6093L235.523 49.9583L238.006 47.0471C238.428 47.1877 238.823 47.375 239.191 47.6093Z" fill="black"/>
<path opacity="0.1" d="M235.865 52.8494L232.418 56.142C232.218 55.9011 232.03 55.6468 231.87 55.3791L235.865 52.8494Z" fill="black"/>
<path opacity="0.1" d="M242.384 52.2537L239.064 54.3016L241.942 51.2833L242.384 52.2537Z" fill="black"/>
<path opacity="0.1" d="M239.654 57.4136L236.97 60.1441L236.107 59.4146L239.654 57.4136Z" fill="black"/>
<path opacity="0.1" d="M244.953 57.9222L242.671 58.9796L244.559 57.0455L244.953 57.9222Z" fill="black"/>
<path opacity="0.1" d="M244.177 62.1719L242.042 64.474L241.426 63.952L244.177 62.1719Z" fill="black"/>
<path opacity="0.1" d="M247.757 64.079L246.271 64.8955L247.522 63.5637L247.757 64.079Z" fill="black"/>
<path d="M230.311 55.7541C230.311 55.7541 222.949 52.8831 224.555 50.7281C226.168 48.5598 230.605 55.1049 230.605 55.1049L230.311 55.7541Z" fill="#3BC49A"/>
<path d="M230.973 55.2588C230.973 55.2588 231.354 47.3685 228.731 47.9574C226.094 48.5464 230.264 55.2655 230.264 55.2655L230.973 55.2588Z" fill="#3BC49A"/>
<path d="M230.812 55.8209C230.812 55.8209 227.533 45.2001 224.495 47.1744C221.731 48.9612 230.11 56.0351 230.11 56.0351L230.812 55.8209Z" fill="#44D0A7"/>
<path d="M240.798 70.069C240.617 70.0489 240.436 69.9686 240.269 69.828L239.131 68.8576C239.131 68.8576 239.131 68.8576 239.125 68.8576L236.715 66.8031L236.274 66.4216L233.068 63.6911L232.452 63.1625L230.378 61.389C230.17 61.2083 229.976 61.0142 229.802 60.8067C229.655 60.6327 229.521 60.4521 229.407 60.258C228.812 59.301 228.571 58.1566 228.825 57.039C229.033 56.102 229.528 55.3592 230.177 54.8439C230.244 54.7903 230.317 54.7368 230.391 54.6899C231.355 54.0408 232.613 53.8601 233.818 54.2683C234.119 54.3687 234.406 54.5092 234.667 54.6766C235.41 55.145 235.986 55.8477 236.347 56.6575L236.648 57.32L236.963 58.016L238.529 61.4626L238.817 62.0917L240.657 66.1472L240.824 66.522L241.808 68.697C242.163 69.4533 241.494 70.156 240.798 70.069Z" fill="url(#paint19_linear_12_1389)"/>
<path opacity="0.1" d="M239.13 68.8576L230.377 61.389C229.112 60.3115 228.463 58.6384 228.824 57.039C229.031 56.102 229.527 55.3592 230.176 54.8439C230.243 54.7903 230.316 54.7368 230.39 54.6899C230.51 59.0801 236.192 65.7122 239.13 68.8576Z" fill="black"/>
<path opacity="0.1" d="M234.676 54.6833L232.039 56.3697L233.819 54.275C234.127 54.3754 234.408 54.5159 234.676 54.6833Z" fill="black"/>
<path opacity="0.1" d="M232.278 58.451L229.802 60.8134C229.655 60.6394 229.521 60.4588 229.407 60.2647L232.278 58.451Z" fill="black"/>
<path opacity="0.1" d="M236.964 58.0161L234.581 59.4951L236.649 57.3268L236.964 58.0161Z" fill="black"/>
<path opacity="0.1" d="M235.006 61.7302L233.072 63.6911L232.457 63.1691L235.006 61.7302Z" fill="black"/>
<path opacity="0.1" d="M238.815 62.0917L237.176 62.8547L238.528 61.4694L238.815 62.0917Z" fill="black"/>
<path opacity="0.1" d="M238.255 65.1501L236.723 66.8032L236.281 66.4284L238.255 65.1501Z" fill="black"/>
<path opacity="0.1" d="M240.83 66.522L239.759 67.1042L240.656 66.1472L240.83 66.522Z" fill="black"/>
<path d="M269.82 58.5981V100.358H227.256V58.5647L227.892 60.2377L229.632 58.0962L231.305 60.3047L233.112 58.0962L233.38 58.4375L233.949 59.167L234.785 60.2377L236.525 58.0962L238.265 60.1708L239.938 58.0962L241.745 60.3047L243.418 58.0962L245.091 60.2377L246.831 58.0962L248.505 60.1708L250.178 58.0962L251.918 60.1708L253.658 58.0962L255.398 60.1708L257.071 58.0962L258.744 60.1708L260.551 58.0962L262.291 60.1708L264.031 58.0962L265.704 60.2377L267.444 58.0962L269.117 60.037L269.82 58.5981Z" fill="url(#paint20_linear_12_1389)"/>
<path d="M233.949 59.167V100.358H227.256V58.5647L227.892 60.2377L229.632 58.0962L231.305 60.3047L233.112 58.0962L233.38 58.4375L233.949 59.167Z" fill="#EECA9D"/>
<path d="M239.942 58.0962V100.358H233.383V58.4375L234.789 60.2377L236.529 58.0962L238.269 60.1708L239.942 58.0962Z" fill="url(#paint21_linear_12_1389)"/>
<path d="M239.938 100.358H227.256V100.332L233.413 92.0599L239.938 100.358Z" fill="#E1AF72"/>
<path d="M261.593 97.4471C263.497 97.4471 265.04 95.3647 265.04 92.796C265.04 90.2272 263.497 88.1448 261.593 88.1448C259.69 88.1448 258.146 90.2272 258.146 92.796C258.146 95.3647 259.69 97.4471 261.593 97.4471Z" fill="url(#paint22_linear_12_1389)"/>
<path d="M268.52 97.4806C270.424 97.4806 271.967 95.3982 271.967 92.8294C271.967 90.2606 270.424 88.1782 268.52 88.1782C266.617 88.1782 265.074 90.2606 265.074 92.8294C265.074 95.3982 266.617 97.4806 268.52 97.4806Z" fill="url(#paint23_linear_12_1389)"/>
<path d="M254.298 97.4471C256.201 97.4471 257.744 95.3647 257.744 92.796C257.744 90.2272 256.201 88.1448 254.298 88.1448C252.394 88.1448 250.851 90.2272 250.851 92.796C250.851 95.3647 252.394 97.4471 254.298 97.4471Z" fill="url(#paint24_linear_12_1389)"/>
<path d="M249.281 97.4471C251.185 97.4471 252.728 95.3647 252.728 92.796C252.728 90.2272 251.185 88.1448 249.281 88.1448C247.378 88.1448 245.834 90.2272 245.834 92.796C245.834 95.3647 247.378 97.4471 249.281 97.4471Z" fill="url(#paint25_linear_12_1389)"/>
<path d="M264.002 97.4471C265.905 97.4471 267.448 95.3647 267.448 92.796C267.448 90.2272 265.905 88.1448 264.002 88.1448C262.098 88.1448 260.555 90.2272 260.555 92.796C260.555 95.3647 262.098 97.4471 264.002 97.4471Z" fill="url(#paint26_linear_12_1389)"/>
<path d="M256.639 97.4471C258.543 97.4471 260.086 95.3647 260.086 92.796C260.086 90.2272 258.543 88.1448 256.639 88.1448C254.736 88.1448 253.193 90.2272 253.193 92.796C253.193 95.3647 254.736 97.4471 256.639 97.4471Z" fill="url(#paint27_linear_12_1389)"/>
<path d="M273.706 95.0045V95.9414L270.36 100.358H267.683L267.416 99.5553H266.345L265.743 100.358H260.991L260.322 99.4884H258.314L257.712 100.358H254.165L253.496 99.4884H251.421L250.752 100.358H248.677L245.666 96.7445V95.0045H273.706Z" fill="#B68649"/>
<path d="M273.707 95.0045V95.9414L270.361 100.358H267.684L267.417 99.5553H266.346L265.744 100.358H263.917L266.5 95.0045H273.707Z" fill="url(#paint28_linear_12_1389)"/>
<path d="M274.542 93.8333H244.627V95.4394H274.542V93.8333Z" fill="url(#paint29_linear_12_1389)"/>
<path d="M274.542 93.8333H265.574V95.4394H274.542V93.8333Z" fill="#B68649"/>
<path d="M264.842 27.3491L264.143 27.2556L262.833 27.0863L260.788 26.819L248.957 25.2732C247.259 23.625 246.627 23.184 246.368 22.5558C246.25 22.2241 246.19 21.8745 246.19 21.5223C246.106 20.0166 246.23 15.8024 251.344 14.2745C251.812 14.1354 252.288 14.0268 252.77 13.9493C255.014 13.6348 257.301 13.8437 259.452 14.5596C259.452 14.5596 260.062 13.5038 263.056 15.357C266.049 17.2101 269.453 22.4445 264.842 27.3491Z" fill="#604730"/>
<path d="M264.142 27.2556C264.07 27.9283 263.999 28.3336 263.999 28.3336L262.738 27.9995C262.778 27.6877 262.81 27.3848 262.832 27.1086C263.638 17.7091 257.932 14.5239 252.769 13.976C255.013 13.6616 257.3 13.8705 259.451 14.5863C264.672 16.9785 264.431 24.4536 264.142 27.2556Z" fill="white"/>
<path d="M260.787 26.8191L248.955 25.2733C247.258 23.625 246.625 23.184 246.367 22.5559C247.494 17.9541 250.211 15.5485 254.47 15.4283C259.642 15.308 261.032 19.5934 261.446 22.8009C261.55 24.1737 261.324 25.5515 260.787 26.8191Z" fill="#473526"/>
<path d="M261.461 29.581C258.009 34.2896 253.131 36.7086 250.485 35.1717C248.743 34.1471 247.892 31.4876 247.741 28.4272C247.69 27.3874 247.714 26.3453 247.812 25.3089C247.865 24.703 247.945 24.1016 248.043 23.5047C248.841 18.7069 252.053 15.4282 257.55 16.7335C257.55 16.7335 255.991 20.5601 258.472 22.9969C260.953 25.4336 262.927 25.144 262.927 25.144C262.927 25.144 264.655 24.8589 265.35 26.035C266.958 28.788 263.72 30.9486 261.461 29.581Z" fill="#FEBD9D"/>
<path d="M252.769 23.919C252.768 24.026 252.799 24.1308 252.858 24.2201C252.916 24.3094 253.001 24.3792 253.099 24.4206C253.198 24.4619 253.307 24.473 253.412 24.4523C253.517 24.4316 253.613 24.3802 253.689 24.3046C253.764 24.2289 253.816 24.1325 253.836 24.0275C253.857 23.9225 253.846 23.8138 253.805 23.7151C253.763 23.6164 253.694 23.5323 253.604 23.4734C253.515 23.4145 253.41 23.3835 253.303 23.3844C253.162 23.3856 253.026 23.4423 252.926 23.5423C252.826 23.6423 252.77 23.7776 252.769 23.919Z" fill="#683F1D"/>
<path d="M249.385 24.0526C249.384 24.1594 249.415 24.2641 249.474 24.3533C249.533 24.4425 249.617 24.5123 249.715 24.5538C249.813 24.5953 249.922 24.6066 250.027 24.5863C250.132 24.566 250.228 24.515 250.304 24.4398C250.38 24.3646 250.431 24.2686 250.453 24.1639C250.474 24.0592 250.463 23.9506 250.423 23.8519C250.382 23.7531 250.313 23.6687 250.224 23.6092C250.135 23.5498 250.031 23.5181 249.924 23.5181C249.782 23.5181 249.646 23.5742 249.545 23.6744C249.444 23.7745 249.386 23.9105 249.385 24.0526Z" fill="#683F1D"/>
<path d="M261.863 26.0306C262.049 25.7364 262.308 25.4956 262.615 25.3323C262.922 25.169 263.266 25.0888 263.614 25.0996" stroke="#EF8A66" stroke-width="0.75" stroke-linecap="round" stroke-linejoin="round"/>
<path d="M262.184 27.7679C262.518 26.5206 263.926 25.839 264.857 26.8368" stroke="#EF8A66" stroke-width="0.75" stroke-linecap="round" stroke-linejoin="round"/>
<path d="M262.4 27.2289C263.826 26.231 264.757 28.8905 262.262 28.4673" stroke="#EF8A66" stroke-width="0.75" stroke-linecap="round" stroke-linejoin="round"/>
<path d="M251.624 29.4607C251.858 29.5093 252.099 29.5097 252.332 29.4616C252.566 29.4135 252.787 29.3181 252.983 29.1812C253.178 29.0443 253.343 28.8688 253.468 28.6655C253.593 28.4623 253.675 28.2356 253.709 27.9995" stroke="#EF8A66" stroke-width="0.75" stroke-linecap="round" stroke-linejoin="round"/>
<path d="M250.224 27.5898C249.289 27.1087 249.28 26.3291 250.162 25.8391C251.044 25.349 251.797 24.6942 251.623 22.9524" stroke="#EF8A66" stroke-width="0.75" stroke-linecap="round" stroke-linejoin="round"/>
<path d="M247.712 21.5892C247.904 22.1728 251.2 22.2975 251.04 20.8408C250.92 19.7494 247.472 20.8542 247.712 21.5892Z" fill="#604730"/>
<path d="M252.667 21.0857C252.364 22.0658 255.959 23.3621 256.279 22.6271C256.56 21.9767 253.228 19.2504 252.667 21.0857Z" fill="#604730"/>
<path d="M253.937 27.033C254.285 27.9239 255.746 28.2269 257.198 27.67C258.651 27.1132 259.55 25.9327 259.207 25.0283C258.864 24.124 257.403 23.8345 255.946 24.3869C254.49 24.9393 253.594 26.1242 253.937 27.033Z" fill="#F4AF90"/>
<path d="M248.903 27.6923C248.785 27.9011 248.617 28.0774 248.414 28.2056C248.211 28.3339 247.98 28.41 247.741 28.4273C247.69 27.3875 247.714 26.3454 247.812 25.309C248.774 25.9861 249.251 26.9706 248.903 27.6923Z" fill="#F4AF90"/>
<path d="M276.396 91.7961C275.809 92.2438 275.126 92.5502 274.402 92.6916C273.677 92.833 272.929 92.8055 272.217 92.6114C270.881 92.2639 268.422 94.1972 266.257 95.204C264.092 96.2108 262.247 96.7142 263.276 98.3001C263.276 98.3001 260.412 98.995 259.445 99.4984C258.479 100.002 259.445 100.968 260.488 100.968C261.53 100.968 267.067 100.523 268.809 100.438C270.551 100.354 279.501 97.917 279.501 97.917L276.396 91.7961Z" fill="#FEBD9D"/>
<path d="M266.257 95.204C264.087 96.2108 262.247 96.7141 263.276 98.3C263.276 98.3 260.412 98.995 259.445 99.4984C258.479 100.002 259.445 100.968 260.488 100.968C260.866 100.968 261.824 100.911 262.982 100.835" stroke="#EF8A66" stroke-width="0.75" stroke-linecap="round" stroke-linejoin="round"/>
<path d="M305.061 89.8717C304.036 90.2815 302.856 90.7626 301.568 91.2972C293.02 94.8298 280.016 100.438 280.016 100.438L275.25 91.6625C277.922 89.6356 282.938 85.5239 286.159 82.2363C289.38 78.9486 295.296 71.2642 303.448 74.4003C305.321 75.0887 306.988 76.2432 308.29 77.7548C311.672 81.8086 310.91 87.5196 305.061 89.8717Z" fill="#FED81D"/>
<path d="M305.061 89.8716C304.036 90.2814 302.856 90.7625 301.568 91.2971C303.012 85.1005 304.963 87.4393 308.25 82.2851C309.106 80.9487 308.937 79.4118 308.282 77.7546C311.672 81.8085 310.91 87.5194 305.061 89.8716Z" fill="#FCC71F"/>
<path d="M275.25 91.6624C277.922 89.6311 282.943 85.5238 286.164 82.2362C289.384 78.9486 295.296 71.2597 303.453 74.4003" stroke="#F7AD2B" stroke-width="0.75" stroke-linecap="round" stroke-linejoin="round"/>
<path d="M278.307 91.2926L281.559 97.9168" stroke="#F7AD2B" stroke-width="0.75" stroke-linecap="round" stroke-linejoin="round"/>
<path d="M263.278 98.3C265.505 97.801 268.958 97.6318 270.018 97.1863" stroke="#EF8A66" stroke-width="0.75" stroke-linecap="round" stroke-linejoin="round"/>
<path d="M226.455 83.0208C225.413 82.5943 224.503 83.9448 225.555 84.9163C226.607 85.8877 228.341 86.1768 228.654 85.3902C228.967 84.6035 227.602 83.4899 226.455 83.0208Z" fill="#FEBD9D" stroke="#EF8A66" stroke-width="0.75" stroke-linecap="round" stroke-linejoin="round"/>
<path d="M226.289 80.7226C225.094 80.2487 224.047 81.7793 225.26 82.8787C226.473 83.9781 228.449 84.3003 228.81 83.4331C229.17 82.566 227.601 81.2581 226.289 80.7226Z" fill="#FEBD9D" stroke="#EF8A66" stroke-width="0.75" stroke-linecap="round" stroke-linejoin="round"/>
<path d="M226.375 78.2725C225.176 77.7371 224.522 79.5615 225.731 80.7698C226.939 81.9782 229.128 82.5469 229.488 81.5707C229.849 80.5945 227.688 78.8649 226.375 78.2725Z" fill="#FEBD9D" stroke="#EF8A66" stroke-width="0.75" stroke-linecap="round" stroke-linejoin="round"/>
<path d="M227.012 75.1782V76.6757C227.012 76.6757 229.415 78.4243 229.457 79.4905C229.5 80.5567 228.301 80.732 227.012 80.007C225.723 79.282 224.42 77.8698 224.866 76.6093C225.311 75.3488 227.012 75.1782 227.012 75.1782Z" fill="#FEBD9D" stroke="#EF8A66" stroke-width="0.75" stroke-linecap="round" stroke-linejoin="round"/>
<path d="M227.403 76.6757C227.148 76.4859 226.835 76.3904 226.517 76.4056" stroke="#EF8A66" stroke-width="0.75" stroke-linecap="round" stroke-linejoin="round"/>
<path d="M199.917 201.291H210.044C210.044 201.291 210.083 199.223 210.152 196.423C210.272 191.66 210.763 182.914 211.425 172.809C211.834 166.555 203.559 166.299 203.653 173.243C203.844 186.958 204.014 196.423 204.014 196.423L199.41 199.754C199.262 199.859 199.152 200.008 199.095 200.18C199.038 200.352 199.038 200.538 199.095 200.71C199.152 200.882 199.262 201.032 199.41 201.136C199.558 201.241 199.735 201.295 199.917 201.291Z" fill="#FFB3A4"/>
<path d="M213.461 174.049C209.67 174.484 202.997 174.444 203.037 174.328C203.077 174.212 203.276 144.42 203.431 143.006C203.587 141.592 211.171 142.525 211.566 143.006C211.96 143.487 213.461 174.049 213.461 174.049Z" fill="#C3DCF8"/>
<path d="M199.915 201.291H210.042C210.042 201.291 210.082 199.223 210.15 196.423H204.002L199.408 199.754C199.26 199.859 199.15 200.008 199.093 200.18C199.037 200.352 199.037 200.538 199.093 200.71C199.15 200.882 199.26 201.032 199.408 201.136C199.556 201.241 199.734 201.295 199.915 201.291Z" fill="#FED81D"/>
<path d="M224.729 195.841C221.474 189.515 218.515 183.323 215.857 178.354C215.096 176.741 214.459 175.072 213.951 173.362C213.777 172.538 213.35 169.058 216.689 168.494C220.027 167.93 221.083 169.941 222.081 172.86C222.544 174.209 226.686 185.652 229.481 191.946L224.729 195.841Z" fill="#FFB3A4"/>
<path d="M224.635 202.199L232.469 195.776C232.469 195.776 231.188 194.152 229.467 191.942L224.729 195.841L223.282 201.328C223.237 201.501 223.247 201.683 223.312 201.85C223.376 202.016 223.492 202.158 223.642 202.254C223.792 202.351 223.969 202.398 224.147 202.388C224.326 202.378 224.496 202.312 224.635 202.199Z" fill="#FED81D"/>
<path d="M221.058 144.323C221.058 144.323 222.429 159.958 225.286 172.603C225.286 172.603 220.44 176.14 212.544 174.773C212.389 174.339 210.305 163.242 209.484 158.924C208.663 154.605 208.294 153.115 207.253 152.37C206.211 151.625 206.356 143.82 206.508 143.48C206.659 143.14 216.472 136.637 221.058 144.323Z" fill="#C3DCF8"/>
<path d="M207.879 150.602C207.189 150.139 206.53 149.6 206.494 148.985C206.458 148.37 206.404 145.589 206.404 145.589" stroke="#83ADDF" stroke-width="0.75" stroke-linecap="round" stroke-linejoin="round"/>
<path d="M208.252 145.589C208.342 146.464 208.498 150.215 208.498 150.215" stroke="#83ADDF" stroke-width="0.75" stroke-linecap="round" stroke-linejoin="round"/>
<path d="M212.544 174.798C212.388 174.364 210.305 163.268 209.484 158.949C208.663 154.631 208.294 153.141 207.253 152.396" stroke="#83ADDF" stroke-width="0.75" stroke-linecap="round" stroke-linejoin="round"/>
<path d="M191.454 127.588C191.363 126.174 191.125 124.644 190.882 124.163C190.64 123.682 189.41 121.927 188.9 121.739C188.39 121.551 188.238 122.669 188.991 123.837V124.152C188.394 123.456 187.85 122.718 187.363 121.942C186.763 120.918 186.22 120.495 185.891 120.792C185.562 121.088 186.672 123.624 187.001 124.014L186.763 124.145C186.763 124.145 184.64 121.49 184.256 121.251C183.797 120.947 183.457 121.685 183.847 122.376C183.847 122.376 183.247 121.985 183.008 122.343C182.77 122.701 184.538 125.711 184.538 125.711C184.538 125.711 182.668 123.645 182.184 124.159C181.699 124.673 185.32 128.749 187.269 130.503C187.269 130.503 190.759 135.903 192.636 138.149C195.092 141.086 199.147 142.663 200.76 140.793C202.756 138.445 199.856 134.673 191.454 127.588Z" fill="#FFB3A4"/>
<path d="M190.886 124.163C190.647 123.682 189.414 121.927 188.904 121.739C188.394 121.551 188.242 122.669 188.994 123.837V124.152C188.398 123.456 187.854 122.718 187.367 121.942C186.766 120.918 186.224 120.495 185.895 120.792C185.565 121.088 186.676 123.624 187.005 124.014L186.766 124.145C186.766 124.145 184.643 121.49 184.26 121.251C183.8 120.947 183.46 121.685 183.851 122.376C183.851 122.376 183.251 121.985 183.012 122.343C182.773 122.701 184.542 125.711 184.542 125.711C184.542 125.711 182.672 123.645 182.187 124.159C181.949 124.416 182.73 125.566 183.818 126.868" stroke="#934735" stroke-width="0.75" stroke-linecap="round" stroke-linejoin="round"/>
<path d="M188.993 123.837C188.725 125.36 188.823 127.454 188.993 127.617" stroke="#934735" stroke-width="0.75" stroke-linecap="round" stroke-linejoin="round"/>
<path d="M187.43 123.62C186.938 123.917 185.531 126.058 185.531 126.058" stroke="#934735" stroke-width="0.75" stroke-linecap="round" stroke-linejoin="round"/>
<path d="M184.549 125.696L185.179 126.506" stroke="#934735" stroke-width="0.75" stroke-linecap="round" stroke-linejoin="round"/>
<path d="M185.944 125.447C185.969 125.41 183.857 122.361 183.857 122.361" stroke="#934735" stroke-width="0.75" stroke-linecap="round" stroke-linejoin="round"/>
<path d="M198.325 132.525C196.206 139.158 196.965 143.147 202.141 140.684C203.522 139.437 203.447 133.812 203.447 133.812L198.325 132.525Z" fill="#E19080"/>
<path d="M210.59 124.832C213.91 125.193 214.93 121.906 214.659 120.34C214.387 118.774 214.416 116.614 214.297 113.963C214.04 108.643 208.633 108.223 207.855 114.155C207.783 114.732 207.752 115.313 207.765 115.895C207.774 116.882 207.725 117.868 207.62 118.85C207.541 119.645 207.436 120.426 207.32 121.157C207.056 122.795 207.266 124.459 210.59 124.832Z" fill="#E19080"/>
<path d="M207.614 118.85C210.869 119.338 211.387 117.497 211.253 114.705L207.849 114.155C207.777 114.732 207.746 115.313 207.759 115.895C207.768 116.882 207.719 117.868 207.614 118.85Z" fill="#C77464"/>
<path d="M202.132 135.516C202.132 135.516 202.385 140.001 202.222 140.507C202.059 141.013 201.462 143.889 203.857 144.327C206.251 144.764 220.209 144.923 221.059 144.327C221.528 143.95 221.875 143.443 222.055 142.869C222.236 142.295 222.241 141.681 222.071 141.104C221.659 139.979 221.981 138.254 222.209 137.219C222.241 137.075 222.299 136.666 222.379 136.062C222.704 133.53 223.323 127.537 223.333 123.533C223.333 121.616 223.203 120.155 222.831 119.739C221.746 118.524 220.802 118.235 219.84 118.18C219.623 118.18 219.402 118.18 219.181 118.18C217.984 118.202 215.38 118.455 214.479 118.481C214.097 119.308 213.505 120.021 212.762 120.55C212.019 121.078 211.151 121.403 210.244 121.493C208.566 121.7 207.662 120.734 207.112 119.323C207.112 119.323 205.047 118.962 203.553 119.367C202.316 119.71 201.383 120.571 200.754 121.877C200.614 122.164 200.493 122.46 200.392 122.763C199.748 124.571 198.254 132.546 198.345 132.546C198.435 132.546 202.132 135.516 202.132 135.516Z" fill="#FED81D"/>
<path d="M219.101 127.212C217.256 126.879 214.702 128.734 215.274 130.771C215.845 132.807 213.664 133.664 211.918 132.525C210.171 131.385 208.25 135.736 208.25 135.736L213.878 137.516L217.162 137.719L219.35 137.313L219.101 127.212Z" fill="#FCC71F"/>
<path d="M202.129 135.516C202.129 135.516 201.673 127.284 201.861 125.696" stroke="#83ADDF" stroke-width="0.75" stroke-linecap="round" stroke-linejoin="round"/>
<path d="M200.735 121.855C201.279 121.814 201.823 121.931 202.302 122.192C202.781 122.452 203.175 122.845 203.437 123.323C205.907 127.273 208.88 131.584 213.462 126.853C214.232 126.038 215.064 125.284 215.951 124.597C218.186 122.908 220.446 122.293 223.333 123.533C224.204 123.921 225.033 124.397 225.807 124.955C225.506 121.088 224.02 118.415 220.428 118.169C220.232 118.151 220.035 118.151 219.839 118.169C219.622 118.169 219.401 118.169 219.181 118.169C217.983 118.191 215.379 118.444 214.479 118.47C214.096 119.297 213.504 120.01 212.761 120.539C212.018 121.067 211.151 121.392 210.243 121.482C208.565 121.689 207.661 120.723 207.111 119.312C207.111 119.312 205.046 118.951 203.552 119.356C202.304 119.689 201.375 120.546 200.735 121.855Z" fill="#FFE05C"/>
<path d="M214.923 118.05C214.42 117.627 214.069 118.238 213.751 118.687C213.433 119.135 212.134 120.882 210.297 120.897C208.46 120.911 207.682 119.251 207.403 118.889C207.125 118.528 206.318 118.962 206.521 119.754C206.723 120.546 207.863 122.177 210.499 122.177C213.516 122.177 215.834 118.817 214.923 118.05Z" fill="white"/>
<path d="M198.068 128.664C199.29 129.403 200.944 129.869 201.91 128.937C202.877 128.004 203.246 124.713 200.836 125.043C200.836 125.043 197.471 123.269 196.539 123.872C195.606 124.474 198.068 128.664 198.068 128.664Z" fill="#B68649" stroke="#683F1D" stroke-linecap="round" stroke-linejoin="round"/>
<path d="M193.786 137.73C193.786 137.73 198.334 137.73 198.947 137.776C199.561 137.821 199.954 138.418 202.04 138.509C204.126 138.6 203.876 135.098 203.597 133.962C203.319 132.825 201.96 132.739 201.136 133.08C200.312 133.422 199.863 132.995 199.84 131.62C199.688 129.719 199.255 127.851 198.555 126.077C198.049 124.706 197.189 123.493 196.061 122.563C194.934 121.632 193.58 121.017 192.138 120.78C188.932 120.37 185.135 120.706 184.953 125.685C184.771 130.665 184.953 131.466 185.572 133.365C186.192 135.263 187.471 136.434 188.039 137.264C188.761 138.293 192.695 138.964 193.786 137.73Z" fill="#B68649" stroke="#683F1D" stroke-linecap="round" stroke-linejoin="round"/>
<path d="M198.635 114.726C200.812 114.982 201.927 113.464 201.324 112.037C200.721 110.61 198.834 110.718 197.345 112.662L198.635 114.726Z" fill="#B68649" stroke="#683F1D" stroke-linecap="round" stroke-linejoin="round"/>
<path d="M191.814 110.844L188.591 112.196C188.591 112.196 186.318 108.837 188.95 108.041C191.712 107.194 191.814 110.844 191.814 110.844Z" fill="#B68649" stroke="#683F1D" stroke-linecap="round" stroke-linejoin="round"/>
<path d="M198.506 117.545C199.205 115.272 199.324 111.674 194.885 110.054C190.446 108.433 185.739 112.253 184.773 116.403C183.806 120.552 189.098 124.145 194.385 123.593C199.671 123.042 200.2 119.677 198.506 117.545Z" fill="#B68649" stroke="#683F1D" stroke-linecap="round" stroke-linejoin="round"/>
<path d="M193.849 115.493C193.9 116.323 194.286 117.136 195.02 117.318C195.446 117.444 195.901 117.431 196.32 117.282C196.738 117.133 197.099 116.855 197.35 116.488C196.34 115.748 195.097 115.395 193.849 115.493Z" fill="#683F1D" stroke="#683F1D" stroke-linecap="round" stroke-linejoin="round"/>
<path d="M189.733 119.66C189.77 118.958 189.978 118.276 190.339 117.673C190.699 117.07 191.202 116.564 191.802 116.198C192.422 115.813 193.122 115.572 193.848 115.493C195.097 115.395 196.339 115.748 197.349 116.488C197.776 116.785 198.159 117.141 198.486 117.545" stroke="#683F1D" stroke-linecap="round" stroke-linejoin="round"/>
<path d="M197.631 114.982C197.631 115.119 197.591 115.253 197.514 115.367C197.438 115.481 197.33 115.57 197.203 115.622C197.077 115.675 196.937 115.689 196.803 115.662C196.668 115.635 196.544 115.569 196.447 115.472C196.351 115.375 196.284 115.252 196.258 115.117C196.231 114.982 196.245 114.843 196.297 114.716C196.35 114.59 196.439 114.481 196.553 114.405C196.667 114.329 196.801 114.288 196.938 114.288C197.029 114.288 197.119 114.306 197.203 114.341C197.287 114.376 197.364 114.427 197.428 114.491C197.493 114.556 197.544 114.632 197.579 114.716C197.613 114.8 197.631 114.891 197.631 114.982Z" fill="#683F1D"/>
<path d="M193.828 114.47C193.828 114.608 193.787 114.742 193.71 114.856C193.634 114.97 193.525 115.059 193.398 115.111C193.271 115.164 193.131 115.177 192.997 115.15C192.862 115.123 192.739 115.056 192.642 114.958C192.545 114.861 192.479 114.737 192.453 114.602C192.427 114.467 192.442 114.327 192.495 114.201C192.548 114.074 192.638 113.966 192.753 113.891C192.868 113.815 193.002 113.776 193.14 113.777C193.323 113.778 193.498 113.852 193.627 113.982C193.755 114.112 193.828 114.287 193.828 114.47Z" fill="#683F1D"/>
<path d="M195.274 117.267C194.933 118.904 194.609 120.564 194.609 120.564" stroke="#683F1D" stroke-linecap="round" stroke-linejoin="round"/>
<path d="M196.674 119.865C196.41 120.13 196.089 120.332 195.735 120.456C195.381 120.579 195.004 120.62 194.632 120.575C194.26 120.531 193.903 120.402 193.588 120.199C193.273 119.997 193.008 119.725 192.814 119.404" stroke="#683F1D" stroke-linecap="round" stroke-linejoin="round"/>
<path d="M190.675 132.785C191.608 133.041 192.085 132.597 192.705 132.785C193.972 133.177 194.785 134.49 193.807 137.73" fill="#B68649"/>
<path d="M190.675 132.785C191.608 133.041 192.085 132.597 192.705 132.785C193.972 133.177 194.785 134.49 193.807 137.73" stroke="#683F1D" stroke-linecap="round" stroke-linejoin="round"/>
<path d="M188.194 124.207C189.422 123.889 190.798 126.026 191.218 126.686C191.218 126.686 192.85 127.129 192.492 128.601C192.133 130.073 191.048 130.272 190.036 129.88" fill="#B68649"/>
<path d="M188.194 124.207C189.422 123.889 190.798 126.026 191.218 126.686C191.218 126.686 192.85 127.129 192.492 128.601C192.133 130.073 191.048 130.272 190.036 129.88" stroke="#683F1D" stroke-linecap="round" stroke-linejoin="round"/>
<path d="M191.216 126.686C190.721 126.527 190.193 127.328 190.193 127.328L191.216 126.686Z" fill="#F9F9F9"/>
<path d="M191.216 126.686C190.721 126.527 190.193 127.328 190.193 127.328" stroke="#683F1D" stroke-linecap="round" stroke-linejoin="round"/>
<path d="M193.463 135.081C193.196 134.331 192.4 134.104 192.014 135.235C191.789 136.007 191.789 136.827 192.014 137.6" stroke="#683F1D" stroke-linecap="round" stroke-linejoin="round"/>
<path d="M201.479 126.072C200.677 125.776 200.211 127.777 200.529 128.652" stroke="#683F1D" stroke-linecap="round" stroke-linejoin="round"/>
<path d="M203.052 134.223C202.484 133.717 201.915 134.053 201.83 134.854C201.637 136.275 201.398 137.304 202.063 137.6" stroke="#683F1D" stroke-linecap="round" stroke-linejoin="round"/>
<path d="M216.706 134.004C214.214 140.446 216.301 144.131 220.145 142.684C223.277 141.523 224.001 137.389 224.457 134.782L216.706 134.004Z" fill="#E19080"/>
<path d="M215.684 128.727C215.675 130.627 215.773 132.527 215.977 134.416C217.055 134.793 218.156 135.104 219.272 135.346C220.299 135.595 221.402 135.849 222.361 136.069C223.826 136.395 224.95 136.63 224.95 136.63C225.457 133.539 225.754 130.418 225.84 127.288C225.864 126.512 225.847 125.736 225.79 124.962C225.489 121.096 224.003 118.423 220.411 118.177C220.215 118.159 220.018 118.159 219.822 118.177C217.427 118.434 216.368 121.32 215.941 124.593C215.771 125.965 215.686 127.345 215.684 128.727Z" fill="#FED81D"/>
<path d="M215.683 128.727C215.674 130.627 215.772 132.527 215.976 134.416C215.976 134.416 217.879 127.906 218.038 127.392C218.038 127.335 218.07 127.277 218.088 127.226C217.128 127.41 216.271 127.945 215.683 128.727Z" fill="#FCC71F"/>
<path d="M215.993 134.416C215.993 134.416 217.895 127.906 218.054 127.392C218.054 127.335 218.087 127.277 218.105 127.226C218.248 126.777 218.52 126.38 218.886 126.083" stroke="#D6A91C" stroke-width="0.75" stroke-linecap="round" stroke-linejoin="round"/>
<path d="M215.949 124.597C218.184 122.908 220.445 122.293 223.331 123.533C224.202 123.921 225.031 124.397 225.805 124.955C225.504 121.088 224.018 118.415 220.426 118.169C220.23 118.151 220.033 118.151 219.837 118.169C217.435 118.437 216.376 121.323 215.949 124.597Z" fill="#FFE05C"/>
<path d="M215.159 111.236C216.143 108.704 217.116 104.726 214.541 102.78C211.286 100.331 208.754 103.091 208.754 103.091C208.754 103.091 206.28 108.006 210.161 110.553C214.042 113.099 215.159 111.236 215.159 111.236Z" fill="#DD6819"/>
<path d="M207.863 116.929C211.599 117.428 214.294 113.978 214.294 113.978C217.683 113.638 216.663 109.482 213.965 110.849C213.679 110.99 213.162 109.703 213.126 108.737C213.089 107.771 213.017 107.59 213.447 107.268C213.878 106.946 214.431 106.607 214.019 105.767C213.607 104.928 212.641 104.476 212.106 104.639C211.57 104.802 209.957 104.852 209.44 104.227C209.285 104.023 209.177 103.788 209.124 103.538C209.072 103.287 209.076 103.028 209.136 102.78C209.136 102.78 207.078 104.14 205.555 108.205C205.49 108.382 205.425 108.567 205.367 108.733C205.074 109.557 204.848 110.404 204.691 111.265C204.181 114.126 204.807 116.509 207.863 116.929Z" fill="#FFB3A4"/>
<path d="M210.122 109.055C210.122 109.142 210.096 109.227 210.048 109.299C210 109.371 209.931 109.427 209.851 109.46C209.771 109.493 209.683 109.501 209.598 109.484C209.513 109.467 209.435 109.425 209.374 109.363C209.313 109.302 209.271 109.223 209.255 109.138C209.238 109.053 209.247 108.965 209.281 108.885C209.315 108.805 209.371 108.737 209.444 108.69C209.516 108.642 209.601 108.617 209.688 108.618C209.745 108.618 209.802 108.629 209.855 108.651C209.908 108.673 209.956 108.705 209.996 108.746C210.037 108.787 210.068 108.835 210.09 108.888C210.112 108.941 210.123 108.998 210.122 109.055Z" fill="#4A3320"/>
<path d="M207.624 108.183C207.625 108.27 207.6 108.355 207.552 108.428C207.504 108.5 207.436 108.557 207.356 108.59C207.276 108.624 207.188 108.633 207.103 108.617C207.018 108.6 206.94 108.559 206.878 108.498C206.817 108.437 206.775 108.359 206.757 108.274C206.74 108.189 206.749 108.101 206.782 108.02C206.815 107.94 206.871 107.872 206.943 107.823C207.015 107.775 207.1 107.749 207.186 107.749C207.244 107.749 207.3 107.76 207.354 107.781C207.407 107.803 207.455 107.835 207.496 107.875C207.536 107.916 207.569 107.964 207.591 108.016C207.613 108.069 207.624 108.126 207.624 108.183Z" fill="#4A3320"/>
<path d="M212.073 107.887C211.838 108.527 209.971 106.986 210.474 106.314C210.977 105.641 212.355 107.127 212.073 107.887Z" fill="#DD6819"/>
<path d="M208.946 105.641C209.141 106.4 207.213 106.324 207.188 106.002C207.162 105.681 208.736 104.816 208.946 105.641Z" fill="#DD6819"/>
<path d="M214.673 113.905C214.219 113.936 213.764 113.881 213.331 113.743" stroke="#934735" stroke-width="0.75" stroke-linecap="round" stroke-linejoin="round"/>
<path d="M215.646 112.122C215.556 111.565 214.142 111.265 213.675 112.357" stroke="#934735" stroke-width="0.75" stroke-linecap="round" stroke-linejoin="round"/>
<path d="M213.859 112.05C215.024 111.623 215.306 113.236 213.765 112.965" stroke="#934735" stroke-width="0.75" stroke-linecap="round" stroke-linejoin="round"/>
<path d="M208.801 107.749C208.96 108.473 208.609 108.972 208.131 109.055C207.506 109.164 206.768 109.467 207.253 110.531" stroke="#934735" stroke-width="0.75" stroke-linecap="round" stroke-linejoin="round"/>
<path d="M209.787 111.623C208.803 111.956 207.187 111.757 207.187 111.757C207.187 111.757 207.418 113.265 208.489 113.171C209.559 113.077 209.787 111.623 209.787 111.623Z" fill="white" stroke="#934735" stroke-width="0.75" stroke-linecap="round" stroke-linejoin="round"/>
<path d="M209.949 111.236C210.246 111.855 211.143 112.035 211.953 111.645C212.763 111.254 213.176 110.44 212.879 109.836C212.582 109.232 211.685 109.041 210.875 109.431C210.065 109.822 209.653 110.621 209.949 111.236Z" fill="#E39886"/>
<path d="M204.692 111.258C205.231 111.663 205.897 111.732 206.32 111.377C206.844 110.943 206.808 110.028 206.233 109.337C206.007 109.058 205.708 108.847 205.369 108.73C205.075 109.553 204.849 110.398 204.692 111.258Z" fill="#E39886"/>
<path d="M220.365 142.609C216.994 144.088 214.188 142.703 210.112 141.093C206.035 139.484 201.37 137.154 201.37 137.154C201.37 137.154 197.576 135.241 196.27 134.424C194.964 133.606 194.914 133.136 195.08 132.941C195.246 132.745 197.019 133.44 197.351 133.577C196.633 132.877 195.966 132.127 195.355 131.331C194.809 130.51 195.022 129.946 195.912 130.387C195.912 130.387 195.134 129.418 195.662 129.056C196.19 128.695 199.681 131.722 199.681 131.722C199.681 131.722 196.881 129.168 197.38 128.365C197.879 127.563 201.927 131.259 201.927 131.259C201.927 131.259 201.344 128.705 201.97 128.514C202.596 128.322 203.055 129.385 203.565 130.239C204.075 131.093 204.925 133.201 205.45 133.422C205.974 133.642 216.213 134.605 219.291 136.959C222.148 139.162 222.409 141.701 220.365 142.609Z" fill="#FFB3A4"/>
<path d="M204.94 138.854C202.886 137.907 201.371 137.147 201.371 137.147C201.371 137.147 197.577 135.234 196.271 134.416C194.965 133.599 194.915 133.129 195.081 132.933C195.247 132.738 197.02 133.433 197.352 133.57C196.634 132.87 195.967 132.119 195.356 131.324C194.81 130.503 195.023 129.939 195.913 130.38C195.913 130.38 195.135 129.411 195.663 129.049C196.191 128.687 199.682 131.715 199.682 131.715C199.682 131.715 196.882 129.161 197.381 128.358C197.88 127.555 201.928 131.252 201.928 131.252C201.928 131.252 201.345 128.698 201.971 128.506C202.597 128.315 203.056 129.378 203.566 130.232" stroke="#934735" stroke-width="0.75" stroke-linecap="round" stroke-linejoin="round"/>
<path d="M217.661 136.97C217.032 135.831 215.621 135.36 215.108 135.227" stroke="#934735" stroke-width="0.75" stroke-linecap="round" stroke-linejoin="round"/>
<path d="M198.486 132.843C197.937 132.362 195.911 130.384 195.911 130.384" stroke="#934735" stroke-width="0.75" stroke-linecap="round" stroke-linejoin="round"/>
<path d="M198.007 134.102L197.352 133.57" stroke="#934735" stroke-width="0.75" stroke-linecap="round" stroke-linejoin="round"/>
<defs>
<linearGradient id="paint0_linear_12_1389" x1="114.992" y1="41.1157" x2="126.702" y2="44.6755" gradientUnits="userSpaceOnUse">
<stop stop-color="#F3F7FF"/>
<stop offset="1" stop-color="#BCCBF9"/>
</linearGradient>
<linearGradient id="paint1_linear_12_1389" x1="120.216" y1="29.0564" x2="133.133" y2="32.5161" gradientUnits="userSpaceOnUse">
<stop stop-color="#91A1D2"/>
<stop offset="0.666667" stop-color="#DEE6FF"/>
</linearGradient>
<linearGradient id="paint2_linear_12_1389" x1="124.817" y1="44.0374" x2="130.737" y2="45.6239" gradientUnits="userSpaceOnUse">
<stop stop-color="#B0BFE9"/>
<stop offset="1" stop-color="#EEF2FF"/>
</linearGradient>
<linearGradient id="paint3_linear_12_1389" x1="121.808" y1="26.2166" x2="131.772" y2="28.9147" gradientUnits="userSpaceOnUse">
<stop stop-color="#B8CAFF"/>
<stop offset="1" stop-color="#9BB1F4"/>
</linearGradient>
<linearGradient id="paint4_linear_12_1389" x1="115.2" y1="38.9776" x2="125.476" y2="41.7298" gradientUnits="userSpaceOnUse">
<stop stop-color="#90A5E2"/>
<stop offset="1" stop-color="#C2CBE4"/>
<stop offset="1" stop-color="#C6D1F2"/>
<stop offset="1" stop-color="#F5F8FF"/>
</linearGradient>
<linearGradient id="paint5_linear_12_1389" x1="125.459" y1="41.7492" x2="131.334" y2="43.3229" gradientUnits="userSpaceOnUse">
<stop stop-color="#8AA5F6"/>
<stop offset="1" stop-color="#DADBDE"/>
</linearGradient>
<linearGradient id="paint6_linear_12_1389" x1="111.864" y1="33.7443" x2="106.5" y2="32.3072" gradientUnits="userSpaceOnUse">
<stop stop-color="#C48F40"/>
<stop offset="1" stop-color="#DADBDE"/>
</linearGradient>
<linearGradient id="paint7_linear_12_1389" x1="114.124" y1="51.022" x2="109.215" y2="25.604" gradientUnits="userSpaceOnUse">
<stop stop-color="#F7CF95"/>
<stop offset="1" stop-color="#D3A35B"/>
</linearGradient>
<linearGradient id="paint8_linear_12_1389" x1="82.3126" y1="54.8834" x2="126.047" y2="66.6018" gradientUnits="userSpaceOnUse">
<stop stop-color="#D08E3E"/>
<stop offset="1" stop-color="#FFEBD3"/>
</linearGradient>
<linearGradient id="paint9_linear_12_1389" x1="87.8545" y1="73.4055" x2="99.0653" y2="30.0553" gradientUnits="userSpaceOnUse">
<stop stop-color="#D5A161"/>
</linearGradient>
<linearGradient id="paint10_linear_12_1389" x1="253.584" y1="58.7741" x2="265.083" y2="59.1574" gradientUnits="userSpaceOnUse">
<stop stop-color="#F3F7FF"/>
<stop offset="1" stop-color="#BCCBF9"/>
</linearGradient>
<linearGradient id="paint11_linear_12_1389" x1="255.393" y1="46.5532" x2="267.964" y2="46.552" gradientUnits="userSpaceOnUse">
<stop stop-color="#91A1D2"/>
<stop offset="0.666667" stop-color="#DEE6FF"/>
</linearGradient>
<linearGradient id="paint12_linear_12_1389" x1="263.215" y1="59.0372" x2="268.977" y2="59.0372" gradientUnits="userSpaceOnUse">
<stop stop-color="#B0BFE9"/>
<stop offset="1" stop-color="#EEF2FF"/>
</linearGradient>
<linearGradient id="paint13_linear_12_1389" x1="256.145" y1="43.5874" x2="265.85" y2="43.613" gradientUnits="userSpaceOnUse">
<stop stop-color="#B8CAFF"/>
<stop offset="1" stop-color="#9BB1F4"/>
</linearGradient>
<linearGradient id="paint14_linear_12_1389" x1="253.249" y1="56.7824" x2="263.249" y2="56.7814" gradientUnits="userSpaceOnUse">
<stop stop-color="#90A5E2"/>
<stop offset="1" stop-color="#C2CBE4"/>
<stop offset="1" stop-color="#C6D1F2"/>
<stop offset="1" stop-color="#F5F8FF"/>
</linearGradient>
<linearGradient id="paint15_linear_12_1389" x1="263.24" y1="56.8029" x2="268.958" y2="56.8024" gradientUnits="userSpaceOnUse">
<stop stop-color="#8AA5F6"/>
<stop offset="1" stop-color="#DADBDE"/>
</linearGradient>
<linearGradient id="paint16_linear_12_1389" x1="248.945" y1="52.8426" x2="243.726" y2="52.8426" gradientUnits="userSpaceOnUse">
<stop stop-color="#C48F40"/>
<stop offset="1" stop-color="#DADBDE"/>
</linearGradient>
<linearGradient id="paint17_linear_12_1389" x1="255.203" y1="67.9813" x2="244.561" y2="46.0951" gradientUnits="userSpaceOnUse">
<stop stop-color="#F7CF95"/>
<stop offset="1" stop-color="#D3A35B"/>
</linearGradient>
<linearGradient id="paint18_linear_12_1389" x1="229.157" y1="51.8694" x2="247.918" y2="60.3181" gradientUnits="userSpaceOnUse">
<stop stop-color="#FF7A00"/>
<stop offset="1" stop-color="#FFC28A"/>
</linearGradient>
<linearGradient id="paint19_linear_12_1389" x1="227.462" y1="57.7428" x2="240.947" y2="63.8156" gradientUnits="userSpaceOnUse">
<stop stop-color="#FF6B00"/>
<stop offset="1" stop-color="#FF9F47"/>
</linearGradient>
<linearGradient id="paint20_linear_12_1389" x1="227.256" y1="79.2273" x2="269.82" y2="79.2273" gradientUnits="userSpaceOnUse">
<stop stop-color="#D08E3E"/>
<stop offset="1" stop-color="#FFEBD3"/>
</linearGradient>
<linearGradient id="paint21_linear_12_1389" x1="236.798" y1="94.6979" x2="236.43" y2="52.6065" gradientUnits="userSpaceOnUse">
<stop stop-color="#D5A161"/>
</linearGradient>
<linearGradient id="paint22_linear_12_1389" x1="258.146" y1="92.796" x2="265.04" y2="92.796" gradientUnits="userSpaceOnUse">
<stop stop-color="#EEC38B"/>
<stop offset="1" stop-color="#FFE9CE"/>
</linearGradient>
<linearGradient id="paint23_linear_12_1389" x1="265.074" y1="92.8294" x2="271.967" y2="92.8294" gradientUnits="userSpaceOnUse">
<stop stop-color="#E7B473"/>
<stop offset="1" stop-color="#FFE5C2"/>
</linearGradient>
<linearGradient id="paint24_linear_12_1389" x1="250.851" y1="92.796" x2="257.744" y2="92.796" gradientUnits="userSpaceOnUse">
<stop stop-color="#EEC38B"/>
<stop offset="1" stop-color="#FFE9CE"/>
</linearGradient>
<linearGradient id="paint25_linear_12_1389" x1="245.834" y1="92.796" x2="252.728" y2="92.796" gradientUnits="userSpaceOnUse">
<stop stop-color="white"/>
<stop offset="1" stop-color="#DADBDE"/>
</linearGradient>
<linearGradient id="paint26_linear_12_1389" x1="260.555" y1="92.796" x2="267.448" y2="92.796" gradientUnits="userSpaceOnUse">
<stop stop-color="white"/>
<stop offset="1" stop-color="#DADBDE"/>
</linearGradient>
<linearGradient id="paint27_linear_12_1389" x1="253.193" y1="92.796" x2="260.086" y2="92.796" gradientUnits="userSpaceOnUse">
<stop stop-color="white"/>
<stop offset="1" stop-color="#DADBDE"/>
</linearGradient>
<linearGradient id="paint28_linear_12_1389" x1="263.915" y1="97.6815" x2="273.707" y2="97.6815" gradientUnits="userSpaceOnUse">
<stop stop-color="#B68649"/>
<stop offset="1" stop-color="#E9B879"/>
</linearGradient>
<linearGradient id="paint29_linear_12_1389" x1="244.123" y1="94.6845" x2="265.606" y2="94.6176" gradientUnits="userSpaceOnUse">
<stop stop-color="#B68649"/>
<stop offset="1" stop-color="#E9B777"/>
</linearGradient>
</defs>
</svg>
