<svg width="244" height="179" viewBox="0 0 244 179" fill="none" xmlns="http://www.w3.org/2000/svg">
<g clip-path="url(#clip0_12_2)">
<rect width="375" height="11368" transform="translate(-62 -3443)" fill="white"/>
<path d="M109.526 157.899H166.28C166.28 157.899 164.301 150.008 156.255 150.856C156.255 150.856 145.048 134.945 129.909 148.62C129.934 148.62 113.613 143.813 109.526 157.899Z" fill="#2BDA88"/>
<path d="M4.16602 0H139.266V144.43H4.16602V0Z" fill="url(#paint0_linear_12_2)"/>
<path d="M17.5294 53.5928H80.8638V112.326H17.5294V53.5928Z" fill="white"/>
<path d="M30.8718 56.3687C30.8718 63.6686 36.7837 69.5805 44.0836 69.5805C51.3835 69.5805 57.2954 63.6686 57.2954 56.3687H30.8718Z" fill="#28C079"/>
<path d="M77.1367 53.5928H80.8638V112.326H77.1367V53.5928Z" fill="#A0A9AE"/>
<path d="M57.3222 56.3687C57.3222 63.6686 63.2341 69.5805 70.534 69.5805C77.8339 69.5805 83.7715 63.6686 83.7715 56.3687H57.3222Z" fill="#E6EAEC"/>
<path d="M6.58125 19.4065H31.5654V56.5743H6.58125V19.4065Z" fill="#505767"/>
<path d="M33.3687 19.4065H6.91936L30.7983 56.5743H57.2476L33.3687 19.4065Z" fill="#2BDA88"/>
<path d="M59.8135 19.4065H33.3642L57.2431 56.5743H83.6924L59.8135 19.4065Z" fill="white"/>
<path d="M85.4677 53.5928H127.545V146.512H85.4677V53.5928Z" fill="white"/>
<path d="M83.7703 56.3687C83.7703 63.6686 89.6822 69.5805 96.9821 69.5805C104.282 69.5805 110.194 63.6686 110.194 56.3687H83.7703Z" fill="#28C079"/>
<path d="M86.2651 19.4065H59.8158L83.6947 56.5743H110.144L86.2651 19.4065Z" fill="#2BDA88"/>
<path d="M124.126 53.5928H127.545V146.512H124.126V53.5928Z" fill="#A0A9AE"/>
<path d="M110.222 56.3687C110.222 63.6686 116.134 69.5805 123.434 69.5805C130.734 69.5805 136.646 63.6686 136.646 56.3687H110.222Z" fill="#E6EAEC"/>
<path d="M112.711 19.4065H86.2621L110.141 56.5743H136.59L112.711 19.4065Z" fill="white"/>
<path d="M139.083 19.4065H112.633L136.512 56.5743H162.807C162.884 56.5743 162.91 56.4972 162.884 56.4458L139.083 19.4065Z" fill="#2BDA88"/>
<path d="M136.387 56.3687C136.387 63.6686 142.299 69.5805 149.599 69.5805C156.899 69.5805 162.811 63.6686 162.811 56.3687H136.387Z" fill="#28C079"/>
<path d="M91.0707 104.872H95.1319C97.4195 104.872 99.2959 102.995 99.2959 100.708V83.6147C99.2959 81.3271 97.4195 79.4507 95.1319 79.4507H91.0707V81.4299H95.1319C96.34 81.4299 97.3167 82.4066 97.3167 83.6147V100.708C97.3167 101.916 96.34 102.893 95.1319 102.893H91.0707V104.872Z" fill="#5C6374"/>
<path d="M4.16469 140.806H142.22V152.193H4.16469V140.806Z" fill="url(#paint1_linear_12_2)"/>
<path d="M3.96124 150.676H84.3887V157.899H3.96124V150.676Z" fill="#5C6374"/>
<path d="M81.9709 150.676H227.712V157.899H81.9709V150.676Z" fill="#5C6374"/>
<path d="M191.696 52.3071C191.696 52.3071 188.584 51.5644 186.948 52.0399C185.313 52.5154 185.48 53.5232 186.83 54.0615C188.18 54.5999 191.485 55.2406 191.485 55.2406L191.696 52.3071Z" fill="#28C079"/>
<path d="M191.022 56.0589C191.022 56.0589 191.106 56.2523 191.258 56.5803C191.409 56.9083 191.556 57.1985 191.775 57.6106C191.922 57.8966 192.086 58.2036 192.271 58.5274C192.381 58.725 192.498 58.9479 192.625 59.1371L192.746 59.3348C193.024 59.7931 193.331 60.2683 193.667 60.7351C193.903 61.0631 194.151 61.3911 194.412 61.7065C196.456 64.1834 198.171 63.1447 198.171 63.1447C198.65 63.5615 199.048 64.0634 199.345 64.625C199.76 65.3943 200.06 66.2203 200.236 67.0767C205.06 70.5923 208.121 65.9581 206.687 61.8369C204.736 59.9991 202.995 57.9497 201.498 55.7266C203.054 53.6576 200.463 51.8536 199.273 53.0395L196.695 51.8452C191.262 50.407 191.022 56.0589 191.022 56.0589Z" fill="#FEBD9D"/>
<path d="M200.802 53.561C200.121 53.561 199.541 53.8386 199.671 54.8857" stroke="#EF8A66" stroke-width="0.75" stroke-linecap="round" stroke-linejoin="round"/>
<path d="M200.121 55.3819C201.109 54.768 200.242 53.9606 199.7 54.4694" stroke="#EF8A66" stroke-width="0.75" stroke-linecap="round" stroke-linejoin="round"/>
<path d="M195.282 60.6132C195.993 60.3903 196.3 59.4904 196.123 58.7124C198.015 60.0329 196.602 61.5972 195.282 60.6132Z" fill="white" stroke="#EF8A66" stroke-width="0.75" stroke-linecap="round" stroke-linejoin="round"/>
<path d="M194.794 59.5156C194.155 59.5156 193.595 59.6249 193.444 58.418C193.407 58.0743 193.286 57.7449 193.094 57.4578C192.901 57.1707 192.642 56.9346 192.338 56.7695" stroke="#EF8A66" stroke-width="0.75" stroke-linecap="round" stroke-linejoin="round"/>
<path d="M201.498 55.7268C201.266 56.0517 200.94 56.2982 200.564 56.4333" stroke="#EF8A66" stroke-width="0.75" stroke-linecap="round" stroke-linejoin="round"/>
<path d="M194.844 57.274C194.844 57.3572 194.82 57.4385 194.773 57.5077C194.727 57.5768 194.661 57.6307 194.585 57.6626C194.508 57.6944 194.423 57.7027 194.342 57.6865C194.26 57.6703 194.185 57.6302 194.126 57.5714C194.068 57.5126 194.027 57.4377 194.011 57.3561C193.995 57.2745 194.003 57.19 194.035 57.1131C194.067 57.0363 194.121 56.9706 194.19 56.9244C194.259 56.8782 194.341 56.8535 194.424 56.8535C194.535 56.8535 194.642 56.8978 194.721 56.9767C194.8 57.0555 194.844 57.1625 194.844 57.274Z" fill="#683F1D"/>
<path d="M192.272 58.5358C192.381 58.7334 192.499 58.9563 192.625 59.1456H192.655C192.766 59.1456 192.873 59.1013 192.952 59.0224C193.031 58.9435 193.075 58.8366 193.075 58.725C193.075 58.6135 193.031 58.5065 192.952 58.4277C192.873 58.3488 192.766 58.3045 192.655 58.3045C192.576 58.3032 192.498 58.3242 192.43 58.3651C192.362 58.406 192.308 58.4652 192.272 58.5358Z" fill="#683F1D"/>
<path d="M195.005 55.1716C195.207 55.7814 193.323 56.4332 193.041 55.8024C192.759 55.1716 194.748 54.3768 195.005 55.1716Z" fill="#604730"/>
<path d="M191.257 56.5804C191.383 56.8453 191.556 57.1986 191.774 57.6107C192.149 57.1901 192.493 56.6351 192.372 56.4206C192.178 56.08 191.652 56.3197 191.257 56.5804Z" fill="#604730"/>
<path d="M198.171 63.1616C198.65 63.5784 199.048 64.0803 199.344 64.6419C201.783 62.8042 200.232 60.71 200.232 60.71C199.806 61.7154 199.088 62.5696 198.171 63.1616V63.1616Z" fill="#F4A789"/>
<path d="M188.527 55.6594C188.56 56.3449 189.191 57.0303 190.255 57.0471C191.243 57.0471 191.971 55.9327 191.807 54.8352C191.807 54.8352 193.489 55.2263 193.771 53.0353C193.771 53.0353 195.141 54.1539 195.873 52.3372C196.701 53.069 197.459 53.8772 198.136 54.7511C198.977 55.9285 199.397 55.7645 199.422 55.2641C199.448 54.7637 198.922 53.9352 198.859 53.8343C198.313 53.5004 197.857 53.0385 197.53 52.4886C196.462 50.8948 195.364 49.9108 194.418 51.0883C193.472 52.2657 191.989 51.6056 191.49 52.6031C191.095 53.9698 190.676 55.9874 188.527 55.6594Z" fill="#473526"/>
<path d="M196.458 57.9345C197.017 58.0901 197.627 57.6275 197.825 56.9084C198.022 56.1893 197.728 55.4786 197.169 55.3272C196.609 55.1758 195.995 55.6342 195.802 56.3533C195.609 57.0724 195.911 57.7831 196.458 57.9345Z" fill="#F4AF90"/>
<path d="M192.747 59.3347C193.024 59.7931 193.331 60.2683 193.668 60.7351C193.705 60.6597 193.729 60.5787 193.739 60.4954C193.739 60.2155 193.639 59.945 193.457 59.7323C193.275 59.5197 193.023 59.3787 192.747 59.3347V59.3347Z" fill="#F4AF90"/>
<path d="M184.732 113.015C185.351 118.688 189.564 115.959 195.447 115.177L198.711 115.046L220.414 114.205L222.227 114.134L215.919 96.3455C201.97 100.483 183.95 105.791 184.732 113.015Z" fill="#4A3320"/>
<path d="M198.712 115.046L220.416 114.205L219.768 109.462L216.803 101.85C216.803 101.85 211.799 101.547 213.321 105.925C214.844 110.303 214.234 113.406 206.328 111.341C201.551 110.084 199.549 112.746 198.712 115.046Z" fill="#3A2819"/>
<path d="M210.42 89.6548C214.117 94.4698 216.119 104.903 216.581 111.165C216.913 115.673 217.59 127.284 219.285 136.994C225.135 149.538 233.196 143.613 232.742 134.773V134.727C231.956 128.251 232.321 122.708 233.041 120.391C234.016 117.313 236.426 107.052 236.825 102.843C237.725 93.5909 235.644 85.7018 232.62 81.198L210.42 89.6548Z" fill="#4A3320"/>
<path d="M216.804 114.336C216.715 113.074 216.64 112.01 216.581 111.182C216.285 107.56 215.703 103.967 214.84 100.437" stroke="white" stroke-width="0.75" stroke-linecap="round" stroke-linejoin="round"/>
<path d="M230.4 87.8928C233.807 110.803 227.255 119.432 228.252 132.267C228.611 135.804 229.259 139.306 230.19 142.738" stroke="white" stroke-width="0.75" stroke-linecap="round" stroke-linejoin="round"/>
<path d="M231.362 98.7255C228.868 96.0801 227.42 92.6191 227.287 88.9861" stroke="white" stroke-width="0.75" stroke-linecap="round" stroke-linejoin="round"/>
<path d="M216.476 93.1157C216.476 93.1157 217.544 98.0359 217.973 99.4236C217.973 99.4236 216.476 99.6633 215.942 98.7214C215.408 97.7794 214.407 93.675 214.407 93.675" stroke="white" stroke-width="0.75" stroke-linecap="round" stroke-linejoin="round"/>
<path d="M191.596 71.7025L193.74 80.8279C194.329 83.8431 194.489 86.2948 194.821 88.0778C195.279 90.5674 196.083 91.8289 198.778 91.686L198.888 91.6565L199.274 91.5514L199.531 91.4757L199.867 91.3622C200.015 91.3075 200.158 91.2528 200.288 91.1939C200.532 91.0958 200.77 90.9849 201.003 90.8617L201.255 90.7229C201.629 90.5135 201.982 90.2699 202.311 89.9954C202.375 89.9457 202.437 89.8923 202.496 89.8356C202.982 89.4101 203.401 88.9123 203.736 88.3596C203.83 88.21 203.915 88.0555 203.993 87.897C204.197 87.4948 204.358 87.0719 204.472 86.6354C204.493 86.5597 204.51 86.4882 204.527 86.4167C204.544 86.3453 204.565 86.2485 204.577 86.1686C204.59 86.0887 204.603 86.0257 204.615 85.9542C204.674 85.5858 204.689 85.2118 204.661 84.8398C204.518 83.3006 202.613 67.4215 202.613 67.4215L201.915 65.6974L200.982 63.3887L191.596 71.7025Z" fill="#C3DCF8"/>
<path d="M194.821 88.0777C195.279 90.5672 196.083 91.8288 198.778 91.6858L198.896 91.6564L199.283 91.5513L199.539 91.4756L199.876 91.362C200.023 91.3074 200.166 91.2527 200.296 91.1938C200.54 91.0957 200.779 90.9848 201.011 90.8616L201.263 90.7228C201.637 90.5134 201.99 90.2698 202.319 89.9953C202.384 89.9456 202.445 89.8922 202.504 89.8355C202.991 89.41 203.409 88.9122 203.745 88.3595C203.838 88.2098 203.924 88.0554 204.001 87.8969C204.205 87.4947 204.366 87.0718 204.48 86.6353C204.501 86.5596 204.518 86.4881 204.535 86.4166C204.552 86.3451 204.573 86.2484 204.586 86.1685C204.598 86.0886 204.611 86.0256 204.623 85.9541C204.682 85.5856 204.698 85.2117 204.67 84.8397C204.527 83.3005 202.622 67.4214 202.622 67.4214L201.924 65.6973C200.414 68.5863 198.627 73.2668 200.708 76.4501C203.913 81.3535 203.442 89.3099 197.088 88.2754C196.338 88.1513 195.58 88.0852 194.821 88.0777Z" fill="#F0F0F0"/>
<path d="M197.823 64.4736C199.455 65.7715 200.971 67.208 202.356 68.7672" stroke="#83ADDF" stroke-width="0.75" stroke-linecap="round" stroke-linejoin="round"/>
<path d="M197.821 76.2316C198.382 76.669 198.943 77.14 199.504 77.6446C204.869 82.5185 209.743 90.2604 211.119 91.1015C213.099 92.2874 217.742 91.6061 222.195 90.4749C225.546 89.6418 228.83 88.558 232.019 87.2326C234.714 85.971 235.383 85.1931 234.933 84.1922C234.483 83.1913 231.804 76.9381 231.804 76.9381L232.464 76.2863L239.769 69.0869C235.442 65.8236 229.777 62.1776 224.575 60.1507C221.047 58.7797 217.738 58.1574 215.202 58.8891L197.821 76.2316Z" fill="#D0D0D0"/>
<path d="M197.824 76.2316C198.385 76.6689 198.945 77.1399 199.506 77.6446C205.15 77.7371 210.532 81.5807 215.289 77.4511C221.176 72.3417 215.848 68.557 219.494 63.5737C220.779 61.9208 222.554 60.7167 224.565 60.1338C221.037 58.7629 217.728 58.1405 215.192 58.8722L197.824 76.2316Z" fill="#E7E7E7"/>
<path d="M222.192 90.4664C225.543 89.6334 228.827 88.5496 232.015 87.2242C234.711 85.9626 235.379 85.1846 234.929 84.1838C234.479 83.1829 231.801 76.9297 231.801 76.9297L232.461 76.2779C230.358 74.0659 227.444 70.996 227.284 70.811C227.028 70.5082 220.875 72.5604 220.875 72.5604C220.875 72.5604 221.081 79.4444 226.712 80.1005C232.343 80.7565 231.338 85.2393 226.346 85.8491C223.138 86.2317 222.347 88.7213 222.192 90.4664Z" fill="#F0F0F0"/>
<path d="M239.367 68.7799C248.286 73.9566 240.721 91.6397 221.061 73.9818C218.988 64.0447 230.157 62.7958 239.367 68.7799Z" fill="#F0F0F0"/>
<path d="M240.909 170.051C240.909 170.051 244.694 174.992 244.156 179H226.132C226.132 179 234.147 174.315 234.563 170.884L240.909 170.051Z" fill="#683F1D"/>
<path d="M219.1 135.934C219.159 136.296 219.218 136.653 219.281 137.006C219.937 140.791 220.749 144.265 221.754 146.935C225.349 156.481 231.426 171.414 231.426 171.414L243.011 170.451C242.17 168.193 237.965 158.6 233.932 141.405C233.417 139.211 233.025 136.99 232.759 134.752C232.738 134.592 232.721 134.428 232.704 134.269C231.834 129.058 220.803 124.041 219.1 135.934Z" fill="#3A2819"/>
<path d="M228.139 129.226C228.139 130.219 228.16 131.228 228.24 132.267C229.241 145.11 239.384 170.253 239.464 170.749" stroke="white" stroke-width="0.75" stroke-linecap="round" stroke-linejoin="round"/>
<path d="M196.839 143.032C196.839 143.032 198.554 147.978 198.037 151.985H182.057C182.057 151.985 190.068 147.301 190.468 143.865L196.839 143.032Z" fill="#683F1D"/>
<path d="M184.595 116.388C185.912 126.236 188.431 144.428 188.431 144.428H198.897L195.445 115.176C195.399 110.084 191.942 104.663 188.41 107.035C183.544 110.324 184.339 114.466 184.595 116.388Z" fill="#4A3320"/>
<path d="M174.351 57.7449C174.351 57.7449 168.908 55.6247 170.096 54.0273C171.288 52.4265 174.572 57.2611 174.572 57.2611L174.351 57.7449Z" fill="#3BC49A"/>
<path d="M174.838 57.3822C174.838 57.3822 175.119 51.5443 173.176 51.9819C171.227 52.4195 174.308 57.3858 174.308 57.3858L174.838 57.3822Z" fill="#3BC49A"/>
<path d="M174.72 57.7948C174.72 57.7948 172.297 49.9433 170.045 51.3984C168.003 52.7218 174.197 57.9513 174.197 57.9513L174.72 57.7948Z" fill="#44D0A7"/>
<path d="M182.107 68.3357C181.975 68.3215 181.84 68.2646 181.715 68.1579L180.876 67.4428L180.872 67.4392L179.094 65.9202L178.766 65.6391L176.397 63.6185L175.938 63.2271L174.401 61.918C174.248 61.7863 174.106 61.6405 173.978 61.4875C173.871 61.3594 173.772 61.2243 173.686 61.082C173.245 60.374 173.071 59.5273 173.256 58.702C173.412 58.0083 173.775 57.4568 174.255 57.0797C174.305 57.0406 174.359 57.0015 174.412 56.9659C175.123 56.4856 176.052 56.354 176.948 56.6528C177.173 56.7276 177.382 56.8307 177.578 56.9552C178.126 57.3003 178.556 57.8197 178.82 58.4209L179.04 58.9083L179.271 59.4206L180.428 61.9678L180.638 62.4303L182 65.4292L182.125 65.7067L182.854 67.3147C183.117 67.8804 182.619 68.3998 182.107 68.3357Z" fill="url(#paint2_linear_12_2)"/>
<path opacity="0.1" d="M180.873 67.4394L174.398 61.9181C173.466 61.1212 172.982 59.8868 173.249 58.7021C173.406 58.0084 173.769 57.457 174.249 57.0799C174.299 57.0408 174.352 57.0016 174.405 56.9661C174.494 60.207 178.696 65.1128 180.873 67.4394Z" fill="black"/>
<path opacity="0.1" d="M177.576 56.9553L175.627 58.204L176.947 56.6565C177.171 56.7312 177.381 56.8308 177.576 56.9553Z" fill="black"/>
<path opacity="0.1" d="M175.808 59.741L173.976 61.4913C173.87 61.3632 173.77 61.228 173.685 61.0857L175.808 59.741Z" fill="black"/>
<path opacity="0.1" d="M179.273 59.4243L177.509 60.5129L179.039 58.9084L179.273 59.4243Z" fill="black"/>
<path opacity="0.1" d="M177.821 62.167L176.394 63.6185L175.936 63.2307L177.821 62.167Z" fill="black"/>
<path opacity="0.1" d="M180.64 62.4375L179.427 62.9996L180.43 61.9714L180.64 62.4375Z" fill="black"/>
<path opacity="0.1" d="M180.227 64.6965L179.092 65.9203L178.765 65.6428L180.227 64.6965Z" fill="black"/>
<path opacity="0.1" d="M182.131 65.7102L181.341 66.1442L182.006 65.4363L182.131 65.7102Z" fill="black"/>
<path d="M172.855 61.2849C172.855 61.2849 168.942 59.7587 169.796 58.6132C170.653 57.4606 173.012 60.9398 173.012 60.9398L172.855 61.2849Z" fill="#3BC49A"/>
<path d="M173.208 61.0217C173.208 61.0217 173.41 56.8274 172.016 57.1405C170.614 57.4535 172.831 61.0253 172.831 61.0253L173.208 61.0217Z" fill="#3BC49A"/>
<path d="M173.123 61.3204C173.123 61.3204 171.38 55.6746 169.765 56.7241C168.295 57.6739 172.749 61.4342 172.749 61.4342L173.123 61.3204Z" fill="#44D0A7"/>
<path d="M178.431 68.8943C178.335 68.8837 178.239 68.841 178.15 68.7663L177.545 68.2504C177.545 68.2504 177.545 68.2504 177.542 68.2504L176.261 67.1583L176.026 66.9555L174.322 65.504L173.995 65.223L172.892 64.2802C172.782 64.1842 172.678 64.081 172.586 63.9707C172.508 63.8782 172.437 63.7822 172.376 63.679C172.059 63.1703 171.931 62.562 172.067 61.9678C172.177 61.4698 172.44 61.0749 172.785 60.801C172.821 60.7725 172.86 60.7441 172.899 60.7192C173.411 60.3741 174.08 60.278 174.72 60.495C174.881 60.5484 175.034 60.6231 175.172 60.712C175.567 60.9611 175.873 61.3346 176.065 61.7651L176.225 62.1173L176.393 62.4872L177.225 64.3194L177.378 64.6538L178.356 66.8096L178.445 67.0089L178.968 68.165C179.157 68.567 178.801 68.9406 178.431 68.8943Z" fill="url(#paint3_linear_12_2)"/>
<path opacity="0.1" d="M177.545 68.2505L172.891 64.2803C172.219 63.7076 171.874 62.8182 172.066 61.9679C172.176 61.4699 172.44 61.075 172.785 60.8011C172.82 60.7726 172.859 60.7441 172.898 60.7192C172.962 63.053 175.983 66.5785 177.545 68.2505Z" fill="black"/>
<path opacity="0.1" d="M175.176 60.7155L173.774 61.612L174.72 60.4985C174.884 60.5519 175.033 60.6266 175.176 60.7155Z" fill="black"/>
<path opacity="0.1" d="M173.902 62.7185L172.586 63.9743C172.508 63.8818 172.436 63.7858 172.376 63.6826L173.902 62.7185Z" fill="black"/>
<path opacity="0.1" d="M176.391 62.4873L175.125 63.2735L176.224 62.1208L176.391 62.4873Z" fill="black"/>
<path opacity="0.1" d="M175.353 64.4617L174.325 65.504L173.998 65.2265L175.353 64.4617Z" fill="black"/>
<path opacity="0.1" d="M177.377 64.6538L176.505 65.0594L177.224 64.323L177.377 64.6538Z" fill="black"/>
<path opacity="0.1" d="M177.079 66.2795L176.264 67.1582L176.029 66.959L177.079 66.2795Z" fill="black"/>
<path opacity="0.1" d="M178.448 67.009L177.879 67.3185L178.356 66.8098L178.448 67.009Z" fill="black"/>
<path d="M180.879 57.7452C180.879 57.7452 175.436 55.6249 176.624 54.0276C177.816 52.4267 181.099 57.2614 181.099 57.2614L180.879 57.7452Z" fill="#3BC49A"/>
<path d="M181.366 57.3822C181.366 57.3822 181.647 51.5443 179.705 51.9819C177.755 52.4195 180.836 57.3858 180.836 57.3858L181.366 57.3822Z" fill="#3BC49A"/>
<path d="M181.248 57.795C181.248 57.795 178.826 49.9436 176.574 51.3986C174.532 52.722 180.725 57.9515 180.725 57.9515L181.248 57.795Z" fill="#44D0A7"/>
<path d="M188.634 68.336C188.503 68.3217 188.367 68.2648 188.243 68.1581L187.403 67.443L187.4 67.4395L185.621 65.9204L185.294 65.6394L182.924 63.6187L182.465 63.2274L180.929 61.9182C180.776 61.7866 180.633 61.6407 180.505 61.4878C180.399 61.3597 180.299 61.2245 180.214 61.0822C179.772 60.3743 179.598 59.5276 179.783 58.7022C179.94 58.0085 180.302 57.4571 180.783 57.08C180.833 57.0409 180.886 57.0017 180.939 56.9662C181.651 56.4859 182.579 56.3543 183.476 56.6531C183.7 56.7278 183.91 56.831 184.105 56.9555C184.653 57.3006 185.084 57.82 185.347 58.4212L185.568 58.9086L185.799 59.4208L186.955 61.968L187.165 62.4305L188.527 65.4295L188.652 65.707L189.381 67.315C189.644 67.8806 189.146 68.4 188.634 68.336Z" fill="url(#paint4_linear_12_2)"/>
<path opacity="0.1" d="M187.401 67.4396L180.927 61.9184C179.995 61.1215 179.511 59.887 179.778 58.7024C179.934 58.0087 180.297 57.4572 180.777 57.0801C180.827 57.041 180.88 57.0019 180.934 56.9663C181.023 60.2072 185.224 65.113 187.401 67.4396Z" fill="black"/>
<path opacity="0.1" d="M184.105 56.9556L182.155 58.2043L183.475 56.6567C183.699 56.7314 183.909 56.8311 184.105 56.9556Z" fill="black"/>
<path opacity="0.1" d="M182.337 59.741L180.505 61.4913C180.398 61.3632 180.298 61.228 180.213 61.0857L182.337 59.741Z" fill="black"/>
<path opacity="0.1" d="M185.802 59.4243L184.037 60.5129L185.567 58.9084L185.802 59.4243Z" fill="black"/>
<path opacity="0.1" d="M184.349 62.1672L182.923 63.6187L182.464 63.2309L184.349 62.1672Z" fill="black"/>
<path opacity="0.1" d="M187.167 62.4375L185.954 62.9996L186.957 61.9714L187.167 62.4375Z" fill="black"/>
<path opacity="0.1" d="M186.755 64.6965L185.62 65.9203L185.293 65.6428L186.755 64.6965Z" fill="black"/>
<path opacity="0.1" d="M188.659 65.7105L187.869 66.1445L188.534 65.4365L188.659 65.7105Z" fill="black"/>
<path d="M179.383 61.2849C179.383 61.2849 175.47 59.7587 176.324 58.6132C177.181 57.4606 179.54 60.9398 179.54 60.9398L179.383 61.2849Z" fill="#3BC49A"/>
<path d="M179.736 61.0217C179.736 61.0217 179.939 56.8274 178.544 57.1405C177.143 57.4535 179.359 61.0253 179.359 61.0253L179.736 61.0217Z" fill="#3BC49A"/>
<path d="M179.652 61.3204C179.652 61.3204 177.909 55.6746 176.294 56.7241C174.825 57.6739 179.279 61.4342 179.279 61.4342L179.652 61.3204Z" fill="#44D0A7"/>
<path d="M184.959 68.8943C184.863 68.8837 184.767 68.841 184.678 68.7663L184.073 68.2504C184.073 68.2504 184.073 68.2504 184.07 68.2504L182.789 67.1583L182.554 66.9555L180.85 65.504L180.523 65.223L179.42 64.2802C179.31 64.1842 179.207 64.081 179.114 63.9707C179.036 63.8782 178.965 63.7822 178.904 63.679C178.588 63.1703 178.46 62.562 178.595 61.9678C178.705 61.4698 178.968 61.0749 179.314 60.801C179.349 60.7725 179.388 60.7441 179.427 60.7192C179.94 60.3741 180.608 60.278 181.249 60.495C181.409 60.5484 181.562 60.6231 181.701 60.712C182.096 60.9611 182.401 61.3346 182.594 61.7651L182.754 62.1173L182.921 62.4872L183.753 64.3194L183.906 64.6538L184.885 66.8096L184.974 67.0089L185.496 68.165C185.685 68.567 185.329 68.9406 184.959 68.8943Z" fill="url(#paint5_linear_12_2)"/>
<path opacity="0.1" d="M184.074 68.2505L179.421 64.2803C178.748 63.7076 178.403 62.8182 178.595 61.9679C178.706 61.4699 178.969 61.075 179.314 60.8011C179.349 60.7726 179.389 60.7441 179.428 60.7192C179.492 63.053 182.512 66.5785 184.074 68.2505Z" fill="black"/>
<path opacity="0.1" d="M181.704 60.7155L180.302 61.612L181.249 60.4985C181.412 60.5519 181.562 60.6266 181.704 60.7155Z" fill="black"/>
<path opacity="0.1" d="M180.431 62.7185L179.115 63.9743C179.037 63.8818 178.966 63.7858 178.905 63.6826L180.431 62.7185Z" fill="black"/>
<path opacity="0.1" d="M182.921 62.4873L181.654 63.2735L182.754 62.1208L182.921 62.4873Z" fill="black"/>
<path opacity="0.1" d="M181.882 64.4617L180.854 65.504L180.527 65.2265L181.882 64.4617Z" fill="black"/>
<path opacity="0.1" d="M183.905 64.6538L183.034 65.0594L183.752 64.323L183.905 64.6538Z" fill="black"/>
<path opacity="0.1" d="M183.607 66.2795L182.792 67.1582L182.558 66.959L183.607 66.2795Z" fill="black"/>
<path opacity="0.1" d="M184.977 67.0088L184.408 67.3183L184.885 66.8096L184.977 67.0088Z" fill="black"/>
<path d="M176.463 92.2871C176.463 92.2871 180.668 92.4385 185.601 92.4385C189.667 92.4385 194.222 92.3376 197.279 91.9591C197.514 91.9297 197.742 91.8961 197.964 91.854C198.065 91.854 198.166 91.8204 198.263 91.7993C198.36 91.7783 198.431 91.7699 198.515 91.7489C198.662 91.7194 198.805 91.6816 198.936 91.6479L199.356 91.526L199.453 91.4966L199.811 91.3746L199.874 91.3536L200.294 91.1938C200.31 91.1902 200.324 91.183 200.336 91.1728C205.105 88.1365 205.248 84.8018 202.645 82.7622C200.816 81.3072 197.624 80.4914 193.725 80.8488L177.19 84.1584L176.463 92.2871Z" fill="#C3DCF8"/>
<path d="M185.601 92.4388C189.667 92.4388 194.222 92.3379 197.279 91.9594C197.514 91.9299 197.742 91.8963 197.964 91.8542C198.065 91.8542 198.166 91.8206 198.263 91.7996C198.36 91.7786 198.431 91.7701 198.515 91.7491C198.662 91.7197 198.805 91.6818 198.936 91.6482L199.356 91.5262L199.453 91.4968L199.811 91.3748L199.874 91.3538L200.294 91.194C200.31 91.1904 200.324 91.1832 200.336 91.173C205.105 88.1368 205.248 84.802 202.645 82.7625C202.687 86.1267 201.009 88.9316 197.086 88.2924C191.711 87.3925 187.064 89.5287 185.601 92.4388Z" fill="#A7CAF0"/>
<path d="M193.737 80.8406C194.851 80.6535 195.974 80.523 197.101 80.4495" stroke="#83ADDF" stroke-width="0.75" stroke-linecap="round" stroke-linejoin="round"/>
<path d="M211.014 63.3887H198.156V92.4617H211.014V63.3887Z" fill="#E1B074" stroke="#55442F" stroke-linecap="round" stroke-linejoin="round"/>
<path d="M198.157 63.3887H169.693V92.4617H198.157V63.3887Z" fill="#F3D3AB" stroke="#87663D" stroke-linecap="round" stroke-linejoin="round"/>
<path d="M194.022 72.1211H165.554L169.693 63.3887H198.156L194.022 72.1211Z" fill="#FFE9CE" stroke="#87663D" stroke-linecap="round" stroke-linejoin="round"/>
<path d="M215.161 72.1251H202.29L198.156 63.3887H211.026L215.161 72.1251Z" fill="#EECA9D" stroke="#55442F" stroke-linecap="round" stroke-linejoin="round"/>
<path d="M168.884 84.3504C167.996 83.9874 167.222 85.1369 168.117 85.9638C169.013 86.7906 170.489 87.0367 170.755 86.3671C171.022 85.6976 169.86 84.7497 168.884 84.3504Z" fill="#FEBD9D" stroke="#EF8A66" stroke-width="0.75" stroke-linecap="round" stroke-linejoin="round"/>
<path d="M168.745 82.3942C167.728 81.9909 166.837 83.2937 167.869 84.2294C168.902 85.1652 170.584 85.4395 170.89 84.7013C171.197 83.9632 169.862 82.85 168.745 82.3942Z" fill="#FEBD9D" stroke="#EF8A66" stroke-width="0.75" stroke-linecap="round" stroke-linejoin="round"/>
<path d="M168.816 80.3088C167.795 79.853 167.239 81.4059 168.267 82.4344C169.296 83.4629 171.159 83.9469 171.466 83.116C171.772 82.2852 169.933 80.813 168.816 80.3088Z" fill="#FEBD9D" stroke="#EF8A66" stroke-width="0.75" stroke-linecap="round" stroke-linejoin="round"/>
<path d="M169.69 77.675V78.9496C169.69 78.9496 171.735 80.438 171.771 81.3455C171.808 82.253 170.787 82.4022 169.69 81.7851C168.593 81.168 167.484 79.966 167.863 78.8931C168.242 77.8203 169.69 77.675 169.69 77.675Z" fill="#FEBD9D" stroke="#EF8A66" stroke-width="0.75" stroke-linecap="round" stroke-linejoin="round"/>
<path d="M169.692 78.9498C169.475 78.7881 169.208 78.7069 168.938 78.7198" stroke="#EF8A66" stroke-width="0.75" stroke-linecap="round" stroke-linejoin="round"/>
<path d="M215.546 72.5352C215.148 70.8293 215.195 69.0499 215.68 67.3669L219.385 69.1332C219.385 69.1332 218.035 72.8338 215.546 72.5352Z" fill="#808080"/>
<path d="M219.435 62.6611C218.394 62.5566 217.362 62.3853 216.344 62.148C216.121 62.0219 214.523 60.7435 213.821 60.2809C213.118 59.8183 210.263 57.9722 209.994 58.1446C209.725 58.317 209.628 59.1539 210.141 59.7679C210.141 59.7679 207.025 58.4432 205.679 58.2834C204.582 58.153 204.796 59.1875 205.532 59.6627C204.355 59.1413 202.954 59.6627 204.548 60.7982C203.471 60.6131 202.912 61.4416 204.598 62.6611C203.665 62.148 203.03 62.8461 203.888 63.7166C205.284 65.138 208.156 66.2398 209.064 66.5846C209.973 66.9294 215.73 68.2078 217.963 69.4694C217.963 69.4694 219.885 66.0169 219.435 62.6611Z" fill="#FEBD9D"/>
<path d="M213.817 60.2809C213.106 59.8183 210.259 57.9722 209.99 58.1446C209.721 58.317 209.624 59.1539 210.137 59.7679C210.137 59.7679 207.021 58.4432 205.675 58.2834C204.578 58.153 204.792 59.1875 205.528 59.6627C204.351 59.1413 202.95 59.6627 204.544 60.7982C203.468 60.6131 202.908 61.4416 204.595 62.6611C203.661 62.148 203.026 62.8461 203.884 63.7166" stroke="#EF8A66" stroke-width="0.75" stroke-linecap="round" stroke-linejoin="round"/>
<path d="M210.136 59.7678L211.747 60.5584" stroke="#EF8A66" stroke-width="0.75" stroke-linecap="round" stroke-linejoin="round"/>
<path d="M205.527 59.6628L208.824 61.1936" stroke="#EF8A66" stroke-width="0.75" stroke-linecap="round" stroke-linejoin="round"/>
<path d="M204.545 60.7983L208.124 62.6613" stroke="#EF8A66" stroke-width="0.75" stroke-linecap="round" stroke-linejoin="round"/>
<path d="M204.593 62.6611L207.398 64.2549" stroke="#EF8A66" stroke-width="0.75" stroke-linecap="round" stroke-linejoin="round"/>
<path d="M217.782 61.5129C223.539 62.0975 233.926 63.8216 241.714 69.4567C244.729 71.635 244.683 80.8109 236.453 80.0498C228.223 79.2886 215.532 72.535 215.532 72.535C215.532 72.535 218.795 71.8159 217.782 61.5129Z" fill="#E6E6E6"/>
<path d="M231.36 79.0405C223.837 76.9379 215.544 72.535 215.544 72.535C215.544 72.535 218.795 71.8159 217.794 61.5129C222.197 61.939 226.546 62.8141 230.771 64.1244" stroke="#808080" stroke-width="0.75" stroke-linecap="round" stroke-linejoin="round"/>
<path d="M191.691 52.3091C193.407 52.5903 196.531 53.0738 198.135 53.3323C197.965 52.3046 197.561 51.4433 196.858 50.9449C194.872 49.5359 192.976 49.8072 191.691 52.3091Z" fill="#2BDA88"/>
</g>
<defs>
<linearGradient id="paint0_linear_12_2" x1="139.275" y1="72.212" x2="4.17011" y2="72.212" gradientUnits="userSpaceOnUse">
<stop stop-color="#C5C9CC"/>
<stop offset="1" stop-color="#DADBDE"/>
</linearGradient>
<linearGradient id="paint1_linear_12_2" x1="142.232" y1="146.503" x2="4.16876" y2="146.503" gradientUnits="userSpaceOnUse">
<stop stop-color="#6A6F79"/>
<stop offset="1" stop-color="#DADBDE"/>
</linearGradient>
<linearGradient id="paint2_linear_12_2" x1="172.243" y1="59.2198" x2="182.216" y2="63.711" gradientUnits="userSpaceOnUse">
<stop stop-color="#FF7A00"/>
<stop offset="1" stop-color="#FFC28A"/>
</linearGradient>
<linearGradient id="paint3_linear_12_2" x1="171.342" y1="62.342" x2="178.51" y2="65.5702" gradientUnits="userSpaceOnUse">
<stop stop-color="#FF6B00"/>
<stop offset="1" stop-color="#FF9F47"/>
</linearGradient>
<linearGradient id="paint4_linear_12_2" x1="178.771" y1="59.2201" x2="188.744" y2="63.7112" gradientUnits="userSpaceOnUse">
<stop stop-color="#FF7A00"/>
<stop offset="1" stop-color="#FFC28A"/>
</linearGradient>
<linearGradient id="paint5_linear_12_2" x1="177.87" y1="62.342" x2="185.039" y2="65.5702" gradientUnits="userSpaceOnUse">
<stop stop-color="#FF6B00"/>
<stop offset="1" stop-color="#FF9F47"/>
</linearGradient>
<clipPath id="clip0_12_2">
<rect width="375" height="11368" fill="white" transform="translate(-62 -3443)"/>
</clipPath>
</defs>
</svg>
