<svg width="1158" height="743" viewBox="0 0 1158 743" fill="none" xmlns="http://www.w3.org/2000/svg">
<path d="M1096 242.001L1084 262.785L1145.49 298.285L1157.49 277.501L1096 242.001Z" fill="#22DA4A"/>
<path d="M1021.33 61.5186L1030.52 52.3262L978.193 0.000266552L969 9.19265L1021.33 61.5186Z" fill="#AA0BF0"/>
<path d="M340 116.008L340 149.8L370.991 150C371.365 129.605 359.603 115.608 340 116.008Z" fill="#FFE500"/>
<path d="M800.734 282.494C816.221 301.392 810.978 321.658 794.885 333.839C778.341 346.361 758.15 347.816 743.074 325.397" fill="#FF1378"/>
<path d="M0.000244141 654.078L16.252 671.738L68.4967 623.66L52.2449 606L0.000244141 654.078Z" fill="#22DA4A"/>
<path d="M345.192 681L336 690.192L388.326 742.518L397.518 733.326L345.192 681Z" fill="#AA0BF0"/>
</svg>
