<svg width="202" height="237" viewBox="0 0 202 237" fill="none" xmlns="http://www.w3.org/2000/svg">
<path d="M129.692 202.43H108.012C107.367 202.43 106.75 202.174 106.294 201.718C105.838 201.263 105.583 200.645 105.583 200.001V200.001C105.583 199.356 105.838 198.738 106.294 198.283C106.75 197.827 107.367 197.571 108.012 197.571H129.692C130.336 197.571 130.954 197.827 131.41 198.283C131.865 198.738 132.121 199.356 132.121 200.001V200.001C132.121 200.645 131.865 201.263 131.41 201.718C130.954 202.174 130.336 202.43 129.692 202.43V202.43Z" stroke="#DDDDDD" stroke-miterlimit="10"/>
<path d="M164.974 37.7318C171.557 40.8804 175.898 37.2391 179.712 35.4159C181.316 34.6425 183.139 34.4506 184.869 34.873C186.6 35.2955 188.129 36.306 189.197 37.7318L188.901 51.9128C188.901 51.9128 183.515 50.001 180.451 51.9128C177.386 53.8246 173.72 58.5352 164.964 52.174L164.974 37.7318Z" fill="#EDEDED" stroke="#DDDDDD" stroke-width="2" stroke-linecap="round" stroke-linejoin="round"/>
<path d="M190.315 96.5699C189.951 96.5699 189.603 96.4257 189.345 96.1689C189.087 95.9122 188.942 95.5638 188.94 95.2V35.1894C188.94 35.0091 188.976 34.8306 189.045 34.6641C189.114 34.4975 189.216 34.3463 189.343 34.2191C189.471 34.0918 189.623 33.991 189.789 33.9224C189.956 33.8539 190.135 33.8189 190.315 33.8196C190.495 33.8189 190.674 33.8539 190.841 33.9224C191.008 33.991 191.159 34.0918 191.287 34.2191C191.415 34.3463 191.516 34.4975 191.585 34.6641C191.654 34.8306 191.69 35.0091 191.69 35.1894V95.2C191.689 95.5638 191.543 95.9122 191.286 96.1689C191.028 96.4257 190.679 96.5699 190.315 96.5699Z" fill="#F9F9F9" stroke="#EDEDED" stroke-width="2" stroke-linecap="round" stroke-linejoin="round"/>
<path d="M179.953 97.0232H200.786" stroke="#DDDDDD" stroke-width="2" stroke-linecap="round" stroke-linejoin="round"/>
<path d="M163.772 120.33H155.4V138.127H134.094V158.665" stroke="#DDDDDD" stroke-width="2" stroke-linecap="round" stroke-linejoin="round"/>
<path d="M81.0109 175.93V190.629H54.2749V206.465H27.603V222.341H1V236" stroke="#EDEDED" stroke-width="2" stroke-linecap="round" stroke-linejoin="round"/>
<path d="M128.068 158.975H105.761V175.93H88.9097" stroke="#DDDDDD" stroke-width="2" stroke-linecap="round" stroke-linejoin="round"/>
<path d="M164.974 37.7318C171.557 40.8804 175.898 37.2391 179.712 35.4159C181.316 34.6425 183.139 34.4506 184.869 34.873C186.6 35.2955 188.129 36.306 189.197 37.7318L188.901 51.9128C188.901 51.9128 183.515 50.001 180.451 51.9128C177.386 53.8246 173.72 58.5352 164.964 52.174L164.974 37.7318Z" fill="#EDEDED" stroke="#DDDDDD" stroke-width="2" stroke-linecap="round" stroke-linejoin="round"/>
<path d="M190.315 96.5699C189.951 96.5699 189.603 96.4257 189.345 96.1689C189.087 95.9122 188.942 95.5638 188.94 95.2V35.1894C188.94 35.0091 188.976 34.8306 189.045 34.6641C189.114 34.4975 189.216 34.3463 189.343 34.2191C189.471 34.0918 189.623 33.991 189.789 33.9224C189.956 33.8539 190.135 33.8189 190.315 33.8196C190.495 33.8189 190.674 33.8539 190.841 33.9224C191.008 33.991 191.159 34.0918 191.287 34.2191C191.415 34.3463 191.516 34.4975 191.585 34.6641C191.654 34.8306 191.69 35.0091 191.69 35.1894V95.2C191.689 95.5638 191.543 95.9122 191.286 96.1689C191.028 96.4257 190.679 96.5699 190.315 96.5699Z" fill="#F9F9F9" stroke="#EDEDED" stroke-width="2" stroke-linecap="round" stroke-linejoin="round"/>
<path d="M179.953 97.0232H200.786" stroke="#DDDDDD" stroke-width="2" stroke-linecap="round" stroke-linejoin="round"/>
<path d="M163.772 120.33H155.4V138.127H134.094V158.665" stroke="#DDDDDD" stroke-width="2" stroke-linecap="round" stroke-linejoin="round"/>
<path d="M81.0109 175.93V190.629H54.2749V206.465H27.603V222.341H1V236" stroke="#EDEDED" stroke-width="2" stroke-linecap="round" stroke-linejoin="round"/>
<path d="M128.068 158.975H105.761V175.93H88.9097" stroke="#DDDDDD" stroke-width="2" stroke-linecap="round" stroke-linejoin="round"/>
<path d="M124.937 113.313C124.213 119.96 119.276 116.762 112.382 115.846L108.559 115.693L83.1286 114.708L81.0049 114.624L88.396 93.781C104.74 98.6296 125.854 104.848 124.937 113.313Z" fill="#93BEE5"/>
<path d="M108.56 115.693L83.1299 114.707L83.8887 109.149L87.3625 100.231C87.3625 100.231 93.2261 99.8761 91.4424 105.005C89.6587 110.135 90.3731 113.771 99.6366 111.352C105.234 109.879 107.58 112.998 108.56 115.693Z" fill="#83ADDF"/>
<path d="M94.841 85.9414C90.5098 91.5833 88.1644 103.808 87.6224 111.145C87.2331 116.427 86.4398 130.032 84.4541 141.409C77.6001 156.107 68.1543 149.165 68.6864 138.807V138.753C69.6078 131.165 69.1792 124.671 68.3366 121.956C67.1934 118.349 64.37 106.326 63.9019 101.394C62.8475 90.5535 65.2865 81.3097 68.8293 76.0325L94.841 85.9414Z" fill="#93BEE5"/>
<path d="M87.3623 114.86C87.4658 113.382 87.5545 112.135 87.6235 111.165C87.9695 106.921 88.6517 102.711 89.6634 98.5752" stroke="white" stroke-width="0.75" stroke-linecap="round" stroke-linejoin="round"/>
<path d="M71.4312 83.877C67.4401 110.721 75.1169 120.832 73.9491 135.871C73.5284 140.016 72.7687 144.119 71.6776 148.14" stroke="white" stroke-width="0.75" stroke-linecap="round" stroke-linejoin="round"/>
<path d="M70.3032 96.5698C73.2251 93.4701 74.9218 89.4148 75.0779 85.158" stroke="white" stroke-width="0.75" stroke-linecap="round" stroke-linejoin="round"/>
<path d="M87.7454 89.9966C87.7454 89.9966 86.4938 95.7616 85.9912 97.3877C85.9912 97.3877 87.7454 97.6685 88.3711 96.5648C88.9969 95.4611 90.1696 90.6519 90.1696 90.6519" stroke="#F7AD2B" stroke-width="0.75" stroke-linecap="round" stroke-linejoin="round"/>
<path d="M59.1124 180.143C59.1124 180.143 54.6778 185.933 55.3085 190.629H76.4273C76.4273 190.629 67.0357 185.139 66.5479 181.119L59.1124 180.143Z" fill="#683F1D"/>
<path d="M84.6646 140.167C84.5956 140.591 84.5266 141.01 84.4527 141.424C83.684 145.858 82.733 149.928 81.5554 153.057C77.3425 164.242 70.2224 181.74 70.2224 181.74L56.6475 180.611C57.6329 177.965 62.5603 166.726 67.2857 146.578C67.8895 144.007 68.3485 141.405 68.6604 138.783C68.6851 138.595 68.7048 138.403 68.7245 138.216C69.7445 132.111 82.669 126.233 84.6646 140.167Z" fill="#93BEE5"/>
<path d="M74.0732 132.308C74.0732 133.471 74.0485 134.654 73.9549 135.871C72.7822 150.919 60.8973 180.38 60.8037 180.961" stroke="white" stroke-width="0.75" stroke-linecap="round" stroke-linejoin="round"/>
<path d="M110.754 148.485C110.754 148.485 108.743 154.279 109.349 158.975H128.073C128.073 158.975 118.687 153.486 118.219 149.46L110.754 148.485Z" fill="#683F1D"/>
<path d="M125.098 117.265C123.556 128.805 120.604 150.121 120.604 150.121H108.34L112.385 115.846C112.439 109.879 116.49 103.527 120.629 106.306C126.33 110.159 125.398 115.013 125.098 117.265Z" fill="#93BEE5"/>
<path d="M113.611 88.4731L113.469 87.9615C112.211 82.9049 108.576 66.5847 108.576 66.5847C108.067 67.4565 106.08 70.8313 103.654 74.9446C98.8056 83.1799 92.201 94.3814 92.201 94.3814C84.6487 90.9814 79.1894 88.0204 75.2665 85.553C66.7403 80.2071 65.4122 77.2113 65.4122 77.2113C65.4122 77.2113 67.0024 73.3596 69.2282 68.1061C69.4824 67.5134 69.7366 66.8996 70.0096 66.2681C71.8052 62.0415 73.9086 57.1515 75.8951 52.6878C77.7588 48.4972 79.5153 44.6922 80.8075 42.1752C81.2826 41.1763 81.8439 40.2207 82.485 39.3192C83.549 38.1335 85.0298 37.4045 86.6183 37.2842C88.0856 37.1392 89.567 37.2551 90.9939 37.6265C89.3463 32.9487 96.5078 28.3624 101.304 34.0745C102.082 35.0003 103.136 35.6954 104.791 36.556C105.823 37.0852 107.087 37.6853 108.668 38.4414L109.836 39.0003C111.198 39.6534 112.311 40.2229 113.209 40.7251C117.519 43.1367 117 43.9796 116.07 44.9661C116.07 44.9661 121.53 47.0673 121.948 52.4887C122.084 54.238 122.184 55.971 122.262 57.7191C122.592 65.1918 122.535 72.8801 123.302 83.1382C124.275 95.7995 114.719 92.8412 113.611 88.4731Z" fill="#28C079"/>
<path d="M86.0116 87.1488C84.4508 87.1622 79.9353 86.6127 75.2905 85.5559C66.7642 80.21 65.4362 77.2143 65.4362 77.2143C65.4362 77.2143 67.0263 73.3626 69.2522 68.109C69.5063 67.5163 69.7606 66.9025 70.0336 66.271C71.8291 62.0444 73.9325 57.1545 75.919 52.6907C78.2811 50.8969 80.813 50.0392 83.4238 50.6913C93.0824 53.1438 92.5395 59.7459 89.3667 62.8085C86.1939 65.8712 84.4436 69.6542 89.5272 74.7298C94.6107 79.8055 89.5407 87.1237 86.0116 87.1488Z" fill="#1F9B61"/>
<path d="M113.486 87.9745C112.227 82.918 108.592 66.5978 108.592 66.5978C108.592 66.5978 111.216 62.183 113.2 58.9172C115.309 61.4717 115.955 64.5965 113.538 66.609C110.645 69.0182 111.635 74.1897 114.696 76.0596C117.534 77.7818 116.436 86.4686 113.486 87.9745Z" fill="#1F9B61"/>
<path d="M122.292 57.7304C119.166 55.4652 115.098 55.2348 110.601 58.1036C107.294 60.2193 104.422 60.8397 102.007 60.2093C98.5034 59.2927 95.9598 55.7445 94.417 50.2862C94.0842 49.0421 93.5093 47.8758 92.7251 46.8541C91.941 45.8324 90.9631 44.9754 89.8473 44.3321C87.3789 42.8643 84.2184 42.2298 80.8276 42.1848C81.3026 41.1858 81.8639 40.2302 82.5051 39.3288C83.569 38.143 85.0498 37.414 86.6383 37.2937C88.1057 37.1488 89.587 37.2647 91.0139 37.636C89.3663 32.9582 96.5278 28.3719 101.324 34.084C102.102 35.0098 103.156 35.7049 104.811 36.5655C105.843 37.0947 107.107 37.6948 108.688 38.4509L109.856 39.0098C111.218 39.6629 112.331 40.2324 113.229 40.7346C117.539 43.1462 117.02 43.9891 116.09 44.9756C116.09 44.9756 121.55 47.0768 121.968 52.4982C122.113 54.2492 122.213 55.9823 122.292 57.7304Z" fill="#2BDA88"/>
<path d="M108.606 66.6075C108.606 66.6075 111.23 62.1927 113.214 58.9269C113.618 58.2625 113.996 57.6469 114.325 57.1165" stroke="#145C3B" stroke-width="0.75" stroke-linecap="round" stroke-linejoin="round"/>
<path d="M106.405 51.106C105.691 55.3904 93.5618 73.8935 91.952 76.2275C90.3421 78.5614 91.9322 79.2499 90.2821 81.532C89.7777 82.2092 89.1366 82.7729 88.4004 83.1866C87.6642 83.6002 86.8494 83.8545 86.0086 83.9331" stroke="#145C3B" stroke-width="0.75" stroke-linecap="round" stroke-linejoin="round"/>
<path d="M107.85 47.5155C106.716 44.6843 105.123 42.0595 103.135 39.7469C103.135 39.7469 106.115 34.0469 108.142 30.3257C111.864 23.4958 117.65 28.7714 115.31 34.6016C115.183 34.9085 115.04 35.2991 114.881 35.7461C114.131 37.8633 113.07 41.2357 112.499 43.0692C112.254 43.8598 112.105 44.3627 112.105 44.3627C109.328 44.7047 107.85 47.5155 107.85 47.5155Z" fill="#FEBD9D"/>
<path d="M112.508 43.0767C108.549 41.851 107.566 38.3528 110.009 35.1391L113.774 35.1815L114.88 35.7459C114.13 37.8631 113.064 41.2423 112.508 43.0767Z" fill="#F4A789"/>
<path d="M99.6773 36.2472C101.903 38.0136 105.014 41.2129 107.849 47.515C107.849 47.515 109.574 43.6811 114.299 44.3106" stroke="#145C3B" stroke-width="0.75" stroke-linecap="round" stroke-linejoin="round"/>
<path d="M82.5263 62.7535C78.6683 65.7152 74.0729 67.5638 69.2386 68.0987C73.6724 57.6151 80.6216 41.546 82.4903 39.3185C85.2929 35.9745 90.9992 37.6258 90.9992 37.6258C96.4928 44.6487 90.4751 56.7266 82.5263 62.7535Z" fill="#F9F9F9" stroke="#DDDDDD" stroke-linecap="round" stroke-linejoin="round"/>
<path d="M64.6361 46.2679C66.7415 42.1017 67.3746 40.8359 69.132 39.9842C70.8894 39.1325 73.9783 39.1975 74.6079 40.786C75.2375 42.3745 73.2572 47.1934 73.2572 47.1934L71.2593 46.9436C71.2593 46.9436 74.47 41.3237 72.6871 40.7701C70.9043 40.2164 68.5627 41.1869 66.6889 45.2372L64.6361 46.2679Z" fill="#EDEDED" stroke="#DDDDDD" stroke-width="0.75" stroke-linecap="round" stroke-linejoin="round"/>
<path d="M68.5226 75.8431C64.4481 78.4433 55.6061 83.6265 52.907 82.1267C51.055 81.0821 49.3742 79.7594 47.9233 78.2049C47.2527 77.4455 46.8144 76.7299 46.7765 76.1861C46.6617 73.5799 46.9263 70.9709 47.5619 68.4408C48.3269 65.7513 53.2064 54.9959 55.8777 52.083C58.549 49.17 67.3664 41.5467 76.6215 42.7418C81.0827 43.3138 78.8897 49.8722 76.8889 57.6864C75.3455 63.6977 73.6291 69.6572 71.0757 73.2811C70.3979 74.2918 69.5309 75.1617 68.5226 75.8431Z" fill="#F9F9F9" stroke="#DDDDDD" stroke-linecap="round" stroke-linejoin="round"/>
<path d="M68.522 75.8422C64.4476 78.4424 55.6056 83.6256 52.9065 82.1258C51.0544 81.0812 49.3736 79.7585 47.9228 78.2041C48.6441 73.9096 48.8787 72.686 50.7895 70.8782C52.7002 69.0704 59.3147 66.1816 60.9789 66.2627C62.5001 66.3572 68.9373 69.1006 71.0524 73.2682C70.3825 74.2811 69.5233 75.155 68.522 75.8422Z" fill="#EDEDED" stroke="#DDDDDD" stroke-width="0.75" stroke-linecap="round" stroke-linejoin="round"/>
<path d="M67.6499 46.3345C65.8792 50.3887 63.8636 55.0375 63.5953 56.2354C63.3271 57.4334 61.9055 62.5231 61.9055 62.5231" fill="#F9F9F9"/>
<path d="M67.6499 46.3345C65.8792 50.3887 63.8636 55.0375 63.5953 56.2354C63.3271 57.4334 61.9055 62.5231 61.9055 62.5231" stroke="#DDDDDD" stroke-width="0.75" stroke-linecap="round" stroke-linejoin="round"/>
<path d="M64.8036 56.5115C67.7717 56.9519 72.2127 59.7017 73.4161 60.6963L64.8036 56.5115Z" fill="#F9F9F9"/>
<path d="M64.8036 56.5115C67.7717 56.9519 72.2127 59.7017 73.4161 60.6963" stroke="#DDDDDD" stroke-width="0.75" stroke-linecap="round" stroke-linejoin="round"/>
<path d="M52.5823 54.7339C52.47 55.6149 54.2736 55.4568 56.1229 54.7706C57.9722 54.0843 63.8555 51.1653 64.7228 49.8918C65.5901 48.6183 65.7824 46.6192 67.5309 45.1925C69.2794 43.7658 76.5543 42.9138 78.3658 43.6113C78.1762 43.2174 77.8959 42.874 77.5478 42.6093C77.1998 42.3447 76.7939 42.1664 76.3635 42.0891C74.8572 41.7935 65.6632 42.7529 60.2008 46.8574C54.7384 50.962 52.693 53.8409 52.5823 54.7339Z" fill="#EDEDED" stroke="#DDDDDD" stroke-width="0.75" stroke-linecap="round" stroke-linejoin="round"/>
<path d="M61.1474 50.168L62.9474 49.6514L61.1811 54.8454L59.3636 55.3222L61.1474 50.168Z" fill="#DDDDDD" stroke="#DDDDDD" stroke-linecap="round" stroke-linejoin="round"/>
<path d="M53.7503 53.5982L55.1522 53.1931L53.7763 57.2448L52.3577 57.616L53.7503 53.5982Z" fill="#DDDDDD" stroke="#DDDDDD" stroke-linecap="round" stroke-linejoin="round"/>
<path d="M69.6285 70.232C69.6936 68.9101 69.8252 67.5923 70.023 66.2837C70.9937 59.6776 73.4885 51.1716 75.8285 46.6899C76.6198 45.1549 77.5103 43.6732 78.4946 42.2543C80.9021 38.8222 83.7155 36.4209 86.6368 37.2931C88.3876 37.8329 89.9004 39.8593 89.8365 44.3297C89.7835 48.0384 88.6482 53.4361 85.6746 61.063C76.4957 84.6609 69.2526 78.8356 69.6285 70.232Z" fill="#28C079"/>
<path d="M89.8458 44.3315C87.3773 42.8637 84.2169 42.2292 80.826 42.1842C80.0617 42.1766 79.2855 42.1918 78.5048 42.2408C80.9123 38.8088 83.7257 36.4075 86.647 37.2796C88.3969 37.8347 89.9097 39.8611 89.8458 44.3315Z" fill="#2BDA88"/>
<path d="M81.5665 99.8529C81.881 100.501 83.6766 100.395 85.7937 98.9725C85.7937 98.9725 84.0478 95.4786 83.9873 95.4326C83.9267 95.3865 80.9631 97.8807 81.5665 99.8529Z" fill="#145C3B"/>
<path d="M89.6436 92.0808C91.4087 94.9627 91.8496 95.675 92.3833 96.1604C92.917 96.6458 95.2442 97.985 95.5835 98.5934C95.9228 99.2019 95.7346 100.301 95.7346 100.301C95.7346 100.301 98.0355 101.668 98.2936 102.412C98.5517 103.155 97.7346 104.111 97.1144 104.053C96.4942 103.996 95.9116 103.882 95.4886 104.697C95.0656 105.512 94.6986 105.785 94.2841 105.82C93.8696 105.856 94.2575 106.777 93.0971 107.228C91.9367 107.679 91.9752 108.648 90.9769 108.361C89.9785 108.075 81.7048 97.4728 81.5888 96.5987C81.4728 95.7246 87.6131 88.8006 89.6436 92.0808Z" fill="#FEBD9D"/>
<path d="M93.9503 97.2561C94.6817 97.7538 95.4139 98.2785 95.5868 98.5959C95.9134 99.2 95.738 100.304 95.738 100.304C95.738 100.304 98.0388 101.671 98.2969 102.414C98.555 103.157 97.7379 104.113 97.1177 104.056C96.4975 103.998 95.9149 103.885 95.4919 104.7C95.0689 105.514 94.7019 105.788 94.2874 105.823C93.8728 105.858 94.2608 106.78 93.1004 107.23C91.94 107.681 91.9785 108.65 90.9802 108.364C90.7321 108.292 90.0316 107.579 89.1203 106.536" stroke="#EF8A66" stroke-width="0.75" stroke-linecap="round" stroke-linejoin="round"/>
<path d="M95.7404 100.29C94.9306 99.7016 94.1617 99.0584 93.439 98.3655" stroke="#EF8A66" stroke-width="0.75" stroke-linecap="round" stroke-linejoin="round"/>
<path d="M75.2668 64.7905C80.2824 63.4528 82.4599 67.9015 85.7792 76.569C87.889 82.1814 89.603 87.9347 90.9084 93.7868C90.9084 93.7868 84.2922 95.3997 81.5652 99.8527C81.5652 99.8527 70.6995 78.7463 70.0943 74.3248C69.6166 70.8392 71.4504 65.808 75.2668 64.7905Z" fill="#2BDA88"/>
<path d="M78.7575 64.927C81.5244 66.1279 83.3358 70.2133 85.779 76.5686C87.8889 82.1809 89.6028 87.9343 90.9082 93.7863" stroke="#145C3B" stroke-width="0.75" stroke-linecap="round" stroke-linejoin="round"/>
<path d="M112.719 39.917C109.783 38.9323 107.15 35.8367 107.655 30.8838C107.896 27.9258 109.152 25.1419 111.209 23.0028C112.29 21.8541 115.484 19.769 118.042 23.2217C120.338 26.3058 120.323 29.2039 119.35 32.341C119.238 32.7123 119.111 33.0886 118.97 33.4698C118.749 34.061 118.514 34.6631 118.256 35.2474C116.977 38.1728 115.176 40.7227 112.719 39.917Z" fill="#FEBD9D"/>
<path d="M113.597 30.9194C112.839 31.442 111.553 30.884 110.732 29.6806C109.91 28.4772 109.859 27.0785 110.62 26.5584C111.382 26.0383 112.664 26.5938 113.489 27.7997C114.314 29.0057 114.363 30.4019 113.597 30.9194Z" fill="#F4AF90"/>
<path d="M118.269 35.2307C118.067 35.1392 117.89 35.0013 117.752 34.8281C117.614 34.655 117.519 34.4516 117.475 34.2346C117.369 33.4316 118.162 32.6327 119.363 32.3244C119.251 32.6956 119.124 33.0719 118.983 33.4531C118.762 34.0443 118.527 34.6465 118.269 35.2307Z" fill="#F4AF90"/>
<path d="M117.92 30.2817C117.855 30.366 117.817 30.4678 117.809 30.5741C117.802 30.6804 117.827 30.7864 117.88 30.8786C117.934 30.9709 118.013 31.0452 118.109 31.092C118.205 31.1389 118.312 31.1563 118.418 31.1419C118.523 31.1275 118.622 31.0821 118.702 31.0113C118.781 30.9406 118.838 30.8477 118.865 30.7446C118.892 30.6414 118.887 30.5327 118.852 30.4321C118.816 30.3316 118.752 30.2439 118.667 30.1801C118.554 30.0946 118.412 30.0572 118.272 30.0763C118.132 30.0954 118.006 30.1692 117.92 30.2817Z" fill="#683F1D"/>
<path d="M115.382 29.0959C115.317 29.18 115.278 29.2816 115.271 29.3878C115.264 29.4939 115.288 29.5997 115.341 29.6919C115.394 29.7841 115.474 29.8585 115.569 29.9056C115.664 29.9526 115.771 29.9703 115.877 29.9564C115.982 29.9425 116.081 29.8975 116.161 29.8273C116.241 29.757 116.298 29.6646 116.325 29.5618C116.353 29.459 116.349 29.3505 116.314 29.2499C116.28 29.1493 116.216 29.0612 116.131 28.9968C116.019 28.9111 115.877 28.8734 115.736 28.8919C115.596 28.9105 115.468 28.9838 115.382 29.0959Z" fill="#683F1D"/>
<path d="M121.757 27.7297C120.894 27.8593 120.633 26.8752 120.633 26.8752C120.155 27.6642 118.045 27.0315 116.769 26.258C115.493 25.4845 116.833 24.7772 116.231 23.6767C115.628 22.5762 113.621 22.6112 113.621 22.6112C113.621 22.6112 114.551 25.3625 113.337 27.1749C112.644 28.2374 111.584 29.0077 110.359 29.3393L107.928 28.1921C107.445 27.2635 107.114 26.2638 106.946 25.2308C106.646 23.2986 107.036 21.4597 108.35 20.3667C110.349 18.7007 112.621 19.8966 112.621 19.8966C113.132 19.3069 113.789 18.8608 114.526 18.6023C115.262 18.3438 116.054 18.2818 116.821 18.4226C119.069 18.756 120.584 20.221 120.833 21.1645C121.082 22.108 121.174 22.3639 122.137 23.4515L122.187 23.4899C122.328 23.619 122.441 23.7754 122.52 23.9495C122.598 24.1236 122.641 24.3119 122.645 24.5028C122.648 24.6938 122.613 24.8836 122.542 25.0606C122.47 25.2377 122.363 25.3983 122.227 25.5328C122.227 25.5328 122.626 27.5933 121.757 27.7297Z" fill="#BF8228"/>
<path d="M121.757 27.7295C120.894 27.8591 120.633 26.875 120.633 26.875C120.155 27.6641 118.045 27.0314 116.769 26.2579C115.493 25.4844 116.833 24.777 116.23 23.6765C115.628 22.576 113.621 22.6111 113.621 22.6111C113.621 22.6111 114.55 25.3624 113.337 27.1747C112.644 28.2372 111.584 29.0076 110.359 29.3391L107.928 28.1919C107.445 27.2633 107.114 26.2636 106.945 25.2306C109.722 26.0351 110.413 23.5547 111.323 22.0431C112.61 19.9099 114.965 19.1247 116.735 21.9094C117.764 23.5039 120.155 23.6971 122.13 23.4885L122.18 23.5269C122.321 23.656 122.434 23.8124 122.513 23.9865C122.591 24.1606 122.634 24.3488 122.637 24.5398C122.641 24.7308 122.606 24.9206 122.534 25.0976C122.463 25.2747 122.356 25.4353 122.22 25.5698C122.22 25.5698 122.625 27.5932 121.757 27.7295Z" fill="#B57724"/>
<path d="M120.637 26.8722C120.96 25.9443 120.821 25.8546 120.066 25.1428C119.312 24.4311 118.385 23.5407 118.528 22.7942" stroke="#9B621F" stroke-width="0.75" stroke-linecap="round" stroke-linejoin="round"/>
<path d="M122.188 25.5563C121.736 24.7602 121.081 24.0987 120.289 23.6399" stroke="#9B621F" stroke-width="0.75" stroke-linecap="round" stroke-linejoin="round"/>
<path d="M114.516 27.1796C114.094 27.5116 116.943 28.7858 117.205 27.6309C117.468 26.476 115.272 26.591 114.516 27.1796Z" fill="#BF8228"/>
<path d="M118.265 27.9736C117.789 28.4456 119.612 29.9168 119.948 29.4819C120.284 29.047 118.969 27.2714 118.265 27.9736Z" fill="#BF8228"/>
<path d="M117.219 28.9153C116.679 30.3795 117.313 31.1801 117.55 31.8538C117.786 32.5275 116.949 33.4258 116.949 33.4258" stroke="#EF8A66" stroke-width="0.75" stroke-linecap="round" stroke-linejoin="round"/>
<path d="M114.046 31.6331C113.922 32.8024 114.282 33.8091 115.264 34.1521" stroke="#EF8A66" stroke-width="0.75" stroke-linecap="round" stroke-linejoin="round"/>
<path d="M110.345 29.3385C111.171 27.4069 109.204 24.5524 107.098 26.5677C105.279 28.3119 107.017 29.8941 108.048 30.5713L110.345 29.3385Z" fill="#FEBD9D"/>
<path d="M107.99 27.0978C109.454 27.3932 109.508 28.8731 109.271 29.4575" stroke="#EF8A66" stroke-width="0.75" stroke-linecap="round" stroke-linejoin="round"/>
<path d="M109.369 29.0429C109.474 27.0677 106.825 28.1977 108.225 29.5064" stroke="#EF8A66" stroke-width="0.75" stroke-linecap="round" stroke-linejoin="round"/>
<path d="M107.731 30.3463C108.003 30.5632 108.31 30.7334 108.638 30.8502" stroke="#EF8A66" stroke-width="0.75" stroke-linecap="round" stroke-linejoin="round"/>
<path d="M116.132 58.8609L105.102 73.4473L109.915 77.0841L116.19 81.8328L124.324 71.0747L127.22 67.2464L120.184 61.8528L116.132 58.8609Z" fill="url(#paint0_linear_110_69)"/>
<path d="M127.224 67.2418L127.493 62.6972L120.638 57.5156L120.166 61.9061L127.224 67.2418Z" fill="url(#paint1_linear_110_69)"/>
<path d="M120.638 57.5154L116.131 58.8608L120.166 61.9059L120.638 57.5154Z" fill="#B1BEE3"/>
<path d="M116.13 58.861L105.1 73.4474L109.131 76.4972L120.165 61.9061L116.13 58.861Z" fill="url(#paint2_linear_110_69)"/>
<path d="M127.493 62.6973L120.638 57.5158L120.746 57.3743C121.169 56.8176 121.962 56.7055 122.518 57.1287L127.355 60.7835C127.911 61.2067 128.024 61.9992 127.6 62.5558L127.493 62.6973Z" fill="url(#paint3_linear_110_69)"/>
<path d="M123.886 71.6503L116.833 66.3181L114.855 68.9304L121.912 74.2662L123.886 71.6503Z" fill="url(#paint4_linear_110_69)"/>
<path d="M112.802 63.2681L110.823 65.8804L114.854 68.9302L116.833 66.3179L112.802 63.2681Z" fill="url(#paint5_linear_110_69)"/>
<path d="M130.612 66.8248L134.668 69.9092L127.316 79.5797L123.259 76.4954L130.612 66.8248Z" fill="url(#paint6_linear_110_69)"/>
<path d="M134.452 63.38L135.683 64.3161C137.273 65.5247 137.577 67.7881 136.371 69.3731L134.808 71.4299L132.355 69.5649C131.793 69.1381 130.996 69.2467 130.569 69.808C130.143 70.3694 130.251 71.1666 130.813 71.5933L133.266 73.4583L131.042 76.3831L128.589 74.5181C128.028 74.0913 127.23 74.1999 126.804 74.7612C126.377 75.3226 126.485 76.1198 127.047 76.5466L129.5 78.4115L125.214 84.0487L118.232 78.7408L129.39 64.0651C130.6 62.4837 132.867 62.175 134.452 63.38Z" fill="url(#paint7_linear_110_69)"/>
<path d="M141.205 78.3415C141.205 78.3415 150.56 81.0172 150.595 77.7013C150.629 74.377 141.4 77.4775 141.4 77.4775L141.205 78.3415Z" fill="#3BC49A"/>
<path d="M140.925 77.3692C140.925 77.3692 146.438 69.3447 148.573 71.8832C150.717 74.4288 141.625 77.9083 141.625 77.9083L140.925 77.3692Z" fill="#3BC49A"/>
<path d="M140.665 78.0344C140.665 78.0344 151.793 70.0656 153.312 74.2652C154.686 78.0787 141.201 78.7691 141.201 78.7691L140.665 78.0344Z" fill="#44D0A7"/>
<path d="M120.244 84.5661C120.433 84.6799 120.67 84.7407 120.943 84.7247L122.777 84.623L122.785 84.6218L126.675 84.4008L127.393 84.3581L132.571 84.0672L133.575 84.011L136.932 83.8243C137.268 83.804 137.603 83.754 137.928 83.6803C138.198 83.6181 138.467 83.5393 138.723 83.4366C140.022 82.9426 141.107 81.9956 141.693 80.7147C142.185 79.637 142.26 78.54 142.003 77.5558C141.977 77.4537 141.945 77.348 141.91 77.247C141.451 75.8929 140.353 74.7823 138.863 74.2747C138.49 74.1479 138.108 74.0731 137.723 74.0409C136.648 73.9462 135.554 74.2009 134.599 74.7328L133.815 75.1567L132.992 75.6029L128.891 77.8149L128.146 78.2165L123.316 80.8196L122.871 81.062L120.283 82.4591C119.364 82.9437 119.501 84.1346 120.244 84.5661Z" fill="url(#paint8_linear_110_69)"/>
<path opacity="0.1" d="M122.78 84.6185L136.932 83.8246C138.971 83.7075 140.857 82.5584 141.698 80.7185C142.189 79.6408 142.264 78.5438 142.007 77.5596C141.981 77.4575 141.949 77.3518 141.915 77.2509C138.529 81.4587 128.012 83.7283 122.78 84.6185Z" fill="black"/>
<path opacity="0.1" d="M137.724 74.0417L139.05 77.6629L138.86 74.2803C138.488 74.1534 138.109 74.0739 137.724 74.0417Z" fill="black"/>
<path opacity="0.1" d="M137.26 79.5171L137.925 83.685C138.195 83.6228 138.464 83.544 138.72 83.4414L137.26 79.5171Z" fill="black"/>
<path opacity="0.1" d="M132.984 75.6041L134.226 78.8265L133.815 75.1568L132.984 75.6041Z" fill="black"/>
<path opacity="0.1" d="M132.142 80.7037L132.571 84.0665L133.57 84.015L132.142 80.7037Z" fill="black"/>
<path opacity="0.1" d="M128.134 78.2226L129.176 80.1909L128.883 77.8163L128.134 78.2226Z" fill="black"/>
<path opacity="0.1" d="M126.405 81.6341L126.676 84.401L127.39 84.363L126.405 81.6341Z" fill="black"/>
<path opacity="0.1" d="M122.858 81.0595L123.467 82.4312L123.299 80.8218L122.858 81.0595Z" fill="black"/>
<path d="M139.618 84.5414C139.618 84.5414 146.345 86.4628 146.368 84.083C146.393 81.6903 139.758 83.926 139.758 83.926L139.618 84.5414Z" fill="#3BC49A"/>
<path d="M139.416 83.837C139.416 83.837 143.376 78.0708 144.91 79.8918C146.453 81.72 139.913 84.2219 139.913 84.2219L139.416 83.837Z" fill="#3BC49A"/>
<path d="M139.228 84.3192C139.228 84.3192 147.231 78.5902 148.315 81.6101C149.306 84.3508 139.609 84.8468 139.609 84.8468L139.228 84.3192Z" fill="#44D0A7"/>
<path d="M124.554 89.0111C124.692 89.0938 124.863 89.134 125.056 89.1246L126.378 89.0503C126.378 89.0503 126.378 89.0503 126.383 89.0539L129.182 88.8968L129.698 88.8646L133.42 88.6579L134.138 88.6152L136.551 88.4769C136.794 88.4607 137.034 88.4279 137.268 88.3749C137.465 88.3311 137.657 88.2755 137.841 88.1997C138.773 87.8443 139.557 87.1667 139.976 86.2427C140.332 85.4711 140.381 84.682 140.2 83.9709C140.181 83.8973 140.158 83.8201 140.131 83.7476C139.8 82.7736 139.01 81.972 137.942 81.6142C137.676 81.5235 137.398 81.4684 137.124 81.4464C136.349 81.3786 135.567 81.5654 134.878 81.9426L134.311 82.2482L133.716 82.5702L130.765 84.1604L130.225 84.4496L126.755 86.3221L126.436 86.4966L124.577 87.5025C123.922 87.8455 124.017 88.6994 124.554 89.0111Z" fill="url(#paint9_linear_110_69)"/>
<path opacity="0.1" d="M126.379 89.0508L136.552 88.4774C138.021 88.3957 139.375 87.5643 139.977 86.2432C140.333 85.4716 140.382 84.6825 140.201 83.9714C140.182 83.8978 140.159 83.8206 140.132 83.7482C137.695 86.7782 130.135 88.4081 126.379 89.0508Z" fill="black"/>
<path opacity="0.1" d="M137.114 81.4474L138.069 84.0493L137.937 81.6187C137.666 81.5245 137.393 81.473 137.114 81.4474Z" fill="black"/>
<path opacity="0.1" d="M136.786 85.3882L137.266 88.3804C137.463 88.3366 137.654 88.281 137.838 88.2052L136.786 85.3882Z" fill="black"/>
<path opacity="0.1" d="M133.717 82.5707L134.604 84.89L134.308 82.2533L133.717 82.5707Z" fill="black"/>
<path opacity="0.1" d="M133.105 86.2361L133.417 88.6548L134.131 88.6168L133.105 86.2361Z" fill="black"/>
<path opacity="0.1" d="M130.226 84.4502L130.972 85.8666L130.762 84.1657L130.226 84.4502Z" fill="black"/>
<path opacity="0.1" d="M128.983 86.9068L129.177 88.8933L129.689 88.8659L128.983 86.9068Z" fill="black"/>
<path opacity="0.1" d="M126.431 86.4936L126.874 87.4778L126.755 86.3226L126.431 86.4936Z" fill="black"/>
<path d="M110.244 65.3722L87.8643 94.8084L117.867 117.618L140.264 88.1586L138.919 88.9972L138.84 86.5552L136.478 87.2153L136.387 84.6902L136.016 84.7873L135.224 84.9967L134.06 85.3031L133.982 82.8611L131.643 83.391L131.576 81.032L129.119 81.6204L129.123 79.167L126.796 79.78L126.717 77.3379L124.426 77.9037L124.358 75.5447L122.02 76.0746L121.905 73.6797L119.567 74.2096L119.499 71.8506L117.208 72.4164L117.046 69.9856L114.708 70.5155L114.593 68.1207L112.266 68.7336L112.188 66.2916L109.968 66.763L110.244 65.3722Z" fill="url(#paint10_linear_110_69)"/>
<path d="M135.224 84.9967L113.149 114.032L117.867 117.618L140.264 88.1586L138.919 88.9972L138.84 86.5552L136.478 87.2153L136.387 84.6902L136.016 84.7873L135.224 84.9967Z" fill="#EECA9D"/>
<path d="M131.575 81.0309L108.927 110.821L113.55 114.336L136.015 84.7862L134.06 85.302L133.981 82.86L131.643 83.3899L131.575 81.0309Z" fill="url(#paint11_linear_110_69)"/>
<path d="M108.927 110.822L117.867 117.618L117.881 117.599L117.974 108.469L108.927 110.822Z" fill="#E1AF72"/>
<path d="M95.227 97.1671C93.8852 96.147 93.9135 93.8522 95.2901 92.0415C96.6668 90.2308 98.8704 89.5899 100.212 90.61C101.554 91.6301 101.526 93.9249 100.149 95.7356C98.7724 97.5463 96.5687 98.1872 95.227 97.1671Z" fill="url(#paint12_linear_110_69)"/>
<path d="M90.3251 93.4781C88.9834 92.458 89.0117 90.1632 90.3883 88.3525C91.7649 86.5419 93.9686 85.9009 95.3103 86.921C96.6521 87.9411 96.6238 90.2359 95.2471 92.0466C93.8705 93.8573 91.6668 94.4982 90.3251 93.4781Z" fill="url(#paint13_linear_110_69)"/>
<path d="M100.367 101.076C99.0249 100.055 99.0532 97.7606 100.43 95.95C101.806 94.1393 104.01 93.4984 105.352 94.5184C106.694 95.5385 106.665 97.8333 105.289 99.644C103.912 101.455 101.708 102.096 100.367 101.076Z" fill="url(#paint14_linear_110_69)"/>
<path d="M103.906 103.766C102.564 102.746 102.593 100.451 103.969 98.6406C105.346 96.8299 107.55 96.189 108.891 97.2091C110.233 98.2292 110.205 100.524 108.828 102.335C107.452 104.145 105.248 104.786 103.906 103.766Z" fill="url(#paint15_linear_110_69)"/>
<path d="M93.5273 95.8758C92.1855 94.8557 92.2138 92.5609 93.5904 90.7502C94.9671 88.9396 97.1707 88.2986 98.5125 89.3187C99.8542 90.3388 99.8259 92.6336 98.4493 94.4443C97.0727 96.255 94.869 96.8959 93.5273 95.8758Z" fill="url(#paint16_linear_110_69)"/>
<path d="M98.7172 99.8209C97.3755 98.8008 97.4037 96.506 98.7804 94.6953C100.157 92.8846 102.361 92.2437 103.702 93.2638C105.044 94.2839 105.016 96.5787 103.639 98.3894C102.263 100.2 100.059 100.841 98.7172 99.8209Z" fill="url(#paint17_linear_110_69)"/>
<path d="M87.9961 88.9539L87.494 89.6143L87.4856 94.521L89.3725 95.9556L89.9916 95.5329L90.7463 96.1068L90.7405 96.9956L94.0898 99.542L95.0278 99.2874L96.443 100.363L96.4013 101.299L98.9015 103.2L99.8395 102.946L101.302 104.057L101.307 105.029L102.77 106.141L106.829 105.208L107.762 103.981L87.9961 88.9539Z" fill="#B68649"/>
<path d="M87.9965 88.9537L87.4944 89.6141L87.486 94.5208L89.3729 95.9554L89.992 95.5327L90.7467 96.1066L90.7409 96.9954L92.0288 97.9746L93.0771 92.8163L87.9965 88.9537Z" fill="url(#paint18_linear_110_69)"/>
<path d="M88.0341 87.6794L109.121 103.711L108.26 104.843L87.1734 88.8115L88.0341 87.6794Z" fill="url(#paint19_linear_110_69)"/>
<path d="M88.0337 87.6797L94.355 92.4856L93.4942 93.6178L87.173 88.8119L88.0337 87.6797Z" fill="#B68649"/>
<defs>
<linearGradient id="paint0_linear_110_69" x1="121.595" y1="74.1974" x2="113.284" y2="68.3052" gradientUnits="userSpaceOnUse">
<stop stop-color="#F3F7FF"/>
<stop offset="1" stop-color="#BCCBF9"/>
</linearGradient>
<linearGradient id="paint1_linear_110_69" x1="126.87" y1="64.6145" x2="118.01" y2="57.8769" gradientUnits="userSpaceOnUse">
<stop stop-color="#91A1D2"/>
<stop offset="0.666667" stop-color="#DEE6FF"/>
</linearGradient>
<linearGradient id="paint2_linear_110_69" x1="114.664" y1="69.222" x2="110.602" y2="66.134" gradientUnits="userSpaceOnUse">
<stop stop-color="#B0BFE9"/>
<stop offset="1" stop-color="#EEF2FF"/>
</linearGradient>
<linearGradient id="paint3_linear_110_69" x1="127.928" y1="62.1199" x2="121.073" y2="56.9372" gradientUnits="userSpaceOnUse">
<stop stop-color="#B8CAFF"/>
<stop offset="1" stop-color="#9BB1F4"/>
</linearGradient>
<linearGradient id="paint4_linear_110_69" x1="122.896" y1="72.9716" x2="115.847" y2="67.6117" gradientUnits="userSpaceOnUse">
<stop stop-color="#90A5E2"/>
<stop offset="1" stop-color="#C2CBE4"/>
<stop offset="1" stop-color="#C6D1F2"/>
<stop offset="1" stop-color="#F5F8FF"/>
</linearGradient>
<linearGradient id="paint5_linear_110_69" x1="115.841" y1="67.632" x2="111.811" y2="64.5673" gradientUnits="userSpaceOnUse">
<stop stop-color="#8AA5F6"/>
<stop offset="1" stop-color="#DADBDE"/>
</linearGradient>
<linearGradient id="paint6_linear_110_69" x1="128.041" y1="72.5006" x2="131.72" y2="75.2979" gradientUnits="userSpaceOnUse">
<stop stop-color="#C48F40"/>
<stop offset="1" stop-color="#DADBDE"/>
</linearGradient>
<linearGradient id="paint7_linear_110_69" x1="115.517" y1="79.8185" x2="134.747" y2="70.0944" gradientUnits="userSpaceOnUse">
<stop stop-color="#F7CF95"/>
<stop offset="1" stop-color="#D3A35B"/>
</linearGradient>
<linearGradient id="paint8_linear_110_69" x1="142.514" y1="82.422" x2="124.762" y2="78.3232" gradientUnits="userSpaceOnUse">
<stop stop-color="#FF7A00"/>
<stop offset="1" stop-color="#FFC28A"/>
</linearGradient>
<linearGradient id="paint9_linear_110_69" x1="140.56" y1="87.4692" x2="127.8" y2="84.5231" gradientUnits="userSpaceOnUse">
<stop stop-color="#FF6B00"/>
<stop offset="1" stop-color="#FF9F47"/>
</linearGradient>
<linearGradient id="paint10_linear_110_69" x1="129.191" y1="102.723" x2="99.1886" y2="79.9134" gradientUnits="userSpaceOnUse">
<stop stop-color="#D08E3E"/>
<stop offset="1" stop-color="#FFEBD3"/>
</linearGradient>
<linearGradient id="paint11_linear_110_69" x1="114.176" y1="108.516" x2="136.993" y2="79.0432" gradientUnits="userSpaceOnUse">
<stop stop-color="#D5A161"/>
</linearGradient>
<linearGradient id="paint12_linear_110_69" x1="100.149" y1="95.7356" x2="95.2901" y2="92.0415" gradientUnits="userSpaceOnUse">
<stop stop-color="#EEC38B"/>
<stop offset="1" stop-color="#FFE9CE"/>
</linearGradient>
<linearGradient id="paint13_linear_110_69" x1="95.2471" y1="92.0466" x2="90.3883" y2="88.3525" gradientUnits="userSpaceOnUse">
<stop stop-color="#E7B473"/>
<stop offset="1" stop-color="#FFE5C2"/>
</linearGradient>
<linearGradient id="paint14_linear_110_69" x1="105.289" y1="99.644" x2="100.43" y2="95.95" gradientUnits="userSpaceOnUse">
<stop stop-color="#EEC38B"/>
<stop offset="1" stop-color="#FFE9CE"/>
</linearGradient>
<linearGradient id="paint15_linear_110_69" x1="108.828" y1="102.335" x2="103.969" y2="98.6406" gradientUnits="userSpaceOnUse">
<stop stop-color="white"/>
<stop offset="1" stop-color="#DADBDE"/>
</linearGradient>
<linearGradient id="paint16_linear_110_69" x1="98.4493" y1="94.4443" x2="93.5904" y2="90.7502" gradientUnits="userSpaceOnUse">
<stop stop-color="white"/>
<stop offset="1" stop-color="#DADBDE"/>
</linearGradient>
<linearGradient id="paint17_linear_110_69" x1="103.639" y1="98.3894" x2="98.7804" y2="94.6953" gradientUnits="userSpaceOnUse">
<stop stop-color="white"/>
<stop offset="1" stop-color="#DADBDE"/>
</linearGradient>
<linearGradient id="paint18_linear_110_69" x1="93.4643" y1="96.0883" x2="86.5619" y2="90.8406" gradientUnits="userSpaceOnUse">
<stop stop-color="#B68649"/>
<stop offset="1" stop-color="#E9B879"/>
</linearGradient>
<linearGradient id="paint19_linear_110_69" x1="109.02" y1="104.581" x2="93.9132" y2="93.0215" gradientUnits="userSpaceOnUse">
<stop stop-color="#B68649"/>
<stop offset="1" stop-color="#E9B777"/>
</linearGradient>
</defs>
</svg>
