<svg width="306" height="168" viewBox="0 0 306 168" fill="none" xmlns="http://www.w3.org/2000/svg">
<path d="M40.2557 119.002L48.0243 126.77L40.9455 133.941C36.1709 129.338 35.6571 123.417 40.2557 119.002Z" fill="#FFE500"/>
<path d="M294.227 34.4401C290.238 30.7481 290.776 26.1227 293.951 22.9479C297.214 19.684 301.619 18.748 305.625 23.2283" fill="#FF1378"/>
<path d="M5.87743 164.477C1.89714 160.776 2.445 156.152 5.62703 152.984C8.89827 149.728 13.3051 148.802 17.3005 153.291" fill="#FF6B00"/>
<path d="M22.9887 2.00011L20 4.98877L37.0124 22.0011L40.001 19.0125L22.9887 2.00011Z" fill="#AA0BF0"/>
<path d="M276 74.227L277.094 78.3096L300.333 72.0826L299.239 68L276 74.227Z" fill="#AA0BF0"/>
<path d="M0 68.9998L0 76.8027H23.0838V68.9998H0Z" fill="#22DA4A"/>
<path d="M271.518 146L266 151.518L282.323 167.84L287.84 162.323L271.518 146Z" fill="#22DA4A"/>
<path d="M255 2.98866L252.012 0L234.999 17.0124L237.988 20.001L255 2.98866Z" fill="#39CCEC"/>
</svg>
