<svg width="948" height="339" viewBox="0 0 948 339" fill="none" xmlns="http://www.w3.org/2000/svg">
<path d="M247.927 174.006L271.821 197.9L250.049 219.956C235.363 205.798 233.783 187.584 247.927 174.006Z" fill="#FFE500"/>
<path d="M912.117 93.9146C899.849 82.5589 901.502 68.3322 911.267 58.5673C921.305 48.5286 934.853 45.6495 947.174 59.43" fill="#FF1378"/>
<path d="M100.19 337.876C87.9479 326.493 89.6329 312.27 99.4201 302.527C109.482 292.511 123.036 289.663 135.325 303.472" fill="#FF6B00"/>
<path d="M109.192 -5.1856e-06L100 9.19238L152.326 61.5183L161.518 52.3259L109.192 -5.1856e-06Z" fill="#AA0BF0"/>
<path d="M846.338 205.057L849.703 217.614L921.182 198.461L917.817 185.904L846.338 205.057Z" fill="#AA0BF0"/>
<path d="M0 186L0 210H71V186H0Z" fill="#22DA4A"/>
<path d="M751.971 266L735 282.971L785.205 333.175L802.175 316.205L751.971 266Z" fill="#22DA4A"/>
<path d="M843.519 15.1924L834.326 6L782 58.3259L791.193 67.5183L843.519 15.1924Z" fill="#39CCEC"/>
</svg>
