<svg width="292" height="302" viewBox="0 0 292 302" fill="none" xmlns="http://www.w3.org/2000/svg">
<path d="M154.39 41.052C151.732 32.7858 151.533 31.7492 153.314 31.1312C155.095 30.5133 159.606 39.9024 160.118 41.052C161.906 44.6702 163.283 48.477 164.225 52.4014C165.015 56.0693 166.052 64.5149 166.218 66.5482C166.922 75.1333 152.769 77.7448 152.151 71.0667C151.533 64.3886 151.486 62.2291 151.486 62.2291C151.486 62.2291 144.177 62.8936 143.154 57.4581C142.13 52.0226 142.416 44.5671 142.416 44.5671C142.416 44.5671 131.306 42.7265 131.691 39.7961C132.077 36.8657 153.819 42.7863 153.819 42.7863L154.39 41.052Z" fill="#FEBD9D"/>
<path d="M142.416 44.5677C142.416 44.5677 131.306 42.7271 131.691 39.7967C132.077 36.8663 153.819 42.7869 153.819 42.7869L154.39 41.0725C151.732 32.8063 151.533 31.7697 153.314 31.1517C155.095 30.5338 159.606 39.9229 160.118 41.0725" stroke="#934735" stroke-width="0.75" stroke-linecap="round" stroke-linejoin="round"/>
<path d="M153.817 42.7671C152.863 46.4303 153.016 50.2941 154.256 53.8706" stroke="#934735" stroke-width="0.75" stroke-linecap="round" stroke-linejoin="round"/>
<path d="M115.268 27.4005L142.473 54.6054C144.061 56.1935 146.636 56.1935 148.224 54.6054L166.948 35.8815C168.536 34.2933 168.536 31.7185 166.948 30.1304L139.743 2.92542C138.155 1.3373 135.58 1.3373 133.992 2.92542L115.268 21.6494C113.68 23.2375 113.68 25.8123 115.268 27.4005Z" fill="#F9F9F9" stroke="#DDDDDD" stroke-linecap="round" stroke-linejoin="round"/>
<path d="M143.246 52.2289C140.967 52.7538 140.322 54.9267 142.003 56.3686C143.811 57.9235 148.263 57.2324 148.469 55.2456C148.675 53.2588 145.146 51.797 143.246 52.2289Z" fill="#FEBD9D" stroke="#934735" stroke-width="0.75" stroke-linecap="round" stroke-linejoin="round"/>
<path d="M143.04 48.6676C140.701 48.322 140.129 50.661 141.797 52.4551C143.465 54.2492 148.973 54.6546 149.286 52.5216C149.598 50.3886 144.475 48.8802 143.04 48.6676Z" fill="#FEBD9D" stroke="#934735" stroke-width="0.75" stroke-linecap="round" stroke-linejoin="round"/>
<path d="M140.966 44.6735C143.903 44.009 150.269 48.2949 150.009 49.6305C149.697 51.3117 146.687 51.5642 142.448 49.7634C138.467 48.0757 139.531 45.0124 140.966 44.6735Z" fill="#FEBD9D" stroke="#934735" stroke-width="0.75" stroke-linecap="round" stroke-linejoin="round"/>
<path d="M282.349 77.0545C273.232 76.6093 265.683 84.8289 263.344 94.2779C263.278 94.5437 263.218 94.8294 263.165 95.1417C262.916 96.596 262.741 98.062 262.64 99.534C261.67 112.006 262.587 136.811 262.68 137.41C262.713 137.616 256.228 137.41 247.231 136.984C243.908 136.831 240.267 136.665 236.466 136.473C217.143 135.522 194.192 134.24 194.192 134.24L192.796 118.718C192.796 118.718 189.906 123.608 180.018 133.157C170.131 142.705 154.323 137.383 156.024 125.376C157.087 117.834 161.539 112.319 166.935 103.082C168.602 100.225 170.363 97.0156 172.131 93.2745C174.496 88.3042 176.782 83.5598 178.988 79.2738C179.952 77.3867 180.902 75.586 181.826 73.8982C185.294 67.4992 188.404 62.6551 190.909 60.3892C198.438 53.5716 214.571 57.4987 218.871 58.8808C225.275 60.9656 231.921 62.2184 238.646 62.6086C248.181 63.2731 262.66 67.3862 270.328 70.0575C274.751 71.5423 278.822 73.9193 282.289 77.0412L282.349 77.0545Z" fill="#2BDA88"/>
<path d="M288.767 91.2014C280.421 82.8289 267.749 79.1742 255.031 90.5369C240.239 103.714 228.89 106.006 212.251 86.7626C200.218 72.8085 196.045 69.2933 181.825 73.9248C185.293 67.5258 188.403 62.6817 190.908 60.4158C198.437 53.5982 214.57 57.5253 218.87 58.9075C225.276 60.9832 231.922 62.2271 238.645 62.6086C248.18 63.2731 262.659 67.3863 270.327 70.0575C274.75 71.5424 278.821 73.9193 282.288 77.0412C285.624 79.6726 287.571 84.9353 288.767 91.2014Z" fill="#30EE95"/>
<path d="M178.749 115.149C173.433 120.916 168.656 108.411 166.935 103.082C168.602 100.224 170.363 97.0149 172.131 93.2739C174.496 88.3035 176.782 83.5591 178.988 79.2732C182.909 85.2535 177.613 90.7555 177.241 93.4666C176.271 100.716 186.371 106.869 178.749 115.149Z" fill="#28C079"/>
<path d="M145.432 70.7083C153.645 72.4426 166.396 64.7678 166.396 64.7678C166.396 64.7678 173.42 96.1381 175.254 103.095C177.088 110.052 188.822 137.303 165.951 138.419C151.272 139.137 150.289 111.235 149.419 102.052C148.548 92.8688 145.432 70.7083 145.432 70.7083Z" fill="#2BDA88"/>
<path d="M150.874 74.2968C157.193 74.742 164.23 70.4893 164.23 70.4893" stroke="#178C55" stroke-width="0.75" stroke-linecap="round" stroke-linejoin="round"/>
<path d="M166.396 64.7678C166.396 64.7678 173.42 96.1381 175.254 103.095C176.257 106.889 180.204 116.724 179.872 125.063" stroke="#178C55" stroke-width="0.75" stroke-linecap="round" stroke-linejoin="round"/>
<path d="M212.252 63.9639C216.346 71.5589 227.203 78.8616 240.307 68.7814C240.307 68.7814 241.716 64.5951 241.569 64.5951C241.423 64.5951 214.106 61.2727 214.106 61.2727L212.252 63.9639Z" fill="white"/>
<path d="M223.037 54.5817C219.661 53.8175 214.771 54.6747 211.395 59.8577C208.019 65.0406 207.587 69.3133 207.78 69.2668C207.973 69.2202 213.096 65.9842 215.388 66.2234C217.681 66.4626 222.817 67.9777 222.817 67.9777L223.037 54.5817Z" fill="#FED81D"/>
<path d="M238.246 56.103C238.246 56.103 245.708 56.1495 246.705 61.379C247.701 66.6085 244.951 72.8812 241.575 75.7784C238.199 78.6755 240.053 71.5921 227.933 68.2697L238.246 56.103Z" fill="#FED81D"/>
<path d="M241.887 62.2166C241.887 62.2166 237.74 68.5159 228.504 68.6554C219.268 68.795 217.494 63.2931 217.494 63.2931C218.497 60.7946 219.7 55.4654 220.471 51.731C220.962 49.3721 221.281 47.6445 221.281 47.6445C221.281 47.6445 222.81 32.8531 238.664 33.7435L238.937 36.1688L241.887 62.2166Z" fill="#FEBD9D"/>
<path d="M220.472 51.877C220.963 49.5247 221.282 47.7904 221.282 47.7904L230.306 43.5576C230.306 43.5576 231.735 53.8704 220.472 51.877Z" fill="#F4A789"/>
<path d="M192.795 118.717C191.52 104.152 191.52 92.3572 191.52 92.3572" stroke="#178C55" stroke-width="0.75" stroke-linecap="round" stroke-linejoin="round"/>
<path d="M253.045 154.14C252.271 153.858 251.533 153.486 250.846 153.031C246.194 149.981 245.829 144.04 247.231 136.957C248.321 131.535 250.46 125.448 252.547 119.481C254.932 112.677 257.264 106.038 257.922 100.723C258.015 99.9783 258.069 99.2673 258.095 98.5895C258.222 94.5135 258.968 90.4805 260.308 86.6288C264.122 75.9041 272.435 69.1529 282.322 77.0536C285.598 79.6717 287.545 84.9344 288.741 91.2005C289.166 93.4398 289.499 95.812 289.771 98.2307C290.675 106.444 290.808 115.275 291.213 121.853C293.213 153.702 285.578 166.42 253.045 154.14Z" fill="#2BDA88"/>
<path d="M288.767 91.2003C281.584 83.9973 271.185 80.2829 260.321 86.6154C264.135 75.8906 272.448 69.1395 282.335 77.0402C285.624 79.6716 287.571 84.9343 288.767 91.2003Z" fill="#30EE95"/>
<path d="M262.68 137.382C262.713 137.588 256.228 137.382 247.231 136.957C243.908 136.804 240.267 136.638 236.466 136.445C229.967 133.521 225.927 129.289 229.389 123.222C238.812 106.736 256.121 129.574 257.025 113.255C257.637 102.065 260.348 99.6327 262.64 99.5596C261.67 112.005 262.567 136.811 262.68 137.382Z" fill="#28C079"/>
<path d="M264.893 89.4131C263.602 92.6432 262.841 96.0605 262.64 99.5332C261.776 112.012 262.587 136.811 262.68 137.409" stroke="#178C55" stroke-width="0.75" stroke-linecap="round" stroke-linejoin="round"/>
<path d="M253.044 154.14C252.27 153.858 251.532 153.486 250.845 153.031C258.3 154.632 269.45 156.074 274.361 151.881C282.102 145.29 277.185 136.837 281.464 132.186C285.743 127.535 291.916 126.033 289.797 98.2507C290.7 106.464 290.833 115.295 291.239 121.873C293.212 153.702 285.577 166.42 253.044 154.14Z" fill="#28C079"/>
<path d="M234.399 98.2308C235.582 92.9149 228.897 93.1475 228.897 93.1475C229.488 88.2436 222.99 86.8814 221.488 91.6723C216.205 90.0776 214.537 91.6723 213.767 94.4499L234.399 98.2308Z" fill="#DDDDDD"/>
<path d="M225.388 93.6594C226.258 93.6594 226.963 92.9543 226.963 92.0846C226.963 91.2148 226.258 90.5098 225.388 90.5098C224.519 90.5098 223.813 91.2148 223.813 92.0846C223.813 92.9543 224.519 93.6594 225.388 93.6594Z" fill="#F9F9F9" stroke="#DDDDDD" stroke-linecap="round" stroke-linejoin="round"/>
<path d="M203.734 90.5022L193.873 143.973L233.024 151.881L243.543 98.3365L203.734 90.5022Z" fill="#F9F9F9" stroke="#DDDDDD" stroke-linecap="round" stroke-linejoin="round"/>
<path d="M215.794 125.932C213.8 131.135 213.681 136.603 214.598 138.431C214.598 138.431 218.332 139.129 222.067 128.995L215.794 125.932Z" fill="#28C079"/>
<path d="M220.863 115.872C211.906 112.796 207.627 110.935 206.012 110.496C204.397 110.058 198.563 109.566 197.633 110.496C196.703 111.427 196.636 112.61 196.968 113.819C197.301 115.028 196.304 115.965 196.164 117.214C196.025 118.464 197.527 118.842 197.221 120.085C196.915 121.328 195.892 122.69 196.596 124.072C197.301 125.454 195.932 126.863 197.221 128.537C198.51 130.212 211.72 131.022 214.617 130.404L220.305 132.949C220.305 132.949 230.312 122.67 220.863 115.872Z" fill="#FEBD9D"/>
<path d="M206.012 110.497C204.397 110.065 198.563 109.566 197.633 110.497C196.703 111.427 196.636 112.61 196.968 113.819C197.301 115.028 196.304 115.965 196.164 117.215C196.025 118.464 197.527 118.843 197.221 120.085C196.915 121.328 195.892 122.69 196.596 124.072C197.301 125.454 195.932 126.863 197.221 128.537" stroke="#934735" stroke-width="0.75" stroke-linecap="round" stroke-linejoin="round"/>
<path d="M274.368 151.874C272.036 156.086 266.202 158.113 255.098 154.771C252.108 153.867 249.224 152.93 246.46 151.98C241.889 150.412 237.669 148.81 233.888 147.275C227.3 144.657 220.851 141.702 214.565 138.424C216.235 136.583 217.583 134.474 218.552 132.185C219.156 130.83 219.654 129.431 220.04 127.999C221.072 124.041 221.35 119.925 220.858 115.865C222.366 116.317 223.987 116.782 225.695 117.247C229.821 118.377 234.446 119.546 239.131 120.776C253.171 124.477 267.777 128.716 271.332 133.986C271.657 134.471 271.996 134.956 272.262 135.461C272.375 135.66 272.495 135.86 272.601 136.066C272.634 136.116 272.663 136.17 272.687 136.225C272.82 136.464 272.946 136.71 273.066 136.949C273.292 137.381 273.491 137.813 273.684 138.245C275.777 143.043 276.369 148.265 274.368 151.874Z" fill="#2BDA88"/>
<path d="M220.862 115.873C236.943 120.717 266.1 126.238 271.363 133.993C272.276 135.338 273.063 136.764 273.715 138.252" stroke="#178C55" stroke-width="0.75" stroke-linecap="round" stroke-linejoin="round"/>
<path d="M225.695 117.248C226.692 127.328 221.489 137.003 221.489 137.003" stroke="#178C55" stroke-width="0.75" stroke-linecap="round" stroke-linejoin="round"/>
<path d="M274.361 151.881C272.029 156.093 266.195 158.12 255.091 154.778C252.101 153.874 249.217 152.937 246.453 151.987C252.972 153.701 268.328 157.017 274.361 151.881Z" fill="#28C079"/>
<path d="M238.645 33.8689L238.917 36.2876C233.302 45.0455 225.628 47.8031 221.262 47.7632C214.046 45.9625 211.58 39.4638 211.162 32.4801C211.059 30.8249 211.059 29.1649 211.162 27.5098C211.484 22.7794 212.281 18.0934 213.541 13.5224C213.541 13.5224 235.216 3.43551 236.718 23.6823C236.718 23.6823 241.369 22.8318 242.226 28.0015C242.957 32.294 238.645 33.8689 238.645 33.8689Z" fill="#FEBD9D"/>
<path d="M214.643 27.536C215.12 27.536 215.507 27.1493 215.507 26.6722C215.507 26.1951 215.12 25.8083 214.643 25.8083C214.166 25.8083 213.779 26.1951 213.779 26.6722C213.779 27.1493 214.166 27.536 214.643 27.536Z" fill="#683F1D"/>
<path d="M220.678 26.4332C221.155 26.4332 221.542 26.0465 221.542 25.5694C221.542 25.0923 221.155 24.7056 220.678 24.7056C220.201 24.7056 219.814 25.0923 219.814 25.5694C219.814 26.0465 220.201 26.4332 220.678 26.4332Z" fill="#683F1D"/>
<path d="M219.375 20.9112C219.468 22.0939 223.508 22.5524 223.741 21.8813C224.066 20.8713 219.143 18.1403 219.375 20.9112Z" fill="#604730"/>
<path d="M211.661 22.6787C211.661 23.3432 216.053 23.6156 215.893 21.3497C215.787 19.7085 211.754 20.8979 211.661 22.6787Z" fill="#604730"/>
<path d="M235.595 30.1007C237.402 27.4428 240.246 27.7219 240.558 28.2269" stroke="#934735" stroke-width="0.75" stroke-linecap="round" stroke-linejoin="round"/>
<path d="M236.366 29.1913C239.024 27.6231 240.486 31.1382 237.11 31.1382" stroke="#934735" stroke-width="0.75" stroke-linecap="round" stroke-linejoin="round"/>
<path d="M216.977 24.1602C217.708 25.5755 217.642 26.4327 217.163 27.343C216.685 28.2534 215.216 30.3266 215.981 32.1672" stroke="#934735" stroke-width="0.75" stroke-linecap="round" stroke-linejoin="round"/>
<path d="M221.707 32.48C221.043 34.6794 218.425 36.0549 217.208 35.8024C217.208 35.8024 218.464 39.2112 220.677 38.3407C223.222 37.3108 221.707 32.48 221.707 32.48Z" fill="white" stroke="#934735" stroke-width="0.75" stroke-linecap="round" stroke-linejoin="round"/>
<path d="M235.197 33.2307C235.695 33.5815 236.262 33.8223 236.86 33.9368C237.458 34.0514 238.074 34.0372 238.666 33.8952" stroke="#934735" stroke-width="0.75" stroke-linecap="round" stroke-linejoin="round"/>
<path d="M243.077 21.6158C245.562 25.0313 241.821 26.5131 241.821 26.5131C241.444 25.9538 240.944 25.4879 240.359 25.1509C239.992 24.9342 239.582 24.8014 239.157 24.762C238.733 24.7226 238.305 24.7776 237.904 24.9231C237.503 25.0685 237.14 25.3008 236.839 25.6032C236.539 25.9057 236.309 26.2708 236.166 26.6725C231.07 26.7789 233.269 22.7986 233.269 22.7986C228.698 24.6259 228.551 19.9413 230.518 17.8283C226.95 21.8152 222.418 17.8283 223.156 14.2201C221.893 18.1605 217.395 18.3133 217.993 15.0441C217.607 15.7158 217.138 16.3364 216.597 16.8913C213.507 20.0011 210.73 16.6787 211.899 14.2334C207.248 18.6589 205.255 13.7085 209.673 11.0505C206.172 8.17996 210.338 4.08674 213.135 6.21309C212.471 1.1165 217.734 0.897218 220.039 3.86746C220.943 -1.72749 227.933 1.32913 228.212 3.98042C233.362 0.378919 237.349 3.03021 236.851 8.88431C238.931 6.10013 243.389 7.73476 241.675 14.8647C245.954 14.559 246.678 19.8682 243.077 21.6158Z" fill="#604730"/>
<path d="M240.359 25.1503C239.992 24.9336 239.581 24.8008 239.157 24.7614C238.732 24.722 238.304 24.777 237.903 24.9224C237.503 25.0679 237.139 25.3001 236.839 25.6026C236.538 25.9051 236.309 26.2702 236.166 26.6719C231.069 26.7782 233.269 22.798 233.269 22.798C228.697 24.6253 228.551 19.9407 230.518 17.8276C226.949 21.8146 222.418 17.8276 223.155 14.2195C221.893 18.1599 217.394 18.3127 217.992 15.0435C217.606 15.7151 217.137 16.3357 216.597 16.8907C215.348 13.1098 218.145 8.11954 222.418 10.3788C222.983 7.33545 229.966 5.36194 229.926 13.0367C232.511 9.42858 238.365 10.6645 235.594 17.5486C237.774 15.9206 242.784 18.738 240.359 25.1503Z" fill="#473526"/>
<path d="M230.97 26.4867C231.588 27.7226 230.425 29.55 228.379 30.5799C226.332 31.6099 224.166 31.4371 223.548 30.2012C222.93 28.9652 224.086 27.1379 226.139 26.1079C228.192 25.078 230.352 25.2508 230.97 26.4867Z" fill="#FEBD9D"/>
<path d="M213.873 31.1846C213.554 32.0551 212.484 32.5135 211.169 32.5135C211.066 30.8584 211.066 29.1984 211.169 27.5432C213.122 28.3738 214.325 29.9486 213.873 31.1846Z" fill="#FEBD9D"/>
<path d="M58.8058 205.733C59.1399 205.755 59.4752 205.755 59.8093 205.733C64.9681 205.272 67.986 199.645 68.7294 195.326C69.4727 190.732 71.9183 189.952 73.3975 188.554C74.8768 187.157 76.854 185.046 75.7093 181.545C74.5645 178.044 72.617 171.227 78.6158 171.093C81.656 171.019 83.4177 168.507 84.4063 166.046C85.0028 164.504 85.4024 162.893 85.5957 161.252C75.6276 156.346 70.8776 159.148 66.7521 163.273C62.6266 167.399 64.9012 171.331 62.7009 176.691C60.4709 182.184 51.6475 182.823 51.1792 190.814C50.7109 198.805 53.0449 205.495 58.8058 205.733Z" fill="#604730"/>
<path d="M58.5005 201.214C58.8129 202.746 59.2505 204.25 59.8088 205.711C64.9675 205.25 67.9855 199.623 68.7288 195.304C69.4721 190.71 71.9177 189.93 73.3969 188.532C74.8762 187.135 76.8534 185.024 75.7087 181.523C74.564 178.021 72.6165 171.205 78.6152 171.071C81.6554 170.997 83.4171 168.484 84.4058 166.024C74.393 161.475 69.2268 164.121 68.3869 168.031C67.48 172.209 74.1998 177.635 68.3869 182.801C62.574 187.967 55.4825 187.187 58.5005 201.214Z" fill="#473526"/>
<path d="M88.4097 219.721C96.5864 220.167 100.868 214.771 100.593 211.262C100.452 209.538 100.125 205.219 99.7679 200.231C99.4483 195.831 99.0989 190.895 98.8239 186.717C98.7793 186.033 98.7347 185.364 98.6975 184.725C97.8055 170.535 83.9868 166.35 82.4556 182.815C81.9575 188.152 79.6235 196.514 78.1145 203.628C76.5535 210.905 80.2256 219.275 88.4097 219.721Z" fill="#FEBD9D"/>
<path d="M99.7974 200.231C99.4777 195.83 99.1283 190.895 98.8533 186.717L89.7474 184.398C87.5769 192.084 90.4165 199.963 99.7974 200.231Z" fill="#F4A789"/>
<path d="M39.8557 217.365C39.93 220.131 40.1531 223.015 40.4727 225.929C41.2829 233.362 42.7027 241.07 43.6765 247.53C44.4198 252.503 44.9179 256.755 44.6651 259.632C44.2563 264.352 43.8102 270.782 43.4237 276.803C42.8067 286.399 42.331 295.163 42.331 295.163H98.0813C98.0813 295.163 120.827 261.601 124.232 246.512C125.994 238.714 126.365 232.18 125.719 226.702C125.247 222.158 123.756 217.78 121.355 213.894C117.178 207.338 107.232 203.16 99.7984 200.923C100.051 205.323 101.047 211.835 91.8224 210.921C82.5976 210.006 78.8289 203.101 79.6763 196.649C66.7868 194.218 49.6306 193.043 44.3603 198.708C43.6249 199.509 42.9976 200.404 42.4945 201.369C41.6053 203.095 40.967 204.94 40.599 206.847C39.9521 210.314 39.7027 213.842 39.8557 217.365Z" fill="#FED81D"/>
<path d="M40.6065 206.869C48.7832 207.308 57.2944 210.839 60.0448 218.763C60.2499 219.354 60.4187 219.957 60.5502 220.569C60.8188 221.849 61.2276 223.096 61.7693 224.286C66.9727 235.889 83.1328 236.551 95.7621 228.441C106.362 221.64 112.48 217.982 125.696 226.687C125.229 222.15 123.746 217.778 121.355 213.894C117.178 207.338 107.232 203.16 99.7984 200.923C100.051 205.323 101.047 211.835 91.8224 210.921C82.5976 210.006 78.8289 203.101 79.6763 196.649C66.7868 194.218 49.6306 193.043 44.3603 198.708C43.6249 199.509 42.9976 200.404 42.4946 201.369C41.6059 203.103 40.9701 204.955 40.6065 206.869Z" fill="#FFE05C"/>
<path d="M109.046 219.744L106.481 232.611" stroke="#F7AD2B" stroke-width="0.75" stroke-linecap="round" stroke-linejoin="round"/>
<path d="M44.6646 259.632C44.2557 264.352 43.8097 270.782 43.4232 276.803C47.0878 273.881 52.7297 268.284 50.2098 263.058C46.5898 255.551 48.7232 251.291 53.6069 247.731C58.4906 244.17 58.8846 241.353 55.0044 229.764C51.1241 218.176 40.4721 225.921 40.4721 225.921C41.2824 233.355 42.7021 241.063 43.6759 247.523C44.4267 252.503 44.9173 256.755 44.6646 259.632Z" fill="#FCC71F"/>
<path d="M-8.58307e-05 266.901C-8.58307e-05 274.974 5.67903 281.619 12.9786 282.511C13.5112 282.577 14.0475 282.609 14.5842 282.608C22.642 282.608 29.1685 275.591 29.1685 266.931C29.1685 258.271 22.642 251.246 14.5842 251.246C11.561 251.252 8.62325 252.25 6.22164 254.086C4.26674 255.598 2.68795 257.541 1.60863 259.764C0.529318 261.987 -0.0212727 264.43 -8.58307e-05 266.901Z" fill="#FED81D"/>
<path d="M0.000364304 266.902C0.000364304 274.974 5.67948 281.62 12.979 282.512C13.9454 271.421 11.4255 260.762 6.22209 254.087C4.26719 255.598 2.6884 257.542 1.60908 259.765C0.529768 261.988 -0.0208225 264.431 0.000364304 266.902Z" fill="#FCC71F"/>
<path d="M38.3665 210.824C38.3647 213.088 38.8728 215.324 39.8531 217.365C41.1578 220.035 43.1891 222.283 45.7136 223.85C48.2382 225.418 51.1537 226.241 54.1252 226.226C55.3767 226.228 56.6242 226.084 57.8419 225.795C59.2155 225.477 60.5405 224.977 61.7816 224.308C64.226 223.004 66.2719 221.063 67.7023 218.69C69.1327 216.317 69.8943 213.602 69.9062 210.831C69.8475 206.7 68.1535 202.761 65.1954 199.877C62.2373 196.993 58.2564 195.399 54.1252 195.444C50.6008 195.434 47.1729 196.595 44.3801 198.745C42.7334 200.012 41.3582 201.597 40.3363 203.405C39.7218 204.486 39.2472 205.64 38.924 206.84C38.5585 208.136 38.3709 209.477 38.3665 210.824Z" fill="#FED81D"/>
<path d="M37.3563 206.862C37.8766 206.862 38.4044 206.825 38.9396 206.825C39.4748 206.825 40.0694 206.825 40.6344 206.87C48.8111 207.308 57.3223 210.839 60.0727 218.763C60.2778 219.354 60.4466 219.957 60.5781 220.569C60.8467 221.849 61.2555 223.096 61.7972 224.286C64.2416 222.982 66.2875 221.041 67.7179 218.668C69.1483 216.295 69.9099 213.58 69.9219 210.809C69.8573 206.679 68.1586 202.744 65.1979 199.864C62.2373 196.984 58.2559 195.395 54.126 195.444C50.6016 195.434 47.1736 196.595 44.3808 198.745C42.7341 200.012 41.359 201.597 40.3371 203.406C39.5417 204.223 38.5308 205.405 37.3563 206.862Z" fill="#FFE05C"/>
<path d="M10.5969 274.461C15.3691 274.766 21.9105 271.859 30.0054 263.058C34.8074 257.855 39.4904 252.652 43.6828 247.53C49.8079 240.097 54.8998 232.767 57.8062 225.795C58.7829 223.539 59.53 221.191 60.0362 218.785C61.1662 213.794 60.4837 208.564 58.111 204.03C55.9553 199.979 49.2876 196.173 42.5009 201.391C41.7189 201.994 40.9903 202.663 40.3229 203.391C39.5796 204.223 38.5315 205.405 37.3496 206.862C32.0124 213.351 23.0552 225.341 15.4137 236.595C8.23306 247.225 2.2269 257.231 1.52816 261.423C0.561825 267.109 3.78791 274.03 10.5969 274.461Z" fill="#FED81D"/>
<path d="M37.3589 206.862C37.8793 206.862 38.407 206.825 38.9422 206.825C39.4774 206.825 40.0721 206.825 40.637 206.869C48.8137 207.308 57.325 210.839 60.0753 218.763C61.2053 213.772 60.5228 208.541 58.15 204.007C55.9944 199.956 49.3266 196.15 42.54 201.369C41.758 201.971 41.0293 202.64 40.362 203.368C39.5443 204.223 38.5334 205.405 37.3589 206.862Z" fill="#FFE05C"/>
<path d="M29.9965 263.088C34.7985 257.885 39.4815 252.681 43.6739 247.56C49.799 240.126 54.8909 232.797 57.7973 225.825C58.774 223.569 59.5211 221.22 60.0273 218.815" stroke="#F7AD2B" stroke-width="0.75" stroke-linecap="round" stroke-linejoin="round"/>
<path d="M10.5973 274.461C9.21207 273.158 8.00485 271.679 7.00696 270.06C1.5137 261.452 21.4054 247.939 15.4067 236.61C8.22603 247.24 2.21987 257.245 1.52113 261.438C0.562227 267.109 3.78833 274.03 10.5973 274.461Z" fill="#FCC71F"/>
<path d="M72.5383 214.053L72.6276 248.515L83.9957 248.481L98.8257 248.448L98.7587 223.031L98.7363 213.986L82.0303 213.919L72.5383 214.053Z" fill="url(#paint0_linear_12_356)"/>
<path d="M98.7363 213.975L93.9568 206.85L77.7645 206.895L82.0638 214.019L98.7363 213.975Z" fill="url(#paint1_linear_12_356)"/>
<path d="M77.7632 206.895L72.537 214.053L82.0625 214.019L77.7632 206.895Z" fill="#B1BEE3"/>
<path d="M72.5355 214.053L72.6248 248.515L82.1504 248.492L82.061 214.02L72.5355 214.053Z" fill="url(#paint2_linear_12_356)"/>
<path d="M93.9575 206.85L77.7652 206.895V206.56C77.7652 205.242 78.8261 204.17 80.1438 204.17L91.5678 204.136C92.8855 204.136 93.9575 205.197 93.9575 206.515V206.85Z" fill="url(#paint3_linear_12_356)"/>
<path d="M98.7565 224.394L82.0951 224.439L82.1063 230.614L98.7788 230.57L98.7565 224.394Z" fill="url(#paint4_linear_12_356)"/>
<path d="M72.5726 224.461L72.5838 230.636L82.1094 230.614L82.0982 224.438L72.5726 224.461Z" fill="url(#paint5_linear_12_356)"/>
<path d="M103.343 209.486H112.947V232.378H103.343V209.486Z" fill="url(#paint6_linear_12_356)"/>
<path d="M105.176 199.939H108.091C111.854 199.939 114.892 202.987 114.892 206.739V211.608H109.085C107.756 211.608 106.684 212.68 106.684 214.009C106.684 215.338 107.756 216.41 109.085 216.41H114.892V223.334H109.085C107.756 223.334 106.684 224.406 106.684 225.735C106.684 227.064 107.756 228.136 109.085 228.136H114.892V241.48H98.3643V206.739C98.3754 202.987 101.424 199.939 105.176 199.939Z" fill="url(#paint7_linear_12_356)"/>
<path d="M132.374 214.68C132.374 214.68 149.46 208.024 145.73 203.01C141.989 197.985 131.681 213.161 131.681 213.161L132.374 214.68Z" fill="#3BC49A"/>
<path d="M130.842 213.54C130.842 213.54 129.96 195.214 136.057 196.588C142.176 197.961 132.506 213.551 132.506 213.551L130.842 213.54Z" fill="#3BC49A"/>
<path d="M131.212 214.836C131.212 214.836 138.817 190.19 145.886 194.757C152.296 198.911 132.854 215.327 132.854 215.327L131.212 214.836Z" fill="#44D0A7"/>
<path d="M108.028 247.924C108.441 247.879 108.866 247.7 109.257 247.365L111.892 245.121L111.903 245.109L117.487 240.341L118.514 239.459L125.951 233.116L127.392 231.888L132.216 227.778C132.696 227.365 133.143 226.907 133.545 226.427C133.88 226.025 134.193 225.6 134.461 225.154C135.846 222.931 136.393 220.274 135.812 217.683C135.321 215.505 134.182 213.774 132.674 212.591C132.518 212.468 132.35 212.345 132.183 212.233C129.949 210.726 127.035 210.313 124.221 211.251C123.517 211.485 122.858 211.809 122.244 212.2C120.524 213.283 119.173 214.914 118.347 216.801L117.654 218.331L116.928 219.939L113.299 227.934L112.64 229.386L108.363 238.8L107.972 239.671L105.683 244.719C104.857 246.494 106.42 248.125 108.028 247.924Z" fill="url(#paint8_linear_12_356)"/>
<path opacity="0.1" d="M111.894 245.109L132.218 227.778C135.144 225.276 136.662 221.401 135.825 217.682C135.333 215.505 134.194 213.774 132.687 212.59C132.53 212.467 132.363 212.345 132.195 212.233C131.916 222.406 118.728 237.806 111.894 245.109Z" fill="black"/>
<path opacity="0.1" d="M122.248 212.2L128.367 216.12L124.224 211.262C123.521 211.497 122.862 211.809 122.248 212.2Z" fill="black"/>
<path opacity="0.1" d="M127.795 220.944L133.546 226.439C133.881 226.037 134.194 225.612 134.462 225.166L127.795 220.944Z" fill="black"/>
<path opacity="0.1" d="M116.92 219.949L122.458 223.366L117.657 218.33L116.92 219.949Z" fill="black"/>
<path opacity="0.1" d="M121.474 228.56L125.952 233.116L127.393 231.899L121.474 228.56Z" fill="black"/>
<path opacity="0.1" d="M112.631 229.409L116.438 231.173L113.289 227.946L112.631 229.409Z" fill="black"/>
<path opacity="0.1" d="M113.924 236.5L117.486 240.341L118.514 239.47L113.924 236.5Z" fill="black"/>
<path opacity="0.1" d="M107.949 239.682L110.428 241.045L108.34 238.822L107.949 239.682Z" fill="black"/>
<path d="M137.066 225.79C137.066 225.79 149.35 220.999 146.67 217.403C143.979 213.785 136.575 224.706 136.575 224.706L137.066 225.79Z" fill="#3BC49A"/>
<path d="M135.959 224.964C135.959 224.964 135.322 211.798 139.7 212.78C144.099 213.763 137.142 224.975 137.142 224.975L135.959 224.964Z" fill="#3BC49A"/>
<path d="M136.228 225.902C136.228 225.902 141.7 208.18 146.77 211.474C151.382 214.456 137.401 226.259 137.401 226.259L136.228 225.902Z" fill="#44D0A7"/>
<path d="M119.566 249.677C119.867 249.643 120.169 249.509 120.448 249.275L122.346 247.656C122.346 247.656 122.346 247.656 122.358 247.656L126.378 244.227L127.115 243.591L132.464 239.035L133.491 238.152L136.953 235.193C137.299 234.892 137.623 234.568 137.913 234.222C138.159 233.931 138.382 233.63 138.572 233.306C139.566 231.709 139.968 229.799 139.544 227.934C139.198 226.371 138.371 225.131 137.288 224.272C137.176 224.182 137.054 224.093 136.931 224.015C135.323 222.932 133.223 222.63 131.213 223.311C130.711 223.479 130.23 223.713 129.795 223.992C128.555 224.774 127.595 225.947 126.992 227.298L126.489 228.403L125.965 229.565L123.351 235.316L122.871 236.366L119.8 243.133L119.521 243.758L117.88 247.388C117.288 248.649 118.404 249.822 119.566 249.677Z" fill="url(#paint9_linear_12_356)"/>
<path opacity="0.1" d="M122.347 247.656L136.954 235.193C139.065 233.395 140.148 230.603 139.545 227.935C139.199 226.371 138.372 225.132 137.289 224.272C137.177 224.182 137.054 224.093 136.932 224.015C136.731 231.341 127.25 242.407 122.347 247.656Z" fill="black"/>
<path opacity="0.1" d="M129.786 224.003L134.186 226.818L131.216 223.322C130.702 223.49 130.233 223.724 129.786 224.003Z" fill="black"/>
<path opacity="0.1" d="M133.781 230.291L137.913 234.233C138.159 233.942 138.382 233.641 138.572 233.317L133.781 230.291Z" fill="black"/>
<path opacity="0.1" d="M125.966 229.565L129.942 232.033L126.491 228.415L125.966 229.565Z" fill="black"/>
<path opacity="0.1" d="M129.227 235.763L132.454 239.035L133.481 238.164L129.227 235.763Z" fill="black"/>
<path opacity="0.1" d="M122.871 236.365L125.607 237.638L123.352 235.327L122.871 236.365Z" fill="black"/>
<path opacity="0.1" d="M123.81 241.47L126.367 244.228L127.104 243.603L123.81 241.47Z" fill="black"/>
<path opacity="0.1" d="M119.51 243.758L121.296 244.73L119.8 243.133L119.51 243.758Z" fill="black"/>
<path d="M71.1304 230.537V300.219H142.153V230.481L141.092 233.272L138.189 229.699L135.397 233.384L132.382 229.699L131.935 230.268L130.986 231.486L129.59 233.272L126.687 229.699L123.783 233.161L120.992 229.699L117.977 233.384L115.185 229.699L112.393 233.272L109.489 229.699L106.698 233.161L103.906 229.699L101.002 233.161L98.099 229.699L95.1956 233.161L92.4038 229.699L89.612 233.161L86.5969 229.699L83.6934 233.161L80.79 229.699L77.9982 233.272L75.0948 229.699L72.303 232.937L71.1304 230.537Z" fill="url(#paint10_linear_12_356)"/>
<path d="M130.986 231.486V300.219H142.153V230.481L141.092 233.272L138.189 229.699L135.397 233.384L132.382 229.699L131.935 230.268L130.986 231.486Z" fill="#EECA9D"/>
<path d="M120.992 229.699V300.219H131.936V230.268L129.591 233.272L126.687 229.699L123.784 233.161L120.992 229.699Z" fill="url(#paint11_linear_12_356)"/>
<path d="M120.992 300.219H142.153V300.174L131.88 286.372L120.992 300.219Z" fill="#E1AF72"/>
<path d="M84.8666 295.362C81.6904 295.362 79.1155 291.887 79.1155 287.601C79.1155 283.314 81.6904 279.84 84.8666 279.84C88.0428 279.84 90.6177 283.314 90.6177 287.601C90.6177 291.887 88.0428 295.362 84.8666 295.362Z" fill="url(#paint12_linear_12_356)"/>
<path d="M73.3075 295.418C70.1313 295.418 67.5565 291.943 67.5565 287.657C67.5565 283.37 70.1313 279.896 73.3075 279.896C76.4838 279.896 79.0586 283.37 79.0586 287.657C79.0586 291.943 76.4838 295.418 73.3075 295.418Z" fill="url(#paint13_linear_12_356)"/>
<path d="M97.0375 295.362C93.8613 295.362 91.2864 291.887 91.2864 287.601C91.2864 283.314 93.8613 279.84 97.0375 279.84C100.214 279.84 102.789 283.314 102.789 287.601C102.789 291.887 100.214 295.362 97.0375 295.362Z" fill="url(#paint14_linear_12_356)"/>
<path d="M105.414 295.362C102.238 295.362 99.6629 291.887 99.6629 287.601C99.6629 283.314 102.238 279.84 105.414 279.84C108.59 279.84 111.165 283.314 111.165 287.601C111.165 291.887 108.59 295.362 105.414 295.362Z" fill="url(#paint15_linear_12_356)"/>
<path d="M80.8481 295.362C77.6718 295.362 75.097 291.887 75.097 287.601C75.097 283.314 77.6718 279.84 80.8481 279.84C84.0243 279.84 86.5991 283.314 86.5991 287.601C86.5991 291.887 84.0243 295.362 80.8481 295.362Z" fill="url(#paint16_linear_12_356)"/>
<path d="M93.1293 295.362C89.9531 295.362 87.3782 291.887 87.3782 287.601C87.3782 283.314 89.9531 279.84 93.1293 279.84C96.3055 279.84 98.8804 283.314 98.8804 287.601C98.8804 291.887 96.3055 295.362 93.1293 295.362Z" fill="url(#paint17_linear_12_356)"/>
<path d="M64.6551 291.286V292.849L70.2386 300.219H74.7055L75.1522 298.879H76.9389L77.944 300.219H85.8726L86.9893 298.768H90.3395L91.3445 300.219H97.2631L98.3798 298.768H101.842L102.958 300.219H106.42L111.445 294.189V291.286H64.6551Z" fill="#B68649"/>
<path d="M64.6522 291.286V292.849L70.2358 300.219H74.7027L75.1493 298.879H76.9361L77.9411 300.219H80.9897L76.6792 291.286H64.6522Z" fill="url(#paint18_linear_12_356)"/>
<path d="M63.2578 289.332H113.175V292.012H63.2578V289.332Z" fill="url(#paint19_linear_12_356)"/>
<path d="M63.2577 289.332H78.2217V292.012H63.2577V289.332Z" fill="#B68649"/>
<path d="M79.4424 178.393L80.6094 178.237L82.7948 177.954L86.2067 177.508L105.95 174.929C108.782 172.178 109.837 171.442 110.269 170.394C110.466 169.841 110.567 169.257 110.566 168.67C110.707 166.157 110.499 159.125 101.965 156.576C101.185 156.344 100.391 156.162 99.5868 156.033C95.8413 155.508 92.0252 155.857 88.4367 157.051C88.4367 157.051 87.4184 155.29 82.4232 158.382C77.4279 161.474 71.7488 170.208 79.4424 178.393Z" fill="#604730"/>
<path d="M80.6081 178.237C80.727 179.359 80.8459 180.035 80.8459 180.035L82.9496 179.478C82.8827 178.958 82.8307 178.452 82.7935 177.991C81.448 162.307 90.9702 156.992 99.5854 156.078C95.84 155.553 92.0239 155.902 88.4354 157.096C79.7235 161.088 80.1249 173.561 80.6081 178.237Z" fill="white"/>
<path d="M86.2087 177.508L105.952 174.929C108.784 172.178 109.839 171.442 110.271 170.394C108.39 162.716 103.856 158.702 96.7492 158.501C88.1191 158.3 85.7998 165.451 85.1085 170.803C84.9345 173.094 85.3118 175.393 86.2087 177.508Z" fill="#473526"/>
<path d="M85.0839 182.116C90.8447 189.973 98.9843 194.01 103.4 191.445C106.306 189.736 107.726 185.298 107.979 180.191C108.063 178.456 108.023 176.717 107.86 174.988C107.77 173.977 107.637 172.973 107.473 171.977C106.143 163.972 100.783 158.501 91.6103 160.679C91.6103 160.679 94.212 167.064 90.0716 171.13C85.9312 175.196 82.6383 174.713 82.6383 174.713C82.6383 174.713 79.7541 174.237 78.5945 176.199C75.9111 180.793 81.3151 184.398 85.0839 182.116Z" fill="#FEBD9D"/>
<path d="M99.5854 172.669C99.5869 172.847 99.5352 173.022 99.437 173.171C99.3387 173.32 99.1983 173.437 99.0336 173.506C98.869 173.575 98.6875 173.593 98.5124 173.559C98.3372 173.524 98.1763 173.438 98.05 173.312C97.9238 173.186 97.838 173.025 97.8035 172.85C97.7691 172.675 97.7875 172.493 97.8565 172.328C97.9255 172.164 98.0419 172.023 98.1909 171.925C98.34 171.827 98.5149 171.775 98.6935 171.777C98.9294 171.779 99.1552 171.873 99.322 172.04C99.4889 172.207 99.5835 172.433 99.5854 172.669Z" fill="#683F1D"/>
<path d="M105.236 172.892C105.238 173.07 105.186 173.245 105.088 173.394C104.99 173.543 104.85 173.659 104.686 173.728C104.522 173.797 104.341 173.816 104.166 173.782C103.991 173.749 103.83 173.664 103.704 173.538C103.577 173.413 103.491 173.252 103.455 173.078C103.42 172.903 103.437 172.722 103.505 172.557C103.573 172.392 103.688 172.251 103.836 172.152C103.984 172.053 104.159 172 104.337 172C104.574 172 104.802 172.094 104.97 172.261C105.139 172.428 105.234 172.655 105.236 172.892Z" fill="#683F1D"/>
<path d="M84.4106 176.192C84.1013 175.701 83.669 175.3 83.1566 175.027C82.6442 174.755 82.0694 174.621 81.4893 174.639" stroke="#EF8A66" stroke-width="0.75" stroke-linecap="round" stroke-linejoin="round"/>
<path d="M83.8804 179.091C83.3229 177.01 80.9739 175.873 79.4203 177.538" stroke="#EF8A66" stroke-width="0.75" stroke-linecap="round" stroke-linejoin="round"/>
<path d="M83.5161 178.192C81.1375 176.527 79.5839 180.964 83.7466 180.258" stroke="#EF8A66" stroke-width="0.75" stroke-linecap="round" stroke-linejoin="round"/>
<path d="M101.497 181.916C101.107 181.997 100.705 181.998 100.315 181.917C99.9249 181.837 99.5556 181.678 99.2297 181.45C98.9037 181.221 98.628 180.928 98.4195 180.589C98.2111 180.25 98.0744 179.872 98.0177 179.478" stroke="#EF8A66" stroke-width="0.75" stroke-linecap="round" stroke-linejoin="round"/>
<path d="M103.831 178.794C105.392 177.991 105.407 176.691 103.935 175.873C102.463 175.055 101.207 173.963 101.497 171.056" stroke="#EF8A66" stroke-width="0.75" stroke-linecap="round" stroke-linejoin="round"/>
<path d="M108.027 168.781C107.707 169.755 102.206 169.963 102.474 167.533C102.675 165.711 108.428 167.555 108.027 168.781Z" fill="#604730"/>
<path d="M99.7584 167.942C100.264 169.577 94.2651 171.74 93.7299 170.514C93.2616 169.428 98.8218 164.879 99.7584 167.942Z" fill="#604730"/>
<path d="M97.6396 177.865C97.0598 179.352 94.6217 179.857 92.1984 178.928C89.7752 177.999 88.2736 176.029 88.846 174.52C89.4184 173.011 91.8565 172.528 94.2872 173.45C96.7179 174.371 98.212 176.349 97.6396 177.865Z" fill="#F4AF90"/>
<path d="M106.039 178.965C106.236 179.314 106.516 179.608 106.855 179.822C107.193 180.036 107.579 180.163 107.979 180.192C108.063 178.457 108.023 176.718 107.86 174.988C106.254 176.118 105.459 177.761 106.039 178.965Z" fill="#F4AF90"/>
<path d="M60.1672 285.932C61.1469 286.679 62.2855 287.19 63.4946 287.426C64.7038 287.662 65.9511 287.616 67.1397 287.292C69.3697 286.712 73.473 289.938 77.0856 291.618C80.6982 293.298 83.7756 294.138 82.0585 296.784C82.0585 296.784 86.8382 297.944 88.4512 298.784C90.0642 299.624 88.4512 301.237 86.7118 301.237C84.9724 301.237 75.7327 300.494 72.8262 300.352C69.9198 300.211 54.9861 296.145 54.9861 296.145L60.1672 285.932Z" fill="#FEBD9D"/>
<path d="M77.0856 291.618C80.7056 293.298 83.7756 294.138 82.0585 296.784C82.0585 296.784 86.8382 297.943 88.4512 298.783C90.0642 299.623 88.4512 301.236 86.7118 301.236C86.08 301.236 84.4818 301.14 82.5491 301.013" stroke="#EF8A66" stroke-width="0.75" stroke-linecap="round" stroke-linejoin="round"/>
<path d="M12.337 282.72C14.0466 283.404 16.0164 284.207 18.1647 285.099C32.4293 290.994 54.1273 300.352 54.1273 300.352L62.0811 285.708C57.621 282.326 49.2511 275.465 43.8767 269.979C38.5024 264.494 28.6309 251.671 15.0278 256.904C11.9025 258.053 9.12157 259.979 6.94776 262.501C1.30583 269.266 2.57694 278.795 12.337 282.72Z" fill="#FED81D"/>
<path d="M12.3329 282.72C14.0426 283.404 16.0124 284.206 18.1606 285.098C15.7522 274.759 12.4964 278.661 7.01059 270.061C5.58338 267.831 5.86584 265.266 6.95855 262.501C1.30176 269.265 2.57289 278.795 12.3329 282.72Z" fill="#FCC71F"/>
<path d="M62.0811 285.708C57.621 282.318 49.2436 275.465 43.8693 269.979C38.495 264.493 28.6309 251.663 15.0204 256.904" stroke="#F7AD2B" stroke-width="0.75" stroke-linecap="round" stroke-linejoin="round"/>
<path d="M56.9785 285.092L51.5521 296.145" stroke="#F7AD2B" stroke-width="0.75" stroke-linecap="round" stroke-linejoin="round"/>
<path d="M82.0605 296.784C78.3439 295.952 72.583 295.669 70.8139 294.926" stroke="#EF8A66" stroke-width="0.75" stroke-linecap="round" stroke-linejoin="round"/>
<path d="M103.271 263.286C104.906 262.617 106.333 264.736 104.683 266.26C103.033 267.784 100.312 268.237 99.8215 267.003C99.3309 265.769 101.472 264.022 103.271 263.286Z" fill="#FEBD9D" stroke="#EF8A66" stroke-width="0.75" stroke-linecap="round" stroke-linejoin="round"/>
<path d="M103.532 259.681C105.405 258.938 107.048 261.339 105.145 263.063C103.242 264.788 100.143 265.293 99.5777 263.933C99.0127 262.572 101.473 260.521 103.532 259.681Z" fill="#FEBD9D" stroke="#EF8A66" stroke-width="0.75" stroke-linecap="round" stroke-linejoin="round"/>
<path d="M103.396 255.838C105.277 254.998 106.303 257.86 104.407 259.756C102.512 261.651 99.0773 262.543 98.5124 261.012C97.9474 259.48 101.337 256.767 103.396 255.838Z" fill="#FEBD9D" stroke="#EF8A66" stroke-width="0.75" stroke-linecap="round" stroke-linejoin="round"/>
<path d="M102.399 250.984V253.333C102.399 253.333 98.6299 256.076 98.563 257.748C98.4961 259.421 100.377 259.696 102.399 258.558C104.42 257.421 106.465 255.206 105.766 253.229C105.067 251.251 102.399 250.984 102.399 250.984Z" fill="#FEBD9D" stroke="#EF8A66" stroke-width="0.75" stroke-linecap="round" stroke-linejoin="round"/>
<path d="M101.785 253.334C102.186 253.036 102.677 252.886 103.175 252.91" stroke="#EF8A66" stroke-width="0.75" stroke-linecap="round" stroke-linejoin="round"/>
<defs>
<linearGradient id="paint0_linear_12_356" x1="98.2251" y1="230.829" x2="79.0375" y2="231.469" gradientUnits="userSpaceOnUse">
<stop stop-color="#F3F7FF"/>
<stop offset="1" stop-color="#BCCBF9"/>
</linearGradient>
<linearGradient id="paint1_linear_12_356" x1="95.2091" y1="210.437" x2="74.2332" y2="210.435" gradientUnits="userSpaceOnUse">
<stop stop-color="#91A1D2"/>
<stop offset="0.666667" stop-color="#DEE6FF"/>
</linearGradient>
<linearGradient id="paint2_linear_12_356" x1="82.153" y1="231.268" x2="72.538" y2="231.268" gradientUnits="userSpaceOnUse">
<stop stop-color="#B0BFE9"/>
<stop offset="1" stop-color="#EEF2FF"/>
</linearGradient>
<linearGradient id="paint3_linear_12_356" x1="93.9512" y1="205.488" x2="77.7576" y2="205.531" gradientUnits="userSpaceOnUse">
<stop stop-color="#B8CAFF"/>
<stop offset="1" stop-color="#9BB1F4"/>
</linearGradient>
<linearGradient id="paint4_linear_12_356" x1="98.7775" y1="227.506" x2="82.0908" y2="227.505" gradientUnits="userSpaceOnUse">
<stop stop-color="#90A5E2"/>
<stop offset="1" stop-color="#C2CBE4"/>
<stop offset="1" stop-color="#C6D1F2"/>
<stop offset="1" stop-color="#F5F8FF"/>
</linearGradient>
<linearGradient id="paint5_linear_12_356" x1="82.1099" y1="227.54" x2="72.5688" y2="227.539" gradientUnits="userSpaceOnUse">
<stop stop-color="#8AA5F6"/>
<stop offset="1" stop-color="#DADBDE"/>
</linearGradient>
<linearGradient id="paint6_linear_12_356" x1="105.96" y1="220.932" x2="114.67" y2="220.932" gradientUnits="userSpaceOnUse">
<stop stop-color="#C48F40"/>
<stop offset="1" stop-color="#DADBDE"/>
</linearGradient>
<linearGradient id="paint7_linear_12_356" x1="95.5205" y1="246.194" x2="113.278" y2="209.674" gradientUnits="userSpaceOnUse">
<stop stop-color="#F7CF95"/>
<stop offset="1" stop-color="#D3A35B"/>
</linearGradient>
<linearGradient id="paint8_linear_12_356" x1="138.99" y1="219.308" x2="107.685" y2="233.406" gradientUnits="userSpaceOnUse">
<stop stop-color="#FF7A00"/>
<stop offset="1" stop-color="#FFC28A"/>
</linearGradient>
<linearGradient id="paint9_linear_12_356" x1="141.818" y1="229.109" x2="119.316" y2="239.242" gradientUnits="userSpaceOnUse">
<stop stop-color="#FF6B00"/>
<stop offset="1" stop-color="#FF9F47"/>
</linearGradient>
<linearGradient id="paint10_linear_12_356" x1="142.153" y1="264.959" x2="71.1304" y2="264.959" gradientUnits="userSpaceOnUse">
<stop stop-color="#D08E3E"/>
<stop offset="1" stop-color="#FFEBD3"/>
</linearGradient>
<linearGradient id="paint11_linear_12_356" x1="126.239" y1="290.774" x2="126.852" y2="220.539" gradientUnits="userSpaceOnUse">
<stop stop-color="#D5A161"/>
</linearGradient>
<linearGradient id="paint12_linear_12_356" x1="90.6177" y1="287.601" x2="79.1155" y2="287.601" gradientUnits="userSpaceOnUse">
<stop stop-color="#EEC38B"/>
<stop offset="1" stop-color="#FFE9CE"/>
</linearGradient>
<linearGradient id="paint13_linear_12_356" x1="79.0586" y1="287.657" x2="67.5565" y2="287.657" gradientUnits="userSpaceOnUse">
<stop stop-color="#E7B473"/>
<stop offset="1" stop-color="#FFE5C2"/>
</linearGradient>
<linearGradient id="paint14_linear_12_356" x1="102.789" y1="287.601" x2="91.2864" y2="287.601" gradientUnits="userSpaceOnUse">
<stop stop-color="#EEC38B"/>
<stop offset="1" stop-color="#FFE9CE"/>
</linearGradient>
<linearGradient id="paint15_linear_12_356" x1="111.165" y1="287.601" x2="99.6629" y2="287.601" gradientUnits="userSpaceOnUse">
<stop stop-color="white"/>
<stop offset="1" stop-color="#DADBDE"/>
</linearGradient>
<linearGradient id="paint16_linear_12_356" x1="86.5991" y1="287.601" x2="75.097" y2="287.601" gradientUnits="userSpaceOnUse">
<stop stop-color="white"/>
<stop offset="1" stop-color="#DADBDE"/>
</linearGradient>
<linearGradient id="paint17_linear_12_356" x1="98.8804" y1="287.601" x2="87.3782" y2="287.601" gradientUnits="userSpaceOnUse">
<stop stop-color="white"/>
<stop offset="1" stop-color="#DADBDE"/>
</linearGradient>
<linearGradient id="paint18_linear_12_356" x1="80.992" y1="295.752" x2="64.6522" y2="295.752" gradientUnits="userSpaceOnUse">
<stop stop-color="#B68649"/>
<stop offset="1" stop-color="#E9B879"/>
</linearGradient>
<linearGradient id="paint19_linear_12_356" x1="114.016" y1="290.752" x2="78.17" y2="290.641" gradientUnits="userSpaceOnUse">
<stop stop-color="#B68649"/>
<stop offset="1" stop-color="#E9B777"/>
</linearGradient>
</defs>
</svg>
