<svg width="497" height="226" viewBox="0 0 497 226" fill="none" xmlns="http://www.w3.org/2000/svg">
<path d="M301.2 58.3469C297.418 46.584 297.134 45.1089 299.669 44.2295C302.203 43.3501 308.623 56.711 309.351 58.3469C311.895 63.4957 313.855 68.9128 315.195 74.4972C316.32 79.7168 317.795 91.735 318.031 94.6284C319.034 106.845 298.893 110.561 298.014 101.058C297.134 91.5553 297.068 88.4822 297.068 88.4822C297.068 88.4822 286.667 89.4278 285.211 81.693C283.755 73.9582 284.161 63.3489 284.161 63.3489C284.161 63.3489 268.351 60.7297 268.9 56.5598C269.448 52.3898 300.387 60.8148 300.387 60.8148L301.2 58.3469Z" fill="#FEBD9D"/>
<path d="M284.161 63.3491C284.161 63.3491 268.351 60.7299 268.9 56.56C269.448 52.39 300.387 60.815 300.387 60.815L301.2 58.3754C297.418 46.6126 297.134 45.1375 299.669 44.2581C302.203 43.3787 308.623 56.7396 309.351 58.3754" stroke="#934735" stroke-width="0.75" stroke-linecap="round" stroke-linejoin="round"/>
<path d="M300.385 60.7869C299.027 65.9996 299.244 71.498 301.009 76.5873" stroke="#934735" stroke-width="0.75" stroke-linecap="round" stroke-linejoin="round"/>
<path d="M245.529 38.9204L284.242 77.6334C286.502 79.8933 290.166 79.8933 292.426 77.6334L319.07 50.9889C321.33 48.729 321.33 45.065 319.07 42.805L280.357 4.092C278.097 1.83208 274.433 1.83208 272.173 4.092L245.529 30.7365C243.269 32.9964 243.269 36.6604 245.529 38.9204Z" fill="#F9F9F9" stroke="#DDDDDD" stroke-linecap="round" stroke-linejoin="round"/>
<path d="M285.342 74.2518C282.099 74.9988 281.182 78.0908 283.574 80.1427C286.146 82.3553 292.481 81.3719 292.775 78.5447C293.068 75.7174 288.047 73.6371 285.342 74.2518Z" fill="#FEBD9D" stroke="#934735" stroke-width="0.75" stroke-linecap="round" stroke-linejoin="round"/>
<path d="M285.049 69.1835C281.721 68.6918 280.908 72.0202 283.281 74.5733C285.655 77.1263 293.493 77.7031 293.938 74.6678C294.382 71.6326 287.092 69.4861 285.049 69.1835Z" fill="#FEBD9D" stroke="#934735" stroke-width="0.75" stroke-linecap="round" stroke-linejoin="round"/>
<path d="M282.098 63.5005C286.278 62.5549 295.336 68.6539 294.967 70.5545C294.523 72.9467 290.24 73.3061 284.207 70.7436C278.543 68.3418 280.056 63.9827 282.098 63.5005Z" fill="#FEBD9D" stroke="#934735" stroke-width="0.75" stroke-linecap="round" stroke-linejoin="round"/>
<path d="M483.287 109.578C470.314 108.945 459.572 120.642 456.244 134.088C456.149 134.466 456.064 134.872 455.988 135.317C455.634 137.386 455.385 139.472 455.241 141.567C453.861 159.315 455.166 194.613 455.298 195.465C455.345 195.758 446.117 195.464 433.314 194.859C428.586 194.642 423.404 194.405 417.995 194.131C390.498 192.779 357.838 190.954 357.838 190.954L355.852 168.866C355.852 168.866 351.739 175.825 337.669 189.413C323.599 203.001 301.104 195.427 303.525 178.34C305.038 167.608 311.373 159.76 319.051 146.616C321.424 142.55 323.93 137.983 326.445 132.66C329.811 125.587 333.064 118.835 336.204 112.737C337.575 110.051 338.927 107.489 340.241 105.087C345.177 95.9811 349.602 89.0879 353.167 85.8635C363.88 76.1619 386.839 81.7502 392.957 83.717C402.071 86.6836 411.528 88.4664 421.097 89.0217C434.666 89.9672 455.27 95.8203 466.182 99.6215C472.475 101.735 478.268 105.117 483.202 109.559L483.287 109.578Z" fill="#2BDA88"/>
<path d="M492.42 129.71C480.543 117.795 462.511 112.595 444.413 128.764C423.365 147.515 407.215 150.777 383.537 123.393C366.413 103.536 360.475 98.5341 340.24 105.125C345.176 96.0189 349.601 89.1257 353.166 85.9013C363.879 76.1998 386.837 81.7881 392.955 83.7549C402.071 86.7086 411.529 88.4787 421.095 89.0217C434.664 89.9673 455.268 95.8203 466.18 99.6215C472.474 101.735 478.267 105.117 483.201 109.559C487.947 113.304 490.718 120.793 492.42 129.71Z" fill="#30EE95"/>
<path d="M335.863 163.788C328.298 171.995 321.499 154.2 319.05 146.616C321.424 142.55 323.929 137.983 326.445 132.659C329.811 125.587 333.064 118.835 336.203 112.736C341.782 121.246 334.246 129.076 333.716 132.934C332.336 143.25 346.708 152.006 335.863 163.788Z" fill="#28C079"/>
<path d="M288.452 100.548C300.139 103.016 318.284 92.0945 318.284 92.0945C318.284 92.0945 328.279 136.735 330.889 146.635C333.499 156.535 350.197 195.313 317.651 196.901C296.763 197.923 295.364 158.218 294.125 145.15C292.886 132.083 288.452 100.548 288.452 100.548Z" fill="#2BDA88"/>
<path d="M296.196 105.654C305.188 106.288 315.202 100.236 315.202 100.236" stroke="#178C55" stroke-width="0.75" stroke-linecap="round" stroke-linejoin="round"/>
<path d="M318.285 92.0945C318.285 92.0945 328.279 136.735 330.889 146.635C332.317 152.034 337.934 166.029 337.461 177.896" stroke="#178C55" stroke-width="0.75" stroke-linecap="round" stroke-linejoin="round"/>
<path d="M383.539 90.9507C389.364 101.759 404.814 112.15 423.461 97.806C423.461 97.806 425.466 91.8489 425.258 91.8489C425.05 91.8489 386.177 87.1211 386.177 87.1211L383.539 90.9507Z" fill="white"/>
<path d="M398.884 77.5992C394.081 76.5118 387.121 77.7316 382.318 85.107C377.514 92.4825 376.9 98.5625 377.174 98.4963C377.448 98.4301 384.738 93.8252 388.001 94.1656C391.263 94.506 398.572 96.6619 398.572 96.6619L398.884 77.5992Z" fill="#FED81D"/>
<path d="M420.528 79.7644C420.528 79.7644 431.147 79.8306 432.565 87.2722C433.984 94.7139 430.069 103.64 425.266 107.763C420.462 111.885 423.1 101.806 405.853 97.0778L420.528 79.7644Z" fill="#FED81D"/>
<path d="M425.709 88.4638C425.709 88.4638 419.809 97.4278 406.666 97.6264C393.522 97.8249 390.998 89.9956 390.998 89.9956C392.425 86.4403 394.137 78.8568 395.234 73.5427C395.933 70.1859 396.387 67.7274 396.387 67.7274C396.387 67.7274 398.562 46.679 421.123 47.9461L421.511 51.3974L425.709 88.4638Z" fill="#FEBD9D"/>
<path d="M395.234 73.7509C395.934 70.4036 396.388 67.9356 396.388 67.9356L409.229 61.9124C409.229 61.9124 411.262 76.5876 395.234 73.7509Z" fill="#F4A789"/>
<path d="M355.851 168.866C354.035 148.139 354.035 131.355 354.035 131.355" stroke="#178C55" stroke-width="0.75" stroke-linecap="round" stroke-linejoin="round"/>
<path d="M441.588 219.273C440.486 218.872 439.436 218.342 438.458 217.694C431.839 213.354 431.319 204.901 433.314 194.821C434.865 187.105 437.91 178.444 440.879 169.952C444.274 160.27 447.593 150.824 448.529 143.259C448.661 142.2 448.737 141.188 448.774 140.224C448.955 134.424 450.017 128.685 451.923 123.203C457.351 107.942 469.18 98.335 483.25 109.578C487.912 113.303 490.682 120.792 492.384 129.709C492.989 132.896 493.462 136.271 493.85 139.713C495.136 151.4 495.325 163.967 495.902 173.328C498.748 218.649 487.883 236.748 441.588 219.273Z" fill="#2BDA88"/>
<path d="M492.421 129.709C482.2 119.459 467.401 114.173 451.941 123.185C457.369 107.923 469.198 98.3162 483.268 109.559C487.949 113.303 490.719 120.792 492.421 129.709Z" fill="#30EE95"/>
<path d="M455.299 195.426C455.346 195.719 446.117 195.426 433.314 194.821C428.586 194.603 423.404 194.367 417.996 194.093C408.748 189.932 402.999 183.909 407.926 175.276C421.334 151.816 445.966 184.316 447.252 161.092C448.122 145.169 451.98 141.708 455.242 141.604C453.861 159.315 455.138 194.613 455.299 195.426Z" fill="#28C079"/>
<path d="M458.446 127.166C456.609 131.762 455.527 136.625 455.241 141.567C454.012 159.324 455.165 194.613 455.298 195.464" stroke="#178C55" stroke-width="0.75" stroke-linecap="round" stroke-linejoin="round"/>
<path d="M441.587 219.274C440.485 218.872 439.435 218.342 438.457 217.695C449.066 219.973 464.933 222.025 471.921 216.059C482.937 206.679 475.939 194.651 482.029 188.032C488.118 181.413 496.903 179.276 493.886 139.742C495.172 151.429 495.361 163.996 495.938 173.357C498.747 218.65 487.882 236.748 441.587 219.274Z" fill="#28C079"/>
<path d="M415.055 139.713C416.738 132.149 407.225 132.48 407.225 132.48C408.067 125.502 398.819 123.563 396.682 130.381C389.165 128.111 386.792 130.381 385.695 134.333L415.055 139.713Z" fill="#DDDDDD"/>
<path d="M402.233 133.208C403.471 133.208 404.474 132.204 404.474 130.967C404.474 129.729 403.471 128.726 402.233 128.726C400.996 128.726 399.992 129.729 399.992 130.967C399.992 132.204 400.996 133.208 402.233 133.208Z" fill="#F9F9F9" stroke="#DDDDDD" stroke-linecap="round" stroke-linejoin="round"/>
<path d="M371.418 128.716L357.385 204.806L413.098 216.058L428.067 139.864L371.418 128.716Z" fill="#F9F9F9" stroke="#DDDDDD" stroke-linecap="round" stroke-linejoin="round"/>
<path d="M388.579 179.134C385.742 186.538 385.572 194.32 386.877 196.92C386.877 196.92 392.191 197.913 397.505 183.493L388.579 179.134Z" fill="#28C079"/>
<path d="M395.794 164.818C383.048 160.44 376.958 157.792 374.661 157.168C372.363 156.544 364.061 155.844 362.737 157.168C361.413 158.492 361.319 160.175 361.792 161.896C362.264 163.617 360.846 164.95 360.647 166.728C360.449 168.506 362.586 169.045 362.151 170.813C361.716 172.581 360.26 174.519 361.262 176.486C362.264 178.453 360.316 180.458 362.151 182.84C363.985 185.223 382.783 186.377 386.906 185.497L395 189.119C395 189.119 409.24 174.491 395.794 164.818Z" fill="#FEBD9D"/>
<path d="M374.661 157.168C372.363 156.554 364.061 155.844 362.737 157.168C361.413 158.492 361.319 160.175 361.792 161.896C362.264 163.617 360.846 164.95 360.647 166.728C360.449 168.506 362.586 169.045 362.151 170.813C361.716 172.581 360.26 174.519 361.262 176.486C362.264 178.453 360.316 180.458 362.151 182.84" stroke="#934735" stroke-width="0.75" stroke-linecap="round" stroke-linejoin="round"/>
<path d="M471.933 216.049C468.614 222.044 460.312 224.928 444.511 220.172C440.256 218.886 436.152 217.552 432.219 216.2C425.713 213.969 419.709 211.69 414.329 209.506C404.954 205.779 395.776 201.575 386.832 196.911C389.208 194.291 391.126 191.289 392.505 188.032C393.365 186.104 394.073 184.113 394.623 182.075C396.092 176.443 396.486 170.586 395.786 164.809C397.933 165.452 400.24 166.113 402.67 166.775C408.542 168.383 415.123 170.047 421.789 171.796C441.769 177.063 462.553 183.096 467.612 190.594C468.075 191.285 468.557 191.975 468.935 192.693C469.096 192.977 469.266 193.261 469.418 193.554C469.464 193.626 469.505 193.702 469.541 193.781C469.73 194.121 469.909 194.471 470.08 194.812C470.401 195.426 470.685 196.041 470.959 196.655C473.937 203.482 474.779 210.915 471.933 216.049Z" fill="#2BDA88"/>
<path d="M395.793 164.818C418.676 171.711 460.167 179.569 467.656 190.604C468.955 192.518 470.076 194.546 471.004 196.665" stroke="#178C55" stroke-width="0.75" stroke-linecap="round" stroke-linejoin="round"/>
<path d="M402.67 166.775C404.088 181.12 396.685 194.887 396.685 194.887" stroke="#178C55" stroke-width="0.75" stroke-linecap="round" stroke-linejoin="round"/>
<path d="M471.922 216.059C468.603 222.054 460.301 224.937 444.501 220.181C440.246 218.895 436.142 217.562 432.208 216.21C441.485 218.649 463.337 223.368 471.922 216.059Z" fill="#28C079"/>
<path d="M421.096 48.1255L421.484 51.5674C413.494 64.03 402.572 67.9541 396.36 67.8974C386.091 65.3349 382.583 56.0872 381.987 46.1493C381.841 43.7939 381.841 41.4317 381.987 39.0764C382.446 32.345 383.58 25.6768 385.372 19.1721C385.372 19.1721 416.217 4.8184 418.354 33.6299C418.354 33.6299 424.973 32.4196 426.193 39.7761C427.233 45.8845 421.096 48.1255 421.096 48.1255Z" fill="#FEBD9D"/>
<path d="M386.943 39.114C387.621 39.114 388.172 38.5637 388.172 37.8848C388.172 37.2059 387.621 36.6555 386.943 36.6555C386.264 36.6555 385.713 37.2059 385.713 37.8848C385.713 38.5637 386.264 39.114 386.943 39.114Z" fill="#683F1D"/>
<path d="M395.529 37.5444C396.208 37.5444 396.758 36.9941 396.758 36.3152C396.758 35.6363 396.208 35.0859 395.529 35.0859C394.85 35.0859 394.3 35.6363 394.3 36.3152C394.3 36.9941 394.85 37.5444 395.529 37.5444Z" fill="#683F1D"/>
<path d="M393.676 29.6867C393.808 31.3698 399.557 32.0223 399.888 31.0672C400.352 29.63 393.345 25.7437 393.676 29.6867Z" fill="#604730"/>
<path d="M382.698 32.2017C382.698 33.1473 388.948 33.535 388.721 30.3106C388.57 27.975 382.83 29.6676 382.698 32.2017Z" fill="#604730"/>
<path d="M416.756 42.7637C419.328 38.9814 423.375 39.3785 423.819 40.0972" stroke="#934735" stroke-width="0.75" stroke-linecap="round" stroke-linejoin="round"/>
<path d="M417.854 41.4689C421.636 39.2373 423.716 44.2394 418.913 44.2394" stroke="#934735" stroke-width="0.75" stroke-linecap="round" stroke-linejoin="round"/>
<path d="M390.262 34.3103C391.302 36.3244 391.208 37.5442 390.527 38.8396C389.846 40.135 387.757 43.0852 388.844 45.7044" stroke="#934735" stroke-width="0.75" stroke-linecap="round" stroke-linejoin="round"/>
<path d="M396.995 46.1489C396.049 49.2788 392.324 51.2361 390.593 50.8768C390.593 50.8768 392.38 55.7276 395.529 54.4889C399.151 53.0232 396.995 46.1489 396.995 46.1489Z" fill="white" stroke="#934735" stroke-width="0.75" stroke-linecap="round" stroke-linejoin="round"/>
<path d="M416.19 47.2173C416.899 47.7165 417.705 48.0591 418.556 48.2221C419.408 48.3851 420.284 48.365 421.126 48.1629" stroke="#934735" stroke-width="0.75" stroke-linecap="round" stroke-linejoin="round"/>
<path d="M427.403 30.6888C430.94 35.549 425.616 37.6577 425.616 37.6577C425.079 36.8618 424.368 36.1989 423.536 35.7192C423.014 35.4109 422.43 35.2219 421.826 35.1659C421.221 35.1099 420.612 35.1881 420.042 35.3951C419.472 35.602 418.955 35.9325 418.527 36.3629C418.1 36.7933 417.773 37.313 417.57 37.8846C410.317 38.0359 413.447 32.3719 413.447 32.3719C406.941 34.9722 406.733 28.306 409.532 25.2991C404.455 30.9725 398.006 25.2991 399.055 20.1646C397.259 25.7718 390.857 25.9893 391.708 21.3371C391.159 22.2929 390.492 23.1761 389.723 23.9658C385.326 28.3911 381.373 23.6632 383.037 20.1835C376.418 26.481 373.582 19.4365 379.87 15.6542C374.887 11.5694 380.815 5.74467 384.796 8.77049C383.851 1.51797 391.339 1.20593 394.621 5.43263C395.907 -2.52907 405.854 1.82055 406.251 5.59338C413.579 0.468386 419.253 4.24121 418.543 12.5717C421.503 8.60975 427.848 10.9359 425.408 21.0818C431.498 20.6469 432.528 28.202 427.403 30.6888Z" fill="#604730"/>
<path d="M423.536 35.7193C423.013 35.4109 422.429 35.222 421.825 35.1659C421.221 35.1099 420.612 35.1881 420.042 35.3951C419.472 35.602 418.954 35.9326 418.527 36.363C418.099 36.7934 417.772 37.313 417.569 37.8846C410.317 38.0359 413.446 32.372 413.446 32.372C406.941 34.9723 406.733 28.306 409.532 25.2991C404.454 30.9725 398.005 25.2991 399.055 20.1646C397.258 25.7719 390.857 25.9894 391.708 21.3371C391.158 22.293 390.491 23.1761 389.722 23.9658C387.944 18.5855 391.925 11.4843 398.005 14.6992C398.809 10.3685 408.747 7.56019 408.69 18.4815C412.368 13.3471 420.699 15.1058 416.756 24.9019C419.857 22.5853 426.987 26.5945 423.536 35.7193Z" fill="#473526"/>
<path d="M410.176 37.6198C411.055 39.3785 409.4 41.9789 406.488 43.4445C403.576 44.9101 400.493 44.6643 399.614 42.9055C398.734 41.1468 400.38 38.5465 403.301 37.0808C406.223 35.6152 409.296 35.861 410.176 37.6198Z" fill="#FEBD9D"/>
<path d="M385.845 44.3055C385.391 45.5442 383.868 46.1966 381.996 46.1966C381.85 43.8413 381.85 41.4791 381.996 39.1238C384.776 40.3057 386.488 42.5467 385.845 44.3055Z" fill="#FEBD9D"/>
<path d="M84.6803 86.1895C85.1558 86.2214 85.6329 86.2214 86.1084 86.1895C93.4493 85.5336 97.7439 77.5263 98.8017 71.3806C99.8595 64.8435 103.34 63.7328 105.445 61.7442C107.55 59.7556 110.363 56.7515 108.734 51.7693C107.105 46.7872 104.334 37.0873 112.87 36.8969C117.196 36.7912 119.703 33.2159 121.11 29.7146C121.959 27.5206 122.528 25.2283 122.803 22.8919C108.618 15.9106 101.859 19.8984 95.988 25.7691C90.1173 31.6398 93.3541 37.2354 90.2231 44.862C87.0497 52.679 74.4939 53.5887 73.8275 64.9598C73.1611 76.331 76.4825 85.851 84.6803 86.1895Z" fill="#604730"/>
<path d="M84.2463 79.758C84.6909 81.9385 85.3135 84.0788 86.108 86.1576C93.449 85.5017 97.7435 77.4943 98.8013 71.3486C99.8591 64.8116 103.339 63.7009 105.444 61.7123C107.549 59.7236 110.363 56.7195 108.734 51.7374C107.105 46.7553 104.333 37.0554 112.87 36.865C117.196 36.7592 119.703 33.1839 121.11 29.6827C106.862 23.2091 99.51 26.9748 98.3147 32.5387C97.0242 38.4834 106.587 46.2052 98.3147 53.5568C90.0429 60.9084 79.9517 59.7977 84.2463 79.758Z" fill="#473526"/>
<path d="M126.808 106.096C138.443 106.731 144.536 99.0513 144.145 94.0586C143.944 91.6046 143.478 85.4589 142.971 78.3612C142.516 72.0991 142.019 65.0755 141.627 59.1307C141.564 58.1576 141.5 57.2056 141.448 56.2959C140.178 36.1029 120.514 30.1476 118.335 53.5774C117.626 61.1723 114.305 73.0723 112.158 83.1952C109.936 93.5509 115.162 105.461 126.808 106.096Z" fill="#FEBD9D"/>
<path d="M143.014 78.361C142.559 72.099 142.062 65.0753 141.67 59.1306L128.712 55.8303C125.624 66.7678 129.664 77.9802 143.014 78.361Z" fill="#F4A789"/>
<path d="M57.7154 102.743C57.8212 106.678 58.1385 110.782 58.5934 114.929C59.7464 125.507 61.7667 136.476 63.1524 145.668C64.2102 152.744 64.9189 158.795 64.5593 162.888C63.9775 169.605 63.3428 178.755 62.7927 187.323C61.9148 200.979 61.2378 213.45 61.2378 213.45H140.571C140.571 213.45 172.939 165.692 177.784 144.219C180.291 133.123 180.82 123.825 179.9 116.029C179.229 109.564 177.106 103.333 173.69 97.8033C167.746 88.4736 153.593 82.5289 143.015 79.345C143.374 85.6071 144.792 94.8732 131.665 93.5721C118.538 92.2711 113.175 82.4443 114.381 73.2628C96.0388 69.8038 71.6252 68.1325 64.1256 76.1928C63.079 77.3338 62.1864 78.6069 61.4705 79.9797C60.2051 82.4367 59.2968 85.0618 58.7732 87.7755C57.8525 92.7082 57.4977 97.7299 57.7154 102.743Z" fill="#FED81D"/>
<path d="M58.7836 87.8072C70.4192 88.4313 82.5308 93.4558 86.4446 104.732C86.7365 105.573 86.9767 106.431 87.1639 107.302C87.546 109.123 88.1278 110.897 88.8987 112.591C96.3031 129.103 119.299 130.044 137.271 118.504C152.355 108.825 161.06 103.621 179.868 116.008C179.203 109.552 177.092 103.33 173.69 97.8033C167.746 88.4736 153.592 82.5289 143.015 79.345C143.374 85.6071 144.792 94.8732 131.665 93.5721C118.538 92.2711 113.175 82.4443 114.381 73.2628C96.0386 69.8038 71.6251 68.1325 64.1254 76.1928C63.0788 77.3338 62.1862 78.6069 61.4704 79.9797C60.2058 82.4472 59.301 85.0832 58.7836 87.8072Z" fill="#FFE05C"/>
<path d="M156.173 106.128L152.524 124.438" stroke="#F7AD2B" stroke-width="0.75" stroke-linecap="round" stroke-linejoin="round"/>
<path d="M64.5594 162.888C63.9776 169.605 63.3429 178.755 62.7929 187.323C68.0077 183.166 76.0363 175.201 72.4504 167.765C67.299 157.081 70.3349 151.02 77.2845 145.953C84.2341 140.886 84.7947 136.877 79.2731 120.387C73.7515 103.896 58.5935 114.918 58.5935 114.918C59.7465 125.496 61.7669 136.465 63.1526 145.657C64.2209 152.744 64.9191 158.795 64.5594 162.888Z" fill="#FCC71F"/>
<path d="M0.999569 173.234C0.999569 184.721 9.08103 194.178 19.4684 195.447C20.2264 195.541 20.9895 195.587 21.7532 195.585C33.2195 195.585 42.5068 185.599 42.5068 173.276C42.5068 160.953 33.2195 150.957 21.7532 150.957C17.4512 150.965 13.2707 152.384 9.85318 154.997C7.07132 157.149 4.82468 159.914 3.2888 163.078C1.75292 166.241 0.969418 169.717 0.999569 173.234Z" fill="#FED81D"/>
<path d="M0.999479 173.234C0.999479 184.722 9.08094 194.178 19.4683 195.448C20.8435 179.666 17.2575 164.497 9.85309 154.998C7.07124 157.15 4.82459 159.915 3.28871 163.079C1.75283 166.242 0.96933 169.718 0.999479 173.234Z" fill="#FCC71F"/>
<path d="M55.5935 93.4342C55.591 96.6565 56.3141 99.838 57.7091 102.743C59.5656 106.542 62.4561 109.74 66.0486 111.971C69.6412 114.201 73.79 115.373 78.0185 115.351C79.7994 115.355 81.5745 115.149 83.3074 114.738C85.2621 114.286 87.1475 113.574 88.9136 112.622C92.392 110.767 95.3033 108.004 97.3388 104.628C99.3743 101.251 100.458 97.3872 100.475 93.4448C100.391 87.5662 97.9809 81.9606 93.7715 77.8562C89.5621 73.7519 83.8972 71.4837 78.0185 71.5487C73.0032 71.534 68.1252 73.1861 64.151 76.2453C61.8077 78.048 59.8508 80.3034 58.3967 82.8775C57.5222 84.4147 56.8468 86.0569 56.3869 87.7645C55.8667 89.6097 55.5998 91.5171 55.5935 93.4342Z" fill="#FED81D"/>
<path d="M54.1562 87.7965C54.8967 87.7965 55.6477 87.7436 56.4093 87.7436C57.1709 87.7436 58.0171 87.7436 58.821 87.807C70.4566 88.4311 82.5682 93.4556 86.482 104.732C86.7739 105.573 87.0141 106.431 87.2013 107.302C87.5834 109.123 88.1652 110.897 88.936 112.591C92.4144 110.735 95.3258 107.973 97.3613 104.596C99.3968 101.22 100.48 97.3557 100.498 93.4133C100.406 87.5366 97.9884 81.9358 93.7753 77.8377C89.5622 73.7396 83.8968 71.4783 78.0197 71.549C73.0045 71.5343 68.1265 73.1863 64.1523 76.2455C61.809 78.0482 59.8521 80.3037 58.3979 82.8778C57.2661 84.0414 55.8275 85.7232 54.1562 87.7965Z" fill="#FFE05C"/>
<path d="M16.0778 183.991C22.8688 184.425 32.1772 180.289 43.6965 167.764C50.5297 160.36 57.1937 152.956 63.1596 145.667C71.8757 135.09 79.1215 124.66 83.2574 114.738C84.6473 111.528 85.7104 108.186 86.4308 104.763C88.0387 97.6608 87.0676 90.2181 83.6911 83.7662C80.6235 78.0013 71.1353 72.5855 61.4777 80.0111C60.365 80.869 59.3281 81.8209 58.3784 82.8565C57.3207 84.0412 55.8292 85.7231 54.1473 87.7963C46.5525 97.0308 33.8062 114.093 22.9322 130.108C12.7141 145.234 4.16723 159.471 3.17291 165.437C1.7978 173.529 6.38858 183.377 16.0778 183.991Z" fill="#FED81D"/>
<path d="M54.1597 87.7966C54.9002 87.7966 55.6512 87.7437 56.4128 87.7437C57.1744 87.7437 58.0206 87.7437 58.8245 87.8071C70.4601 88.4312 82.5717 93.4557 86.4855 104.732C88.0934 97.6293 87.1223 90.1866 83.7458 83.7347C80.6782 77.9698 71.1899 72.554 61.5324 79.9796C60.4197 80.8375 59.3828 81.7894 58.4331 82.825C57.2696 84.0415 55.831 85.7233 54.1597 87.7966Z" fill="#FFE05C"/>
<path d="M43.6832 167.807C50.5164 160.403 57.1805 152.998 63.1463 145.71C71.8624 135.132 79.1082 124.702 83.2441 114.781C84.634 111.57 85.6971 108.229 86.4175 104.806" stroke="#F7AD2B" stroke-width="0.75" stroke-linecap="round" stroke-linejoin="round"/>
<path d="M16.0776 183.991C14.1064 182.138 12.3885 180.032 10.9685 177.729C3.15152 165.48 31.4577 146.249 22.9214 130.129C12.7033 145.255 4.1564 159.493 3.16209 165.459C1.79756 173.53 6.38834 183.378 16.0776 183.991Z" fill="#FCC71F"/>
<path d="M104.222 98.0298L104.349 147.069L120.526 147.022L141.629 146.974L141.534 110.806L141.502 97.9345L117.729 97.8391L104.222 98.0298Z" fill="url(#paint0_linear_6_12048)"/>
<path d="M141.501 97.9187L134.7 87.7803L111.658 87.8438L117.776 97.9823L141.501 97.9187Z" fill="url(#paint1_linear_6_12048)"/>
<path d="M111.657 87.844L104.22 98.0301L117.775 97.9824L111.657 87.844Z" fill="#B1BEE3"/>
<path d="M104.219 98.0306L104.346 147.07L117.901 147.038L117.774 97.9829L104.219 98.0306Z" fill="url(#paint2_linear_6_12048)"/>
<path d="M134.701 87.7802L111.659 87.8438V87.367C111.659 85.4919 113.168 83.9664 115.044 83.9664L131.3 83.9187C133.175 83.9187 134.701 85.4283 134.701 87.3035V87.7802Z" fill="url(#paint3_linear_6_12048)"/>
<path d="M141.531 112.746L117.821 112.809L117.837 121.597L141.562 121.534L141.531 112.746Z" fill="url(#paint4_linear_6_12048)"/>
<path d="M104.27 112.841L104.286 121.628L117.841 121.597L117.825 112.809L104.27 112.841Z" fill="url(#paint5_linear_6_12048)"/>
<path d="M148.059 91.5303H161.726V124.107H148.059V91.5303Z" fill="url(#paint6_linear_6_12048)"/>
<path d="M150.667 77.9441H154.815C160.17 77.9441 164.492 82.2823 164.492 87.6217V94.5502H156.229C154.338 94.5502 152.812 96.0757 152.812 97.9667C152.812 99.8578 154.338 101.383 156.229 101.383H164.492V111.236H156.229C154.338 111.236 152.812 112.761 152.812 114.652C152.812 116.543 154.338 118.069 156.229 118.069H164.492V137.059H140.974V87.6217C140.989 82.2823 145.328 77.9441 150.667 77.9441Z" fill="url(#paint7_linear_6_12048)"/>
<path d="M189.368 98.9211C189.368 98.9211 213.681 89.4501 208.374 82.315C203.05 75.1641 188.383 96.7599 188.383 96.7599L189.368 98.9211Z" fill="#3BC49A"/>
<path d="M187.187 97.2997C187.187 97.2997 185.932 71.2226 194.609 73.1771C203.317 75.1317 189.555 97.3155 189.555 97.3155L187.187 97.2997Z" fill="#3BC49A"/>
<path d="M187.715 99.1434C187.715 99.1434 198.537 64.072 208.595 70.5714C217.717 76.4829 190.051 99.8426 190.051 99.8426L187.715 99.1434Z" fill="#44D0A7"/>
<path d="M154.723 146.228C155.311 146.164 155.915 145.91 156.471 145.433L160.221 142.239L160.237 142.223L168.183 135.438L169.645 134.183L180.228 125.156L182.278 123.408L189.143 117.561C189.826 116.973 190.462 116.321 191.034 115.638C191.511 115.066 191.956 114.462 192.337 113.826C194.308 110.664 195.086 106.882 194.26 103.195C193.561 100.096 191.94 97.6333 189.795 95.9488C189.572 95.774 189.334 95.5992 189.095 95.4403C185.917 93.295 181.77 92.7071 177.765 94.0419C176.764 94.3756 175.826 94.8365 174.952 95.3926C172.505 96.9341 170.582 99.2541 169.406 101.94L168.421 104.117L167.388 106.405L162.224 117.783L161.286 119.849L155.2 133.245L154.644 134.484L151.386 141.667C150.21 144.194 152.435 146.514 154.723 146.228Z" fill="url(#paint8_linear_6_12048)"/>
<path opacity="0.1" d="M160.224 142.223L189.146 117.56C193.309 114.001 195.471 108.486 194.279 103.195C193.58 100.096 191.959 97.6329 189.813 95.9484C189.591 95.7736 189.353 95.5989 189.114 95.4399C188.717 109.917 169.95 131.83 160.224 142.223Z" fill="black"/>
<path opacity="0.1" d="M174.958 95.3932L183.666 100.971L177.77 94.0583C176.769 94.3921 175.832 94.837 174.958 95.3932Z" fill="black"/>
<path opacity="0.1" d="M182.851 107.836L191.035 115.654C191.512 115.082 191.957 114.478 192.338 113.843L182.851 107.836Z" fill="black"/>
<path opacity="0.1" d="M167.376 106.421L175.258 111.283L168.425 104.116L167.376 106.421Z" fill="black"/>
<path opacity="0.1" d="M173.858 118.673L180.23 125.157L182.28 123.425L173.858 118.673Z" fill="black"/>
<path opacity="0.1" d="M161.274 119.881L166.692 122.392L162.211 117.799L161.274 119.881Z" fill="black"/>
<path opacity="0.1" d="M163.114 129.972L168.184 135.438L169.646 134.199L163.114 129.972Z" fill="black"/>
<path opacity="0.1" d="M154.612 134.5L158.14 136.439L155.168 133.277L154.612 134.5Z" fill="black"/>
<path d="M196.045 114.732C196.045 114.732 213.525 107.914 209.711 102.797C205.881 97.6488 195.346 113.19 195.346 113.19L196.045 114.732Z" fill="#3BC49A"/>
<path d="M194.47 113.556C194.47 113.556 193.564 94.8204 199.793 96.2188C206.054 97.6173 196.154 113.572 196.154 113.572L194.47 113.556Z" fill="#3BC49A"/>
<path d="M194.852 114.891C194.852 114.891 202.639 89.672 209.853 94.3598C216.416 98.6027 196.521 115.399 196.521 115.399L194.852 114.891Z" fill="#44D0A7"/>
<path d="M171.141 148.723C171.57 148.675 171.999 148.484 172.396 148.151L175.098 145.846C175.098 145.846 175.098 145.846 175.114 145.846L180.835 140.968L181.883 140.062L189.495 133.579L190.957 132.323L195.883 128.112C196.376 127.683 196.837 127.222 197.25 126.73C197.6 126.316 197.917 125.887 198.188 125.426C199.602 123.154 200.174 120.437 199.57 117.783C199.077 115.558 197.901 113.794 196.36 112.571C196.201 112.444 196.026 112.316 195.852 112.205C193.563 110.664 190.576 110.235 187.715 111.204C187 111.442 186.317 111.776 185.697 112.173C183.933 113.286 182.567 114.954 181.709 116.877L180.993 118.45L180.247 120.103L176.528 128.287L175.845 129.781L171.475 139.411L171.078 140.3L168.742 145.465C167.899 147.261 169.488 148.929 171.141 148.723Z" fill="url(#paint9_linear_6_12048)"/>
<path opacity="0.1" d="M175.099 145.847L195.885 128.112C198.888 125.554 200.429 121.581 199.571 117.783C199.079 115.559 197.903 113.795 196.361 112.571C196.202 112.444 196.028 112.317 195.853 112.206C195.567 122.63 182.075 138.378 175.099 145.847Z" fill="black"/>
<path opacity="0.1" d="M185.685 112.189L191.946 116.194L187.719 111.22C186.988 111.458 186.321 111.792 185.685 112.189Z" fill="black"/>
<path opacity="0.1" d="M191.37 121.136L197.249 126.745C197.599 126.332 197.917 125.903 198.187 125.442L191.37 121.136Z" fill="black"/>
<path opacity="0.1" d="M180.25 120.103L185.907 123.615L180.996 118.466L180.25 120.103Z" fill="black"/>
<path opacity="0.1" d="M184.889 128.922L189.481 133.578L190.943 132.339L184.889 128.922Z" fill="black"/>
<path opacity="0.1" d="M175.845 129.781L179.739 131.592L176.529 128.303L175.845 129.781Z" fill="black"/>
<path opacity="0.1" d="M177.18 137.043L180.819 140.968L181.868 140.078L177.18 137.043Z" fill="black"/>
<path opacity="0.1" d="M171.062 140.301L173.604 141.683L171.475 139.411L171.062 140.301Z" fill="black"/>
<path d="M102.218 121.486V220.645H203.284V121.406L201.775 125.379L197.643 120.294L193.67 125.538L189.38 120.294L188.744 121.104L187.393 122.837L185.407 125.379L181.275 120.294L177.144 125.22L173.171 120.294L168.88 125.538L164.907 120.294L160.935 125.379L156.803 120.294L152.83 125.22L148.858 120.294L144.726 125.22L140.594 120.294L136.463 125.22L132.49 120.294L128.517 125.22L124.227 120.294L120.095 125.22L115.963 120.294L111.991 125.379L107.859 120.294L103.886 124.902L102.218 121.486Z" fill="url(#paint10_linear_6_12048)"/>
<path d="M187.393 122.837V220.645H203.284V121.406L201.775 125.379L197.643 120.294L193.67 125.538L189.38 120.294L188.744 121.104L187.393 122.837Z" fill="#EECA9D"/>
<path d="M173.172 120.294V220.645H188.746V121.104L185.408 125.379L181.277 120.294L177.145 125.22L173.172 120.294Z" fill="url(#paint11_linear_6_12048)"/>
<path d="M173.171 220.645H203.284V220.582L188.664 200.94L173.171 220.645Z" fill="#E1AF72"/>
<path d="M121.766 213.733C117.247 213.733 113.582 208.789 113.582 202.689C113.582 196.59 117.247 191.645 121.766 191.645C126.286 191.645 129.95 196.59 129.95 202.689C129.95 208.789 126.286 213.733 121.766 213.733Z" fill="url(#paint12_linear_6_12048)"/>
<path d="M105.317 213.813C100.797 213.813 97.1333 208.868 97.1333 202.769C97.1333 196.669 100.797 191.724 105.317 191.724C109.837 191.724 113.501 196.669 113.501 202.769C113.501 208.868 109.837 213.813 105.317 213.813Z" fill="url(#paint13_linear_6_12048)"/>
<path d="M139.085 213.733C134.565 213.733 130.901 208.789 130.901 202.689C130.901 196.59 134.565 191.645 139.085 191.645C143.605 191.645 147.269 196.59 147.269 202.689C147.269 208.789 143.605 213.733 139.085 213.733Z" fill="url(#paint14_linear_6_12048)"/>
<path d="M151.005 213.733C146.485 213.733 142.821 208.789 142.821 202.689C142.821 196.59 146.485 191.645 151.005 191.645C155.525 191.645 159.189 196.59 159.189 202.689C159.189 208.789 155.525 213.733 151.005 213.733Z" fill="url(#paint15_linear_6_12048)"/>
<path d="M116.047 213.733C111.527 213.733 107.863 208.789 107.863 202.689C107.863 196.59 111.527 191.645 116.047 191.645C120.566 191.645 124.23 196.59 124.23 202.689C124.23 208.789 120.566 213.733 116.047 213.733Z" fill="url(#paint16_linear_6_12048)"/>
<path d="M133.522 213.733C129.002 213.733 125.338 208.789 125.338 202.689C125.338 196.59 129.002 191.645 133.522 191.645C138.042 191.645 141.706 196.59 141.706 202.689C141.706 208.789 138.042 213.733 133.522 213.733Z" fill="url(#paint17_linear_6_12048)"/>
<path d="M93.0027 207.933V210.158L100.948 220.646H107.305L107.94 218.739H110.483L111.913 220.646H123.196L124.785 218.58H129.552L130.982 220.646H139.404L140.993 218.58H145.92L147.509 220.646H152.435L159.586 212.065V207.933H93.0027Z" fill="#B68649"/>
<path d="M92.9995 207.933V210.158L100.945 220.646H107.301L107.937 218.739H110.48L111.91 220.646H116.248L110.114 207.933H92.9995Z" fill="url(#paint18_linear_6_12048)"/>
<path d="M91.0147 205.153H162.047V208.967H91.0147V205.153Z" fill="url(#paint19_linear_6_12048)"/>
<path d="M91.0147 205.153H112.309V208.967H91.0147V205.153Z" fill="#B68649"/>
<path d="M114.047 47.2844L115.708 47.0623L118.818 46.6603L123.673 46.0257L151.768 42.3552C155.798 38.4414 157.3 37.3942 157.913 35.9027C158.194 35.1151 158.338 34.2849 158.337 33.4487C158.537 29.8734 158.241 19.8668 146.098 16.2386C144.988 15.9083 143.857 15.6504 142.713 15.4664C137.383 14.7198 131.953 15.2158 126.846 16.9155C126.846 16.9155 125.397 14.4086 118.289 18.809C111.181 23.2093 103.099 35.6383 114.047 47.2844Z" fill="#604730"/>
<path d="M115.706 47.062C115.875 48.6593 116.044 49.6219 116.044 49.6219L119.038 48.8285C118.943 48.0881 118.869 47.3688 118.816 46.713C116.901 24.3938 130.451 16.8307 142.711 15.5296C137.381 14.7831 131.951 15.279 126.844 16.9788C114.447 22.6591 115.018 40.4086 115.706 47.062Z" fill="white"/>
<path d="M123.676 46.0252L151.77 42.3547C155.8 38.441 157.303 37.3938 157.916 35.9023C155.24 24.9754 148.787 19.2634 138.675 18.9778C126.394 18.6922 123.094 28.868 122.11 36.4841C121.863 39.7438 122.399 43.0155 123.676 46.0252Z" fill="#473526"/>
<path d="M122.075 52.5835C130.273 63.7642 141.855 69.5079 148.138 65.8586C152.274 63.4257 154.295 57.1108 154.654 49.8438C154.774 47.3748 154.717 44.9004 154.485 42.4394C154.358 41.0008 154.168 39.5728 153.935 38.1554C152.042 26.7631 144.415 18.9778 131.362 22.0771C131.362 22.0771 135.064 31.1634 129.172 36.9495C123.281 42.7355 118.595 42.048 118.595 42.048C118.595 42.048 114.49 41.371 112.84 44.1636C109.022 50.7006 116.712 55.8309 122.075 52.5835Z" fill="#FEBD9D"/>
<path d="M142.711 39.139C142.713 39.393 142.639 39.6419 142.5 39.854C142.36 40.0661 142.16 40.2318 141.926 40.33C141.691 40.4282 141.433 40.4544 141.184 40.4054C140.935 40.3563 140.706 40.2342 140.526 40.0546C140.346 39.8749 140.224 39.6459 140.175 39.3967C140.126 39.1474 140.152 38.8892 140.251 38.6549C140.349 38.4206 140.514 38.2208 140.727 38.081C140.939 37.9411 141.188 37.8676 141.442 37.8697C141.777 37.8724 142.099 38.0071 142.336 38.2445C142.574 38.482 142.708 38.8032 142.711 39.139Z" fill="#683F1D"/>
<path d="M150.751 39.4566C150.753 39.7102 150.68 39.9587 150.54 40.1705C150.401 40.3824 150.202 40.5481 149.968 40.6466C149.735 40.7451 149.477 40.772 149.228 40.7238C148.979 40.6756 148.75 40.5545 148.57 40.376C148.39 40.1974 148.267 39.9693 148.217 39.7208C148.166 39.4722 148.191 39.2143 148.288 38.9798C148.384 38.7453 148.548 38.5448 148.759 38.4037C148.97 38.2626 149.217 38.1873 149.471 38.1873C149.809 38.1872 150.133 38.3206 150.372 38.5584C150.612 38.7961 150.748 39.119 150.751 39.4566Z" fill="#683F1D"/>
<path d="M121.117 44.1535C120.677 43.4547 120.061 42.8831 119.332 42.4953C118.603 42.1075 117.785 41.917 116.96 41.9427" stroke="#EF8A66" stroke-width="0.75" stroke-linecap="round" stroke-linejoin="round"/>
<path d="M120.363 48.2783C119.569 45.3165 116.227 43.6981 114.016 46.0675" stroke="#EF8A66" stroke-width="0.75" stroke-linecap="round" stroke-linejoin="round"/>
<path d="M119.844 46.9983C116.459 44.6289 114.248 50.9438 120.172 49.9389" stroke="#EF8A66" stroke-width="0.75" stroke-linecap="round" stroke-linejoin="round"/>
<path d="M145.43 52.2981C144.875 52.4137 144.303 52.4144 143.748 52.3003C143.193 52.1862 142.668 51.9595 142.204 51.6345C141.74 51.3094 141.348 50.8927 141.051 50.4101C140.754 49.9275 140.56 49.3893 140.479 48.8286" stroke="#EF8A66" stroke-width="0.75" stroke-linecap="round" stroke-linejoin="round"/>
<path d="M148.753 47.8555C150.974 46.7131 150.995 44.862 148.901 43.6984C146.806 42.5348 145.019 40.9799 145.431 36.844" stroke="#EF8A66" stroke-width="0.75" stroke-linecap="round" stroke-linejoin="round"/>
<path d="M154.722 33.607C154.268 34.9927 146.44 35.2888 146.821 31.8299C147.106 29.2383 155.294 31.8616 154.722 33.607Z" fill="#604730"/>
<path d="M142.957 32.4124C143.676 34.7395 135.14 37.8177 134.378 36.0723C133.712 34.528 141.624 28.0544 142.957 32.4124Z" fill="#604730"/>
<path d="M139.941 46.5333C139.116 48.6488 135.646 49.3681 132.198 48.0459C128.75 46.7237 126.613 43.9206 127.428 41.7733C128.242 39.626 131.712 38.9384 135.17 40.2501C138.629 41.5617 140.756 44.3754 139.941 46.5333Z" fill="#F4AF90"/>
<path d="M151.894 48.0991C152.174 48.5949 152.573 49.0136 153.055 49.3181C153.537 49.6226 154.086 49.8034 154.654 49.8444C154.774 47.3754 154.717 44.9009 154.485 42.4399C152.2 44.0478 151.068 46.3855 151.894 48.0991Z" fill="#F4AF90"/>
<path d="M86.6187 200.314C88.0127 201.377 89.6329 202.105 91.3536 202.44C93.0743 202.776 94.8492 202.711 96.5406 202.25C99.714 201.425 105.553 206.015 110.694 208.406C115.835 210.797 120.214 211.992 117.77 215.758C117.77 215.758 124.572 217.408 126.867 218.603C129.163 219.798 126.867 222.094 124.392 222.094C121.917 222.094 108.769 221.036 104.633 220.835C100.497 220.634 79.2459 214.848 79.2459 214.848L86.6187 200.314Z" fill="#FEBD9D"/>
<path d="M110.694 208.405C115.845 210.796 120.214 211.991 117.77 215.757C117.77 215.757 124.572 217.407 126.867 218.602C129.163 219.798 126.867 222.093 124.392 222.093C123.493 222.093 121.219 221.955 118.468 221.776" stroke="#EF8A66" stroke-width="0.75" stroke-linecap="round" stroke-linejoin="round"/>
<path d="M18.5542 195.744C20.9871 196.717 23.7902 197.859 26.8472 199.129C47.146 207.517 78.0226 220.834 78.0226 220.834L89.3408 199.996C82.9941 195.183 71.0836 185.42 63.4358 177.613C55.7881 169.807 41.7408 151.56 22.3834 159.007C17.936 160.642 13.9787 163.383 10.8853 166.972C2.85678 176.598 4.66559 190.159 18.5542 195.744Z" fill="#FED81D"/>
<path d="M18.5488 195.744C20.9817 196.717 23.7848 197.86 26.8418 199.129C23.4146 184.415 18.7815 189.969 10.9751 177.73C8.94416 174.557 9.34611 170.907 10.901 166.972C2.85135 176.598 4.66019 190.159 18.5488 195.744Z" fill="#FCC71F"/>
<path d="M89.3408 199.996C82.9941 195.173 71.073 185.42 63.4252 177.613C55.7775 169.807 41.7407 151.55 22.3728 159.007" stroke="#F7AD2B" stroke-width="0.75" stroke-linecap="round" stroke-linejoin="round"/>
<path d="M82.0811 199.118L74.3592 214.848" stroke="#F7AD2B" stroke-width="0.75" stroke-linecap="round" stroke-linejoin="round"/>
<path d="M117.772 215.757C112.484 214.572 104.286 214.17 101.768 213.112" stroke="#EF8A66" stroke-width="0.75" stroke-linecap="round" stroke-linejoin="round"/>
<path d="M204.875 196.55C207.202 195.598 209.233 198.613 206.885 200.781C204.537 202.95 200.665 203.595 199.967 201.839C199.269 200.083 202.315 197.597 204.875 196.55Z" fill="#FEBD9D" stroke="#EF8A66" stroke-width="0.75" stroke-linecap="round" stroke-linejoin="round"/>
<path d="M205.247 191.42C207.913 190.362 210.25 193.778 207.543 196.232C204.835 198.687 200.424 199.406 199.62 197.47C198.816 195.534 202.317 192.615 205.247 191.42Z" fill="#FEBD9D" stroke="#EF8A66" stroke-width="0.75" stroke-linecap="round" stroke-linejoin="round"/>
<path d="M205.054 185.951C207.73 184.756 209.19 188.828 206.492 191.525C203.795 194.223 198.908 195.492 198.104 193.313C197.3 191.134 202.124 187.273 205.054 185.951Z" fill="#FEBD9D" stroke="#EF8A66" stroke-width="0.75" stroke-linecap="round" stroke-linejoin="round"/>
<path d="M203.635 179.043V182.386C203.635 182.386 198.272 186.289 198.177 188.669C198.082 191.049 200.758 191.44 203.635 189.822C206.512 188.203 209.421 185.051 208.427 182.237C207.433 179.424 203.635 179.043 203.635 179.043Z" fill="#FEBD9D" stroke="#EF8A66" stroke-width="0.75" stroke-linecap="round" stroke-linejoin="round"/>
<path d="M202.762 182.387C203.331 181.963 204.03 181.75 204.74 181.784" stroke="#EF8A66" stroke-width="0.75" stroke-linecap="round" stroke-linejoin="round"/>
<defs>
<linearGradient id="paint0_linear_6_12048" x1="140.774" y1="121.903" x2="113.47" y2="122.813" gradientUnits="userSpaceOnUse">
<stop stop-color="#F3F7FF"/>
<stop offset="1" stop-color="#BCCBF9"/>
</linearGradient>
<linearGradient id="paint1_linear_6_12048" x1="136.482" y1="92.8842" x2="106.633" y2="92.8813" gradientUnits="userSpaceOnUse">
<stop stop-color="#91A1D2"/>
<stop offset="0.666667" stop-color="#DEE6FF"/>
</linearGradient>
<linearGradient id="paint2_linear_6_12048" x1="117.905" y1="122.528" x2="104.222" y2="122.528" gradientUnits="userSpaceOnUse">
<stop stop-color="#B0BFE9"/>
<stop offset="1" stop-color="#EEF2FF"/>
</linearGradient>
<linearGradient id="paint3_linear_6_12048" x1="134.692" y1="85.842" x2="111.648" y2="85.9027" gradientUnits="userSpaceOnUse">
<stop stop-color="#B8CAFF"/>
<stop offset="1" stop-color="#9BB1F4"/>
</linearGradient>
<linearGradient id="paint4_linear_6_12048" x1="141.561" y1="117.174" x2="117.815" y2="117.172" gradientUnits="userSpaceOnUse">
<stop stop-color="#90A5E2"/>
<stop offset="1" stop-color="#C2CBE4"/>
<stop offset="1" stop-color="#C6D1F2"/>
<stop offset="1" stop-color="#F5F8FF"/>
</linearGradient>
<linearGradient id="paint5_linear_6_12048" x1="117.842" y1="117.223" x2="104.265" y2="117.221" gradientUnits="userSpaceOnUse">
<stop stop-color="#8AA5F6"/>
<stop offset="1" stop-color="#DADBDE"/>
</linearGradient>
<linearGradient id="paint6_linear_6_12048" x1="151.784" y1="107.819" x2="164.178" y2="107.819" gradientUnits="userSpaceOnUse">
<stop stop-color="#C48F40"/>
<stop offset="1" stop-color="#DADBDE"/>
</linearGradient>
<linearGradient id="paint7_linear_6_12048" x1="136.927" y1="143.766" x2="162.196" y2="91.7971" gradientUnits="userSpaceOnUse">
<stop stop-color="#F7CF95"/>
<stop offset="1" stop-color="#D3A35B"/>
</linearGradient>
<linearGradient id="paint8_linear_6_12048" x1="198.782" y1="105.508" x2="154.234" y2="125.57" gradientUnits="userSpaceOnUse">
<stop stop-color="#FF7A00"/>
<stop offset="1" stop-color="#FFC28A"/>
</linearGradient>
<linearGradient id="paint9_linear_6_12048" x1="202.806" y1="119.454" x2="170.786" y2="133.874" gradientUnits="userSpaceOnUse">
<stop stop-color="#FF6B00"/>
<stop offset="1" stop-color="#FF9F47"/>
</linearGradient>
<linearGradient id="paint10_linear_6_12048" x1="203.284" y1="170.47" x2="102.218" y2="170.47" gradientUnits="userSpaceOnUse">
<stop stop-color="#D08E3E"/>
<stop offset="1" stop-color="#FFEBD3"/>
</linearGradient>
<linearGradient id="paint11_linear_6_12048" x1="180.638" y1="207.205" x2="181.511" y2="107.259" gradientUnits="userSpaceOnUse">
<stop stop-color="#D5A161"/>
</linearGradient>
<linearGradient id="paint12_linear_6_12048" x1="129.95" y1="202.689" x2="113.582" y2="202.689" gradientUnits="userSpaceOnUse">
<stop stop-color="#EEC38B"/>
<stop offset="1" stop-color="#FFE9CE"/>
</linearGradient>
<linearGradient id="paint13_linear_6_12048" x1="113.501" y1="202.769" x2="97.1333" y2="202.769" gradientUnits="userSpaceOnUse">
<stop stop-color="#E7B473"/>
<stop offset="1" stop-color="#FFE5C2"/>
</linearGradient>
<linearGradient id="paint14_linear_6_12048" x1="147.269" y1="202.689" x2="130.901" y2="202.689" gradientUnits="userSpaceOnUse">
<stop stop-color="#EEC38B"/>
<stop offset="1" stop-color="#FFE9CE"/>
</linearGradient>
<linearGradient id="paint15_linear_6_12048" x1="159.189" y1="202.689" x2="142.821" y2="202.689" gradientUnits="userSpaceOnUse">
<stop stop-color="white"/>
<stop offset="1" stop-color="#DADBDE"/>
</linearGradient>
<linearGradient id="paint16_linear_6_12048" x1="124.23" y1="202.689" x2="107.863" y2="202.689" gradientUnits="userSpaceOnUse">
<stop stop-color="white"/>
<stop offset="1" stop-color="#DADBDE"/>
</linearGradient>
<linearGradient id="paint17_linear_6_12048" x1="141.706" y1="202.689" x2="125.338" y2="202.689" gradientUnits="userSpaceOnUse">
<stop stop-color="white"/>
<stop offset="1" stop-color="#DADBDE"/>
</linearGradient>
<linearGradient id="paint18_linear_6_12048" x1="116.251" y1="214.289" x2="92.9995" y2="214.289" gradientUnits="userSpaceOnUse">
<stop stop-color="#B68649"/>
<stop offset="1" stop-color="#E9B879"/>
</linearGradient>
<linearGradient id="paint19_linear_6_12048" x1="163.245" y1="207.174" x2="112.235" y2="207.015" gradientUnits="userSpaceOnUse">
<stop stop-color="#B68649"/>
<stop offset="1" stop-color="#E9B777"/>
</linearGradient>
</defs>
</svg>
