<svg width="304" height="1438" viewBox="0 0 304 1438" fill="none" xmlns="http://www.w3.org/2000/svg">
<path d="M151.98 1403.56C141.168 1397.08 129.415 1400.41 123.899 1409.97C118.228 1419.79 121.27 1431.54 132.479 1437.78" fill="#FF6B00"/>
<path d="M36.2458 980.999L42.6133 987.367L6.36769 1023.61L0.00021582 1017.25L36.2458 980.999Z" fill="#AA0BF0"/>
<path d="M278.776 1207L290.531 1218.76L255.755 1253.53L244 1241.78L278.776 1207Z" fill="#22DA4A"/>
<path d="M248.312 -6.14904e-05L240 14.3972L282.592 38.9877L290.904 24.5904L248.312 -6.14904e-05Z" fill="#22DA4A"/>
<path d="M30 449.5C30 443.701 25.5228 439 20 439C14.4772 439 10 443.701 10 449.5C10 455.299 14.4772 460 20 460C25.5228 460 30 455.299 30 449.5Z" fill="#F10E0E"/>
<path d="M303.613 343.367L297.245 337L261 373.245L267.367 379.613L303.613 343.367Z" fill="#AA0BF0"/>
<path d="M58 35.0056L58 58.8586L78.9942 58.9998C79.2471 44.6033 71.2794 34.7234 58 35.0056Z" fill="#FFE500"/>
<path d="M250 664.006L250 687.859L270.994 688C271.247 673.603 263.279 663.723 250 664.006Z" fill="#FFE500"/>
</svg>
