<svg width="307" height="587" viewBox="0 0 307 587" fill="none" xmlns="http://www.w3.org/2000/svg">
<path d="M300.924 0.260355C304.063 11.9727 297.988 22.2483 287.424 25.0788C276.484 28.0103 266.109 22.4911 263.002 10.1426" fill="#0181F8"/>
<path d="M215 277.006L215 300.859L235.994 301C236.247 286.604 228.279 276.724 215 277.006Z" fill="#FFE500"/>
<path d="M6.36747 174L0 180.368L36.2456 216.613L42.6131 210.246L6.36747 174Z" fill="#AA0BF0"/>
<path d="M266 576.5C266 570.701 261.523 566 256 566C250.477 566 246 570.701 246 576.5C246 582.299 250.477 587 256 587C261.523 587 266 582.299 266 576.5Z" fill="#F10E0E"/>
</svg>
