<svg width="213" height="229" viewBox="0 0 213 229" fill="none" xmlns="http://www.w3.org/2000/svg">
<path d="M143.237 184.986H5.32129V225.035H143.237V184.986Z" fill="url(#paint0_linear_6_8761)"/>
<path d="M5.32129 184.985V195.761H125.547C128.156 195.761 130.713 196.544 132.853 198.057C135.566 200.014 139.245 203.562 143.263 210.058V184.959H5.32129V184.985Z" fill="url(#paint1_linear_6_8761)"/>
<path d="M0 221.251V228.87L143.108 228.974L179.008 229C188.74 229 196.62 221.121 196.62 211.415V198.448C196.62 188.742 188.74 180.863 179.034 180.863H0.130454V188.482H128.027C132.176 188.482 135.515 191.847 135.515 195.97V213.816C135.515 217.964 132.149 221.304 128.027 221.304H0V221.251Z" fill="url(#paint2_linear_6_8761)"/>
<path d="M46.9099 207.815H5.32129V210.085H46.9099V207.815Z" fill="#C5C9CC"/>
<path d="M36.004 213.894H5.32129V216.164H36.004V213.894Z" fill="#C5C9CC"/>
<path d="M0 221.251V228.87L128.523 228.948C136.585 228.948 143.108 222.425 143.108 214.363V195.395C143.108 187.333 136.585 180.811 128.523 180.811H0.104401V188.429H128.001C132.149 188.429 135.489 191.795 135.489 195.917V213.763C135.489 217.912 132.123 221.251 128.001 221.251H0Z" fill="#5C6374"/>
<path d="M207.006 137.083H69.0908V177.132H207.006V137.083Z" fill="url(#paint3_linear_6_8761)"/>
<path d="M207.005 137.083V147.858H86.779C84.17 147.858 81.6131 148.641 79.4736 150.154C76.7602 152.111 73.0814 155.659 69.0635 162.156V137.057H207.005V137.083Z" fill="url(#paint4_linear_6_8761)"/>
<path d="M212.329 173.323V180.941L69.2211 181.046L33.3202 181.072C23.5884 181.072 15.709 173.192 15.709 163.487V150.519C15.709 140.814 23.5884 132.934 33.2941 132.934H212.198V140.553H84.3014C80.153 140.553 76.8135 143.919 76.8135 148.041V165.835C76.8135 169.983 80.1791 173.323 84.3014 173.323H212.329Z" fill="url(#paint5_linear_6_8761)"/>
<path d="M207.006 159.886H165.417V162.156H207.006V159.886Z" fill="#C5C9CC"/>
<path d="M207.006 165.965H176.323V168.235H207.006V165.965Z" fill="#C5C9CC"/>
<path d="M212.328 173.323V180.941L83.8054 181.019C75.7434 181.019 69.2207 174.497 69.2207 166.435V147.467C69.2207 139.405 75.7434 132.882 83.8054 132.882H212.224V140.501H84.3272C80.1788 140.501 76.8392 143.866 76.8392 147.989V165.835C76.8392 169.983 80.2049 173.323 84.3272 173.323H212.328Z" fill="#AD1916"/>
<path d="M115.87 164.113V207.919L106.242 201.788L106.112 201.71L96.3538 207.919V167.218C96.3538 164.922 95.3102 162.73 93.4838 161.347C92.675 160.747 92.0488 160.539 92.0488 160.539H112.295C114.252 160.539 115.87 162.13 115.87 164.113Z" fill="#EF302A"/>
<path opacity="0.08" d="M115.869 164.113V207.919L106.241 201.788V167.218C106.241 164.922 105.198 162.73 103.372 161.347C102.563 160.747 101.937 160.539 101.937 160.539H112.295C114.251 160.539 115.869 162.13 115.869 164.113Z" fill="black"/>
<path d="M143.237 89.1543H5.32129V129.204H143.237V89.1543Z" fill="url(#paint6_linear_6_8761)"/>
<path d="M5.32129 89.1545V99.93H125.547C128.156 99.93 130.713 100.713 132.853 102.226C135.566 104.183 139.245 107.731 143.263 114.228V89.1284H5.32129V89.1545Z" fill="url(#paint7_linear_6_8761)"/>
<path d="M0 125.421V133.039L143.108 133.143L179.008 133.17C188.74 133.17 196.62 125.29 196.62 115.584V102.617C196.62 92.9116 188.74 85.0322 179.034 85.0322H0.130454V92.6507H128.027C132.176 92.6507 135.515 96.0164 135.515 100.139V117.985C135.515 122.133 132.149 125.473 128.027 125.473H0V125.421Z" fill="url(#paint8_linear_6_8761)"/>
<path d="M46.9099 111.984H5.32129V114.254H46.9099V111.984Z" fill="#C5C9CC"/>
<path d="M36.004 118.063H5.32129V120.333H36.004V118.063Z" fill="#C5C9CC"/>
<path d="M0 125.421V133.039L128.523 133.117C136.585 133.117 143.108 126.595 143.108 118.533V99.5647C143.108 91.5027 136.585 84.98 128.523 84.98H0.104401V92.5985H128.001C132.149 92.5985 135.489 95.9642 135.489 100.087V117.933C135.489 122.081 132.123 125.421 128.001 125.421H0Z" fill="#366D96"/>
<path d="M95.2259 29.1134H92.0523C92.0523 29.1134 92.0261 27.9594 91.8163 26.1497C91.3966 22.2681 90.2689 15.344 87.2527 10.1509C86.7282 9.2592 87.2003 8.10519 88.1969 7.79046L90.5312 7.10855C91.3704 6.8725 92.2622 7.34459 92.5245 8.18388C93.39 10.9902 95.0422 17.4946 95.1996 26.1759C95.2521 27.1201 95.2521 28.1168 95.2259 29.1134Z" fill="#502522"/>
<path opacity="0.08" d="M95.224 29.1126H92.0505C92.0505 29.1126 92.0243 27.9586 91.8145 26.1489C92.7586 26.2014 93.9127 26.2538 95.224 26.1751C95.2503 27.1193 95.2503 28.116 95.224 29.1126Z" fill="black"/>
<path d="M110.307 83.3515C108.209 84.5579 104.091 86.0267 98.0326 84.5841C97.613 84.4792 97.1409 84.3743 96.6164 84.2694C95.4624 84.0596 94.0985 83.876 92.6035 83.8498C90.4004 83.8498 88.4858 84.2432 87.1482 84.5579C81.0897 86.0004 76.9719 84.5317 74.8737 83.3252C57.9831 73.6473 54.8621 47.3935 59.7142 35.9321C65.8515 21.507 78.2833 23.0806 84.2107 26.0181C87.2793 27.5393 91.738 27.7229 92.5772 27.7491C93.4165 27.7229 97.8753 27.5393 100.944 26.0181C102.518 25.2313 104.563 24.5494 106.819 24.2346C113.035 23.3691 120.929 25.3362 125.44 35.9321C130.319 47.4198 127.198 73.6997 110.307 83.3515Z" fill="url(#paint9_linear_6_8761)"/>
<path d="M118.148 0.000488281C118.148 0.000488281 118.148 28.2475 94.5173 24.0249H94.491C94.491 24.0249 87.0949 3.98707 117.965 0.0267174C118.017 0.0267174 118.069 0.000488281 118.148 0.000488281Z" fill="#28C079"/>
<path opacity="0.08" d="M118.147 0.000488281C118.147 0.000488281 118.147 28.2475 94.5156 24.0249C101.256 17.9139 113.688 4.61653 117.963 0.0267174C118.015 0.0267174 118.068 0.000488281 118.147 0.000488281Z" fill="black"/>
<path opacity="0.08" d="M110.305 83.3516C108.207 84.5581 104.089 86.0268 98.0305 84.5843C97.6109 84.4794 97.1388 84.3745 96.6143 84.2696C123.314 79.7846 118.121 35.2766 106.843 24.261C113.059 23.3955 120.953 25.3626 125.465 35.9585C130.317 47.4199 127.195 73.6999 110.305 83.3516Z" fill="black"/>
<g opacity="0.8">
<path d="M64.3131 43.4334C63.4738 43.3285 62.8969 42.5417 63.0542 41.7286C63.9722 36.7454 66.4638 33.6243 67.9849 32.1031C68.6144 31.4737 69.6635 31.5523 70.188 32.3129L70.9225 33.362L70.1094 32.1818L70.188 32.3129C70.5814 32.89 70.529 33.6768 70.0306 34.1751C69.611 34.5685 69.1127 35.1455 68.5881 35.8537C67.2243 37.742 66.3326 39.8927 65.8867 42.2794C65.7556 43.0138 65.0737 43.5121 64.3131 43.4334Z" fill="#FFA7A7"/>
</g>
<defs>
<linearGradient id="paint0_linear_6_8761" x1="156.009" y1="207.497" x2="5.39546" y2="202.933" gradientUnits="userSpaceOnUse">
<stop stop-color="#C5C9CC"/>
<stop offset="1" stop-color="#DADBDE"/>
</linearGradient>
<linearGradient id="paint1_linear_6_8761" x1="160.432" y1="197.791" x2="-29.6504" y2="194.964" gradientUnits="userSpaceOnUse">
<stop stop-color="#FED81D"/>
<stop offset="1" stop-color="#DADBDE"/>
</linearGradient>
<linearGradient id="paint2_linear_6_8761" x1="-0.0070184" y1="204.889" x2="196.607" y2="204.889" gradientUnits="userSpaceOnUse">
<stop stop-color="#FFC200"/>
<stop offset="1" stop-color="#F5E17D"/>
</linearGradient>
<linearGradient id="paint3_linear_6_8761" x1="56.312" y1="159.579" x2="206.925" y2="155.015" gradientUnits="userSpaceOnUse">
<stop stop-color="#C5C9CC"/>
<stop offset="1" stop-color="#DADBDE"/>
</linearGradient>
<linearGradient id="paint4_linear_6_8761" x1="51.8869" y1="149.873" x2="241.97" y2="147.046" gradientUnits="userSpaceOnUse">
<stop stop-color="#E3120F"/>
<stop offset="1" stop-color="#FD6F6B"/>
</linearGradient>
<linearGradient id="paint5_linear_6_8761" x1="212.329" y1="156.971" x2="15.7144" y2="156.971" gradientUnits="userSpaceOnUse">
<stop stop-color="#FF8F8F"/>
<stop offset="1" stop-color="#E41411"/>
</linearGradient>
<linearGradient id="paint6_linear_6_8761" x1="156.009" y1="111.662" x2="5.39547" y2="107.098" gradientUnits="userSpaceOnUse">
<stop stop-color="#C5C9CC"/>
<stop offset="1" stop-color="#DADBDE"/>
</linearGradient>
<linearGradient id="paint7_linear_6_8761" x1="160.432" y1="101.956" x2="-29.6504" y2="99.1293" gradientUnits="userSpaceOnUse">
<stop stop-color="#3A5065"/>
<stop offset="1" stop-color="#DADBDE"/>
</linearGradient>
<linearGradient id="paint8_linear_6_8761" x1="-0.0070184" y1="109.054" x2="196.607" y2="109.054" gradientUnits="userSpaceOnUse">
<stop stop-color="#093F91"/>
<stop offset="1" stop-color="#88D4FF"/>
</linearGradient>
<linearGradient id="paint9_linear_6_8761" x1="67.1842" y1="75.088" x2="117.966" y2="28.346" gradientUnits="userSpaceOnUse">
<stop stop-color="#DC0000"/>
<stop offset="1" stop-color="#FF574D"/>
<stop offset="1" stop-color="#FF574D"/>
</linearGradient>
</defs>
</svg>
