<svg width="1254" height="652" viewBox="0 0 1254 652" fill="none" xmlns="http://www.w3.org/2000/svg">
<path d="M142 400C146.971 400 151 396.194 151 391.5C151 386.806 146.971 383 142 383C137.029 383 133 386.806 133 391.5C133 396.194 137.029 400 142 400Z" fill="#F10E0E"/>
<path d="M189.279 80.2462C204.887 70.8913 221.855 75.703 229.818 89.495C238.004 103.674 233.612 120.645 217.43 129.644" fill="#FF6B00"/>
<path d="M1192 345L1180 365.785L1241.49 401.285L1253.49 380.5L1192 345Z" fill="#22DA4A"/>
<path d="M878.192 220L869 229.192L921.326 281.518L930.518 272.326L878.192 220Z" fill="#AA0BF0"/>
<path d="M4.05346e-07 618.008L2.38454e-09 651.8L30.9914 652C31.3648 631.605 19.603 617.608 4.05346e-07 618.008Z" fill="#FFE500"/>
<path d="M1096.35 0.338719C1100.44 15.5803 1092.53 28.9522 1078.79 32.6355C1064.55 36.4504 1051.05 29.2681 1047 13.1987" fill="#0181F8"/>
<path d="M1046.58 603.343C1032.91 611.232 1017.95 607.057 1010.84 594.732C1003.47 581.967 1006.91 567.068 1021.38 559.004" fill="#FF1378"/>
<path d="M320 488.078L336.252 505.738L388.497 457.66L372.245 440L320 488.078Z" fill="#22DA4A"/>
</svg>
