<svg width="351" height="966" viewBox="0 0 351 966" fill="none" xmlns="http://www.w3.org/2000/svg">
<path d="M340.256 140.002L348.024 147.77L340.945 154.941C336.171 150.338 335.657 144.417 340.256 140.002Z" fill="#FFE500"/>
<path d="M300.104 93.3167V101.12H323.187V93.3167H300.104Z" fill="#22DA4A"/>
<path d="M26.9304 9.58865C23.9535 12.6854 19.7479 12.7472 16.9846 10.0908C14.1226 7.33941 13.9196 3.20492 17.0948 0.000825975" fill="#0181F8"/>
<path d="M56.9887 87.0001L54 89.9888L71.0124 107.001L74.001 104.012L56.9887 87.0001Z" fill="#AA0BF0"/>
<path d="M49.2557 263.002L57.0243 270.77L49.9455 277.941C45.1709 273.338 44.6571 267.417 49.2557 263.002Z" fill="#FFE500"/>
<path d="M5.87743 383.191C1.89714 379.49 2.445 374.866 5.62703 371.699C8.89827 368.442 13.3051 367.516 17.3005 372.006" fill="#FF6B00"/>
<path d="M288.227 521.204C284.238 517.512 284.776 512.886 287.951 509.712C291.214 506.448 295.619 505.512 299.625 509.992" fill="#FF1378"/>
<path d="M319 435.227L320.094 439.31L343.333 433.083L342.239 429L319 435.227Z" fill="#AA0BF0"/>
<path d="M49.2557 730.002L57.0243 737.77L49.9455 744.941C45.1709 740.338 44.6571 734.417 49.2557 730.002Z" fill="#FFE500"/>
<path d="M9.10352 694.317V702.12H32.1873V694.317H9.10352Z" fill="#22DA4A"/>
<path d="M256.989 713L254 715.989L271.012 733.001L274.001 730.012L256.989 713Z" fill="#AA0BF0"/>
<path d="M333.93 622.589C330.953 625.685 326.748 625.747 323.985 623.091C321.123 620.339 320.92 616.205 324.095 613.001" fill="#0181F8"/>
<path d="M327 862V869.803H350.084V862H327Z" fill="#22DA4A"/>
<path d="M283.877 965.191C279.897 961.49 280.445 956.866 283.627 953.699C286.898 950.442 291.305 949.516 295.301 954.006" fill="#FF6B00"/>
</svg>
