<svg width="1234" height="797" viewBox="0 0 1234 797" fill="none" xmlns="http://www.w3.org/2000/svg">
<path d="M213 304.008L213 337.8L243.991 338C244.365 317.605 232.603 303.608 213 304.008Z" fill="#FFE500"/>
<path d="M1200 763.008L1200 796.8L1230.99 797C1231.36 776.605 1219.6 762.608 1200 763.008Z" fill="#FFE500"/>
<path d="M1224.33 61.5181L1233.52 52.3257L1181.19 -0.000221729L1172 9.19217L1224.33 61.5181Z" fill="#AA0BF0"/>
<path d="M265.325 620.519L274.518 611.326L222.192 559L212.999 568.193L265.325 620.519Z" fill="#AA0BF0"/>
<path d="M1165.35 621.338C1169.44 636.58 1161.53 649.952 1147.79 653.635C1133.55 657.45 1120.05 650.268 1116 634.198" fill="#0181F8"/>
<path d="M49.3531 23.3382C53.4371 38.5798 45.5315 51.9517 31.7851 55.635C17.5477 59.4499 4.04696 52.2676 0.00426878 36.1982" fill="#0181F8"/>
<path d="M1059 440C1059 432.82 1053.4 427 1046.5 427C1039.6 427 1034 432.82 1034 440C1034 447.179 1039.6 453 1046.5 453C1053.4 453 1059 447.179 1059 440Z" fill="#F10E0E"/>
<path d="M40 231C40 223.82 34.4036 218 27.5 218C20.5964 218 15 223.82 15 231C15 238.179 20.5964 244 27.5 244C34.4036 244 40 238.179 40 231Z" fill="#F10E0E"/>
<path d="M65.0002 753.078L81.252 770.738L133.497 722.66L117.245 705L65.0002 753.078Z" fill="#22DA4A"/>
<path d="M1116 259.078L1132.25 276.738L1184.5 228.66L1168.24 211L1116 259.078Z" fill="#22DA4A"/>
</svg>
